<svg width="24" height="24" viewBox="0 0 24 24" fill="none" xmlns="http://www.w3.org/2000/svg"><path d="M3.848 2.061 C 2.602 2.332,1.789 3.618,2.059 4.893 C 2.205 5.581,2.721 6.252,3.324 6.539 C 4.566 7.128,5.970 6.629,6.535 5.396 C 6.702 5.031,6.760 4.768,6.760 4.367 C 6.760 3.741,6.501 3.131,6.043 2.680 C 5.471 2.116,4.656 1.886,3.848 2.061 M2.600 15.200 L 2.600 22.000 4.420 22.000 L 6.240 22.000 6.240 15.200 L 6.240 8.400 4.420 8.400 L 2.600 8.400 2.600 15.200 M9.120 15.200 L 9.120 22.000 10.940 22.000 L 12.760 22.000 12.760 18.139 C 12.760 13.733,12.724 14.193,13.139 13.338 C 13.679 12.225,14.386 11.618,15.260 11.516 C 15.893 11.442,16.381 11.523,16.881 11.784 C 17.543 12.130,18.055 12.776,18.240 13.499 C 18.317 13.803,18.320 13.941,18.320 17.906 L 18.320 22.000 20.160 22.000 L 22.000 22.000 22.000 17.030 C 22.000 12.891,21.990 11.996,21.942 11.680 C 21.701 10.104,20.704 9.070,18.993 8.622 C 18.361 8.456,18.000 8.420,17.000 8.420 C 16.144 8.421,16.030 8.429,15.720 8.513 C 14.525 8.838,13.479 9.696,12.904 10.822 L 12.763 11.100 12.761 9.750 L 12.760 8.400 10.940 8.400 L 9.120 8.400 9.120 15.200 " stroke="none" fill-rule="evenodd"></path></svg>