<svg width="24" height="24" viewBox="0 0 24 24" fill="none" xmlns="http://www.w3.org/2000/svg"><path d="M15.540 3.043 C 14.832 3.140,14.158 3.384,13.497 3.781 C 12.199 4.560,11.444 5.598,11.096 7.080 C 11.031 7.355,11.023 7.788,11.002 12.220 C 10.980 16.780,10.974 17.073,10.905 17.280 C 10.465 18.594,9.234 19.443,7.770 19.443 C 7.299 19.443,7.035 19.403,6.640 19.274 C 5.894 19.030,5.263 18.532,4.884 17.889 C 4.630 17.458,4.550 17.172,4.529 16.619 C 4.507 16.043,4.562 15.781,4.806 15.282 C 5.194 14.490,6.230 13.753,7.086 13.660 C 7.398 13.626,7.701 13.439,7.859 13.183 C 7.969 13.004,7.980 12.956,7.980 12.640 C 7.980 12.324,7.969 12.276,7.859 12.098 C 7.679 11.807,7.426 11.665,7.055 11.646 C 6.162 11.601,4.807 12.232,3.944 13.095 C 2.626 14.412,2.166 16.356,2.765 18.071 C 3.026 18.819,3.424 19.425,4.044 20.022 C 5.045 20.984,6.334 21.493,7.760 21.489 C 9.201 21.485,10.495 20.968,11.503 19.993 C 12.221 19.299,12.624 18.589,12.907 17.520 C 12.970 17.283,12.978 16.822,13.000 12.380 C 13.026 6.964,13.005 7.367,13.297 6.780 C 13.681 6.010,14.459 5.403,15.380 5.155 C 15.836 5.032,16.685 5.032,17.138 5.155 C 18.287 5.466,19.156 6.304,19.423 7.359 C 19.517 7.726,19.486 8.482,19.364 8.840 C 19.166 9.416,18.713 9.999,18.194 10.344 C 17.831 10.585,17.297 10.800,16.955 10.843 C 16.619 10.885,16.411 10.987,16.231 11.198 C 15.911 11.572,15.917 12.164,16.246 12.537 C 16.596 12.935,17.081 12.977,17.955 12.685 C 18.515 12.498,18.817 12.352,19.280 12.047 C 19.692 11.775,20.389 11.087,20.645 10.700 C 21.446 9.488,21.689 8.124,21.341 6.788 C 20.863 4.950,19.304 3.517,17.349 3.118 C 16.876 3.021,15.970 2.984,15.540 3.043 " stroke="none" fill-rule="evenodd"></path></svg>