<svg width="24" height="24" viewBox="0 0 24 24" fill="none" xmlns="http://www.w3.org/2000/svg"><path d="M11.224 1.041 C 7.504 1.467,5.281 4.696,5.280 9.673 L 5.280 10.287 4.816 11.473 C 3.791 14.099,3.361 15.462,3.118 16.860 C 2.955 17.802,2.974 18.780,3.159 19.009 C 3.222 19.086,3.240 19.090,3.351 19.044 C 3.608 18.937,4.248 18.159,4.833 17.241 L 5.100 16.822 5.126 17.163 C 5.226 18.471,5.922 19.883,6.976 20.918 L 7.238 21.176 6.869 21.307 C 6.107 21.576,5.487 21.955,5.339 22.243 C 5.257 22.401,5.265 22.585,5.358 22.678 C 5.459 22.779,5.761 22.865,6.240 22.929 C 6.793 23.003,9.784 22.997,10.840 22.920 C 11.863 22.845,12.137 22.845,13.160 22.920 C 14.216 22.997,17.207 23.003,17.760 22.929 C 18.239 22.865,18.541 22.779,18.642 22.678 C 18.790 22.530,18.705 22.198,18.467 21.993 C 18.271 21.824,17.751 21.547,17.300 21.373 C 17.036 21.270,16.812 21.180,16.802 21.172 C 16.792 21.164,16.929 21.010,17.105 20.829 C 17.497 20.428,17.694 20.186,17.930 19.820 C 18.453 19.007,18.810 18.002,18.874 17.163 L 18.900 16.822 19.195 17.281 C 19.990 18.519,20.642 19.215,20.831 19.026 C 20.997 18.860,21.045 18.069,20.939 17.252 C 20.756 15.849,20.312 14.377,19.237 11.612 L 18.720 10.283 18.720 9.648 C 18.720 4.906,16.652 1.705,13.200 1.103 C 12.748 1.024,11.668 0.990,11.224 1.041 " stroke="none" fill-rule="evenodd"></path></svg>