<svg width="16" height="16" viewBox="0 0 16 16" xmlns="http://www.w3.org/2000/svg">
<path fill-rule="evenodd" clip-rule="evenodd" d="M1 1.5C1 1.22386 1.22386 1 1.5 1L14.4928 1C14.7689 1 14.9928 1.22386 14.9928 1.5C14.9928 1.77614 14.7689 2 14.4928 2L1.5 2C1.22386 2 1 1.77614 1 1.5Z" fill="#181818"/>
<path fill-rule="evenodd" clip-rule="evenodd" d="M1.25656 4C1.25656 3.58579 1.59235 3.25 2.00656 3.25L2.01322 3.25C2.42743 3.25 2.76322 3.58579 2.76322 4C2.76322 4.41421 2.42743 4.75 2.01322 4.75L2.00656 4.75C1.59235 4.75 1.25656 4.41421 1.25656 4ZM7.24995 4C7.24995 3.58579 7.58574 3.25 7.99995 3.25L8.00661 3.25C8.42082 3.25 8.75661 3.58579 8.75661 4C8.75661 4.41421 8.42082 4.75 8.00661 4.75L7.99995 4.75C7.58574 4.75 7.24995 4.41421 7.24995 4ZM13.2433 4C13.2433 3.58579 13.5791 3.25 13.9933 3.25L14 3.25C14.4142 3.25 14.75 3.58579 14.75 4C14.75 4.41421 14.4142 4.75 14 4.75L13.9933 4.75C13.5791 4.75 13.2433 4.41421 13.2433 4ZM1.25656 7.33333C1.25656 6.91912 1.59235 6.58333 2.00656 6.58333L2.01322 6.58333C2.42743 6.58333 2.76322 6.91912 2.76322 7.33333C2.76322 7.74755 2.42743 8.08333 2.01322 8.08333L2.00656 8.08333C1.59235 8.08333 1.25656 7.74755 1.25656 7.33333ZM4.25326 7.33333C4.25326 6.91912 4.58904 6.58333 5.00326 6.58333L5.00992 6.58333C5.42413 6.58333 5.75992 6.91912 5.75992 7.33333C5.75992 7.74755 5.42413 8.08333 5.00992 8.08333L5.00326 8.08333C4.58904 8.08333 4.25326 7.74755 4.25326 7.33333ZM7.24995 7.33333C7.24995 6.91912 7.58574 6.58333 7.99995 6.58333L8.00661 6.58333C8.42082 6.58333 8.75661 6.91912 8.75661 7.33333C8.75661 7.74755 8.42082 8.08333 8.00661 8.08333L7.99995 8.08333C7.58574 8.08333 7.24995 7.74755 7.24995 7.33333ZM10.2466 7.33333C10.2466 6.91912 10.5824 6.58333 10.9966 6.58333L11.0033 6.58333C11.4175 6.58333 11.7533 6.91912 11.7533 7.33333C11.7533 7.74755 11.4175 8.08333 11.0033 8.08333L10.9966 8.08333C10.5824 8.08333 10.2466 7.74755 10.2466 7.33333ZM13.2433 7.33333C13.2433 6.91912 13.5791 6.58333 13.9933 6.58333L14 6.58333C14.4142 6.58333 14.75 6.91912 14.75 7.33333C14.75 7.74755 14.4142 8.08333 14 8.08333L13.9933 8.08333C13.5791 8.08333 13.2433 7.74755 13.2433 7.33333ZM1.25 10.4103C1.25 9.99604 1.58579 9.66026 2 9.66026L2.00666 9.66026C2.42087 9.66026 2.75666 9.99604 2.75666 10.4103C2.75666 10.8245 2.42087 11.1603 2.00666 11.1603L2 11.1603C1.58579 11.1603 1.25 10.8245 1.25 10.4103ZM7.24339 10.4103C7.24339 9.99604 7.57917 9.66026 7.99339 9.66026L8.00005 9.66026C8.41426 9.66026 8.75005 9.99604 8.75005 10.4103C8.75005 10.8245 8.41426 11.1603 8.00005 11.1603L7.99339 11.1603C7.57917 11.1603 7.24339 10.8245 7.24339 10.4103ZM13.2368 10.4103C13.2368 9.99604 13.5726 9.66026 13.9868 9.66026L13.9934 9.66026C14.4077 9.66026 14.7434 9.99604 14.7434 10.4103C14.7434 10.8245 14.4077 11.1603 13.9934 11.1603L13.9868 11.1603C13.5726 11.1603 13.2368 10.8245 13.2368 10.4103ZM1.25656 14C1.25656 13.5858 1.59235 13.25 2.00656 13.25L2.01322 13.25C2.42743 13.25 2.76322 13.5858 2.76322 14C2.76322 14.4142 2.42743 14.75 2.01322 14.75L2.00656 14.75C1.59235 14.75 1.25656 14.4142 1.25656 14ZM4.25326 14C4.25326 13.5858 4.58904 13.25 5.00326 13.25L5.00992 13.25C5.42413 13.25 5.75992 13.5858 5.75992 14C5.75992 14.4142 5.42413 14.75 5.00992 14.75L5.00326 14.75C4.58904 14.75 4.25326 14.4142 4.25326 14ZM7.24995 14C7.24995 13.5858 7.58574 13.25 7.99995 13.25L8.00661 13.25C8.42082 13.25 8.75661 13.5858 8.75661 14C8.75661 14.4142 8.42082 14.75 8.00661 14.75L7.99995 14.75C7.58574 14.75 7.24995 14.4142 7.24995 14ZM10.2466 14C10.2466 13.5858 10.5824 13.25 10.9966 13.25L11.0033 13.25C11.4175 13.25 11.7533 13.5858 11.7533 14C11.7533 14.4142 11.4175 14.75 11.0033 14.75L10.9966 14.75C10.5824 14.75 10.2466 14.4142 10.2466 14ZM13.2433 14C13.2433 13.5858 13.5791 13.25 13.9933 13.25L14 13.25C14.4142 13.25 14.75 13.5858 14.75 14C14.75 14.4142 14.4142 14.75 14 14.75L13.9933 14.75C13.5791 14.75 13.2433 14.4142 13.2433 14Z"/>
</svg>
