<svg width="16" height="16" viewBox="0 0 16 16" xmlns="http://www.w3.org/2000/svg">
<path fill-rule="evenodd" clip-rule="evenodd" d="M15 14.5C15 14.7761 14.7761 15 14.5 15L1.50722 15C1.23107 15 1.00722 14.7761 1.00722 14.5C1.00722 14.2239 1.23107 14 1.50722 14L14.5 14C14.7761 14 15 14.2239 15 14.5Z" fill="#181818"/>
<path fill-rule="evenodd" clip-rule="evenodd" d="M14.7434 12C14.7434 12.4142 14.4077 12.75 13.9934 12.75L13.9868 12.75C13.5726 12.75 13.2368 12.4142 13.2368 12C13.2368 11.5858 13.5726 11.25 13.9868 11.25L13.9934 11.25C14.4077 11.25 14.7434 11.5858 14.7434 12ZM8.75005 12C8.75005 12.4142 8.41426 12.75 8.00005 12.75L7.99339 12.75C7.57918 12.75 7.24339 12.4142 7.24339 12C7.24339 11.5858 7.57918 11.25 7.99339 11.25L8.00005 11.25C8.41426 11.25 8.75005 11.5858 8.75005 12ZM2.75666 12C2.75666 12.4142 2.42087 12.75 2.00666 12.75L2 12.75C1.58578 12.75 1.25 12.4142 1.25 12C1.25 11.5858 1.58579 11.25 2 11.25L2.00666 11.25C2.42087 11.25 2.75666 11.5858 2.75666 12ZM14.7434 8.66667C14.7434 9.08088 14.4077 9.41667 13.9934 9.41667L13.9868 9.41667C13.5726 9.41667 13.2368 9.08088 13.2368 8.66667C13.2368 8.25245 13.5726 7.91667 13.9868 7.91667L13.9934 7.91667C14.4077 7.91667 14.7434 8.25245 14.7434 8.66667ZM11.7467 8.66667C11.7467 9.08088 11.411 9.41667 10.9967 9.41667L10.9901 9.41667C10.5759 9.41667 10.2401 9.08088 10.2401 8.66667C10.2401 8.25245 10.5759 7.91667 10.9901 7.91667L10.9967 7.91667C11.411 7.91667 11.7467 8.25245 11.7467 8.66667ZM8.75005 8.66667C8.75005 9.08088 8.41426 9.41667 8.00005 9.41667L7.99339 9.41667C7.57918 9.41667 7.24339 9.08088 7.24339 8.66667C7.24339 8.25245 7.57918 7.91667 7.99339 7.91667L8.00005 7.91667C8.41426 7.91667 8.75005 8.25245 8.75005 8.66667ZM5.75335 8.66667C5.75335 9.08088 5.41757 9.41667 5.00335 9.41667L4.99669 9.41667C4.58248 9.41667 4.24669 9.08088 4.24669 8.66667C4.24669 8.25245 4.58248 7.91667 4.99669 7.91667L5.00335 7.91667C5.41757 7.91667 5.75335 8.25245 5.75335 8.66667ZM2.75666 8.66667C2.75666 9.08088 2.42087 9.41667 2.00666 9.41667L2 9.41667C1.58579 9.41667 1.25 9.08088 1.25 8.66667C1.25 8.25245 1.58579 7.91667 2 7.91667L2.00666 7.91667C2.42087 7.91667 2.75666 8.25245 2.75666 8.66667ZM14.75 5.58974C14.75 6.00396 14.4142 6.33974 14 6.33974L13.9933 6.33974C13.5791 6.33974 13.2433 6.00396 13.2433 5.58974C13.2433 5.17553 13.5791 4.83974 13.9933 4.83974L14 4.83974C14.4142 4.83974 14.75 5.17553 14.75 5.58974ZM8.75661 5.58974C8.75661 6.00396 8.42083 6.33974 8.00661 6.33974L7.99995 6.33974C7.58574 6.33974 7.24995 6.00396 7.24995 5.58974C7.24995 5.17553 7.58574 4.83974 7.99995 4.83974L8.00661 4.83974C8.42083 4.83974 8.75661 5.17553 8.75661 5.58974ZM2.76322 5.58974C2.76322 6.00396 2.42743 6.33974 2.01322 6.33974L2.00656 6.33974C1.59235 6.33974 1.25656 6.00396 1.25656 5.58974C1.25656 5.17553 1.59235 4.83974 2.00656 4.83974L2.01322 4.83974C2.42743 4.83974 2.76322 5.17553 2.76322 5.58974ZM14.7434 2C14.7434 2.41421 14.4077 2.75 13.9934 2.75L13.9868 2.75C13.5726 2.75 13.2368 2.41421 13.2368 2C13.2368 1.58579 13.5726 1.25 13.9868 1.25L13.9934 1.25C14.4077 1.25 14.7434 1.58579 14.7434 2ZM11.7467 2C11.7467 2.41421 11.411 2.75 10.9967 2.75L10.9901 2.75C10.5759 2.75 10.2401 2.41421 10.2401 2C10.2401 1.58579 10.5759 1.25 10.9901 1.25L10.9967 1.25C11.411 1.25 11.7467 1.58579 11.7467 2ZM8.75005 2C8.75005 2.41421 8.41426 2.75 8.00005 2.75L7.99339 2.75C7.57918 2.75 7.24339 2.41421 7.24339 2C7.24339 1.58579 7.57918 1.25 7.99339 1.25L8.00005 1.25C8.41426 1.25 8.75005 1.58579 8.75005 2ZM5.75335 2C5.75335 2.41421 5.41757 2.75 5.00335 2.75L4.99669 2.75C4.58248 2.75 4.24669 2.41421 4.24669 2C4.24669 1.58579 4.58248 1.25 4.99669 1.25L5.00335 1.25C5.41757 1.25 5.75335 1.58579 5.75335 2ZM2.75666 2C2.75666 2.41421 2.42087 2.75 2.00666 2.75L2 2.75C1.58579 2.75 1.25 2.41421 1.25 2C1.25 1.58579 1.58579 1.25 2 1.25L2.00666 1.25C2.42087 1.25 2.75666 1.58579 2.75666 2Z"/>
</svg>
