<svg width="16" height="16" viewBox="0 0 16 16" xmlns="http://www.w3.org/2000/svg">
<path fill-rule="evenodd" clip-rule="evenodd" d="M14.5 1C14.7761 1 15 1.22386 15 1.5L15 14.4928C15 14.7689 14.7761 14.9928 14.5 14.9928C14.2239 14.9928 14 14.7689 14 14.4928L14 1.5C14 1.22386 14.2239 1 14.5 1Z" fill="#181818"/>
<path fill-rule="evenodd" clip-rule="evenodd" d="M12 1.25656C12.4142 1.25656 12.75 1.59235 12.75 2.00656L12.75 2.01322C12.75 2.42743 12.4142 2.76322 12 2.76322C11.5858 2.76322 11.25 2.42743 11.25 2.01322L11.25 2.00656C11.25 1.59235 11.5858 1.25656 12 1.25656ZM12 7.24995C12.4142 7.24995 12.75 7.58574 12.75 7.99995L12.75 8.00661C12.75 8.42082 12.4142 8.75661 12 8.75661C11.5858 8.75661 11.25 8.42082 11.25 8.00661L11.25 7.99995C11.25 7.58574 11.5858 7.24995 12 7.24995ZM12 13.2433C12.4142 13.2433 12.75 13.5791 12.75 13.9933L12.75 14C12.75 14.4142 12.4142 14.75 12 14.75C11.5858 14.75 11.25 14.4142 11.25 14L11.25 13.9933C11.25 13.5791 11.5858 13.2433 12 13.2433ZM8.66667 1.25656C9.08088 1.25656 9.41667 1.59235 9.41667 2.00656L9.41667 2.01322C9.41667 2.42743 9.08088 2.76322 8.66667 2.76322C8.25245 2.76322 7.91667 2.42743 7.91667 2.01322L7.91667 2.00656C7.91667 1.59235 8.25245 1.25656 8.66667 1.25656ZM8.66667 4.25326C9.08088 4.25326 9.41667 4.58904 9.41667 5.00326L9.41667 5.00992C9.41667 5.42413 9.08088 5.75992 8.66667 5.75992C8.25245 5.75992 7.91667 5.42413 7.91667 5.00992L7.91667 5.00326C7.91667 4.58904 8.25245 4.25326 8.66667 4.25326ZM8.66667 7.24995C9.08088 7.24995 9.41667 7.58574 9.41667 7.99995L9.41667 8.00661C9.41667 8.42082 9.08088 8.75661 8.66667 8.75661C8.25245 8.75661 7.91667 8.42082 7.91667 8.00661L7.91667 7.99995C7.91667 7.58574 8.25245 7.24995 8.66667 7.24995ZM8.66667 10.2466C9.08088 10.2466 9.41667 10.5824 9.41667 10.9966L9.41667 11.0033C9.41667 11.4175 9.08088 11.7533 8.66667 11.7533C8.25245 11.7533 7.91667 11.4175 7.91667 11.0033L7.91667 10.9966C7.91667 10.5824 8.25245 10.2466 8.66667 10.2466ZM8.66667 13.2433C9.08088 13.2433 9.41667 13.5791 9.41667 13.9933L9.41667 14C9.41667 14.4142 9.08088 14.75 8.66667 14.75C8.25245 14.75 7.91667 14.4142 7.91667 14L7.91667 13.9933C7.91667 13.5791 8.25245 13.2433 8.66667 13.2433ZM5.58974 1.25C6.00396 1.25 6.33974 1.58579 6.33974 2L6.33974 2.00666C6.33974 2.42087 6.00396 2.75666 5.58974 2.75666C5.17553 2.75666 4.83974 2.42087 4.83974 2.00666L4.83974 2C4.83974 1.58579 5.17553 1.25 5.58974 1.25ZM5.58974 7.24339C6.00396 7.24339 6.33974 7.57917 6.33974 7.99339L6.33974 8.00005C6.33974 8.41426 6.00396 8.75005 5.58974 8.75005C5.17553 8.75005 4.83974 8.41426 4.83974 8.00005L4.83974 7.99339C4.83974 7.57917 5.17553 7.24339 5.58974 7.24339ZM5.58974 13.2368C6.00396 13.2368 6.33974 13.5726 6.33974 13.9868L6.33974 13.9934C6.33974 14.4077 6.00396 14.7434 5.58974 14.7434C5.17553 14.7434 4.83974 14.4077 4.83974 13.9934L4.83974 13.9868C4.83974 13.5726 5.17553 13.2368 5.58974 13.2368ZM2 1.25656C2.41421 1.25656 2.75 1.59235 2.75 2.00656L2.75 2.01322C2.75 2.42743 2.41421 2.76322 2 2.76322C1.58579 2.76322 1.25 2.42743 1.25 2.01322L1.25 2.00656C1.25 1.59235 1.58579 1.25656 2 1.25656ZM2 4.25326C2.41421 4.25326 2.75 4.58904 2.75 5.00326L2.75 5.00992C2.75 5.42413 2.41421 5.75992 2 5.75992C1.58579 5.75992 1.25 5.42413 1.25 5.00992L1.25 5.00326C1.25 4.58904 1.58579 4.25326 2 4.25326ZM2 7.24995C2.41421 7.24995 2.75 7.58574 2.75 7.99995L2.75 8.00661C2.75 8.42082 2.41421 8.75661 2 8.75661C1.58579 8.75661 1.25 8.42082 1.25 8.00661L1.25 7.99995C1.25 7.58574 1.58579 7.24995 2 7.24995ZM2 10.2466C2.41421 10.2466 2.75 10.5824 2.75 10.9966L2.75 11.0033C2.75 11.4175 2.41421 11.7533 2 11.7533C1.58579 11.7533 1.25 11.4175 1.25 11.0033L1.25 10.9966C1.25 10.5824 1.58579 10.2466 2 10.2466ZM2 13.2433C2.41421 13.2433 2.75 13.5791 2.75 13.9933L2.75 14C2.75 14.4142 2.41421 14.75 2 14.75C1.58579 14.75 1.25 14.4142 1.25 14L1.25 13.9933C1.25 13.5791 1.58579 13.2433 2 13.2433Z"/>
</svg>
