<svg width="16" height="16" viewBox="0 0 16 16" xmlns="http://www.w3.org/2000/svg">
<path fill-rule="evenodd" clip-rule="evenodd" d="M1.5 15C1.22386 15 1 14.7761 1 14.5L1 1.50722C1 1.23107 1.22386 1.00722 1.5 1.00722C1.77614 1.00722 2 1.23107 2 1.50722L2 14.5C2 14.7761 1.77614 15 1.5 15Z" fill="#181818"/>
<path fill-rule="evenodd" clip-rule="evenodd" d="M4 14.7434C3.58579 14.7434 3.25 14.4077 3.25 13.9934L3.25 13.9868C3.25 13.5726 3.58579 13.2368 4 13.2368C4.41421 13.2368 4.75 13.5726 4.75 13.9868L4.75 13.9934C4.75 14.4077 4.41421 14.7434 4 14.7434ZM4 8.75005C3.58579 8.75005 3.25 8.41426 3.25 8.00005L3.25 7.99339C3.25 7.57918 3.58579 7.24339 4 7.24339C4.41421 7.24339 4.75 7.57918 4.75 7.99339L4.75 8.00005C4.75 8.41426 4.41421 8.75005 4 8.75005ZM4 2.75666C3.58579 2.75666 3.25 2.42087 3.25 2.00666L3.25 2C3.25 1.58578 3.58579 1.25 4 1.25C4.41421 1.25 4.75 1.58579 4.75 2L4.75 2.00666C4.75 2.42087 4.41421 2.75666 4 2.75666ZM7.33333 14.7434C6.91912 14.7434 6.58333 14.4077 6.58333 13.9934L6.58333 13.9868C6.58333 13.5726 6.91912 13.2368 7.33333 13.2368C7.74755 13.2368 8.08333 13.5726 8.08333 13.9868L8.08333 13.9934C8.08333 14.4077 7.74755 14.7434 7.33333 14.7434ZM7.33333 11.7467C6.91912 11.7467 6.58333 11.411 6.58333 10.9967L6.58333 10.9901C6.58333 10.5759 6.91912 10.2401 7.33333 10.2401C7.74755 10.2401 8.08333 10.5759 8.08333 10.9901L8.08333 10.9967C8.08333 11.411 7.74755 11.7467 7.33333 11.7467ZM7.33333 8.75005C6.91912 8.75005 6.58333 8.41426 6.58333 8.00005L6.58333 7.99339C6.58333 7.57918 6.91912 7.24339 7.33333 7.24339C7.74755 7.24339 8.08333 7.57918 8.08333 7.99339L8.08333 8.00005C8.08333 8.41426 7.74755 8.75005 7.33333 8.75005ZM7.33333 5.75335C6.91912 5.75335 6.58333 5.41757 6.58333 5.00335L6.58333 4.99669C6.58333 4.58248 6.91912 4.24669 7.33333 4.24669C7.74755 4.24669 8.08333 4.58248 8.08333 4.99669L8.08333 5.00335C8.08333 5.41757 7.74755 5.75335 7.33333 5.75335ZM7.33333 2.75666C6.91912 2.75666 6.58333 2.42087 6.58333 2.00666L6.58333 2C6.58333 1.58579 6.91912 1.25 7.33333 1.25C7.74755 1.25 8.08333 1.58579 8.08333 2L8.08333 2.00666C8.08333 2.42087 7.74755 2.75666 7.33333 2.75666ZM10.4103 14.75C9.99604 14.75 9.66026 14.4142 9.66026 14L9.66026 13.9933C9.66026 13.5791 9.99604 13.2433 10.4103 13.2433C10.8245 13.2433 11.1603 13.5791 11.1603 13.9933L11.1603 14C11.1603 14.4142 10.8245 14.75 10.4103 14.75ZM10.4103 8.75661C9.99604 8.75661 9.66026 8.42083 9.66026 8.00661L9.66026 7.99995C9.66026 7.58574 9.99604 7.24995 10.4103 7.24995C10.8245 7.24995 11.1603 7.58574 11.1603 7.99995L11.1603 8.00661C11.1603 8.42083 10.8245 8.75661 10.4103 8.75661ZM10.4103 2.76322C9.99604 2.76322 9.66026 2.42743 9.66026 2.01322L9.66026 2.00656C9.66026 1.59235 9.99604 1.25656 10.4103 1.25656C10.8245 1.25656 11.1603 1.59235 11.1603 2.00656L11.1603 2.01322C11.1603 2.42743 10.8245 2.76322 10.4103 2.76322ZM14 14.7434C13.5858 14.7434 13.25 14.4077 13.25 13.9934L13.25 13.9868C13.25 13.5726 13.5858 13.2368 14 13.2368C14.4142 13.2368 14.75 13.5726 14.75 13.9868L14.75 13.9934C14.75 14.4077 14.4142 14.7434 14 14.7434ZM14 11.7467C13.5858 11.7467 13.25 11.411 13.25 10.9967L13.25 10.9901C13.25 10.5759 13.5858 10.2401 14 10.2401C14.4142 10.2401 14.75 10.5759 14.75 10.9901L14.75 10.9967C14.75 11.411 14.4142 11.7467 14 11.7467ZM14 8.75005C13.5858 8.75005 13.25 8.41426 13.25 8.00005L13.25 7.99339C13.25 7.57918 13.5858 7.24339 14 7.24339C14.4142 7.24339 14.75 7.57918 14.75 7.99339L14.75 8.00005C14.75 8.41426 14.4142 8.75005 14 8.75005ZM14 5.75335C13.5858 5.75335 13.25 5.41757 13.25 5.00335L13.25 4.99669C13.25 4.58248 13.5858 4.24669 14 4.24669C14.4142 4.24669 14.75 4.58248 14.75 4.99669L14.75 5.00335C14.75 5.41757 14.4142 5.75335 14 5.75335ZM14 2.75666C13.5858 2.75666 13.25 2.42087 13.25 2.00666L13.25 2C13.25 1.58579 13.5858 1.25 14 1.25C14.4142 1.25 14.75 1.58579 14.75 2L14.75 2.00666C14.75 2.42087 14.4142 2.75666 14 2.75666Z"/>
</svg>
