<svg width="16" height="16" viewBox="0 0 16 16" fill="none" xmlns="http://www.w3.org/2000/svg">
<path fill-rule="evenodd" clip-rule="evenodd" d="M12 2H4C2.89543 2 2 2.89543 2 4V12C2 13.1046 2.89543 14 4 14H12C13.1046 14 14 13.1046 14 12V4C14 2.89543 13.1046 2 12 2ZM4 1C2.34315 1 1 2.34315 1 4V12C1 13.6569 2.34315 15 4 15H12C13.6569 15 15 13.6569 15 12V4C15 2.34315 13.6569 1 12 1H4Z" fill="#000000"/>
<path fill-rule="evenodd" clip-rule="evenodd" d="M5 6.5C4.17157 6.5 3.5 7.17157 3.5 8C3.5 8.82843 4.17157 9.5 5 9.5C5.82843 9.5 6.5 8.82843 6.5 8C6.5 7.17157 5.82843 6.5 5 6.5ZM2.5 8C2.5 6.61929 3.61929 5.5 5 5.5C6.38071 5.5 7.5 6.61929 7.5 8C7.5 9.38071 6.38071 10.5 5 10.5C3.61929 10.5 2.5 9.38071 2.5 8Z" fill="#000000"/>
</svg>
