<svg width="16" height="16" viewBox="0 0 16 16" xmlns="http://www.w3.org/2000/svg">
<path d="M11.5325 3.01042C11.1259 3.01042 10.7359 3.17197 10.4483 3.45952C10.1607 3.74708 9.9992 4.13709 9.9992 4.54375C9.9992 4.95042 10.1607 5.34043 10.4483 5.62799C10.7359 5.91554 11.1259 6.07709 11.5325 6.07709C11.9392 6.07709 12.3292 5.91554 12.6168 5.62799C12.9043 5.34043 13.0659 4.95042 13.0659 4.54375C13.0659 4.13709 12.9043 3.74708 12.6168 3.45952C12.3292 3.17197 11.9392 3.01042 11.5325 3.01042ZM9.10987 4.07709C9.22596 3.47437 9.56254 2.93656 10.0539 2.56868C10.5452 2.2008 11.156 2.02927 11.7671 2.08758C12.3781 2.14589 12.9454 2.42985 13.3583 2.88402C13.7712 3.33819 14 3.92996 14 4.54375C14 5.15755 13.7712 5.74931 13.3583 6.20348C12.9454 6.65765 12.3781 6.94162 11.7671 6.99993C11.156 7.05824 10.5452 6.88671 10.0539 6.51883C9.56254 6.15095 9.22596 5.61314 9.10987 5.01042L2.46675 5.01042C2.40546 5.01043 2.34477 4.99837 2.28814 4.97492C2.23151 4.95148 2.18006 4.9171 2.13671 4.87377C2.09337 4.83043 2.05899 4.77898 2.03553 4.72236C2.01207 4.66574 2 4.60505 2 4.54376C2 4.48246 2.01207 4.42177 2.03553 4.36515C2.05899 4.30853 2.09337 4.25708 2.13671 4.21374C2.18006 4.17041 2.23151 4.13603 2.28814 4.11259C2.34477 4.08914 2.40546 4.07708 2.46675 4.07709L9.10987 4.07709Z"/>
<path d="M11.5325 3.01042C11.1259 3.01042 10.7359 3.17197 10.4483 3.45952C10.1607 3.74708 9.9992 4.13709 9.9992 4.54375C9.9992 4.95042 10.1607 5.34043 10.4483 5.62799C10.7359 5.91554 11.1259 6.07709 11.5325 6.07709C11.9392 6.07709 12.3292 5.91554 12.6168 5.62799C12.9043 5.34043 13.0659 4.95042 13.0659 4.54375C13.0659 4.13709 12.9043 3.74708 12.6168 3.45952C12.3292 3.17197 11.9392 3.01042 11.5325 3.01042ZM9.10987 4.07709C9.22596 3.47437 9.56254 2.93656 10.0539 2.56868C10.5452 2.2008 11.156 2.02927 11.7671 2.08758C12.3781 2.14589 12.9454 2.42985 13.3583 2.88402C13.7712 3.33819 14 3.92996 14 4.54375C14 5.15755 13.7712 5.74931 13.3583 6.20348C12.9454 6.65765 12.3781 6.94162 11.7671 6.99993C11.156 7.05824 10.5452 6.88671 10.0539 6.51883C9.56254 6.15095 9.22596 5.61314 9.10987 5.01042L2.46675 5.01042C2.40546 5.01043 2.34477 4.99837 2.28814 4.97492C2.23151 4.95148 2.18006 4.9171 2.13671 4.87377C2.09337 4.83043 2.05899 4.77898 2.03553 4.72236C2.01207 4.66574 2 4.60505 2 4.54376C2 4.48246 2.01207 4.42177 2.03553 4.36515C2.05899 4.30853 2.09337 4.25708 2.13671 4.21374C2.18006 4.17041 2.23151 4.13603 2.28814 4.11259C2.34477 4.08914 2.40546 4.07708 2.46675 4.07709L9.10987 4.07709Z"/>
<path d="M4.46747 13.0006C4.87413 13.0006 5.26414 12.839 5.5517 12.5515C5.83925 12.2639 6.0008 11.8739 6.0008 11.4672C6.0008 11.0606 5.83925 10.6706 5.5517 10.383C5.26414 10.0954 4.87413 9.9339 4.46747 9.9339C4.0608 9.9339 3.67079 10.0954 3.38323 10.383C3.09568 10.6706 2.93413 11.0606 2.93413 11.4672C2.93413 11.8739 3.09568 12.2639 3.38323 12.5515C3.67079 12.839 4.0608 13.0006 4.46747 13.0006ZM6.89013 11.9339C6.77404 12.5366 6.43746 13.0744 5.94612 13.4423C5.45478 13.8102 4.84397 13.9817 4.23294 13.9234C3.62191 13.8651 3.05457 13.5811 2.64167 13.127C2.22878 12.6728 2 12.081 2 11.4672C2 10.8534 2.22878 10.2617 2.64167 9.8075C3.05457 9.35333 3.62191 9.06937 4.23294 9.01106C4.84397 8.95275 5.45478 9.12428 5.94612 9.49216C6.43746 9.86004 6.77404 10.3978 6.89013 11.0006L13.5332 11.0006C13.5945 11.0006 13.6552 11.0126 13.7119 11.0361C13.7685 11.0595 13.8199 11.0939 13.8633 11.1372C13.9066 11.1806 13.941 11.232 13.9645 11.2886C13.9879 11.3452 14 11.4059 14 11.4672C14 11.5285 13.9879 11.5892 13.9645 11.6458C13.941 11.7025 13.9066 11.7539 13.8633 11.7972C13.8199 11.8406 13.7685 11.875 13.7119 11.8984C13.6552 11.9218 13.5945 11.9339 13.5332 11.9339L6.89013 11.9339Z"/>
<path d="M4.46747 13.0006C4.87413 13.0006 5.26414 12.839 5.5517 12.5515C5.83925 12.2639 6.0008 11.8739 6.0008 11.4672C6.0008 11.0606 5.83925 10.6706 5.5517 10.383C5.26414 10.0954 4.87413 9.9339 4.46747 9.9339C4.0608 9.9339 3.67079 10.0954 3.38323 10.383C3.09568 10.6706 2.93413 11.0606 2.93413 11.4672C2.93413 11.8739 3.09568 12.2639 3.38323 12.5515C3.67079 12.839 4.0608 13.0006 4.46747 13.0006ZM6.89013 11.9339C6.77404 12.5366 6.43746 13.0744 5.94612 13.4423C5.45478 13.8102 4.84397 13.9817 4.23294 13.9234C3.62191 13.8651 3.05457 13.5811 2.64167 13.127C2.22878 12.6728 2 12.081 2 11.4672C2 10.8534 2.22878 10.2617 2.64167 9.8075C3.05457 9.35333 3.62191 9.06937 4.23294 9.01106C4.84397 8.95275 5.45478 9.12428 5.94612 9.49216C6.43746 9.86004 6.77404 10.3978 6.89013 11.0006L13.5332 11.0006C13.5945 11.0006 13.6552 11.0126 13.7119 11.0361C13.7685 11.0595 13.8199 11.0939 13.8633 11.1372C13.9066 11.1806 13.941 11.232 13.9645 11.2886C13.9879 11.3452 14 11.4059 14 11.4672C14 11.5285 13.9879 11.5892 13.9645 11.6458C13.941 11.7025 13.9066 11.7539 13.8633 11.7972C13.8199 11.8406 13.7685 11.875 13.7119 11.8984C13.6552 11.9218 13.5945 11.9339 13.5332 11.9339L6.89013 11.9339Z"/>
</svg>
