<svg width="14" height="14" viewBox="0 0 14 14"  xmlns="http://www.w3.org/2000/svg">
<path fill-rule="evenodd" clip-rule="evenodd" d="M7 1.02109C6.99746 1.02237 6.99483 1.02369 6.99212 1.02506L1.61276 3.73071L3.97003 4.91634C3.97337 4.91797 3.9767 4.91965 3.98001 4.92136L6.99212 6.43635C6.99483 6.43772 6.99746 6.43904 7 6.44032C7.00254 6.43904 7.00517 6.43772 7.00788 6.43635L10.02 4.92135C10.0233 4.91965 10.0266 4.91797 10.03 4.91634L12.3872 3.73071L7.00788 1.02506C7.00517 1.02369 7.00254 1.02237 7 1.02109ZM11.3628 5.36535L13.7247 4.17739C13.8935 4.09248 14 3.91966 14 3.73071C14 3.54175 13.8935 3.36893 13.7247 3.28402L7.45722 0.131695C7.45174 0.128942 7.44579 0.125903 7.43939 0.122637C7.37657 0.0905788 7.27071 0.0365601 7.15266 0.0142799C7.05177 -0.00475997 6.94823 -0.00475997 6.84734 0.0142799C6.72929 0.0365601 6.62343 0.090579 6.56061 0.122637C6.55421 0.125903 6.54826 0.128942 6.54278 0.131695L0.275333 3.28402C0.106524 3.36893 0 3.54175 0 3.73071C0 3.91966 0.106524 4.09248 0.275333 4.17739L2.63724 5.36535L0.275333 6.55332C0.106524 6.63822 0 6.81104 0 7C0 7.18896 0.106524 7.36178 0.275333 7.44668L2.63724 8.63465L0.275333 9.82261C0.106524 9.90752 0 10.0803 0 10.2693C0 10.4583 0.106524 10.6311 0.275333 10.716L6.54278 13.8683C6.54826 13.8711 6.55421 13.8741 6.56061 13.8774C6.62343 13.9094 6.72929 13.9634 6.84734 13.9857C6.94823 14.0048 7.05177 14.0048 7.15266 13.9857C7.27071 13.9634 7.37657 13.9094 7.43939 13.8774C7.44579 13.8741 7.45174 13.8711 7.45722 13.8683L13.7247 10.716C13.8935 10.6311 14 10.4583 14 10.2693C14 10.0803 13.8935 9.90752 13.7247 9.82261L11.3628 8.63465L13.7247 7.44668C13.8935 7.36178 14 7.18896 14 7C14 6.81104 13.8935 6.63822 13.7247 6.55332L11.3628 5.36535ZM10.25 5.92503L7.45722 7.32972C7.45174 7.33247 7.44579 7.33551 7.43939 7.33878C7.37656 7.37083 7.27071 7.42485 7.15266 7.44713C7.05177 7.46617 6.94823 7.46617 6.84734 7.44713C6.72929 7.42485 6.62344 7.37083 6.56061 7.33878C6.55421 7.33551 6.54826 7.33247 6.54278 7.32972L3.75 5.92503L1.61276 7L3.97002 8.18563C3.97337 8.18727 3.9767 8.18894 3.98002 8.19065L6.99212 9.70565C6.99483 9.70701 6.99746 9.70833 7 9.70961C7.00254 9.70833 7.00517 9.70701 7.00788 9.70565L10.02 8.19065C10.0233 8.18894 10.0266 8.18727 10.03 8.18563L12.3872 7L10.25 5.92503ZM10.25 9.19433L7.45722 10.599C7.45174 10.6018 7.44579 10.6048 7.43939 10.6081C7.37657 10.6401 7.27071 10.6941 7.15266 10.7164L7.05993 10.2251L7.15266 10.7164C7.05177 10.7355 6.94823 10.7355 6.84734 10.7164L6.94007 10.2251L6.84734 10.7164C6.72929 10.6941 6.62343 10.6401 6.56061 10.6081C6.55421 10.6048 6.54826 10.6018 6.54278 10.599L3.75 9.19433L1.61276 10.2693L6.99212 12.9749C6.99483 12.9763 6.99746 12.9776 7 12.9789C7.00254 12.9776 7.00517 12.9763 7.00788 12.9749L12.3872 10.2693L10.25 9.19433Z" fill="black"/>
</svg>
