<svg width="15" height="15" viewBox="0 0 15 15" xmlns="http://www.w3.org/2000/svg">
<path fill-rule="evenodd" clip-rule="evenodd" d="M9.65811 1.02579C9.92009 1.11312 10.0617 1.39628 9.97434 1.65825L5.97434 13.6582C5.88702 13.9202 5.60386 14.0618 5.34189 13.9745C5.07991 13.8872 4.93833 13.604 5.02566 13.342L9.02566 1.34202C9.11298 1.08005 9.39614 0.93847 9.65811 1.02579ZM4.85355 3.14658C5.04882 3.34184 5.04882 3.65843 4.85355 3.85369L1.20711 7.50014L4.85355 11.1466C5.04882 11.3418 5.04882 11.6584 4.85355 11.8537C4.65829 12.049 4.34171 12.049 4.14645 11.8537L0.146447 7.85369C-0.0488155 7.65843 -0.0488155 7.34184 0.146447 7.14658L4.14645 3.14658C4.34171 2.95132 4.65829 2.95132 4.85355 3.14658ZM10.1464 3.14658C10.3417 2.95132 10.6583 2.95132 10.8536 3.14658L14.8536 7.14658C15.0488 7.34184 15.0488 7.65843 14.8536 7.85369L10.8536 11.8537C10.6583 12.049 10.3417 12.049 10.1464 11.8537C9.95118 11.6584 9.95118 11.3418 10.1464 11.1466L13.7929 7.50014L10.1464 3.85369C9.95118 3.65843 9.95118 3.34184 10.1464 3.14658Z"/>
</svg>
