<svg width="21" height="21" viewBox="0 0 21 21" xmlns="http://www.w3.org/2000/svg">
<path fill-rule="evenodd" clip-rule="evenodd" d="M13.6175 3.03533C13.4838 3.00324 13.336 3.00003 12.8773 3.00003H7V5.0778C7 5.33497 7.00039 5.49777 7.01045 5.62091C7.02003 5.73821 7.03584 5.77485 7.04239 5.78769C7.07967 5.86086 7.13916 5.92035 7.21234 5.95764C7.22518 5.96418 7.26181 5.97999 7.37912 5.98958C7.50226 5.99964 7.66506 6.00003 7.92222 6.00003H13.0778C13.3349 6.00003 13.4977 5.99964 13.6209 5.98958C13.7382 5.97999 13.7748 5.96418 13.7877 5.95764C13.8608 5.92035 13.9203 5.86086 13.9576 5.78769C13.9642 5.77485 13.98 5.73821 13.9896 5.62091C13.9996 5.49777 14 5.33497 14 5.0778V3.19656C13.9956 3.19376 13.9912 3.19102 13.9868 3.18832C13.8725 3.11826 13.7478 3.06663 13.6175 3.03533ZM15 4.15158V5.09661C15 5.32944 15 5.53356 14.9862 5.70234C14.9716 5.88148 14.939 6.06437 14.8486 6.24168C14.7155 6.50302 14.503 6.71549 14.2417 6.84865C14.0643 6.93899 13.8815 6.97162 13.7023 6.98625C13.5335 7.00004 13.3294 7.00004 13.0966 7.00003H7.90344C7.67059 7.00004 7.46647 7.00004 7.29769 6.98625C7.11854 6.97162 6.93565 6.93899 6.75835 6.84865C6.49701 6.71549 6.28454 6.50302 6.15138 6.24168C6.06104 6.06437 6.02841 5.88148 6.01377 5.70234C5.99998 5.53356 5.99999 5.32944 6 5.0966L6 3.00199C5.62365 3.00514 5.31719 3.01335 5.05592 3.0347C4.64217 3.0685 4.386 3.13275 4.18302 3.23618C3.77534 3.4439 3.44388 3.77536 3.23615 4.18305C3.13273 4.38603 3.06848 4.64219 3.03467 5.05595C3.00039 5.47554 3 6.0117 3 6.76669V14.2334C3 14.9883 3.00039 15.5245 3.03467 15.9441C3.06848 16.3579 3.13273 16.614 3.23615 16.817C3.44388 17.2247 3.77534 17.5561 4.18302 17.7639C4.386 17.8673 4.64217 17.9315 5.05592 17.9654C5.31719 17.9867 5.62365 17.9949 6 17.9981L6 12.9035C5.99999 12.6706 5.99998 12.4665 6.01377 12.2977C6.02841 12.1186 6.06104 11.9357 6.15138 11.7584C6.28454 11.497 6.49701 11.2846 6.75835 11.1514C6.93565 11.0611 7.11854 11.0284 7.29769 11.0138C7.46646 11 7.67058 11 7.90342 11H13.0966C13.3294 11 13.5335 11 13.7023 11.0138C13.8815 11.0284 14.0643 11.0611 14.2417 11.1514C14.503 11.2846 14.7155 11.497 14.8486 11.7584C14.939 11.9357 14.9716 12.1186 14.9862 12.2977C15 12.4665 15 12.6706 15 12.9034V17.9981C15.3763 17.9949 15.6828 17.9867 15.9441 17.9654C16.3578 17.9315 16.614 17.8673 16.817 17.7639C17.2247 17.5561 17.5561 17.2247 17.7638 16.817C17.8673 16.614 17.9315 16.3579 17.9653 15.9441C17.9996 15.5245 18 14.9883 18 14.2334V8.12268C18 7.66405 17.9968 7.51623 17.9647 7.38256C17.9334 7.25218 17.8818 7.12754 17.8117 7.01321C17.7399 6.896 17.6376 6.7892 17.3133 6.46491L15 4.15158ZM14.508 19C15.1187 18.9995 15.6156 18.9955 16.0255 18.962C16.5011 18.9232 16.9035 18.8421 17.271 18.6549C17.8668 18.3513 18.3513 17.8668 18.6549 17.271C18.8421 16.9035 18.9232 16.5011 18.962 16.0255C19 15.5605 19 14.9835 19 14.2554V8.12268C19 8.10424 19 8.08604 19 8.06809C19.0001 7.68592 19.0002 7.41228 18.9371 7.14911C18.8813 6.9167 18.7892 6.69451 18.6643 6.49071C18.5229 6.25995 18.3294 6.06652 18.059 5.79637C18.0463 5.78369 18.0335 5.77083 18.0204 5.7578L15.2422 2.97959C15.2292 2.96655 15.2163 2.95368 15.2036 2.94099C14.9335 2.67065 14.7401 2.47709 14.5093 2.33568C14.3055 2.21079 14.0833 2.11876 13.8509 2.06296C13.5877 1.99978 13.3141 1.99988 12.9319 2.00001C12.914 2.00002 12.8958 2.00003 12.8773 2.00003L6.74467 2.00003C6.01657 2.00002 5.43957 2.00002 4.97449 2.03802C4.4989 2.07687 4.09648 2.15795 3.72903 2.34517C3.13318 2.64877 2.64875 3.13321 2.34515 3.72906C2.15792 4.0965 2.07685 4.49892 2.03799 4.97451C1.99999 5.4396 2 6.0166 2 6.74469V14.2554C2 14.9835 1.99999 15.5605 2.03799 16.0255C2.07685 16.5011 2.15792 16.9035 2.34515 17.271C2.64875 17.8668 3.13318 18.3513 3.72903 18.6549C4.09648 18.8421 4.4989 18.9232 4.97449 18.962C5.43957 19 6.01656 19 6.74465 19H14.2553C14.3363 19 14.4155 19 14.4928 19C14.4952 19 14.4976 19 14.5 19C14.5027 19 14.5053 19 14.508 19ZM14 18V12.9222C14 12.6651 13.9996 12.5023 13.9896 12.3791C13.98 12.2618 13.9642 12.2252 13.9576 12.2124C13.9203 12.1392 13.8608 12.0797 13.7877 12.0424C13.7748 12.0359 13.7382 12.0201 13.6209 12.0105C13.4977 12.0004 13.3349 12 13.0778 12H7.92222C7.66506 12 7.50226 12.0004 7.37912 12.0105C7.26181 12.0201 7.22517 12.0359 7.21234 12.0424C7.13916 12.0797 7.07967 12.1392 7.04239 12.2124C7.03584 12.2252 7.02003 12.2618 7.01045 12.3791C7.00039 12.5023 7 12.6651 7 12.9222V18H14Z"/>
</svg>
