<svg width="14" height="14" viewBox="0 0 14 14" xmlns="http://www.w3.org/2000/svg">
<path fill-rule="evenodd" clip-rule="evenodd" d="M7 2C4.23858 2 2 4.23858 2 7C2 9.76142 4.23858 12 7 12C9.76142 12 12 9.76142 12 7C12 4.23858 9.76142 2 7 2ZM1 7C1 3.68629 3.68629 1 7 1C10.3137 1 13 3.68629 13 7C13 10.3137 10.3137 13 7 13C3.68629 13 1 10.3137 1 7ZM7 3.2C7.27614 3.2 7.5 3.42386 7.5 3.7V6.69098L9.42361 7.65279C9.6706 7.77628 9.77071 8.07662 9.64721 8.32361C9.52372 8.5706 9.22338 8.67071 8.97639 8.54721L6.77639 7.44721C6.607 7.36252 6.5 7.18939 6.5 7V3.7C6.5 3.42386 6.72386 3.2 7 3.2Z"/>
</svg>
