<svg width="14" height="14" viewBox="0 0 14 14" xmlns="http://www.w3.org/2000/svg">
<path fill-rule="evenodd" clip-rule="evenodd" d="M6.78481 1.02003C6.92703 0.993323 7.07339 0.993323 7.21561 1.02003C7.38024 1.05095 7.52924 1.12695 7.66694 1.19718C7.67846 1.20305 7.6899 1.20889 7.70127 1.21466L12.2235 3.50879C12.2359 3.5151 12.2485 3.52146 12.2613 3.52789C12.4044 3.6 12.5657 3.68124 12.6904 3.80485C12.8001 3.91357 12.8861 4.04544 12.9395 4.193C13.0016 4.36442 13.0009 4.54735 13.0003 4.69529C13.0003 4.7089 13.0002 4.72221 13.0002 4.73519V9.26481C13.0002 9.27779 13.0003 9.2911 13.0003 9.30471C13.0009 9.45265 13.0016 9.63558 12.9395 9.80701C12.8861 9.95456 12.8001 10.0864 12.6904 10.1951C12.5657 10.3188 12.4044 10.4 12.2613 10.4721C12.2485 10.4785 12.2359 10.4849 12.2235 10.4912L7.70127 12.7853C7.6899 12.7911 7.67846 12.7969 7.66694 12.8028C7.52924 12.8731 7.38024 12.949 7.21561 12.98C7.07339 13.0067 6.92703 13.0067 6.78481 12.98C6.62018 12.949 6.47118 12.8731 6.33348 12.8028C6.32196 12.7969 6.31052 12.7911 6.29915 12.7853L1.77693 10.4912C1.7645 10.4849 1.75188 10.4785 1.73912 10.4721C1.59599 10.4 1.43474 10.3188 1.31 10.1951C1.20028 10.0864 1.11428 9.95456 1.06089 9.80701C0.998864 9.63558 0.999552 9.45265 1.00011 9.30471C1.00016 9.2911 1.00021 9.27779 1.00021 9.26481V4.73519C1.00021 4.72221 1.00016 4.7089 1.00011 4.69529C0.999552 4.54735 0.998864 4.36443 1.06089 4.193C1.11428 4.04544 1.20028 3.91357 1.31 3.80485C1.43474 3.68124 1.59599 3.6 1.73912 3.52789C1.75188 3.52146 1.76449 3.5151 1.77693 3.50879L6.29915 1.21466C6.31052 1.20889 6.32196 1.20305 6.33348 1.19718C6.47118 1.12695 6.62018 1.05095 6.78481 1.02003ZM7.03063 2.00277C7.01065 1.99907 6.98976 1.99908 6.96979 2.00278C6.96677 2.00362 6.95632 2.00696 6.93334 2.01708C6.8939 2.03445 6.84289 2.06013 6.75157 2.10646L2.60539 4.20983L7.00019 6.43932L11.395 4.20982L7.24885 2.10646C7.15753 2.06013 7.10652 2.03445 7.06708 2.01708C7.04409 2.00695 7.03363 2.00361 7.03063 2.00277ZM12.0002 5.02412V9.26481C12.0002 9.36679 12 9.41942 11.9974 9.45766C11.997 9.46429 11.9966 9.4693 11.9962 9.47291C11.9946 9.47557 11.9923 9.47876 11.989 9.48229C11.9855 9.48482 11.9768 9.49067 11.9601 9.5004C11.9213 9.52298 11.8676 9.55043 11.7711 9.5994L7.50021 11.766L7.50019 7.30699L12.0002 5.02412ZM6.50019 7.30699L2.00021 5.02414V9.26481C2.00021 9.36679 2.00046 9.41942 2.00298 9.45766C2.00342 9.46429 2.00387 9.4693 2.00425 9.47291C2.00586 9.47557 2.00817 9.47876 2.01143 9.48229C2.01496 9.48482 2.02359 9.49067 2.04032 9.5004C2.07913 9.52298 2.13282 9.55043 2.22935 9.5994L6.50021 11.766L6.50019 7.30699Z"/>
</svg>
