<svg width="14" height="14" viewBox="0 0 14 14" xmlns="http://www.w3.org/2000/svg">
<path fill-rule="evenodd" clip-rule="evenodd" d="M4.12074 3H6.2126C6.65829 3 7.02034 2.99999 7.31409 3.02181C7.61663 3.04428 7.88823 3.09199 8.14257 3.2098C8.54268 3.39513 8.87697 3.69507 9.08966 4.07455C9.22791 4.32122 9.28322 4.58495 9.30885 4.87005C9.33335 5.14268 9.33334 5.47663 9.33333 5.87764V6.08916L11.3054 4.8342L11.3089 4.83201L11.3136 4.82886C11.3498 4.80454 11.4848 4.7144 11.625 4.62832C11.6943 4.58575 11.7715 4.54006 11.8416 4.50311C11.8762 4.48487 11.9163 4.46493 11.957 4.44798C11.9832 4.43708 12.0654 4.40283 12.1635 4.39581C12.1659 4.39564 12.1688 4.39542 12.172 4.39516C12.2082 4.39237 12.2975 4.38549 12.3874 4.39621C12.4993 4.40956 12.663 4.45455 12.7985 4.59884C12.9529 4.76318 12.9796 4.9666 12.9894 5.06764C13.0001 5.17689 13 5.31183 13 5.44599V8.55401C13 8.68817 13.0001 8.82312 12.9894 8.93236C12.9796 9.0334 12.9529 9.23682 12.7985 9.40117C12.6549 9.55402 12.4806 9.59344 12.3693 9.60264C12.2877 9.60938 12.1958 9.60112 12.1698 9.59878C12.1668 9.59851 12.1647 9.59832 12.1635 9.59824C12.0662 9.59127 11.9851 9.55785 11.9588 9.54704C11.918 9.53024 11.8769 9.51009 11.8419 9.49189C11.771 9.45503 11.6929 9.40944 11.6228 9.36706C11.4812 9.28139 11.346 9.19246 11.3142 9.17149L11.3109 9.16928L9.33333 7.91084V8.12236C9.33334 8.52337 9.33335 8.85732 9.30885 9.12995C9.28322 9.41505 9.22791 9.67878 9.08966 9.92545C8.87697 10.3049 8.54268 10.6049 8.14257 10.7902C7.88823 10.908 7.61663 10.9557 7.31409 10.9782C7.02034 11 6.65829 11 6.2126 11H4.12073C3.67504 11 3.31299 11 3.01925 10.9782C2.7167 10.9557 2.44511 10.908 2.19076 10.7902C1.79065 10.6049 1.45637 10.3049 1.24368 9.92545C1.10543 9.67878 1.05011 9.41505 1.02449 9.12995C0.999985 8.85732 0.999992 8.52338 1 8.12237V5.87763C0.999992 5.47663 0.999985 5.14268 1.02449 4.87005C1.05011 4.58495 1.10543 4.32122 1.24368 4.07455C1.45637 3.69507 1.79065 3.39513 2.19076 3.2098C2.44511 3.09199 2.7167 3.04428 3.01925 3.02181C3.31299 2.99999 3.67505 3 4.12074 3ZM8.33333 5.9C8.33333 5.4709 8.33286 5.18213 8.31286 4.95956C8.29352 4.7444 8.25892 4.63768 8.21733 4.56347C8.11364 4.37847 7.94309 4.21947 7.72227 4.11718C7.62365 4.0715 7.48775 4.03746 7.24001 4.01906C6.9877 4.00032 6.66288 4 6.19333 4H4.14C3.67045 4 3.34564 4.00032 3.09332 4.01906C2.84559 4.03746 2.70968 4.0715 2.61107 4.11718C2.39024 4.21947 2.21969 4.37847 2.116 4.56347C2.07441 4.63768 2.03981 4.7444 2.02047 4.95956C2.00047 5.18213 2 5.4709 2 5.9V8.1C2 8.52911 2.00047 8.81787 2.02047 9.04044C2.03981 9.25561 2.07441 9.36232 2.116 9.43653C2.21969 9.62153 2.39024 9.78053 2.61107 9.88282C2.70968 9.9285 2.84559 9.96254 3.09332 9.98094C3.34564 9.99968 3.67045 10 4.14 10H6.19333C6.66288 10 6.9877 9.99968 7.24001 9.98094C7.48775 9.96254 7.62365 9.9285 7.72227 9.88282C7.94309 9.78053 8.11364 9.62153 8.21733 9.43653C8.25892 9.36232 8.29352 9.25561 8.31286 9.04044C8.33286 8.81787 8.33333 8.52911 8.33333 8.1V5.9ZM9.76465 7L11.845 8.32386L11.8521 8.3284L11.8579 8.33215L11.8655 8.33719C11.8827 8.34853 11.9343 8.38246 12 8.42419V5.57416C11.9386 5.61386 11.89 5.64634 11.8711 5.65904L11.8606 5.66604L11.8524 5.67143L11.8423 5.67786L9.76465 7Z"/>
</svg>
