<svg width="14" height="14" viewBox="0 0 14 14" xmlns="http://www.w3.org/2000/svg">
<path fill-rule="evenodd" clip-rule="evenodd" d="M1.61709 1.14745C1.8118 0.951634 2.12838 0.950739 2.32419 1.14545L4.35965 3.16943C4.39059 3.19355 4.41907 3.22165 4.44428 3.25358L6.16682 4.9664C6.16767 4.96724 6.16851 4.96809 6.16935 4.96894L8.53727 7.32348C8.5381 7.32431 8.53892 7.32513 8.53975 7.32596L10.255 9.03153C10.291 9.05856 10.3238 9.09087 10.3522 9.12823L12.3809 11.1454C12.5767 11.3402 12.5776 11.6567 12.3829 11.8526C12.1882 12.0484 11.8716 12.0493 11.6758 11.8546L9.8809 10.0698C9.0726 10.5477 8.10684 10.8889 7 10.8889C5.42021 10.8889 4.12998 10.1947 3.17062 9.39855C2.21249 8.6034 1.5549 7.68312 1.22537 7.16428C1.22109 7.15754 1.21672 7.1507 1.21229 7.14376C1.14643 7.0406 1.06575 6.91422 1.02476 6.73638C0.991735 6.59307 0.991746 6.40678 1.02479 6.26347L1.51159 6.37573L1.02479 6.26347C1.06581 6.08561 1.14672 5.95891 1.21275 5.8555C1.21722 5.84851 1.22162 5.84161 1.22594 5.83482C1.56632 5.29903 2.26216 4.32617 3.28346 3.50954L1.61909 1.85455C1.42327 1.65984 1.42238 1.34326 1.61709 1.14745ZM3.99784 4.21989C3.05194 4.95039 2.3934 5.86202 2.07001 6.37105C2.05025 6.40216 2.03607 6.42451 2.02415 6.44402C2.0125 6.46308 2.00614 6.47438 2.00238 6.48158C2.00158 6.4831 2.00095 6.48435 2.00045 6.48535C2.0002 6.48927 2 6.49428 2 6.49998C2 6.50572 2.0002 6.51074 2.00045 6.51467C2.00094 6.51564 2.00155 6.51685 2.00231 6.51832C2.00602 6.52542 2.01231 6.5366 2.02388 6.55554C2.03573 6.57494 2.04982 6.59716 2.0695 6.62814C2.36874 7.09929 2.96133 7.92535 3.80924 8.62904C4.65592 9.3317 5.72758 9.88889 7 9.88889C7.79535 9.88889 8.51143 9.67153 9.14381 9.33683L8.14443 8.34309C7.81183 8.54816 7.41947 8.66667 7 8.66667C5.80083 8.66667 4.82388 7.69928 4.82388 6.5C4.82388 6.08296 4.94252 5.69327 5.14738 5.36294L3.99784 4.21989ZM5.89307 6.10443C5.84823 6.22797 5.82388 6.36112 5.82388 6.5C5.82388 7.14167 6.34778 7.66667 7 7.66667C7.13916 7.66667 7.27244 7.64282 7.3961 7.59898L5.89307 6.10443ZM7 3.11111C6.78358 3.11111 6.57365 3.12717 6.37017 3.15708C6.09696 3.19725 5.84292 3.00833 5.80276 2.73513C5.76259 2.46192 5.95151 2.20788 6.22472 2.16772C6.47537 2.13087 6.73391 2.11111 7 2.11111C8.57978 2.11111 9.87001 2.80526 10.8294 3.60145C11.7875 4.3966 12.4451 5.31688 12.7746 5.83572C12.7789 5.84247 12.7833 5.84931 12.7877 5.85625C12.8536 5.95941 12.9343 6.08579 12.9752 6.26365C13.0083 6.40696 13.0083 6.59327 12.9752 6.73658L12.488 6.62421L12.9752 6.73658C12.9342 6.91446 12.8531 7.04135 12.787 7.1449C12.7825 7.15193 12.7781 7.15886 12.7737 7.16568C12.5969 7.44399 12.3285 7.8333 11.9728 8.25565C11.795 8.46687 11.4795 8.49392 11.2683 8.31605C11.0571 8.13818 11.03 7.82276 11.2079 7.61153C11.5291 7.23014 11.7715 6.8784 11.9297 6.62939C11.9495 6.59822 11.9637 6.5758 11.9757 6.55622C11.9874 6.53709 11.9938 6.52573 11.9976 6.51847C11.9984 6.51692 11.999 6.51565 11.9995 6.51463C11.9998 6.51072 12 6.50572 12 6.50002C12 6.49429 11.9998 6.48927 11.9995 6.48534C11.9991 6.48436 11.9985 6.48316 11.9977 6.48169C11.994 6.47459 11.9877 6.46341 11.9761 6.44446C11.9643 6.42506 11.9502 6.40284 11.9305 6.37186C11.6313 5.90071 11.0387 5.07465 10.1908 4.37096C9.34408 3.6683 8.27241 3.11111 7 3.11111ZM12.0006 6.48765C12.0007 6.48781 12.0007 6.488 12.0008 6.48821C12.0007 6.48803 12.0007 6.48784 12.0007 6.48766"/>
</svg>
