<svg width="14" height="14" viewBox="0 0 14 14" xmlns="http://www.w3.org/2000/svg">
<path fill-rule="evenodd" clip-rule="evenodd" d="M4.41214 1H9.58786C10.0833 0.999995 10.4854 0.99999 10.8115 1.02664C11.1481 1.05414 11.4477 1.11251 11.726 1.25432C12.165 1.47802 12.522 1.83498 12.7457 2.27402C12.8875 2.55234 12.9459 2.85186 12.9734 3.18849C13 3.51464 13 3.91674 13 4.41213V9.58787C13 10.0833 13 10.4854 12.9734 10.8115C12.9459 11.1481 12.8875 11.4477 12.7457 11.726C12.522 12.165 12.165 12.522 11.726 12.7457C11.4477 12.8875 11.1481 12.9459 10.8115 12.9734C10.4854 13 10.0833 13 9.58787 13H4.41213C3.91674 13 3.51464 13 3.18849 12.9734C2.85186 12.9459 2.55234 12.8875 2.27402 12.7457C1.83498 12.522 1.47802 12.165 1.25432 11.726C1.11251 11.4477 1.05414 11.1481 1.02664 10.8115C0.99999 10.4854 0.999995 10.0833 1 9.58786V4.41214C0.999995 3.91675 0.99999 3.51464 1.02664 3.18849C1.05414 2.85186 1.11251 2.55234 1.25432 2.27402C1.47802 1.83498 1.83498 1.47802 2.27402 1.25432C2.55234 1.11251 2.85186 1.05414 3.18849 1.02664C3.51464 0.99999 3.91675 0.999995 4.41214 1ZM3.26992 2.02332C2.99513 2.04577 2.84186 2.08731 2.72801 2.14532C2.47713 2.27316 2.27316 2.47713 2.14532 2.72801C2.08731 2.84186 2.04577 2.99513 2.02332 3.26992C2.00039 3.55055 2 3.9117 2 4.43333V9.56667C2 10.0883 2.00039 10.4495 2.02332 10.7301C2.04577 11.0049 2.08731 11.1581 2.14532 11.272C2.27316 11.5229 2.47713 11.7268 2.72801 11.8547C2.84186 11.9127 2.99513 11.9542 3.26992 11.9767C3.55055 11.9996 3.9117 12 4.43333 12H9.56667C10.0883 12 10.4495 11.9996 10.7301 11.9767C11.0049 11.9542 11.1581 11.9127 11.272 11.8547C11.5229 11.7268 11.7268 11.5229 11.8547 11.272C11.9127 11.1581 11.9542 11.0049 11.9767 10.7301C11.9996 10.4495 12 10.0883 12 9.56667V4.43333C12 3.9117 11.9996 3.55055 11.9767 3.26992C11.9542 2.99513 11.9127 2.84186 11.8547 2.72801C11.7268 2.47713 11.5229 2.27316 11.272 2.14532C11.1581 2.08731 11.0049 2.04577 10.7301 2.02332C10.4495 2.00039 10.0883 2 9.56667 2H4.43333C3.9117 2 3.55055 2.00039 3.26992 2.02332ZM6.48047 4.30375C6.4856 4.30705 6.49073 4.31035 6.49586 4.31365L9.39495 6.17734C9.48886 6.23769 9.58569 6.29991 9.66189 6.35933C9.74214 6.42192 9.85873 6.52492 9.92698 6.68646C10.0117 6.88691 10.0117 7.11309 9.92698 7.31354C9.85873 7.47508 9.74214 7.57808 9.66189 7.64067C9.58569 7.70009 9.48886 7.76231 9.39495 7.82266L6.48047 9.69625C6.37126 9.76648 6.26237 9.8365 6.16763 9.88582C6.07232 9.93542 5.9136 10.0076 5.72039 9.99383C5.48731 9.97719 5.27296 9.86015 5.13292 9.6731C5.01683 9.51804 4.99174 9.34548 4.98193 9.23848C4.97218 9.13212 4.9722 9.00265 4.97222 8.87281L4.97222 5.14548C4.97222 5.13938 4.97222 5.13329 4.97222 5.12719C4.9722 4.99735 4.97218 4.86788 4.98193 4.76152C4.99174 4.65452 5.01683 4.48196 5.13292 4.3269C5.27296 4.13984 5.48732 4.02281 5.72039 4.00617C5.9136 3.99237 6.07232 4.06458 6.16763 4.11418C6.26237 4.1635 6.37127 4.23352 6.48047 4.30375ZM5.97222 5.16583V8.83417L8.82537 7L5.97222 5.16583Z"/>
</svg>
