<svg width="21" height="21" viewBox="0 0 21 21" xmlns="http://www.w3.org/2000/svg">
<path fill-rule="evenodd" clip-rule="evenodd" d="M12.0694 3.05292C11.8588 3.00314 11.6292 3.00002 11.0096 3.00002H8.4C7.70931 3.00002 7.22091 3.00039 6.83915 3.0311C6.46301 3.06136 6.23427 3.11863 6.05511 3.20851C5.6899 3.39173 5.39443 3.68333 5.20974 4.04024C5.11981 4.21402 5.06209 4.43638 5.0315 4.80505C5.0004 5.17978 5 5.65957 5 6.34002V14.66C5 15.3405 5.0004 15.8202 5.0315 16.195C5.06209 16.5636 5.11981 16.786 5.20974 16.9598C5.39443 17.3167 5.6899 17.6083 6.05511 17.7915C6.23427 17.8814 6.463 17.9387 6.83915 17.9689C7.22091 17.9996 7.70931 18 8.4 18H13.6C14.2907 18 14.7791 17.9996 15.1609 17.9689C15.537 17.9387 15.7657 17.8814 15.9449 17.7915C16.3101 17.6083 16.6056 17.3167 16.7903 16.9598C16.8802 16.786 16.9379 16.5636 16.9685 16.195C16.9996 15.8202 17 15.3405 17 14.66V8.8906C17 8.27944 16.9967 8.05658 16.9469 7.8523C16.9426 7.83482 16.9381 7.81741 16.9333 7.80007L13.9068 7.80007C13.6949 7.80008 13.507 7.80009 13.3513 7.78756C13.1855 7.77422 13.0129 7.7443 12.8444 7.65979C12.5981 7.53621 12.3964 7.33828 12.2695 7.09306C12.1823 6.92458 12.1515 6.7518 12.1378 6.58686C12.125 6.43256 12.125 6.24675 12.125 6.03862L12.125 3.06693C12.1065 3.06199 12.088 3.05732 12.0694 3.05292ZM12.8206 2.25536C12.653 2.18092 12.4785 2.12208 12.2994 2.07974C11.9614 1.99983 11.6083 1.9999 11.0697 2.00001C11.0499 2.00001 11.0299 2.00002 11.0096 2.00002L8.37847 2.00002C7.71415 2.00001 7.18552 2.00001 6.75896 2.03432C6.32219 2.06946 5.94894 2.14299 5.60669 2.31469C5.0546 2.59166 4.6043 3.03436 4.32161 3.58064C4.14587 3.92025 4.07075 4.29061 4.03492 4.72235C3.99999 5.14329 4 5.66459 4 6.31791V14.6821C4 15.3354 3.99999 15.8567 4.03492 16.2777C4.07075 16.7094 4.14587 17.0798 4.32161 17.4194C4.6043 17.9657 5.0546 18.4084 5.60669 18.6853C5.94894 18.857 6.32219 18.9306 6.75896 18.9657C7.18552 19 7.71414 19 8.37844 19H13.6216C14.2859 19 14.8145 19 15.241 18.9657C15.6778 18.9306 16.0511 18.857 16.3933 18.6853C16.9454 18.4084 17.3957 17.9657 17.6784 17.4194C17.8541 17.0798 17.9293 16.7094 17.9651 16.2777C18 15.8567 18 15.3354 18 14.6821V8.8906C18 8.86998 18 8.84964 18 8.82955C18.0001 8.30107 18.0002 7.95081 17.9184 7.61541C17.8752 7.43826 17.8153 7.26585 17.7396 7.1004C17.7367 7.09382 17.7337 7.08732 17.7306 7.0809C17.6818 6.97622 17.6266 6.87437 17.5653 6.77593C17.3828 6.48261 17.132 6.23578 16.752 5.86184C16.7377 5.84775 16.7232 5.83348 16.7085 5.81902L14.1181 3.26844C14.1036 3.25419 14.0893 3.24012 14.0752 3.22622C13.6948 2.85151 13.4444 2.60487 13.1473 2.42557C13.0473 2.36524 12.9439 2.31098 12.8377 2.263C12.8321 2.26035 12.8264 2.25781 12.8206 2.25536ZM13.125 3.69599V6.02007C13.125 6.25247 13.1254 6.39623 13.1344 6.50416C13.1427 6.60479 13.1559 6.63021 13.1576 6.63336C13.1865 6.6892 13.2334 6.73615 13.2928 6.76597C13.2982 6.76865 13.3263 6.78232 13.4314 6.79078C13.5422 6.7997 13.6894 6.80007 13.925 6.80007H16.2779C16.2016 6.72355 16.1124 6.6354 16.0069 6.53159L13.4165 3.98101C13.3025 3.86875 13.207 3.77509 13.125 3.69599ZM7.9 10.5C7.9 10.2239 8.12386 10 8.4 10H13.6C13.8761 10 14.1 10.2239 14.1 10.5C14.1 10.7762 13.8761 11 13.6 11H8.4C8.12386 11 7.9 10.7762 7.9 10.5ZM7.9 14.5C7.9 14.2239 8.12386 14 8.4 14H13.6C13.8761 14 14.1 14.2239 14.1 14.5C14.1 14.7762 13.8761 15 13.6 15H8.4C8.12386 15 7.9 14.7762 7.9 14.5Z"/>
</svg>
