<svg width="16" height="16" viewBox="0 0 16 16" fill="none" xmlns="http://www.w3.org/2000/svg">
<path fill-rule="evenodd" clip-rule="evenodd" d="M12 2H4C2.89543 2 2 2.89543 2 4V12C2 13.1046 2.89543 14 4 14H12C13.1046 14 14 13.1046 14 12V4C14 2.89543 13.1046 2 12 2ZM4 1C2.34315 1 1 2.34315 1 4V12C1 13.6569 2.34315 15 4 15H12C13.6569 15 15 13.6569 15 12V4C15 2.34315 13.6569 1 12 1H4Z" fill="#000000"/>
<path fill-rule="evenodd" clip-rule="evenodd" d="M10 5V11C10 12.1046 9.10457 13 8 13C6.89543 13 6 12.1046 6 11V5C6 3.89543 6.89543 3 8 3C9.10457 3 10 3.89543 10 5ZM8 4C7.44772 4 7 4.44772 7 5V11C7 11.5523 7.44772 12 8 12C8.55228 12 9 11.5523 9 11V5C9 4.44772 8.55228 4 8 4Z" fill="#000000"/>
</svg>
