<svg width="15" height="15" viewBox="0 0 15 15" xmlns="http://www.w3.org/2000/svg">
<path fill-rule="evenodd" clip-rule="evenodd" d="M11.25 2C10.5596 2 10 2.55964 10 3.25C10 3.46834 10.056 3.6736 10.1544 3.85222C10.1601 3.86085 10.1657 3.86972 10.171 3.87882C10.1763 3.88784 10.1812 3.89697 10.1859 3.90617C10.4061 4.26254 10.8003 4.5 11.25 4.5C11.9404 4.5 12.5 3.94036 12.5 3.25C12.5 2.55964 11.9404 2 11.25 2ZM9.60678 4.787C10.0174 5.22578 10.6017 5.5 11.25 5.5C12.4926 5.5 13.5 4.49264 13.5 3.25C13.5 2.00736 12.4926 1 11.25 1C10.0074 1 9 2.00736 9 3.25C9 3.4846 9.0359 3.71082 9.10252 3.92345L5.89322 5.79633C5.48263 5.35755 4.89834 5.08333 4.25 5.08333C3.00736 5.08333 2 6.09069 2 7.33333C2 8.57597 3.00736 9.58333 4.25 9.58333C4.89844 9.58333 5.48282 9.30903 5.89341 8.87012L9.10333 10.7406C9.0362 10.954 9 11.1811 9 11.4167C9 12.6593 10.0074 13.6667 11.25 13.6667C12.4926 13.6667 13.5 12.6593 13.5 11.4167C13.5 10.174 12.4926 9.16667 11.25 9.16667C10.6026 9.16667 10.0191 9.44006 9.60864 9.87768L6.39757 8.00651C6.46413 7.79395 6.5 7.56783 6.5 7.33333C6.5 7.09873 6.46409 6.87251 6.39748 6.65988L9.60678 4.787ZM5.31413 6.67716C5.31877 6.68637 5.32372 6.69549 5.32899 6.70451C5.3343 6.71361 5.33985 6.72248 5.34563 6.73112C5.44402 6.90973 5.5 7.115 5.5 7.33333C5.5 7.55167 5.44402 7.75693 5.34564 7.93555C5.33979 7.94427 5.33419 7.95323 5.32883 7.96243C5.32362 7.97136 5.31872 7.98039 5.31413 7.9895C5.09392 8.34587 4.69969 8.58333 4.25 8.58333C3.55964 8.58333 3 8.02369 3 7.33333C3 6.64298 3.55964 6.08333 4.25 6.08333C4.69969 6.08333 5.09391 6.32079 5.31413 6.67716ZM10.1382 10.8448C10.1522 10.8269 10.1652 10.8078 10.177 10.7876C10.1883 10.7681 10.1982 10.7482 10.2067 10.728C10.4304 10.3897 10.8141 10.1667 11.25 10.1667C11.9404 10.1667 12.5 10.7263 12.5 11.4167C12.5 12.107 11.9404 12.6667 11.25 12.6667C10.5596 12.6667 10 12.107 10 11.4167C10 11.2106 10.0499 11.0162 10.1382 10.8448Z" fill="#000000"/>
</svg>
