<svg width="14" height="14" viewBox="0 0 14 14" xmlns="http://www.w3.org/2000/svg">
<path fill-rule="evenodd" clip-rule="evenodd" d="M3.08073 1H6.91927C7.18285 0.999991 7.41023 0.999984 7.59752 1.01529C7.79519 1.03144 7.9918 1.06709 8.18099 1.16349C8.46323 1.3073 8.6927 1.53677 8.83651 1.81902C8.93291 2.0082 8.96857 2.20481 8.98472 2.40249C9.00002 2.58978 9.00001 2.81716 9 3.08074V4.31388C11.2388 4.49212 13 6.36538 13 8.65C13 11.0524 11.0524 13 8.65 13C6.36538 13 4.49212 11.2388 4.31388 9H3.08074C2.81716 9.00001 2.58978 9.00002 2.40249 8.98472C2.20481 8.96857 2.0082 8.93291 1.81902 8.83651C1.53677 8.6927 1.3073 8.46323 1.16349 8.18099C1.06709 7.9918 1.03144 7.79519 1.01529 7.59752C0.999984 7.41023 0.999991 7.18285 1 6.91927V3.08073C0.999991 2.81715 0.999984 2.58977 1.01529 2.40249C1.03144 2.20481 1.06709 2.0082 1.16349 1.81902C1.3073 1.53677 1.53677 1.3073 1.81902 1.16349C2.0082 1.06709 2.20481 1.03144 2.40249 1.01529C2.58977 0.999984 2.81715 0.999991 3.08073 1ZM5.31807 9C5.49306 10.6857 6.91804 12 8.65 12C10.5002 12 12 10.5002 12 8.65C12 6.91804 10.6857 5.49306 9 5.31807V6.91926C9.00001 7.18284 9.00002 7.41023 8.98472 7.59752C8.96857 7.79519 8.93291 7.9918 8.83651 8.18099C8.6927 8.46323 8.46323 8.6927 8.18099 8.83651C7.9918 8.93291 7.79519 8.96857 7.59752 8.98472C7.41023 9.00002 7.18284 9.00001 6.91926 9H5.31807ZM8 5.36302V6.9C8 7.18828 7.99961 7.37441 7.98804 7.51608C7.97694 7.65191 7.9581 7.70227 7.9455 7.727C7.89757 7.82108 7.82108 7.89757 7.727 7.9455C7.70227 7.9581 7.65191 7.97694 7.51608 7.98804C7.37441 7.99961 7.18828 8 6.9 8H5.36302C5.62429 6.67122 6.67122 5.62429 8 5.36302ZM8 4.34824C6.11793 4.63022 4.63022 6.11793 4.34824 8H3.1C2.81172 8 2.62559 7.99961 2.48392 7.98804C2.34809 7.97694 2.29773 7.9581 2.27301 7.9455C2.17892 7.89757 2.10243 7.82108 2.0545 7.727C2.0419 7.70227 2.02306 7.65191 2.01196 7.51608C2.00039 7.37441 2 7.18828 2 6.9V3.1C2 2.81172 2.00039 2.62559 2.01196 2.48392C2.02306 2.34809 2.0419 2.29773 2.0545 2.27301C2.10243 2.17892 2.17892 2.10243 2.27301 2.0545C2.29773 2.0419 2.34809 2.02306 2.48392 2.01196C2.62559 2.00039 2.81172 2 3.1 2H6.9C7.18828 2 7.37441 2.00039 7.51608 2.01196C7.65191 2.02306 7.70227 2.0419 7.727 2.0545C7.82108 2.10243 7.89757 2.17892 7.9455 2.27301C7.9581 2.29773 7.97694 2.34809 7.98804 2.48392C7.99961 2.62559 8 2.81172 8 3.1V4.34824Z"/>
</svg>
