<svg width="16" height="16" viewBox="0 0 16 16" xmlns="http://www.w3.org/2000/svg">
<path fill-rule="evenodd" clip-rule="evenodd" d="M12 2H4C2.89543 2 2 2.89543 2 4V12C2 13.1046 2.89543 14 4 14H12C13.1046 14 14 13.1046 14 12V4C14 2.89543 13.1046 2 12 2ZM4 1C2.34315 1 1 2.34315 1 4V12C1 13.6569 2.34315 15 4 15H12C13.6569 15 15 13.6569 15 12V4C15 2.34315 13.6569 1 12 1H4Z" fill="#000000"/>
<path fill-rule="evenodd" clip-rule="evenodd" d="M11.5 10H4.5C4.22386 10 4 10.2239 4 10.5C4 10.7761 4.22386 11 4.5 11H11.5C11.7761 11 12 10.7761 12 10.5C12 10.2239 11.7761 10 11.5 10ZM4.5 9C3.67157 9 3 9.67157 3 10.5C3 11.3284 3.67157 12 4.5 12H11.5C12.3284 12 13 11.3284 13 10.5C13 9.67157 12.3284 9 11.5 9H4.5Z" fill="#000000"/>
<path fill-rule="evenodd" clip-rule="evenodd" d="M11.5 5H4.5C4.22386 5 4 5.22386 4 5.5C4 5.77614 4.22386 6 4.5 6H11.5C11.7761 6 12 5.77614 12 5.5C12 5.22386 11.7761 5 11.5 5ZM4.5 4C3.67157 4 3 4.67157 3 5.5C3 6.32843 3.67157 7 4.5 7H11.5C12.3284 7 13 6.32843 13 5.5C13 4.67157 12.3284 4 11.5 4H4.5Z" fill="#000000"/>
</svg>
