<svg width="16" height="16" viewBox="0 0 16 16" xmlns="http://www.w3.org/2000/svg">
<path fill-rule="evenodd" clip-rule="evenodd" d="M8 2C6.12223 2 4.6 3.52223 4.6 5.4C4.6 7.27776 6.12223 8.8 8 8.8C9.87777 8.8 11.4 7.27776 11.4 5.4C11.4 3.52223 9.87777 2 8 2ZM3.6 5.4C3.6 2.96995 5.56995 1 8 1C10.4301 1 12.4 2.96995 12.4 5.4C12.4 5.78786 12.3498 6.16399 12.2556 6.52227C13.8649 7.17633 15 8.75507 15 10.6C15 13.0301 13.0301 15 10.6 15C9.62773 15 8.72834 14.6842 8.00003 14.15C7.27162 14.6844 6.37267 15 5.4 15C2.96995 15 1 13.03 1 10.6C1 8.75507 2.13513 7.17632 3.74441 6.52226C3.65018 6.16398 3.6 5.78785 3.6 5.4ZM4.10784 7.45398C2.87065 7.96265 2 9.18017 2 10.6C2 12.4778 3.52223 14 5.4 14C6.26883 14 7.06154 13.6741 7.66258 13.1379C7.6655 13.1352 7.66845 13.1326 7.67143 13.13C8.36425 12.5076 8.8 11.6047 8.8 10.6C8.8 10.3046 8.76243 10.0184 8.69195 9.7459C8.46653 9.78151 8.23543 9.8 8 9.8C6.31181 9.8 4.84568 8.84925 4.10784 7.45398ZM9.65551 9.47793C9.74984 9.83652 9.8 10.2127 9.8 10.6C9.8 11.6886 9.40468 12.6848 8.74976 13.453C9.28224 13.7992 9.9173 14 10.6 14C12.4778 14 14 12.4778 14 10.6C14 9.18018 13.1293 7.96266 11.8922 7.45399C11.4103 8.36526 10.6177 9.08692 9.65551 9.47793Z" fill="black"/>
</svg>
