<svg width="14" height="14" viewBox="0 0 14 14" xmlns="http://www.w3.org/2000/svg">
<path fill-rule="evenodd" clip-rule="evenodd" d="M9.10678 2.02C9.03705 2.00325 8.95717 2.00004 8.63443 2.00004H4.44444V3.57782C4.44444 3.7572 4.44483 3.86166 4.45111 3.93848C4.45406 3.97458 4.45764 3.99292 4.45932 4.00002C4.46907 4.01693 4.48312 4.03097 4.50002 4.04072C4.50712 4.0424 4.52546 4.04598 4.56156 4.04893C4.63838 4.05521 4.74285 4.0556 4.92222 4.0556H9.07778C9.25716 4.0556 9.36162 4.05521 9.43844 4.04893C9.47454 4.04598 9.49288 4.0424 9.49998 4.04072C9.51689 4.03097 9.53093 4.01693 9.54068 4.00002C9.54236 3.99292 9.54594 3.97458 9.54889 3.93848C9.55517 3.86166 9.55556 3.7572 9.55556 3.57782V2.31879C9.41414 2.17911 9.36564 2.13717 9.31554 2.10647C9.25092 2.06687 9.18048 2.03769 9.10678 2.02ZM10.5556 3.31826V3.59487C10.5556 3.75131 10.5556 3.89736 10.5456 4.01991C10.5347 4.15274 10.5097 4.30132 10.4345 4.44892C10.3279 4.65799 10.1579 4.82797 9.94888 4.93449C9.80128 5.0097 9.65269 5.03476 9.51987 5.04561C9.39732 5.05562 9.25126 5.05561 9.09482 5.0556H4.90518C4.74874 5.05561 4.60268 5.05562 4.48013 5.04561C4.34731 5.03476 4.19872 5.0097 4.05112 4.93449C3.84205 4.82797 3.67207 4.65799 3.56555 4.44892C3.49034 4.30132 3.46528 4.15274 3.45443 4.01991C3.44442 3.89736 3.44443 3.7513 3.44444 3.59486C3.44444 3.58919 3.44444 3.58351 3.44444 3.57782V2.01232C3.38279 2.01525 3.32481 2.01887 3.26992 2.02336C2.99513 2.04581 2.84186 2.08735 2.72801 2.14537C2.47713 2.2732 2.27316 2.47717 2.14532 2.72805C2.08731 2.8419 2.04577 2.99517 2.02332 3.26996C2.00039 3.55059 2 3.91174 2 4.43337V9.56671C2 10.0883 2.00039 10.4495 2.02332 10.7301C2.04577 11.0049 2.08731 11.1582 2.14532 11.272C2.27316 11.5229 2.47713 11.7269 2.72801 11.8547C2.84186 11.9127 2.99513 11.9543 3.26992 11.9767C3.32481 11.9812 3.38279 11.9848 3.44444 11.9878L3.44444 8.57189C3.44443 8.41544 3.44442 8.26939 3.45443 8.14684C3.46528 8.01401 3.49034 7.86542 3.56555 7.71783C3.67207 7.50876 3.84205 7.33878 4.05112 7.23226C4.19872 7.15705 4.34731 7.13199 4.48013 7.12114C4.60268 7.11113 4.74873 7.11114 4.90518 7.11115H9.09482C9.25127 7.11114 9.39732 7.11113 9.51987 7.12114C9.65269 7.13199 9.80128 7.15705 9.94888 7.23226C10.1579 7.33878 10.3279 7.50876 10.4345 7.71783C10.5097 7.86542 10.5347 8.01401 10.5456 8.14684C10.5556 8.26938 10.5556 8.41544 10.5556 8.57188V11.9878C10.6172 11.9848 10.6752 11.9812 10.7301 11.9767C11.0049 11.9543 11.1581 11.9127 11.272 11.8547C11.5229 11.7269 11.7268 11.5229 11.8547 11.272C11.9127 11.1582 11.9542 11.0049 11.9767 10.7301C11.9996 10.4495 12 10.0883 12 9.56671V5.36561C12 5.04287 11.9968 4.96299 11.98 4.89326C11.9624 4.81957 11.9332 4.74912 11.8936 4.6845C11.8561 4.62335 11.8019 4.56459 11.5737 4.33638L10.5556 3.31826ZM10.0915 12.9988C10.3653 12.9965 10.6038 12.9904 10.8115 12.9734C11.1481 12.9459 11.4477 12.8875 11.726 12.7457C12.165 12.522 12.522 12.1651 12.7457 11.726C12.8875 11.4477 12.9459 11.1482 12.9734 10.8116C13 10.4854 13 10.0833 13 9.58791V5.36561C13 5.34999 13 5.33455 13 5.31927C13.0002 5.06561 13.0003 4.85939 12.9524 4.65981C12.9102 4.48408 12.8406 4.31609 12.7462 4.162C12.639 3.98699 12.493 3.84127 12.3136 3.66202C12.3028 3.65123 12.2918 3.64032 12.2808 3.62927L10.3708 1.71926C10.3597 1.70821 10.3488 1.69728 10.338 1.68648C10.1588 1.50699 10.013 1.36107 9.83804 1.25383C9.68395 1.1594 9.51596 1.08981 9.34023 1.04763C9.14065 0.999711 8.93442 0.99985 8.68076 1.00002C8.66549 1.00003 8.65005 1.00004 8.63443 1.00004L4.41214 1.00004C4.25686 1.00004 4.11074 1.00004 3.97325 1.00086C3.96372 1.00031 3.95411 1.00004 3.94444 1.00004C3.93236 1.00004 3.92039 1.00047 3.90852 1.00131C3.63472 1.00355 3.3962 1.00971 3.18849 1.02668C2.85186 1.05418 2.55234 1.11255 2.27402 1.25436C1.83498 1.47806 1.47802 1.83502 1.25432 2.27406C1.11251 2.55238 1.05414 2.8519 1.02664 3.18853C0.99999 3.51469 0.999995 3.91679 1 4.41218V9.5879C0.999995 10.0833 0.99999 10.4854 1.02664 10.8116C1.05414 11.1482 1.11251 11.4477 1.25432 11.726C1.47802 12.1651 1.83498 12.522 2.27402 12.7457C2.55234 12.8875 2.85186 12.9459 3.18849 12.9734C3.3962 12.9904 3.63472 12.9965 3.90852 12.9988C3.92039 12.9996 3.93237 13 3.94444 13C3.95411 13 3.96372 12.9998 3.97325 12.9992C4.11073 13 4.25685 13 4.41213 13H9.58787C9.74315 13 9.88927 13 10.0267 12.9992C10.0363 12.9998 10.0459 13 10.0556 13C10.0676 13 10.0796 12.9996 10.0915 12.9988ZM9.55556 12V8.58893C9.55556 8.40955 9.55517 8.30509 9.54889 8.22827C9.54594 8.19217 9.54236 8.17382 9.54068 8.16673C9.53093 8.14982 9.51689 8.13578 9.49998 8.12602C9.49289 8.12435 9.47454 8.12077 9.43844 8.11782C9.36162 8.11154 9.25716 8.11115 9.07778 8.11115H4.92222C4.74284 8.11115 4.63838 8.11154 4.56156 8.11782C4.52546 8.12077 4.50712 8.12435 4.50002 8.12602C4.48311 8.13578 4.46907 8.14982 4.45932 8.16673C4.45764 8.17382 4.45406 8.19217 4.45111 8.22827C4.44483 8.30509 4.44444 8.40955 4.44444 8.58893V12H9.55556ZM9.50357 8.12698C9.50389 8.12709 9.50357 8.12698 9.50357 8.12698ZM9.53973 4.00361C9.53962 4.00393 9.53973 4.0036 9.53973 4.00361Z"/>
</svg>
