<svg width="16" height="16" viewBox="0 0 16 16" fill="none" xmlns="http://www.w3.org/2000/svg">
<path fill-rule="evenodd" clip-rule="evenodd" d="M12 2H4C2.89543 2 2 2.89543 2 4V12C2 13.1046 2.89543 14 4 14H12C13.1046 14 14 13.1046 14 12V4C14 2.89543 13.1046 2 12 2ZM4 1C2.34315 1 1 2.34315 1 4V12C1 13.6569 2.34315 15 4 15H12C13.6569 15 15 13.6569 15 12V4C15 2.34315 13.6569 1 12 1H4Z" fill="#000000"/>
<path d="M11 7.33333C11 7.33333 10.3668 6.42274 9.85247 5.87941C9.3381 5.33609 8.62728 5 7.84211 5C6.27245 5 5 6.34315 5 8C5 9.65685 6.27245 11 7.84211 11C9.13782 11 10.231 10.0848 10.5731 8.83333M11 7.33333V5.33333M11 7.33333H9.10526" stroke="#000000" stroke-linecap="round" stroke-linejoin="round"/>
</svg>
