<svg width="15" height="15" viewBox="0 0 15 15" xmlns="http://www.w3.org/2000/svg">
<path fill-rule="evenodd" clip-rule="evenodd" d="M7.29602 2.01899C7.43085 1.99367 7.5696 1.99367 7.70443 2.01899C7.8609 2.04838 8.00222 2.12052 8.12619 2.1838C8.13696 2.1893 8.14761 2.19473 8.15812 2.20006L12.2692 4.28564C12.2807 4.29143 12.2923 4.29731 12.3042 4.30329C12.4331 4.36814 12.5863 4.44527 12.7051 4.56303C12.8095 4.66644 12.8914 4.79201 12.9423 4.93271C13.0017 5.09664 13.0009 5.27122 13.0003 5.4044C13.0003 5.41701 13.0002 5.42926 13.0002 5.44108V9.55892C13.0002 9.57074 13.0003 9.58299 13.0003 9.5956C13.0009 9.72878 13.0017 9.90336 12.9423 10.0673C12.8914 10.208 12.8095 10.3336 12.7051 10.437C12.5863 10.5547 12.4331 10.6319 12.3042 10.6967C12.2923 10.7027 12.2807 10.7086 12.2692 10.7144L8.15812 12.7999C8.1476 12.8053 8.13696 12.8107 8.12619 12.8162C8.00222 12.8795 7.8609 12.9516 7.70443 12.981C7.5696 13.0063 7.43085 13.0063 7.29602 12.981C7.13955 12.9516 6.99823 12.8795 6.87426 12.8162C6.86348 12.8107 6.85284 12.8053 6.84233 12.7999L2.73122 10.7144C2.7198 10.7086 2.70812 10.7027 2.69623 10.6967C2.56739 10.6319 2.41415 10.5547 2.29531 10.437C2.19095 10.3336 2.10901 10.208 2.0581 10.0673C1.99879 9.90336 1.99954 9.72878 2.00012 9.5956C2.00017 9.58299 2.00022 9.57074 2.00022 9.55892V5.44108C2.00022 5.42926 2.00017 5.41701 2.00012 5.4044C1.99954 5.27122 1.99879 5.09664 2.0581 4.93271C2.10901 4.79201 2.19095 4.66644 2.29531 4.56303C2.41415 4.44527 2.56739 4.36814 2.69623 4.3033C2.70812 4.29731 2.7198 4.29144 2.73122 4.28564L6.84233 2.20006C6.85284 2.19473 6.86348 2.1893 6.87426 2.1838C6.99822 2.12052 7.13955 2.04838 7.29602 2.01899ZM7.48327 3.00134C7.47997 3.00246 7.47208 3.00536 7.45775 3.01167C7.4233 3.02685 7.3782 3.04953 7.29475 3.09187L3.60541 4.96348L7.50021 6.93933L11.395 4.96347L7.7057 3.09187C7.62225 3.04953 7.57715 3.02685 7.5427 3.01167C7.52837 3.00536 7.52048 3.00246 7.51718 3.00134C7.50603 2.99955 7.49442 2.99955 7.48327 3.00134ZM12.0002 5.77777V9.55892C12.0002 9.64808 12 9.69415 11.9981 9.7268C11.9949 9.72873 11.9911 9.73106 11.9864 9.7338C11.9525 9.75352 11.905 9.77781 11.8168 9.82255L8.00022 11.7587L8.00021 7.80699L12.0002 5.77777ZM7.00021 7.80699L3.00022 5.77779V9.55892C3.00022 9.64808 3.00045 9.69415 3.00237 9.72679C3.0055 9.72873 3.00938 9.73106 3.01409 9.7338C3.04798 9.75352 3.09544 9.77781 3.18364 9.82255L7.00022 11.7587L7.00021 7.80699Z"/>
</svg>
