<svg width="15" height="15" viewBox="0 0 15 15" xmlns="http://www.w3.org/2000/svg">
<path fill-rule="evenodd" clip-rule="evenodd" d="M7.50008 1C7.77622 1 8.00008 1.22386 8.00008 1.5V2.66651C8.79815 2.88366 9.38897 3.60794 9.38897 4.475C9.38897 4.98729 9.18272 5.44973 8.84935 5.78719L11.1325 9.68001C11.4961 9.41737 11.8296 9.11632 12.1269 8.78288C12.3106 8.57676 12.6267 8.55863 12.8328 8.7424C13.0389 8.92616 13.0571 9.24222 12.8733 9.44834C12.5069 9.85935 12.0931 10.228 11.6404 10.5459L12.9314 12.747C13.0711 12.9852 12.9912 13.2916 12.753 13.4313C12.5148 13.571 12.2085 13.4912 12.0688 13.253L10.784 11.0623C9.79998 11.5657 8.68329 11.85 7.50008 11.85C6.31687 11.85 5.20018 11.5657 4.21621 11.0623L2.93137 13.253C2.79167 13.4912 2.48532 13.571 2.24712 13.4313C2.00893 13.2916 1.92908 12.9852 2.06879 12.747L3.35977 10.5459C2.90709 10.228 2.49329 9.85935 2.12687 9.44834C1.9431 9.24222 1.96123 8.92616 2.16735 8.7424C2.37347 8.55863 2.68953 8.57676 2.87329 8.78288C3.17057 9.11632 3.50403 9.41737 3.86764 9.68001L6.15082 5.78719C5.81744 5.44973 5.61119 4.98729 5.61119 4.475C5.61119 3.60794 6.20201 2.88366 7.00008 2.66651V1.5C7.00008 1.22386 7.22394 1 7.50008 1ZM7.06739 5.23969C7.06354 5.23729 7.05965 5.23494 7.05572 5.23264C7.04946 5.22897 7.04316 5.22545 7.03681 5.22208C6.78043 5.06756 6.61119 4.78893 6.61119 4.475C6.61119 3.99648 7.00441 3.6 7.50008 3.6C7.99575 3.6 8.38897 3.99648 8.38897 4.475C8.38897 4.78894 8.21973 5.06756 7.96335 5.22208C7.957 5.22545 7.9507 5.22897 7.94444 5.23264C7.94051 5.23494 7.93662 5.23729 7.93278 5.23969C7.80517 5.30985 7.65781 5.35 7.50008 5.35C7.34235 5.35 7.195 5.30985 7.06739 5.23969ZM7.01647 6.28787L4.72309 10.1981C5.55749 10.6151 6.50081 10.85 7.50008 10.85C8.49935 10.85 9.44267 10.6151 10.2771 10.1981L7.98369 6.28787C7.82919 6.32842 7.66706 6.35 7.50008 6.35C7.3331 6.35 7.17098 6.32842 7.01647 6.28787Z"/>
</svg>
