<svg width="16" height="16" viewBox="0 0 16 16" fill="none" xmlns="http://www.w3.org/2000/svg">
<path d="M1 4C1 2.34315 2.34315 1 4 1H12C13.6569 1 15 2.34315 15 4V12C15 13.6569 13.6569 15 12 15H4C2.34315 15 1 13.6569 1 12V4Z" fill="none"/>
<path fill-rule="evenodd" clip-rule="evenodd" d="M12 2H4C2.89543 2 2 2.89543 2 4V12C2 13.1046 2.89543 14 4 14H12C13.1046 14 14 13.1046 14 12V4C14 2.89543 13.1046 2 12 2ZM4 1C2.34315 1 1 2.34315 1 4V12C1 13.6569 2.34315 15 4 15H12C13.6569 15 15 13.6569 15 12V4C15 2.34315 13.6569 1 12 1H4Z" fill="#000000"/>
<path fill-rule="evenodd" clip-rule="evenodd" d="M11 4.5V11.5C11 11.7761 11.2239 12 11.5 12C11.7761 12 12 11.7761 12 11.5V4.5C12 4.22386 11.7761 4 11.5 4C11.2239 4 11 4.22386 11 4.5ZM10 11.5C10 12.3284 10.6716 13 11.5 13C12.3284 13 13 12.3284 13 11.5V4.5C13 3.67157 12.3284 3 11.5 3C10.6716 3 10 3.67157 10 4.5V11.5Z" fill="#000000"/>
</svg>
