<svg width="21" height="21" viewBox="0 0 21 21" xmlns="http://www.w3.org/2000/svg">
<path fill-rule="evenodd" clip-rule="evenodd" d="M10.5 2C10.7762 2 11 2.22386 11 2.5V12.2929L15.1465 8.14645C15.3418 7.95118 15.6583 7.95118 15.8536 8.14645C16.0489 8.34171 16.0489 8.65829 15.8536 8.85355L10.8536 13.8536C10.6583 14.0488 10.3418 14.0488 10.1465 13.8536L5.14649 8.85355C4.95123 8.65829 4.95123 8.34171 5.14649 8.14645C5.34176 7.95118 5.65834 7.95118 5.8536 8.14645L10 12.2929V2.5C10 2.22386 10.2239 2 10.5 2ZM2.50005 13C2.77619 13 3.00005 13.2239 3.00005 13.5V14.5C3.00005 16.038 3.0121 16.3772 3.2362 16.817C3.44393 17.2247 3.77538 17.5561 4.18307 17.7638C4.38605 17.8673 4.64222 17.9315 5.05597 17.9653C5.47556 17.9996 6.01173 18 6.76671 18H14.2334C14.9884 18 15.5245 17.9996 15.9441 17.9653C16.3579 17.9315 16.614 17.8673 16.817 17.7638C17.2247 17.5561 17.5562 17.2247 17.7639 16.817C17.988 16.3772 18 16.038 18 14.5V13.5C18 13.2239 18.2239 13 18.5 13C18.7762 13 19 13.2239 19 13.5V14.5C19 14.5466 19.0001 14.5924 19.0001 14.6373C19.0004 15.989 19.0006 16.5925 18.6549 17.271C18.3513 17.8668 17.8669 18.3513 17.271 18.6549C16.9036 18.8421 16.5012 18.9232 16.0256 18.962C15.5605 19 14.9835 19 14.2554 19H6.7447C6.01661 19 5.43962 19 4.97454 18.962C4.49894 18.9232 4.09653 18.8421 3.72908 18.6549C3.13323 18.3513 2.64879 17.8668 2.34519 17.271C1.99949 16.5925 1.99965 15.989 2.00002 14.6373C2.00004 14.5924 2.00005 14.5466 2.00005 14.5V13.5C2.00005 13.2239 2.22391 13 2.50005 13Z"/>
</svg>
