<svg width="14" height="14" viewBox="0 0 14 14" xmlns="http://www.w3.org/2000/svg">
<path fill-rule="evenodd" clip-rule="evenodd" d="M5.44118 1.5C5.44118 1.22386 5.66503 1 5.94118 1H8.05882C8.33497 1 8.55882 1.22386 8.55882 1.5C8.55882 1.77614 8.33497 2 8.05882 2H7.5V2.67545C10.0409 2.9356 12 5.15762 12 7.825C12 10.6649 9.77923 13 7 13C4.22077 13 2 10.6649 2 7.825C2 5.15762 3.95912 2.9356 6.5 2.67545V2H5.94118C5.66503 2 5.44118 1.77614 5.44118 1.5ZM3.7314 2.29039C3.93036 2.48189 3.93639 2.79842 3.74489 2.99737L2.95077 3.82237C2.75927 4.02132 2.44274 4.02736 2.24379 3.83585C2.04484 3.64435 2.03881 3.32783 2.23031 3.12888L3.02443 2.30388C3.21593 2.10493 3.53245 2.09889 3.7314 2.29039ZM10.2686 2.29039C10.4675 2.09889 10.7841 2.10493 10.9756 2.30388L11.3726 2.71638C11.3728 2.71652 11.3725 2.71623 11.3726 2.71638L11.7697 3.12888C11.9612 3.32783 11.9552 3.64435 11.7562 3.83585C11.5573 4.02736 11.2407 4.02132 11.0492 3.82237L10.2551 2.99737C10.0636 2.79842 10.0696 2.48189 10.2686 2.29039ZM7 3.65C4.80867 3.65 3 5.50106 3 7.825C3 10.1489 4.80867 12 7 12C9.19133 12 11 10.1489 11 7.825C11 5.50106 9.19133 3.65 7 3.65ZM7 5.125C7.27614 5.125 7.5 5.34886 7.5 5.625V7.54748L8.58802 8.22568C8.82236 8.37176 8.89392 8.68015 8.74785 8.91449C8.60177 9.14883 8.29338 9.22039 8.05904 9.07432L6.73551 8.24932C6.58903 8.15801 6.5 7.99761 6.5 7.825V5.625C6.5 5.34886 6.72386 5.125 7 5.125Z"/>
</svg>
