<svg width="14" height="14" viewBox="0 0 14 14" xmlns="http://www.w3.org/2000/svg">
<path fill-rule="evenodd" clip-rule="evenodd" d="M3.34645 1.14645C3.54171 0.951184 3.85829 0.951184 4.05355 1.14645L5.15355 2.24645C5.34882 2.44171 5.34882 2.75829 5.15355 2.95355L4.05355 4.05355C3.85829 4.24882 3.54171 4.24882 3.34645 4.05355C3.15118 3.85829 3.15118 3.54171 3.34645 3.34645L3.58935 3.10354C2.70204 3.16055 2 3.89829 2 4.8C2 5.07614 1.77614 5.3 1.5 5.3C1.22386 5.3 1 5.07614 1 4.8C1 3.34403 2.15244 2.15722 3.5949 2.10201L3.34645 1.85355C3.15118 1.65829 3.15118 1.34171 3.34645 1.14645ZM5.51975 3.85037C5.94156 2.21151 7.42867 1 9.2 1C11.2987 1 13 2.70132 13 4.8C13 6.57132 11.7885 8.05842 10.1497 8.48024C9.88224 8.54908 9.60965 8.38809 9.54082 8.12066C9.47198 7.85324 9.63297 7.58064 9.9004 7.51181C11.1082 7.20094 12 6.10399 12 4.8C12 3.2536 10.7464 2 9.2 2C7.896 2 6.79904 2.89186 6.48818 4.09963C6.41935 4.36706 6.14676 4.52805 5.87933 4.45922C5.61191 4.39039 5.45092 4.1178 5.51975 3.85037ZM4.8 6.4C3.2536 6.4 2 7.6536 2 9.2C2 10.7464 3.2536 12 4.8 12C6.3464 12 7.6 10.7464 7.6 9.2C7.6 7.6536 6.3464 6.4 4.8 6.4ZM1 9.2C1 7.10132 2.70132 5.4 4.8 5.4C6.89868 5.4 8.6 7.10132 8.6 9.2C8.6 11.2987 6.89868 13 4.8 13C2.70132 13 1 11.2987 1 9.2ZM12.5 8.7C12.7761 8.7 13 8.92386 13 9.2C13 10.656 11.8476 11.8428 10.4051 11.898L10.6536 12.1464C10.8488 12.3417 10.8488 12.6583 10.6536 12.8536C10.4583 13.0488 10.1417 13.0488 9.94645 12.8536L8.84645 11.7536C8.65118 11.5583 8.65118 11.2417 8.84645 11.0464L9.94645 9.94645C10.1417 9.75118 10.4583 9.75118 10.6536 9.94645C10.8488 10.1417 10.8488 10.4583 10.6536 10.6536L10.4107 10.8965C11.298 10.8395 12 10.1017 12 9.2C12 8.92386 12.2239 8.7 12.5 8.7Z"/>
</svg>
