<svg width="14" height="14" viewBox="0 0 14 14" xmlns="http://www.w3.org/2000/svg">
<path fill-rule="evenodd" clip-rule="evenodd" d="M5.625 2C4.69084 2 3.925 2.76632 3.925 3.72222C3.925 4.67813 4.69084 5.44444 5.625 5.44444C6.55916 5.44444 7.325 4.67813 7.325 3.72222C7.325 2.76632 6.55916 2 5.625 2ZM2.925 3.72222C2.925 2.22353 4.12911 1 5.625 1C7.12089 1 8.325 2.22353 8.325 3.72222C8.325 5.22091 7.12089 6.44444 5.625 6.44444C4.12911 6.44444 2.925 5.22091 2.925 3.72222ZM8.46219 1.4723C8.5667 1.2167 8.85863 1.09421 9.11423 1.19872C10.1042 1.60348 10.8 2.58197 10.8 3.72222C10.8 4.86248 10.1042 5.84096 9.11423 6.24572C8.85863 6.35023 8.5667 6.22775 8.46219 5.97214C8.35768 5.71654 8.48017 5.42461 8.73577 5.3201C9.35835 5.06554 9.8 4.44718 9.8 3.72222C9.8 2.99727 9.35835 2.3789 8.73577 2.12434C8.48017 2.01983 8.35768 1.7279 8.46219 1.4723ZM4.78191 7.66667H6.46809C6.96528 7.66666 7.36406 7.66666 7.68812 7.68899C8.02069 7.71192 8.31118 7.76005 8.58489 7.87457C9.24726 8.1517 9.77196 8.68256 10.0451 9.34878C10.1578 9.62356 10.2053 9.91535 10.2279 10.2504C10.25 10.5772 10.25 10.9796 10.25 11.4822V11.5C10.25 11.7761 10.0261 12 9.75 12C9.47386 12 9.25 11.7761 9.25 11.5C9.25 10.9755 9.24973 10.6069 9.2302 10.3178C9.21097 10.033 9.1747 9.86178 9.11992 9.72819C8.94654 9.30538 8.61467 8.97103 8.19892 8.79708C8.06833 8.74244 7.9004 8.706 7.61937 8.68663C7.33374 8.66694 6.96945 8.66667 6.45 8.66667H4.8C4.28055 8.66667 3.91626 8.66694 3.63064 8.68663C3.3496 8.706 3.18167 8.74244 3.05108 8.79708C2.63533 8.97103 2.30346 9.30538 2.13008 9.72819C2.0753 9.86178 2.03903 10.033 2.0198 10.3178C2.00027 10.6069 2 10.9755 2 11.5C2 11.7761 1.77614 12 1.5 12C1.22386 12 1 11.7761 1 11.5L1 11.4822C0.999997 10.9796 0.999995 10.5772 1.02207 10.2504C1.0447 9.91535 1.09217 9.62356 1.20485 9.34878C1.47805 8.68256 2.00274 8.1517 2.66511 7.87457C2.93882 7.76005 3.22931 7.71192 3.56188 7.68899C3.88594 7.66666 4.28472 7.66666 4.78191 7.66667ZM10.3661 8.11087C10.4356 7.84361 10.7086 7.68328 10.9758 7.75276C12.1427 8.05612 13 9.12328 13 10.3889V11.5C13 11.7761 12.7761 12 12.5 12C12.2239 12 12 11.7761 12 11.5V10.3889C12 9.58357 11.4551 8.91061 10.7242 8.72059C10.4569 8.65111 10.2966 8.37813 10.3661 8.11087Z"/>
</svg>
