<svg width="14" height="14" viewBox="0 0 14 14" xmlns="http://www.w3.org/2000/svg">
<path fill-rule="evenodd" clip-rule="evenodd" d="M5.17942 1H8.82058C9.27565 0.999995 9.64677 0.99999 9.94816 1.02407C10.2596 1.04895 10.5399 1.10192 10.8016 1.2323C11.2122 1.4369 11.5482 1.76444 11.7595 2.16985C11.8948 2.42955 11.9496 2.70768 11.9753 3.01465C12 3.31071 12 3.67476 12 4.11869V9.88131C12 10.3252 12 10.6893 11.9753 10.9854C11.9496 11.2923 11.8948 11.5705 11.7595 11.8301C11.5482 12.2356 11.2122 12.5631 10.8016 12.7677C10.5399 12.8981 10.2596 12.9511 9.94816 12.9759C9.64677 13 9.27565 13 8.82058 13H5.17942C4.72435 13 4.35323 13 4.05184 12.9759C3.7404 12.9511 3.46015 12.8981 3.19843 12.7677C2.78776 12.5631 2.45178 12.2356 2.24052 11.8301C2.10519 11.5705 2.05038 11.2923 2.02473 10.9854C1.99999 10.6893 1.99999 10.3252 2 9.88132V4.11867C1.99999 3.67475 1.99999 3.31071 2.02473 3.01465C2.05038 2.70768 2.10519 2.42955 2.24052 2.16985C2.45178 1.76444 2.78776 1.4369 3.19843 1.2323C3.46015 1.10192 3.7404 1.04895 4.05184 1.02407C4.35323 0.99999 4.72435 0.999995 5.17942 1ZM4.13147 2.02089C3.88012 2.04097 3.74361 2.07792 3.64435 2.12737C3.41997 2.23916 3.23964 2.41646 3.12733 2.63198C3.07874 2.72524 3.04159 2.8546 3.02125 3.09792C3.00041 3.34741 3 3.66952 3 4.14V9.86C3 10.3305 3.00041 10.6526 3.02125 10.9021C3.04159 11.1454 3.07874 11.2748 3.12733 11.368C3.23964 11.5835 3.41997 11.7608 3.64435 11.8726C3.74361 11.9221 3.88012 11.959 4.13147 11.9791C4.38833 11.9996 4.71939 12 5.2 12H8.8C9.28061 12 9.61167 11.9996 9.86853 11.9791C10.1199 11.959 10.2564 11.9221 10.3556 11.8726C10.58 11.7608 10.7604 11.5835 10.8727 11.368C10.9213 11.2748 10.9584 11.1454 10.9787 10.9021C10.9996 10.6526 11 10.3305 11 9.86V4.14C11 3.66952 10.9996 3.34741 10.9787 3.09792C10.9584 2.8546 10.9213 2.72524 10.8727 2.63198C10.7604 2.41646 10.58 2.23916 10.3556 2.12737C10.2564 2.07792 10.1199 2.04097 9.86853 2.02089C9.61167 2.00037 9.28061 2 8.8 2H5.2C4.71939 2 4.38833 2.00037 4.13147 2.02089ZM4.25 4.25C4.25 3.97386 4.47386 3.75 4.75 3.75H9.25C9.52614 3.75 9.75 3.97386 9.75 4.25C9.75 4.52614 9.52614 4.75 9.25 4.75H4.75C4.47386 4.75 4.25 4.52614 4.25 4.25ZM4.25 6.45C4.25 6.17386 4.47386 5.95 4.75 5.95H8.125C8.40114 5.95 8.625 6.17386 8.625 6.45C8.625 6.72614 8.40114 6.95 8.125 6.95H4.75C4.47386 6.95 4.25 6.72614 4.25 6.45ZM4.25 8.65C4.25 8.37386 4.47386 8.15 4.75 8.15H5.875C6.15114 8.15 6.375 8.37386 6.375 8.65C6.375 8.92614 6.15114 9.15 5.875 9.15H4.75C4.47386 9.15 4.25 8.92614 4.25 8.65Z"/>
</svg>
