<svg width="14" height="14" viewBox="0 0 14 14" xmlns="http://www.w3.org/2000/svg">
<path fill-rule="evenodd" clip-rule="evenodd" d="M4.87935 2L6 2C6.27614 2 6.5 2.22386 6.5 2.5C6.5 2.77614 6.27614 3 6 3H4.9C4.47171 3 4.18056 3.00039 3.95552 3.01878C3.73631 3.03669 3.62421 3.06915 3.54601 3.10899C3.35785 3.20487 3.20487 3.35785 3.10899 3.54601C3.06915 3.62421 3.03669 3.73631 3.01878 3.95552C3.00039 4.18056 3 4.47171 3 4.9V9.1C3 9.52829 3.00039 9.81944 3.01878 10.0445C3.03669 10.2637 3.06915 10.3758 3.10899 10.454C3.20487 10.6422 3.35785 10.7951 3.54601 10.891C3.62421 10.9309 3.73631 10.9633 3.95552 10.9812C4.18056 10.9996 4.47171 11 4.9 11H9.1C9.52829 11 9.81944 10.9996 10.0445 10.9812C10.2637 10.9633 10.3758 10.9309 10.454 10.891C10.6422 10.7951 10.7951 10.6422 10.891 10.454C10.9309 10.3758 10.9633 10.2637 10.9812 10.0445C10.9996 9.81944 11 9.52829 11 9.1V8C11 7.72386 11.2239 7.5 11.5 7.5C11.7761 7.5 12 7.72386 12 8V9.12066C12 9.52314 12 9.85532 11.9779 10.1259C11.9549 10.407 11.9057 10.6653 11.782 10.908C11.5903 11.2843 11.2843 11.5903 10.908 11.782C10.6653 11.9057 10.407 11.9549 10.1259 11.9779C9.85532 12 9.52314 12 9.12066 12H4.87934C4.47686 12 4.14468 12 3.87409 11.9779C3.59304 11.9549 3.33469 11.9057 3.09202 11.782C2.7157 11.5903 2.40973 11.2843 2.21799 10.908C2.09434 10.6653 2.04506 10.407 2.0221 10.1259C1.99999 9.85532 1.99999 9.52314 2 9.12065V4.87935C1.99999 4.47687 1.99999 4.14469 2.0221 3.87409C2.04506 3.59304 2.09434 3.33469 2.21799 3.09202C2.40973 2.7157 2.7157 2.40973 3.09202 2.21799C3.33469 2.09434 3.59304 2.04506 3.87409 2.0221C4.14469 1.99999 4.47687 1.99999 4.87935 2ZM7.99999 2.50001C7.99999 2.22386 8.22385 2.00001 8.49999 2.00001H11.5C11.7761 2.00001 12 2.22386 12 2.5L12 5.5C12 5.77615 11.7761 6.00001 11.5 6.00001C11.2238 6.00001 11 5.77615 11 5.50001L11 3.70711L7.35355 7.35355C7.15829 7.54882 6.84171 7.54882 6.64645 7.35355C6.45118 7.15829 6.45118 6.84171 6.64645 6.64645L10.2929 3.00001H8.49999C8.22385 3.00001 7.99999 2.77615 7.99999 2.50001Z"/>
</svg>
