<svg width="14" height="14" viewBox="0 0 14 14" xmlns="http://www.w3.org/2000/svg">
<path fill-rule="evenodd" clip-rule="evenodd" d="M12.7629 1.07468C12.9103 1.16578 13 1.32671 13 1.5V10.3C13 10.4756 12.9079 10.6384 12.7572 10.7287L9.09058 12.9287C8.95015 13.013 8.77735 13.0232 8.62802 12.9559L8.60232 12.9443L8.52997 12.9114C8.46711 12.8827 8.37588 12.8409 8.2618 12.7881C8.03371 12.6825 7.71398 12.5328 7.34688 12.356C6.69226 12.0407 5.87984 11.636 5.16667 11.2404C4.4535 11.636 3.64108 12.0407 2.98646 12.356C2.61935 12.5328 2.29962 12.6825 2.07153 12.7881C1.95746 12.8409 1.86623 12.8827 1.80336 12.9114L1.73101 12.9443L1.70584 12.9557C1.55111 13.0253 1.37109 13.012 1.22858 12.9199C1.08606 12.8278 1 12.6697 1 12.5V3.7C1 3.52437 1.09215 3.36162 1.24275 3.27125L4.90942 1.07125C5.05601 0.983301 5.23737 0.976336 5.39027 1.05279L8.83333 2.77432L12.2764 1.05279C12.4314 0.97529 12.6155 0.983572 12.7629 1.07468ZM8.33333 3.64235L5.66667 2.30902V6.08333H5.16667H4.66667V2.3831L2 3.9831V11.718C2.16474 11.6405 2.35145 11.5519 2.55257 11.455C3.19726 11.1446 3.98297 10.7528 4.66667 10.3742V6.08333H5.16667H5.66667V10.3742C6.35037 10.7528 7.13608 11.1446 7.78076 11.455C7.98189 11.5519 8.1686 11.6405 8.33333 11.718V3.64235ZM9.33333 3.64235V11.6169L12 10.0169V2.30902L9.33333 3.64235Z"/>
</svg>
