<svg width="16" height="16" viewBox="0 0 16 16" fill="none" xmlns="http://www.w3.org/2000/svg">
<path fill-rule="evenodd" clip-rule="evenodd" d="M12 2H4C2.89543 2 2 2.89543 2 4V12C2 13.1046 2.89543 14 4 14H12C13.1046 14 14 13.1046 14 12V4C14 2.89543 13.1046 2 12 2ZM4 1C2.34315 1 1 2.34315 1 4V12C1 13.6569 2.34315 15 4 15H12C13.6569 15 15 13.6569 15 12V4C15 2.34315 13.6569 1 12 1H4Z" fill="#000000"/>
<path d="M10.8274 8.61207C11.5519 8.33519 12 7.95256 12 7.5299C12 6.68496 10.2091 6 8 6C5.79086 6 4 6.68496 4 7.5299C4 8.22738 5.22032 8.81584 6.88889 9M6.76137 8.98355C7.21674 9.05185 8 8.99994 8.5 8.99994M8.5 8.99994L7.5 7.99994M8.5 8.99994L7.5 9.99994" stroke="#000000" stroke-linecap="round" stroke-linejoin="round"/>
</svg>
