<svg width="15" height="15" viewBox="0 0 15 15" xmlns="http://www.w3.org/2000/svg">
<path d="M6.75003 12.286C6.75003 12.0993 6.91616 11.9474 7.12878 11.9474H7.87128C8.08052 11.9474 8.25003 12.1017 8.25003 12.286V13.6613C8.25003 13.8481 8.0839 14 7.87128 14H7.12878C6.91953 14 6.75003 13.8457 6.75003 13.6613V12.286ZM9.1039 8.91869C8.95501 8.97138 8.8069 9.02714 8.6644 9.09249C8.39215 9.21735 8.24665 9.42022 8.23653 9.70212C8.2324 9.81946 8.23802 9.94023 8.2099 10.0535C8.12777 10.3843 7.78203 10.6097 7.43102 10.5755C7.03465 10.5369 6.75829 10.2656 6.74328 9.90841C6.70278 8.9447 7.14228 8.24337 8.1004 7.8236C8.22957 7.76556 8.36186 7.71349 8.49677 7.6676C9.79614 7.23998 10.6099 6.06689 10.4655 4.82469C10.3208 3.57704 9.24377 2.56132 7.89191 2.39985C6.12228 2.18774 4.5548 3.40701 4.4963 5.03509C4.49331 5.12404 4.48879 5.21607 4.46255 5.30091C4.36393 5.6242 4.00729 5.83597 3.65554 5.78841C3.26856 5.73573 2.99555 5.45554 3.00005 5.09189C3.01355 4.08609 3.35856 3.18258 4.09504 2.43372C5.30441 1.20383 6.82503 0.737547 8.57853 1.14261C10.3489 1.55142 11.4457 2.63008 11.8732 4.2568C11.946 4.5346 11.9595 4.82572 12 5.11036C11.9603 6.81816 10.8401 8.30084 9.1039 8.91869Z"/>
</svg>
