<svg width="12" height="14" viewBox="0 0 12 14" xmlns="http://www.w3.org/2000/svg">
<path fill-rule="evenodd" clip-rule="evenodd" d="M4.99331 0.15263C5.18516 -0.045988 5.50169 -0.0514771 5.70031 0.14037L6.99443 1.39037C7.09197 1.48459 7.14706 1.61439 7.14706 1.75C7.14706 1.88562 7.09197 2.01541 6.99443 2.10963L5.70031 3.35963C5.50169 3.55148 5.18516 3.54599 4.99331 3.34737C4.80146 3.14875 4.80695 2.83222 5.00557 2.64037L5.44408 2.21681C2.93146 2.48353 1 4.53714 1 7C1 8.59196 1.8034 10.0087 3.05246 10.8877C3.27829 11.0466 3.33253 11.3586 3.1736 11.5844C3.01468 11.8102 2.70278 11.8644 2.47695 11.7055C0.980758 10.6526 0 8.93996 0 7C0 3.97934 2.36913 1.51987 5.37714 1.21853L5.00557 0.859631C4.80695 0.667784 4.80146 0.351249 4.99331 0.15263ZM8.8264 2.41562C8.98532 2.18979 9.29722 2.13555 9.52305 2.29448C11.0192 3.34739 12 5.06004 12 7C12 10.0207 9.63087 12.4801 6.62286 12.7815L6.99443 13.1404C7.19305 13.3322 7.19854 13.6488 7.00669 13.8474C6.81484 14.046 6.49831 14.0515 6.29969 13.8596L5.00557 12.6096C4.90803 12.5154 4.85294 12.3856 4.85294 12.25C4.85294 12.1144 4.90803 11.9846 5.00557 11.8904L6.29969 10.6404C6.49831 10.4485 6.81484 10.454 7.00669 10.6526C7.19854 10.8512 7.19305 11.1678 6.99443 11.3596L6.55592 11.7832C9.06854 11.5165 11 9.46286 11 7C11 5.40804 10.1966 3.99127 8.94754 3.11227C8.72171 2.95335 8.66747 2.64145 8.8264 2.41562Z"/>
</svg>
