<svg width="15" height="15" viewBox="0 0 15 15" fill="none" xmlns="http://www.w3.org/2000/svg">
<path fill-rule="evenodd" clip-rule="evenodd" d="M7 2.5C7 2.22386 7.22386 2 7.5 2H11.4664C11.7426 2 11.9664 2.22386 11.9664 2.5C11.9664 2.77614 11.7426 3 11.4664 3H10V4.00088L11.6333 4.00393L11.6532 4.00393C11.963 4.00392 12.2253 4.00391 12.4403 4.02148C12.6658 4.0399 12.883 4.0801 13.09 4.18558C13.4036 4.34537 13.6586 4.60034 13.8183 4.91394C13.9238 5.12096 13.964 5.33815 13.9824 5.56361C14 5.77867 14 6.04098 14 6.35079V8.65326C14 8.96306 14 9.22537 13.9824 9.44043C13.964 9.66589 13.9238 9.88308 13.8183 10.0901C13.6586 10.4037 13.4036 10.6587 13.09 10.8185C12.883 10.9239 12.6658 10.9641 12.4403 10.9826C12.2253 11.0001 11.963 11.0001 11.6532 11.0001L10 11V11.9999H11.5C11.7761 11.9999 12 12.2238 12 12.4999C12 12.7761 11.7761 12.9999 11.5 12.9999H7.5C7.22386 12.9999 7 12.7761 7 12.4999C7 12.2238 7.22386 11.9999 7.5 11.9999H9V10.5C9 10.5 9 10.5 9 10.5V3H7.5C7.22386 3 7 2.77614 7 2.5ZM10 5.00088V9.99998L11.6333 10.0001C11.6333 10.0001 11.6333 10.0001 11.6333 10.0001C11.9683 10.0001 12.1894 9.99972 12.3589 9.98588C12.5225 9.97251 12.5934 9.94913 12.636 9.92745C12.7614 9.86354 12.8634 9.76155 12.9273 9.63611C12.949 9.59356 12.9724 9.52262 12.9858 9.359C12.9996 9.18954 13 8.9684 13 8.63345V6.37059C13 6.03565 12.9996 5.81451 12.9858 5.64505C12.9724 5.48142 12.949 5.41048 12.9273 5.36793C12.8634 5.24249 12.7614 5.1405 12.636 5.07659C12.5934 5.05491 12.5225 5.03153 12.3589 5.01816C12.1894 5.00432 11.9683 5.00393 11.6333 5.00393L10 5.00088ZM3.34682 4.00376L6.5 4.00376C6.77614 4.00376 7 4.22761 7 4.50376C7 4.7799 6.77614 5.00376 6.5 5.00376H3.36667C3.03172 5.00376 2.81058 5.00415 2.64112 5.01799C2.4775 5.03136 2.40655 5.05474 2.36401 5.07642C2.23857 5.14033 2.13658 5.24232 2.07266 5.36776C2.05098 5.41031 2.0276 5.48125 2.01424 5.64488C2.00039 5.81434 2 6.03548 2 6.37042V8.63339C2 8.96834 2.00039 9.18948 2.01424 9.35894C2.0276 9.52256 2.05098 9.5935 2.07266 9.63605C2.13658 9.76149 2.23856 9.86348 2.36401 9.92739C2.40656 9.94907 2.4775 9.97245 2.64112 9.98582C2.81058 9.99967 3.03172 10.0001 3.36667 10.0001H6.5C6.77614 10.0001 7 10.2239 7 10.5001C7 10.7762 6.77614 11.0001 6.5 11.0001H3.34681C3.03703 11.0001 2.77474 11.0001 2.55969 10.9825C2.33422 10.9641 2.11703 10.9239 1.91002 10.8184C1.59641 10.6586 1.34145 10.4036 1.18166 10.09C1.07618 9.88303 1.03598 9.66584 1.01756 9.44037C0.999986 9.22532 0.999992 8.96302 1 8.65323L1 6.35058C0.999993 6.04079 0.999986 5.77849 1.01756 5.56344C1.03598 5.33798 1.07618 5.12079 1.18166 4.91377C1.34145 4.60017 1.59641 4.3452 1.91002 4.18541C2.11703 4.07993 2.33422 4.03973 2.55969 4.02131C2.77474 4.00374 3.03704 4.00375 3.34682 4.00376Z" fill="#000000"/>
</svg>
