<svg width="16" height="16" viewBox="0 0 16 16" fill="none" xmlns="http://www.w3.org/2000/svg">
<path fill-rule="evenodd" clip-rule="evenodd" d="M11.0059 5.57582C10.7704 4.04067 9.55387 2.99794 8.00076 3C6.36893 3.00218 5.0001 4.10711 5.0001 5.56545V7.001C5.12975 7.00033 5.26699 7.00034 5.41225 7.00034H10.5879C11.0833 7.00033 11.4855 7.00033 11.8116 7.02698C12.1482 7.05448 12.4478 7.11284 12.7261 7.25466C13.1651 7.47836 13.5221 7.83531 13.7458 8.27436C13.8876 8.55268 13.946 8.85219 13.9735 9.18882C14.0001 9.51498 14.0001 9.91708 14.0001 10.4125V10.6781C14.0001 10.7216 14.0001 10.7643 14.0001 10.8061C14.0007 11.7025 14.001 12.2253 13.7458 12.7262C13.5221 13.1653 13.1651 13.5222 12.7261 13.7459C12.4478 13.8877 12.1482 13.9461 11.8116 13.9736C11.4855 14.0002 11.0834 14.0002 10.588 14.0002H5.41223C4.91684 14.0002 4.51474 14.0002 4.18859 13.9736C3.85195 13.9461 3.55244 13.8877 3.27412 13.7459C2.83508 13.5222 2.47812 13.1653 2.25442 12.7262C1.9992 12.2253 1.99951 11.7025 2.00005 10.8061C2.00007 10.7643 2.0001 10.7216 2.0001 10.6781L2.0001 10.4125C2.00009 9.91709 2.00009 9.51498 2.02674 9.18882C2.05424 8.85219 2.11261 8.55268 2.25442 8.27436C2.47812 7.83531 2.83508 7.47836 3.27412 7.25466C3.49941 7.13986 3.73859 7.07975 4.0001 7.04642V5.56545C4.0001 3.38986 5.99734 2.00267 7.99943 2C10.0468 1.99728 11.6839 3.40051 11.9943 5.42419C12.0362 5.69714 11.8489 5.95235 11.5759 5.99422C11.303 6.03609 11.0477 5.84877 11.0059 5.57582ZM4.50653 8.00996C4.42132 8.01326 4.34295 8.0177 4.27002 8.02365C3.99523 8.04611 3.84196 8.08765 3.72811 8.14566C3.47723 8.27349 3.27325 8.47747 3.14542 8.72835C3.08741 8.8422 3.04587 8.99546 3.02342 9.27026C3.00049 9.55089 3.0001 9.91204 3.0001 10.4337V10.6781C3.0001 11.7561 3.01291 12.0122 3.14542 12.2722C3.27325 12.5231 3.47723 12.7271 3.72811 12.8549C3.84196 12.9129 3.99523 12.9545 4.27002 12.9769C4.55065 12.9998 4.9118 13.0002 5.43343 13.0002H10.5668C11.0884 13.0002 11.4495 12.9998 11.7302 12.9769C12.005 12.9545 12.1582 12.9129 12.2721 12.8549C12.523 12.7271 12.7269 12.5231 12.8548 12.2722C12.9873 12.0122 13.0001 11.7561 13.0001 10.6781V10.4337C13.0001 9.91204 12.9997 9.55089 12.9768 9.27026C12.9543 8.99546 12.9128 8.8422 12.8548 8.72835C12.7269 8.47747 12.523 8.27349 12.2721 8.14566C12.1582 8.08765 12.005 8.04611 11.7302 8.02365C11.4495 8.00073 11.0884 8.00034 10.5668 8.00034H5.43343C5.06048 8.00034 4.76957 8.00054 4.53147 8.00903C4.52321 8.00954 4.5149 8.00985 4.50653 8.00996Z" fill="black"/>
</svg>
