<svg width="16" height="16" viewBox="0 0 16 16" xmlns="http://www.w3.org/2000/svg">
<path fill-rule="evenodd" clip-rule="evenodd" d="M7.72278 3H8.27722C8.44443 2.99999 8.5984 2.99998 8.72719 3.01038C8.86607 3.02161 9.01884 3.04733 9.1701 3.12356C9.38604 3.23237 9.56262 3.40654 9.67364 3.62202C9.75168 3.77349 9.778 3.92662 9.78945 4.06518C9.79501 4.13245 9.79764 4.20658 9.79889 4.28572L12.8154 4.28572C13.0028 3.90348 13.3981 3.64286 13.85 3.64286C14.4799 3.64286 15 4.14934 15 4.78572C15 5.42209 14.4799 5.92857 13.85 5.92857C13.3981 5.92857 13.0028 5.66795 12.8154 5.28572L11.2403 5.28572C12.5956 6.21438 13.5259 7.71009 13.678 9.42931C13.7681 9.43035 13.8519 9.43287 13.9272 9.43896C14.0661 9.45018 14.2188 9.4759 14.3701 9.55213C14.586 9.66094 14.7626 9.83511 14.8736 10.0506C14.9517 10.2021 14.978 10.3552 14.9894 10.4938C15 10.6218 15 10.7747 15 10.9397V11.4888C15 11.6539 15 11.8068 14.9894 11.9348C14.978 12.0734 14.9517 12.2265 14.8736 12.378C14.7626 12.5935 14.586 12.7676 14.3701 12.8764C14.2188 12.9527 14.0661 12.9784 13.9272 12.9896C13.7984 13 13.6444 13 13.4772 13H12.9228C12.7556 13 12.6016 13 12.4728 12.9896C12.3339 12.9784 12.1812 12.9527 12.0299 12.8764C11.814 12.7676 11.6374 12.5935 11.5264 12.378C11.4483 12.2265 11.422 12.0734 11.4106 11.9348C11.4 11.8068 11.4 11.6539 11.4 11.4889V10.9397C11.4 10.7747 11.4 10.6218 11.4106 10.4938C11.422 10.3552 11.4483 10.2021 11.5264 10.0506C11.6374 9.83511 11.814 9.66094 12.0299 9.55213C12.1812 9.4759 12.3339 9.45018 12.4728 9.43896C12.5343 9.43399 12.6015 9.4314 12.6732 9.43004C12.4868 7.70605 11.3444 6.26064 9.77516 5.62805C9.75876 5.73207 9.72941 5.84116 9.67364 5.94941C9.56262 6.16489 9.38604 6.33906 9.1701 6.44787C9.01884 6.5241 8.86607 6.54983 8.72719 6.56105C8.5984 6.57145 8.44443 6.57144 8.27722 6.57143H7.72278C7.55557 6.57144 7.4016 6.57145 7.27281 6.56105C7.13394 6.54983 6.98116 6.5241 6.8299 6.44787C6.61397 6.33906 6.43738 6.16489 6.32637 5.94941C6.2706 5.84116 6.24124 5.73207 6.22484 5.62805C4.65565 6.26064 3.51323 7.70605 3.3268 9.43004C3.39847 9.43139 3.4657 9.43399 3.52719 9.43896C3.66607 9.45018 3.81884 9.4759 3.9701 9.55213C4.18604 9.66094 4.36262 9.83511 4.47364 10.0506C4.55168 10.2021 4.578 10.3552 4.58945 10.4938C4.60003 10.6218 4.60002 10.7747 4.6 10.9397V11.4889C4.60002 11.6539 4.60003 11.8068 4.58945 11.9348C4.578 12.0734 4.55168 12.2265 4.47364 12.378C4.36262 12.5935 4.18604 12.7676 3.9701 12.8764C3.81884 12.9527 3.66607 12.9784 3.52719 12.9896C3.3984 13 3.24443 13 3.07722 13H2.52278C2.35557 13 2.2016 13 2.07281 12.9896C1.93394 12.9784 1.78116 12.9527 1.6299 12.8764C1.41397 12.7676 1.23738 12.5935 1.12637 12.378C1.04833 12.2265 1.022 12.0734 1.01056 11.9348C0.999976 11.8068 0.999988 11.6539 1 11.4889V10.9397C0.999988 10.7747 0.999976 10.6218 1.01056 10.4938C1.022 10.3552 1.04833 10.2021 1.12637 10.0506C1.23738 9.83511 1.41397 9.66094 1.6299 9.55213C1.78116 9.4759 1.93394 9.45018 2.07281 9.43896C2.14807 9.43287 2.23192 9.43035 2.32198 9.42931C2.47411 7.71009 3.40445 6.21438 4.75974 5.28572H3.1846C2.9972 5.66795 2.60186 5.92857 2.15 5.92857C1.5201 5.92857 1 5.42209 1 4.78572C1 4.14934 1.5201 3.64286 2.15 3.64286C2.60186 3.64286 2.9972 3.90348 3.1846 4.28572L6.20112 4.28572C6.20236 4.20658 6.205 4.13245 6.21056 4.06518C6.222 3.92662 6.24833 3.77349 6.32637 3.62202C6.43738 3.40654 6.61397 3.23237 6.8299 3.12356C6.98116 3.04733 7.13394 3.02161 7.27281 3.01038C7.4016 2.99998 7.55557 2.99999 7.72278 3ZM7.2 4.93714V4.52857C7.2 4.34022 7.2004 4.22935 7.20716 4.14751C7.2108 4.10345 7.21539 4.08309 7.2172 4.0765C7.2305 4.05238 7.25112 4.03177 7.27726 4.01795C7.28341 4.01617 7.30471 4.01107 7.35335 4.00714C7.43693 4.00038 7.54982 4 7.74 4H8.26C8.45018 4 8.56307 4.00038 8.64665 4.00714C8.69526 4.01106 8.71656 4.01617 8.72273 4.01795C8.74888 4.03177 8.7695 4.05238 8.78281 4.07649C8.78461 4.08309 8.7892 4.10345 8.79284 4.14751C8.7996 4.22935 8.8 4.34022 8.8 4.52857V4.93714C8.79984 4.94443 8.79984 4.9517 8.8 4.95895V5.04286C8.8 5.23122 8.7996 5.34208 8.79284 5.42392C8.7892 5.46798 8.78461 5.48834 8.78281 5.49494C8.7695 5.51906 8.74888 5.53967 8.72274 5.55349C8.71656 5.55527 8.69526 5.56037 8.64665 5.5643C8.56307 5.57105 8.45018 5.57143 8.26 5.57143H7.74C7.54982 5.57143 7.43693 5.57105 7.35335 5.5643C7.30474 5.56037 7.28344 5.55527 7.27727 5.55349C7.25112 5.53967 7.2305 5.51906 7.2172 5.49494C7.21539 5.48834 7.2108 5.46798 7.20716 5.42392C7.2004 5.34208 7.2 5.23122 7.2 5.04286V4.95895C7.20016 4.9517 7.20016 4.94443 7.2 4.93714ZM7.21797 5.49746V5.49746ZM8.78203 4.07397V4.07397ZM2.07727 10.4465C2.05112 10.4603 2.0305 10.4809 2.0172 10.5051C2.01539 10.5117 2.0108 10.532 2.00716 10.5761C2.0004 10.6579 2 10.7688 2 10.9571V11.4714C2 11.6598 2.0004 11.7707 2.00716 11.8525C2.0108 11.8965 2.01539 11.9169 2.0172 11.9235C2.0305 11.9476 2.05112 11.9682 2.07727 11.9821C2.08344 11.9838 2.10474 11.9889 2.15335 11.9929C2.23693 11.9996 2.34982 12 2.54 12H3.06C3.25018 12 3.36307 11.9996 3.44665 11.9929C3.49526 11.9889 3.51656 11.9838 3.52274 11.9821C3.54888 11.9682 3.5695 11.9476 3.58281 11.9235C3.58461 11.9169 3.5892 11.8965 3.59284 11.8525C3.5996 11.7707 3.6 11.6598 3.6 11.4714V10.9571C3.6 10.7688 3.5996 10.6579 3.59284 10.5761C3.5892 10.532 3.58461 10.5117 3.58281 10.5051C3.5695 10.4809 3.54888 10.4603 3.52273 10.4465C3.51656 10.4447 3.49526 10.4396 3.44665 10.4357C3.36307 10.429 3.25018 10.4286 3.06 10.4286H2.54C2.34982 10.4286 2.23693 10.429 2.15335 10.4357C2.10474 10.4396 2.08344 10.4447 2.07727 10.4465ZM3.58203 10.5025V10.5025ZM2.01797 11.926V11.926ZM12.4773 10.4465C12.4511 10.4603 12.4305 10.4809 12.4172 10.5051C12.4154 10.5117 12.4108 10.532 12.4072 10.5761C12.4004 10.6579 12.4 10.7688 12.4 10.9571V11.4714C12.4 11.6598 12.4004 11.7707 12.4072 11.8525C12.4108 11.8965 12.4154 11.9169 12.4172 11.9235C12.4305 11.9476 12.4511 11.9682 12.4773 11.9821C12.4834 11.9838 12.5047 11.9889 12.5534 11.9929C12.6369 11.9996 12.7498 12 12.94 12H13.46C13.6502 12 13.7631 11.9996 13.8466 11.9929C13.8953 11.9889 13.9166 11.9838 13.9227 11.9821C13.9489 11.9682 13.9695 11.9476 13.9828 11.9235C13.9846 11.9169 13.9892 11.8965 13.9928 11.8525C13.9996 11.7707 14 11.6598 14 11.4714V10.9571C14 10.7688 13.9996 10.6579 13.9928 10.5761C13.9892 10.532 13.9846 10.5117 13.9828 10.5051C13.9695 10.4809 13.9489 10.4603 13.9227 10.4465C13.9166 10.4447 13.8953 10.4396 13.8466 10.4357C13.7631 10.429 13.6502 10.4286 13.46 10.4286H12.94C12.7498 10.4286 12.6369 10.429 12.5534 10.4357C12.5047 10.4396 12.4834 10.4447 12.4773 10.4465ZM13.982 10.5025V10.5025ZM12.418 11.926V11.926Z" fill="black"/>
</svg>
