<svg width="16" height="16" viewBox="0 0 16 16" fill="none" xmlns="http://www.w3.org/2000/svg">
<path fill-rule="evenodd" clip-rule="evenodd" d="M12 2H4C2.89543 2 2 2.89543 2 4V12C2 13.1046 2.89543 14 4 14H12C13.1046 14 14 13.1046 14 12V4C14 2.89543 13.1046 2 12 2ZM4 1C2.34315 1 1 2.34315 1 4V12C1 13.6569 2.34315 15 4 15H12C13.6569 15 15 13.6569 15 12V4C15 2.34315 13.6569 1 12 1H4Z" fill="#000000"/>
<path d="M8.61207 5.17255C8.33519 4.44812 7.95256 4 7.5299 4C6.68496 4 6 5.79086 6 8C6 10.2091 6.68496 12 7.5299 12C8.22738 12 8.81584 10.7797 9 9.11111M8.98355 9.23863C9.05185 8.78326 8.99994 8 8.99994 7.5M8.99994 7.5L7.99994 8.5M8.99994 7.5L9.99994 8.5" stroke="#000000" stroke-linecap="round" stroke-linejoin="round"/>
</svg>
