<svg width="14" height="14" viewBox="0 0 14 14" xmlns="http://www.w3.org/2000/svg">
<path fill-rule="evenodd" clip-rule="evenodd" d="M4.59208 1.11135L5.23552 1.18602C5.2436 1.18695 5.25157 1.18788 5.25942 1.18879C5.41584 1.20692 5.52653 1.21975 5.62585 1.24037C6.65582 1.45425 7.40473 2.34603 7.49161 3.40321C7.50003 3.50573 7.50002 3.61932 7.5 3.78561L7.5 3.80884C7.5 4.08498 7.27614 4.30884 7 4.30884C6.72386 4.30884 6.5 4.08498 6.5 3.80884C6.5 3.61061 6.49958 3.5413 6.49497 3.4851C6.44227 2.84385 5.99345 2.33804 5.42253 2.21948C5.37279 2.20915 5.31011 2.20138 5.12025 2.17935L4.49605 2.10692C4.0197 2.05164 3.6896 2.01366 3.43147 2.00296C3.17755 1.99244 3.03653 2.01115 2.93306 2.04573C2.57677 2.16481 2.27801 2.43963 2.11928 2.81049C2.07135 2.92247 2.03709 3.07495 2.0188 3.34354C2.00027 3.61556 2 3.96515 2 4.46475V9.53529C2 10.0349 2.00027 10.3845 2.0188 10.6565C2.03709 10.9251 2.07135 11.0776 2.11927 11.1895C2.27801 11.5604 2.57677 11.8352 2.93306 11.9543C3.03652 11.9889 3.17755 12.0076 3.43147 11.9971C3.6896 11.9864 4.01971 11.9484 4.49605 11.8931L5.12025 11.8207C5.31005 11.7987 5.3728 11.7909 5.42252 11.7806C5.99344 11.662 6.44227 11.1562 6.49497 10.5149C6.49958 10.4587 6.5 10.3894 6.5 10.1912C6.5 9.91506 6.72386 9.69121 7 9.69121C7.27614 9.69121 7.5 9.91506 7.5 10.1912L7.5 10.2144C7.50002 10.3807 7.50003 10.4943 7.49161 10.5968C7.40473 11.654 6.65582 12.5458 5.62585 12.7597C5.52654 12.7803 5.41577 12.7931 5.25937 12.8113L4.59205 12.8887C4.13953 12.9412 3.77249 12.9838 3.47287 12.9962C3.16479 13.009 2.88512 12.9927 2.61609 12.9027C1.97904 12.6898 1.46683 12.2066 1.19994 11.583C1.08826 11.3221 1.04272 11.0418 1.02111 10.7244C0.999994 10.4144 0.999997 10.0307 1 9.55331V4.44673C0.999997 3.96932 0.999994 3.58561 1.02111 3.2756C1.04272 2.95827 1.08826 2.67794 1.19994 2.41701C1.46683 1.79345 1.97904 1.31021 2.61609 1.0973C2.88512 1.00739 3.16479 0.991055 3.47286 1.00382C3.77249 1.01624 4.13954 1.05883 4.59208 1.11135ZM9.09865 3.44769C9.2981 3.25672 9.61461 3.26359 9.80559 3.46304L12.8611 6.65423C13.0463 6.84758 13.0463 7.15246 12.8611 7.34582L9.80559 10.537C9.61461 10.7365 9.2981 10.7433 9.09865 10.5523C8.8992 10.3614 8.89232 10.0449 9.0833 9.84541L11.329 7.50002H5.16667C4.89053 7.50002 4.66667 7.27616 4.66667 7.00002C4.66667 6.72388 4.89053 6.50002 5.16667 6.50002H11.329L9.0833 4.15463C8.89232 3.95518 8.8992 3.63867 9.09865 3.44769Z"/>
</svg>
