<svg width="14" height="14" viewBox="0 0 14 14" xmlns="http://www.w3.org/2000/svg">
<path fill-rule="evenodd" clip-rule="evenodd" d="M7.03141 2.00284C7.01093 1.99905 6.9895 1.99905 6.96902 2.00284C6.96604 2.00365 6.95552 2.00695 6.93212 2.01719C6.89263 2.03445 6.84157 2.05997 6.75026 2.10596L5.85012 2.5593C5.60349 2.68351 5.30286 2.58426 5.17865 2.33763C5.05444 2.091 5.15368 1.79038 5.40031 1.66617L6.30046 1.21283C6.31181 1.20712 6.32323 1.20133 6.33473 1.19551C6.47254 1.12574 6.62125 1.05044 6.78546 1.01983C6.92726 0.993391 7.07317 0.993391 7.21497 1.01983C7.37918 1.05044 7.52789 1.12574 7.6657 1.19551C7.6772 1.20133 7.68862 1.20712 7.69997 1.21283L7.47507 1.6594L7.69997 1.21283L8.60012 1.66617C8.84675 1.79038 8.94599 2.091 8.82178 2.33763C8.69757 2.58426 8.39694 2.68351 8.15031 2.5593L7.25016 2.10596C7.15886 2.05997 7.1078 2.03445 7.06831 2.01719C7.04491 2.00695 7.03438 2.00365 7.03141 2.00284ZM10.6786 3.2728C10.8029 3.02617 11.1035 2.92693 11.3501 3.05114L12.2222 3.49034C12.2346 3.4966 12.2473 3.50292 12.26 3.50931C12.3665 3.56256 12.483 3.62083 12.5871 3.69776C12.737 3.72433 12.873 3.81882 12.9468 3.96529C13.0059 4.08275 13.0144 4.21247 12.9804 4.32954C13.0012 4.45052 13.0007 4.57005 13.0003 4.67206C13.0003 4.68561 13.0002 4.69884 13.0002 4.71174V5.57516C13.0002 5.8513 12.7764 6.07516 12.5002 6.07516C12.2241 6.07516 12.0002 5.8513 12.0002 5.57516V5.00183L11.3501 5.32923C11.1035 5.45344 10.8029 5.3542 10.6786 5.10757C10.5544 4.86094 10.6537 4.56032 10.9003 4.43611L11.3886 4.19019L10.9003 3.94427C10.6537 3.82006 10.5544 3.51943 10.6786 3.2728ZM3.32178 3.2728C3.44599 3.51943 3.34675 3.82006 3.10012 3.94427L2.61182 4.19019L3.10011 4.43611C3.34675 4.56032 3.44599 4.86094 3.32178 5.10757C3.19757 5.3542 2.89694 5.45344 2.65031 5.32923L2.00021 5.00183V5.57516C2.00021 5.8513 1.77636 6.07516 1.50021 6.07516C1.22407 6.07516 1.00021 5.8513 1.00021 5.57516V4.71174C1.00021 4.69885 1.00016 4.68561 1.00011 4.67206C0.999717 4.57005 0.999256 4.45052 1.02002 4.32954C0.986021 4.21247 0.99449 4.08275 1.05365 3.96529C1.12742 3.81882 1.2634 3.72433 1.41335 3.69776C1.51743 3.62083 1.63393 3.56256 1.74039 3.50931C1.75316 3.50292 1.76579 3.49661 1.77824 3.49034L1.77824 3.49034L2.65031 3.05114C2.89694 2.92693 3.19757 3.02617 3.32178 3.2728ZM5.17865 6.04274C5.30286 5.79611 5.60348 5.69687 5.85011 5.82108L7.00021 6.40029L8.15031 5.82108C8.39694 5.69687 8.69757 5.79611 8.82178 6.04274C8.94599 6.28937 8.84675 6.58999 8.60011 6.7142L7.50021 7.26814V8.34509C7.50021 8.62124 7.27636 8.84509 7.00021 8.84509C6.72407 8.84509 6.50021 8.62124 6.50021 8.34509V7.26814L5.40031 6.7142C5.15368 6.58999 5.05444 6.28937 5.17865 6.04274ZM1.50021 7.84509C1.77636 7.84509 2.00021 8.06895 2.00021 8.34509V9.20851C2.00021 9.30985 2.00047 9.36182 2.00297 9.39949C2.00334 9.40512 2.00373 9.40953 2.00406 9.41287C2.00548 9.41505 2.00743 9.41763 2.0101 9.42052C2.01366 9.42304 2.0223 9.42885 2.03896 9.43847C2.0778 9.46091 2.13153 9.48818 2.22804 9.53678L3.10012 9.97598C3.34675 10.1002 3.44599 10.4008 3.32178 10.6474C3.19757 10.8941 2.89694 10.9933 2.65031 10.8691L1.77824 10.4299C1.7658 10.4236 1.75317 10.4173 1.7404 10.4109C1.59734 10.3394 1.43612 10.2588 1.3113 10.136C1.2014 10.0279 1.11501 9.89648 1.0613 9.74911C0.99884 9.57775 0.999545 9.39486 1.00011 9.24819C1.00016 9.23464 1.00021 9.2214 1.00021 9.20851V8.34509C1.00021 8.06895 1.22407 7.84509 1.50021 7.84509ZM12.5002 7.84509C12.7764 7.84509 13.0002 8.06895 13.0002 8.34509V9.20851C13.0002 9.2214 13.0003 9.23464 13.0003 9.24819C13.0009 9.39487 13.0016 9.57775 12.9391 9.74911C12.8854 9.89647 12.799 10.0279 12.6891 10.136C12.5643 10.2588 12.4031 10.3394 12.26 10.4109C12.2473 10.4173 12.2346 10.4236 12.2222 10.4299L11.3501 10.8691C11.1035 10.9933 10.8029 10.8941 10.6786 10.6474C10.5544 10.4008 10.6537 10.1002 10.9003 9.97598L11.7724 9.53679C11.8689 9.48818 11.9226 9.46091 11.9615 9.43847C11.9781 9.42885 11.9868 9.42304 11.9903 9.42052C11.993 9.41763 11.995 9.41505 11.9964 9.41287C11.9967 9.40953 11.9971 9.40512 11.9975 9.39949C12 9.36182 12.0002 9.30985 12.0002 9.20851V8.34509C12.0002 8.06895 12.2241 7.84509 12.5002 7.84509ZM7.00021 10.615C7.27636 10.615 7.50021 10.8389 7.50021 11.115V11.6884L8.15031 11.361C8.39694 11.2367 8.69757 11.336 8.82178 11.5826C8.94599 11.8292 8.84675 12.1299 8.60012 12.2541L7.69997 12.7074C7.68862 12.7131 7.6772 12.7189 7.6657 12.7247C7.56297 12.7768 7.45417 12.8318 7.33741 12.8692C7.2485 12.9504 7.13015 13 7.00021 13C6.87028 13 6.75192 12.9504 6.66302 12.8692C6.54626 12.8318 6.43746 12.7768 6.33473 12.7247C6.32323 12.7189 6.31181 12.7131 6.30046 12.7074L5.40031 12.2541C5.15368 12.1299 5.05444 11.8292 5.17865 11.5826C5.30286 11.336 5.60348 11.2367 5.85012 11.361L6.50021 11.6884V11.115C6.50021 10.8389 6.72407 10.615 7.00021 10.615Z"/>
</svg>
