<svg width="15" height="15" viewBox="0 0 15 15" xmlns="http://www.w3.org/2000/svg">
<path fill-rule="evenodd" clip-rule="evenodd" d="M3.39939 2L3.68261 2C4.3355 2 4.85725 1.99999 5.27872 2.03586C5.7115 2.0727 6.08329 2.15001 6.42399 2.33084C6.86014 2.56233 7.22891 2.9024 7.5 3.31586C7.7711 2.9024 8.13986 2.56233 8.57602 2.33084C8.91671 2.15001 9.2885 2.0727 9.72129 2.03586C10.1428 1.99999 10.6645 2 11.3174 2L11.6006 2C11.9191 1.99999 12.1891 1.99998 12.4106 2.01883C12.6432 2.03864 12.8669 2.08189 13.0792 2.19459C13.4006 2.36518 13.6581 2.63529 13.8184 2.96281C13.9231 3.17691 13.9635 3.40211 13.9821 3.63991C14 3.86802 14 4.14708 14 4.48059V10.5194C14 10.8529 14 11.132 13.9821 11.3601C13.9635 11.5979 13.9231 11.8231 13.8184 12.0372C13.6581 12.3647 13.4006 12.6348 13.0792 12.8054C12.8669 12.9181 12.6432 12.9614 12.4106 12.9812C12.1891 13 11.9191 13 11.6006 13H3.3994C3.08093 13 2.8109 13 2.58944 12.9812C2.35676 12.9614 2.13315 12.9181 1.9208 12.8054C1.59941 12.6348 1.34185 12.3647 1.18165 12.0372C1.07692 11.8231 1.03653 11.5979 1.01788 11.3601C0.999988 11.132 0.999994 10.8529 1 10.5194V4.48059C0.999994 4.14708 0.999988 3.86802 1.01788 3.63991C1.03653 3.40211 1.07692 3.17691 1.18165 2.96281C1.34185 2.63529 1.59941 2.36518 1.9208 2.19459C2.13315 2.08189 2.35676 2.03864 2.58944 2.01883C2.8109 1.99998 3.08092 1.99999 3.39939 2ZM7 6.5C7 5.79201 6.99964 5.28989 6.96883 4.8971C6.93844 4.50958 6.88073 4.27171 6.78927 4.08472C6.60433 3.70664 6.31116 3.40307 5.95517 3.21413C5.78248 3.12247 5.56154 3.06355 5.19392 3.03226C4.81983 3.00042 4.34065 3 3.66 3H3.42C3.07538 3 2.84823 3.00042 2.67424 3.01523C2.50672 3.02949 2.43397 3.05435 2.38962 3.07789C2.25943 3.14699 2.14983 3.25933 2.07994 3.40221C2.05387 3.45551 2.02887 3.53902 2.01482 3.7181C2.00036 3.90245 2 4.14204 2 4.5V10.5C2 10.858 2.00036 11.0976 2.01482 11.2819C2.02887 11.461 2.05387 11.5445 2.07994 11.5978C2.14983 11.7407 2.25943 11.853 2.38962 11.9221C2.43397 11.9456 2.50672 11.9705 2.67424 11.9848C2.84823 11.9996 3.07538 12 3.42 12H7V6.5ZM8 12V6.5C8 5.79201 8.00036 5.28989 8.03117 4.8971C8.06156 4.50958 8.11927 4.27171 8.21073 4.08472C8.39567 3.70664 8.68885 3.40307 9.04483 3.21413C9.21753 3.12247 9.43846 3.06355 9.80609 3.03226C10.1802 3.00042 10.6593 3 11.34 3H11.58C11.9246 3 12.1518 3.00042 12.3258 3.01523C12.4933 3.02949 12.566 3.05435 12.6104 3.07789C12.7406 3.14699 12.8502 3.25933 12.9201 3.40221C12.9461 3.45551 12.9711 3.53902 12.9852 3.7181C12.9996 3.90245 13 4.14204 13 4.5V10.5C13 10.858 12.9996 11.0976 12.9852 11.2819C12.9711 11.461 12.9461 11.5445 12.9201 11.5978C12.8502 11.7407 12.7406 11.853 12.6104 11.9221C12.566 11.9456 12.4933 11.9705 12.3258 11.9848C12.1518 11.9996 11.9246 12 11.58 12H8Z"/>
</svg>
