<svg width="15" height="15" viewBox="0 0 15 15" xmlns="http://www.w3.org/2000/svg">
<path fill-rule="evenodd" clip-rule="evenodd" d="M2.02242 7H4.62271C4.74865 5.24014 5.35298 3.5526 6.36366 2.11753C4.02996 2.60775 2.24073 4.57739 2.02242 7ZM7.5 2.26892C6.4169 3.62275 5.76365 5.27088 5.62556 7H9.37444C9.23635 5.27088 8.58309 3.62275 7.5 2.26892ZM9.37444 8C9.23635 9.72912 8.5831 11.3773 7.5 12.7311C6.4169 11.3773 5.76365 9.72912 5.62556 8H9.37444ZM4.62271 8H2.02242C2.24073 10.4226 4.02996 12.3923 6.36366 12.8825C5.35298 11.4474 4.74865 9.75986 4.62271 8ZM8.63634 12.8825C9.64702 11.4474 10.2514 9.75986 10.3773 8H12.9776C12.7593 10.4226 10.97 12.3922 8.63634 12.8825ZM12.9776 7H10.3773C10.2514 5.24014 9.64702 3.5526 8.63634 2.11753C10.97 2.60775 12.7593 4.57739 12.9776 7ZM1 7.5C1 3.91015 3.91015 1 7.5 1C11.0899 1 14 3.91015 14 7.5C14 11.0899 11.0899 14 7.5 14C3.91015 14 1 11.0899 1 7.5Z"/>
</svg>
