<svg width="16" height="16" viewBox="0 0 16 16" xmlns="http://www.w3.org/2000/svg">
<path fill-rule="evenodd" clip-rule="evenodd" d="M2 4L2 12C2 13.1046 2.89543 14 4 14H8C9.10457 14 10 13.1046 10 12V4C10 2.89543 9.10457 2 8 2H4C2.89543 2 2 2.89543 2 4ZM1 12C1 13.6569 2.34315 15 4 15H8C9.65685 15 11 13.6569 11 12V4C11 2.34315 9.65685 1 8 1H4C2.34315 1 1 2.34315 1 4L1 12Z" fill="#000000"/>
<path fill-rule="evenodd" clip-rule="evenodd" d="M13 3.5V12.5C13 12.7761 13.2239 13 13.5 13C13.7761 13 14 12.7761 14 12.5V3.5C14 3.22386 13.7761 3 13.5 3C13.2239 3 13 3.22386 13 3.5ZM12 12.5C12 13.3284 12.6716 14 13.5 14C14.3284 14 15 13.3284 15 12.5V3.5C15 2.67157 14.3284 2 13.5 2C12.6716 2 12 2.67157 12 3.5V12.5Z" fill="#000000"/>
</svg>
