<svg width="14" height="14" viewBox="0 0 14 14" xmlns="http://www.w3.org/2000/svg">
<path fill-rule="evenodd" clip-rule="evenodd" d="M1 1.5C1 1.22386 1.22386 1 1.5 1H12.5C12.7761 1 13 1.22386 13 1.5C13 1.77614 12.7761 2 12.5 2H12.45V6.53045C12.45 7.02743 12.45 7.42779 12.4262 7.75191C12.4017 8.08468 12.3501 8.37837 12.2247 8.65184C12.0256 9.08592 11.7034 9.44877 11.2954 9.67973C11.0323 9.82868 10.7495 9.88923 10.4389 9.91742C10.1411 9.94446 9.77546 9.94445 9.33285 9.94444H8.27522C8.3318 9.99617 8.391 10.051 8.45309 10.1085L10.6397 12.1331C10.8423 12.3207 10.8545 12.6371 10.6669 12.8397C10.4793 13.0423 10.1629 13.0545 9.9603 12.8669L7.78702 10.8546C7.67154 10.7477 7.57865 10.6618 7.5 10.5917V12.5C7.5 12.7761 7.27614 13 7 13C6.72386 13 6.5 12.7761 6.5 12.5V10.5917C6.42135 10.6618 6.32846 10.7477 6.21298 10.8546L4.0397 12.8669C3.83708 13.0545 3.52073 13.0423 3.33312 12.8397C3.14551 12.6371 3.15767 12.3207 3.3603 12.1331L5.54691 10.1085C5.609 10.051 5.6682 9.99617 5.72478 9.94444H4.66715C4.22455 9.94445 3.85894 9.94446 3.56108 9.91742C3.25051 9.88923 2.96768 9.82868 2.70458 9.67973C2.29662 9.44877 1.9744 9.08592 1.77535 8.65184C1.64994 8.37837 1.5983 8.08468 1.57383 7.75191C1.54999 7.42779 1.55 7.02742 1.55 6.53044L1.55 2H1.5C1.22386 2 1 1.77614 1 1.5ZM2.55 2V6.51111C2.55 7.03193 2.55032 7.39546 2.57113 7.67857C2.59162 7.95722 2.6299 8.11631 2.68433 8.23501C2.80166 8.49086 2.98427 8.68894 3.19725 8.80951C3.2871 8.86038 3.41177 8.89975 3.65149 8.92151C3.89879 8.94396 4.2188 8.94444 4.69 8.94444H9.31C9.7812 8.94444 10.1012 8.94396 10.3485 8.92151C10.5882 8.89975 10.7129 8.86038 10.8028 8.80951C11.0157 8.68894 11.1983 8.49086 11.3157 8.23501C11.3701 8.11631 11.4084 7.95722 11.4289 7.67857C11.4497 7.39546 11.45 7.03193 11.45 6.51111V2H2.55ZM9.2 3.44444C9.47614 3.44444 9.7 3.6683 9.7 3.94444V7C9.7 7.27614 9.47614 7.5 9.2 7.5C8.92386 7.5 8.7 7.27614 8.7 7V3.94444C8.7 3.6683 8.92386 3.44444 9.2 3.44444ZM7 4.66667C7.27614 4.66667 7.5 4.89052 7.5 5.16667V7C7.5 7.27614 7.27614 7.5 7 7.5C6.72386 7.5 6.5 7.27614 6.5 7V5.16667C6.5 4.89052 6.72386 4.66667 7 4.66667ZM4.8 5.88889C5.07614 5.88889 5.3 6.11275 5.3 6.38889V7C5.3 7.27614 5.07614 7.5 4.8 7.5C4.52386 7.5 4.3 7.27614 4.3 7V6.38889C4.3 6.11275 4.52386 5.88889 4.8 5.88889Z"/>
</svg>
