<svg width="16" height="16" viewBox="0 0 16 16" fill="none" xmlns="http://www.w3.org/2000/svg">
<path fill-rule="evenodd" clip-rule="evenodd" d="M11.0008 5.98243C11.0008 4.52297 9.86197 2.98505 8.00482 3.00011C6.1337 3.01529 5 4.53157 5 5.98243V6.98297C5.12966 6.9823 5.26689 6.9823 5.41215 6.9823H10.5878C10.7334 6.9823 10.8709 6.9823 11.0008 6.98298V5.98243ZM12.0008 7.02849V5.98243C12.0008 4.06682 10.5037 1.97981 7.99671 2.00015C5.50369 2.02037 4 4.05821 4 5.98243V7.02839C3.73849 7.06172 3.49931 7.12183 3.27402 7.23662C2.83498 7.46033 2.47802 7.81728 2.25432 8.25633C2.11251 8.53465 2.05414 8.83416 2.02664 9.17079C1.99999 9.49695 1.99999 9.89905 2 10.3944V10.5702C1.99999 11.0656 1.99999 11.4677 2.02664 11.7938C2.05414 12.1305 2.11251 12.43 2.25432 12.7083C2.47802 13.1473 2.83498 13.5043 3.27402 13.728C3.55234 13.8698 3.85186 13.9282 4.18849 13.9557C4.51464 13.9823 4.91674 13.9823 5.41213 13.9823H10.5879C11.0833 13.9823 11.4854 13.9823 11.8115 13.9557C12.1481 13.9282 12.4477 13.8698 12.726 13.728C13.165 13.5043 13.522 13.1473 13.7457 12.7083C13.8875 12.43 13.9459 12.1305 13.9734 11.7938C14 11.4677 14 11.0656 14 10.5702V10.3944C14 9.89905 14 9.49695 13.9734 9.17079C13.9459 8.83416 13.8875 8.53465 13.7457 8.25633C13.522 7.81728 13.165 7.46033 12.726 7.23662C12.5009 7.12194 12.262 7.06183 12.0008 7.02849ZM11.4717 7.99111C11.4784 7.99149 11.4852 7.99174 11.4919 7.99186C11.5778 7.99517 11.6567 7.99962 11.7301 8.00562C12.0049 8.02807 12.1581 8.06962 12.272 8.12763C12.5229 8.25546 12.7268 8.45943 12.8547 8.71032C12.9127 8.82417 12.9542 8.97743 12.9767 9.25222C12.9996 9.53285 13 9.89401 13 10.4156V10.549C13 11.0706 12.9996 11.4318 12.9767 11.7124C12.9542 11.9872 12.9127 12.1404 12.8547 12.2543C12.7268 12.5052 12.5229 12.7092 12.272 12.837C12.1581 12.895 12.0049 12.9365 11.7301 12.959C11.4495 12.9819 11.0883 12.9823 10.5667 12.9823H5.43333C4.9117 12.9823 4.55055 12.9819 4.26992 12.959C3.99513 12.9365 3.84186 12.895 3.72801 12.837C3.47713 12.7092 3.27316 12.5052 3.14532 12.2543C3.08731 12.1404 3.04577 11.9872 3.02332 11.7124C3.00039 11.4318 3 11.0706 3 10.549V10.4156C3 9.89401 3.00039 9.53285 3.02332 9.25222C3.04577 8.97743 3.08731 8.82417 3.14532 8.71032C3.27316 8.45943 3.47713 8.25546 3.72801 8.12763C3.84186 8.06962 3.99513 8.02807 4.26992 8.00562C4.34414 7.99956 4.42399 7.99507 4.51096 7.99175C4.51621 7.99164 4.52145 7.99144 4.52666 7.99117C4.76563 7.98251 5.05792 7.9823 5.43333 7.9823H10.5667C10.9412 7.9823 11.233 7.9825 11.4717 7.99111Z" fill="black"/>
</svg>
