<svg width="15" height="15" viewBox="0 0 15 15" xmlns="http://www.w3.org/2000/svg">
<path fill-rule="evenodd" clip-rule="evenodd" d="M8.25 2.02701C8.11243 2.00239 7.9368 2.00002 7.50736 2.00002H5.5C4.96703 2.00002 4.59617 2.00038 4.3076 2.02301C4.0243 2.04523 3.86361 2.08659 3.74347 2.14536C3.48299 2.27277 3.27503 2.47416 3.14601 2.71725C3.08841 2.82577 3.04652 2.97261 3.02374 3.24018C3.00042 3.51422 3 3.86738 3 4.38002V10.62C3 11.1327 3.00042 11.4858 3.02374 11.7599C3.04652 12.0274 3.08841 12.1743 3.14601 12.2828C3.27503 12.5259 3.48299 12.7273 3.74347 12.8547C3.86361 12.9135 4.0243 12.9548 4.3076 12.977C4.59617 12.9997 4.96703 13 5.5 13H9.5C10.033 13 10.4038 12.9997 10.6924 12.977C10.9757 12.9548 11.1364 12.9135 11.2565 12.8547C11.517 12.7273 11.725 12.5259 11.854 12.2828C11.9116 12.1743 11.9535 12.0274 11.9763 11.7599C11.9996 11.4858 12 11.1327 12 10.62V6.29296C12 5.88831 11.9974 5.72393 11.9747 5.60006L9.73333 5.60006C9.57265 5.60008 9.42444 5.60009 9.30041 5.59036C9.16683 5.57988 9.01881 5.55584 8.87156 5.48381C8.66163 5.38113 8.48714 5.21537 8.37647 5.00687C8.29783 4.85869 8.27161 4.70918 8.26032 4.57654C8.24997 4.45498 8.24999 4.31046 8.25 4.15747L8.25 2.02701ZM8.94027 1.19922C8.80603 1.14128 8.66646 1.09551 8.52335 1.06253C8.25122 0.999809 7.96802 0.999891 7.56178 1.00001C7.54388 1.00002 7.52574 1.00002 7.50736 1.00002L5.4795 1.00002C4.97185 1.00002 4.56169 1.00001 4.22941 1.02608C3.88739 1.0529 3.58501 1.10964 3.30407 1.24706C2.85894 1.46479 2.49322 1.81414 2.26271 2.24843C2.11595 2.52495 2.05567 2.82265 2.02735 3.15538C1.99999 3.47683 1.99999 3.87267 2 4.35811V10.6419C1.99999 11.1274 1.99999 11.5232 2.02735 11.8447C2.05567 12.1774 2.11595 12.4751 2.26271 12.7516C2.49322 13.1859 2.85894 13.5352 3.30407 13.753C3.58501 13.8904 3.88739 13.9471 4.22941 13.974C4.56168 14 4.97182 14 5.47944 14H9.52056C10.0282 14 10.4383 14 10.7706 13.974C11.1126 13.9471 11.415 13.8904 11.6959 13.753C12.1411 13.5352 12.5068 13.1859 12.7373 12.7516C12.8841 12.4751 12.9443 12.1774 12.9727 11.8447C13 11.5232 13 11.1274 13 10.642V6.29296C13 6.27402 13 6.25534 13 6.2369C13.0002 5.85076 13.0003 5.57207 12.9333 5.3041C12.8982 5.16383 12.8496 5.02747 12.7885 4.89672C12.7854 4.88977 12.7822 4.88291 12.7788 4.87613C12.7392 4.79368 12.6946 4.71352 12.6452 4.63608C12.4965 4.40321 12.2934 4.20835 12.0081 3.9347C11.9948 3.92191 11.9813 3.90894 11.9676 3.89579L9.97495 1.98286C9.96172 1.97016 9.94867 1.95762 9.93579 1.94525C9.64929 1.67004 9.44712 1.47583 9.20656 1.33431C9.12668 1.28732 9.04418 1.24503 8.9595 1.20761C8.95316 1.20469 8.94675 1.20188 8.94027 1.19922ZM9.25 2.67314V4.14006C9.25 4.31667 9.25042 4.41781 9.25672 4.49174C9.2592 4.5209 9.26207 4.53721 9.26368 4.54473C9.27288 4.55904 9.28732 4.57319 9.30756 4.5838C9.3139 4.58547 9.33419 4.58994 9.3786 4.59342C9.45873 4.59971 9.56706 4.60006 9.75 4.60006H11.2572L9.28241 2.70425C9.27138 2.69365 9.26057 2.68328 9.25 2.67314ZM5 7.50002C5 7.22388 5.22386 7.00002 5.5 7.00002H9.5C9.77614 7.00002 10 7.22388 10 7.50002C10 7.77616 9.77614 8.00002 9.5 8.00002H5.5C5.22386 8.00002 5 7.77616 5 7.50002ZM5 10.5C5 10.2239 5.22386 10 5.5 10H9.5C9.77614 10 10 10.2239 10 10.5C10 10.7762 9.77614 11 9.5 11H5.5C5.22386 11 5 10.7762 5 10.5Z"/>
</svg>
