<svg width="15" height="15" viewBox="0 0 15 15" xmlns="http://www.w3.org/2000/svg">
<path fill-rule="evenodd" clip-rule="evenodd" d="M7.50013 2C4.46258 1.99993 2 4.4624 2 7.5C2 10.5376 4.46258 13.0001 7.50013 13C10.5376 12.9999 13 10.5376 13 7.50003C13 4.46249 10.5376 2.00007 7.50013 2ZM1 7.5C1 3.9101 3.91032 0.999916 7.50015 1C11.0899 1.00008 14 3.91022 14 7.50004C14 11.0898 11.0899 13.9999 7.50015 14C3.91032 14.0001 1 11.0899 1 7.5ZM8.70841 5.78578C8.70841 5.27295 9.12414 4.85721 9.63698 4.85721C10.1498 4.85721 10.5655 5.27295 10.5655 5.78578C10.5655 6.29861 10.1498 6.71435 9.63698 6.71435C9.12414 6.71435 8.70841 6.29861 8.70841 5.78578ZM4.42856 5.78581C4.42856 5.27299 4.84428 4.85724 5.35712 4.85724C5.86996 4.85724 6.28569 5.27299 6.28569 5.78581C6.28569 6.29864 5.86996 6.71439 5.35712 6.71439C4.84428 6.71439 4.42856 6.29864 4.42856 5.78581ZM4.70494 8.76675C4.95193 8.64326 5.25227 8.74337 5.37576 8.99036L4.9288 9.21384C5.37576 8.99036 5.37584 8.99052 5.37576 8.99036L5.37977 8.99793C5.3843 9.00642 5.39199 9.02057 5.40284 9.03956C5.42459 9.07761 5.45877 9.13471 5.50528 9.20448C5.59887 9.34486 5.73927 9.53188 5.92495 9.71756C6.29901 10.0916 6.82218 10.4283 7.49993 10.4283C8.17767 10.4283 8.70084 10.0916 9.07491 9.71756C9.26059 9.53188 9.40098 9.34486 9.49457 9.20448C9.54109 9.13471 9.57527 9.07761 9.59701 9.03956C9.60786 9.02057 9.61556 9.00642 9.62009 8.99793L9.62441 8.98974C9.748 8.74299 10.048 8.64331 10.2949 8.76675C10.5419 8.89024 10.642 9.19058 10.5185 9.43757L10.0713 9.21397C10.5185 9.43757 10.5186 9.43738 10.5185 9.43757L10.5177 9.43929L10.5165 9.44164L10.5131 9.4482L10.5024 9.46851C10.4936 9.48513 10.4812 9.50781 10.4653 9.53569C10.4334 9.59139 10.3873 9.66823 10.3266 9.75917C10.2059 9.94021 10.0249 10.1818 9.78202 10.4247C9.29896 10.9077 8.53644 11.4283 7.49993 11.4283C6.46342 11.4283 5.7009 10.9077 5.21783 10.4247C4.97495 10.1818 4.79392 9.94021 4.67323 9.75917C4.6126 9.66823 4.56642 9.59139 4.5346 9.53569C4.51867 9.50781 4.50627 9.48513 4.49741 9.46851L4.48674 9.4482L4.48338 9.44164L4.48219 9.43929L4.48172 9.43835C4.48163 9.43816 4.48133 9.43757 4.91626 9.22011L4.48172 9.43835C4.35823 9.19136 4.45795 8.89024 4.70494 8.76675ZM9.62489 8.98878C9.62517 8.98824 9.62489 8.98878 9.62489 8.98878Z" fill="#000"/>
</svg>
