<svg width="14" height="14" viewBox="0 0 14 14"  xmlns="http://www.w3.org/2000/svg">
<path fill-rule="evenodd" clip-rule="evenodd" d="M7 2C4.23858 2 2 4.23858 2 7C2 9.76142 4.23858 12 7 12C9.76142 12 12 9.76142 12 7C12 4.23858 9.76142 2 7 2ZM1 7C1 3.68629 3.68629 1 7 1C10.3137 1 13 3.68629 13 7C13 10.3137 10.3137 13 7 13C3.68629 13 1 10.3137 1 7ZM4.575 5.35C4.575 4.92198 4.92198 4.575 5.35 4.575C5.77802 4.575 6.125 4.92198 6.125 5.35C6.125 5.77802 5.77802 6.125 5.35 6.125C4.92198 6.125 4.575 5.77802 4.575 5.35ZM7.875 5.35C7.875 4.92198 8.22198 4.575 8.65 4.575C9.07802 4.575 9.425 4.92198 9.425 5.35C9.425 5.77802 9.07802 6.125 8.65 6.125C8.22198 6.125 7.875 5.77802 7.875 5.35ZM5.19977 7.7997C5.19977 7.7997 5.19978 7.7997 5.19977 7.7997L5.1987 7.79828L5.20162 7.802C5.20518 7.80649 5.2117 7.81461 5.22112 7.82583C5.23999 7.84831 5.27027 7.88302 5.31139 7.92592C5.39402 8.01215 5.51797 8.12891 5.67846 8.24563C6.00137 8.48047 6.45027 8.7 7 8.7C7.54973 8.7 7.99863 8.48047 8.32154 8.24563C8.48203 8.12891 8.60598 8.01215 8.68862 7.92592C8.72973 7.88302 8.76001 7.84831 8.77888 7.82583C8.7883 7.81461 8.79482 7.80649 8.79838 7.802L8.8013 7.79828L8.80043 7.79942M5.1987 7.79828C5.03265 7.57897 4.72029 7.53478 4.5 7.7C4.27909 7.86569 4.23431 8.17909 4.4 8.4L4.8 8.1C4.4 8.4 4.39988 8.39984 4.4 8.4L4.4011 8.40146L4.40251 8.40332L4.40627 8.40824L4.41758 8.42271C4.42678 8.43433 4.43932 8.44985 4.45515 8.4687C4.48676 8.50637 4.53168 8.5576 4.5894 8.61783C4.70442 8.73785 4.87265 8.89609 5.09029 9.05437C5.52363 9.36953 6.17473 9.7 7 9.7C7.82527 9.7 8.47637 9.36953 8.90971 9.05437C9.12735 8.89609 9.29558 8.73785 9.4106 8.61783C9.46832 8.5576 9.51324 8.50637 9.54485 8.4687C9.56068 8.44985 9.57322 8.43433 9.58242 8.42271L9.59373 8.40824L9.59749 8.40332L9.5989 8.40146L9.59976 8.40033C9.59988 8.40016 9.6 8.4 9.2 8.1L9.59976 8.40033C9.76544 8.17941 9.72091 7.86569 9.5 7.7C9.27971 7.53478 8.96735 7.57897 8.8013 7.79828M5.1987 7.79828L5.19977 7.7997C5.19977 7.7997 5.19978 7.7997 5.19977 7.7997" />
</svg>
