<svg width="16" height="16" viewBox="0 0 16 16" xmlns="http://www.w3.org/2000/svg">
<path d="M7.39115 0.733267C7.58677 0.317581 7.68458 0.109738 7.81736 0.0433324C7.93289 -0.0144441 8.06711 -0.0144441 8.18264 0.0433324C8.31542 0.109738 8.41323 0.317581 8.60885 0.733267L10.4648 4.67698C10.5225 4.7997 10.5514 4.86106 10.5936 4.9087C10.631 4.95088 10.6758 4.98506 10.7255 5.00934C10.7818 5.03676 10.8463 5.04666 10.9754 5.06645L15.1268 5.70291C15.564 5.76993 15.7825 5.80344 15.8837 5.91544C15.9717 6.01288 16.0131 6.14677 15.9963 6.27984C15.9771 6.43279 15.8188 6.59446 15.5024 6.91779L12.4995 9.98558C12.4059 10.0812 12.3591 10.129 12.3289 10.1859C12.3022 10.2363 12.285 10.2916 12.2784 10.3489C12.2709 10.4135 12.282 10.4811 12.304 10.6161L13.0126 14.9493C13.0873 15.4063 13.1247 15.6348 13.0545 15.7704C12.9934 15.8884 12.8848 15.9711 12.7589 15.9956C12.6142 16.0237 12.4186 15.9158 12.0273 15.7L8.31604 13.6528C8.2004 13.589 8.14258 13.5571 8.08167 13.5446C8.02774 13.5335 7.97226 13.5335 7.91833 13.5446C7.85742 13.5571 7.7996 13.589 7.68396 13.6528L3.97268 15.7C3.5814 15.9158 3.38576 16.0237 3.24111 15.9956C3.11525 15.9711 3.00664 15.8884 2.94555 15.7704C2.87533 15.6348 2.91269 15.4063 2.98742 14.9493L3.69596 10.6161C3.71805 10.4811 3.72909 10.4135 3.72162 10.3489C3.715 10.2916 3.69784 10.2363 3.6711 10.1859C3.6409 10.129 3.5941 10.0812 3.50049 9.98558L0.497647 6.91779C0.181157 6.59446 0.0229124 6.43279 0.00365595 6.27984C-0.0130982 6.14677 0.0282924 6.01288 0.116304 5.91544C0.21746 5.80344 0.436039 5.76993 0.873199 5.70291L5.02459 5.06645C5.15369 5.04666 5.21824 5.03676 5.27446 5.00934C5.32423 4.98506 5.36905 4.95088 5.40641 4.9087C5.44861 4.86106 5.47749 4.7997 5.53524 4.67698L7.39115 0.733267Z"/>
</svg>
