<svg width="14" height="14" viewBox="0 0 14 14" xmlns="http://www.w3.org/2000/svg">
<path fill-rule="evenodd" clip-rule="evenodd" d="M5.02136 1H8.44923C8.87715 0.999995 9.22686 0.999991 9.51103 1.02192C9.80463 1.04457 10.0707 1.09287 10.3202 1.21294C10.7106 1.40081 11.0334 1.70322 11.2375 2.08161C11.3698 2.32673 11.4226 2.5883 11.4471 2.87171C11.4706 3.1435 11.4706 3.47672 11.4706 3.87832V6.75C11.4706 7.02614 11.2467 7.25 10.9706 7.25C10.6944 7.25 10.4706 7.02614 10.4706 6.75V3.9C10.4706 3.47123 10.4702 3.18148 10.4508 2.9579C10.4321 2.74105 10.3983 2.63217 10.3574 2.55642C10.257 2.37032 10.0939 2.21379 9.88659 2.11404C9.79636 2.07062 9.67018 2.03717 9.43409 2.01895C9.19296 2.00035 8.88196 2 8.42941 2H5.04118C4.58863 2 4.27763 2.00035 4.03649 2.01895C3.80041 2.03717 3.67423 2.07062 3.584 2.11404C3.37672 2.21379 3.21355 2.37032 3.11315 2.55642C3.07229 2.63217 3.03854 2.74105 3.01978 2.9579C3.00044 3.18148 3 3.47123 3 3.9V10.1C3 10.5288 3.00044 10.8185 3.01978 11.0421C3.03854 11.259 3.07229 11.3678 3.11315 11.4436C3.21355 11.6297 3.37672 11.7862 3.584 11.886C3.67423 11.9294 3.80041 11.9628 4.03649 11.981C4.27763 11.9997 4.58863 12 5.04118 12H6.73529C7.01144 12 7.23529 12.2239 7.23529 12.5C7.23529 12.7761 7.01144 13 6.73529 13H5.02136C4.59344 13 4.24373 13 3.95956 12.9781C3.66596 12.9554 3.3999 12.9071 3.15038 12.7871C2.75998 12.5992 2.4372 12.2968 2.23306 11.9184C2.10082 11.6733 2.04802 11.4117 2.0235 11.1283C1.99999 10.8565 1.99999 10.5233 2 10.1217V3.87833C1.99999 3.47672 1.99999 3.14351 2.0235 2.87171C2.04802 2.5883 2.10082 2.32673 2.23306 2.08161C2.4372 1.70323 2.75998 1.40081 3.15038 1.21294C3.3999 1.09287 3.66596 1.04457 3.95956 1.02192C4.24373 0.999991 4.59344 0.999995 5.02136 1ZM4.11765 4C4.11765 3.72386 4.34151 3.5 4.61765 3.5H8.85294C9.12908 3.5 9.35294 3.72386 9.35294 4C9.35294 4.27614 9.12908 4.5 8.85294 4.5H4.61765C4.34151 4.5 4.11765 4.27614 4.11765 4ZM4.11765 6C4.11765 5.72386 4.34151 5.5 4.61765 5.5H7.79412C8.07026 5.5 8.29412 5.72386 8.29412 6C8.29412 6.27614 8.07026 6.5 7.79412 6.5H4.61765C4.34151 6.5 4.11765 6.27614 4.11765 6ZM4.11765 8C4.11765 7.72386 4.34151 7.5 4.61765 7.5H5.67647C5.95261 7.5 6.17647 7.72386 6.17647 8C6.17647 8.27614 5.95261 8.5 5.67647 8.5H4.61765C4.34151 8.5 4.11765 8.27614 4.11765 8ZM11.8635 9.40669C12.0531 9.60745 12.0441 9.9239 11.8433 10.1135L9.46096 12.3635C9.26826 12.5455 8.96703 12.5455 8.77434 12.3635L7.71551 11.3635C7.51475 11.1739 7.50571 10.8574 7.69532 10.6567C7.88492 10.4559 8.20138 10.4469 8.40214 10.6365L9.11765 11.3123L11.1567 9.38649C11.3574 9.19689 11.6739 9.20593 11.8635 9.40669Z"/>
</svg>
