<svg width="16" height="16" viewBox="0 0 16 16" xmlns="http://www.w3.org/2000/svg">
<path fill-rule="evenodd" clip-rule="evenodd" d="M12 2H4C2.89543 2 2 2.89543 2 4V12C2 13.1046 2.89543 14 4 14H12C13.1046 14 14 13.1046 14 12V4C14 2.89543 13.1046 2 12 2ZM4 1C2.34315 1 1 2.34315 1 4V12C1 13.6569 2.34315 15 4 15H12C13.6569 15 15 13.6569 15 12V4C15 2.34315 13.6569 1 12 1H4Z" fill="#000000"/>
<path fill-rule="evenodd" clip-rule="evenodd" d="M5.8867 3H10.1133C10.5139 2.99999 10.8526 2.99998 11.1301 3.02899C11.4241 3.05972 11.6973 3.12667 11.9499 3.29133C12.3328 3.54089 12.6236 3.9245 12.8002 4.36801C12.9104 4.64482 12.9565 4.94282 12.9784 5.28717C13 5.62476 13 6.04308 13 6.56865V9.43136C13 9.95692 13 10.3752 12.9784 10.7128C12.9565 11.0572 12.9104 11.3552 12.8002 11.632C12.6236 12.0755 12.3328 12.4591 11.9499 12.7087C11.6973 12.8733 11.4241 12.9403 11.1301 12.971C10.8526 13 10.5139 13 10.1133 13H5.88668C5.48613 13 5.14744 13 4.86992 12.971C4.57589 12.9403 4.3027 12.8733 4.05009 12.7087C3.66723 12.4591 3.37644 12.0755 3.1998 11.632C3.08955 11.3552 3.04355 11.0572 3.02156 10.7128C3 10.3753 3 9.95695 3 9.43141V6.56859C3 6.04305 3 5.62475 3.02156 5.28717C3.04355 4.94282 3.08955 4.64482 3.1998 4.36801C3.37644 3.9245 3.66723 3.54089 4.05009 3.29133C4.3027 3.12667 4.57589 3.05972 4.86992 3.02899C5.14745 2.99998 5.48615 2.99999 5.8867 3ZM4.97387 4.02357C4.76514 4.04538 4.66601 4.08354 4.59616 4.12907C4.41169 4.24931 4.24124 4.45577 4.12882 4.73803C4.07476 4.87377 4.03861 5.05206 4.01952 5.3509C4.00024 5.65285 4 6.0392 4 6.58572V9.41429C4 9.9608 4.00024 10.3472 4.01952 10.6491C4.03861 10.9479 4.07476 11.1262 4.12882 11.262C4.24124 11.5442 4.41169 11.7507 4.59616 11.8709C4.66601 11.9165 4.76514 11.9546 4.97387 11.9764C5.19328 11.9994 5.47937 12 5.91203 12H10.088C10.5206 12 10.8067 11.9994 11.0261 11.9764C11.2349 11.9546 11.334 11.9165 11.4038 11.8709C11.5883 11.7507 11.7588 11.5442 11.8712 11.262C11.9252 11.1262 11.9614 10.9479 11.9805 10.6491C11.9998 10.3472 12 9.9608 12 9.41429V6.58572C12 6.0392 11.9998 5.65285 11.9805 5.3509C11.9614 5.05206 11.9252 4.87377 11.8712 4.73803C11.7588 4.45577 11.5883 4.24931 11.4038 4.12907C11.334 4.08354 11.2349 4.04538 11.0261 4.02357C10.8067 4.00063 10.5206 4 10.088 4H5.91203C5.47937 4 5.19328 4.00063 4.97387 4.02357Z" fill="#000000"/>
</svg>
