<svg width="14" height="14" viewBox="0 0 14 14" xmlns="http://www.w3.org/2000/svg">
<path fill-rule="evenodd" clip-rule="evenodd" d="M6.25637 2.58857L3.10002 5.11364V10.6227C3.10002 10.959 3.10036 11.183 3.11355 11.3551C3.12635 11.5223 3.14902 11.5976 3.17108 11.6438C3.23298 11.7734 3.32879 11.8727 3.43939 11.9328C3.47205 11.9506 3.53112 11.9728 3.68095 11.9859C3.83764 11.9996 4.0432 12 4.36002 12H4.85002L4.85002 8.14257C4.85001 7.99214 4.85 7.85235 4.85897 7.73516C4.86865 7.60884 4.89094 7.46687 4.9588 7.32481C5.05509 7.12322 5.2117 6.95326 5.41156 6.84463C5.55538 6.76647 5.70006 6.7408 5.82537 6.72988C5.93914 6.71997 6.0737 6.71998 6.21283 6.72H7.78721C7.92634 6.71998 8.0609 6.71997 8.17467 6.72988C8.29998 6.7408 8.44466 6.76647 8.58848 6.84463C8.78834 6.95326 8.94495 7.12322 9.04124 7.32481C9.1091 7.46687 9.13139 7.60884 9.14107 7.73516C9.15004 7.85234 9.15003 7.99214 9.15002 8.14256L9.15002 12H9.64002C9.95684 12 10.1624 11.9996 10.3191 11.9859C10.4689 11.9728 10.528 11.9506 10.5606 11.9328C10.6713 11.8727 10.7671 11.7734 10.829 11.6438C10.851 11.5976 10.8737 11.5223 10.8865 11.3551C10.8997 11.183 10.9 10.959 10.9 10.6227V5.11365L7.74367 2.58857C7.54875 2.43263 7.42294 2.33237 7.32056 2.26191C7.2231 2.19485 7.17517 2.17521 7.14488 2.16671C7.04972 2.13999 6.95032 2.13999 6.85516 2.16671C6.82487 2.17521 6.77694 2.19485 6.67948 2.26191C6.5771 2.33237 6.45129 2.43263 6.25637 2.58857ZM11.9 5.91365V10.6415C11.9 10.954 11.9 11.2166 11.8836 11.4315C11.8664 11.6556 11.8291 11.8701 11.7313 12.0749C11.5823 12.3868 11.3415 12.6466 11.0382 12.8114C10.8355 12.9216 10.6229 12.9632 10.4059 12.9821C10.2006 13 9.95107 13 9.66067 13H4.33937C4.04897 13 3.79945 13 3.59413 12.9821C3.37711 12.9632 3.16451 12.9216 2.96187 12.8114C2.65852 12.6466 2.41777 12.3868 2.26874 12.0749C2.17091 11.8701 2.13364 11.6556 2.11647 11.4315C2.10001 11.2166 2.10001 10.954 2.10002 10.6415L2.10002 5.91364L1.81237 6.14377C1.59673 6.31627 1.28209 6.28131 1.10958 6.06568C0.937079 5.85005 0.97204 5.5354 1.18767 5.3629L5.6447 1.79727C5.65001 1.79303 5.65529 1.7888 5.66055 1.78459L6.17044 1.37669C6.25578 1.3084 6.33913 1.2417 6.41458 1.18978C6.49812 1.13229 6.59917 1.07323 6.72484 1.03794C6.90502 0.987352 7.09502 0.987352 7.2752 1.03794C7.40087 1.07323 7.50192 1.13229 7.58546 1.18978C7.6609 1.2417 7.74425 1.30839 7.82958 1.37667L8.32942 1.77654C8.33801 1.78341 8.34665 1.79032 8.35535 1.79728L11.7124 4.4829C11.7125 4.48301 11.7122 4.48279 11.7124 4.4829L12.8124 5.3629C13.028 5.5354 13.063 5.85005 12.8905 6.06568C12.7179 6.28131 12.4033 6.31627 12.1877 6.14377L11.9 5.91365ZM5.85002 12H8.15002V8.15867C8.15002 7.98664 8.14968 7.88583 8.14399 7.81153C8.14125 7.77583 8.13789 7.75773 8.13635 7.75085C8.13112 7.74129 8.12533 7.73452 8.12014 7.72987C8.1132 7.72878 8.10272 7.7274 8.08785 7.7261C8.02287 7.72044 7.93283 7.72 7.77002 7.72H6.23002C6.06721 7.72 5.97717 7.72044 5.91219 7.7261C5.89732 7.7274 5.88683 7.72878 5.8799 7.72987C5.87471 7.73452 5.86892 7.74129 5.86369 7.75085C5.86215 7.75774 5.85879 7.77583 5.85605 7.81153C5.85036 7.88583 5.85002 7.98664 5.85002 8.15867V12Z" />
</svg>
