<svg width="16" height="16" viewBox="0 0 16 16" xmlns="http://www.w3.org/2000/svg">
<path d="M14.1756 6.90413L3.84749 1.43493C3.12877 1.05439 2.29402 1.68921 2.46879 2.48356L3.31068 6.30906C3.35448 6.50798 3.46076 6.68767 3.61399 6.82186C3.76722 6.95605 3.95936 7.0377 4.16231 7.05488L9.53285 7.50974C9.82397 7.53441 9.82413 7.96038 9.53285 7.98521L4.16199 8.44072C3.95907 8.4579 3.76696 8.53956 3.61379 8.67376C3.46061 8.80795 3.3544 8.98765 3.31068 9.18655L2.46879 13.0114C2.29402 13.8054 3.12893 14.4404 3.84749 14.06L14.1754 8.59099C14.8524 8.23236 14.8524 7.2626 14.1756 6.90413Z"/>
</svg>
