<svg width="15" height="15" viewBox="0 0 15 15" xmlns="http://www.w3.org/2000/svg">
<path fill-rule="evenodd" clip-rule="evenodd" d="M4.6786 1H10.3214C10.8633 0.999995 11.3004 0.999991 11.6543 1.02891C12.0187 1.05868 12.3388 1.12159 12.635 1.27248C13.1054 1.51217 13.4878 1.89462 13.7275 2.36502C13.8784 2.66117 13.9413 2.98126 13.9711 3.34569C14 3.69963 14 4.1367 14 4.67858V10.3214C14 10.8633 14 11.3004 13.9711 11.6543C13.9413 12.0187 13.8784 12.3388 13.7275 12.635C13.4878 13.1054 13.1054 13.4878 12.635 13.7275C12.3388 13.8784 12.0187 13.9413 11.6543 13.9711C11.3004 14 10.8633 14 10.3214 14H4.67858C4.1367 14 3.69963 14 3.34569 13.9711C2.98126 13.9413 2.66117 13.8784 2.36502 13.7275C1.89462 13.4878 1.51217 13.1054 1.27248 12.635C1.12159 12.3388 1.05868 12.0187 1.02891 11.6543C0.999991 11.3004 0.999995 10.8633 1 10.3214V4.6786C0.999995 4.1367 0.999991 3.69963 1.02891 3.34569C1.05868 2.98126 1.12159 2.66117 1.27248 2.36502C1.51217 1.89462 1.89462 1.51217 2.36502 1.27248C2.66117 1.12159 2.98126 1.05868 3.34569 1.02891C3.69963 0.999991 4.1367 0.999995 4.6786 1ZM3.42712 2.02559C3.12454 2.05031 2.95069 2.0964 2.81901 2.16349C2.53677 2.3073 2.3073 2.53677 2.16349 2.81901C2.0964 2.95069 2.05031 3.12454 2.02559 3.42712C2.00039 3.73554 2 4.1317 2 4.7V10.3C2 10.8683 2.00039 11.2645 2.02559 11.5729C2.05031 11.8755 2.0964 12.0493 2.16349 12.181C2.3073 12.4632 2.53677 12.6927 2.81901 12.8365C2.95069 12.9036 3.12454 12.9497 3.42712 12.9744C3.73554 12.9996 4.1317 13 4.7 13H10.3C10.8683 13 11.2645 12.9996 11.5729 12.9744C11.8755 12.9497 12.0493 12.9036 12.181 12.8365C12.4632 12.6927 12.6927 12.4632 12.8365 12.181C12.9036 12.0493 12.9497 11.8755 12.9744 11.5729C12.9996 11.2645 13 10.8683 13 10.3V4.7C13 4.1317 12.9996 3.73554 12.9744 3.42712C12.9497 3.12454 12.9036 2.95069 12.8365 2.81901C12.6927 2.53677 12.4632 2.3073 12.181 2.16349C12.0493 2.0964 11.8755 2.05031 11.5729 2.02559C11.2645 2.00039 10.8683 2 10.3 2H4.7C4.1317 2 3.73554 2.00039 3.42712 2.02559Z"/>
<path fill-rule="evenodd" clip-rule="evenodd" d="M10.6069 4.05841C10.607 4.05845 10.6072 4.05849 10.5007 4.5438L10.6072 4.05849C10.8769 4.11769 11.0476 4.38434 10.9884 4.65406C10.9293 4.92312 10.6639 5.0936 10.3948 5.03567M10.3947 5.03565L10.3903 5.03476C10.385 5.03374 10.3756 5.03197 10.3624 5.02976C10.3359 5.02531 10.2947 5.01913 10.2418 5.01355C10.1351 5.0023 9.98615 4.99402 9.81905 5.00556C9.47608 5.02926 9.11555 5.13138 8.85588 5.39446C8.64559 5.60751 8.4872 5.91746 8.3575 6.32728C8.23757 6.70627 8.15468 7.12683 8.06513 7.58122C8.05751 7.61986 8.04985 7.65875 8.04211 7.69787C7.94642 8.18165 7.83906 8.70262 7.66537 9.17048C7.49078 9.64077 7.23369 10.102 6.80929 10.4361L6.80928 10.4361C6.31782 10.823 5.71146 10.9644 5.27015 11.0179C5.04322 11.0454 4.84417 11.0515 4.70105 11.0507C4.62919 11.0503 4.57064 11.0482 4.52879 11.046C4.50784 11.045 4.49102 11.0439 4.47873 11.043L4.46374 11.0419L4.45889 11.0415L4.45713 11.0414L4.45643 11.0413L4.45612 11.0413C4.45598 11.0413 4.45584 11.0413 4.50003 10.5432L4.45584 11.0413C4.18078 11.0168 3.97758 10.7741 4.00199 10.499C4.02636 10.2243 4.26847 10.0213 4.54304 10.0451C4.54322 10.0451 4.5434 10.0451 4.54358 10.0451C4.54371 10.0451 4.54384 10.0451 4.54397 10.0451C4.54397 10.0451 4.54397 10.0451 4.54397 10.0451L4.54374 10.0451L4.54926 10.0455C4.55532 10.046 4.5656 10.0466 4.5797 10.0473C4.60795 10.0488 4.65126 10.0504 4.70648 10.0507C4.8175 10.0513 4.97342 10.0465 5.1498 10.0252C5.51512 9.98087 5.90876 9.8723 6.19077 9.65033C6.41483 9.47396 6.58705 9.20183 6.72789 8.82245C6.86964 8.44062 6.96384 7.99563 7.06112 7.50383C7.06929 7.46249 7.0775 7.42078 7.08576 7.37876C7.17272 6.9367 7.26629 6.46106 7.4041 6.02557C7.55546 5.54729 7.7748 5.0662 8.14418 4.69197L8.14419 4.69196C8.64334 4.18627 9.28282 4.04022 9.75013 4.00794C9.98818 3.99149 10.1969 4.00327 10.3467 4.01907C10.422 4.02702 10.4836 4.03611 10.528 4.04356C10.5502 4.04729 10.5682 4.05063 10.5815 4.05322L10.598 4.05653L10.6035 4.05769L10.6056 4.05814L10.6065 4.05833L10.6069 4.05841"/>
</svg>
