<svg width="15" height="15" viewBox="0 0 15 15" xmlns="http://www.w3.org/2000/svg">
<path fill-rule="evenodd" clip-rule="evenodd" d="M7.9467 1.17202L7.5 1.54167L7.0533 1.17202C7.16888 1.0623 7.33064 1 7.5 1C7.66936 1 7.83112 1.0623 7.9467 1.17202ZM7.5 2.3456C7.45288 2.39207 7.40271 2.44173 7.3498 2.49434C6.98505 2.85701 6.49184 3.35801 5.97694 3.91218C5.4612 4.46727 4.92846 5.07061 4.48241 5.63872C4.02903 6.21617 3.69299 6.72271 3.53999 7.09123C3.33559 7.58358 3.22222 8.12365 3.22222 8.69167C3.22222 11.0748 5.19095 12.9167 7.5 12.9167C9.80905 12.9167 11.7778 11.0748 11.7778 8.69167C11.7778 8.12365 11.6644 7.58358 11.46 7.09123C11.307 6.72271 10.971 6.21617 10.5176 5.63872C10.0715 5.07061 9.5388 4.46727 9.02306 3.91218C8.50816 3.35801 8.01495 2.85701 7.6502 2.49434C7.59729 2.44173 7.54712 2.39207 7.5 2.3456ZM7.5 1.54167C7.0533 1.17202 7.05336 1.17197 7.0533 1.17202L7.04138 1.18338L7.00835 1.21496C6.97958 1.24254 6.93758 1.28295 6.88403 1.33484C6.77694 1.43861 6.62358 1.5884 6.43745 1.77346C6.06549 2.14331 5.5613 2.6554 5.03348 3.22349C4.5065 3.79067 3.95119 4.41877 3.47921 5.0199C3.01457 5.61169 2.6026 6.21218 2.39297 6.7171C2.13903 7.32875 2 7.99545 2 8.69167C2 11.5736 4.40893 14 7.5 14C10.5911 14 13 11.5736 13 8.69167C13 7.99545 12.861 7.32875 12.607 6.7171C12.3974 6.21218 11.9854 5.61169 11.5208 5.0199C11.0488 4.41877 10.4935 3.79067 9.96652 3.22349C9.43869 2.6554 8.93451 2.14331 8.56255 1.77346C8.37642 1.5884 8.22306 1.43861 8.11597 1.33484C8.06242 1.28295 8.02041 1.24254 7.99165 1.21496L7.95862 1.18338L7.94763 1.17291C7.94757 1.17285 7.9467 1.17202 7.5 1.54167Z"/>
</svg>
