<svg width="15" height="15" viewBox="0 0 15 15" xmlns="http://www.w3.org/2000/svg">
<path fill-rule="evenodd" clip-rule="evenodd" d="M6.83333 2C4.16396 2 2 4.16396 2 6.83333C2 9.50271 4.16396 11.6667 6.83333 11.6667C8.14041 11.6667 9.32631 11.1478 10.1963 10.3049C10.2113 10.2844 10.228 10.2649 10.2464 10.2464C10.2649 10.228 10.2844 10.2113 10.3049 10.1963C11.1478 9.32631 11.6667 8.14041 11.6667 6.83333C11.6667 4.16396 9.50271 2 6.83333 2ZM11.2966 10.5895C12.1515 9.57465 12.6667 8.26415 12.6667 6.83333C12.6667 3.61167 10.055 1 6.83333 1C3.61167 1 1 3.61167 1 6.83333C1 10.055 3.61167 12.6667 6.83333 12.6667C8.26415 12.6667 9.57465 12.1515 10.5895 11.2966L13.1464 13.8536C13.3417 14.0488 13.6583 14.0488 13.8536 13.8536C14.0488 13.6583 14.0488 13.3417 13.8536 13.1464L11.2966 10.5895Z"/>
</svg>
