<svg width="15" height="15" viewBox="0 0 15 15" xmlns="http://www.w3.org/2000/svg">
<path fill-rule="evenodd" clip-rule="evenodd" d="M5.1459 1H9.8541C10.3032 0.999994 10.6701 0.99999 10.9683 1.02411C11.2768 1.04906 11.5551 1.10224 11.8152 1.23342C12.2224 1.43886 12.5545 1.76716 12.7629 2.17211C12.8963 2.43126 12.9503 2.7087 12.9756 3.01516C13 3.31096 13 3.67478 13 4.1189V7.5C13 7.77614 12.7761 8 12.5 8C12.2239 8 12 7.77614 12 7.5V4.14C12 3.66962 11.9996 3.34721 11.979 3.09741C11.9589 2.85359 11.922 2.72353 11.8738 2.62973C11.7626 2.41374 11.5847 2.2372 11.3648 2.12626C11.2683 2.0776 11.1351 2.04086 10.8877 2.02085C10.6346 2.00038 10.3082 2 9.83333 2H5.16667C4.69179 2 4.3654 2.00038 4.11232 2.02085C3.86492 2.04086 3.73168 2.0776 3.6352 2.12626C3.41527 2.2372 3.23739 2.41374 3.12623 2.62973C3.07795 2.72353 3.04114 2.85359 3.02101 3.09741C3.0004 3.34721 3 3.66962 3 4.14V10.86C3 11.3304 3.0004 11.6528 3.02101 11.9026C3.04114 12.1464 3.07795 12.2765 3.12623 12.3703C3.23739 12.5863 3.41527 12.7628 3.6352 12.8737C3.73168 12.9224 3.86492 12.9591 4.11232 12.9791C4.3654 12.9996 4.69179 13 5.16667 13H6.66667C6.94281 13 7.16667 13.2239 7.16667 13.5C7.16667 13.7761 6.94281 14 6.66667 14H5.14589C4.69682 14 4.32986 14 4.03169 13.9759C3.72325 13.9509 3.44488 13.8978 3.18483 13.7666C2.77756 13.5611 2.4455 13.2328 2.23708 12.8279C2.1037 12.5687 2.04969 12.2913 2.0244 11.9848C1.99999 11.689 1.99999 11.3252 2 10.8811V4.1189C1.99999 3.67478 1.99999 3.31096 2.0244 3.01516C2.04969 2.7087 2.1037 2.43126 2.23708 2.17211C2.4455 1.76716 2.77756 1.43886 3.18483 1.23342C3.44488 1.10224 3.72325 1.04906 4.03169 1.02411C4.32987 0.99999 4.69683 0.999994 5.1459 1ZM9.27794 8.875C8.47545 8.875 7.8335 9.51772 7.8335 10.3C7.8335 11.0823 8.47545 11.725 9.27794 11.725C10.0804 11.725 10.7224 11.0823 10.7224 10.3C10.7224 9.51772 10.0804 8.875 9.27794 8.875ZM6.8335 10.3C6.8335 8.95598 7.93266 7.875 9.27794 7.875C10.6232 7.875 11.7224 8.95598 11.7224 10.3C11.7224 10.7899 11.5763 11.2449 11.3256 11.6253L12.8528 13.1457C13.0485 13.3405 13.0492 13.6571 12.8543 13.8528C12.6595 14.0485 12.3429 14.0492 12.1472 13.8543L10.6158 12.3297C10.2309 12.5798 9.77094 12.725 9.27794 12.725C7.93266 12.725 6.8335 11.644 6.8335 10.3Z"/>
</svg>
