<svg width="14" height="14" viewBox="0 0 14 14" xmlns="http://www.w3.org/2000/svg">
<path fill-rule="evenodd" clip-rule="evenodd" d="M2 7C2 4.21472 4.36909 2 7.23684 2C8.67527 2 9.98287 2.55449 10.932 3.45674C11.2878 3.79501 11.6705 4.21789 12 4.60107V3C12 2.72386 12.2239 2.5 12.5 2.5C12.7761 2.5 13 2.72386 13 3V6C13 6.27614 12.7761 6.5 12.5 6.5H9.34211C9.06596 6.5 8.84211 6.27614 8.84211 6C8.84211 5.72386 9.06596 5.5 9.34211 5.5H11.4515C11.0886 5.06774 10.6393 4.55828 10.243 4.1815C9.47746 3.45378 8.41568 3 7.23684 3C4.87242 3 3 4.81472 3 7C3 9.18528 4.87242 11 7.23684 11C9.18493 11 10.8064 9.76292 11.3101 8.10468C11.3904 7.84046 11.6696 7.69133 11.9339 7.77158C12.1981 7.85184 12.3472 8.1311 12.267 8.39532C11.6303 10.4914 9.6078 12 7.23684 12C4.36909 12 2 9.78528 2 7Z"/>
</svg>
