<svg width="14" height="14" viewBox="0 0 14 14" xmlns="http://www.w3.org/2000/svg">
<path fill-rule="evenodd" clip-rule="evenodd" d="M3.6875 4.27778C3.6875 2.46167 5.17643 1 7 1C8.5985 1 9.93773 2.12165 10.246 3.62156C10.3016 3.89205 10.1274 4.15639 9.8569 4.21199C9.58641 4.26758 9.32207 4.09337 9.26648 3.82288C9.05357 2.78697 8.12283 2 7 2C5.71697 2 4.6875 3.02563 4.6875 4.27778V5.44585C4.83941 5.44444 5.00306 5.44444 5.17925 5.44444H8.82075C9.27567 5.44444 9.64697 5.44443 9.94856 5.46877C10.2604 5.49393 10.5412 5.54753 10.8034 5.67947C11.2145 5.88634 11.5499 6.21705 11.7604 6.62522C11.8951 6.88626 11.9497 7.16589 11.9753 7.47523C12 7.77386 12 8.14121 12 8.58994V8.85451C12 9.30323 12 9.67059 11.9753 9.96922C11.9497 10.2786 11.8951 10.5582 11.7604 10.8192C11.5499 11.2274 11.2145 11.5581 10.8034 11.765C10.5412 11.8969 10.2604 11.9505 9.94856 11.9757C9.64697 12 9.27568 12 8.82077 12H5.17923C4.72432 12 4.35303 12 4.05144 11.9757C3.73961 11.9505 3.4588 11.8969 3.19663 11.765C2.78554 11.5581 2.45015 11.2274 2.23957 10.8192C2.10491 10.5582 2.05028 10.2786 2.02469 9.96922C1.99999 9.67059 1.99999 9.30323 2 8.8545V8.58994C1.99999 8.14121 1.99999 7.77386 2.02469 7.47523C2.05028 7.16589 2.10491 6.88626 2.23957 6.62522C2.45015 6.21705 2.78554 5.88634 3.19663 5.67947C3.35277 5.60089 3.51552 5.5501 3.6875 5.51656V4.27778ZM4.13187 6.46553C3.88091 6.48578 3.74496 6.52301 3.64615 6.57273C3.4222 6.68544 3.24128 6.86467 3.12828 7.0837C3.07902 7.17918 3.04168 7.31116 3.02129 7.55767C3.0004 7.8102 3 8.13605 3 8.61111V8.83333C3 9.3084 3.0004 9.63425 3.02129 9.88678C3.04168 10.1333 3.07902 10.2653 3.12828 10.3607C3.24128 10.5798 3.4222 10.759 3.64615 10.8717C3.74496 10.9214 3.88091 10.9587 4.13187 10.9789C4.38849 10.9996 4.71931 11 5.2 11H8.8C9.28069 11 9.61151 10.9996 9.86813 10.9789C10.1191 10.9587 10.255 10.9214 10.3538 10.8717C10.5778 10.759 10.7587 10.5798 10.8717 10.3607C10.921 10.2653 10.9583 10.1333 10.9787 9.88678C10.9996 9.63425 11 9.3084 11 8.83333V8.61111C11 8.13605 10.9996 7.8102 10.9787 7.55767C10.9583 7.31116 10.921 7.17918 10.8717 7.0837C10.7587 6.86467 10.5778 6.68544 10.3538 6.57273C10.255 6.52301 10.1191 6.48578 9.86813 6.46553C9.61151 6.44482 9.28069 6.44444 8.8 6.44444H5.2C4.71931 6.44444 4.38849 6.44482 4.13187 6.46553Z"/>
</svg>
