<svg width="14" height="14" viewBox="0 0 14 14" xmlns="http://www.w3.org/2000/svg">
<path fill-rule="evenodd" clip-rule="evenodd" d="M4.41214 1H9.58786C10.0833 0.999995 10.4854 0.99999 10.8115 1.02664C11.1481 1.05414 11.4477 1.11251 11.726 1.25432C12.165 1.47802 12.522 1.83498 12.7457 2.27402C12.8875 2.55234 12.9459 2.85186 12.9734 3.18849C13 3.51464 13 3.91674 13 4.41213V9.58787C13 10.0833 13 10.4854 12.9734 10.8115C12.9459 11.1481 12.8875 11.4477 12.7457 11.726C12.522 12.165 12.165 12.522 11.726 12.7457C11.4477 12.8875 11.1481 12.9459 10.8115 12.9734C10.4854 13 10.0833 13 9.58787 13H4.41213C4.39961 13 4.38715 13 4.37475 13L3.88254 13C3.71474 13 3.55685 13 3.43116 12.9889C3.42568 12.9884 3.41999 12.9879 3.4141 12.9873C3.33512 12.9838 3.25998 12.9792 3.18849 12.9734C2.85186 12.9459 2.55234 12.8875 2.27402 12.7457C1.83498 12.522 1.47802 12.165 1.25432 11.726C1.11251 11.4477 1.05414 11.1481 1.02664 10.8115C0.99999 10.4854 0.999995 10.0833 1 9.58786V4.41214C0.999995 3.91675 0.99999 3.51464 1.02664 3.18849C1.05414 2.85186 1.11251 2.55234 1.25432 2.27402C1.47802 1.83498 1.83498 1.47802 2.27402 1.25432C2.55234 1.11251 2.85186 1.05414 3.18849 1.02664C3.51464 0.99999 3.91675 0.999995 4.41214 1ZM3.9305 11.9988C4.07994 11.9999 4.24632 12 4.43333 12H9.56667C10.0883 12 10.4495 11.9996 10.7301 11.9767C11.0049 11.9542 11.1581 11.9127 11.272 11.8547C11.5229 11.7268 11.7268 11.5229 11.8547 11.272C11.9127 11.1581 11.9542 11.0049 11.9767 10.7301C11.9996 10.4495 12 10.0883 12 9.56667V9.04044L9.78228 6.82272C9.65544 6.69589 9.5813 6.62229 9.52255 6.57241C9.49493 6.54897 9.47943 6.53853 9.47323 6.5347C9.45437 6.52964 9.43452 6.52964 9.41566 6.5347C9.40946 6.53853 9.39395 6.54897 9.36634 6.57241C9.30758 6.6223 9.23344 6.69589 9.10661 6.82272L3.9305 11.9988ZM12 7.62623L10.4773 6.10356C10.3667 5.99293 10.2635 5.88965 10.1697 5.81007C10.0681 5.72383 9.94534 5.63648 9.7878 5.58529C9.56464 5.51278 9.32425 5.51278 9.10109 5.58529C8.94355 5.63648 8.82076 5.72383 8.71917 5.81007C8.62543 5.88965 8.52215 5.99294 8.41153 6.10358L3.18912 11.326C3.07046 11.4446 2.95881 11.5563 2.87781 11.653C2.83828 11.7002 2.78258 11.7699 2.73674 11.859C2.7338 11.8576 2.73089 11.8561 2.72801 11.8547C2.47713 11.7268 2.27316 11.5229 2.14532 11.272C2.08731 11.1581 2.04577 11.0049 2.02332 10.7301C2.00039 10.4495 2 10.0883 2 9.56667V4.43333C2 3.9117 2.00039 3.55055 2.02332 3.26992C2.04577 2.99513 2.08731 2.84186 2.14532 2.72801C2.27316 2.47713 2.47713 2.27316 2.72801 2.14532C2.84186 2.08731 2.99513 2.04577 3.26992 2.02332C3.55055 2.00039 3.9117 2 4.43333 2H9.56667C10.0883 2 10.4495 2.00039 10.7301 2.02332C11.0049 2.04577 11.1581 2.08731 11.272 2.14532C11.5229 2.27316 11.7268 2.47713 11.8547 2.72801C11.9127 2.84186 11.9542 2.99513 11.9767 3.26992C11.9996 3.55055 12 3.9117 12 4.43333V7.62623ZM4.86111 4.13889C4.46224 4.13889 4.13889 4.46224 4.13889 4.86111C4.13889 5.25998 4.46224 5.58333 4.86111 5.58333C5.25998 5.58333 5.58333 5.25998 5.58333 4.86111C5.58333 4.46224 5.25998 4.13889 4.86111 4.13889ZM3.13889 4.86111C3.13889 3.90995 3.90995 3.13889 4.86111 3.13889C5.81227 3.13889 6.58333 3.90995 6.58333 4.86111C6.58333 5.81227 5.81227 6.58333 4.86111 6.58333C3.90995 6.58333 3.13889 5.81227 3.13889 4.86111Z"/>
</svg>
