<svg width="14" height="14" viewBox="0 0 14 14" xmlns="http://www.w3.org/2000/svg">
<path fill-rule="evenodd" clip-rule="evenodd" d="M2.50001 1C2.08739 0.999968 1.71658 1.20124 1.45888 1.45891ZM2.50001 1L11.4999 1.00011C11.4999 1.00011 11.4998 1.00011 11.4999 1.00011C11.9125 1.00006 12.2834 1.2013 12.541 1.45895C12.7987 1.71662 13 2.08739 13 2.5V4.5C13 4.91261 12.7987 5.28338 12.5411 5.54107C12.3934 5.68875 12.2086 5.81792 12 5.90128V9.586C12 10.083 12 10.4834 11.9762 10.8075C11.9517 11.1403 11.9001 11.434 11.7747 11.7075C11.5756 12.1415 11.2534 12.5044 10.8454 12.7353C10.574 12.889 10.2585 12.9464 9.93518 12.9734C9.61422 13.0001 9.22537 13.0001 8.77912 13.0001H5.22088C4.77463 13.0001 4.38577 13.0001 4.06482 12.9734C3.74153 12.9464 3.42597 12.889 3.15458 12.7353C2.74663 12.5044 2.4244 12.1415 2.22535 11.7075C2.09994 11.434 2.0483 11.1403 2.02383 10.8075C1.99999 10.4834 2 10.083 2 9.58604L2 5.90131C1.79142 5.81796 1.60654 5.68883 1.45883 5.54114C1.20118 5.28355 0.999775 4.9127 1.00018 4.49982C1.00018 4.49968 1.00018 4.49995 1.00018 4.49982L1 2.50022C0.999875 2.08752 1.20122 1.71654 1.45888 1.45891M3 6.00005V9.56672C3 10.0875 3.00031 10.4511 3.02113 10.7342C3.04162 11.0128 3.0799 11.1719 3.13433 11.2906C3.25166 11.5465 3.43427 11.7445 3.64725 11.8651C3.72881 11.9113 3.87076 11.9537 4.14775 11.9768C4.4225 11.9997 4.77018 12.0001 5.24 12.0001H8.76C9.22982 12.0001 9.5775 11.9997 9.85225 11.9768C10.1292 11.9537 10.2712 11.9113 10.3528 11.8651C10.5657 11.7445 10.7483 11.5465 10.8657 11.2906C10.9201 11.1719 10.9584 11.0128 10.9789 10.7342C10.9997 10.4511 11 10.0875 11 9.56672V6.00005H3ZM2.16595 2.16605C2.0486 2.28339 1.99996 2.41255 2 2.49978L2.00018 4.50001C2.00006 4.58696 2.04852 4.71664 2.16586 4.83396C2.2832 4.95127 2.41256 5.00005 2.5 5.00005H11.5C11.5874 5.00005 11.7166 4.95133 11.8339 4.83399C11.9513 4.71664 12 4.58739 12 4.5V2.5C12 2.41261 11.9513 2.28338 11.834 2.16608C11.7166 2.04878 11.5874 2.00009 11.5001 2.00011L2.49999 2C2.41263 1.99999 2.2833 2.04871 2.16595 2.16605ZM5 8.5C5 8.22386 5.22386 8 5.5 8H8.5C8.77614 8 9 8.22386 9 8.5C9 8.77614 8.77614 9 8.5 9H5.5C5.22386 9 5 8.77614 5 8.5Z"/>
</svg>
