<svg width="14" height="14" viewBox="0 0 14 14" xmlns="http://www.w3.org/2000/svg">
<path fill-rule="evenodd" clip-rule="evenodd" d="M10.8905 2.81647L6.23004 7.47698L7.64845 11.1243L10.8905 2.81647ZM5.52293 6.76987L10.1834 2.10936L1.87558 5.35145L5.52293 6.76987ZM11.4699 0.544909C11.5727 0.515048 11.7648 0.466387 11.9689 0.534557C12.2032 0.612829 12.3871 0.796699 12.4653 1.031C12.5335 1.23506 12.4849 1.42721 12.455 1.53001C12.4228 1.64099 12.3707 1.7743 12.3168 1.9123L8.53323 11.6078C8.47308 11.762 8.41647 11.9071 8.36149 12.0183C8.3132 12.116 8.21327 12.306 8.01046 12.4114C7.78301 12.5296 7.51224 12.5294 7.28494 12.411C7.08225 12.3054 6.98254 12.1152 6.93437 12.0175C6.87953 11.9062 6.82308 11.761 6.76312 11.6068L5.25952 7.74039L1.39315 6.2368C1.2389 6.17683 1.0937 6.12039 0.982455 6.06554C0.884734 6.01736 0.694536 5.91765 0.588934 5.71497C0.470506 5.48767 0.470347 5.21689 0.588507 4.98945C0.69387 4.78664 0.883952 4.68671 0.981615 4.63842C1.0928 4.58344 1.23792 4.52683 1.3921 4.46668C1.39824 4.46428 1.4044 4.46188 1.41056 4.45947L11.0876 0.683063C11.2256 0.629187 11.3589 0.577146 11.4699 0.544909Z"/>
</svg>
