<svg width="14" height="14" viewBox="0 0 14 14" xmlns="http://www.w3.org/2000/svg">
<path fill-rule="evenodd" clip-rule="evenodd" d="M4.3784 2.05259C4.26498 1.98247 4.14433 1.98247 4.03091 2.05259C4.01919 2.05983 3.98882 2.08165 3.91991 2.15707C3.84976 2.23383 3.76337 2.33915 3.63131 2.50055L3.55506 2.59375C3.28758 2.92067 3.20601 3.02546 3.14027 3.16849C3.06327 3.33603 2.99951 3.63087 3 3.83242C3.00044 4.01141 3.02482 4.12479 3.10388 4.46525C3.50492 6.1922 4.25963 7.81287 5.36124 9.15928C6.46211 10.5048 7.77139 11.4082 9.14522 11.8848C9.43024 11.9837 9.48924 11.9996 9.59248 12C9.70646 12.0004 9.90816 11.9392 10.0227 11.8605C10.1251 11.7902 10.205 11.6995 10.4772 11.3668L10.5534 11.2736C10.8318 10.9335 10.8992 10.8428 10.9338 10.759C11.022 10.5459 11.022 10.2872 10.9338 10.074C10.8992 9.99023 10.8318 9.8996 10.5534 9.55943L10.4592 9.44422C10.2726 9.21622 10.2286 9.16708 10.1964 9.14144C10.0579 9.03136 9.90235 9.03136 9.76382 9.14144C9.73156 9.16708 9.68757 9.21622 9.50103 9.44422C9.4973 9.44877 9.4935 9.45344 9.48961 9.45821C9.44644 9.51117 9.39306 9.57664 9.32807 9.63352C9.08702 9.84448 8.73251 9.92865 8.41398 9.81517C8.32961 9.78511 8.2608 9.74451 8.21206 9.71576C8.20793 9.71332 8.20394 9.71097 8.2001 9.70871C7.44508 9.26566 6.74319 8.66499 6.1265 7.91126C5.50996 7.15771 5.0255 6.30859 4.67123 5.40674C4.66957 5.40251 4.66789 5.39826 4.66621 5.39398C4.64168 5.33169 4.61516 5.26435 4.59569 5.1827C4.52781 4.89812 4.57099 4.5616 4.72173 4.30429C4.76531 4.22991 4.81688 4.16705 4.86139 4.1128C4.86506 4.10832 4.86869 4.10391 4.87226 4.09955C5.05581 3.87521 5.10038 3.81696 5.12676 3.76738C5.25715 3.52227 5.25715 3.19304 5.12676 2.94794C5.10038 2.89835 5.05581 2.8401 4.87226 2.61576L4.77799 2.50055C4.64594 2.33915 4.55954 2.23383 4.4894 2.15707C4.42048 2.08165 4.39011 2.05983 4.3784 2.05259ZM3.50508 1.202C3.94075 0.932668 4.46856 0.932667 4.90423 1.202C5.03056 1.28009 5.13348 1.37949 5.22762 1.48251C5.31845 1.58191 5.42219 1.70871 5.54361 1.85712L5.64621 1.98253C5.65558 1.99397 5.66483 2.00527 5.67397 2.01643C5.81582 2.18959 5.93052 2.32961 6.00962 2.47829C6.2962 3.01702 6.2962 3.69829 6.00962 4.23702C5.93052 4.3857 5.81582 4.52572 5.67397 4.69889C5.66483 4.71004 5.65558 4.72134 5.64621 4.73278C5.61668 4.76888 5.60184 4.78712 5.59113 4.80109C5.58709 4.80637 5.58499 4.80932 5.5841 4.8106C5.57052 4.83483 5.55734 4.90431 5.5684 4.9507C5.56899 4.95318 5.56981 4.95659 5.57372 4.96758C5.57902 4.98249 5.58648 5.00163 5.60199 5.04111C5.92106 5.85335 6.35452 6.61076 6.90046 7.27802C7.44471 7.94322 8.05535 8.4634 8.70077 8.84305C8.70803 8.83424 8.71663 8.82374 8.72707 8.81098C8.73746 8.79828 8.74773 8.7857 8.75789 8.77327C8.89596 8.60422 9.01332 8.46054 9.14168 8.35854C9.64447 7.95899 10.3157 7.95899 10.8185 8.35854C10.9469 8.46054 11.0642 8.60422 11.2023 8.77327C11.2125 8.7857 11.2227 8.79828 11.2331 8.81098L11.3274 8.9262C11.3413 8.94314 11.355 8.95986 11.3685 8.97638C11.5852 9.24082 11.7591 9.45291 11.8579 9.69165C12.0474 10.1496 12.0474 10.6834 11.8579 11.1414C11.7591 11.3802 11.5852 11.5923 11.3685 11.8567C11.355 11.8732 11.3413 11.8899 11.3274 11.9069L11.2511 12.0001C11.2396 12.0142 11.2282 12.0282 11.2169 12.042C10.9938 12.315 10.8228 12.5242 10.5887 12.6849C10.3168 12.8716 9.91817 13.0012 9.58884 13C9.30476 12.999 9.09628 12.9265 8.84947 12.8407C8.83888 12.837 8.82822 12.8333 8.81747 12.8296C7.25662 12.2881 5.79668 11.2707 4.58728 9.79252C3.37862 8.31527 2.56172 6.55135 2.1298 4.69146C2.12781 4.68289 2.12584 4.67439 2.12388 4.66596C2.05112 4.35288 2.00074 4.13605 2.00001 3.83486C1.99918 3.49459 2.09153 3.05573 2.23165 2.75087C2.35659 2.47903 2.52286 2.27595 2.75322 1.99458C2.76241 1.98336 2.7717 1.972 2.7811 1.96051L2.85736 1.86732C2.86015 1.86391 2.86293 1.86051 2.8657 1.85712C2.98712 1.70871 3.09086 1.58191 3.18169 1.48251C3.27583 1.37949 3.37875 1.28009 3.50508 1.202Z"/>
</svg>
