<svg width="16" height="16" viewBox="0 0 16 16" fill="none" xmlns="http://www.w3.org/2000/svg">
<path fill-rule="evenodd" clip-rule="evenodd" d="M12 2H4C2.89543 2 2 2.89543 2 4V12C2 13.1046 2.89543 14 4 14H12C13.1046 14 14 13.1046 14 12V4C14 2.89543 13.1046 2 12 2ZM4 1C2.34315 1 1 2.34315 1 4V12C1 13.6569 2.34315 15 4 15H12C13.6569 15 15 13.6569 15 12V4C15 2.34315 13.6569 1 12 1H4Z" fill="#000000"/>
<path fill-rule="evenodd" clip-rule="evenodd" d="M8 3.5C7.17157 3.5 6.5 4.17157 6.5 5C6.5 5.82843 7.17157 6.5 8 6.5C8.82843 6.5 9.5 5.82843 9.5 5C9.5 4.17157 8.82843 3.5 8 3.5ZM5.5 5C5.5 3.61929 6.61929 2.5 8 2.5C9.38071 2.5 10.5 3.61929 10.5 5C10.5 6.38071 9.38071 7.5 8 7.5C6.61929 7.5 5.5 6.38071 5.5 5Z" fill="#000000"/>
</svg>
