<svg width="14" height="14" viewBox="0 0 14 14" xmlns="http://www.w3.org/2000/svg">
<path fill-rule="evenodd" clip-rule="evenodd" d="M10.689 2.32264C10.3018 1.89245 9.69815 1.89245 9.31099 2.32264C8.89634 2.78336 8.89634 3.54997 9.31099 4.0107C9.69815 4.44088 10.3018 4.44088 10.689 4.0107C11.1037 3.54997 11.1037 2.78336 10.689 2.32264ZM8.56769 1.65367C9.3521 0.782109 10.6479 0.782109 11.4323 1.65367C12.1892 2.4947 12.1892 3.83863 11.4323 4.67966C10.6479 5.55122 9.3521 5.55122 8.56769 4.67966C7.81077 3.83863 7.81077 2.4947 8.56769 1.65367ZM4.87745 1.55556L6.5 1.55556C6.77614 1.55556 7 1.77941 7 2.05556C7 2.3317 6.77614 2.55556 6.5 2.55556H4.9C4.4708 2.55556 4.1823 2.55604 3.96001 2.57622C3.7453 2.59571 3.63916 2.63053 3.56535 2.67232C3.38059 2.77692 3.22093 2.9495 3.11798 3.17399C3.07173 3.27486 3.03754 3.41337 3.01909 3.66423C3.00032 3.91955 3 4.24808 3 4.72222V8.83333C3 9.30748 3.00032 9.63601 3.01909 9.89133C3.03754 10.1422 3.07173 10.2807 3.11798 10.3816C3.22093 10.6061 3.38059 10.7786 3.56535 10.8832C3.63916 10.925 3.7453 10.9599 3.96001 10.9793C4.1823 10.9995 4.4708 11 4.9 11H8.6C9.0292 11 9.3177 10.9995 9.53999 10.9793C9.7547 10.9599 9.86084 10.925 9.93465 10.8832C10.1194 10.7786 10.2791 10.6061 10.382 10.3816C10.4283 10.2807 10.4625 10.1422 10.4809 9.89133C10.4997 9.63601 10.5 9.30748 10.5 8.83333V7.05556C10.5 6.77941 10.7239 6.55556 11 6.55556C11.2761 6.55556 11.5 6.77941 11.5 7.05556V8.85247C11.5 9.30294 11.5 9.66833 11.4782 9.96467C11.4558 10.2696 11.4082 10.5428 11.291 10.7984C11.1063 11.2011 10.8071 11.5385 10.4273 11.7535C10.1803 11.8933 9.91596 11.9493 9.6304 11.9752C9.35755 12 9.02341 12 8.62257 12H4.87743C4.47659 12 4.14246 12 3.8696 11.9752C3.58405 11.9493 3.31974 11.8933 3.07268 11.7535C2.69295 11.5385 2.39367 11.2011 2.209 10.7984C2.09177 10.5428 2.04421 10.2696 2.02178 9.96466C1.99999 9.66833 2 9.30294 2 8.85245V4.7031C2 4.25262 1.99999 3.88723 2.02178 3.59089C2.04421 3.28591 2.09177 3.0128 2.209 2.75715C2.39367 2.35444 2.69295 2.01708 3.07268 1.8021C3.31974 1.66223 3.58405 1.60623 3.8696 1.58031C4.14246 1.55554 4.4766 1.55555 4.87745 1.55556ZM4 7.05556C4 6.77941 4.22386 6.55556 4.5 6.55556H8.5C8.77614 6.55556 9 6.77941 9 7.05556C9 7.3317 8.77614 7.55556 8.5 7.55556H4.5C4.22386 7.55556 4 7.3317 4 7.05556ZM4 9.27778C4 9.00164 4.22386 8.77778 4.5 8.77778H7.5C7.77614 8.77778 8 9.00164 8 9.27778C8 9.55392 7.77614 9.77778 7.5 9.77778H4.5C4.22386 9.77778 4 9.55392 4 9.27778Z"/>
</svg>
