<svg width="14" height="14" viewBox="0 0 14 14" xmlns="http://www.w3.org/2000/svg">
<path fill-rule="evenodd" clip-rule="evenodd" d="M8.19021 1H10.2098C10.5009 0.999992 10.7495 0.999985 10.9536 1.01683C11.1684 1.03456 11.3779 1.07343 11.5782 1.17653C11.8797 1.33168 12.1238 1.57875 12.2765 1.88149C12.3777 2.08212 12.4159 2.29189 12.4334 2.50769C12.45 2.71328 12.45 2.96375 12.45 3.25825V11H12.5C12.7761 11 13 11.2239 13 11.5C13 11.7761 12.7761 12 12.5 12H1.5C1.22386 12 1 11.7761 1 11.5C1 11.2239 1.22386 11 1.5 11H1.55L1.55 7.70271C1.54999 7.4082 1.54998 7.15773 1.56661 6.95214C1.58407 6.73633 1.62227 6.52656 1.72347 6.32594C1.87618 6.0232 2.12034 5.77613 2.4218 5.62098C2.62213 5.51787 2.83165 5.479 3.0464 5.46128C3.25055 5.44443 3.49906 5.44444 3.79021 5.44445L5.95 5.44445V3.25825C5.94999 2.96375 5.94999 2.71328 5.96661 2.50769C5.98407 2.29189 6.02227 2.08212 6.12347 1.88149C6.27618 1.57875 6.52034 1.33168 6.8218 1.17653C7.02213 1.07343 7.23165 1.03456 7.4464 1.01683C7.65055 0.999985 7.89906 0.999992 8.19021 1ZM5.95 6.44445H3.81C3.49364 6.44445 3.28674 6.44484 3.12865 6.45789C2.97654 6.47044 2.9144 6.49212 2.87942 6.51012C2.76692 6.56802 2.67452 6.66091 2.61631 6.77631C2.59762 6.81336 2.57588 6.87801 2.56336 7.03276C2.55038 7.1932 2.55 7.40291 2.55 7.72222V11H5.95V6.44445ZM6.95 11V3.27778C6.95 2.95847 6.95038 2.74876 6.96336 2.58831C6.97588 2.43356 6.99762 2.36892 7.01631 2.33187C7.07452 2.21647 7.16692 2.12358 7.27942 2.06568C7.3144 2.04768 7.37654 2.026 7.52865 2.01344C7.68674 2.0004 7.89364 2 8.21 2H10.19C10.5064 2 10.7133 2.0004 10.8714 2.01344C11.0235 2.026 11.0856 2.04768 11.1206 2.06568C11.2331 2.12358 11.3255 2.21647 11.3837 2.33187C11.4024 2.36892 11.4241 2.43356 11.4366 2.58831C11.4496 2.74876 11.45 2.95847 11.45 3.27778V11H6.95ZM7.875 3.72222C7.875 3.44608 8.09886 3.22222 8.375 3.22222H10.025C10.3011 3.22222 10.525 3.44608 10.525 3.72222C10.525 3.99837 10.3011 4.22222 10.025 4.22222H8.375C8.09886 4.22222 7.875 3.99837 7.875 3.72222ZM7.875 5.94445C7.875 5.6683 8.09886 5.44445 8.375 5.44445H10.025C10.3011 5.44445 10.525 5.6683 10.525 5.94445C10.525 6.22059 10.3011 6.44445 10.025 6.44445H8.375C8.09886 6.44445 7.875 6.22059 7.875 5.94445ZM7.875 8.16667C7.875 7.89053 8.09886 7.66667 8.375 7.66667H10.025C10.3011 7.66667 10.525 7.89053 10.525 8.16667C10.525 8.44281 10.3011 8.66667 10.025 8.66667H8.375C8.09886 8.66667 7.875 8.44281 7.875 8.16667Z" />
</svg>
