<svg width="14" height="14" viewBox="0 0 14 14" xmlns="http://www.w3.org/2000/svg">
<path fill-rule="evenodd" clip-rule="evenodd" d="M4.55556 1C4.8317 1 5.05556 1.22386 5.05556 1.5V2.1H8.94444V1.5C8.94444 1.22386 9.1683 1 9.44444 1C9.72059 1 9.94445 1.22386 9.94445 1.5V2.10038C10.2804 2.10152 10.5652 2.10601 10.8075 2.12383C11.1402 2.1483 11.4339 2.19994 11.7074 2.32535C12.1415 2.5244 12.5043 2.84662 12.7353 3.25458C12.8842 3.51768 12.9448 3.80051 12.973 4.11108C13 4.40894 13 4.77455 13 5.21715V9.88285C13 10.3255 13 10.6911 12.973 10.9889C12.9448 11.2995 12.8842 11.5823 12.7353 11.8454C12.5043 12.2534 12.1415 12.5756 11.7074 12.7747C11.4339 12.9001 11.1402 12.9517 10.8075 12.9762C10.4833 13 10.083 13 9.58601 13H4.41399C3.91701 13 3.51665 13 3.19254 12.9762C2.85976 12.9517 2.56608 12.9001 2.2926 12.7747C1.85853 12.5756 1.49567 12.2534 1.26471 11.8454C1.11576 11.5823 1.05522 11.2995 1.02703 10.9889C0.999986 10.6911 0.999992 10.3255 1 9.88288V5.21712C0.999992 4.77453 0.999986 4.40894 1.02703 4.11108C1.05522 3.80051 1.11576 3.51768 1.26471 3.25458C1.49567 2.84662 1.85853 2.5244 2.2926 2.32535C2.56608 2.19994 2.85976 2.1483 3.19254 2.12383C3.43478 2.10601 3.71962 2.10152 4.05556 2.10038V1.5C4.05556 1.22386 4.27941 1 4.55556 1ZM4.05556 3.10043C3.72784 3.10157 3.47493 3.10576 3.26587 3.12113C2.98722 3.14162 2.82813 3.1799 2.70944 3.23433C2.45358 3.35166 2.25551 3.53427 2.13493 3.74725C2.08406 3.8371 2.04469 3.96177 2.02293 4.20149C2.00048 4.44879 2 4.7688 2 5.24V5.4H12V5.24C12 4.7688 11.9995 4.44879 11.9771 4.20149C11.9553 3.96177 11.9159 3.8371 11.8651 3.74725C11.7445 3.53427 11.5464 3.35166 11.2906 3.23433C11.1719 3.1799 11.0128 3.14162 10.7341 3.12113C10.5251 3.10576 10.2722 3.10157 9.94445 3.10043V3.7C9.94445 3.97614 9.72059 4.2 9.44444 4.2C9.1683 4.2 8.94444 3.97614 8.94444 3.7V3.1H5.05556V3.7C5.05556 3.97614 4.8317 4.2 4.55556 4.2C4.27941 4.2 4.05556 3.97614 4.05556 3.7V3.10043ZM12 6.4H2V9.86C2 10.3312 2.00048 10.6512 2.02293 10.8985C2.04469 11.1382 2.08406 11.2629 2.13493 11.3528C2.25551 11.5657 2.45358 11.7483 2.70944 11.8657C2.82813 11.9201 2.98722 11.9584 3.26587 11.9789C3.54899 11.9997 3.91252 12 4.43333 12H9.56667C10.0875 12 10.451 11.9997 10.7341 11.9789C11.0128 11.9584 11.1719 11.9201 11.2906 11.8657C11.5464 11.7483 11.7445 11.5657 11.8651 11.3528C11.9159 11.2629 11.9553 11.1382 11.9771 10.8985C11.9995 10.6512 12 10.3312 12 9.86V6.4ZM7.24635 7.1149C7.4031 7.20365 7.5 7.36986 7.5 7.55V9.8H7.76389C8.04003 9.8 8.26389 10.0239 8.26389 10.3C8.26389 10.5761 8.04003 10.8 7.76389 10.8H6.23611C5.95997 10.8 5.73611 10.5761 5.73611 10.3C5.73611 10.0239 5.95997 9.8 6.23611 9.8H6.5V8.43309L6.34058 8.52875C6.10379 8.67082 5.79666 8.59404 5.65459 8.35725C5.51251 8.12046 5.5893 7.81333 5.82609 7.67125L6.74275 7.12125C6.89722 7.02857 7.0896 7.02615 7.24635 7.1149Z"/>
</svg>
