<svg width="14" height="14" viewBox="0 0 14 14" xmlns="http://www.w3.org/2000/svg">
<path fill-rule="evenodd" clip-rule="evenodd" d="M1.76418 1.7839C1.96934 1.57194 2.24251 1.5 2.5 1.5C2.75749 1.5 3.03066 1.57194 3.23582 1.7839C3.43817 1.99294 3.5 2.26165 3.5 2.5C3.5 2.73835 3.43817 3.00706 3.23582 3.2161C3.03066 3.42806 2.75749 3.5 2.5 3.5C2.24251 3.5 1.96934 3.42806 1.76418 3.2161C1.56183 3.00706 1.5 2.73835 1.5 2.5C1.5 2.26165 1.56183 1.99294 1.76418 1.7839ZM4.5 2.5C4.5 2.22386 4.72386 2 5 2H13C13.2761 2 13.5 2.22386 13.5 2.5C13.5 2.77614 13.2761 3 13 3H5C4.72386 3 4.5 2.77614 4.5 2.5ZM1.76418 5.7839C1.96934 5.57194 2.24251 5.5 2.5 5.5C2.75749 5.5 3.03066 5.57194 3.23582 5.7839C3.43817 5.99294 3.5 6.26165 3.5 6.5C3.5 6.73834 3.43817 7.00706 3.23582 7.2161C3.03066 7.42806 2.75749 7.5 2.5 7.5C2.24251 7.5 1.96934 7.42806 1.76418 7.2161C1.56183 7.00706 1.5 6.73834 1.5 6.5C1.5 6.26165 1.56183 5.99294 1.76418 5.7839ZM4.5 6.5C4.5 6.22386 4.72386 6 5 6L13 6C13.2761 6 13.5 6.22386 13.5 6.5C13.5 6.77614 13.2761 7 13 7L5 7C4.72386 7 4.5 6.77614 4.5 6.5ZM1.76418 9.7839C1.96934 9.57194 2.24251 9.5 2.5 9.5C2.75749 9.5 3.03066 9.57194 3.23582 9.7839C3.43817 9.99294 3.5 10.2617 3.5 10.5C3.5 10.7383 3.43817 11.0071 3.23582 11.2161C3.03066 11.4281 2.75749 11.5 2.5 11.5C2.24251 11.5 1.96934 11.4281 1.76418 11.2161C1.56183 11.0071 1.5 10.7383 1.5 10.5C1.5 10.2617 1.56183 9.99294 1.76418 9.7839ZM4.5 10.5C4.5 10.2239 4.72386 10 5 10H13C13.2761 10 13.5 10.2239 13.5 10.5C13.5 10.7761 13.2761 11 13 11H5C4.72386 11 4.5 10.7761 4.5 10.5Z"/>
</svg>
