<svg width="15" height="15" viewBox="0 0 15 15" xmlns="http://www.w3.org/2000/svg">
<path fill-rule="evenodd" clip-rule="evenodd" d="M7.13937 1.0853C7.3668 0.971565 7.63318 0.971565 7.86061 1.0853C8.04852 1.17928 8.15326 1.3421 8.21095 1.44094C8.27144 1.54458 8.33461 1.67884 8.40081 1.81956L9.80097 4.79483C9.80269 4.7985 9.80435 4.80202 9.80594 4.8054C9.8064 4.80547 9.80686 4.80554 9.80732 4.80561L12.9404 5.28596C13.0873 5.30845 13.2308 5.33042 13.3457 5.35942C13.4596 5.38815 13.6425 5.44496 13.7838 5.60143C13.9498 5.78517 14.0236 6.03168 13.9933 6.27234C13.9678 6.47473 13.8581 6.62526 13.783 6.71723C13.7073 6.81007 13.6045 6.91505 13.4976 7.02431L11.2319 9.33893C11.2266 9.34442 11.2216 9.34947 11.217 9.35417C11.2184 9.36242 11.2198 9.37143 11.2215 9.38143L11.7559 12.65C11.7813 12.8051 11.8054 12.9522 11.8145 13.0726C11.8233 13.1894 11.8284 13.3769 11.7348 13.5577C11.6217 13.7761 11.4151 13.9388 11.1646 13.9875C10.9534 14.0286 10.7698 13.9587 10.6647 13.9129C10.5558 13.8656 10.4279 13.795 10.2963 13.7224L7.49999 12.1799L4.70366 13.7224C4.57206 13.795 4.44416 13.8656 4.33533 13.9129C4.23021 13.9587 4.04658 14.0286 3.83539 13.9875C3.58485 13.9388 3.37826 13.7761 3.26515 13.5577C3.17153 13.3769 3.17669 13.1894 3.1855 13.0726C3.1946 12.9522 3.21866 12.8051 3.24405 12.65L3.77851 9.38143C3.78014 9.37143 3.78162 9.36242 3.78295 9.35417C3.77836 9.34947 3.77341 9.34442 3.76804 9.33893L1.50241 7.0243C1.39544 6.91505 1.29265 6.81007 1.21693 6.71723C1.14191 6.62526 1.03213 6.47473 1.00665 6.27234C0.976348 6.03168 1.05021 5.78517 1.21617 5.60143C1.3575 5.44496 1.54034 5.38815 1.65427 5.35941C1.76922 5.33042 1.91267 5.30845 2.05954 5.28596C2.06606 5.28496 2.07259 5.28396 2.07912 5.28296L5.19266 4.80561C5.19312 4.80554 5.19358 4.80547 5.19404 4.8054C5.19563 4.80202 5.19729 4.7985 5.19901 4.79483L6.59916 1.81958C6.66537 1.67885 6.72854 1.54458 6.78903 1.44094C6.84672 1.3421 6.95146 1.17928 7.13937 1.0853ZM7.49999 2.25386C7.49859 2.25684 7.49718 2.25983 7.49576 2.26285L6.10383 5.22064C6.10101 5.22662 6.09799 5.23313 6.09476 5.2401C6.06319 5.3082 6.01121 5.42034 5.92908 5.51306C5.85837 5.59289 5.77233 5.65894 5.67503 5.7064C5.56026 5.76238 5.43556 5.78064 5.3643 5.79108C5.35702 5.79214 5.3503 5.79313 5.3442 5.79406L2.23066 6.27141C2.21069 6.27447 2.19165 6.27739 2.17346 6.28019C2.19109 6.29827 2.21007 6.31768 2.23054 6.33859L4.48267 8.63943C4.48722 8.64407 4.49217 8.64908 4.49747 8.65443C4.54998 8.70747 4.63646 8.79482 4.69495 8.90501C4.74454 8.99842 4.77585 9.10004 4.78789 9.20423C4.80197 9.32603 4.78172 9.44596 4.76899 9.52137C4.7677 9.52898 4.76649 9.53614 4.7654 9.5428L4.234 12.7926C4.23108 12.8105 4.22829 12.8276 4.22562 12.844C4.2297 12.8418 4.23383 12.8395 4.238 12.8372L7.02146 11.3018C7.02693 11.2988 7.03294 11.2954 7.03945 11.2918C7.10262 11.2564 7.21322 11.1944 7.33799 11.1687C7.44491 11.1467 7.55507 11.1467 7.66199 11.1687C7.78676 11.1944 7.89736 11.2564 7.96053 11.2918C7.96704 11.2954 7.97305 11.2988 7.97851 11.3018L10.762 12.8372C10.7662 12.8395 10.7703 12.8418 10.7744 12.844C10.7717 12.8276 10.7689 12.8105 10.766 12.7926L10.2346 9.5428C10.2335 9.53614 10.2323 9.52897 10.231 9.52136C10.2183 9.44595 10.198 9.32602 10.2121 9.20423C10.2241 9.10004 10.2554 8.99842 10.305 8.90501C10.3635 8.79482 10.45 8.70747 10.5025 8.65443C10.5078 8.64908 10.5128 8.64407 10.5173 8.63943L12.7694 6.33859C12.7899 6.31768 12.8089 6.29827 12.8265 6.28019C12.8083 6.27739 12.7893 6.27447 12.7693 6.27141L9.65578 5.79406C9.64968 5.79313 9.64296 5.79214 9.63568 5.79108C9.56442 5.78064 9.43972 5.76238 9.32495 5.7064C9.22765 5.65894 9.14161 5.59289 9.0709 5.51306C8.98877 5.42034 8.93679 5.3082 8.90522 5.2401C8.90199 5.23313 8.89897 5.22662 8.89615 5.22064L7.50422 2.26285C7.5028 2.25983 7.50139 2.25684 7.49999 2.25386Z"/>
</svg>
