<svg width="15" height="15" viewBox="0 0 15 15" xmlns="http://www.w3.org/2000/svg">
<path fill-rule="evenodd" clip-rule="evenodd" d="M2.54919 1C2.555 1 2.56083 1 2.56667 1L5.11748 1C5.28914 0.999989 5.44679 0.999977 5.57858 1.01075C5.72067 1.02235 5.87612 1.04893 6.02966 1.12716C6.24918 1.23901 6.42766 1.41749 6.53951 1.63701C6.61774 1.79055 6.64432 1.946 6.65593 2.08809C6.66669 2.21988 6.66668 2.37754 6.66667 2.5492V5.11747C6.66668 5.28913 6.66669 5.44679 6.65593 5.57858C6.64432 5.72067 6.61774 5.87612 6.53951 6.02966C6.42766 6.24918 6.24918 6.42766 6.02966 6.53951C5.87612 6.61774 5.72067 6.64432 5.57858 6.65593C5.44679 6.66669 5.28913 6.66668 5.11747 6.66667H2.5492C2.37754 6.66668 2.21988 6.66669 2.08809 6.65593C1.946 6.64432 1.79055 6.61774 1.63701 6.53951C1.41749 6.42766 1.23901 6.24918 1.12716 6.02966C1.04893 5.87612 1.02235 5.72067 1.01075 5.57858C0.999977 5.44679 0.999989 5.28914 1 5.11748L1 2.56667C1 2.56083 1 2.555 1 2.54919C0.999989 2.37753 0.999977 2.21988 1.01075 2.08809C1.02235 1.946 1.04893 1.79055 1.12716 1.63701C1.23901 1.41749 1.41749 1.23901 1.63701 1.12716C1.79055 1.04893 1.946 1.02235 2.08809 1.01075C2.21988 0.999977 2.37753 0.999989 2.54919 1ZM2.08725 2.01982C2.08723 2.01981 2.08755 2.01968 2.08826 2.01945ZM2.08826 2.01945C2.09418 2.01761 2.11698 2.01172 2.16952 2.00742C2.2556 2.00039 2.37173 2 2.56667 2H5.1C5.29494 2 5.41107 2.00039 5.49715 2.00742C5.54969 2.01172 5.57177 2.01738 5.57769 2.01922C5.60745 2.0349 5.63177 2.05922 5.64745 2.08898C5.64929 2.09489 5.65495 2.11698 5.65925 2.16952C5.66628 2.2556 5.66667 2.37173 5.66667 2.56667V5.1C5.66667 5.29494 5.66628 5.41107 5.65925 5.49715C5.65495 5.54969 5.64929 5.57177 5.64745 5.57769C5.63177 5.60745 5.60745 5.63177 5.57769 5.64745C5.57177 5.64929 5.54969 5.65495 5.49715 5.65925C5.41107 5.66628 5.29494 5.66667 5.1 5.66667H2.56667C2.37173 5.66667 2.2556 5.66628 2.16952 5.65925C2.11698 5.65495 2.0949 5.64929 2.08898 5.64745C2.05922 5.63177 2.0349 5.60745 2.01922 5.57769C2.01738 5.57177 2.01172 5.54969 2.00742 5.49715C2.00039 5.41107 2 5.29494 2 5.1V2.56667C2 2.37173 2.00039 2.2556 2.00742 2.16952C2.01172 2.11698 2.01738 2.0949 2.01922 2.08898C2.0349 2.05922 2.0585 2.03513 2.08826 2.01945ZM2.01982 2.08725C2.01983 2.08727 2.01948 2.08834 2.01922 2.08898ZM2.01982 5.57942C2.01981 5.57944 2.01945 5.5784 2.01922 5.57769ZM2.08725 5.64685C2.08727 5.64684 2.08834 5.64719 2.08898 5.64745ZM5.57942 5.64685C5.57944 5.64686 5.57841 5.64722 5.57769 5.64745ZM5.64685 5.57942C5.64684 5.5794 5.64719 5.57832 5.64745 5.57769ZM5.64685 2.08725C5.64686 2.08723 5.64722 2.08826 5.64745 2.08898ZM5.57942 2.01982C5.5794 2.01983 5.57833 2.01948 5.57769 2.01922ZM9.88252 1H12.4508C12.6225 0.999989 12.7801 0.999977 12.9119 1.01074C13.054 1.02235 13.2095 1.04893 13.363 1.12716C13.5825 1.23901 13.761 1.41749 13.8728 1.63701C13.9511 1.79055 13.9776 1.946 13.9893 2.08809C14 2.21988 14 2.37753 14 2.54918V5.11749C14 5.28914 14 5.44679 13.9893 5.57858C13.9776 5.72067 13.9511 5.87612 13.8728 6.02966C13.761 6.24918 13.5825 6.42766 13.363 6.53951C13.2095 6.61774 13.054 6.64432 12.9119 6.65593C12.7801 6.66669 12.6225 6.66668 12.4508 6.66667H9.88253C9.71087 6.66668 9.55321 6.66669 9.42142 6.65593C9.27933 6.64432 9.12388 6.61774 8.97035 6.53951C8.75082 6.42766 8.57235 6.24918 8.46049 6.02966C8.38226 5.87612 8.35569 5.72067 8.34408 5.57858C8.33331 5.44679 8.33332 5.28913 8.33333 5.11747V2.5492C8.33332 2.37754 8.33331 2.21988 8.34408 2.08809C8.35569 1.946 8.38226 1.79055 8.46049 1.63701C8.57235 1.41749 8.75082 1.23901 8.97035 1.12716C9.12388 1.04893 9.27933 1.02235 9.42142 1.01074C9.55321 0.999977 9.71087 0.999989 9.88252 1ZM9.42058 2.01982C9.42057 2.01981 9.42088 2.01968 9.42159 2.01945ZM9.42159 2.01945C9.42751 2.01761 9.45031 2.01172 9.50285 2.00742C9.58894 2.00039 9.70507 2 9.9 2H12.4333C12.6283 2 12.7444 2.00039 12.8305 2.00742C12.883 2.01172 12.9051 2.01738 12.911 2.01922C12.9408 2.0349 12.9651 2.05922 12.9808 2.08898C12.9826 2.09489 12.9883 2.11698 12.9926 2.16952C12.9996 2.2556 13 2.37173 13 2.56667V5.1C13 5.29494 12.9996 5.41107 12.9926 5.49715C12.9883 5.54969 12.9826 5.57178 12.9808 5.57769C12.9651 5.60745 12.9408 5.63177 12.911 5.64745C12.9051 5.64929 12.883 5.65495 12.8305 5.65925C12.7444 5.66628 12.6283 5.66667 12.4333 5.66667H9.9C9.70507 5.66667 9.58894 5.66628 9.50285 5.65925C9.45032 5.65495 9.42823 5.64929 9.42231 5.64745C9.39255 5.63177 9.36823 5.60745 9.35255 5.57769C9.35071 5.57177 9.34505 5.54969 9.34076 5.49715C9.33372 5.41107 9.33333 5.29494 9.33333 5.1V2.56667C9.33333 2.37173 9.33372 2.2556 9.34076 2.16952C9.34505 2.11698 9.35071 2.0949 9.35255 2.08898C9.36823 2.05922 9.39183 2.03513 9.42159 2.01945ZM9.35315 2.08725C9.35316 2.08727 9.35281 2.08834 9.35255 2.08898ZM9.35315 5.57942C9.35315 5.57945 9.35279 5.57842 9.35255 5.57769ZM9.42058 5.64685C9.4206 5.64684 9.42167 5.64719 9.42231 5.64745ZM12.9128 5.64685C12.9128 5.64685 12.9118 5.64721 12.911 5.64745ZM12.9802 5.57942C12.9802 5.5794 12.9805 5.57833 12.9808 5.57769ZM12.9802 2.08725C12.9802 2.08723 12.9806 2.08826 12.9808 2.08898ZM12.9128 2.01982C12.9127 2.01983 12.9117 2.01948 12.911 2.01922ZM3.33334 3.83334C3.33334 3.55719 3.55719 3.33334 3.83334 3.33334H3.84C4.11614 3.33334 4.34 3.55719 4.34 3.83334C4.34 4.10948 4.11614 4.33334 3.84 4.33334H3.83334C3.55719 4.33334 3.33334 4.10948 3.33334 3.83334ZM10.6667 3.83334C10.6667 3.55719 10.8905 3.33334 11.1667 3.33334H11.1733C11.4495 3.33334 11.6733 3.55719 11.6733 3.83334C11.6733 4.10948 11.4495 4.33334 11.1733 4.33334H11.1667C10.8905 4.33334 10.6667 4.10948 10.6667 3.83334ZM7 7.5C7 7.22386 7.22386 7 7.5 7H7.50667C7.78281 7 8.00667 7.22386 8.00667 7.5C8.00667 7.77614 7.78281 8 7.50667 8H7.5C7.22386 8 7 7.77614 7 7.5ZM2.5492 8.33333H5.11747C5.28913 8.33332 5.44679 8.33331 5.57858 8.34408C5.72067 8.35569 5.87612 8.38226 6.02966 8.46049C6.24918 8.57235 6.42766 8.75082 6.53951 8.97035C6.61774 9.12388 6.64432 9.27933 6.65593 9.42142C6.66669 9.55321 6.66668 9.71087 6.66667 9.88253V12.4508C6.66668 12.6225 6.66669 12.7801 6.65593 12.9119C6.64432 13.054 6.61774 13.2095 6.53951 13.363C6.42766 13.5825 6.24918 13.761 6.02966 13.8728C5.87612 13.9511 5.72067 13.9776 5.57858 13.9893C5.44679 14 5.28914 14 5.11749 14H2.54918C2.37753 14 2.21988 14 2.08809 13.9893C1.946 13.9776 1.79055 13.9511 1.63701 13.8728C1.41749 13.761 1.23901 13.5825 1.12716 13.363C1.04893 13.2095 1.02235 13.054 1.01074 12.9119C0.999977 12.7801 0.999989 12.6225 1 12.4508V9.88252C0.999989 9.71087 0.999977 9.55321 1.01074 9.42142C1.02235 9.27933 1.04893 9.12388 1.12716 8.97035C1.23901 8.75082 1.41749 8.57235 1.63701 8.46049C1.79055 8.38226 1.946 8.35569 2.08809 8.34408C2.21988 8.33331 2.37754 8.33332 2.5492 8.33333ZM2.08725 9.35315C2.08723 9.35315 2.08755 9.35301 2.08826 9.35278ZM2.08826 9.35278C2.09418 9.35094 2.11698 9.34505 2.16952 9.34076C2.2556 9.33372 2.37173 9.33333 2.56667 9.33333H5.1C5.29494 9.33333 5.41107 9.33372 5.49715 9.34076C5.54969 9.34505 5.57177 9.35071 5.57769 9.35255C5.60745 9.36823 5.63177 9.39255 5.64745 9.42231C5.64929 9.42823 5.65495 9.45032 5.65925 9.50285C5.66628 9.58894 5.66667 9.70507 5.66667 9.9V12.4333C5.66667 12.6283 5.66628 12.7444 5.65925 12.8305C5.65495 12.883 5.64929 12.9051 5.64745 12.911C5.63177 12.9408 5.60745 12.9651 5.57769 12.9808C5.57177 12.9826 5.54969 12.9883 5.49715 12.9926C5.41107 12.9996 5.29494 13 5.1 13H2.56667C2.37173 13 2.2556 12.9996 2.16952 12.9926C2.11698 12.9883 2.09489 12.9826 2.08898 12.9808C2.05922 12.9651 2.0349 12.9408 2.01922 12.911C2.01738 12.9051 2.01172 12.883 2.00742 12.8305C2.00039 12.7444 2 12.6283 2 12.4333V9.9C2 9.70507 2.00039 9.58894 2.00742 9.50285C2.01172 9.45031 2.01738 9.42823 2.01922 9.42231C2.0349 9.39255 2.0585 9.36846 2.08826 9.35278ZM2.01982 9.42058C2.01983 9.42061 2.01948 9.42168 2.01922 9.42231ZM2.01982 12.9128C2.01981 12.9128 2.01945 12.9117 2.01922 12.911ZM2.08725 12.9802C2.08727 12.9802 2.08834 12.9805 2.08898 12.9808ZM5.57942 12.9802C5.57944 12.9802 5.57841 12.9806 5.57769 12.9808ZM5.64685 12.9127C5.64685 12.9127 5.64721 12.9116 5.64745 12.911ZM5.64685 9.42058C5.64686 9.42057 5.64722 9.42161 5.64745 9.42231ZM5.57942 9.35315C5.57939 9.35316 5.57832 9.35281 5.57769 9.35255ZM10 8.83333C10 8.55719 10.2239 8.33333 10.5 8.33333H13.5C13.7761 8.33333 14 8.55719 14 8.83333C14 9.10948 13.7761 9.33333 13.5 9.33333H10.5C10.2239 9.33333 10 9.10948 10 8.83333ZM8.83333 10C9.10948 10 9.33333 10.2239 9.33333 10.5V13.5C9.33333 13.7761 9.10948 14 8.83333 14C8.55719 14 8.33333 13.7761 8.33333 13.5V10.5C8.33333 10.2239 8.55719 10 8.83333 10ZM13.5 10.3333C13.7761 10.3333 14 10.5572 14 10.8333V13.5C14 13.7761 13.7761 14 13.5 14H10.8333C10.5572 14 10.3333 13.7761 10.3333 13.5C10.3333 13.2239 10.5572 13 10.8333 13H13V10.8333C13 10.5572 13.2239 10.3333 13.5 10.3333ZM3.33334 11.1667C3.33334 10.8905 3.55719 10.6667 3.83334 10.6667H3.84C4.11614 10.6667 4.34 10.8905 4.34 11.1667C4.34 11.4428 4.11614 11.6667 3.84 11.6667H3.83334C3.55719 11.6667 3.33334 11.4428 3.33334 11.1667ZM10.6667 11.1667C10.6667 10.8905 10.8905 10.6667 11.1667 10.6667H11.1733C11.4495 10.6667 11.6733 10.8905 11.6733 11.1667C11.6733 11.4428 11.4495 11.6667 11.1733 11.6667H11.1667C10.8905 11.6667 10.6667 11.4428 10.6667 11.1667Z"/>
</svg>
