<svg width="15" height="15" viewBox="0 0 15 15" xmlns="http://www.w3.org/2000/svg">
<path fill-rule="evenodd" clip-rule="evenodd" d="M6 3C6.20842 3 6.39498 3.12929 6.46816 3.32444L9 10.076L10.0318 7.32444C10.105 7.12929 10.2916 7 10.5 7H12.5C12.7761 7 13 7.22386 13 7.5C13 7.77614 12.7761 8 12.5 8H10.8465L9.46816 11.6756C9.39498 11.8707 9.20842 12 9 12C8.79158 12 8.60502 11.8707 8.53184 11.6756L6 4.924L4.96816 7.67556C4.89498 7.87071 4.70842 8 4.5 8H2.5C2.22386 8 2 7.77614 2 7.5C2 7.22386 2.22386 7 2.5 7H4.1535L5.53184 3.32444C5.60502 3.12929 5.79158 3 6 3Z"/>
</svg>
