<svg width="15" height="15" viewBox="0 0 15 15" xmlns="http://www.w3.org/2000/svg">
<path fill-rule="evenodd" clip-rule="evenodd" d="M8.14135 1.02876C8.35813 1.10557 8.49455 1.32035 8.47193 1.54922L8.05185 5.80005H10.959C10.9655 5.80005 10.9721 5.80004 10.9788 5.80004C11.0903 5.8 11.2129 5.79995 11.3148 5.81163C11.421 5.82379 11.6137 5.85803 11.7693 6.01705C11.9319 6.1832 12.0024 6.4054 11.9999 6.61053C11.9978 6.78905 11.9279 6.93551 11.8757 7.03117C11.824 7.12574 11.752 7.23498 11.6775 7.34804L7.44317 13.7751C7.31664 13.9672 7.07543 14.0481 6.85865 13.9713C6.64187 13.8945 6.50545 13.6797 6.52807 13.4509L6.94815 9.20005H4.04101C4.03446 9.20005 4.02787 9.20005 4.02124 9.20005C3.9097 9.20009 3.78714 9.20014 3.68521 9.18847C3.57899 9.1763 3.38628 9.14207 3.2307 8.98304C3.06814 8.81689 2.99762 8.5947 3.00006 8.38956C3.00219 8.21104 3.0721 8.06459 3.12434 7.96892C3.17598 7.87436 3.24796 7.76512 3.32247 7.65207L7.55683 1.22497C7.68335 1.03292 7.92457 0.951946 8.14135 1.02876ZM7.27759 3.46645L4.16701 8.18784C4.16429 8.19197 4.16161 8.19603 4.15897 8.20005H7.5C7.64116 8.20005 7.77575 8.25972 7.87053 8.36433C7.96531 8.46894 8.01146 8.60874 7.99758 8.74922L7.72241 11.5336L10.833 6.81225C10.8357 6.80813 10.8384 6.80406 10.841 6.80005H7.5C7.35884 6.80005 7.22425 6.74038 7.12947 6.63577C7.03469 6.53115 6.98854 6.39135 7.00242 6.25087L7.27759 3.46645ZM11.0124 6.52272C11.0124 6.52271 11.0122 6.52332 11.0117 6.52458ZM3.98757 8.47737C3.98755 8.47739 3.98777 8.47678 3.98831 8.47551Z"/>
</svg>
