<svg width="14" height="14" viewBox="0 0 14 14" xmlns="http://www.w3.org/2000/svg">
<path fill-rule="evenodd" clip-rule="evenodd" d="M4.50001 2C4.64282 2 4.77883 2.06107 4.87371 2.16782L6.87371 4.41782C7.05717 4.62421 7.03858 4.94025 6.83219 5.1237C6.6258 5.30716 6.30976 5.28857 6.1263 5.08218L5.00001 3.8151V11.5C5.00001 11.7761 4.77615 12 4.50001 12C4.22386 12 4.00001 11.7761 4.00001 11.5V3.8151L2.87371 5.08218C2.69025 5.28857 2.37421 5.30716 2.16782 5.1237C1.96143 4.94025 1.94284 4.62421 2.1263 4.41782L4.1263 2.16782C4.22118 2.06107 4.35719 2 4.50001 2ZM9.50001 2C9.77615 2 10 2.22386 10 2.5V10.1849L11.1263 8.91782C11.3098 8.71143 11.6258 8.69284 11.8322 8.8763C12.0386 9.05975 12.0572 9.37579 11.8737 9.58218L9.87371 11.8322C9.77883 11.9389 9.64282 12 9.50001 12C9.35719 12 9.22118 11.9389 9.1263 11.8322L7.1263 9.58218C6.94284 9.37579 6.96143 9.05975 7.16782 8.8763C7.37421 8.69284 7.69025 8.71143 7.87371 8.91782L9.00001 10.1849V2.5C9.00001 2.22386 9.22386 2 9.50001 2Z"/>
</svg>
