<svg width="14" height="14" viewBox="0 0 14 14" xmlns="http://www.w3.org/2000/svg">
<path fill-rule="evenodd" clip-rule="evenodd" d="M6.99072 2.85946C8.13666 1.71351 9.9946 1.71351 11.1405 2.85946C12.2865 4.0054 12.2865 5.86334 11.1405 7.00928L10.452 7.69782C10.2567 7.89309 9.94016 7.89309 9.74489 7.69782C9.54963 7.50256 9.54963 7.18598 9.74489 6.99072L10.4334 6.30217C11.1889 5.54676 11.1889 4.32198 10.4334 3.56656C9.67802 2.81115 8.45324 2.81115 7.69782 3.56656L7.00928 4.25511C6.81402 4.45037 6.49744 4.45037 6.30218 4.25511C6.10691 4.05984 6.10691 3.74326 6.30218 3.548L6.99072 2.85946ZM9.05761 4.94238C9.25287 5.13764 9.25287 5.45422 9.05761 5.64948L5.64949 9.0576C5.45423 9.25286 5.13765 9.25286 4.94239 9.0576C4.74713 8.86234 4.74713 8.54576 4.94239 8.35049L8.35051 4.94238C8.54577 4.74712 8.86235 4.74712 9.05761 4.94238ZM4.25511 6.30218C4.45037 6.49744 4.45037 6.81402 4.25511 7.00928L3.56656 7.69782C2.81115 8.45324 2.81115 9.67802 3.56656 10.4334C4.32198 11.1889 5.54676 11.1889 6.30218 10.4334L6.99072 9.74489C7.18598 9.54963 7.50256 9.54963 7.69782 9.74489C7.89309 9.94015 7.89309 10.2567 7.69783 10.452L7.00928 11.1405C5.86334 12.2865 4.0054 12.2865 2.85946 11.1405C1.71351 9.9946 1.71351 8.13666 2.85946 6.99072L3.548 6.30218C3.74326 6.10691 4.05985 6.10691 4.25511 6.30218Z"/>
</svg>
