<svg width="16" height="16" viewBox="0 0 16 16" fill="none" xmlns="http://www.w3.org/2000/svg">
<path fill-rule="evenodd" clip-rule="evenodd" d="M12 2H4C2.89543 2 2 2.89543 2 4V12C2 13.1046 2.89543 14 4 14H12C13.1046 14 14 13.1046 14 12V4C14 2.89543 13.1046 2 12 2ZM4 1C2.34315 1 1 2.34315 1 4V12C1 13.6569 2.34315 15 4 15H12C13.6569 15 15 13.6569 15 12V4C15 2.34315 13.6569 1 12 1H4Z" fill="#000000"/>
<path fill-rule="evenodd" clip-rule="evenodd" d="M5 9.5C4.17157 9.5 3.5 10.1716 3.5 11C3.5 11.8284 4.17157 12.5 5 12.5C5.82843 12.5 6.5 11.8284 6.5 11C6.5 10.1716 5.82843 9.5 5 9.5ZM2.5 11C2.5 9.61929 3.61929 8.5 5 8.5C6.38071 8.5 7.5 9.61929 7.5 11C7.5 12.3807 6.38071 13.5 5 13.5C3.61929 13.5 2.5 12.3807 2.5 11Z" fill="#000000"/>
</svg>
