<svg width="14" height="14" viewBox="0 0 14 14" xmlns="http://www.w3.org/2000/svg">
<path fill-rule="evenodd" clip-rule="evenodd" d="M5.96434 2.03299C5.88899 2.00674 5.79367 2.0001 5.36226 2.0001H3.26C2.94364 2.0001 2.73674 2.0005 2.57865 2.01354C2.42654 2.0261 2.3644 2.04778 2.32942 2.06578C2.21692 2.12368 2.12452 2.21656 2.06631 2.33196C2.04762 2.36902 2.02588 2.43366 2.01336 2.58841C2.00115 2.73936 2.00009 2.93392 2.00001 3.22232H6.7446L6.48835 2.70464C6.29566 2.31538 6.24633 2.23036 6.1882 2.17286C6.12442 2.10976 6.0479 2.0621 5.96434 2.03299ZM7.8604 3.22232L7.38456 2.26102C7.37471 2.24112 7.36498 2.22141 7.35535 2.20191C7.20816 1.90372 7.08422 1.65262 6.8915 1.46197C6.72232 1.29459 6.51806 1.16695 6.29335 1.08866C6.03698 0.999344 5.75749 0.999668 5.42805 1.00005C5.40634 1.00007 5.38441 1.0001 5.36226 1.0001L3.24021 1.0001C2.94906 1.00009 2.70055 1.00008 2.4964 1.01693C2.28165 1.03465 2.07213 1.07353 1.8718 1.17663C1.57034 1.33178 1.32618 1.57885 1.17347 1.88159C1.07227 2.08222 1.03407 2.29198 1.01661 2.50779C0.999986 2.71338 0.999992 2.96386 1 3.25837L1 8.8542C0.999995 9.30327 0.99999 9.67024 1.02411 9.96841C1.04906 10.2769 1.10224 10.5552 1.23342 10.8153C1.43886 11.2225 1.76716 11.5546 2.17211 11.763C2.43126 11.8964 2.7087 11.9504 3.01516 11.9757C3.31096 12.0001 3.67478 12.0001 4.1189 12.0001H9.8811C10.3252 12.0001 10.689 12.0001 10.9848 11.9757C11.2913 11.9504 11.5687 11.8964 11.8279 11.763C12.2328 11.5546 12.5611 11.2225 12.7666 10.8153C12.8978 10.5552 12.9509 10.2769 12.9759 9.96841C13 9.67024 13 9.30328 13 8.85421V6.36821C13 5.91914 13 5.55218 12.9759 5.25401C12.9509 4.94557 12.8978 4.6672 12.7666 4.40715C12.5611 3.99988 12.2328 3.66782 11.8279 3.4594C11.5687 3.32603 11.2913 3.27201 10.9848 3.24672C10.689 3.22231 10.3252 3.22232 9.8811 3.22232L7.8604 3.22232ZM7.53986 4.22232C7.54686 4.22247 7.55388 4.22247 7.5609 4.22232H9.86C10.3304 4.22232 10.6528 4.22272 10.9026 4.24334C11.1464 4.26346 11.2765 4.30027 11.3703 4.34855C11.5863 4.45972 11.7628 4.63759 11.8737 4.85753C11.9224 4.954 11.9591 5.08724 11.9791 5.33464C11.9996 5.58772 12 5.91411 12 6.38899V8.83343C12 9.30831 11.9996 9.6347 11.9791 9.88778C11.9591 10.1352 11.9224 10.2684 11.8737 10.3649C11.7628 10.5848 11.5863 10.7627 11.3703 10.8739C11.2765 10.9221 11.1464 10.959 10.9026 10.9791C10.6528 10.9997 10.3304 11.0001 9.86 11.0001H4.14C3.66962 11.0001 3.34722 10.9997 3.09741 10.9791C2.85359 10.959 2.72353 10.9221 2.62973 10.8739C2.41374 10.7627 2.2372 10.5848 2.12626 10.3649C2.0776 10.2684 2.04086 10.1352 2.02085 9.88778C2.00038 9.6347 2 9.30831 2 8.83343V4.22232H7.53986Z"/>
</svg>
