<svg width="15" height="15" viewBox="0 0 15 15" xmlns="http://www.w3.org/2000/svg">
<path fill-rule="evenodd" clip-rule="evenodd" d="M4.35834 2H10.6417C10.9187 2 11.1515 1.99999 11.343 2.01305C11.5428 2.02668 11.7338 2.05619 11.9197 2.13321C12.3485 2.31083 12.6892 2.6515 12.8668 3.0803C12.9215 3.21243 12.944 3.37961 12.9571 3.50444C12.9722 3.64813 12.9817 3.81528 12.9878 3.98558C13 4.32514 13 4.70701 13 4.99592V5C13 5.27614 12.7761 5.5 12.5 5.5C12.2239 5.5 12 5.27614 12 5C12 4.70697 11.9999 4.34152 11.9884 4.02153C11.9827 3.86126 11.9743 3.71989 11.9626 3.60898C11.9539 3.52619 11.9454 3.48259 11.9422 3.46635C11.9404 3.45714 11.9403 3.45674 11.9429 3.46299C11.8668 3.27922 11.7208 3.13321 11.537 3.05709C11.4932 3.03896 11.4238 3.02089 11.2749 3.01073C11.1216 3.00027 10.9231 3 10.625 3H8V12H10C10.2761 12 10.5 12.2239 10.5 12.5C10.5 12.7761 10.2761 13 10 13H5C4.72386 13 4.5 12.7761 4.5 12.5C4.5 12.2239 4.72386 12 5 12H7V3H4.375C4.07695 3 3.87845 3.00027 3.72509 3.01073C3.57623 3.02089 3.50677 3.03896 3.46299 3.05709C3.27922 3.13321 3.13321 3.27922 3.05709 3.46299C3.05968 3.45674 3.0596 3.45714 3.0578 3.46635C3.05463 3.48259 3.0461 3.52619 3.0374 3.60898C3.02574 3.71989 3.01734 3.86126 3.01157 4.02153C3.00006 4.34152 3 4.70697 3 5C3 5.27614 2.77614 5.5 2.5 5.5C2.22386 5.5 2 5.27614 2 5V4.99596C2 4.70704 2 4.32515 2.01222 3.98558C2.01834 3.81528 2.02778 3.64813 2.04288 3.50444C2.056 3.37961 2.07848 3.21243 2.13321 3.0803C2.31083 2.65151 2.6515 2.31083 3.0803 2.13321C3.26624 2.05619 3.45724 2.02668 3.65702 2.01305C3.84848 1.99999 4.08131 2 4.35834 2Z" fill="#000000"/>
</svg>
