<svg width="16" height="16" viewBox="0 0 16 16" xmlns="http://www.w3.org/2000/svg">
<path fill-rule="evenodd" clip-rule="evenodd" d="M4.35756 3H8.64244C9.12743 2.99999 9.52378 2.99999 9.84584 3.02818C10.1798 3.05741 10.4791 3.11974 10.7568 3.27134C11.192 3.50893 11.5395 3.88442 11.7554 4.33829C11.8911 4.62366 11.9473 4.93109 11.974 5.28102C12 5.62169 12 6.0426 12 6.56562V6.73149L13.3289 5.30764C13.4454 5.1828 13.5548 5.06557 13.6497 4.98048C13.7329 4.90586 13.9008 4.76274 14.1344 4.74304C14.4047 4.72025 14.6578 4.83893 14.8191 5.0413C14.9562 5.21331 14.9797 5.42045 14.9893 5.53669C15 5.66623 15 5.82992 15 6.00792V9.99208C15 10.1701 15 10.3338 14.9893 10.4633C14.9797 10.5796 14.9562 10.7867 14.8191 10.9587C14.6578 11.1611 14.4047 11.2797 14.1344 11.257C13.9008 11.2373 13.7329 11.0941 13.6497 11.0195C13.5548 10.9344 13.4454 10.8172 13.3289 10.6924L12 9.26851V9.43438C12 9.9574 12 10.3783 11.974 10.719C11.9473 11.0689 11.8911 11.3763 11.7554 11.6617C11.5395 12.1156 11.192 12.4911 10.7568 12.7287C10.4791 12.8803 10.1798 12.9426 9.84584 12.9718C9.52378 13 9.12741 13 8.64242 13H4.35758C3.87259 13 3.47622 13 3.15416 12.9718C2.82022 12.9426 2.52093 12.8803 2.24323 12.7287C1.80803 12.4911 1.46049 12.1156 1.24465 11.6617C1.10894 11.3763 1.05265 11.0689 1.02597 10.719C0.999993 10.3783 0.999996 9.95738 1 9.43435V6.56565C0.999996 6.04262 0.999993 5.62169 1.02597 5.28102C1.05265 4.93109 1.10894 4.62366 1.24465 4.33829C1.46049 3.88442 1.80803 3.50892 2.24323 3.27134C2.52093 3.11974 2.82022 3.05741 3.15416 3.02818C3.47621 2.99999 3.87258 2.99999 4.35756 3ZM11 7.99951C11 7.99918 11 7.99984 11 7.99951V6.58571C11 6.03796 10.9997 5.65522 10.9769 5.35705C10.9546 5.06379 10.9127 4.89492 10.8523 4.76775C10.723 4.49585 10.5198 4.28128 10.2776 4.14906C10.1703 4.09046 10.025 4.04769 9.75863 4.02437C9.48533 4.00045 9.13288 4 8.62 4H4.38C3.86712 4 3.51467 4.00045 3.24137 4.02437C2.975 4.04769 2.82975 4.09046 2.7224 4.14906C2.48022 4.28128 2.27703 4.49585 2.14773 4.76775C2.08725 4.89492 2.04544 5.06379 2.02308 5.35705C2.00034 5.65522 2 6.03796 2 6.58572V9.41429C2 9.96204 2.00034 10.3448 2.02308 10.643C2.04544 10.9362 2.08725 11.1051 2.14773 11.2322C2.27703 11.5041 2.48022 11.7187 2.7224 11.8509C2.82975 11.9095 2.975 11.9523 3.24137 11.9756C3.51467 11.9996 3.86712 12 4.38 12H8.62C9.13288 12 9.48533 11.9996 9.75863 11.9756C10.025 11.9523 10.1703 11.9095 10.2776 11.8509C10.5198 11.7187 10.723 11.5041 10.8523 11.2322C10.9127 11.1051 10.9546 10.9362 10.9769 10.643C10.9997 10.3448 11 9.96204 11 9.41429V7.99951ZM12.1839 8L14 9.94578V6.05423L12.1839 8Z"/>
</svg>
