<svg width="16" height="16" viewBox="0 0 16 16" xmlns="http://www.w3.org/2000/svg">
<path fill-rule="evenodd" clip-rule="evenodd" d="M8 1.5C8.27614 1.5 8.5 1.72386 8.5 2V4.4C8.5 4.67614 8.27614 4.9 8 4.9C7.72386 4.9 7.5 4.67614 7.5 4.4V2C7.5 1.72386 7.72386 1.5 8 1.5ZM3.39939 3.44641C3.59465 3.25115 3.91123 3.25115 4.1065 3.44641L5.80355 5.14347C5.99882 5.33873 5.99882 5.65531 5.80355 5.85057C5.60829 6.04584 5.29171 6.04584 5.09645 5.85057L3.39939 4.15352C3.20413 3.95826 3.20413 3.64167 3.39939 3.44641ZM12.6006 3.44641C12.7959 3.64167 12.7959 3.95826 12.6006 4.15352L10.9036 5.85057C10.7083 6.04584 10.3917 6.04584 10.1964 5.85057C10.0012 5.65531 10.0012 5.33873 10.1964 5.14347L11.8935 3.44641C12.0888 3.25115 12.4053 3.25115 12.6006 3.44641ZM1.5 8C1.5 7.72386 1.72386 7.5 2 7.5H4.4C4.67614 7.5 4.9 7.72386 4.9 8C4.9 8.27614 4.67614 8.5 4.4 8.5H2C1.72386 8.5 1.5 8.27614 1.5 8ZM11.1 8C11.1 7.72386 11.3239 7.5 11.6 7.5H14C14.2761 7.5 14.5 7.72386 14.5 8C14.5 8.27614 14.2761 8.5 14 8.5H11.6C11.3239 8.5 11.1 8.27614 11.1 8ZM5.80355 10.1964C5.99882 10.3917 5.99882 10.7083 5.80355 10.9036L4.1065 12.6006C3.91123 12.7959 3.59465 12.7959 3.39939 12.6006C3.20413 12.4053 3.20413 12.0888 3.39939 11.8935L5.09645 10.1964C5.29171 10.0012 5.60829 10.0012 5.80355 10.1964ZM10.1964 10.1964C10.3917 10.0012 10.7083 10.0012 10.9036 10.1964L12.6006 11.8935C12.7959 12.0888 12.7959 12.4053 12.6006 12.6006C12.4053 12.7959 12.0888 12.7959 11.8935 12.6006L10.1964 10.9036C10.0012 10.7083 10.0012 10.3917 10.1964 10.1964ZM8 11.1C8.27614 11.1 8.5 11.3239 8.5 11.6V14C8.5 14.2761 8.27614 14.5 8 14.5C7.72386 14.5 7.5 14.2761 7.5 14V11.6C7.5 11.3239 7.72386 11.1 8 11.1Z"/>
</svg>
