<svg width="14" height="14" viewBox="0 0 14 14" xmlns="http://www.w3.org/2000/svg">
<path fill-rule="evenodd" clip-rule="evenodd" d="M5.14212 2C5.14821 2 5.15432 2 5.16044 2L8.85788 2C9.04236 1.99999 9.20983 1.99998 9.34621 2.01099C9.48638 2.02231 9.65936 2.04874 9.82131 2.14424C10.0394 2.27285 10.2091 2.48394 10.27 2.74472C10.3171 2.94665 10.2719 3.12839 10.2285 3.25768C10.1872 3.38088 10.1225 3.52459 10.0555 3.67364C10.0527 3.6799 10.0498 3.68617 10.047 3.69244L9.53721 4.8263L9.5239 4.85601L9.52335 4.85729L9.5233 4.88866V5.84744L9.52345 5.90515C9.52346 5.90614 9.52346 5.9071 9.52347 5.90804C9.52591 5.91083 9.52861 5.91389 9.53161 5.91728L9.57244 5.96289L10.3817 6.86278C10.537 7.03548 10.6765 7.19065 10.7749 7.32297C10.8677 7.44789 10.9997 7.64727 11 7.89891C11.0004 8.21233 10.8398 8.4885 10.5992 8.65936C10.4125 8.79195 10.1922 8.82272 10.0267 8.83609C9.85432 8.85002 9.63518 8.85001 9.38312 8.85L7.5 8.85L7.5 11.5C7.5 11.7761 7.27614 12 7 12C6.72386 12 6.5 11.7761 6.5 11.5L6.5 8.85L4.61688 8.85C4.36482 8.85001 4.14568 8.85002 3.97327 8.83609C3.80781 8.82272 3.58748 8.79195 3.40077 8.65936C3.16017 8.4885 2.99962 8.21233 3 7.89891C3.00031 7.64727 3.1323 7.44789 3.22513 7.32297C3.32347 7.19065 3.46302 7.03548 3.61834 6.86278L4.42756 5.96289L4.46839 5.91728C4.47139 5.91389 4.47409 5.91083 4.47653 5.90804C4.47654 5.9071 4.47655 5.90614 4.47655 5.90515L4.4767 5.84744V4.88866L4.47665 4.85729L4.4761 4.85601L4.46279 4.8263L3.95298 3.69244C3.95015 3.68616 3.94733 3.67989 3.94452 3.67363C3.87748 3.52459 3.81284 3.38088 3.77151 3.25768C3.72815 3.12839 3.68286 2.94665 3.73003 2.74472C3.79094 2.48394 3.96062 2.27285 4.17869 2.14424C4.34064 2.04874 4.51362 2.02231 4.65379 2.01099C4.79017 1.99998 4.95764 1.99999 5.14212 2ZM9.36271 7.85C9.61632 7.85 9.78659 7.84967 9.91098 7.84185C9.84464 7.76156 9.75238 7.65853 9.6229 7.51455L8.82887 6.63155C8.82439 6.62657 8.81972 6.6214 8.81488 6.61606C8.76442 6.56026 8.69615 6.48478 8.64509 6.39587C8.6004 6.31804 8.56688 6.23369 8.54643 6.14501C8.52265 6.04195 8.52301 5.93867 8.52326 5.86721C8.52328 5.86032 8.5233 5.85372 8.5233 5.84744V4.88866C8.5233 4.88519 8.5233 4.88155 8.52329 4.87773C8.52321 4.838 8.5231 4.78046 8.5307 4.7215C8.53726 4.67058 8.54814 4.62046 8.56312 4.57161C8.58035 4.51542 8.60392 4.46326 8.62058 4.42639C8.62217 4.42285 8.62371 4.41946 8.62516 4.41622L9.13497 3.28236C9.19141 3.15685 9.22957 3.07123 9.25533 3.00695C9.16503 3.00036 9.0405 3 8.83956 3H5.16044C4.95951 3 4.83497 3.00036 4.74467 3.00695C4.77043 3.07123 4.80859 3.15685 4.86503 3.28236L5.37484 4.41622C5.37629 4.41946 5.37783 4.42285 5.37942 4.42638C5.39608 4.46326 5.41965 4.51542 5.43688 4.57161C5.45186 4.62046 5.46274 4.67058 5.4693 4.7215C5.4769 4.78046 5.47679 4.838 5.47671 4.87773C5.4767 4.88155 5.4767 4.88519 5.4767 4.88866V5.84744C5.4767 5.85371 5.47672 5.86032 5.47674 5.86721C5.47699 5.93867 5.47735 6.04195 5.45357 6.14501C5.43312 6.23369 5.3996 6.31805 5.35491 6.39587C5.30385 6.48478 5.23559 6.56026 5.18512 6.61606C5.18028 6.6214 5.17561 6.62657 5.17113 6.63155L4.3771 7.51455C4.24762 7.65853 4.15536 7.76156 4.08902 7.84185C4.21341 7.84967 4.38368 7.85 4.63729 7.85H9.36271Z"/>
</svg>
