<svg width="14" height="14" viewBox="0 0 14 14" xmlns="http://www.w3.org/2000/svg">
<path fill-rule="evenodd" clip-rule="evenodd" d="M4.85 7C4.85 8.18741 5.81259 9.15 7 9.15C8.18741 9.15 9.15 8.18741 9.15 7C9.15 5.81259 8.18741 4.85 7 4.85C5.81259 4.85 4.85 5.81259 4.85 7ZM7 5.85C6.36487 5.85 5.85 6.36487 5.85 7C5.85 7.63513 6.36487 8.15 7 8.15C7.63513 8.15 8.15 7.63513 8.15 7C8.15 6.36487 7.63513 5.85 7 5.85Z"/>
<path fill-rule="evenodd" clip-rule="evenodd" d="M6.96 13C6.97335 13 6.98669 12.9998 7 12.9995C7.01331 12.9998 7.02665 13 7.04 13C7.43783 13 7.81936 12.842 8.10066 12.5607C8.38196 12.2794 8.54 11.8978 8.54 11.5V11.4163C8.5404 11.3531 8.55917 11.2915 8.59403 11.2388C8.62902 11.186 8.67872 11.1446 8.73698 11.1196L8.74188 11.1174C8.80129 11.0912 8.86719 11.0834 8.93109 11.095C8.9943 11.1064 9.05267 11.1364 9.09886 11.181L9.12625 11.2084C9.26556 11.3478 9.43099 11.4585 9.61309 11.5339C9.79519 11.6094 9.99038 11.6483 10.1875 11.6483C10.3846 11.6483 10.5798 11.6094 10.7619 11.5339C10.9439 11.4585 11.1093 11.3479 11.2486 11.2086C11.3879 11.0693 11.4985 10.9039 11.5739 10.7219C11.6494 10.5398 11.6883 10.3446 11.6883 10.1475C11.6883 9.95038 11.6494 9.75519 11.5739 9.57309C11.4985 9.39108 11.3877 9.22552 11.2484 9.08625L11.2209 9.05883C11.1764 9.01265 11.1464 8.95428 11.135 8.89109C11.1234 8.82719 11.1312 8.7613 11.1575 8.70189L11.1596 8.69697C11.1845 8.63871 11.226 8.58902 11.2788 8.55403C11.3315 8.51917 11.3931 8.5004 11.4563 8.5H11.5C11.8978 8.5 12.2794 8.34196 12.5607 8.06066C12.842 7.77936 13 7.39783 13 7C13 6.60217 12.842 6.22064 12.5607 5.93934C12.2794 5.65804 11.8978 5.5 11.5 5.5H11.4163C11.3531 5.4996 11.2915 5.48083 11.2388 5.44597C11.2034 5.42249 11.1731 5.3924 11.1494 5.35754C11.1423 5.32346 11.1316 5.29014 11.1174 5.25812C11.0912 5.19871 11.0834 5.13281 11.095 5.06891C11.1064 5.00571 11.1364 4.94734 11.181 4.90115L11.2086 4.87355C11.3479 4.73428 11.4585 4.56892 11.5339 4.38691C11.6094 4.20481 11.6483 4.00962 11.6483 3.8125C11.6483 3.61538 11.6094 3.42019 11.5339 3.23809C11.4585 3.05616 11.348 2.89087 11.2087 2.75164C11.0694 2.61218 10.904 2.50154 10.7219 2.42605C10.5398 2.35057 10.3446 2.31171 10.1475 2.31171C9.95038 2.31171 9.75519 2.35057 9.57309 2.42605C9.391 2.50154 9.22556 2.61218 9.08625 2.75164L9.05884 2.77906C9.01265 2.82364 8.95429 2.85357 8.89109 2.86502C8.82719 2.87661 8.7613 2.86876 8.70189 2.84254L8.69697 2.84043C8.63871 2.81546 8.58902 2.774 8.55403 2.72116C8.51917 2.66852 8.5004 2.60687 8.5 2.54375V2.5C8.5 2.10217 8.34196 1.72064 8.06066 1.43934C7.77936 1.15804 7.39782 1 7 1C6.60218 1 6.22064 1.15804 5.93934 1.43934C5.65804 1.72064 5.5 2.10217 5.5 2.5V2.54375C5.4996 2.60687 5.48083 2.66852 5.44597 2.72116C5.41098 2.774 5.36129 2.81546 5.30303 2.84043L5.29811 2.84254C5.2387 2.86876 5.17281 2.87661 5.10891 2.86502C5.04571 2.85357 4.98735 2.82364 4.94116 2.77906L4.91375 2.75164C4.77444 2.61218 4.609 2.50154 4.42691 2.42605C4.24481 2.35057 4.04962 2.31171 3.8525 2.31171C3.65538 2.31171 3.46019 2.35057 3.27809 2.42605C3.09599 2.50154 2.93056 2.61218 2.79125 2.75164C2.65197 2.89087 2.54147 3.05616 2.46605 3.23809C2.39057 3.42019 2.35171 3.61538 2.35171 3.8125C2.35171 4.00962 2.39057 4.20481 2.46605 4.38691C2.5415 4.56892 2.65207 4.73428 2.79144 4.87355L2.81905 4.90115C2.86364 4.94734 2.89356 5.00571 2.90502 5.06891C2.91661 5.13281 2.90879 5.19871 2.88257 5.25812C2.86844 5.29014 2.85775 5.32346 2.85061 5.35754C2.82695 5.3924 2.79662 5.42249 2.76116 5.44597C2.70852 5.48083 2.64687 5.4996 2.58375 5.5H2.5C2.10217 5.5 1.72064 5.65804 1.43934 5.93934C1.15804 6.22064 1 6.60217 1 7C1 7.39783 1.15804 7.77936 1.43934 8.06066C1.72064 8.34196 2.10217 8.5 2.5 8.5H2.54375C2.60687 8.5004 2.66852 8.51917 2.72116 8.55403C2.774 8.58902 2.81546 8.63871 2.84043 8.69697L2.84254 8.70189C2.86876 8.7613 2.87661 8.82719 2.86502 8.89109C2.85357 8.95428 2.82365 9.01265 2.77906 9.05883L2.75164 9.08625C2.61227 9.22552 2.5015 9.39108 2.42605 9.57309C2.35057 9.75519 2.31171 9.95038 2.31171 10.1475C2.31171 10.3446 2.35057 10.5398 2.42605 10.7219C2.5015 10.9039 2.61207 11.0693 2.75144 11.2086C2.89071 11.3479 3.05608 11.4585 3.23809 11.5339C3.42019 11.6094 3.61538 11.6483 3.8125 11.6483C4.00962 11.6483 4.20481 11.6094 4.38691 11.5339C4.56901 11.4585 4.73444 11.3478 4.87375 11.2084L4.90114 11.181C4.94733 11.1364 5.0057 11.1064 5.06891 11.095C5.13281 11.0834 5.19871 11.0912 5.25812 11.1174L5.26302 11.1196C5.32128 11.1446 5.37098 11.186 5.40597 11.2388C5.44083 11.2915 5.4596 11.3531 5.46 11.4163V11.5C5.46 11.8978 5.61804 12.2794 5.89934 12.5607C6.18064 12.842 6.56217 13 6.96 13ZM7 2C6.86739 2 6.74022 2.05268 6.64645 2.14645C6.55268 2.24022 6.5 2.36739 6.5 2.5V2.545L6.5 2.54699C6.49897 2.8054 6.4224 3.05786 6.27972 3.27331C6.13754 3.488 5.93588 3.6566 5.69944 3.75851C5.45787 3.86454 5.19012 3.89606 4.9305 3.84898C4.67 3.80175 4.4296 3.67758 4.24035 3.49245L4.20625 3.45836C4.15981 3.41187 4.10467 3.37499 4.04397 3.34983C3.98327 3.32466 3.91821 3.31171 3.8525 3.31171C3.78679 3.31171 3.72173 3.32466 3.66103 3.34983C3.60033 3.37499 3.54479 3.41226 3.49836 3.45875C3.45187 3.50519 3.41499 3.56033 3.38983 3.62103C3.36466 3.68173 3.35171 3.74679 3.35171 3.8125C3.35171 3.87821 3.36466 3.94327 3.38983 4.00397C3.41499 4.06467 3.45207 4.12001 3.49856 4.16645L3.52858 4.19643L3.53243 4.20037C3.71756 4.38962 3.84175 4.63 3.88898 4.8905C3.92999 5.11666 3.91136 5.34899 3.83578 5.5648C3.82985 5.61021 3.81769 5.65469 3.79957 5.69697C3.69778 5.93448 3.52875 6.13704 3.31331 6.27972C3.09786 6.4224 2.8454 6.49897 2.58699 6.5L2.585 6.5H2.5C2.36739 6.5 2.24022 6.55268 2.14645 6.64645C2.05268 6.74022 2 6.86739 2 7C2 7.13261 2.05268 7.25978 2.14645 7.35355C2.24022 7.44732 2.36739 7.5 2.5 7.5L2.545 7.5L2.54699 7.5C2.8054 7.50103 3.05786 7.5776 3.27331 7.72028C3.48802 7.86248 3.65663 8.06415 3.75853 8.30062C3.86455 8.54217 3.89605 8.8099 3.84898 9.0695C3.80175 9.33 3.67758 9.5704 3.49245 9.75965L3.45835 9.79375C3.41187 9.84018 3.37499 9.89533 3.34983 9.95603C3.32466 10.0167 3.31171 10.0818 3.31171 10.1475C3.31171 10.2132 3.32467 10.2783 3.34983 10.339C3.37499 10.3997 3.41226 10.4552 3.45875 10.5016C3.50519 10.5481 3.56033 10.585 3.62103 10.6102C3.68173 10.6353 3.74679 10.6483 3.8125 10.6483C3.87821 10.6483 3.94327 10.6353 4.00397 10.6102C4.06467 10.585 4.12001 10.5479 4.16645 10.5014L4.19643 10.4714L4.20037 10.4676C4.38962 10.2824 4.63 10.1583 4.8905 10.111C5.15012 10.0639 5.41786 10.0955 5.65943 10.2015C5.89588 10.3034 6.09753 10.472 6.23972 10.6867C6.3824 10.9021 6.45897 11.1546 6.46 11.413L6.46 11.415V11.5C6.46 11.6326 6.51268 11.7598 6.60645 11.8536C6.70022 11.9473 6.82739 12 6.96 12C6.9734 12 6.98674 11.9995 7 11.9984C7.01326 11.9995 7.0266 12 7.04 12C7.17261 12 7.29978 11.9473 7.39355 11.8536C7.48732 11.7598 7.54 11.6326 7.54 11.5V11.415L7.54 11.413C7.54103 11.1546 7.6176 10.9021 7.76028 10.6867C7.90247 10.472 8.10412 10.3034 8.34057 10.2015C8.58214 10.0955 8.84988 10.0639 9.1095 10.111C9.37 10.1583 9.61038 10.2824 9.79963 10.4676L9.80357 10.4714L9.83355 10.5014C9.87999 10.5479 9.93533 10.585 9.99603 10.6102C10.0567 10.6353 10.1218 10.6483 10.1875 10.6483C10.2532 10.6483 10.3183 10.6353 10.379 10.6102C10.4397 10.585 10.4948 10.5481 10.5413 10.5016C10.5877 10.4552 10.625 10.3997 10.6502 10.339C10.6753 10.2783 10.6883 10.2132 10.6883 10.1475C10.6883 10.0818 10.6753 10.0167 10.6502 9.95603C10.625 9.89533 10.5881 9.84018 10.5416 9.79375L10.5075 9.75965C10.3224 9.5704 10.1983 9.33 10.151 9.0695C10.1039 8.8099 10.1355 8.54217 10.2415 8.30062C10.3434 8.06415 10.512 7.86248 10.7267 7.72028C10.9421 7.5776 11.1946 7.50103 11.453 7.5L11.455 7.5L11.5 7.5C11.6326 7.5 11.7598 7.44732 11.8536 7.35355C11.9473 7.25978 12 7.13261 12 7C12 6.86739 11.9473 6.74022 11.8536 6.64645C11.7598 6.55268 11.6326 6.5 11.5 6.5H11.415L11.413 6.5C11.1546 6.49897 10.9021 6.4224 10.6867 6.27972C10.4712 6.13704 10.3022 5.93448 10.2004 5.69697C10.1823 5.65469 10.1702 5.61021 10.1642 5.5648C10.0886 5.34899 10.07 5.11666 10.111 4.8905C10.1583 4.63 10.2824 4.38962 10.4676 4.20037L10.4714 4.19643L10.5014 4.16645C10.5479 4.12001 10.585 4.06467 10.6102 4.00397C10.6353 3.94327 10.6483 3.87821 10.6483 3.8125C10.6483 3.74679 10.6353 3.68173 10.6102 3.62103C10.585 3.56033 10.5481 3.50519 10.5016 3.45875C10.4552 3.41226 10.3997 3.37499 10.339 3.34983C10.2783 3.32466 10.2132 3.31171 10.1475 3.31171C10.0818 3.31171 10.0167 3.32466 9.95603 3.34983C9.89533 3.37499 9.84019 3.41187 9.79375 3.45836L9.75965 3.49245C9.5704 3.67758 9.33 3.80175 9.0695 3.84898C8.80988 3.89606 8.54213 3.86454 8.30056 3.75851C8.06412 3.6566 7.86246 3.488 7.72028 3.27331C7.5776 3.05786 7.50103 2.8054 7.5 2.54699L7.5 2.545V2.5C7.5 2.36739 7.44732 2.24022 7.35355 2.14645C7.25978 2.05268 7.13261 2 7 2Z"/>
</svg>
