<svg width="15" height="15" viewBox="0 0 15 15" fill="none" xmlns="http://www.w3.org/2000/svg">
<path fill-rule="evenodd" clip-rule="evenodd" d="M7.5 2C7.77614 2 8 2.22386 8 2.5V12.5C8 12.7761 7.77614 13 7.5 13C7.22386 13 7 12.7761 7 12.5V2.5C7 2.22386 7.22386 2 7.5 2ZM3.00702 5.13258C3.20993 4.94528 3.52626 4.95794 3.71356 5.16085L5.55971 7.16088C5.73651 7.35242 5.73651 7.64764 5.55971 7.83917L3.71355 9.83911C3.52625 10.042 3.20992 10.0547 3.00701 9.86737C2.8041 9.68006 2.79145 9.36373 2.97876 9.16083L4.0503 8.00002H1.5C1.22386 8.00002 1 7.77616 1 7.50002C1 7.22388 1.22386 7.00002 1.5 7.00002H4.05033L2.97875 5.83912C2.79145 5.63621 2.8041 5.31988 3.00702 5.13258ZM11.993 5.13258C12.1959 5.31988 12.2086 5.63621 12.0213 5.83912L10.9497 7.00002H13.5C13.7761 7.00002 14 7.22388 14 7.50002C14 7.77616 13.7761 8.00002 13.5 8.00002H10.9497L12.0212 9.16083C12.2085 9.36373 12.1959 9.68006 11.993 9.86737C11.7901 10.0547 11.4738 10.042 11.2864 9.83911L9.44029 7.83917C9.26349 7.64764 9.26349 7.35242 9.44029 7.16088L11.2864 5.16085C11.4737 4.95794 11.7901 4.94528 11.993 5.13258Z" fill="black"/>
</svg>
