<svg width="14" height="14" viewBox="0 0 14 14" xmlns="http://www.w3.org/2000/svg">
<path fill-rule="evenodd" clip-rule="evenodd" d="M4.45032 2.12482C5.12057 1.40892 6.03694 1 6.99998 1C7.96303 1 8.8794 1.40892 9.54965 2.12482C10.2189 2.83961 10.5896 3.80242 10.5896 4.8C10.5896 6.4172 10.9705 7.49304 11.3714 8.18129L11.3769 8.1907C11.5614 8.5074 11.7065 8.75641 11.8041 8.93727C11.853 9.02793 11.8966 9.11354 11.9285 9.18858C11.9444 9.22608 11.9616 9.27055 11.9748 9.31799C11.986 9.35799 12.0058 9.43865 11.9983 9.53559C11.9929 9.60634 11.9798 9.72221 11.9173 9.84249C11.8535 9.96518 11.7645 10.0423 11.7071 10.0878C11.5791 10.1891 11.4294 10.2128 11.3789 10.2208L11.3775 10.221C11.3006 10.2332 11.2137 10.2392 11.1266 10.2428C10.9536 10.25 10.7143 10.25 10.4175 10.25H3.58246C3.28563 10.25 3.04636 10.25 2.87337 10.2428C2.78624 10.2392 2.69933 10.2332 2.62249 10.221L2.62102 10.2208C2.57053 10.2128 2.42083 10.1891 2.29288 10.0878C2.23547 10.0423 2.14651 9.96518 2.0827 9.84249C2.02014 9.72221 2.00704 9.60634 2.00163 9.53559C1.9942 9.43865 2.01397 9.35799 2.02512 9.31799C2.03835 9.27055 2.05553 9.22608 2.07147 9.18858C2.10337 9.11354 2.14699 9.02793 2.19591 8.93727C2.2935 8.75641 2.43857 8.5074 2.62307 8.1907L2.62855 8.18129C3.02951 7.49304 3.4104 6.4172 3.4104 4.8C3.4104 3.80242 3.78111 2.83961 4.45032 2.12482ZM6.99998 2C6.32421 2 5.66888 2.28643 5.18031 2.80827C4.6907 3.33123 4.4104 4.04715 4.4104 4.8C4.4104 6.58201 3.98848 7.83351 3.49262 8.68467C3.35745 8.9167 3.2495 9.10207 3.16645 9.24895C3.28449 9.24997 3.42619 9.25 3.5957 9.25H10.4043C10.5738 9.25 10.7155 9.24997 10.8335 9.24895C10.7505 9.10207 10.6425 8.9167 10.5073 8.68467C10.0115 7.83351 9.58957 6.58201 9.58957 4.8C9.58957 4.04715 9.30927 3.33123 8.81965 2.80827C8.33108 2.28643 7.67576 2 6.99998 2ZM5.27375 11.607C5.46317 11.4061 5.77962 11.3968 5.98055 11.5862C6.25764 11.8474 6.61415 12 6.99998 12C7.38582 12 7.74232 11.8474 8.01942 11.5862C8.22035 11.3968 8.5368 11.4061 8.72622 11.607C8.91564 11.808 8.90631 12.1244 8.70538 12.3138C8.25629 12.7372 7.65889 13 6.99998 13C6.34108 13 5.74368 12.7372 5.29458 12.3138C5.09365 12.1244 5.08432 11.808 5.27375 11.607Z"/>
</svg>
