<svg width="15" height="15" viewBox="0 0 15 15" xmlns="http://www.w3.org/2000/svg">
<path fill-rule="evenodd" clip-rule="evenodd" d="M4.6786 1H10.3214C10.8633 0.999995 11.3004 0.999991 11.6543 1.02891C12.0187 1.05868 12.3388 1.12159 12.635 1.27248C13.1054 1.51217 13.4878 1.89462 13.7275 2.36502C13.8784 2.66117 13.9413 2.98126 13.9711 3.34569C14 3.69963 14 4.1367 14 4.67858V10.3214C14 10.8633 14 11.3004 13.9711 11.6543C13.9413 12.0187 13.8784 12.3388 13.7275 12.635C13.4878 13.1054 13.1054 13.4878 12.635 13.7275C12.3388 13.8784 12.0187 13.9413 11.6543 13.9711C11.3004 14 10.8633 14 10.3214 14H4.67858C4.1367 14 3.69963 14 3.34569 13.9711C2.98126 13.9413 2.66117 13.8784 2.36502 13.7275C1.89462 13.4878 1.51217 13.1054 1.27248 12.635C1.12159 12.3388 1.05868 12.0187 1.02891 11.6543C0.999991 11.3004 0.999995 10.8633 1 10.3214V4.6786C0.999995 4.1367 0.999991 3.69963 1.02891 3.34569C1.05868 2.98126 1.12159 2.66117 1.27248 2.36502C1.51217 1.89462 1.89462 1.51217 2.36502 1.27248C2.66117 1.12159 2.98126 1.05868 3.34569 1.02891C3.69963 0.999991 4.1367 0.999995 4.6786 1ZM2 6V10.3C2 10.8683 2.00039 11.2645 2.02559 11.5729C2.05031 11.8755 2.0964 12.0493 2.16349 12.181C2.3073 12.4632 2.53677 12.6927 2.81901 12.8365C2.95069 12.9036 3.12454 12.9497 3.42712 12.9744C3.73554 12.9996 4.1317 13 4.7 13H5L5 6H2ZM2 5V4.7C2 4.1317 2.00039 3.73554 2.02559 3.42712C2.05031 3.12454 2.0964 2.95069 2.16349 2.81901C2.3073 2.53677 2.53677 2.3073 2.81901 2.16349C2.95069 2.0964 3.12454 2.05031 3.42712 2.02559C3.73554 2.00039 4.1317 2 4.7 2H10.3C10.8683 2 11.2645 2.00039 11.5729 2.02559C11.8755 2.05031 12.0493 2.0964 12.181 2.16349C12.4632 2.3073 12.6927 2.53677 12.8365 2.81901C12.9036 2.95069 12.9497 3.12454 12.9744 3.42712C12.9996 3.73554 13 4.1317 13 4.7V5H2ZM6 6L6 13H10.3C10.8683 13 11.2645 12.9996 11.5729 12.9744C11.8755 12.9497 12.0493 12.9036 12.181 12.8365C12.4632 12.6927 12.6927 12.4632 12.8365 12.181C12.9036 12.0493 12.9497 11.8755 12.9744 11.5729C12.9996 11.2645 13 10.8683 13 10.3V6H6Z"/>
</svg>
