<svg width="16" height="16" viewBox="0 0 16 16"  xmlns="http://www.w3.org/2000/svg">
<path fill-rule="evenodd" clip-rule="evenodd" d="M14 12V4C14 2.89543 13.1046 2 12 2L8 2C6.89543 2 6 2.89543 6 4V12C6 13.1046 6.89543 14 8 14H12C13.1046 14 14 13.1046 14 12ZM15 4C15 2.34315 13.6569 1 12 1L8 1C6.34315 1 5 2.34315 5 4V12C5 13.6569 6.34315 15 8 15H12C13.6569 15 15 13.6569 15 12V4Z" fill="#000000"/>
<path fill-rule="evenodd" clip-rule="evenodd" d="M3 12.5L3 3.5C3 3.22386 2.77614 3 2.5 3C2.22386 3 2 3.22386 2 3.5L2 12.5C2 12.7761 2.22386 13 2.5 13C2.77614 13 3 12.7761 3 12.5ZM4 3.5C4 2.67157 3.32843 2 2.5 2C1.67157 2 1 2.67157 1 3.5L1 12.5C1 13.3284 1.67157 14 2.5 14C3.32843 14 4 13.3284 4 12.5L4 3.5Z" fill="#000000"/>
</svg>
