<svg width="15" height="15" viewBox="0 0 15 15" xmlns="http://www.w3.org/2000/svg">
<path fill-rule="evenodd" clip-rule="evenodd" d="M6.66037 2.65203L3.20002 5.42031V11.452C3.20002 11.8182 3.20036 12.0646 3.21491 12.2545C3.22908 12.4395 3.25447 12.528 3.28198 12.5856C3.35346 12.7352 3.46457 12.8508 3.59399 12.9212C3.63735 12.9447 3.70877 12.9699 3.87527 12.9844C4.04864 12.9996 4.27519 13 4.62002 13H5.20002L5.20002 8.74749C5.20001 8.58246 5.2 8.43152 5.20965 8.30546C5.22001 8.17025 5.24367 8.02169 5.31425 7.87393C5.41534 7.66231 5.57959 7.48418 5.78886 7.37045C5.93803 7.28938 6.08888 7.26225 6.22253 7.25061C6.34461 7.23997 6.48959 7.23998 6.64233 7.24H8.35771C8.51045 7.23998 8.65543 7.23997 8.77751 7.25061C8.91116 7.26225 9.06201 7.28938 9.21118 7.37045C9.42045 7.48418 9.5847 7.66231 9.68579 7.87393C9.75637 8.02169 9.78003 8.17025 9.79038 8.30546C9.80004 8.43152 9.80003 8.58245 9.80002 8.74748V13H10.38C10.7248 13 10.9514 12.9996 11.1248 12.9844C11.2913 12.9699 11.3627 12.9447 11.406 12.9212C11.5355 12.8508 11.6466 12.7352 11.7181 12.5856C11.7456 12.528 11.771 12.4395 11.7851 12.2545C11.7997 12.0646 11.8 11.8182 11.8 11.452V5.42031L8.33967 2.65203C8.12753 2.48232 7.98882 2.37174 7.87547 2.29373C7.76704 2.21912 7.71008 2.19471 7.67033 2.18355C7.55849 2.15215 7.44155 2.15215 7.32971 2.18355C7.28996 2.19471 7.233 2.21912 7.12457 2.29373C7.01122 2.37174 6.87251 2.48232 6.66037 2.65203ZM12.8 6.22031V11.4711C12.8 11.8133 12.8 12.0982 12.7822 12.3309C12.7637 12.5728 12.7237 12.8004 12.6204 13.0166C12.4618 13.3487 12.2057 13.6247 11.8836 13.7998C11.6702 13.9157 11.4453 13.9603 11.2116 13.9807C10.9896 14 10.7191 14 10.401 14H4.59903C4.2809 14 4.01042 14 3.78845 13.9807C3.55475 13.9603 3.32981 13.9157 3.11647 13.7998C2.7943 13.6247 2.53826 13.3487 2.37964 13.0166C2.27636 12.8004 2.23636 12.5728 2.21783 12.3309C2.20001 12.0982 2.20001 11.8133 2.20002 11.4711L2.20002 6.22031L1.81237 6.53043C1.59673 6.70294 1.28209 6.66798 1.10958 6.45235C0.937079 6.23672 0.97204 5.92207 1.18767 5.74957L6.04892 1.86057C6.05588 1.855 6.06281 1.84946 6.0697 1.84395L6.62278 1.40148C6.71646 1.32652 6.80622 1.2547 6.88713 1.19902C6.97615 1.13776 7.08172 1.07631 7.21211 1.0397C7.40064 0.986766 7.5994 0.986766 7.78793 1.0397C7.91832 1.07631 8.02389 1.13776 8.11291 1.19902C8.19382 1.2547 8.28358 1.32652 8.37726 1.40148L8.92323 1.83826C8.93246 1.84564 8.94176 1.85308 8.95112 1.86056L12.6124 4.78957C12.6125 4.78964 12.6123 4.78949 12.6124 4.78957L13.8124 5.74957C14.028 5.92207 14.063 6.23672 13.8905 6.45235C13.7179 6.66798 13.4033 6.70294 13.1877 6.53043L12.8 6.22031ZM6.20002 13H8.80002V8.764C8.80002 8.57704 8.79968 8.46503 8.79331 8.38184C8.78934 8.33012 8.78405 8.30844 8.78241 8.30282C8.77058 8.27896 8.75516 8.26305 8.74088 8.25345C8.73328 8.25186 8.71769 8.24919 8.69069 8.24683C8.61737 8.24044 8.51683 8.24 8.34002 8.24H6.66002C6.48321 8.24 6.38267 8.24044 6.30935 8.24683C6.28235 8.24919 6.26676 8.25186 6.25916 8.25345C6.24488 8.26305 6.22946 8.27896 6.21763 8.30282C6.21599 8.30844 6.2107 8.33012 6.20673 8.38184C6.20036 8.46503 6.20002 8.57704 6.20002 8.764V13Z"/>
</svg>
