<svg width="16" height="16" viewBox="0 0 16 16" xmlns="http://www.w3.org/2000/svg">
<path fill-rule="evenodd" clip-rule="evenodd" d="M12 2H4C2.89543 2 2 2.89543 2 4V8C2 9.10457 2.89543 10 4 10H12C13.1046 10 14 9.10457 14 8V4C14 2.89543 13.1046 2 12 2ZM4 1C2.34315 1 1 2.34315 1 4V8C1 9.65685 2.34315 11 4 11H12C13.6569 11 15 9.65685 15 8V4C15 2.34315 13.6569 1 12 1H4Z" fill="#000000"/>
<path fill-rule="evenodd" clip-rule="evenodd" d="M12.5 13H3.5C3.22386 13 3 13.2239 3 13.5C3 13.7761 3.22386 14 3.5 14H12.5C12.7761 14 13 13.7761 13 13.5C13 13.2239 12.7761 13 12.5 13ZM3.5 12C2.67157 12 2 12.6716 2 13.5C2 14.3284 2.67157 15 3.5 15H12.5C13.3284 15 14 14.3284 14 13.5C14 12.6716 13.3284 12 12.5 12H3.5Z" fill="#000000"/>
</svg>
