<svg width="16" height="16" viewBox="0 0 16 16"  xmlns="http://www.w3.org/2000/svg">
<path fill-rule="evenodd" clip-rule="evenodd" d="M12 6H4C2.89543 6 2 6.89543 2 8V12C2 13.1046 2.89543 14 4 14H12C13.1046 14 14 13.1046 14 12V8C14 6.89543 13.1046 6 12 6ZM4 5C2.34315 5 1 6.34315 1 8V12C1 13.6569 2.34315 15 4 15H12C13.6569 15 15 13.6569 15 12V8C15 6.34315 13.6569 5 12 5H4Z" fill="#000000"/>
<path fill-rule="evenodd" clip-rule="evenodd" d="M12.5 2H3.5C3.22386 2 3 2.22386 3 2.5C3 2.77614 3.22386 3 3.5 3H12.5C12.7761 3 13 2.77614 13 2.5C13 2.22386 12.7761 2 12.5 2ZM3.5 1C2.67157 1 2 1.67157 2 2.5C2 3.32843 2.67157 4 3.5 4H12.5C13.3284 4 14 3.32843 14 2.5C14 1.67157 13.3284 1 12.5 1H3.5Z" fill="#000000"/>
</svg>
