<svg width="16" height="16" viewBox="0 0 16 16" fill="none" xmlns="http://www.w3.org/2000/svg">
<path fill-rule="evenodd" clip-rule="evenodd" d="M12 2H4C2.89543 2 2 2.89543 2 4V12C2 13.1046 2.89543 14 4 14H12C13.1046 14 14 13.1046 14 12V4C14 2.89543 13.1046 2 12 2ZM4 1C2.34315 1 1 2.34315 1 4V12C1 13.6569 2.34315 15 4 15H12C13.6569 15 15 13.6569 15 12V4C15 2.34315 13.6569 1 12 1H4Z" fill="#000000"/>
<path fill-rule="evenodd" clip-rule="evenodd" d="M11 9.5C10.1716 9.5 9.5 10.1716 9.5 11C9.5 11.8284 10.1716 12.5 11 12.5C11.8284 12.5 12.5 11.8284 12.5 11C12.5 10.1716 11.8284 9.5 11 9.5ZM8.5 11C8.5 9.61929 9.61929 8.5 11 8.5C12.3807 8.5 13.5 9.61929 13.5 11C13.5 12.3807 12.3807 13.5 11 13.5C9.61929 13.5 8.5 12.3807 8.5 11Z" fill="#000000"/>
</svg>
