<svg width="14" height="14" viewBox="0 0 14 14" xmlns="http://www.w3.org/2000/svg">
<path fill-rule="evenodd" clip-rule="evenodd" d="M7 4.28571C5.78761 4.28571 4.82388 5.28776 4.82388 6.5C4.82388 7.71224 5.78761 8.71429 7 8.71429C8.21239 8.71429 9.17612 7.71224 9.17612 6.5C9.17612 5.28776 8.21239 4.28571 7 4.28571ZM8.17612 6.5C8.17612 5.8187 7.639 5.28571 7 5.28571C6.361 5.28571 5.82388 5.8187 5.82388 6.5C5.82388 7.1813 6.361 7.71429 7 7.71429C7.639 7.71429 8.17612 7.1813 8.17612 6.5Z"/>
<path fill-rule="evenodd" clip-rule="evenodd" d="M1.0241 6.26299C1.00803 6.33468 1 6.41734 1 6.5C1 6.58266 1.00803 6.66532 1.0241 6.73701C1.06417 6.9158 1.14305 7.04294 1.20918 7.14954L1.222 7.17023C1.5509 7.70287 2.20777 8.64854 3.16531 9.46591C4.12372 10.284 5.41568 11 7 11C8.58432 11 9.87628 10.284 10.8347 9.46591C11.7922 8.64854 12.4491 7.70287 12.778 7.17023L12.7908 7.14954C12.8569 7.04294 12.9358 6.9158 12.9759 6.73701C12.992 6.66532 13 6.58266 13 6.5C13 6.41734 12.992 6.33468 12.9759 6.26299C12.9358 6.0842 12.8569 5.95706 12.7908 5.85046L12.778 5.82977C12.4491 5.29713 11.7922 4.35146 10.8347 3.53409C9.87628 2.71597 8.58432 2 7 2C5.41568 2 4.12372 2.71597 3.16531 3.53409C2.20777 4.35146 1.5509 5.29713 1.222 5.82977L1.20918 5.85046C1.14305 5.95706 1.06417 6.0842 1.0241 6.26299ZM12 6.5C12 6.49105 11.9996 6.48342 11.9991 6.47817L11.9986 6.47674L11.9951 6.46943C11.9911 6.46161 11.9846 6.44973 11.9729 6.43008C11.961 6.40998 11.9468 6.38699 11.9271 6.35517C11.6273 5.86954 11.034 5.01897 10.1855 4.29467C9.33782 3.57113 8.26788 3 7 3C5.73211 3 4.66218 3.57113 3.81455 4.29467C2.96604 5.01897 2.37273 5.86954 2.07286 6.35517C2.0532 6.38699 2.03903 6.40998 2.02709 6.43008C2.01543 6.44973 2.00892 6.46161 2.00494 6.46943L2.00142 6.47674L2.00092 6.47792L2.00129 6.47453C2.00126 6.47478 2.00089 6.47723 1.9999 6.48167L2.00092 6.47792C2.00044 6.48317 2 6.49105 2 6.5C2 6.50895 2.00041 6.51658 2.00089 6.52183L1.9999 6.51833C2.00089 6.52277 2.00126 6.52522 2.00129 6.52547L2.00089 6.52183L2.00142 6.52326L2.00494 6.53057C2.00892 6.53839 2.01543 6.55027 2.02709 6.56992C2.03903 6.59002 2.0532 6.61301 2.07286 6.64483C2.37273 7.13046 2.96604 7.98103 3.81455 8.70533C4.66218 9.42887 5.73211 10 7 10C8.26788 10 9.33782 9.42887 10.1855 8.70533C11.034 7.98103 11.6273 7.13046 11.9271 6.64483C11.9468 6.61301 11.961 6.59002 11.9729 6.56992C11.9846 6.55027 11.9911 6.53839 11.9951 6.53057L11.9986 6.52326L11.9991 6.52206C11.9996 6.51681 12 6.50895 12 6.5Z"/>
</svg>
