<svg width="14" height="14" viewBox="0 0 14 14" xmlns="http://www.w3.org/2000/svg">
<path fill-rule="evenodd" clip-rule="evenodd" d="M4.62963 1C4.64194 1 4.65428 1 4.66667 1L9.37037 1C9.80538 0.999981 10.1904 0.999962 10.5094 1.02603C10.8492 1.05379 11.2012 1.11602 11.544 1.29065C12.0457 1.54631 12.4537 1.95426 12.7094 2.45603C12.884 2.79876 12.9462 3.15081 12.974 3.49057C13 3.80963 13 4.19461 13 4.62961V9.37039C13 9.80539 13 10.1904 12.974 10.5094C12.9462 10.8492 12.884 11.2012 12.7094 11.544C12.4537 12.0457 12.0457 12.4537 11.544 12.7094C11.2012 12.884 10.8492 12.9462 10.5094 12.974C10.1904 13 9.80539 13 9.37039 13H4.62961C4.19461 13 3.80963 13 3.49057 12.974C3.15081 12.9462 2.79876 12.884 2.45603 12.7094C1.95426 12.4537 1.54631 12.0457 1.29065 11.544C1.11602 11.2012 1.05379 10.8492 1.02603 10.5094C0.999962 10.1904 0.999981 9.80538 1 9.37037L1 4.66667C1 4.65428 1 4.64194 1 4.62963C0.999981 4.19462 0.999962 3.80963 1.02603 3.49057C1.05379 3.15081 1.11602 2.79876 1.29065 2.45603C1.54631 1.95426 1.95426 1.54631 2.45603 1.29065C2.79876 1.11602 3.15081 1.05379 3.49057 1.02603C3.80964 0.999962 4.19462 0.999981 4.62963 1ZM3.65344 3.01939C3.43736 3.03704 3.3778 3.06564 3.36401 3.07266C3.23857 3.13658 3.13658 3.23857 3.07266 3.36401C3.06564 3.3778 3.03704 3.43736 3.01939 3.65344C3.00078 3.88119 3 4.18346 3 4.66667V9.33334C3 9.81655 3.00078 10.1188 3.01939 10.3466C3.03704 10.5626 3.06564 10.6222 3.07266 10.636C3.13658 10.7614 3.23857 10.8634 3.36401 10.9273C3.3778 10.9344 3.43736 10.963 3.65344 10.9806C3.88119 10.9992 4.18346 11 4.66667 11H9.33334C9.81655 11 10.1188 10.9992 10.3466 10.9806C10.5626 10.963 10.6222 10.9344 10.636 10.9273C10.7614 10.8634 10.8634 10.7614 10.9273 10.636C10.9344 10.6222 10.963 10.5626 10.9806 10.3466C10.9992 10.1188 11 9.81655 11 9.33334V4.66667C11 4.18346 10.9992 3.88119 10.9806 3.65344C10.963 3.43736 10.9344 3.3778 10.9273 3.36401C10.8634 3.23857 10.7614 3.13658 10.636 3.07266C10.6222 3.06564 10.5626 3.03704 10.3466 3.01939C10.1188 3.00078 9.81655 3 9.33334 3H4.66667C4.18346 3 3.88119 3.00078 3.65344 3.01939ZM5.61111 4.33334C6.1634 4.33334 6.61111 4.78105 6.61111 5.33334V8.66667C6.61111 9.21895 6.1634 9.66667 5.61111 9.66667C5.05883 9.66667 4.61111 9.21895 4.61111 8.66667V5.33334C4.61111 4.78105 5.05883 4.33334 5.61111 4.33334ZM8.38889 4.33334C8.94118 4.33334 9.38889 4.78105 9.38889 5.33334V8.66667C9.38889 9.21895 8.94118 9.66667 8.38889 9.66667C7.83661 9.66667 7.38889 9.21895 7.38889 8.66667V5.33334C7.38889 4.78105 7.83661 4.33334 8.38889 4.33334Z"/>
</svg>
