<svg width="15" height="15" viewBox="0 0 15 15" xmlns="http://www.w3.org/2000/svg">
<path fill-rule="evenodd" clip-rule="evenodd" d="M1.92857 11H10.2857V12L1 13L1.92857 11ZM13.0714 12L5.64286 13V14H14L13.0714 12Z" fill="#000000"/>
<path fill-rule="evenodd" clip-rule="evenodd" d="M7.87773 1.07879L7.67686 1.53667L7.87774 1.07879C8.08285 1.16878 8.20483 1.33508 8.28007 1.45308C8.35548 1.57134 8.43428 1.72578 8.51842 1.89069C8.52164 1.89701 8.52487 1.90335 8.52811 1.9097C8.53094 1.91524 8.53367 1.92083 8.53629 1.92648L11.9537 9.28951C12.0699 9.53998 11.9611 9.83728 11.7106 9.95353C11.4601 10.0698 11.1628 9.96097 11.0466 9.7105L9.6264 6.65058C9.58607 6.66108 9.54375 6.66667 9.50012 6.66667H5.50012C5.45649 6.66667 5.41417 6.66108 5.37384 6.65058L3.95365 9.7105C3.8374 9.96097 3.5401 10.0698 3.28962 9.95353C3.03915 9.83728 2.93033 9.53998 3.04659 9.28951L6.46395 1.92648C6.46657 1.92083 6.4693 1.91524 6.47213 1.9097C6.47537 1.90334 6.4786 1.89701 6.48183 1.89069C6.56596 1.72578 6.64476 1.57134 6.72017 1.45308C6.79541 1.33508 6.91739 1.16878 7.12251 1.07879L7.32338 1.53667L7.12251 1.07879C7.36197 0.973737 7.63827 0.973737 7.87773 1.07879ZM5.8305 5.66667H9.16974L7.63316 2.35595C7.57724 2.2464 7.53485 2.16385 7.50012 2.09989C7.46539 2.16385 7.423 2.2464 7.36708 2.35595L5.8305 5.66667Z" fill="#000000"/>
</svg>
