<svg width="15" height="15" viewBox="0 0 15 15" xmlns="http://www.w3.org/2000/svg">
<path fill-rule="evenodd" clip-rule="evenodd" d="M9.80892 2.02306C9.7264 2.00325 9.63293 2.00004 9.28301 2.00004H5V3.43337C5 3.6283 5.00039 3.74443 5.00742 3.83052C5.01171 3.88306 5.01738 3.90514 5.01922 3.91106C5.03525 3.94149 5.06032 3.96624 5.091 3.98187L5.093 3.98294C5.09871 3.98607 5.10511 3.98958 5.1433 3.99325C5.20804 3.99947 5.30224 4.00004 5.5 4.00004H9.5C9.69776 4.00004 9.79196 3.99947 9.8567 3.99325C9.89489 3.98958 9.90129 3.98607 9.907 3.98294L9.909 3.98187C9.93968 3.96624 9.96475 3.94149 9.98078 3.91106C9.98262 3.90514 9.98829 3.88306 9.99258 3.83052C9.99961 3.74443 10 3.6283 10 3.43337V2.50004C10 2.37552 10.0455 2.26163 10.1208 2.17411C10.094 2.15198 10.0721 2.13649 10.0498 2.12284C9.97524 2.07715 9.89395 2.04348 9.80892 2.02306ZM11 3.04048V3.45086C11 3.62251 11 3.78016 10.9893 3.91195C10.9776 4.05404 10.9511 4.20949 10.8728 4.36303C10.761 4.58255 10.5825 4.76103 10.363 4.87288C10.1102 5.00167 9.868 5.00099 9.57273 5.00017C9.54885 5.0001 9.52461 5.00004 9.5 5.00004H5.5C5.47539 5.00004 5.45115 5.0001 5.42727 5.00017C5.132 5.00099 4.88978 5.00167 4.63701 4.87288C4.41749 4.76102 4.23901 4.58255 4.12716 4.36303C4.04893 4.20949 4.02235 4.05404 4.01074 3.91195C3.99998 3.78016 3.99999 3.62251 4 3.45085C4 3.44504 4 3.43921 4 3.43337V2.00288C3.77646 2.00596 3.58961 2.01235 3.42712 2.02562C3.12454 2.05035 2.95069 2.09643 2.81901 2.16353C2.53677 2.30734 2.3073 2.53681 2.16349 2.81905C2.0964 2.95073 2.05031 3.12457 2.02559 3.42716C2.00039 3.73558 2 4.13173 2 4.70004V10.3C2 10.8683 2.00039 11.2645 2.02559 11.5729C2.05031 11.8755 2.0964 12.0493 2.16349 12.181C2.3073 12.4633 2.53677 12.6927 2.81901 12.8365C2.95069 12.9036 3.12454 12.9497 3.42712 12.9744C3.58961 12.9877 3.77646 12.9941 4 12.9972V9.50004C4 9.47545 3.99993 9.45126 3.99987 9.42742C3.99905 9.13201 3.99838 8.89105 4.12716 8.63831C4.23901 8.41879 4.41749 8.24031 4.63701 8.12846C4.88978 7.99967 5.132 8.00035 5.42727 8.00117C5.45115 8.00124 5.47539 8.0013 5.5 8.0013H9.5C9.52475 8.0013 9.54917 8.00123 9.57328 8.00116C9.86786 8.00032 10.1162 7.99961 10.3691 8.12846C10.5886 8.24031 10.7671 8.41879 10.879 8.63831C11.0077 8.89105 11.0071 9.13201 11.0062 9.42742C11.0062 9.45126 11.0061 9.47545 11.0061 9.50004V12.9971C11.227 12.994 11.4119 12.9876 11.5729 12.9744C11.8755 12.9497 12.0493 12.9036 12.181 12.8365C12.4632 12.6927 12.6927 12.4633 12.8365 12.181C12.9036 12.0493 12.9497 11.8755 12.9744 11.5729C12.9996 11.2645 13 10.8683 13 10.3V5.71703C13 5.3671 12.9968 5.27364 12.977 5.19112C12.9566 5.10609 12.9229 5.0248 12.8772 4.95024C12.8329 4.87788 12.769 4.80951 12.5216 4.56208L11 3.04048ZM10.0061 13V9.50004C10.0061 9.30221 10.0055 9.20845 9.99934 9.14413C9.99572 9.10662 9.99233 9.1004 9.98907 9.09442L9.98795 9.09231C9.97197 9.06095 9.94647 9.03545 9.91511 9.01947L9.91369 9.01869C9.90924 9.01617 9.90205 9.01209 9.86051 9.00816C9.79374 9.00185 9.69745 9.0013 9.5 9.0013H5.5C5.30224 9.0013 5.20804 9.00187 5.1433 9.00809C5.10511 9.01176 5.09871 9.01527 5.093 9.0184L5.091 9.01947C5.05964 9.03545 5.03414 9.06095 5.01817 9.09231L5.01704 9.09442C5.01378 9.1004 5.01039 9.10662 5.00677 9.14413C5.00057 9.20845 5 9.30221 5 9.50004V13H10.0061ZM9.98018 3.91279L9.98078 3.91106ZM5.01982 3.91279L5.01922 3.91106ZM9.33133 1.00002C9.6104 0.999856 9.83009 0.999728 10.0424 1.05069C10.2294 1.0956 10.4083 1.16968 10.5723 1.2702C10.7584 1.38426 10.9137 1.53969 11.1109 1.73714C11.1222 1.7484 11.1335 1.75979 11.1451 1.77132L13.2287 3.85498C13.2402 3.86651 13.2516 3.87789 13.2629 3.88913C13.4603 4.08635 13.6158 4.2416 13.7298 4.42774C13.8304 4.59177 13.9044 4.7706 13.9493 4.95767C14.0003 5.16995 14.0002 5.38963 14 5.6687C14 5.68461 14 5.70072 14 5.71703V10.3215C14 10.8633 14 11.3004 13.9711 11.6543C13.9413 12.0188 13.8784 12.3389 13.7275 12.635C13.4878 13.1054 13.1054 13.4879 12.635 13.7276C12.3388 13.8784 12.0187 13.9414 11.6543 13.9711C11.3004 14 10.8633 14 10.3214 14H4.67858C4.1367 14 3.69963 14 3.34569 13.9711C2.98126 13.9414 2.66117 13.8784 2.36502 13.7276C1.89462 13.4879 1.51217 13.1054 1.27248 12.635C1.12159 12.3389 1.05868 12.0188 1.02891 11.6543C0.999991 11.3004 0.999995 10.8633 1 10.3214V4.67863C0.999995 4.13674 0.999991 3.69966 1.02891 3.34572C1.05868 2.9813 1.12159 2.66121 1.27248 2.36506C1.51217 1.89466 1.89462 1.5122 2.36502 1.27252C2.66117 1.12163 2.98126 1.05872 3.34569 1.02895C3.69963 1.00003 4.1367 1.00003 4.6786 1.00004L9.28301 1.00004C9.29932 1.00004 9.31542 1.00003 9.33133 1.00002Z"/>
</svg>
