<svg width="14" height="14" viewBox="0 0 14 14" xmlns="http://www.w3.org/2000/svg">
<path fill-rule="evenodd" clip-rule="evenodd" d="M3.18115 2.88555C3.01437 3.03012 3 3.12104 3 3.15C3 3.17896 3.01437 3.26988 3.18115 3.41445C3.3466 3.55788 3.61507 3.70976 3.99015 3.84729C4.73631 4.12088 5.80037 4.3 7 4.3C8.19963 4.3 9.26369 4.12088 10.0099 3.84729C10.3849 3.70976 10.6534 3.55788 10.8189 3.41445C10.9856 3.26988 11 3.17896 11 3.15C11 3.12104 10.9856 3.03012 10.8189 2.88555C10.6534 2.74212 10.3849 2.59024 10.0099 2.45271C9.26369 2.17912 8.19963 2 7 2C5.80037 2 4.73631 2.17912 3.99015 2.45271C3.61507 2.59024 3.3466 2.74212 3.18115 2.88555ZM11 4.4955C10.8033 4.6047 10.5854 4.70134 10.3541 4.78616C9.47159 5.10975 8.28565 5.3 7 5.3C5.71435 5.3 4.52841 5.10975 3.64589 4.78616C3.41456 4.70134 3.19674 4.6047 3 4.4955V7C3 7.03098 3.01514 7.12228 3.1801 7.26607C3.3442 7.40911 3.61096 7.56072 3.98486 7.69802C4.72873 7.9712 5.79257 8.15 7 8.15C8.20743 8.15 9.27127 7.9712 10.0151 7.69802C10.389 7.56072 10.6558 7.40911 10.8199 7.26607C10.9849 7.12228 11 7.03098 11 7V4.4955ZM12 3.15C12 2.72332 11.7625 2.38018 11.4739 2.12994C11.1839 1.87856 10.7934 1.6749 10.3541 1.51384C9.47159 1.19025 8.28565 1 7 1C5.71435 1 4.52841 1.19025 3.64589 1.51384C3.20663 1.6749 2.81609 1.87856 2.52612 2.12994C2.23747 2.38018 2 2.72332 2 3.15V10.85C2 11.2755 2.23486 11.6187 2.52302 11.8699C2.81205 12.1218 3.20154 12.3257 3.64014 12.4867C4.52127 12.8103 5.70743 13 7 13C8.29257 13 9.47873 12.8103 10.3599 12.4867C10.7985 12.3257 11.188 12.1218 11.477 11.8699C11.7651 11.6187 12 11.2755 12 10.85V3.15ZM11 8.34837C10.8049 8.45668 10.5891 8.55254 10.3599 8.63673C9.47873 8.9603 8.29257 9.15 7 9.15C5.70743 9.15 4.52127 8.9603 3.64014 8.63673C3.4109 8.55254 3.19508 8.45668 3 8.34837V10.85C3 10.881 3.01514 10.9723 3.1801 11.1161C3.3442 11.2591 3.61096 11.4107 3.98486 11.548C4.72873 11.8212 5.79257 12 7 12C8.20743 12 9.27127 11.8212 10.0151 11.548C10.389 11.4107 10.6558 11.2591 10.8199 11.1161C10.9849 10.9723 11 10.881 11 10.85V8.34837Z"/>
</svg>
