<svg width="15" height="15" viewBox="0 0 15 15" xmlns="http://www.w3.org/2000/svg">
<path fill-rule="evenodd" clip-rule="evenodd" d="M7.14645 1.14645C7.34171 0.951184 7.65829 0.951184 7.85355 1.14645L11.8536 5.14645C12.0488 5.34171 12.0488 5.65829 11.8536 5.85355C11.6583 6.04882 11.3417 6.04882 11.1464 5.85355L8 2.70711V9.5C8 9.77614 7.77614 10 7.5 10C7.22386 10 7 9.77614 7 9.5V2.70711L3.85355 5.85355C3.65829 6.04882 3.34171 6.04882 3.14645 5.85355C2.95118 5.65829 2.95118 5.34171 3.14645 5.14645L7.14645 1.14645ZM1.5 9C1.77614 9 2 9.22386 2 9.5V10.3C2 10.8683 2.00039 11.2645 2.02559 11.5729C2.05031 11.8755 2.0964 12.0493 2.16349 12.181C2.3073 12.4632 2.53677 12.6927 2.81901 12.8365C2.95069 12.9036 3.12454 12.9497 3.42712 12.9744C3.73554 12.9996 4.1317 13 4.7 13H10.3C10.8683 13 11.2645 12.9996 11.5729 12.9744C11.8755 12.9497 12.0493 12.9036 12.181 12.8365C12.4632 12.6927 12.6927 12.4632 12.8365 12.181C12.9036 12.0493 12.9497 11.8755 12.9744 11.5729C12.9996 11.2645 13 10.8683 13 10.3V9.5C13 9.22386 13.2239 9 13.5 9C13.7761 9 14 9.22386 14 9.5V10.3214C14 10.8633 14 11.3004 13.9711 11.6543C13.9413 12.0187 13.8784 12.3388 13.7275 12.635C13.4878 13.1054 13.1054 13.4878 12.635 13.7275C12.3388 13.8784 12.0187 13.9413 11.6543 13.9711C11.3004 14 10.8633 14 10.3214 14H4.67858C4.1367 14 3.69963 14 3.34569 13.9711C2.98126 13.9413 2.66117 13.8784 2.36502 13.7275C1.89462 13.4878 1.51217 13.1054 1.27248 12.635C1.12159 12.3388 1.05868 12.0187 1.02891 11.6543C0.999991 11.3004 0.999995 10.8633 1 10.3214L1 9.5C1 9.22386 1.22386 9 1.5 9Z"/>
</svg>
