<svg width="16" height="16" viewBox="0 0 16 16" xmlns="http://www.w3.org/2000/svg">
<path fill-rule="evenodd" clip-rule="evenodd" d="M2 2.5C2 2.22386 2.22386 2 2.5 2H13.5C13.7761 2 14 2.22386 14 2.5C14 2.77614 13.7761 3 13.5 3H2.5C2.22386 3 2 2.77614 2 2.5ZM7.64645 4.59089C7.84171 4.39563 8.15829 4.39563 8.35355 4.59089L12.6313 8.86867C12.8266 9.06393 12.8266 9.38051 12.6313 9.57578C12.4361 9.77104 12.1195 9.77104 11.9242 9.57578L8.5 6.15155V13.5C8.5 13.7761 8.27614 14 8 14C7.72386 14 7.5 13.7761 7.5 13.5V6.15155L4.07578 9.57578C3.88051 9.77104 3.56393 9.77104 3.36867 9.57578C3.17341 9.38051 3.17341 9.06393 3.36867 8.86867L7.64645 4.59089Z" fill="black"/>
</svg>
