<svg width="16" height="16" viewBox="0 0 16 16" xmlns="http://www.w3.org/2000/svg">
<path fill-rule="evenodd" clip-rule="evenodd" d="M12 2H4C2.89543 2 2 2.89543 2 4V12C2 13.1046 2.89543 14 4 14H12C13.1046 14 14 13.1046 14 12V4C14 2.89543 13.1046 2 12 2ZM4 1C2.34315 1 1 2.34315 1 4V12C1 13.6569 2.34315 15 4 15H12C13.6569 15 15 13.6569 15 12V4C15 2.34315 13.6569 1 12 1H4Z" fill="#000000"/>
<path fill-rule="evenodd" clip-rule="evenodd" d="M11.5 8H4.5C4.22386 8 4 8.22386 4 8.5C4 8.77614 4.22386 9 4.5 9H11.5C11.7761 9 12 8.77614 12 8.5C12 8.22386 11.7761 8 11.5 8ZM4.5 7C3.67157 7 3 7.67157 3 8.5C3 9.32843 3.67157 10 4.5 10H11.5C12.3284 10 13 9.32843 13 8.5C13 7.67157 12.3284 7 11.5 7H4.5Z" fill="#000000"/>
</svg>
