<svg width="14" height="14" viewBox="0 0 14 14" xmlns="http://www.w3.org/2000/svg">
<path fill-rule="evenodd" clip-rule="evenodd" d="M7.00004 2C5.87233 2 4.96879 2.90127 4.96879 4C4.96879 5.09873 5.87233 6 7.00004 6C8.12774 6 9.03129 5.09873 9.03129 4C9.03129 2.90127 8.12774 2 7.00004 2ZM3.96879 4C3.96879 2.33731 5.3318 1 7.00004 1C8.66828 1 10.0313 2.33731 10.0313 4C10.0313 5.66269 8.66828 7 7.00004 7C5.3318 7 3.96879 5.66269 3.96879 4ZM5.50394 7.94443C5.53346 7.94443 5.56341 7.94444 5.59379 7.94444H8.40629C8.43667 7.94444 8.46662 7.94443 8.49614 7.94443C9.19446 7.94422 9.6559 7.94409 10.0467 8.06117C10.9237 8.32393 11.6133 9.00295 11.8811 9.87478C12.0004 10.2632 12.0003 10.7216 12.0001 11.4093C12 11.4391 12 11.4693 12 11.5C12 11.7761 11.7762 12 11.5 12C11.2239 12 11 11.7761 11 11.5C11 10.6879 10.9945 10.394 10.9252 10.1684C10.7567 9.61978 10.3208 9.18722 9.75968 9.0191C9.52821 8.94975 9.22727 8.94444 8.40629 8.94444H5.59379C4.77281 8.94444 4.47187 8.94975 4.24039 9.0191C3.67925 9.18722 3.24339 9.61978 3.07489 10.1684C3.00559 10.394 3.00004 10.6879 3.00004 11.5C3.00004 11.7761 2.77618 12 2.50004 12C2.22389 12 2.00004 11.7761 2.00004 11.5C2.00004 11.4693 2.00003 11.4391 2.00002 11.4093C1.9998 10.7216 1.99966 10.2632 2.11896 9.87478C2.38673 9.00295 3.07634 8.32393 3.9534 8.06117C4.34417 7.94409 4.80562 7.94422 5.50394 7.94443Z"/>
</svg>
