<svg width="14" height="14" viewBox="0 0 14 14" xmlns="http://www.w3.org/2000/svg">
<path fill-rule="evenodd" clip-rule="evenodd" d="M5.10355 2.14645C5.29882 2.34171 5.29882 2.65829 5.10355 2.85355L3.70711 4.25H8.125C10.2651 4.25 12 5.9849 12 8.125C12 10.2651 10.2651 12 8.125 12H2.5C2.22386 12 2 11.7761 2 11.5C2 11.2239 2.22386 11 2.5 11H8.125C9.71282 11 11 9.71282 11 8.125C11 6.53718 9.71282 5.25 8.125 5.25H3.70711L5.10355 6.64645C5.29882 6.84171 5.29882 7.15829 5.10355 7.35355C4.90829 7.54882 4.59171 7.54882 4.39645 7.35355L2.14645 5.10355C1.95118 4.90829 1.95118 4.59171 2.14645 4.39645L4.39645 2.14645C4.59171 1.95118 4.90829 1.95118 5.10355 2.14645Z"/>
</svg>
