<svg width="14" height="14" viewBox="0 0 14 14" xmlns="http://www.w3.org/2000/svg">
<path fill-rule="evenodd" clip-rule="evenodd" d="M2.14645 2.14645C2.34171 1.95118 2.65829 1.95118 2.85355 2.14645L7 6.29289L11.1464 2.14645C11.3417 1.95118 11.6583 1.95118 11.8536 2.14645C12.0488 2.34171 12.0488 2.65829 11.8536 2.85355L7.70711 7L11.8536 11.1464C12.0488 11.3417 12.0488 11.6583 11.8536 11.8536C11.6583 12.0488 11.3417 12.0488 11.1464 11.8536L7 7.70711L2.85355 11.8536C2.65829 12.0488 2.34171 12.0488 2.14645 11.8536C1.95118 11.6583 1.95118 11.3417 2.14645 11.1464L6.29289 7L2.14645 2.85355C1.95118 2.65829 1.95118 2.34171 2.14645 2.14645Z"/>
</svg>
