<svg width="16" height="16" viewBox="0 0 16 16" xmlns="http://www.w3.org/2000/svg">
<path fill-rule="evenodd" clip-rule="evenodd" d="M10 1C10.2069 1 10.3924 1.12741 10.4667 1.32051L11.2244 3.29049C11.4148 3.78576 11.4822 3.95067 11.5781 4.08552C11.6706 4.21567 11.7843 4.32938 11.9145 4.42192C12.0493 4.51781 12.2142 4.58515 12.7095 4.77564L14.6795 5.53333C14.8726 5.60759 15 5.79311 15 6C15 6.20689 14.8726 6.39241 14.6795 6.46667L12.7095 7.22436C12.2142 7.41485 12.0493 7.48219 11.9145 7.57808C11.7843 7.67062 11.6706 7.78433 11.5781 7.91448C11.4822 8.04933 11.4148 8.21424 11.2244 8.70951L10.4667 10.6795C10.3924 10.8726 10.2069 11 10 11C9.79312 11 9.6076 10.8726 9.53333 10.6795L8.77564 8.70951C8.58515 8.21424 8.51781 8.04933 8.42192 7.91448C8.32938 7.78433 8.21567 7.67062 8.08552 7.57808C7.95067 7.48219 7.78576 7.41485 7.29049 7.22436L5.32051 6.46667C5.12741 6.39241 5 6.20689 5 6C5 5.79311 5.12741 5.60759 5.32051 5.53333L7.29049 4.77564C7.78576 4.58515 7.95067 4.51781 8.08552 4.42192C8.21567 4.32938 8.32938 4.21567 8.42192 4.08552C8.51781 3.95067 8.58515 3.78576 8.77564 3.29049L9.53333 1.32051C9.60759 1.12741 9.79311 1 10 1ZM10 2.89284L9.70899 3.64947C9.70166 3.66852 9.69444 3.68731 9.68732 3.70585C9.52706 4.12293 9.41502 4.41452 9.2369 4.66502C9.07958 4.88627 8.88627 5.07958 8.66502 5.2369C8.41452 5.41502 8.12293 5.52706 7.70585 5.68732C7.68731 5.69444 7.66852 5.70166 7.64947 5.70899L6.89284 6L7.64947 6.29101C7.66852 6.29834 7.6873 6.30556 7.70584 6.31268C8.12293 6.47294 8.41452 6.58498 8.66502 6.7631C8.88627 6.92042 9.07958 7.11373 9.2369 7.33498C9.41502 7.58548 9.52706 7.87707 9.68732 8.29416C9.69444 8.3127 9.70166 8.33148 9.70899 8.35053L10 9.10716L10.291 8.35053C10.2983 8.33148 10.3056 8.3127 10.3127 8.29416C10.4729 7.87707 10.585 7.58548 10.7631 7.33498C10.9204 7.11373 11.1137 6.92042 11.335 6.7631C11.5855 6.58498 11.8771 6.47294 12.2942 6.31268C12.3127 6.30556 12.3315 6.29834 12.3505 6.29101L13.1072 6L12.3505 5.70899C12.3315 5.70166 12.3127 5.69444 12.2942 5.68732C11.8771 5.52706 11.5855 5.41502 11.335 5.2369C11.1137 5.07958 10.9204 4.88627 10.7631 4.66502C10.585 4.41452 10.4729 4.12293 10.3127 3.70584C10.3056 3.6873 10.2983 3.66852 10.291 3.64947L10 2.89284Z"/>
<path d="M4 9.5L4.43581 10.3716C4.5833 10.6666 4.65705 10.8141 4.75557 10.9419C4.843 11.0553 4.94467 11.157 5.05809 11.2444C5.1859 11.3429 5.33339 11.4167 5.62838 11.5642L6.5 12L5.62838 12.4358C5.33339 12.5833 5.1859 12.6571 5.05809 12.7556C4.94467 12.843 4.843 12.9447 4.75557 13.0581C4.65705 13.1859 4.5833 13.3334 4.43581 13.6284L4 14.5L3.56419 13.6284C3.4167 13.3334 3.34295 13.1859 3.24443 13.0581C3.157 12.9447 3.05533 12.843 2.94191 12.7556C2.8141 12.6571 2.66661 12.5833 2.37162 12.4358L1.5 12L2.37162 11.5642C2.66661 11.4167 2.8141 11.3429 2.94191 11.2444C3.05533 11.157 3.157 11.0553 3.24443 10.9419C3.34295 10.8141 3.4167 10.6666 3.56419 10.3716L4 9.5Z"/>
<path fill-rule="evenodd" clip-rule="evenodd" d="M4 9C4.18939 9 4.36252 9.107 4.44721 9.27639L4.88302 10.148C5.03902 10.46 5.08943 10.556 5.15158 10.6367C5.21277 10.7161 5.28395 10.7872 5.36334 10.8484C5.44396 10.9106 5.54 10.961 5.85199 11.117L6.72361 11.5528C6.893 11.6375 7 11.8106 7 12C7 12.1894 6.893 12.3625 6.72361 12.4472L5.85199 12.883C5.54 13.039 5.44396 13.0894 5.36334 13.1516C5.28395 13.2128 5.21277 13.2839 5.15158 13.3633C5.08943 13.444 5.03902 13.54 4.88302 13.852L4.44721 14.7236C4.36252 14.893 4.18939 15 4 15C3.81061 15 3.63748 14.893 3.55279 14.7236L3.11698 13.852C2.96098 13.54 2.91057 13.444 2.84842 13.3633C2.78723 13.2839 2.71605 13.2128 2.63666 13.1516C2.55604 13.0894 2.46 13.039 2.14801 12.883L2.35129 12.4765L2.14801 12.883L1.27639 12.4472C1.107 12.3625 1 12.1894 1 12C1 11.8106 1.107 11.6375 1.27639 11.5528L2.14801 11.117C2.46 10.961 2.55604 10.9106 2.63666 10.8484C2.71605 10.7872 2.78723 10.7161 2.84842 10.6367C2.91057 10.556 2.96098 10.46 3.11698 10.148L3.55279 9.27639C3.63748 9.107 3.81061 9 4 9ZM4 10.618C3.99741 10.6232 3.99484 10.6284 3.99228 10.6335C3.8633 10.8917 3.76906 11.0803 3.64043 11.2472C3.52678 11.3946 3.39461 11.5268 3.24717 11.6404C3.0803 11.7691 2.89166 11.8633 2.63348 11.9923C2.62836 11.9948 2.62322 11.9974 2.61804 12C2.62322 12.0026 2.62837 12.0052 2.63349 12.0077C2.89167 12.1367 3.0803 12.2309 3.24717 12.3596C3.39461 12.4732 3.52678 12.6054 3.64043 12.7528C3.76906 12.9197 3.8633 13.1083 3.99228 13.3665C3.99484 13.3716 3.99741 13.3768 4 13.382C4.00259 13.3768 4.00516 13.3716 4.00772 13.3665C4.1367 13.1083 4.23094 12.9197 4.35957 12.7528C4.47322 12.6054 4.6054 12.4732 4.75283 12.3596C4.9197 12.2309 5.10833 12.1367 5.36651 12.0077C5.37163 12.0052 5.37678 12.0026 5.38196 12C5.37678 11.9974 5.37163 11.9948 5.36651 11.9923C5.10834 11.8633 4.9197 11.7691 4.75283 11.6404C4.60539 11.5268 4.47322 11.3946 4.35957 11.2472C4.23094 11.0803 4.1367 10.8917 4.00771 10.6335C4.00516 10.6284 4.00259 10.6232 4 10.618Z"/>
</svg>
