<svg width="16" height="16" viewBox="0 0 16 16" xmlns="http://www.w3.org/2000/svg">
<path fill-rule="evenodd" clip-rule="evenodd" d="M3 1.5C3 1.22386 2.77615 1 2.5 1C2.22386 1 2 1.22386 2 1.5L2 9.8624V9.86241C1.99999 10.3113 1.99999 10.6785 2.02437 10.9768C2.0496 11.2857 2.10342 11.5646 2.23615 11.8251C2.44388 12.2328 2.77534 12.5642 3.18302 12.772C3.44351 12.9047 3.72245 12.9585 4.03129 12.9838C4.32966 13.0081 4.6968 13.0081 5.14571 13.0081L10.5632 13.0006C10.7854 13.8629 11.5683 14.5 12.5 14.5C13.6046 14.5 14.5 13.6046 14.5 12.5C14.5 11.3954 13.6046 10.5 12.5 10.5C11.5679 10.5 10.7847 11.1377 10.5629 12.0006L5.16667 12.0081C4.69171 12.0081 4.36556 12.0077 4.11272 11.9871C3.86572 11.9669 3.73304 11.9299 3.63701 11.881C3.41749 11.7691 3.23901 11.5906 3.12716 11.3711C3.07823 11.2751 3.04123 11.1424 3.02105 10.8954C3.00039 10.6426 3 10.3164 3 9.84145L2.99992 6.99609L3 1.5ZM3 7L10.563 7C10.785 7.86261 11.5681 8.5 12.5 8.5C13.6046 8.5 14.5 7.60457 14.5 6.5C14.5 5.39543 13.6046 4.5 12.5 4.5C11.5681 4.5 10.785 5.13739 10.563 6H3L3 7ZM12.5 5.5C11.9477 5.5 11.5 5.94772 11.5 6.5C11.5 7.05229 11.9477 7.5 12.5 7.5C13.0523 7.5 13.5 7.05229 13.5 6.5C13.5 5.94772 13.0523 5.5 12.5 5.5ZM11.5 12.5C11.5 11.9477 11.9477 11.5 12.5 11.5C13.0523 11.5 13.5 11.9477 13.5 12.5C13.5 13.0523 13.0523 13.5 12.5 13.5C11.9477 13.5 11.5 13.0523 11.5 12.5Z"/>
</svg>
