<svg width="15" height="15" viewBox="0 0 15 15" xmlns="http://www.w3.org/2000/svg">
<path fill-rule="evenodd" clip-rule="evenodd" d="M7.50007 1C7.77622 1 8.00007 1.22386 8.00007 1.5V8.29289L11.1465 5.14645C11.3418 4.95118 11.6584 4.95118 11.8536 5.14645C12.0489 5.34171 12.0489 5.65829 11.8536 5.85355L7.85363 9.85355C7.65836 10.0488 7.34178 10.0488 7.14652 9.85355L3.14652 5.85355C2.95126 5.65829 2.95126 5.34171 3.14652 5.14645C3.34178 4.95118 3.65836 4.95118 3.85363 5.14645L7.00007 8.29289V1.5C7.00007 1.22386 7.22393 1 7.50007 1ZM1.50007 9C1.77622 9 2.00007 9.22386 2.00007 9.5V10.5C2.00007 11.6646 2.01212 11.8838 2.16356 12.181C2.30737 12.4632 2.53684 12.6927 2.81909 12.8365C2.95077 12.9036 3.12461 12.9497 3.42719 12.9744C3.73561 12.9996 4.13177 13 4.70007 13H10.3001C10.8684 13 11.2645 12.9996 11.573 12.9744C11.8755 12.9497 12.0494 12.9036 12.1811 12.8365C12.4633 12.6927 12.6928 12.4632 12.8366 12.181C12.988 11.8838 13.0001 11.6646 13.0001 10.5V9.5C13.0001 9.22386 13.2239 9 13.5001 9C13.7762 9 14.0001 9.22386 14.0001 9.5V10.5C14.0001 10.5429 14.0001 10.5848 14.0001 10.6259C14.0006 11.6156 14.0008 12.0988 13.7276 12.635C13.4879 13.1054 13.1055 13.4878 12.635 13.7275C12.3389 13.8784 12.0188 13.9413 11.6544 13.9711C11.3004 14 10.8634 14 10.3215 14H4.67866C4.13677 14 3.6997 14 3.34576 13.9711C2.98134 13.9413 2.66124 13.8784 2.3651 13.7275C1.89469 13.4878 1.51224 13.1054 1.27256 12.635C0.999364 12.0988 0.999584 11.6156 1.00004 10.6259C1.00005 10.5848 1.00007 10.5429 1.00007 10.5V9.5C1.00007 9.22386 1.22393 9 1.50007 9Z"/>
</svg>
