<svg width="16" height="16" viewBox="0 0 16 16" xmlns="http://www.w3.org/2000/svg">
<path fill-rule="evenodd" clip-rule="evenodd" d="M4.55385 3.15385C4.55385 1.96431 5.51816 1 6.70769 1C7.89723 1 8.86154 1.96431 8.86154 3.15385V3.58462H8.98813C9.4237 3.58461 9.77778 3.58461 10.0665 3.60431C10.3643 3.62462 10.6317 3.66768 10.8863 3.77316C11.4933 4.02455 11.9754 4.50675 12.2268 5.11366C12.3323 5.36832 12.3754 5.63573 12.3957 5.93348C12.4069 6.09764 12.4117 6.28293 12.4138 6.49231H12.8462C14.0357 6.49231 15 7.45662 15 8.64615C15 9.83569 14.0357 10.8 12.8462 10.8H12.4154V11.3828C12.4154 11.9063 12.4154 12.3318 12.3872 12.677C12.3581 13.0336 12.2962 13.3517 12.1454 13.6476C11.9079 14.1136 11.529 14.4926 11.063 14.73C10.7671 14.8808 10.449 14.9427 10.0924 14.9718C9.74715 15 9.32165 15 8.79817 15H8.32308C8.02569 15 7.78462 14.7589 7.78462 14.4615V13.3308C7.78462 12.8252 7.37478 12.4154 6.86923 12.4154C6.36368 12.4154 5.95385 12.8252 5.95385 13.3308V14.4615C5.95385 14.7589 5.71277 15 5.41539 15H4.61721C4.09373 15 3.66823 15 3.32297 14.9718C2.96643 14.9427 2.64831 14.8808 2.35242 14.73C1.88636 14.4926 1.50744 14.1136 1.26997 13.6476C1.11921 13.3517 1.05733 13.0336 1.0282 12.677C0.99999 12.3318 0.999994 11.9063 1 11.3828L1 10.2615C1 9.96415 1.24108 9.72308 1.53846 9.72308H2.50769C3.10246 9.72308 3.58462 9.24092 3.58462 8.64615C3.58462 8.05139 3.10246 7.56923 2.50769 7.56923H1.53846C1.24108 7.56923 1 7.32815 1 7.03077L1 7.01188C0.999996 6.57631 0.999993 6.22222 1.01969 5.93348C1.04001 5.63573 1.08306 5.36832 1.18854 5.11366C1.43994 4.50675 1.92213 4.02455 2.52905 3.77316C2.78371 3.66768 3.05111 3.62462 3.34886 3.60431C3.63761 3.58461 3.99169 3.58461 4.42726 3.58462H4.55385V3.15385ZM6.70769 2.07692C6.11293 2.07692 5.63077 2.55908 5.63077 3.15385V4.12308C5.63077 4.42046 5.38969 4.66154 5.09231 4.66154H4.44615C3.98718 4.66154 3.66992 4.66183 3.42217 4.67873C3.17925 4.69531 3.04274 4.72604 2.94117 4.76811C2.59813 4.9102 2.32558 5.18274 2.18349 5.52578C2.14142 5.62735 2.11069 5.76387 2.09412 6.00678C2.0848 6.14344 2.08053 6.30124 2.07857 6.49231H2.50769C3.69723 6.49231 4.66154 7.45662 4.66154 8.64615C4.66154 9.83569 3.69723 10.8 2.50769 10.8H2.07692V11.36C2.07692 11.9117 2.07734 12.2931 2.10155 12.5893C2.12523 12.8793 2.169 13.0399 2.22951 13.1587C2.36374 13.4221 2.57791 13.6363 2.84134 13.7705C2.96011 13.831 3.12073 13.8748 3.41067 13.8985C3.7069 13.9227 4.0883 13.9231 4.64 13.9231H4.87692V13.3308C4.87692 12.2304 5.76891 11.3385 6.86923 11.3385C7.96955 11.3385 8.86154 12.2304 8.86154 13.3308V13.9231C9.36721 13.923 9.72416 13.9214 10.0047 13.8985C10.2947 13.8748 10.4553 13.831 10.574 13.7705C10.8375 13.6363 11.0516 13.4221 11.1859 13.1587C11.2464 13.0399 11.2902 12.8793 11.3138 12.5893C11.338 12.2931 11.3385 11.9117 11.3385 11.36V10.2615C11.3385 9.96415 11.5795 9.72308 11.8769 9.72308H12.8462C13.4409 9.72308 13.9231 9.24092 13.9231 8.64615C13.9231 8.05139 13.4409 7.56923 12.8462 7.56923H11.8769C11.5795 7.56923 11.3385 7.32815 11.3385 7.03077C11.3385 6.5718 11.3382 6.25454 11.3213 6.00678C11.3047 5.76387 11.274 5.62735 11.2319 5.52578C11.0898 5.18274 10.8173 4.9102 10.4742 4.76811C10.3726 4.72604 10.2361 4.69531 9.99322 4.67873C9.74547 4.66183 9.4282 4.66154 8.96923 4.66154H8.32308C8.02569 4.66154 7.78462 4.42046 7.78462 4.12308V3.15385C7.78462 2.55908 7.30246 2.07692 6.70769 2.07692Z" />
</svg>
