<svg width="14" height="14" viewBox="0 0 14 14" xmlns="http://www.w3.org/2000/svg">
<path fill-rule="evenodd" clip-rule="evenodd" d="M6.52539 2C4.0237 2 2 4.0171 2 6.5C2 8.9829 4.0237 11 6.52539 11C8.7393 11 10.5789 9.42029 10.9728 7.33602L10.6191 7.68783C10.4233 7.88257 10.1067 7.88172 9.91199 7.68594C9.71725 7.49015 9.7181 7.17357 9.91389 6.97883L11.031 5.86772C11.2261 5.67368 11.5413 5.67373 11.7363 5.86783L12.8527 6.97894C13.0484 7.17373 13.0492 7.49032 12.8544 7.68604C12.6596 7.88177 12.343 7.88252 12.1473 7.68773L11.9596 7.50088C11.4866 10.0621 9.2317 12 6.52539 12C3.47619 12 1 9.53995 1 6.5C1 3.46005 3.47619 1 6.52539 1C8.55193 1 10.3241 2.08642 11.2853 3.70534C11.4262 3.94279 11.348 4.24956 11.1106 4.39054C10.8731 4.53152 10.5664 4.45331 10.4254 4.21587C9.63778 2.88929 8.18628 2 6.52539 2ZM6.52539 3.22222C6.80154 3.22222 7.02539 3.44608 7.02539 3.72222V6.23166L8.4769 7.19444C8.70702 7.34708 8.76984 7.65737 8.6172 7.88749C8.46456 8.11761 8.15427 8.18042 7.92415 8.02778L6.24902 6.91667C6.10936 6.82404 6.02539 6.66759 6.02539 6.5V3.72222C6.02539 3.44608 6.24925 3.22222 6.52539 3.22222Z"/>
</svg>
