<svg width="16" height="16" viewBox="0 0 16 16" xmlns="http://www.w3.org/2000/svg">
<path fill-rule="evenodd" clip-rule="evenodd" d="M6.32568 2.54102C6.33192 2.54498 6.33819 2.54895 6.34447 2.55293L13.0284 6.78696C13.2247 6.91134 13.3995 7.02207 13.5325 7.12398C13.669 7.22855 13.8218 7.36743 13.9099 7.56925C14.03 7.8445 14.03 8.15548 13.9099 8.43074C13.8218 8.63256 13.669 8.77144 13.5325 8.87601C13.3995 8.97791 13.2247 9.08863 13.0284 9.213L6.32567 13.459C6.08564 13.611 5.87764 13.7428 5.70299 13.8328C5.52721 13.9233 5.31127 14.0124 5.06782 13.9986C4.74584 13.9803 4.44092 13.8288 4.23719 13.5729C4.08023 13.3758 4.03691 13.1414 4.01836 12.949C3.99997 12.7584 3.99999 12.5186 4 12.2463L4 3.77722C4 3.76936 4 3.76152 4 3.7537C3.99999 3.48138 3.99997 3.24161 4.01836 3.05096C4.03691 2.85857 4.08023 2.62424 4.23719 2.42708C4.44092 2.17119 4.74584 2.01969 5.06782 2.00142C5.31127 1.98761 5.52721 2.07672 5.70299 2.16724C5.87765 2.25718 6.08564 2.38895 6.32568 2.54102Z"/>
</svg>
