<svg width="21" height="21" viewBox="0 0 21 21" xmlns="http://www.w3.org/2000/svg">
<path fill-rule="evenodd" clip-rule="evenodd" d="M13.6756 2.03197C13.9341 2.12893 14.0651 2.41714 13.9682 2.6757L7.96816 18.6757C7.8712 18.9343 7.583 19.0653 7.32444 18.9683C7.06588 18.8713 6.93488 18.5831 7.03184 18.3246L13.0318 2.32457C13.1288 2.06601 13.417 1.93501 13.6756 2.03197ZM5.81235 5.1097C6.02798 5.28221 6.06294 5.59685 5.89043 5.81248L2.14031 10.5001L5.89043 15.1878C6.06294 15.4034 6.02798 15.7181 5.81235 15.8906C5.59672 16.0631 5.28207 16.0281 5.10957 15.8125L1.10957 10.8125C0.963478 10.6299 0.963478 10.3704 1.10957 10.1878L5.10957 5.18779C5.28207 4.97216 5.59672 4.9372 5.81235 5.1097ZM15.1877 5.1097C15.4033 4.9372 15.7179 4.97216 15.8904 5.18779L19.8904 10.1878C20.0365 10.3704 20.0365 10.6299 19.8904 10.8125L15.8904 15.8125C15.7179 16.0281 15.4033 16.0631 15.1877 15.8906C14.972 15.7181 14.9371 15.4034 15.1096 15.1878L18.8597 10.5001L15.1096 5.81248C14.9371 5.59685 14.972 5.28221 15.1877 5.1097Z"/>
</svg>
