<svg width="14" height="14" viewBox="0 0 14 14" xmlns="http://www.w3.org/2000/svg">
<path fill-rule="evenodd" clip-rule="evenodd" d="M7 2C4.23858 2 2 4.23858 2 7C2 9.76142 4.23858 12 7 12C9.76142 12 12 9.76142 12 7C12 4.23858 9.76142 2 7 2ZM1 7C1 3.68629 3.68629 1 7 1C10.3137 1 13 3.68629 13 7C13 10.3137 10.3137 13 7 13C3.68629 13 1 10.3137 1 7ZM7.15042 4.76409C6.88274 4.71818 6.60746 4.76848 6.37332 4.90609C6.13918 5.0437 5.96129 5.25973 5.87117 5.51592C5.77953 5.77642 5.49407 5.9133 5.23358 5.82167C4.97308 5.73003 4.8362 5.44457 4.92783 5.18408C5.09632 4.70511 5.42889 4.30122 5.86663 4.04396C6.30438 3.78669 6.81904 3.69265 7.31948 3.77849C7.81991 3.86433 8.27382 4.1245 8.60081 4.51294C8.92773 4.9013 9.10669 5.39281 9.106 5.90045C9.10578 6.71563 8.50097 7.25845 8.05835 7.55353C7.82178 7.71124 7.58878 7.82738 7.41688 7.90378C7.33022 7.9423 7.25731 7.97149 7.2049 7.99146C7.17865 8.00146 7.15742 8.00919 7.14204 8.01466L7.12342 8.02118L7.11756 8.02318L7.11553 8.02387L7.11441 8.02424C7.11441 8.02424 7.11411 8.02434 6.956 7.55L7.11441 8.02424C6.85244 8.11157 6.56898 7.97009 6.48166 7.70811C6.39444 7.44647 6.53556 7.16369 6.7969 7.07599L6.79789 7.07566L6.80703 7.07245C6.81582 7.06932 6.83003 7.06416 6.8489 7.05697C6.88672 7.04257 6.94271 7.0202 7.01074 6.98997C7.14822 6.92887 7.32772 6.83876 7.50365 6.72148C7.88595 6.46661 8.106 6.18457 8.106 5.9C8.10641 5.62842 8.01068 5.36471 7.83578 5.15694C7.66088 4.94917 7.41809 4.81001 7.15042 4.76409ZM6.5 9.75C6.5 9.47386 6.72386 9.25 7 9.25H7.0055C7.28164 9.25 7.5055 9.47386 7.5055 9.75C7.5055 10.0261 7.28164 10.25 7.0055 10.25H7C6.72386 10.25 6.5 10.0261 6.5 9.75Z"/>
</svg>
