<svg width="21" height="21" viewBox="0 0 21 21" xmlns="http://www.w3.org/2000/svg">
<path fill-rule="evenodd" clip-rule="evenodd" d="M10.1464 2.14645C10.3417 1.95118 10.6583 1.95118 10.8536 2.14645L15.8536 7.14645C16.0488 7.34171 16.0488 7.65829 15.8536 7.85355C15.6583 8.04882 15.3417 8.04882 15.1464 7.85355L11 3.70711V13.5C11 13.7761 10.7761 14 10.5 14C10.2239 14 10 13.7761 10 13.5V3.70711L5.85355 7.85355C5.65829 8.04882 5.34171 8.04882 5.14645 7.85355C4.95118 7.65829 4.95118 7.34171 5.14645 7.14645L10.1464 2.14645ZM2.5 13C2.77614 13 3 13.2239 3 13.5V14.2333C3 14.9883 3.00039 15.5245 3.03467 15.9441C3.06848 16.3578 3.13273 16.614 3.23615 16.817C3.44388 17.2247 3.77534 17.5561 4.18302 17.7638C4.386 17.8673 4.64217 17.9315 5.05592 17.9653C5.47551 17.9996 6.01168 18 6.76667 18H14.2333C14.9883 18 15.5245 17.9996 15.9441 17.9653C16.3578 17.9315 16.614 17.8673 16.817 17.7638C17.2247 17.5561 17.5561 17.2247 17.7638 16.817C17.8673 16.614 17.9315 16.3578 17.9653 15.9441C17.9996 15.5245 18 14.9883 18 14.2333V13.5C18 13.2239 18.2239 13 18.5 13C18.7761 13 19 13.2239 19 13.5V14.2553C19 14.9834 19 15.5604 18.962 16.0255C18.9232 16.5011 18.8421 16.9035 18.6549 17.271C18.3513 17.8668 17.8668 18.3513 17.271 18.6549C16.9035 18.8421 16.5011 18.9232 16.0255 18.962C15.5604 19 14.9834 19 14.2553 19H6.74465C6.01656 19 5.43957 19 4.97449 18.962C4.4989 18.9232 4.09648 18.8421 3.72903 18.6549C3.13318 18.3513 2.64875 17.8668 2.34515 17.271C2.15792 16.9035 2.07685 16.5011 2.03799 16.0255C1.99999 15.5604 2 14.9834 2 14.2553L2 13.5C2 13.2239 2.22386 13 2.5 13Z"/>
</svg>
