<svg width="16" height="16" viewBox="0 0 16 16" fill="none" xmlns="http://www.w3.org/2000/svg">
<path d="M1 4C1 2.34315 2.34315 1 4 1H12C13.6569 1 15 2.34315 15 4V12C15 13.6569 13.6569 15 12 15H4C2.34315 15 1 13.6569 1 12V4Z" />
<path fill-rule="evenodd" clip-rule="evenodd" d="M12 2H4C2.89543 2 2 2.89543 2 4V12C2 13.1046 2.89543 14 4 14H12C13.1046 14 14 13.1046 14 12V4C14 2.89543 13.1046 2 12 2ZM4 1C2.34315 1 1 2.34315 1 4V12C1 13.6569 2.34315 15 4 15H12C13.6569 15 15 13.6569 15 12V4C15 2.34315 13.6569 1 12 1H4Z" fill="#000000"/>
<path fill-rule="evenodd" clip-rule="evenodd" d="M5 6H11C12.1046 6 13 6.89543 13 8C13 9.10457 12.1046 10 11 10H5C3.89543 10 3 9.10457 3 8C3 6.89543 3.89543 6 5 6ZM5 7C4.44772 7 4 7.44772 4 8C4 8.55228 4.44772 9 5 9H11C11.5523 9 12 8.55228 12 8C12 7.44772 11.5523 7 11 7H5Z" fill="#000000"/>
</svg>
