<svg width="12" height="12" viewBox="0 0 12 12" xmlns="http://www.w3.org/2000/svg">
<path fill-rule="evenodd" clip-rule="evenodd" d="M11.3821 0.617913C10.5582 -0.20597 9.22245 -0.205971 8.39857 0.617911L1.95974 7.05673C1.82529 7.19112 1.72773 7.28864 1.64239 7.39862C1.56688 7.49592 1.49965 7.59937 1.4414 7.70788C1.37556 7.83054 1.32607 7.9593 1.25786 8.13674L0.0333416 11.3205C-0.0375906 11.5049 0.00674075 11.7138 0.146461 11.8536C0.286181 11.9933 0.49508 12.0376 0.679504 11.9667L3.72485 10.7954L3.727 10.7946L3.86326 10.7422C4.04071 10.6739 4.16947 10.6245 4.29213 10.5586C4.40064 10.5004 4.50409 10.4331 4.60139 10.3576C4.71137 10.2723 4.80889 10.1747 4.94328 10.0403L11.3821 3.60146C12.206 2.77758 12.206 1.4418 11.3821 0.617913ZM2.13798 8.63416L2.13934 8.63059L2.18136 8.52135C2.26335 8.30817 2.29001 8.24134 2.32249 8.18084C2.35435 8.12149 2.39112 8.0649 2.43242 8.01168C2.47452 7.95743 2.52476 7.90593 2.68626 7.74442L7.36132 3.06937L8.88034 4.68901L4.25559 9.31376C4.09409 9.47526 4.04258 9.5255 3.98833 9.56759C3.93511 9.60889 3.87853 9.64566 3.81918 9.67752C3.75867 9.71 3.69184 9.73667 3.47867 9.81866L1.37054 10.6295L2.13798 8.63416ZM9.58781 3.98155L10.675 2.89435C11.1084 2.46099 11.1084 1.75838 10.675 1.32502C10.2416 0.89166 9.53904 0.89166 9.10568 1.32502L8.06879 2.3619L9.58781 3.98155Z"/>
<path d="M6.5 11C6.22386 11 6 11.2239 6 11.5C6 11.7761 6.22386 12 6.5 12H11.5C11.7761 12 12 11.7761 12 11.5C12 11.2239 11.7761 11 11.5 11H6.5Z"/>
</svg>
