<svg width="16" height="16" viewBox="0 0 16 16" xmlns="http://www.w3.org/2000/svg">
<path d="M14.0274 2.00003C13.0914 1.06403 11.6274 1.06403 10.6914 2.00003L2.02742 10.592C1.82742 10.792 1.49142 11.28 1.42742 11.528C1.37142 11.728 0.99959 14.5 0.99959 14.5C0.99959 14.636 0.994532 14.7585 1.11995 14.884C1.25595 15.02 1.42742 15 1.56342 15C1.56342 15 4.52342 14.712 4.96342 14.336C5.12342 14.176 12.0994 7.13598 12.0994 7.13598L13.9634 5.34403C14.9554 4.40003 14.9554 2.93603 14.0274 2.00003ZM4.69142 13.264L4.35542 13.6C4.23542 13.664 3.93942 13.776 3.69142 13.8L2 14L2.22742 12.336C2.30742 11.904 2.45142 11.56 2.67542 11.32L9.15542 4.80798L11.1554 6.80798C11.1634 6.79198 4.69142 13.264 4.69142 13.264ZM13.3554 4.67203L11.8274 6.12799L9.82742 4.12798L11.3554 2.67203C11.8914 2.13603 12.8194 2.13603 13.3554 2.67203C13.8914 3.20803 13.8914 4.13603 13.3554 4.67203ZM14.4996 15H8.47159C8.21559 15 7.99959 14.756 7.99959 14.5C7.99959 14.244 8.21559 14 8.47159 14H14.4996C14.7556 14 14.9996 14.244 14.9996 14.5C14.9996 14.764 14.7636 15 14.4996 15Z"/>
</svg>
