<svg width="16" height="16" viewBox="0 0 16 16" xmlns="http://www.w3.org/2000/svg">
<path fill-rule="evenodd" clip-rule="evenodd" d="M5.06402 1L10.986 1C11.5952 0.999996 12.0828 0.999992 12.477 1.03219C12.8816 1.06525 13.2314 1.13473 13.5534 1.29876C14.0691 1.56155 14.4884 1.98088 14.7512 2.49664C14.9153 2.81856 14.9847 3.16842 15.0178 3.57304C15.05 3.96717 15.05 4.45485 15.05 5.06406V6.3556C15.05 6.63174 14.8261 6.8556 14.55 6.8556C14.2739 6.8556 14.05 6.63174 14.05 6.3556V5.08567C14.05 4.44987 14.0496 4.00309 14.0211 3.65448C13.9931 3.3117 13.9405 3.10809 13.8602 2.95063C13.6933 2.62303 13.427 2.35668 13.0994 2.18976C12.9419 2.10953 12.7383 2.05688 12.3955 2.02887C12.0469 2.00039 11.6001 2 10.9643 2H5.08568C4.44988 2 4.0031 2.00039 3.65448 2.02887C3.3117 2.05688 3.10809 2.10953 2.95063 2.18976C2.62303 2.35668 2.35668 2.62303 2.18976 2.95063C2.10953 3.10809 2.05688 3.3117 2.02887 3.65448C2.00039 4.00309 2 4.44987 2 5.08567V10.9143C2 11.5501 2.00039 11.9969 2.02887 12.3455C2.05688 12.6883 2.10953 12.8919 2.18976 13.0494C2.35668 13.377 2.62303 13.6433 2.95063 13.8102C3.10809 13.8905 3.3117 13.9431 3.65448 13.9711C4.0031 13.9996 4.44988 14 5.08568 14H6.35561C6.63175 14 6.85561 14.2239 6.85561 14.5C6.85561 14.7761 6.63175 15 6.35561 15H5.06406C4.45485 15 3.96718 15 3.57305 14.9678C3.16843 14.9347 2.81857 14.8653 2.49664 14.7012C1.98088 14.4384 1.56155 14.0191 1.29876 13.5034C1.13473 13.1814 1.06525 12.8316 1.03219 12.427C0.999992 12.0328 0.999996 11.5452 1 10.936L1 5.06402C0.999996 4.45483 0.999992 3.96717 1.03219 3.57304C1.06525 3.16842 1.13473 2.81856 1.29876 2.49664C1.56155 1.98088 1.98088 1.56155 2.49664 1.29876C2.81857 1.13473 3.16843 1.06525 3.57305 1.03219C3.96717 0.999992 4.45483 0.999996 5.06402 1ZM7.86574 6.43073L14.05 8.47837C14.2404 8.54138 14.4142 8.59891 14.5477 8.65674C14.6726 8.71087 14.8703 8.8075 14.9926 9.00589C15.1376 9.24091 15.1629 9.53064 15.0609 9.78723C14.9747 10.0038 14.7968 10.1332 14.6831 10.2082C14.5617 10.2883 14.4005 10.3751 14.2239 10.4702L11.8493 11.7488L11.8236 11.7627L11.8097 11.7884L10.531 14.1631C10.4359 14.3396 10.3492 14.5008 10.2691 14.6223C10.1941 14.7359 10.0647 14.9139 9.84808 15C9.59149 15.102 9.30176 15.0767 9.06674 14.9318C8.86836 14.8094 8.77172 14.6117 8.7176 14.4868C8.65976 14.3533 8.60224 14.1795 8.53922 13.9891L6.4916 7.80486C6.43689 7.63969 6.38555 7.48469 6.35561 7.35609C6.32619 7.22974 6.29217 7.03438 6.36449 6.83209C6.45259 6.58567 6.64654 6.39172 6.89297 6.30362C7.09526 6.23131 7.29061 6.26533 7.41696 6.29474C7.54556 6.32468 7.70057 6.37602 7.86574 6.43073ZM7.38707 7.32621C7.40365 7.37778 7.42355 7.43811 7.44728 7.50976L9.48191 13.6548C9.50941 13.7379 9.53278 13.8082 9.55326 13.8683C9.58384 13.8127 9.61904 13.7474 9.66052 13.6704L10.9292 11.3143C10.9313 11.3104 10.9335 11.3063 10.9358 11.3019C10.9597 11.2573 10.9959 11.1896 11.0448 11.1277C11.087 11.0743 11.1352 11.0261 11.1885 10.984C11.2504 10.935 11.3182 10.8988 11.3628 10.875C11.3672 10.8726 11.3713 10.8704 11.3752 10.8683L13.7313 9.59967C13.8083 9.55818 13.8735 9.52299 13.9291 9.4924C13.8691 9.47192 13.7987 9.44856 13.7157 9.42106L7.57062 7.38641C7.49898 7.36269 7.43864 7.34278 7.38707 7.32621Z"/>
</svg>
