<svg width="15" height="15" viewBox="0 0 15 15" xmlns="http://www.w3.org/2000/svg">
<path d="M4.64667 0.999844L10.3533 0.999817C10.8967 0.999817 11.3327 0.999817 11.6847 1.02848C12.0473 1.05848 12.3627 1.12048 12.6533 1.26848C13.1175 1.50497 13.4948 1.88234 13.7313 2.34648C13.8793 2.63715 13.9413 2.95315 13.9713 3.31515C14 3.66782 14 4.10315 14 4.64648L14.0021 7.35336C14.0021 7.89669 14.0021 8.33269 13.9735 8.68469C13.9435 9.04736 13.8815 9.36269 13.7335 9.65336C13.497 10.1175 13.1196 10.4949 12.6555 10.7314C12.3648 10.8794 12.0495 10.9414 11.6868 10.9714C11.3348 11 10.8988 11 10.3555 11H8V12.9998H10.5C10.6238 12.9998 10.7858 13.049 10.8733 13.1365C10.9608 13.224 11 13.3762 11 13.5C11 13.6238 10.9608 13.7406 10.8733 13.8281C10.7858 13.9156 10.6238 14 10.5 14H4.5C4.37623 14 4.22029 13.9391 4.13278 13.8516C4.04526 13.764 4 13.6238 4 13.5C4 13.3762 4.04526 13.224 4.13278 13.1365C4.22029 13.049 4.37623 12.9998 4.5 12.9998H7V11H4.64667C4.10333 11 3.668 11 3.31533 10.9714C2.95267 10.9414 2.63733 10.8794 2.34667 10.7314C1.88252 10.4949 1.50516 10.1175 1.26867 9.65336C1.12067 9.36269 1.05867 9.04736 1.02867 8.68469C1 8.33336 1 7.89669 1 7.35336V4.64651C1 4.10318 1 3.66784 1.02867 3.31518C1.05867 2.95251 1.12067 2.63718 1.26867 2.34651C1.50516 1.88236 1.88252 1.505 2.34667 1.26851C2.63733 1.12051 2.95333 1.05851 3.31533 1.02851C3.668 0.999844 4.10333 0.999844 4.64667 0.999844ZM10.2667 10.0068C10.8347 10.0068 11.232 10.0068 11.542 9.98145C11.8467 9.95612 12.026 9.90945 12.1627 9.83945C12.4511 9.69246 12.6857 9.45792 12.8327 9.16945C12.9027 9.03212 12.9493 8.85345 12.9747 8.54945C12.9993 8.23879 13 7.84145 13 7.27345V4.73336C13 4.16536 13 3.76803 12.9747 3.45803C12.9493 3.15336 12.9027 2.97469 12.8327 2.83736C12.6857 2.54889 12.4511 2.31436 12.1627 2.16736C12.0253 2.09736 11.8467 2.05069 11.5427 2.02603C11.2313 2.00003 10.834 2.00003 10.2667 2.00003H4.73333C4.16533 2.00003 3.768 2.00003 3.458 2.02603C3.15333 2.05069 2.97467 2.09736 2.83733 2.16736C2.54862 2.31424 2.31384 2.54879 2.16667 2.83736C2.09667 2.97469 2.05 3.15336 2.02533 3.45736C2 3.76869 2 4.16603 2 4.73336L1.974 7.27057C1.974 7.83857 1.974 8.23591 2 8.54591C2.02467 8.85057 2.00467 9.02993 2.07467 9.1666C2.28833 9.45504 2.52287 9.68958 2.81133 9.83657C2.94867 9.90657 3.12733 9.95324 3.43133 9.97857C3.742 10.0032 4.13933 10.0039 4.70733 10.0039L10.2667 10.0068Z"/>
</svg>
