<svg width="16" height="16" viewBox="0 0 16 16" xmlns="http://www.w3.org/2000/svg">
<path fill-rule="evenodd" clip-rule="evenodd" d="M11.2517 1.14645C11.447 0.951184 11.7636 0.951184 11.9588 1.14645L13.8536 3.04118C14.0488 3.23645 14.0488 3.55303 13.8536 3.74829C13.6583 3.94355 13.3417 3.94355 13.1464 3.74829L12.1053 2.70711V5.28947C12.1053 5.56562 11.8814 5.78947 11.6053 5.78947C11.3291 5.78947 11.1053 5.56562 11.1053 5.28947V2.70711L10.0641 3.74829C9.86882 3.94355 9.55223 3.94355 9.35697 3.74829C9.16171 3.55303 9.16171 3.23645 9.35697 3.04118L11.2517 1.14645ZM4.5103 1.63158L7.5 1.63158C7.77614 1.63158 8 1.85544 8 2.13158C8 2.40772 7.77614 2.63158 7.5 2.63158H4.53158C3.99275 2.63158 3.6187 2.63197 3.32784 2.65573C3.0428 2.67902 2.88196 2.72224 2.76154 2.7836C2.4991 2.91731 2.28574 3.13068 2.15202 3.39312C2.09066 3.51354 2.04744 3.67438 2.02415 3.95941C2.00039 4.25028 2 4.62433 2 5.16316V10.4684C2 11.0072 2.00039 11.3813 2.02415 11.6722C2.04744 11.9572 2.09066 12.118 2.15202 12.2385C2.28574 12.5009 2.4991 12.7143 2.76154 12.848C2.78296 12.8589 2.80566 12.8692 2.83011 12.879C2.88726 12.755 2.96953 12.6618 3.02328 12.6036C3.11508 12.5043 3.24155 12.3893 3.37872 12.2647L8.74773 7.38375C8.85112 7.28974 8.94827 7.20141 9.03623 7.13285C9.13238 7.05791 9.24541 6.98377 9.38715 6.93773C9.5912 6.87146 9.8099 6.86456 10.0177 6.91784C10.1621 6.95485 10.2796 7.02172 10.3802 7.09045C10.4723 7.15333 10.5749 7.23535 10.684 7.32264L12.4627 8.74564C12.4751 8.75553 12.4873 8.76529 12.4993 8.77493C12.7025 8.93722 12.8653 9.06732 12.9922 9.22901C13.1506 9.43086 13.2631 9.66486 13.3218 9.91466C13.3687 10.1148 13.3686 10.3232 13.3684 10.5832C13.3684 10.5986 13.3684 10.6143 13.3684 10.6301V10.6483C13.3684 10.7559 13.3684 10.8585 13.3681 10.9563C13.3683 10.9621 13.3684 10.9679 13.3684 10.9737C13.3684 10.9993 13.3684 11.0245 13.3684 11.0494C13.3686 11.5634 13.3688 11.9193 13.2868 12.2251C13.1899 12.5866 13.0119 12.9135 12.773 13.1855C12.6947 13.2746 12.6099 13.3579 12.5192 13.4345C12.2544 13.6583 11.9398 13.8256 11.5935 13.9184C11.2877 14.0003 10.9318 14.0002 10.4178 14C10.3929 14 10.3677 14 10.3421 14H10.0477C10.0374 14 10.027 14 10.0167 14H4.51034C4.49759 14 4.48489 14 4.47226 14L4.04961 14C3.88395 14 3.72985 14 3.60278 13.9916C3.47512 13.9876 3.35655 13.9815 3.2464 13.9725C2.89953 13.9442 2.59244 13.8841 2.30755 13.739C1.85695 13.5094 1.4906 13.1431 1.26101 12.6925C1.11585 12.4076 1.05582 12.1005 1.02748 11.7536C0.999991 11.4172 0.999995 11.0022 1 10.4897V5.14188C0.999995 4.62936 0.999991 4.21437 1.02748 3.87798C1.05582 3.53111 1.11585 3.22402 1.26101 2.93913C1.4906 2.48853 1.85695 2.12218 2.30755 1.89259C2.59244 1.74743 2.89953 1.68739 3.2464 1.65905C3.5828 1.63157 3.99778 1.63157 4.5103 1.63158ZM12.0672 12.471C12.1433 12.3749 12.207 12.2684 12.256 12.1538C12.3012 12.0481 12.3333 11.9079 12.3506 11.6623C12.3681 11.412 12.3684 11.0916 12.3684 10.6301C12.3684 10.3005 12.3653 10.216 12.3482 10.1432C12.3228 10.0351 12.2742 9.9338 12.2056 9.84644C12.1594 9.78759 12.0953 9.73238 11.838 9.52651L10.0713 8.11317C9.94593 8.01285 9.87335 7.95521 9.81644 7.91636C9.78676 7.8961 9.77144 7.88818 9.76619 7.88574C9.74405 7.88064 9.72097 7.88137 9.69919 7.88785C9.6941 7.89062 9.67932 7.89948 9.65097 7.92158C9.59662 7.96394 9.52782 8.02604 9.40899 8.13406L4.06654 12.9908C4.06348 12.9936 4.06046 12.9964 4.05746 12.9991C4.20008 13 4.3572 13 4.53158 13H9.99851C10.46 13 10.7804 12.9997 11.0307 12.9821C11.2763 12.9649 11.4166 12.9328 11.5222 12.8876C11.659 12.8291 11.7842 12.7497 11.894 12.6532C11.9571 12.5979 12.0151 12.5369 12.0672 12.471ZM4.97368 4.84211C4.5522 4.84211 4.21053 5.18378 4.21053 5.60526C4.21053 6.02674 4.5522 6.36842 4.97368 6.36842C5.39516 6.36842 5.73684 6.02674 5.73684 5.60526C5.73684 5.18378 5.39516 4.84211 4.97368 4.84211ZM3.21053 5.60526C3.21053 4.6315 3.99992 3.84211 4.97368 3.84211C5.94745 3.84211 6.73684 4.6315 6.73684 5.60526C6.73684 6.57903 5.94745 7.36842 4.97368 7.36842C3.99992 7.36842 3.21053 6.57903 3.21053 5.60526Z"/>
</svg>
