<svg width="15" height="15" viewBox="0 0 15 15" xmlns="http://www.w3.org/2000/svg">
<path fill-rule="evenodd" clip-rule="evenodd" d="M3.98405 4.69116C3.36824 5.46099 3 6.43749 3 7.5C3 9.98528 5.01472 12 7.5 12C8.56251 12 9.53901 11.6318 10.3088 11.016L3.98405 4.69116ZM4.69116 3.98405L11.016 10.3088C11.6318 9.53901 12 8.56251 12 7.5C12 5.01472 9.98528 3 7.5 3C6.43749 3 5.46099 3.36824 4.69116 3.98405ZM2 7.5C2 4.46243 4.46243 2 7.5 2C10.5376 2 13 4.46243 13 7.5C13 10.5376 10.5376 13 7.5 13C4.46243 13 2 10.5376 2 7.5Z"/>
</svg>
