<svg width="15" height="15" viewBox="0 0 15 15"  xmlns="http://www.w3.org/2000/svg">
<path d="M1.17055 7.37363L5.42106 11.8034L5.44231 11.8245C5.56275 11.9368 5.72568 12 5.88862 12C6.05864 11.993 6.21449 11.9298 6.32784 11.8105L13.8229 4.05304C13.9362 3.9337 14 3.77223 14 3.61076C13.9929 3.44228 13.9292 3.28783 13.8087 3.17551C13.6883 3.06318 13.5324 3 13.3624 3C13.1924 3.00702 13.0366 3.0702 12.9232 3.18955L5.87445 10.4766L2.08441 6.51716C1.97107 6.39782 1.81521 6.32761 1.64519 6.32059H1.63103C1.46809 6.32059 1.31932 6.38378 1.19889 6.48908C1.07846 6.6014 1.00762 6.75585 1.00053 6.92434C0.99345 7.09984 1.05721 7.25429 1.17055 7.37363Z"/>
</svg>
