<svg width="16" height="16" viewBox="0 0 16 16" xmlns="http://www.w3.org/2000/svg">
<path d="M4 1H12V2H4V1Z"/>
<path d="M4 14H12V15H4V14Z"/>
<path d="M15 4V12H14V4H15Z"/>
<path d="M2 4L2 12H1L1 4H2Z"/>
<path fill-rule="evenodd" clip-rule="evenodd" d="M7.24667 5C7.24667 4.58579 7.58246 4.25 7.99667 4.25H8.00333C8.41754 4.25 8.75333 4.58579 8.75333 5C8.75333 5.41421 8.41754 5.75 8.00333 5.75H7.99667C7.58246 5.75 7.24667 5.41421 7.24667 5ZM4.25 8C4.25 7.58579 4.58579 7.25 5 7.25H5.00666C5.42087 7.25 5.75666 7.58579 5.75666 8C5.75666 8.41421 5.42087 8.75 5.00666 8.75H5C4.58579 8.75 4.25 8.41421 4.25 8ZM7.24667 8C7.24667 7.58579 7.58246 7.25 7.99667 7.25H8.00333C8.41754 7.25 8.75333 7.58579 8.75333 8C8.75333 8.41421 8.41754 8.75 8.00333 8.75H7.99667C7.58246 8.75 7.24667 8.41421 7.24667 8ZM10.2433 8C10.2433 7.58579 10.5791 7.25 10.9933 7.25H11C11.4142 7.25 11.75 7.58579 11.75 8C11.75 8.41421 11.4142 8.75 11 8.75H10.9933C10.5791 8.75 10.2433 8.41421 10.2433 8ZM7.24667 11C7.24667 10.5858 7.58246 10.25 7.99667 10.25H8.00333C8.41754 10.25 8.75333 10.5858 8.75333 11C8.75333 11.4142 8.41754 11.75 8.00333 11.75H7.99667C7.58246 11.75 7.24667 11.4142 7.24667 11Z"/>
</svg>
