<svg width="16" height="16" viewBox="0 0 16 16" xmlns="http://www.w3.org/2000/svg">
<path fill-rule="evenodd" clip-rule="evenodd" d="M7.42843 2.11935C7.79116 1.96022 8.20884 1.96022 8.57157 2.11935C8.89571 2.26155 9.08115 2.52118 9.18343 2.68159C9.2861 2.8426 9.3917 3.04962 9.49751 3.25704C9.50251 3.26685 9.50752 3.27666 9.51252 3.28647C9.51737 3.29597 9.52204 3.30556 9.52653 3.31524L13.9201 12.7818C14.1194 13.2112 13.9329 13.7208 13.5035 13.9201C13.0741 14.1194 12.5645 13.9329 12.3652 13.5035L10.6062 9.71346C10.5946 9.71392 10.583 9.71415 10.5713 9.71415H5.42866C5.41699 9.71415 5.40537 9.71392 5.39381 9.71346L3.63478 13.5035C3.43549 13.9329 2.92586 14.1194 2.49648 13.9201C2.0671 13.7208 1.88058 13.2112 2.07986 12.7818L6.47347 3.31524C6.47796 3.30556 6.48263 3.29597 6.48748 3.28647C6.49248 3.27666 6.49749 3.26685 6.50249 3.25704C6.6083 3.04962 6.7139 2.8426 6.81657 2.68159C6.91885 2.52118 7.10429 2.26155 7.42843 2.11935ZM6.1891 7.9999H9.8109L8 4.09808L6.1891 7.9999Z"/>
</svg>
