<svg width="16" height="16" viewBox="0 0 16 16" xmlns="http://www.w3.org/2000/svg">
<path fill-rule="evenodd" clip-rule="evenodd" d="M11.1667 3C10.6891 3 10.3333 3.37539 10.3333 3.8C10.3333 3.93244 10.3679 4.06009 10.4301 4.17306C10.4374 4.18479 10.4446 4.19672 10.4516 4.20886C10.4533 4.21197 10.4551 4.21509 10.4569 4.21822C10.6007 4.44346 10.8582 4.6 11.1667 4.6C11.6443 4.6 12 4.22461 12 3.8C12 3.37539 11.6443 3 11.1667 3ZM9.38175 5.97433C9.87133 6.36659 10.4943 6.6 11.1667 6.6C12.7141 6.6 14 5.36362 14 3.8C14 2.23638 12.7141 1 11.1667 1C9.61924 1 8.33333 2.23638 8.33333 3.8C8.33333 3.95321 8.34568 4.10327 8.36941 4.24934L5.61825 5.82567C5.12867 5.43341 4.50569 5.2 3.83333 5.2C2.2859 5.2 1 6.43638 1 8C1 9.56362 2.2859 10.8 3.83333 10.8C4.50588 10.8 5.12903 10.5665 5.61868 10.174L8.36984 11.748C8.34583 11.8949 8.33333 12.0459 8.33333 12.2C8.33333 13.7636 9.61924 15 11.1667 15C12.7141 15 14 13.7636 14 12.2C14 10.6364 12.7141 9.4 11.1667 9.4C10.4953 9.4 9.87313 9.63274 9.38387 10.024L6.63068 8.44879C6.65435 8.3029 6.66667 8.15302 6.66667 8C6.66667 7.84679 6.65432 7.69673 6.63059 7.55066L9.38175 5.97433ZM4.54315 7.58179C4.54489 7.58491 4.54666 7.58803 4.54844 7.59115C4.55539 7.60328 4.56256 7.61521 4.56994 7.62693C4.63206 7.7399 4.66667 7.86756 4.66667 8C4.66667 8.13244 4.63206 8.26009 4.56994 8.37306C4.56245 8.38497 4.55518 8.39708 4.54813 8.4094C4.54645 8.41233 4.54479 8.41527 4.54315 8.41821C4.39935 8.64346 4.14176 8.8 3.83333 8.8C3.35572 8.8 3 8.42461 3 8C3 7.57539 3.35572 7.2 3.83333 7.2C4.14176 7.2 4.39935 7.35654 4.54315 7.58179ZM10.4092 11.8677C10.4264 11.843 10.4427 11.8173 10.458 11.7906C10.4673 11.7744 10.476 11.758 10.4843 11.7415C10.6321 11.5381 10.877 11.4 11.1667 11.4C11.6443 11.4 12 11.7754 12 12.2C12 12.6246 11.6443 13 11.1667 13C10.6891 13 10.3333 12.6246 10.3333 12.2C10.3333 12.0832 10.3602 11.9702 10.4092 11.8677Z"/>
</svg>
