<svg width="16" height="16" viewBox="0 0 16 16" xmlns="http://www.w3.org/2000/svg">
<path fill-rule="evenodd" clip-rule="evenodd" d="M4 1C4.27055 1 4.52956 1.10963 4.7179 1.30385L6.7179 3.36635C7.10237 3.76284 7.09263 4.39593 6.69615 4.7804C6.29966 5.16487 5.66657 5.15513 5.2821 4.75865L5 4.46773V11.5323L5.2821 11.2414C5.66657 10.8449 6.29966 10.8351 6.69615 11.2196C7.09263 11.6041 7.10237 12.2372 6.7179 12.6336L4.7179 14.6961C4.52956 14.8904 4.27055 15 4 15C3.72945 15 3.47044 14.8904 3.2821 14.6961L1.2821 12.6336C0.89763 12.2372 0.907369 11.6041 1.30385 11.2196C1.70034 10.8351 2.33343 10.8449 2.7179 11.2414L3 11.5323V4.46773L2.7179 4.75865C2.33343 5.15513 1.70034 5.16487 1.30386 4.7804C0.90737 4.39593 0.89763 3.76284 1.2821 3.36635L3.2821 1.30385C3.47044 1.10963 3.72945 1 4 1ZM8 4C8 3.44772 8.44772 3 9 3H14C14.5523 3 15 3.44772 15 4C15 4.55228 14.5523 5 14 5H9C8.44772 5 8 4.55228 8 4ZM8 8C8 7.44772 8.44772 7 9 7H14C14.5523 7 15 7.44772 15 8C15 8.55228 14.5523 9 14 9H9C8.44772 9 8 8.55228 8 8ZM8 12C8 11.4477 8.44772 11 9 11H14C14.5523 11 15 11.4477 15 12C15 12.5523 14.5523 13 14 13H9C8.44772 13 8 12.5523 8 12Z"/>
</svg>
