<svg width="16" height="16" viewBox="0 0 16 16" xmlns="http://www.w3.org/2000/svg">
<path d="M6 12C6 12.5523 6.44771 13 7 13H13C13.5523 13 14 12.5523 14 12C14 11.4477 13.5523 11 13 11H7C6.44772 11 6 11.4477 6 12Z"/>
<path fill-rule="evenodd" clip-rule="evenodd" d="M1 6C1 7.10457 1.89543 8 3 8H13C14.1046 8 15 7.10457 15 6V3C15 1.89543 14.1046 1 13 1H3C1.89543 1 1 1.89543 1 3V6ZM13 6H3L3 3H13V6Z"/>
<path d="M4.81262 11.5963C5.06246 11.8192 5.06246 12.1808 4.81262 12.4037L2.09212 14.8316C1.6891 15.1913 1 14.9366 1 14.4279L1 9.57209C1 9.06343 1.6891 8.8087 2.09212 9.16837L4.81262 11.5963Z"/>
</svg>
