<svg width="16" height="16" xmlns="http://www.w3.org/2000/svg"><path d="m7.493.015-.386.04C5.771.189 4.339.751 3.242 1.573 1.11 3.172-.075 5.62.009 8.253a7.928 7.928 0 0 0 2.338 5.4c1.229 1.23 2.775 2.004 4.533 2.272.328.049.499.058 1.12.058.829 0 1.186-.04 1.887-.212a7.986 7.986 0 0 0 5.884-5.884c.172-.701.212-1.058.212-1.887s-.04-1.186-.212-1.887C14.979 2.877 12.315.498 9 .064 8.716.027 7.683-.006 7.493.015M8.88 2.067a6.025 6.025 0 0 1 4.16 2.68c.202.308.495.906.621 1.266.231.662.323 1.231.323 1.987 0 .592-.038.931-.162 1.44-.349 1.435-1.26 2.726-2.515 3.567a6.496 6.496 0 0 1-2.035.857 6.033 6.033 0 0 1-5.026-1.185A6.087 6.087 0 0 1 2.178 9.44c-.124-.509-.162-.848-.162-1.44 0-.996.171-1.747.597-2.627a5.992 5.992 0 0 1 3.494-3.062c.47-.156.848-.232 1.453-.295.215-.022 1.048.01 1.32.051M5.187 4.534c-.35.07-.69.297-.913.609a1.479 1.479 0 0 0-.224 1.23c.071.281.181.47.405.693.289.289.624.426 1.039.427.4.001.724-.124 1.008-.387.334-.309.489-.66.489-1.106 0-.563-.299-1.062-.795-1.326a1.633 1.633 0 0 0-1.009-.14m4.973.002c-.211.04-.532.219-.702.39-.277.279-.392.504-.45.877-.036.228-.005.497.085.736.143.382.501.734.894.878.235.087.753.088 1 .003.302-.105.585-.334.778-.632a1.497 1.497 0 0 0 0-1.576c-.223-.342-.608-.613-.962-.679a2.165 2.165 0 0 0-.643.003M4.707 9.04a1.438 1.438 0 0 0-.226.112.997.997 0 0 0-.376 1.284c.175.368.502.812.892 1.213.937.963 2.081 1.428 3.29 1.337 1.033-.078 1.946-.535 2.756-1.379.431-.449.806-.996.907-1.323a.988.988 0 0 0-.488-1.166c-.162-.088-.18-.091-.449-.091-.262 0-.292.005-.457.086-.207.102-.306.208-.557.596-.418.647-.986 1.099-1.559 1.238-.244.06-.638.059-.88-.001-.581-.144-1.137-.583-1.552-1.227-.258-.398-.356-.503-.564-.606-.155-.076-.205-.087-.417-.092a1.554 1.554 0 0 0-.32.019" fill-rule="evenodd" fill="#000"/></svg>
