<svg width="16" height="16" viewBox="0 0 16 16" xmlns="http://www.w3.org/2000/svg">
<path fill-rule="evenodd" clip-rule="evenodd" d="M8.0001 3C7.44774 3 7 3.44777 7 3.99998C7 4.55222 7.44777 5 8.0001 5C8.5523 5 9 4.55234 9 3.99998C9 3.44765 8.55233 3 8.0001 3ZM5.17072 2.99998C5.58259 1.83476 6.69393 0.999998 8.0001 1C9.30634 1 10.4175 1.83481 10.8293 2.99998L12.2676 2.99998C12.6134 2.40219 13.2597 2 14 2C15.1046 2 16 2.89543 16 4C16 5.10457 15.1046 6 14 6C13.2597 6 12.6134 5.59779 12.2676 4.99998L10.8293 4.99998C10.7132 5.32853 10.5415 5.63081 10.3254 5.89553C11.8149 6.4419 12.989 7.53812 13.7029 9.0828C15.0206 9.39915 16.0001 10.5852 16.0001 12C16.0001 13.6568 14.6569 15 13.0001 15C11.3432 15 10.0001 13.6569 10.0001 12C10.0001 10.8568 10.6395 9.86294 11.5802 9.35658C10.8092 8.14498 9.57848 7.5 8 7.5C6.42153 7.5 5.19081 8.14498 4.41979 9.35657C5.36056 9.86291 6.00006 10.8568 6.00006 12C6.00006 13.6569 4.65692 15 3.00007 15C1.34321 15 6.74747e-05 13.6569 6.74747e-05 12C6.74747e-05 10.5852 0.979349 9.39916 2.29712 9.08279C3.01097 7.5381 4.18509 6.44187 5.67462 5.89551C5.45858 5.6308 5.28684 5.32852 5.17071 4.99998H3.73247C3.38667 5.59781 2.74032 6.00005 2 6.00005C0.895363 6.00005 -5.18538e-05 5.10451 2.25223e-09 3.99993C5.18583e-05 2.89542 0.895426 2 2 2C2.74029 2 3.38661 2.4022 3.73242 2.99998H5.17072ZM3 11C2.44776 11 2.00007 11.4477 2.00007 12C2.00007 12.5523 2.44778 13 3.00007 13C3.55235 13 4.00006 12.5523 4.00006 12C4.00006 11.4478 3.55233 11 3 11ZM13 11C12.4478 11 12.0001 11.4477 12.0001 12C12.0001 12.5523 12.4478 13 13.0001 13C13.5524 13 14.0001 12.5523 14.0001 12C14.0001 11.4478 13.5523 11 13 11Z" fill="black"/>
</svg>
