<svg width="16" height="16" viewBox="0 0 16 16" xmlns="http://www.w3.org/2000/svg">
<path fill-rule="evenodd" clip-rule="evenodd" d="M12 1C12.5523 1 13 1.44772 13 2V3H14C14.5523 3 15 3.44772 15 4C15 4.55228 14.5523 5 14 5H13V6C13 6.55228 12.5523 7 12 7C11.4477 7 11 6.55228 11 6V5H10C9.44772 5 9 4.55228 9 4C9 3.44772 9.44772 3 10 3H11V2C11 1.44772 11.4477 1 12 1ZM3.99347 1.96842L7 1.96842C7.55229 1.96842 8 2.41614 8 2.96842C8 3.52071 7.55229 3.96842 7 3.96842H4.03158C3.4845 3.96842 4.13434 3.9692 3.86855 3.99091C3.61444 4.01168 3.52672 4.04649 3.48854 4.06594C3.32018 4.15172 3.1833 4.2886 3.09752 4.45696C3.07807 4.49514 3.04326 4.58286 3.0225 4.83697C3.00078 5.10276 3 5.45292 3 6V10.9684C3 11.5155 3.00078 11.8657 3.0225 12.1315C3.04326 12.3856 3.07807 12.4733 3.09752 12.5115C3.13147 12.5781 3.17343 12.6398 3.22217 12.6954C3.31787 12.5987 3.43005 12.4968 3.53452 12.4018C3.54223 12.3948 3.54991 12.3879 3.55753 12.3809L8.89998 7.52416C8.90569 7.51897 8.91144 7.51374 8.91724 7.50846C9.01513 7.41942 9.12537 7.31915 9.22886 7.23849C9.34839 7.14533 9.51383 7.03328 9.73269 6.96219C10.0269 6.86663 10.3422 6.85668 10.6419 6.93351C10.8648 6.99066 11.037 7.09206 11.1621 7.1775C11.2705 7.25147 11.3868 7.34459 11.4902 7.42729C11.4963 7.43219 11.5024 7.43705 11.5084 7.44187L13.2751 8.85521C13.2909 8.86786 13.3069 8.88061 13.323 8.89345C13.5126 9.04455 13.7209 9.21061 13.8855 9.4203C14.0889 9.67939 14.2332 9.97975 14.3085 10.3004C14.3694 10.5599 14.369 10.8264 14.3685 11.0688C14.3685 11.0894 14.3684 11.1098 14.3684 11.1301V11.1626C14.3684 11.2617 14.3684 11.3577 14.3682 11.4506C14.3683 11.4583 14.3684 11.466 14.3684 11.4737C14.3684 11.5101 14.3685 11.5462 14.3685 11.582C14.3691 12.0601 14.3695 12.4822 14.2698 12.8545C14.1527 13.2915 13.9375 13.6867 13.6487 14.0154C13.5561 14.1209 13.456 14.2194 13.349 14.3104C13.0274 14.584 12.6446 14.7884 12.2229 14.9014C11.8506 15.0011 11.4285 15.0006 10.9504 15.0001C10.9146 15 10.8785 15 10.8421 15H10.5876C10.5689 15 10.55 15 10.5311 15H4.99349C4.97148 15 4.94961 15 4.92786 15H4.57008C4.55977 15 4.54941 15 4.53898 15C4.38662 15.0001 4.22212 15.0001 4.07838 14.9911C3.94636 14.9868 3.82201 14.9804 3.70569 14.9709C3.3279 14.94 2.94768 14.8716 2.58056 14.6845C2.03588 14.407 1.59304 13.9641 1.31551 13.4194C1.12845 13.0523 1.06 12.6721 1.02914 12.2943C0.999966 11.9373 0.999982 11.5046 1 11.0065V5.96188C0.999982 5.46387 0.999966 5.03115 1.02914 4.67411C1.06 4.29632 1.12845 3.9161 1.31551 3.54898C1.59304 3.0043 2.03588 2.56146 2.58056 2.28393C2.94768 2.09687 3.3279 2.02842 3.70569 1.99756C4.06273 1.96839 3.49545 1.9684 3.99347 1.96842ZM12.1937 12.6364C12.2344 12.5813 12.2689 12.5212 12.2963 12.4572C12.3104 12.4243 12.3364 12.3466 12.3518 12.1272C12.3678 11.8985 12.3684 11.5987 12.3684 11.1301C12.3684 10.9687 12.3682 10.8796 12.3652 10.8125C12.3637 10.7772 12.3617 10.7607 12.361 10.7554C12.3522 10.7196 12.3361 10.686 12.3136 10.6568C12.3099 10.6529 12.2982 10.6411 12.2716 10.6178C12.2211 10.5736 12.1517 10.5178 12.0257 10.417L10.259 9.00361C10.2566 9.00172 10.2543 8.99985 10.252 8.998C10.2498 8.99999 10.2476 9.002 10.2453 9.00404L5.84976 13H10.4985C10.9671 13 11.267 12.9994 11.4957 12.9834C11.715 12.968 11.7927 12.942 11.8256 12.9279C11.8952 12.8981 11.9602 12.8599 12.0193 12.8144C12.0854 12.7635 12.1441 12.7036 12.1937 12.6364Z"/>
<path fill-rule="evenodd" clip-rule="evenodd" d="M3.99002 6C3.99002 5.17157 4.66159 4.5 5.49002 4.5H5.50002C6.32845 4.5 7.00002 5.17157 7.00002 6C7.00002 6.82843 6.32845 7.5 5.50002 7.5H5.49002C4.66159 7.5 3.99002 6.82843 3.99002 6Z"/>
</svg>
