<svg width="16" height="16" viewBox="0 0 16 16" xmlns="http://www.w3.org/2000/svg">
<path fill-rule="evenodd" clip-rule="evenodd" d="M1 14C1 14.5523 1.44772 15 2 15L14 15C14.5523 15 15 14.5523 15 14C15 13.4477 14.5523 13 14 13L2 13C1.44772 13 1 13.4477 1 14ZM1 9C1 9.55228 1.44772 10 2 10L12 10C12.5516 10 13.0341 9.7604 13.3847 9.51304C13.7488 9.2562 14.0682 8.92321 14.3123 8.58321C14.8551 7.82721 15 6.99598 15 6.14286C15 5.72018 14.965 5.33015 14.8462 4.94532C14.7256 4.55481 14.5378 4.23087 14.3123 3.91679C13.637 2.97618 12.5562 2.99217 12.0935 2.99902C12.0587 2.99954 12.0274 3 12 3H11.4142L11.7071 2.70711C12.0976 2.31658 12.0976 1.68342 11.7071 1.29289C11.3166 0.902369 10.6834 0.902369 10.2929 1.29289L8.29289 3.29289C7.90237 3.68342 7.90237 4.31658 8.29289 4.70711L10.2929 6.70711C10.6834 7.09763 11.3166 7.09763 11.7071 6.70711C12.0976 6.31658 12.0976 5.68342 11.7071 5.29289L11.4142 5H12C12.0244 5 12.0477 4.99997 12.07 4.99994C12.1825 4.99979 12.2711 4.99967 12.3609 5.00367C12.4637 5.00824 12.5346 5.01736 12.5859 5.02907C12.6346 5.04015 12.6547 5.05117 12.6605 5.05474L12.6608 5.05493C12.6639 5.05679 12.6724 5.06195 12.6877 5.08321C12.8373 5.29155 12.8995 5.41964 12.9351 5.53524C12.9726 5.65653 13 5.82671 13 6.14286C13 6.76737 12.8951 7.12794 12.6877 7.41679C12.5567 7.59921 12.3914 7.76622 12.2318 7.87878C12.0769 7.98809 11.9966 7.99884 11.9967 7.99989C11.9967 7.99999 11.9974 8 11.9988 8L2 8C1.44772 8 1 8.44772 1 9ZM1 4C1 4.55229 1.44772 5 2 5H6C6.55228 5 7 4.55229 7 4C7 3.44771 6.55228 3 6 3H2C1.44772 3 1 3.44771 1 4Z"/>
</svg>
