<svg width="16" height="16" viewBox="0 0 16 16" xmlns="http://www.w3.org/2000/svg">
<path fill-rule="evenodd" clip-rule="evenodd" d="M3 3.03448C3 2.46315 3.47294 2 4.05634 2H8.91008C10.8768 2 12.3933 3.61777 12.3933 5.51724C12.3933 6.32995 12.1157 7.09109 11.644 7.69601C12.4757 8.34649 13 9.36593 13 10.4828C13 12.3822 11.4835 14 9.51679 14H4.05634C3.47294 14 3 13.5368 3 12.9655V3.03448ZM5 9V12H9.50741C10.2213 12 10.8873 11.3257 10.8873 10.4828C10.8873 9.63985 10.2213 9 9.50741 9H5ZM5 7H8.91816C9.63208 7 10.2806 6.36015 10.2806 5.51724C10.2806 4.67434 9.63208 4 8.91816 4H5V7Z"/>
</svg>
