<svg width="16" height="16" viewBox="0 0 16 16" xmlns="http://www.w3.org/2000/svg">
<path fill-rule="evenodd" clip-rule="evenodd" d="M4.55382 5.96803C4.20193 6.56355 4 7.25819 4 8C4 10.2091 5.79086 12 8 12C8.74181 12 9.43645 11.7981 10.032 11.4462L4.55382 5.96803ZM5.96803 4.55382L11.4462 10.032C11.7981 9.43645 12 8.74181 12 8C12 5.79086 10.2091 4 8 4C7.25819 4 6.56355 4.20193 5.96803 4.55382ZM2 8C2 4.68629 4.68629 2 8 2C11.3137 2 14 4.68629 14 8C14 11.3137 11.3137 14 8 14C4.68629 14 2 11.3137 2 8Z"/>
</svg>
