<svg width="16" height="16" viewBox="0 0 16 16" fill="none" xmlns="http://www.w3.org/2000/svg">
<path fill-rule="evenodd" clip-rule="evenodd" d="M7 2C7 1.44772 7.44772 1 8 1H11.9664C12.5187 1 12.9664 1.44772 12.9664 2C12.9664 2.55228 12.5187 3 11.9664 3H11V4.00182L12.1333 4.00394L12.1669 4.00394C12.4646 4.00391 12.7452 4.00388 12.981 4.02315C13.2374 4.0441 13.5277 4.09271 13.817 4.24009C14.2247 4.44782 14.5561 4.77928 14.7639 5.18696C14.9112 5.47621 14.9598 5.76653 14.9808 6.02291C15.0001 6.25878 15 6.53931 15 6.83705V9.16705C15 9.46479 15.0001 9.74532 14.9808 9.98118C14.9598 10.2376 14.9112 10.5279 14.7639 10.8171C14.5561 11.2248 14.2247 11.5563 13.817 11.764C13.5277 11.9114 13.2374 11.96 12.981 11.9809C12.7452 12.0002 12.4646 12.0002 12.1669 12.0002L11 12.0001V13H12C12.5523 13 13 13.4477 13 14C13 14.5523 12.5523 15 12 15H8C7.44772 15 7 14.5523 7 14C7 13.4477 7.44772 13 8 13H9V11.0001C9 11 9 11.0001 9 11.0001V3H8C7.44772 3 7 2.55228 7 2ZM11 10.0001L12.1333 10.0002C12.1334 10.0002 12.1333 10.0002 12.1333 10.0002C12.4765 10.0002 12.6738 9.99938 12.8182 9.98759C12.8753 9.98292 12.9074 9.97749 12.9223 9.97443C12.9433 9.96119 12.961 9.94343 12.9743 9.92245C12.9773 9.90754 12.9828 9.87541 12.9874 9.81832C12.9992 9.67394 13 9.47668 13 9.13348V6.87062C13 6.52742 12.9992 6.33016 12.9874 6.18578C12.9828 6.12869 12.9773 6.09656 12.9743 6.08165C12.961 6.06067 12.9433 6.04291 12.9223 6.02967C12.9074 6.02661 12.8753 6.02118 12.8182 6.01651C12.6738 6.00472 12.4765 6.00394 12.1333 6.00394L11 6.00182V10.0001ZM3.83308 4C3.84425 4 3.85545 4 3.86667 4H7C7.55229 4 8 4.44772 8 5C8 5.55228 7.55229 6 7 6H3.86667C3.52347 6 3.32622 6.00078 3.18184 6.01257C3.12475 6.01724 3.09262 6.02267 3.07771 6.02573C3.05673 6.03897 3.03897 6.05673 3.02573 6.07771C3.02267 6.09262 3.01724 6.12475 3.01258 6.18184C3.00078 6.32622 3 6.52348 3 6.86668V9.13332C3 9.47652 3.00078 9.67378 3.01258 9.81816C3.01724 9.87525 3.02267 9.90738 3.02573 9.92229C3.03897 9.94327 3.05673 9.96103 3.07771 9.97427C3.09263 9.97733 3.12475 9.98276 3.18184 9.98743C3.32622 9.99922 3.52347 10 3.86667 10H7C7.55229 10 8 10.4477 8 11C8 11.5523 7.55229 12 7 12L3.8331 12C3.53537 12 3.25484 12.0001 3.01897 11.9808C2.76259 11.9598 2.47227 11.9112 2.18302 11.7638C1.77534 11.5561 1.44388 11.2247 1.23616 10.817C1.08878 10.5277 1.04017 10.2374 1.01922 9.98102C0.999949 9.74516 0.999975 9.46464 1 9.16691L1 6.86668C1 6.85546 1 6.84426 1 6.83309C0.999975 6.53536 0.99995 6.25484 1.01922 6.01898C1.04017 5.76259 1.08878 5.47228 1.23616 5.18303C1.44388 4.77534 1.77534 4.44388 2.18302 4.23615C2.47227 4.08877 2.76259 4.04016 3.01897 4.01922C3.25483 3.99995 3.53536 3.99997 3.83308 4Z" fill="#000000"/>
</svg>
