<svg width="16" height="16" viewBox="0 0 16 16" xmlns="http://www.w3.org/2000/svg">
<path fill-rule="evenodd" clip-rule="evenodd" d="M9.33392 2H6C5.44772 2 5 2.44771 5 3C5 3.55228 5.44772 4 6 4H7.93814L5.081 12H3C2.44772 12 2 12.4477 2 13C2 13.5523 2.44772 14 3 14H5.76242C5.77797 14.0004 5.79348 14.0004 5.80895 14H9C9.55228 14 10 13.5523 10 13C10 12.4477 9.55228 12 9 12H7.20472L10.0619 4H12C12.5523 4 13 3.55228 13 3C13 2.44771 12.5523 2 12 2H9.38042C9.36489 1.99963 9.34938 1.99964 9.33392 2Z"/>
</svg>
