<svg width="16" height="16" viewBox="0 0 16 16" xmlns="http://www.w3.org/2000/svg">
<path fill-rule="evenodd" clip-rule="evenodd" d="M7.35896 1C7.37262 1 7.38631 1.00001 7.40003 1.00001H8.60003C8.61375 1.00001 8.62745 1 8.6411 1C9.02577 0.999966 9.38325 0.999931 9.68281 1.0293C10.0113 1.06151 10.3634 1.13561 10.7027 1.34303C11.1826 1.63648 11.5413 2.08392 11.757 2.59199C11.8142 2.72673 11.8569 2.86284 11.8892 2.99982C12.5182 2.99985 13.0358 3.00846 13.4701 3.13958C13.8748 3.26177 14.2916 3.48074 14.5948 3.83338C14.8399 4.11841 14.9328 4.43022 14.9702 4.70182C15.0003 4.92008 15.0002 5.16927 15 5.38228C15 5.39575 15 5.40907 15 5.42223V10.5778C15 10.5909 15 10.6043 15 10.6177C15.0002 10.8307 15.0003 11.0799 14.9702 11.2982C14.9328 11.5698 14.8399 11.8816 14.5948 12.1666C14.2916 12.5193 13.8748 12.7382 13.4701 12.8604C13.0358 12.9915 12.5182 13.0002 11.8892 13.0002C11.8569 13.1372 11.8142 13.2733 11.757 13.408C11.5413 13.9161 11.1826 14.3635 10.7027 14.657C10.3634 14.8644 10.0113 14.9385 9.6828 14.9707C9.38326 15.0001 9.02578 15 8.64111 15H7.35895C6.97429 15 6.61681 15.0001 6.31726 14.9707C5.98876 14.9385 5.63665 14.8644 5.2974 14.657C4.81746 14.3635 4.45879 13.9161 4.24306 13.408C4.18585 13.2733 4.14312 13.1372 4.1109 13.0002C3.48188 13.0002 2.96423 12.9915 2.53 12.8604C2.12528 12.7382 1.70848 12.5193 1.40527 12.1666C1.1602 11.8816 1.06729 11.5698 1.02984 11.2982C0.999748 11.0799 0.999892 10.8308 1.00002 10.6177C1.00002 10.6043 1.00003 10.5909 1.00003 10.5778V5.42223C1.00003 5.40907 1.00002 5.39574 1.00002 5.38227C0.999892 5.16926 0.999748 4.92008 1.02984 4.70182C1.06729 4.43022 1.1602 4.11841 1.40527 3.83338C1.70848 3.48074 2.12528 3.26177 2.52999 3.13958C2.96423 3.00846 3.48188 2.99985 4.1109 2.99982C4.14312 2.86284 4.18585 2.72673 4.24306 2.59199C4.45879 2.08392 4.81746 1.63648 5.2974 1.34303C5.63665 1.13561 5.98876 1.06151 6.31726 1.0293C6.61681 0.999931 6.97429 0.999966 7.35896 1ZM4.00003 5.001C3.40812 5.00452 3.22733 5.0182 3.1081 5.0542C3.0664 5.06679 3.03149 5.08018 3.00303 5.093C3.00274 5.10121 3.00248 5.10989 3.00223 5.11907C3.0001 5.19942 3.00003 5.29392 3.00003 5.42223V10.5778C3.00003 10.7061 3.0001 10.8006 3.00223 10.8809C3.00248 10.8901 3.00274 10.8988 3.00303 10.907C3.03149 10.9198 3.0664 10.9332 3.1081 10.9458C3.22733 10.9818 3.40812 10.9955 4.00003 10.999V5.001ZM12 10.999C12.5919 10.9955 12.7727 10.9818 12.892 10.9458C12.9337 10.9332 12.9686 10.9198 12.997 10.907C12.9973 10.8988 12.9976 10.8901 12.9978 10.8809C13 10.8006 13 10.7061 13 10.5778V5.42223C13 5.29392 13 5.19942 12.9978 5.11907C12.9976 5.10989 12.9973 5.10121 12.997 5.093C12.9686 5.08018 12.9337 5.06679 12.892 5.0542C12.7727 5.0182 12.5919 5.00452 12 5.001V10.999ZM6.3389 3.05041C6.35196 3.04529 6.39863 3.03091 6.51241 3.01976C6.70248 3.00112 6.96024 3.00001 7.40003 3.00001H8.60003C9.03983 3.00001 9.29758 3.00112 9.48765 3.01976C9.60144 3.03091 9.64789 3.04521 9.66094 3.05032C9.74516 3.10233 9.84463 3.20539 9.91608 3.37365C9.93526 3.41882 9.96482 3.51475 9.9819 3.7657C9.99949 4.02398 10 4.36219 10 4.88001V11.12C10 11.6378 9.99949 11.976 9.9819 12.2343C9.96482 12.4853 9.93526 12.5812 9.91608 12.6264C9.84463 12.7946 9.74516 12.8977 9.66094 12.9497C9.64789 12.9548 9.60143 12.9691 9.48765 12.9803C9.29758 12.9989 9.03983 13 8.60003 13H7.40003C6.96024 13 6.70248 12.9989 6.51241 12.9803C6.39852 12.9691 6.35209 12.9548 6.33909 12.9497C6.25488 12.8977 6.15542 12.7946 6.08398 12.6264C6.06481 12.5812 6.03524 12.4853 6.01816 12.2343C6.00057 11.976 6.00003 11.6378 6.00003 11.12V4.88001C6.00003 4.36219 6.00057 4.02398 6.01816 3.7657C6.03524 3.51475 6.06481 3.41882 6.08398 3.37365C6.15543 3.20539 6.25469 3.10242 6.3389 3.05041Z"/>
</svg>
