<svg width="16" height="16" viewBox="0 0 16 16" xmlns="http://www.w3.org/2000/svg">
<path fill-rule="evenodd" clip-rule="evenodd" d="M11.0838 5.00594C11.0842 5.00597 11.0845 5.006 11.0003 6.00005L11.0838 5.00594C11.6341 5.05257 12.0432 5.53655 11.9965 6.08686C11.9504 6.63152 11.4759 7.03708 10.9326 7.00016C10.927 6.99977 10.9213 6.99934 10.9157 6.99886L11.0001 6.00243C10.9157 6.99886 10.9153 6.99883 10.9157 6.99886L10.9172 6.99899L10.9186 6.9991L10.9212 6.99931L10.9258 6.99966L10.9326 7.00016C10.9345 7.00027 10.9348 7.00023 10.9348 7.00023C10.9345 7.00022 10.9331 7.00017 10.9326 7.00016C10.928 7.00003 10.9163 6.99982 10.8985 7.00029C10.8587 7.00133 10.791 7.00564 10.7048 7.02052C10.5313 7.05047 10.2972 7.12053 10.0598 7.28083C9.64927 7.55813 9.26281 7.99424 8.75579 8.56641C8.70885 8.61939 8.66087 8.67353 8.61175 8.72882C8.08781 9.31852 7.42264 10.0487 6.58978 10.4857C6.14641 10.7184 5.79589 10.8477 5.53015 10.9186C5.39715 10.954 5.28542 10.9748 5.19413 10.9865C5.14851 10.9924 5.10811 10.9959 5.07284 10.9979C5.05521 10.9989 5.03889 10.9995 5.02386 10.9998L5.00229 11L4.99224 11L4.9874 10.9999L4.98502 10.9999L4.98385 10.9999C4.98326 10.9999 4.98268 10.9998 5.00006 10.0033L4.98268 10.9998C4.43048 10.9902 3.99064 10.5348 4.00026 9.98256C4.00949 9.4534 4.42812 9.02741 4.94897 9.00126C4.96018 8.99926 4.98206 8.99484 5.01497 8.98607C5.11836 8.95851 5.33034 8.88798 5.66044 8.71476C6.1245 8.47124 6.56715 8.01887 7.11664 7.40042C7.16877 7.34175 7.2223 7.28101 7.27718 7.21873C7.74214 6.69114 8.30465 6.05285 8.94041 5.62346C9.46189 5.27125 9.97772 5.11646 10.3646 5.04967C10.5585 5.0162 10.7235 5.00417 10.8464 5.00097C10.908 4.99936 10.9596 4.99996 10.9997 5.00128C11.0197 5.00194 11.037 5.00278 11.0511 5.00363L11.0702 5.00488L11.0779 5.00546L11.0814 5.00574L11.0838 5.00594Z"/>
<path fill-rule="evenodd" clip-rule="evenodd" d="M5.16146 1H10.8385C11.3657 0.999983 11.8205 0.999967 12.195 1.03057C12.5904 1.06287 12.9836 1.13419 13.362 1.32698C13.9265 1.6146 14.3854 2.07354 14.673 2.63803C14.8658 3.01641 14.9371 3.40963 14.9694 3.80497C15 4.17954 15 4.6343 15 5.16144V10.8386C15 11.3657 15 11.8205 14.9694 12.195C14.9371 12.5904 14.8658 12.9836 14.673 13.362C14.3854 13.9265 13.9265 14.3854 13.362 14.673C12.9836 14.8658 12.5904 14.9371 12.195 14.9694C11.8205 15 11.3657 15 10.8386 15H5.16144C4.6343 15 4.17954 15 3.80497 14.9694C3.40963 14.9371 3.01641 14.8658 2.63803 14.673C2.07354 14.3854 1.6146 13.9265 1.32698 13.362C1.13419 12.9836 1.06287 12.5904 1.03057 12.195C0.999967 11.8205 0.999983 11.3657 1 10.8385V5.16146C0.999983 4.63431 0.999967 4.17955 1.03057 3.80497C1.06287 3.40963 1.13419 3.01641 1.32698 2.63803C1.6146 2.07354 2.07354 1.6146 2.63803 1.32698C3.01641 1.13419 3.40963 1.06287 3.80497 1.03057C4.17955 0.999967 4.63431 0.999983 5.16146 1ZM3.96784 3.02393C3.69617 3.04612 3.59546 3.0838 3.54601 3.109C3.35785 3.20487 3.20487 3.35785 3.109 3.54601C3.0838 3.59546 3.04612 3.69617 3.02393 3.96784C3.00078 4.25117 3 4.62345 3 5.2V10.8C3 11.3766 3.00078 11.7488 3.02393 12.0322C3.04612 12.3038 3.0838 12.4045 3.109 12.454C3.20487 12.6422 3.35785 12.7951 3.54601 12.891C3.59546 12.9162 3.69617 12.9539 3.96784 12.9761C4.25118 12.9992 4.62345 13 5.2 13H10.8C11.3766 13 11.7488 12.9992 12.0322 12.9761C12.3038 12.9539 12.4045 12.9162 12.454 12.891C12.6422 12.7951 12.7951 12.6422 12.891 12.454C12.9162 12.4045 12.9539 12.3038 12.9761 12.0322C12.9992 11.7488 13 11.3766 13 10.8V5.2C13 4.62345 12.9992 4.25118 12.9761 3.96784C12.9539 3.69617 12.9162 3.59546 12.891 3.54601C12.7951 3.35785 12.6422 3.20487 12.454 3.109C12.4045 3.0838 12.3038 3.04612 12.0322 3.02393C11.7488 3.00078 11.3766 3 10.8 3H5.2C4.62345 3 4.25118 3.00078 3.96784 3.02393Z"/>
</svg>
