<svg width="16" height="16" viewBox="0 0 16 16" fill="none" xmlns="http://www.w3.org/2000/svg">
<path fill-rule="evenodd" clip-rule="evenodd" d="M13 14C12.4477 14 12 13.5523 12 13V3C12 2.44772 12.4477 2 13 2V2C13.5523 2 14 2.44772 14 3V13C14 13.5523 13.5523 14 13 14V14ZM4.999 10C4.999 9.44772 5.44672 9 5.999 9H10C10.5523 9 11 9.44772 11 10V10C11 10.5523 10.5523 11 10 11H5.999C5.44671 11 4.999 10.5523 4.999 10V10ZM2 5.999C2 5.44672 2.44772 4.999 3 4.999H10C10.5523 4.999 11 5.44672 11 5.999V5.999C11 6.55128 10.5523 6.999 10 6.999H3C2.44772 6.999 2 6.55128 2 5.999V5.999Z" fill="black"/>
</svg>
