<svg width="16" height="16" viewBox="0 0 16 16" xmlns="http://www.w3.org/2000/svg">
<path fill-rule="evenodd" clip-rule="evenodd" d="M4 2H12C13.6569 2 15 3.34315 15 5V11C15 12.6569 13.6569 14 12 14H4C2.34315 14 1 12.6569 1 11V5C1 3.34315 2.34315 2 4 2ZM4 4C3.44772 4 3 4.44772 3 5V11C3 11.5523 3.44772 12 4 12H12C12.5523 12 13 11.5523 13 11V5C13 4.44772 12.5523 4 12 4H4Z"/>
<path d="M5 8C5 7.44772 5.44772 7 6 7H10C10.5523 7 11 7.44772 11 8C11 8.55228 10.5523 9 10 9H6C5.44772 9 5 8.55228 5 8Z"/>
</svg>
