<svg width="16" height="16" viewBox="0 0 16 16" fill="none" xmlns="http://www.w3.org/2000/svg">
<path fill-rule="evenodd" clip-rule="evenodd" d="M14 7.9995C14 8.55151 13.5525 8.999 13.0005 8.999H11V11C11 11.5523 10.5523 12 10 12V12C9.44772 12 9 11.5523 9 11V8.999H6.999V13C6.999 13.5523 6.55128 14 5.999 14V14C5.44672 14 4.999 13.5523 4.999 13V8.999H2.9995C2.44749 8.999 2 8.55151 2 7.9995V7.9995C2 7.44749 2.44749 7 2.9995 7H4.999V3C4.999 2.44772 5.44672 2 5.999 2V2C6.55128 2 6.999 2.44772 6.999 3V7H9V4.999C9 4.44672 9.44772 3.999 10 3.999V3.999C10.5523 3.999 11 4.44672 11 4.999V7H13.0005C13.5525 7 14 7.44749 14 7.9995V7.9995Z" fill="black"/>
</svg>
