<svg width="16" height="16" viewBox="0 0 16 16" xmlns="http://www.w3.org/2000/svg">
<path fill-rule="evenodd" clip-rule="evenodd" d="M8.00019 1C8.55247 1 9.00019 1.44772 9.00019 2V2.67071C10.1654 3.08254 11.0002 4.19378 11.0002 5.5C11.0002 6.29292 10.6926 7.01399 10.1902 7.55038L11.6512 10.0329C11.8663 9.85361 12.0678 9.65876 12.2538 9.45014C12.6213 9.0379 13.2534 9.00166 13.6657 9.36918C14.0779 9.73671 14.1141 10.3688 13.7466 10.7811C13.4163 11.1516 13.0501 11.4899 12.6533 11.7906L13.8767 14.0187C14.1426 14.5028 13.9656 15.1107 13.4815 15.3766C12.9974 15.6424 12.3895 15.4654 12.1236 14.9813L10.9155 12.781C10.0158 13.1479 9.03086 13.35 8.00019 13.35C6.96951 13.35 5.98458 13.1479 5.08491 12.781L3.87674 14.9813C3.61092 15.4654 3.00299 15.6424 2.51888 15.3766C2.03478 15.1107 1.85782 14.5028 2.12363 14.0187L3.34706 11.7906C2.9503 11.4899 2.58408 11.1516 2.25376 10.7811C1.88623 10.3688 1.92248 9.73671 2.33472 9.36918C2.74696 9.00166 3.37909 9.0379 3.74661 9.45014C3.9326 9.65876 4.13406 9.85361 4.34919 10.0329L5.81021 7.55038C5.30781 7.01399 5.00019 6.29292 5.00019 5.5C5.00019 4.19378 5.83499 3.08254 7.00019 2.67071V2C7.00019 1.44772 7.4479 1 8.00019 1ZM7.58848 8.47198L6.0871 11.0231C6.68393 11.2346 7.3277 11.35 8.00019 11.35C8.67267 11.35 9.31645 11.2346 9.91328 11.0231L8.41189 8.47198C8.2773 8.49046 8.13986 8.5 8.00019 8.5C7.86052 8.5 7.72308 8.49046 7.58848 8.47198ZM8.00019 4.5C7.4479 4.5 7.00019 4.94772 7.00019 5.5C7.00019 6.05229 7.4479 6.5 8.00019 6.5C8.55247 6.5 9.00019 6.05228 9.00019 5.5C9.00019 4.94772 8.55247 4.5 8.00019 4.5Z"/>
</svg>
