<svg width="16" height="16" viewBox="0 0 16 16" xmlns="http://www.w3.org/2000/svg">
<path d="M7.22324 5.14555C7.64501 5.61815 8.35498 5.61815 8.77676 5.14555L11.2047 2.42504C11.5247 2.06641 11.5614 1.59232 11.4244 1.22156C11.2871 0.850291 10.9382 0.5 10.4279 0.5L5.57209 0.5C5.06185 0.5 4.71287 0.85029 4.57562 1.22156C4.43857 1.59232 4.47526 2.0664 4.79532 2.42504L7.22324 5.14555Z" stroke="white"/>
<rect width="2" height="9" rx="1" transform="matrix(-1 6.86893e-08 1.09278e-07 1 9 6)"/>
<rect opacity="0.3" width="2" height="11" rx="1" transform="matrix(-1 6.86893e-08 1.09278e-07 1 13 4)"/>
<rect opacity="0.3" width="2" height="11" rx="1" transform="matrix(-1 6.86893e-08 1.09278e-07 1 5 4)"/>
</svg>
