<svg width="16" height="16" viewBox="0 0 16 16" xmlns="http://www.w3.org/2000/svg">
<path fill-rule="evenodd" clip-rule="evenodd" d="M8 3C5.80508 3 4 4.88699 4 7C4 7.9045 4.45093 8.82981 5.33419 9.90149C6.04558 10.7646 6.94442 11.6173 7.93558 12.5576C7.95701 12.5779 7.97848 12.5983 8 12.6187C8.02152 12.5983 8.04299 12.5779 8.06442 12.5576C9.05558 11.6173 9.95442 10.7646 10.6658 9.90149C11.5491 8.82981 12 7.9045 12 7C12 4.88699 10.1949 3 8 3ZM2 7C2 3.81108 4.67207 1 8 1C11.3279 1 14 3.81108 14 7C14 8.5955 13.2009 9.97019 12.2092 11.1735C11.4117 12.1411 10.3969 13.103 9.39711 14.0507C9.16038 14.2751 8.9245 14.4987 8.69253 14.7214C8.30557 15.0929 7.69443 15.0929 7.30747 14.7214C7.07551 14.4987 6.83962 14.2751 6.60289 14.0507C5.60308 13.103 4.58828 12.1411 3.79081 11.1735C2.79907 9.97019 2 8.5955 2 7Z"/>
<path fill-rule="evenodd" clip-rule="evenodd" d="M6 7C6 5.89543 6.89543 5 8 5C9.10457 5 10 5.89543 10 7C10 8.10457 9.10457 9 8 9C6.89543 9 6 8.10457 6 7Z"/>
</svg>
