<svg width="16" height="16" viewBox="0 0 16 16"  xmlns="http://www.w3.org/2000/svg">
<path fill-rule="evenodd" clip-rule="evenodd" d="M6.16146 0.960938H10.8991C11.4262 0.96092 11.881 0.960905 12.2556 0.991509C12.6509 1.02381 13.0441 1.09513 13.4225 1.28792C13.987 1.57554 14.4459 2.03448 14.7336 2.59897C14.9264 2.97735 14.9977 3.37057 15.03 3.76591C15.0606 4.14049 15.0606 4.59526 15.0605 5.12242V6.96094C15.0605 7.51322 14.6128 7.96094 14.0605 7.96094C13.5083 7.96094 13.0605 7.51322 13.0605 6.96094V5.16094C13.0605 4.58439 13.0598 4.21211 13.0366 3.92878C13.0144 3.65711 12.9767 3.55639 12.9516 3.50695C12.8557 3.31879 12.7027 3.16581 12.5145 3.06993C12.4651 3.04474 12.3644 3.00706 12.0927 2.98487C11.8094 2.96172 11.4371 2.96094 10.8605 2.96094H6.2C5.62345 2.96094 5.25117 2.96172 4.96784 2.98487C4.69617 3.00706 4.59546 3.04474 4.54601 3.06993C4.35785 3.16581 4.20487 3.31879 4.109 3.50695C4.0838 3.55639 4.04612 3.65711 4.02393 3.92878C4.00078 4.21211 4 4.58439 4 5.16094L4.00001 10.7609C4.00001 11.3375 4.00078 11.7098 4.02393 11.9931C4.04613 12.2648 4.08381 12.3655 4.109 12.4149C4.20487 12.6031 4.35785 12.7561 4.54602 12.8519C4.59546 12.8771 4.69618 12.9148 4.96784 12.937C5.25118 12.9602 5.62345 12.9609 6.20001 12.9609H7C7.55228 12.9609 8 13.4087 8 13.9609C8 14.5132 7.55228 14.9609 7 14.9609H6.16148C5.63433 14.961 5.17956 14.961 4.80498 14.9304C4.40963 14.8981 4.01641 14.8268 3.63803 14.634C3.07355 14.3463 2.61461 13.8874 2.32699 13.3229C2.13419 12.9445 2.06288 12.5513 2.03058 12.156C1.99997 11.7814 1.99999 11.3266 2 10.7995L2 5.1224C1.99998 4.59525 1.99997 4.14048 2.03057 3.76591C2.06287 3.37057 2.13419 2.97735 2.32698 2.59897C2.6146 2.03448 3.07354 1.57554 3.63803 1.28792C4.01641 1.09513 4.40963 1.02381 4.80497 0.991509C5.17955 0.960905 5.63431 0.96092 6.16146 0.960938ZM5.00828 4.92878C5.00828 4.37649 5.45599 3.92878 6.00828 3.92878H11.0404C11.5927 3.92878 12.0404 4.37649 12.0404 4.92878C12.0404 5.48106 11.5927 5.92878 11.0404 5.92878H6.00828C5.45599 5.92878 5.00828 5.48106 5.00828 4.92878ZM4.96784 7.96094C4.96784 7.40865 5.41555 6.96094 5.96784 6.96094H10.0404C10.5927 6.96094 11.0404 7.40865 11.0404 7.96094C11.0404 8.51322 10.5927 8.96094 10.0404 8.96094H5.96784C5.41555 8.96094 4.96784 8.51322 4.96784 7.96094ZM14.7336 9.29667C15.1241 9.68719 15.1241 10.3204 14.7336 10.7109L11.7336 13.7109C11.343 14.1014 10.7099 14.1014 10.3194 13.7109L8.98602 12.3776C8.5955 11.987 8.5955 11.3539 8.98602 10.9633C9.37655 10.5728 10.0097 10.5728 10.4002 10.9633L11.0265 11.5896L13.3194 9.29667C13.7099 8.90615 14.343 8.90615 14.7336 9.29667Z" />
</svg>
