<svg width="16" height="16" viewBox="0 0 16 16" fill="none" xmlns="http://www.w3.org/2000/svg">
<path fill-rule="evenodd" clip-rule="evenodd" d="M7.13677 2.14694L6.69861 3.04583L7.13677 2.14694C7.49571 2.3219 7.68333 2.62817 7.77026 2.77963C7.86343 2.94198 7.95821 3.14844 8.04955 3.34743C8.05436 3.35792 8.05917 3.36839 8.06397 3.37884C8.06882 3.38941 8.07349 3.40005 8.07797 3.41078L11.9225 12.6146C12.1354 13.1242 11.8948 13.7099 11.3852 13.9227C10.8756 14.1356 10.2899 13.895 10.077 13.3854L8.59328 9.83333H4.40627L2.92251 13.3854C2.70963 13.895 2.12395 14.1356 1.61433 13.9227C1.10472 13.7099 0.864167 13.1242 1.07704 12.6146L4.92157 3.41078C4.92606 3.40005 4.93072 3.3894 4.93558 3.37884C4.94037 3.3684 4.94518 3.35792 4.95 3.34743C5.04134 3.14845 5.13611 2.94199 5.22929 2.77963C5.31621 2.62817 5.50383 2.3219 5.86277 2.14694C6.26469 1.95102 6.73485 1.95102 7.13677 2.14694ZM5.24169 7.83333H7.75785L6.49977 4.8215L5.24169 7.83333ZM8.99977 3C8.99977 2.44772 9.44749 2 9.99977 2H13.9998C14.5521 2 14.9998 2.44772 14.9998 3C14.9998 3.55228 14.5521 4 13.9998 4H9.99977C9.44749 4 8.99977 3.55228 8.99977 3ZM9.99977 6C9.99977 5.44772 10.4475 5 10.9998 5H13.9998C14.5521 5 14.9998 5.44772 14.9998 6C14.9998 6.55228 14.5521 7 13.9998 7H10.9998C10.4475 7 9.99977 6.55228 9.99977 6ZM10.9998 9C10.9998 8.44772 11.4475 8 11.9998 8H13.9998C14.5521 8 14.9998 8.44772 14.9998 9C14.9998 9.55228 14.5521 10 13.9998 10H11.9998C11.4475 10 10.9998 9.55228 10.9998 9Z" fill="black"/>
</svg>
