<svg width="16" height="16" viewBox="0 0 16 16" xmlns="http://www.w3.org/2000/svg">
<path fill-rule="evenodd" clip-rule="evenodd" d="M4.8437 3H7.1563C7.62934 2.99998 8.04051 2.99997 8.37982 3.02637C8.73809 3.05425 9.10117 3.11608 9.45376 3.28718C9.97636 3.54078 10.4104 3.94998 10.6856 4.46429C10.8739 4.81631 10.9416 5.17975 10.9718 5.53145C10.9874 5.7125 10.9943 5.91405 10.9975 6.13318L12.4344 5.17523C12.4755 5.14634 12.6278 5.03975 12.788 4.93663C12.8671 4.8857 12.9616 4.82686 13.0517 4.77709C13.0957 4.75273 13.1536 4.72225 13.2167 4.69467C13.2177 4.69423 13.2189 4.69372 13.2202 4.69316C13.2574 4.67681 13.4076 4.61076 13.5971 4.59655C13.5982 4.59647 13.6 4.59631 13.6025 4.5961C13.635 4.59325 13.7835 4.58024 13.9365 4.59936C14.134 4.62404 14.4308 4.70976 14.6726 4.97944C14.94 5.27757 14.9752 5.63049 14.9867 5.75438C15.0001 5.89872 15.0001 6.07085 15 6.21727C15 6.22714 15 6.23688 15 6.2465V9.7535C15 9.76312 15 9.77287 15 9.78273C15.0001 9.92915 15.0001 10.1013 14.9867 10.2456C14.9752 10.3695 14.94 10.7224 14.6726 11.0206C14.4145 11.3084 14.0955 11.3842 13.8987 11.4012C13.8068 11.4092 13.7287 11.4059 13.6841 11.4032C13.6605 11.4018 13.6394 11.4001 13.6258 11.399L13.5971 11.3966C13.4095 11.3826 13.2602 11.3177 13.2232 11.3016C13.2219 11.301 13.2208 11.3005 13.2197 11.3001C13.1568 11.2729 13.0989 11.2428 13.0545 11.2186C12.9639 11.1692 12.8686 11.1107 12.7888 11.0601C12.6265 10.9572 12.4732 10.8516 12.4376 10.8269C12.4375 10.8269 12.4377 10.827 12.4376 10.8269L10.9975 9.86683C10.9943 10.086 10.9874 10.2875 10.9718 10.4686C10.9416 10.8203 10.8739 11.1837 10.6856 11.5357C10.4104 12.05 9.97636 12.4592 9.45376 12.7128C9.10117 12.8839 8.73809 12.9458 8.37982 12.9736C8.04051 13 7.62934 13 7.1563 13H4.84371C4.37067 13 3.95949 13 3.62019 12.9736C3.26191 12.9458 2.89883 12.8839 2.54624 12.7128C2.02365 12.4592 1.58961 12.05 1.31445 11.5357C1.12612 11.1837 1.05836 10.8203 1.02819 10.4686C0.999958 10.1395 0.999978 9.74275 1 9.29582L1 6.74286C1 6.72993 1 6.71704 1 6.70419C0.999978 6.25726 0.999958 5.86049 1.02819 5.53145C1.05836 5.17975 1.12612 4.81631 1.31445 4.46429C1.5896 3.94998 2.02364 3.54078 2.54624 3.28718C2.89883 3.11608 3.26191 3.05425 3.62019 3.02637C3.95949 2.99997 4.37067 2.99998 4.8437 3ZM9 6.74286C9 6.2455 8.99915 5.93561 8.97914 5.70239C8.96026 5.48237 8.92993 5.42243 8.92207 5.40775C8.85208 5.27693 8.73539 5.16163 8.58061 5.08652C8.54816 5.07077 8.46669 5.03918 8.22466 5.02034C7.97231 5.00071 7.63977 5 7.12 5H4.88C4.36023 5 4.0277 5.00071 3.77534 5.02034C3.53331 5.03918 3.45185 5.07077 3.41939 5.08652C3.26461 5.16163 3.14792 5.27693 3.07793 5.40775C3.07008 5.42243 3.03974 5.48237 3.02087 5.70239C3.00086 5.93561 3 6.2455 3 6.74286V9.25714C3 9.75451 3.00086 10.0644 3.02087 10.2976C3.03974 10.5176 3.07008 10.5776 3.07793 10.5923C3.14792 10.7231 3.26461 10.8384 3.41939 10.9135C3.45185 10.9292 3.53331 10.9608 3.77534 10.9797C4.0277 10.9993 4.36023 11 4.88 11H7.12C7.63977 11 7.97231 10.9993 8.22466 10.9797C8.46669 10.9608 8.54816 10.9292 8.58061 10.9135C8.73539 10.8384 8.85208 10.7231 8.92207 10.5923C8.92993 10.5776 8.96026 10.5176 8.97914 10.2976C8.99915 10.0644 9 9.75451 9 9.25714V6.74286ZM11.8028 8L13 8.79815V7.20185L11.8028 8ZM12.995 5.9366C12.995 5.93661 12.9951 5.93753 12.9953 5.93944Z"/>
</svg>
