<svg width="16" height="16" viewBox="0 0 16 16" xmlns="http://www.w3.org/2000/svg">
<path fill-rule="evenodd" clip-rule="evenodd" d="M4.03324 2C4.04297 2 4.05272 2.00001 4.0625 2.00001L11.9668 2C12.262 1.99998 12.5317 1.99997 12.7579 2.01541C13.0006 2.03196 13.2654 2.06957 13.5339 2.18079C14.1158 2.42184 14.5782 2.88419 14.8192 3.46613C14.9304 3.73463 14.968 3.99942 14.9846 4.24209C15 4.46832 15 4.73803 15 5.03324L15 5.0625C15 5.61479 14.5523 6.0625 14 6.0625C13.4477 6.0625 13 5.61479 13 5.0625C13 4.72848 12.9995 4.52805 12.9892 4.37823C12.9824 4.27788 12.9729 4.23801 12.9705 4.2291C12.9325 4.13914 12.8609 4.06754 12.7709 4.02955C12.762 4.02706 12.7221 4.01761 12.6218 4.01077C12.4719 4.00054 12.2715 4 11.9375 4L9 4V12H10.9705C11.5227 12 11.9705 12.4477 11.9705 13C11.9705 13.5523 11.5227 14 10.9705 14H5C4.44772 14 4 13.5523 4 13C4 12.4477 4.44772 12 5 12H7V4L4.0625 4.00001C3.72848 4.00001 3.52805 4.00055 3.37823 4.01077C3.27789 4.01762 3.23801 4.02706 3.2291 4.02955C3.13914 4.06755 3.06754 4.13914 3.02955 4.2291C3.02705 4.23801 3.01761 4.27789 3.01076 4.37824C3.00054 4.52806 3 4.72849 3 5.06251C3 5.61479 2.55229 6.0625 2 6.0625C1.44772 6.0625 1 5.61479 1 5.06251C1 5.05273 1 5.04297 0.999999 5.03324C0.999983 4.73803 0.999967 4.46833 1.0154 4.2421C1.03196 3.99943 1.06957 3.73463 1.18079 3.46613C1.42183 2.88419 1.88419 2.42184 2.46613 2.18079C2.73463 2.06958 2.99942 2.03197 3.24209 2.01541C3.46832 1.99997 3.73803 1.99999 4.03324 2Z"/>
</svg>
