<svg width="16" height="16" viewBox="0 0 16 16" xmlns="http://www.w3.org/2000/svg">
<path fill-rule="evenodd" clip-rule="evenodd" d="M14.5257 1.14935C14.8205 1.33156 15 1.65342 15 2V11.6C15 11.9513 14.8157 12.2768 14.5145 12.4575L10.5145 14.8575C10.2336 15.026 9.88803 15.0463 9.58937 14.9118L9.56039 14.8987L9.48044 14.8623C9.41116 14.8307 9.31085 14.7848 9.18556 14.7268C8.9351 14.6108 8.58416 14.4465 8.18119 14.2524C7.5306 13.9391 6.73259 13.5427 6 13.1444C5.26741 13.5427 4.4694 13.9391 3.81881 14.2524C3.41584 14.4465 3.0649 14.6108 2.81444 14.7268C2.68915 14.7848 2.58885 14.8307 2.51956 14.8623L2.43961 14.8987L2.41131 14.9115C2.10187 15.0509 1.74217 15.0241 1.45715 14.8398C1.17213 14.6556 1 14.3394 1 14V4.4C1 4.04874 1.1843 3.72323 1.4855 3.54251L5.4855 1.14251C5.77868 0.966602 6.14141 0.952671 6.44721 1.10557L10 2.88197L13.5528 1.10557C13.8628 0.95058 14.2309 0.967144 14.5257 1.14935ZM9 4.61804L7 3.61804V7H6H5V3.76619L3 4.96619V12.4269C3.61705 12.1291 4.34147 11.7682 5 11.4116V7H6H7V11.4116C7.65853 11.7682 8.38295 12.1291 9 12.4269V4.61804ZM11 4.61803V12.2338L13 11.0338V3.61803L11 4.61803Z"/>
</svg>
