<svg width="16" height="16" viewBox="0 0 16 16" xmlns="http://www.w3.org/2000/svg">
<path fill-rule="evenodd" clip-rule="evenodd" d="M1 4C1 3.44772 1.48215 3 2.07692 3H13.9231C14.5178 3 15 3.44772 15 4C15 4.55228 14.5178 5 13.9231 5H2.07692C1.48215 5 1 4.55228 1 4ZM3 8C3 7.44772 3.48215 7 4.07692 7H11.9231C12.5178 7 13 7.44772 13 8C13 8.55228 12.5178 9 11.9231 9H4.07692C3.48215 9 3 8.55228 3 8ZM1.07692 12C1.07692 11.4477 1.55908 11 2.15385 11H13.9231C14.5178 11 15 11.4477 15 12C15 12.5523 14.5178 13 13.9231 13H2.15385C1.55908 13 1.07692 12.5523 1.07692 12Z"/>
</svg>
