<svg width="16" height="16" viewBox="0 0 16 16" xmlns="http://www.w3.org/2000/svg">
<g clip-path="url(#clip0_1987_5807)">
<path fill-rule="evenodd" clip-rule="evenodd" d="M1 2C1 1.44772 1.44772 1 2 1H2.00667C2.55895 1 3.00667 1.44772 3.00667 2C3.00667 2.55228 2.55895 3 2.00667 3H2C1.44772 3 1 2.55228 1 2ZM4 2C4 1.44772 4.44772 1 5 1H5.00667C5.55895 1 6.00667 1.44772 6.00667 2C6.00667 2.55228 5.55895 3 5.00667 3H5C4.44772 3 4 2.55228 4 2ZM7 2C7 1.44772 7.44772 1 8 1H8.00667C8.55895 1 9.00667 1.44772 9.00667 2C9.00667 2.55228 8.55895 3 8.00667 3H8C7.44772 3 7 2.55228 7 2ZM10 2C10 1.44772 10.4477 1 11 1H11.0067C11.559 1 12.0067 1.44772 12.0067 2C12.0067 2.55228 11.559 3 11.0067 3H11C10.4477 3 10 2.55228 10 2ZM13 2C13 1.44772 13.4477 1 14 1H14.0067C14.559 1 15.0067 1.44772 15.0067 2C15.0067 2.55228 14.559 3 14.0067 3H14C13.4477 3 13 2.55228 13 2ZM1 5C1 4.44772 1.44772 4 2 4H2.00667C2.55895 4 3.00667 4.44772 3.00667 5C3.00667 5.55228 2.55895 6 2.00667 6H2C1.44772 6 1 5.55228 1 5ZM7 5C7 4.44772 7.44772 4 8 4H8.00667C8.55895 4 9.00667 4.44772 9.00667 5C9.00667 5.55228 8.55895 6 8.00667 6H8C7.44772 6 7 5.55228 7 5ZM13 5C13 4.44772 13.4477 4 14 4H14.0067C14.559 4 15.0067 4.44772 15.0067 5C15.0067 5.55228 14.559 6 14.0067 6H14C13.4477 6 13 5.55228 13 5ZM1 8C1 7.44772 1.44772 7 2 7H2.00667C2.55895 7 3.00667 7.44772 3.00667 8C3.00667 8.55228 2.55895 9 2.00667 9H2C1.44772 9 1 8.55228 1 8ZM4 8C4 7.44772 4.44772 7 5 7H5.00667C5.55895 7 6.00667 7.44772 6.00667 8C6.00667 8.55228 5.55895 9 5.00667 9H5C4.44772 9 4 8.55228 4 8ZM7 8C7 7.44772 7.44772 7 8 7H8.00667C8.55895 7 9.00667 7.44772 9.00667 8C9.00667 8.55228 8.55895 9 8.00667 9H8C7.44772 9 7 8.55228 7 8ZM10 8C10 7.44772 10.4477 7 11 7H11.0067C11.559 7 12.0067 7.44772 12.0067 8C12.0067 8.55228 11.559 9 11.0067 9H11C10.4477 9 10 8.55228 10 8ZM13 8C13 7.44772 13.4477 7 14 7H14.0067C14.559 7 15.0067 7.44772 15.0067 8C15.0067 8.55228 14.559 9 14.0067 9H14C13.4477 9 13 8.55228 13 8ZM1 11C1 10.4477 1.44772 10 2 10H2.00667C2.55895 10 3.00667 10.4477 3.00667 11C3.00667 11.5523 2.55895 12 2.00667 12H2C1.44772 12 1 11.5523 1 11ZM7 11C7 10.4477 7.44772 10 8 10H8.00667C8.55895 10 9.00667 10.4477 9.00667 11C9.00667 11.5523 8.55895 12 8.00667 12H8C7.44772 12 7 11.5523 7 11ZM13 11C13 10.4477 13.4477 10 14 10H14.0067C14.559 10 15.0067 10.4477 15.0067 11C15.0067 11.5523 14.559 12 14.0067 12H14C13.4477 12 13 11.5523 13 11ZM1 14C1 13.4477 1.44772 13 2 13H2.00667C2.55895 13 3.00667 13.4477 3.00667 14C3.00667 14.5523 2.55895 15 2.00667 15H2C1.44772 15 1 14.5523 1 14ZM4 14C4 13.4477 4.44772 13 5 13H5.00667C5.55895 13 6.00667 13.4477 6.00667 14C6.00667 14.5523 5.55895 15 5.00667 15H5C4.44772 15 4 14.5523 4 14ZM7 14C7 13.4477 7.44772 13 8 13H8.00667C8.55895 13 9.00667 13.4477 9.00667 14C9.00667 14.5523 8.55895 15 8.00667 15H8C7.44772 15 7 14.5523 7 14ZM10 14C10 13.4477 10.4477 13 11 13H11.0067C11.559 13 12.0067 13.4477 12.0067 14C12.0067 14.5523 11.559 15 11.0067 15H11C10.4477 15 10 14.5523 10 14ZM13 14C13 13.4477 13.4477 13 14 13H14.0067C14.559 13 15.0067 13.4477 15.0067 14C15.0067 14.5523 14.559 15 14.0067 15H14C13.4477 15 13 14.5523 13 14Z"/>
</g>
</svg>
