<svg width="16" height="16" viewBox="0 0 16 16" xmlns="http://www.w3.org/2000/svg">
<path fill-rule="evenodd" clip-rule="evenodd" d="M5.16146 1H10.8385C11.3657 0.999983 11.8205 0.999967 12.195 1.03057C12.5904 1.06287 12.9836 1.13419 13.362 1.32698C13.9265 1.6146 14.3854 2.07355 14.673 2.63803C14.8658 3.01641 14.9371 3.40963 14.9694 3.80497C15 4.17955 15 4.63432 15 5.16148V10.8385C15 11.3657 15 11.8205 14.9694 12.195C14.9371 12.5904 14.8658 12.9836 14.673 13.362C14.3854 13.9265 13.9265 14.3854 13.362 14.673C12.9836 14.8658 12.5904 14.9371 12.195 14.9694C11.8205 15 11.3657 15 10.8385 15H10.6667C10.1144 15 9.66667 14.5523 9.66667 14C9.66667 13.4477 10.1144 13 10.6667 13H10.8C11.3766 13 11.7488 12.9992 12.0322 12.9761C12.3038 12.9539 12.4045 12.9162 12.454 12.891C12.6422 12.7951 12.7951 12.6422 12.891 12.454C12.9162 12.4045 12.9539 12.3038 12.9761 12.0322C12.9992 11.7488 13 11.3766 13 10.8V5.2C13 4.62345 12.9992 4.25118 12.9761 3.96784C12.9539 3.69617 12.9162 3.59546 12.891 3.54601C12.7951 3.35785 12.6422 3.20487 12.454 3.10899C12.4045 3.0838 12.3038 3.04612 12.0322 3.02393C11.7488 3.00078 11.3766 3 10.8 3H5.2C4.62345 3 4.25118 3.00078 3.96784 3.02393C3.69618 3.04612 3.59546 3.0838 3.54601 3.109C3.35785 3.20487 3.20487 3.35785 3.109 3.54601C3.0838 3.59546 3.04613 3.69617 3.02393 3.96784C3.00078 4.25118 3 4.62345 3 5.2V5.33334C3 5.88562 2.55229 6.33334 2 6.33334C1.44772 6.33334 1 5.88562 1 5.33334L1 5.16146C0.999984 4.63431 0.999969 4.17955 1.03057 3.80497C1.06287 3.40963 1.13419 3.01641 1.32698 2.63803C1.6146 2.07354 2.07355 1.6146 2.63803 1.32698C3.01641 1.13419 3.40963 1.06287 3.80498 1.03057C4.17955 0.999967 4.63431 0.999983 5.16146 1ZM6 5C6 4.44772 6.44772 4 7 4H11C11.5523 4 12 4.44772 12 5V9C12 9.55229 11.5523 10 11 10C10.4477 10 10 9.55229 10 9V7.41422L8.86134 8.55288C8.93156 8.76673 8.96232 8.97795 8.97852 9.17617C9.00005 9.43975 9.00003 9.75506 9 10.0984V11.9016C9.00003 12.2449 9.00005 12.5603 8.97852 12.8238C8.9553 13.108 8.90215 13.4189 8.74569 13.726C8.52198 14.165 8.16503 14.522 7.72598 14.7457C7.41891 14.9021 7.10801 14.9553 6.82383 14.9785C6.56025 15.0001 6.24493 15 5.90161 15H4.0984C3.75508 15 3.43976 15.0001 3.17617 14.9785C2.892 14.9553 2.5811 14.9021 2.27403 14.7457C1.83498 14.522 1.47803 14.165 1.25432 13.726C1.09786 13.4189 1.04471 13.108 1.02149 12.8238C0.999955 12.5603 0.999977 12.2449 1 11.9016V10.0984C0.999977 9.75506 0.999955 9.43975 1.02149 9.17617C1.04471 8.89199 1.09786 8.5811 1.25432 8.27402C1.47803 7.83498 1.83498 7.47802 2.27403 7.25432C2.5811 7.09786 2.892 7.04471 3.17617 7.02149C3.43976 6.99995 3.75506 6.99998 4.09838 7C4.11 7 4.12165 7 4.13334 7H5.86667C5.87835 7 5.89001 7 5.90163 7C6.24494 6.99998 6.56025 6.99995 6.82383 7.02149C7.02205 7.03768 7.23327 7.06844 7.44713 7.13867L8.58579 6H7C6.44772 6 6 5.55229 6 5ZM3.1745 9.03964C3.17446 9.03962 3.1751 9.03936 3.17652 9.03889ZM3.17795 9.03843C3.18979 9.03476 3.23395 9.02343 3.33904 9.01485C3.51121 9.00078 3.74347 9 4.13334 9H5.86667C6.25654 9 6.4888 9.00078 6.66097 9.01485C6.76605 9.02343 6.81021 9.03476 6.82205 9.03843C6.88157 9.06979 6.93021 9.11843 6.96157 9.17795C6.96524 9.18979 6.97657 9.23396 6.98516 9.33904C6.99923 9.51121 7 9.74347 7 10.1333V11.8667C7 12.2565 6.99923 12.4888 6.98516 12.661C6.97657 12.766 6.96525 12.8102 6.96157 12.8221C6.93021 12.8816 6.88157 12.9302 6.82205 12.9616C6.81021 12.9652 6.76604 12.9766 6.66097 12.9852C6.4888 12.9992 6.25654 13 5.86667 13H4.13334C3.74347 13 3.51121 12.9992 3.33904 12.9852C3.23396 12.9766 3.1898 12.9652 3.17795 12.9616C3.11843 12.9302 3.06979 12.8816 3.03843 12.8221C3.03476 12.8102 3.02343 12.766 3.01485 12.661C3.00078 12.4888 3 12.2565 3 11.8667V10.1333C3 9.74347 3.00078 9.51121 3.01485 9.33904C3.02343 9.23396 3.03476 9.18979 3.03843 9.17795C3.06979 9.11843 3.11843 9.06979 3.17795 9.03843ZM3.03964 9.1745C3.03965 9.17454 3.03942 9.17524 3.0389 9.17648ZM3.03964 12.8255C3.03963 12.8255 3.03937 12.8249 3.03891 12.8235ZM3.1745 12.9604C3.17454 12.9604 3.17524 12.9606 3.17649 12.9611ZM6.8255 12.9604C6.82554 12.9604 6.82492 12.9606 6.82352 12.9611ZM6.96037 12.8255C6.96035 12.8255 6.96059 12.8248 6.9611 12.8235ZM6.96037 9.1745C6.96038 9.17446 6.96064 9.17509 6.9611 9.17648ZM6.8255 9.03964C6.82546 9.03965 6.82475 9.03942 6.82349 9.03889Z"/>
</svg>
