<svg width="16" height="16" viewBox="0 0 16 16" xmlns="http://www.w3.org/2000/svg">
<path fill-rule="evenodd" clip-rule="evenodd" d="M8.60844 1.13798C8.9588 1.30566 9.14105 1.59946 9.2217 1.73744C9.3077 1.88458 9.39439 2.07 9.47456 2.24151L9.47457 2.24152L9.4746 2.24158L9.47461 2.2416L9.48842 2.27115L11.4934 6.55715C11.4999 6.57013 11.506 6.58328 11.5119 6.59658L12.9058 9.57627C13.1398 10.0765 12.924 10.6718 12.4237 10.9058C11.9235 11.1398 11.3282 10.924 11.0942 10.4237L9.96038 8H6.03962L4.90579 10.4237C4.67177 10.924 4.07652 11.1398 3.57627 10.9058C3.07602 10.6718 2.86019 10.0765 3.09421 9.57627L4.48813 6.59657C4.494 6.58328 4.50014 6.57014 4.50657 6.55715L6.51158 2.27115L6.52539 2.24161C6.52539 2.24161 6.69228 1.88461 6.7783 1.73744C6.85895 1.59946 7.0412 1.30566 7.39156 1.13798C7.77597 0.954007 8.22403 0.954007 8.60844 1.13798ZM8 3.8094L9.02477 6H6.97523L8 3.8094ZM2 12H11V13L1 14L2 12ZM14 13L6 14V15H15L14 13Z"/>
</svg>
