<svg width="16" height="16" viewBox="0 0 16 16" xmlns="http://www.w3.org/2000/svg">
<path fill-rule="evenodd" clip-rule="evenodd" d="M5.29289 2.29289C5.68342 1.90237 6.31658 1.90237 6.70711 2.29289L10.7071 6.29289C11.0976 6.68342 11.0976 7.31658 10.7071 7.70711C10.3166 8.09763 9.68342 8.09763 9.29289 7.70711L7 5.41421V7C7 9.13878 7.11703 9.99599 7.39507 10.5541C7.65329 11.0724 8.01868 11.4434 8.51971 11.7045C8.74545 11.8221 9.04945 11.9066 9.59723 11.9524C10.1574 11.9992 10.8786 12 11.9222 12H14C14.5523 12 15 12.4477 15 13C15 13.5523 14.5523 14 14 14H11.879C10.8889 14 10.0839 14 9.43069 13.9454C8.75562 13.889 8.15407 13.7692 7.59546 13.4781C6.71664 13.0201 6.04978 12.3388 5.60493 11.4459C5.08368 10.3997 5 9.06161 5 7V5.41421L2.70711 7.70711C2.31658 8.09763 1.68342 8.09763 1.29289 7.70711C0.902369 7.31658 0.902369 6.68342 1.29289 6.29289L5.29289 2.29289Z"/>
</svg>
