<svg width="16" height="16" viewBox="0 0 16 16" xmlns="http://www.w3.org/2000/svg">
<path fill-rule="evenodd" clip-rule="evenodd" d="M0.999992 3C0.999992 2.44772 1.44771 2 1.99999 2H14C14.5523 2 15 2.44772 15 3C15 3.55228 14.5523 4 14 4H1.99999C1.44771 4 0.999992 3.55228 0.999992 3ZM0.999992 8C0.999992 7.44772 1.44771 7 1.99999 7H12C12.5515 7 13.0341 7.2396 13.3847 7.48696C13.7488 7.7438 14.0682 8.07679 14.3123 8.41679C14.8551 9.17279 15 10.004 15 10.8571C15 11.2798 14.965 11.6698 14.8462 12.0547C14.7256 12.4452 14.5378 12.7691 14.3123 13.0832C13.637 14.0238 12.5562 14.0078 12.0935 14.001C12.0587 14.0005 12.0274 14 12 14H11.4142L11.7071 14.2929C12.0976 14.6834 12.0976 15.3166 11.7071 15.7071C11.3166 16.0976 10.6834 16.0976 10.2929 15.7071L8.29289 13.7071C7.90236 13.3166 7.90236 12.6834 8.29289 12.2929L10.2929 10.2929C10.6834 9.90237 11.3166 9.90237 11.7071 10.2929C12.0976 10.6834 12.0976 11.3166 11.7071 11.7071L11.4142 12H12C12.0244 12 12.0477 12 12.07 12.0001C12.1825 12.0002 12.2711 12.0003 12.3609 11.9963C12.4637 11.9918 12.5346 11.9826 12.5859 11.9709C12.6346 11.9598 12.6546 11.9488 12.6605 11.9453L12.6608 11.9451C12.6639 11.9432 12.6724 11.938 12.6877 11.9168C12.8373 11.7084 12.8995 11.5804 12.9351 11.4648C12.9726 11.3435 13 11.1733 13 10.8571C13 10.2326 12.895 9.87206 12.6877 9.58321C12.5567 9.40079 12.3914 9.23378 12.2318 9.12122C12.0768 9.01191 11.9965 9.00116 11.9967 9.00011C11.9967 9.00001 11.9974 9 11.9988 9H1.99999C1.44771 9 0.999992 8.55228 0.999992 8ZM0.999992 13C0.999992 12.4477 1.44771 12 1.99999 12H5.99999C6.55228 12 6.99999 12.4477 6.99999 13C6.99999 13.5523 6.55228 14 5.99999 14H1.99999C1.44771 14 0.999992 13.5523 0.999992 13Z"/>
</svg>
