<svg width="16" height="16" viewBox="0 0 16 16" xmlns="http://www.w3.org/2000/svg">
<path fill-rule="evenodd" clip-rule="evenodd" d="M5 2.00249H7C7.55229 2.00249 8 2.4502 8 3.00249C8 3.55477 7.55229 4.00249 7 4.00249L5 3.9934C4.45292 3.9934 4.13434 3.97169 3.86855 3.9934C3.61444 4.01416 3.52672 4.04897 3.48854 4.06843C3.32018 4.15421 3.1833 4.29109 3.09752 4.45944C3.07807 4.49763 3.04326 4.58535 3.0225 4.83946C3.00078 5.10524 3 5.45541 3 6.00249L3.00002 10.9709C3.00002 11.518 3.00079 11.8682 3.02251 12.1339C3.04327 12.388 3.07808 12.4758 3.09754 12.514C3.13149 12.5806 3.17344 12.6423 3.22218 12.6978C3.31788 12.6012 3.43006 12.4992 3.53453 12.4043C3.54225 12.3973 3.54992 12.3904 3.55754 12.3834L8.9 7.52664C8.9057 7.52146 8.91146 7.51622 8.91725 7.51095C9.01515 7.42191 9.12539 7.32164 9.22888 7.24097C9.3484 7.14782 9.51384 7.03576 9.73271 6.96468C10.0269 6.86911 10.3423 6.85917 10.6419 6.93599C10.8648 6.99314 11.037 7.09454 11.1622 7.17998C11.2705 7.25396 11.3869 7.34708 11.4902 7.42977C11.4963 7.43467 11.5024 7.43954 11.5084 7.44435L13.2751 8.8577C13.2909 8.87035 13.3069 8.88309 13.323 8.89594C13.5126 9.04703 13.721 9.21309 13.8855 9.42279C14.0889 9.68188 14.2333 9.98224 14.3085 10.3029C14.3695 10.5624 14.369 10.8288 14.3685 11.0713C14.3685 11.0919 14.3684 11.1123 14.3684 11.1326V11.1651C14.3684 11.2642 14.3684 11.3602 14.3682 11.4531C14.3684 11.4608 14.3684 11.4685 14.3684 11.4762C14.3684 11.5126 14.3685 11.5487 14.3685 11.5845C14.3691 12.0626 14.3696 12.4847 14.2698 12.857C14.1527 13.294 13.9375 13.6892 13.6488 14.0179C13.5561 14.1233 13.456 14.2219 13.3491 14.3129C13.0274 14.5865 12.6446 14.7909 12.2229 14.9039C11.8506 15.0036 11.4286 15.0031 10.9504 15.0026C10.9146 15.0025 10.8785 15.0025 10.8421 15.0025H10.5877C10.5689 15.0025 10.5501 15.0025 10.5311 15.0025H4.9935C4.9715 15.0025 4.94962 15.0025 4.92788 15.0025H4.57009C4.55979 15.0025 4.54942 15.0025 4.53899 15.0025C4.38664 15.0025 4.22214 15.0026 4.07839 14.9936C3.94637 14.9893 3.82202 14.9829 3.7057 14.9734C3.32791 14.9425 2.94769 14.874 2.58057 14.687C2.03589 14.4095 1.59305 13.9666 1.31552 13.4219C1.12847 13.0548 1.06002 12.6746 1.02915 12.2968C0.99998 11.9398 0.999997 11.507 1.00002 11.009L1 5.96437C0.999982 5.46636 0.999966 5.03363 1.02914 4.6766C1.06 4.2988 1.12845 3.91858 1.31551 3.55146C1.59304 3.00678 2.03588 2.56394 2.58056 2.28642C2.94768 2.09936 3.41138 1.9976 3.70569 2.00004C4 2.00249 4.50199 2.00247 5 2.00249ZM12.1937 12.6389C12.2344 12.5838 12.2689 12.5237 12.2963 12.4597C12.3104 12.4268 12.3364 12.3491 12.3518 12.1297C12.3679 11.901 12.3684 11.6011 12.3684 11.1326C12.3684 10.9712 12.3682 10.8821 12.3652 10.815C12.3637 10.7797 12.3617 10.7632 12.361 10.7579C12.3523 10.7221 12.3361 10.6885 12.3136 10.6593C12.3099 10.6554 12.2982 10.6436 12.2717 10.6203C12.2212 10.5761 12.1517 10.5203 12.0257 10.4194L10.259 9.00609C10.2566 9.00421 10.2543 9.00234 10.252 9.00048C10.2498 9.00248 10.2476 9.00449 10.2453 9.00652L5.84978 13.0025H10.4985C10.9671 13.0025 11.267 13.0019 11.4957 12.9859C11.715 12.9705 11.7927 12.9444 11.8256 12.9304C11.8953 12.9006 11.9602 12.8623 12.0193 12.8169C12.0854 12.766 12.1442 12.7061 12.1937 12.6389Z"/>
<path fill-rule="evenodd" clip-rule="evenodd" d="M4 6.5C4 5.67157 4.67157 5 5.5 5H5.51C6.33843 5 7.01 5.67157 7.01 6.5C7.01 7.32843 6.33843 8 5.51 8H5.5C4.67157 8 4 7.32843 4 6.5Z"/>
<path fill-rule="evenodd" clip-rule="evenodd" d="M11.2929 1.29289C11.6834 0.902369 12.3166 0.902369 12.7071 1.29289L14.7071 3.29289C15.0976 3.68342 15.0976 4.31658 14.7071 4.70711C14.3166 5.09763 13.6834 5.09763 13.2929 4.70711L13 4.41421V6C13 6.55228 12.5523 7 12 7C11.4477 7 11 6.55228 11 6V4.41421L10.7071 4.70711C10.3166 5.09763 9.68342 5.09763 9.29289 4.70711C8.90237 4.31658 8.90237 3.68342 9.29289 3.29289L11.2929 1.29289Z"/>
</svg>
