<svg width="16" height="16" viewBox="0 0 16 16" xmlns="http://www.w3.org/2000/svg">
<path fill-rule="evenodd" clip-rule="evenodd" d="M5.75965 0.999849C5.78612 0.999923 5.81224 0.999997 5.83798 0.999997L10.883 0.999995C11.3996 0.999969 11.8541 0.999947 12.2302 1.03496C12.6327 1.07243 13.0375 1.15611 13.4239 1.38041C13.9915 1.70997 14.4299 2.22147 14.6977 2.8203C14.8734 3.21332 14.9399 3.62303 14.9705 4.05068C15 4.46188 15 4.96467 15 5.56456V10.4354C15 11.0353 15 11.5381 14.9705 11.9493C14.9399 12.377 14.8734 12.7867 14.6977 13.1797C14.4299 13.7785 13.9915 14.29 13.4239 14.6196C13.0375 14.8439 12.6327 14.9276 12.2302 14.965C11.8541 15 11.3996 15 10.883 15L5.83798 15C5.81224 15 5.78612 15.0001 5.75965 15.0001C5.45573 15.001 5.10623 15.002 4.77208 14.8932C4.48321 14.7992 4.21979 14.6473 3.99324 14.4514C3.7375 14.2303 3.54718 13.9399 3.36342 13.6596C3.34812 13.6362 3.33286 13.613 3.31762 13.5898L0.474078 9.26981C0.46261 9.25239 0.450425 9.23409 0.437686 9.21496C0.308647 9.02123 0.122658 8.74199 0.0473496 8.41602C-0.0157832 8.14275 -0.0157832 7.85724 0.0473496 7.58397C0.122658 7.258 0.308648 6.97876 0.437686 6.78503C0.450425 6.7659 0.46261 6.74761 0.474078 6.73019L3.31762 2.41019C3.33286 2.38703 3.34812 2.36376 3.36342 2.34042C3.54718 2.06007 3.7375 1.76971 3.99324 1.54859C4.21979 1.35273 4.48321 1.20075 4.77208 1.10675C5.10623 0.99801 5.45573 0.998993 5.75965 0.999849ZM5.38017 3.01151C5.38014 3.01151 5.3806 3.0114 5.38162 3.01122ZM5.38484 3.01069C5.39245 3.00952 5.40996 3.00731 5.44202 3.00537C5.52348 3.00042 5.63325 3 5.83798 3H10.8405C11.4122 3 11.7726 3.001 12.0448 3.02635C12.3008 3.05018 12.3837 3.08912 12.4197 3.11005C12.5952 3.21192 12.761 3.38883 12.8719 3.63674C12.9114 3.72502 12.9525 3.87099 12.9757 4.19372C12.9994 4.52483 13 4.95544 13 5.6V10.4C13 11.0446 12.9994 11.4752 12.9757 11.8063C12.9525 12.129 12.9114 12.275 12.8719 12.3633C12.761 12.6112 12.5952 12.7881 12.4197 12.8899C12.3837 12.9109 12.3008 12.9498 12.0448 12.9736C11.7726 12.999 11.4122 13 10.8405 13H5.83798C5.63325 13 5.52348 12.9996 5.44202 12.9946C5.40996 12.9927 5.39245 12.9905 5.38484 12.9893C5.36093 12.9807 5.33215 12.9651 5.30131 12.9385C5.29764 12.935 5.27931 12.9163 5.23793 12.86C5.18033 12.7815 5.10952 12.6745 4.9882 12.4902L2.14466 8.17019C2.10113 8.10406 2.06789 8.05352 2.03977 8.00957C2.03768 8.00629 2.03565 8.0031 2.03367 8C2.03564 7.99689 2.03768 7.99371 2.03977 7.99043C2.06789 7.94647 2.10113 7.89593 2.14466 7.82981L4.9882 3.50981C5.10952 3.32549 5.18033 3.21847 5.23793 3.14004C5.29016 3.06891 5.30566 3.05777 5.30131 3.06153C5.33215 3.03486 5.36093 3.01934 5.38484 3.01069ZM5.38016 12.9885C5.38019 12.9885 5.3807 12.9886 5.38163 12.9888ZM5.21913 5.3753C5.56414 4.94404 6.19343 4.87412 6.62469 5.21913L8.5 6.71937L10.3753 5.21913C10.8066 4.87412 11.4359 4.94404 11.7809 5.3753C12.1259 5.80656 12.056 6.43586 11.6247 6.78087L10.1008 8L11.6247 9.21913C12.056 9.56414 12.1259 10.1934 11.7809 10.6247C11.4359 11.056 10.8066 11.1259 10.3753 10.7809L8.5 9.28062L6.62469 10.7809C6.19343 11.1259 5.56414 11.056 5.21913 10.6247C4.87412 10.1934 4.94404 9.56414 5.37531 9.21913L6.89922 8L5.37531 6.78087C4.94404 6.43586 4.87412 5.80656 5.21913 5.3753Z"/>
</svg>
