<svg width="16" height="16" viewBox="0 0 16 16" xmlns="http://www.w3.org/2000/svg">
<path fill-rule="evenodd" clip-rule="evenodd" d="M5.16146 1H10.8385C11.3657 0.999982 11.8205 0.999967 12.195 1.03057C12.5904 1.06287 12.9836 1.13419 13.362 1.32698C13.9265 1.6146 14.3854 2.07354 14.673 2.63803C14.8658 3.01641 14.9371 3.40963 14.9694 3.80497C15 4.17954 15 4.6343 15 5.16143V10.8386C15 11.3657 15 11.8205 14.9694 12.195C14.9371 12.5904 14.8658 12.9836 14.673 13.362C14.3854 13.9265 13.9265 14.3854 13.362 14.673C12.9836 14.8658 12.5904 14.9371 12.195 14.9694C11.8205 15 11.3657 15 10.8386 15H5.16144C4.6343 15 4.17954 15 3.80497 14.9694C3.40963 14.9371 3.01641 14.8658 2.63803 14.673C2.07354 14.3854 1.6146 13.9265 1.32698 13.362C1.13419 12.9836 1.06287 12.5904 1.03057 12.195C0.999967 11.8205 0.999983 11.3657 1 10.8385V5.16146C0.999983 4.63431 0.999967 4.17955 1.03057 3.80497C1.06287 3.40963 1.13419 3.01641 1.32698 2.63803C1.6146 2.07354 2.07354 1.6146 2.63803 1.32698C3.01641 1.13419 3.40963 1.06287 3.80497 1.03057C4.17955 0.999967 4.63431 0.999982 5.16146 1ZM3.96784 3.02393C3.69617 3.04612 3.59546 3.0838 3.54601 3.10899C3.35785 3.20487 3.20487 3.35785 3.109 3.54601C3.0838 3.59545 3.04612 3.69617 3.02393 3.96784C3.00078 4.25117 3 4.62345 3 5.2V10.8C3 11.3766 3.00078 11.7488 3.02393 12.0322C3.04612 12.3038 3.0838 12.4045 3.109 12.454C3.20487 12.6422 3.35785 12.7951 3.54601 12.891C3.59546 12.9162 3.69617 12.9539 3.96784 12.9761C4.25118 12.9992 4.62345 13 5.2 13H10.8C11.3766 13 11.7488 12.9992 12.0322 12.9761C12.3038 12.9539 12.4045 12.9162 12.454 12.891C12.6422 12.7951 12.7951 12.6422 12.891 12.454C12.9162 12.4045 12.9539 12.3038 12.9761 12.0322C12.9992 11.7488 13 11.3766 13 10.8V5.2C13 4.62345 12.9992 4.25117 12.9761 3.96784C12.9539 3.69617 12.9162 3.59545 12.891 3.54601C12.7951 3.35785 12.6422 3.20487 12.454 3.10899C12.4045 3.0838 12.3038 3.04612 12.0322 3.02393C11.7488 3.00078 11.3766 3 10.8 3H5.2C4.62345 3 4.25118 3.00078 3.96784 3.02393ZM5 6C5 5.44772 5.44772 5 6 5L10 5C10.5523 5 11 5.44771 11 6C11 6.55228 10.5523 7 10 7H9L9 10C9 10.5523 8.55228 11 8 11C7.44772 11 7 10.5523 7 10L7 7L6 7C5.44772 7 5 6.55228 5 6Z"/>
</svg>
