<svg width="16" height="16" viewBox="0 0 16 16" xmlns="http://www.w3.org/2000/svg">
<path d="M4 6C3.44772 6 3 6.44771 3 7L3 13C3 13.5523 3.44771 14 4 14C4.55228 14 5 13.5523 5 13L5 7C5 6.44772 4.55228 6 4 6Z"/>
<path fill-rule="evenodd" clip-rule="evenodd" d="M10 1C8.89543 1 8 1.89543 8 3L8 13C8 14.1046 8.89543 15 10 15L13 15C14.1046 15 15 14.1046 15 13L15 3C15 1.89543 14.1046 1 13 1L10 1ZM10 13L10 3L13 3L13 13L10 13Z"/>
<path d="M4.40372 4.81262C4.18075 5.06246 3.81925 5.06246 3.59628 4.81262L1.16837 2.09212C0.808695 1.6891 1.06343 1 1.57209 1L6.42791 1C6.93657 1 7.1913 1.6891 6.83163 2.09212L4.40372 4.81262Z"/>
</svg>
