<svg width="16" height="16" viewBox="0 0 16 16" xmlns="http://www.w3.org/2000/svg">
<path fill-rule="evenodd" clip-rule="evenodd" d="M9.5 1C9.91377 1 10.2848 1.25483 10.4333 1.64102L11.191 3.611C11.3907 4.13018 11.4348 4.22432 11.4856 4.29577C11.5457 4.38037 11.6196 4.45428 11.7042 4.51444C11.7757 4.56525 11.8698 4.60928 12.389 4.80897L14.359 5.56665C14.7452 5.71519 15 6.08623 15 6.5C15 6.91377 14.7452 7.28481 14.359 7.43335L12.389 8.19103C11.8698 8.39072 11.7757 8.43475 11.7042 8.48556C11.6196 8.54572 11.5457 8.61963 11.4856 8.70423C11.4348 8.77568 11.3907 8.86982 11.191 9.389L10.4333 11.359C10.2848 11.7452 9.91377 12 9.5 12C9.08623 12 8.71519 11.7452 8.56666 11.359L7.80897 9.389C7.60929 8.86982 7.56525 8.77568 7.51444 8.70423C7.45428 8.61963 7.38037 8.54572 7.29578 8.48556C7.22432 8.43475 7.13018 8.39071 6.61101 8.19103L4.64102 7.43335C4.25483 7.28481 4 6.91377 4 6.5C4 6.08623 4.25483 5.71519 4.64102 5.56665L6.611 4.80897C7.13018 4.60928 7.22432 4.56525 7.29578 4.51444C7.38037 4.45428 7.45428 4.38037 7.51444 4.29577C7.56525 4.22432 7.60928 4.13018 7.80897 3.611L8.56665 1.64102C8.71519 1.25483 9.08623 1 9.5 1ZM9.5 4.77812C9.39883 5.02349 9.29032 5.24953 9.14439 5.45476C8.95468 5.72157 8.72157 5.95467 8.45476 6.14439C8.24953 6.29032 8.02349 6.39883 7.77812 6.5C8.02349 6.60117 8.24953 6.70968 8.45476 6.85561C8.72157 7.04533 8.95468 7.27843 9.14439 7.54524C9.29032 7.75047 9.39883 7.97651 9.5 8.22188C9.60118 7.97651 9.70968 7.75047 9.85561 7.54524C10.0453 7.27843 10.2784 7.04533 10.5452 6.85561C10.7505 6.70968 10.9765 6.60117 11.2219 6.5C10.9765 6.39883 10.7505 6.29032 10.5452 6.14439C10.2784 5.95468 10.0453 5.72157 9.85561 5.45476C9.70968 5.24953 9.60117 5.02349 9.5 4.77812Z"/>
<path d="M3.5 9L3.93581 9.87162C4.0833 10.1666 4.15705 10.3141 4.25557 10.4419C4.343 10.5553 4.44467 10.657 4.55808 10.7444C4.6859 10.8429 4.83339 10.9167 5.12838 11.0642L6 11.5L5.12838 11.9358C4.83339 12.0833 4.6859 12.1571 4.55809 12.2556C4.44467 12.343 4.343 12.4447 4.25557 12.5581C4.15705 12.6859 4.0833 12.8334 3.93581 13.1284L3.5 14L3.06419 13.1284C2.9167 12.8334 2.84295 12.6859 2.74443 12.5581C2.657 12.4447 2.55533 12.343 2.44191 12.2556C2.3141 12.1571 2.16661 12.0833 1.87162 11.9358L1 11.5L1.87162 11.0642C2.16661 10.9167 2.3141 10.8429 2.44191 10.7444C2.55533 10.657 2.657 10.5553 2.74443 10.4419C2.84295 10.3141 2.9167 10.1666 3.06419 9.87162L3.5 9Z"/>
<path fill-rule="evenodd" clip-rule="evenodd" d="M3.5 9C3.62626 9 3.74168 9.07133 3.79814 9.18426L4.17584 9.93967C4.30934 10.2067 4.3577 10.3002 4.41883 10.3795C4.47712 10.4551 4.5449 10.5229 4.62051 10.5812C4.69982 10.6423 4.79335 10.6907 5.06033 10.8242L5.81574 11.2019C5.92867 11.2583 6 11.3737 6 11.5C6 11.6263 5.92867 11.7417 5.81574 11.7981L5.06033 12.1758C4.79335 12.3093 4.69982 12.3577 4.62051 12.4188C4.5449 12.4771 4.47712 12.5449 4.41883 12.6205C4.3577 12.6998 4.30934 12.7933 4.17584 13.0603L3.79814 13.8157C3.74168 13.9287 3.62626 14 3.5 14C3.37374 14 3.25832 13.9287 3.20186 13.8157L2.82416 13.0603C2.69066 12.7933 2.6423 12.6998 2.58117 12.6205C2.52288 12.5449 2.4551 12.4771 2.37949 12.4188C2.30018 12.3577 2.20665 12.3093 1.93967 12.1758L1.18426 11.7981C1.07133 11.7417 1 11.6263 1 11.5C1 11.3737 1.07133 11.2583 1.18426 11.2019L1.93967 10.8242C2.20665 10.6907 2.30018 10.6423 2.37949 10.5812C2.4551 10.5229 2.52288 10.4551 2.58117 10.3795C2.6423 10.3002 2.69066 10.2067 2.82416 9.93967L3.20186 9.18426C3.25832 9.07133 3.37374 9 3.5 9ZM3.5 10.0787L3.42044 10.2378C3.4157 10.2473 3.41103 10.2566 3.40642 10.2659C3.29207 10.4947 3.21456 10.6498 3.10917 10.7865C3.01592 10.9075 2.90747 11.0159 2.78649 11.1092C2.64978 11.2146 2.49467 11.2921 2.26585 11.4064C2.25663 11.411 2.24728 11.4157 2.23781 11.4204L2.07869 11.5L2.23781 11.5796C2.24728 11.5843 2.25663 11.589 2.26585 11.5936C2.49467 11.7079 2.64978 11.7854 2.78649 11.8908C2.90747 11.9841 3.01592 12.0925 3.10917 12.2135C3.21456 12.3502 3.29207 12.5053 3.40642 12.7341C3.41103 12.7434 3.4157 12.7527 3.42044 12.7622L3.5 12.9213L3.57956 12.7622C3.5843 12.7527 3.58897 12.7434 3.59358 12.7341C3.70793 12.5053 3.78544 12.3502 3.89083 12.2135C3.98408 12.0925 4.09253 11.9841 4.21351 11.8908C4.35022 11.7854 4.50533 11.7079 4.73414 11.5936C4.74337 11.589 4.75272 11.5843 4.76219 11.5796L4.92131 11.5L4.76219 11.4204C4.75272 11.4157 4.74337 11.411 4.73414 11.4064C4.50533 11.2921 4.35022 11.2146 4.21351 11.1092C4.09253 11.0159 3.98408 10.9075 3.89083 10.7865C3.78544 10.6498 3.70793 10.4947 3.59358 10.2659C3.58897 10.2566 3.58429 10.2473 3.57956 10.2378L3.5 10.0787Z"/>
</svg>
