<svg width="16" height="16" viewBox="0 0 16 16" xmlns="http://www.w3.org/2000/svg">
<g clip-path="url(#clip0_2611_7697)">
<path fill-rule="evenodd" clip-rule="evenodd" d="M7.17471 1.15298L6.74442 2.05207L7.17471 1.15298C7.54913 1.33217 7.75207 1.65027 7.85608 1.82822C7.96533 2.01511 8.0777 2.25542 8.19102 2.49776C8.19631 2.50908 8.20161 2.52041 8.20691 2.53173C8.223 2.56612 8.23711 2.6014 8.24919 2.63739L10.9481 10.6819C11.1237 11.2055 10.8417 11.7724 10.3181 11.9481C9.79446 12.1237 9.22759 11.8417 9.05193 11.3181L8.60973 10H4.17039L2.93839 13.3456C2.74754 13.8638 2.1727 14.1292 1.65444 13.9384C1.13617 13.7475 0.870753 13.1727 1.0616 12.6544L4.76048 2.6099C4.77024 2.5834 4.78112 2.55732 4.79309 2.53173C4.79838 2.52041 4.80368 2.50909 4.80897 2.49778C4.92229 2.25544 5.03466 2.01512 5.14391 1.82822C5.24793 1.65027 5.45087 1.33217 5.82528 1.15298L6.137 1.80431L5.82528 1.15298C6.25148 0.949007 6.74852 0.949007 7.17471 1.15298ZM4.90688 8H7.93874L6.49337 3.69179L4.90688 8Z"/>
<path fill-rule="evenodd" clip-rule="evenodd" d="M9.00002 12.5C9.27616 12.5 9.50002 12.7239 9.50001 13L9.5 13.7682L13.7888 9.50001L13 9.5C12.7239 9.5 12.5 9.27614 12.5 9C12.5 8.72385 12.7239 8.5 13 8.5L15 8.50002C15.2761 8.50002 15.5 8.72387 15.5 9.00002L15.5 11C15.5 11.2762 15.2761 11.5 15 11.5C14.7239 11.5 14.5 11.2762 14.5 11V10.203L10.194 14.4884L11.0072 14.5001C11.2833 14.504 11.5039 14.7311 11.5 15.0072C11.496 15.2833 11.2689 15.5039 10.9928 15.4999L8.99281 15.4712C8.71949 15.4673 8.49998 15.2446 8.49998 14.9713L8.50001 13C8.50002 12.7238 8.72388 12.5 9.00002 12.5Z"/>
</g>
</svg>
