<svg width="16" height="16" viewBox="0 0 16 16"  xmlns="http://www.w3.org/2000/svg">
<g clip-path="url(#clip0_2411_7863)">
<path fill-rule="evenodd" clip-rule="evenodd" d="M7.70637 2H8.29364C8.74248 1.99998 9.13642 1.99997 9.46227 2.02585C9.80779 2.05329 10.1626 2.11452 10.5079 2.28558C11.0162 2.5374 11.4348 2.9419 11.6989 3.44582C11.8798 3.791 11.9444 4.14623 11.9731 4.48826C12 4.8085 12 5.19452 12 5.62884V10.3712C12 10.8055 12 11.1915 11.9731 11.5117C11.9444 11.8538 11.8798 12.209 11.6989 12.5542C11.4348 13.0581 11.0162 13.4626 10.5079 13.7144C10.1626 13.8855 9.80779 13.9467 9.46227 13.9742C9.13642 14 8.74247 14 8.29363 14H7.70637C7.25753 14 6.86358 14 6.53774 13.9742C6.19221 13.9467 5.83743 13.8855 5.49213 13.7144C4.98378 13.4626 4.56521 13.0581 4.30112 12.5542C4.12021 12.209 4.05561 11.8538 4.02687 11.5117C3.99996 11.1915 3.99998 10.8055 4 10.3712L4 5.66667C4 5.65402 4 5.64141 4 5.62884C3.99998 5.19453 3.99996 4.8085 4.02687 4.48826C4.05561 4.14623 4.12021 3.791 4.30112 3.44582C4.56521 2.9419 4.98378 2.5374 5.49213 2.28558C5.83743 2.11452 6.19221 2.05329 6.53774 2.02585C6.86358 1.99997 7.25753 1.99998 7.70637 2ZM6.6961 4.01957C6.4699 4.03754 6.40132 4.06713 6.37991 4.07774C6.24313 4.14549 6.13719 4.25093 6.07258 4.37422C6.06664 4.38555 6.03781 4.44194 6.01985 4.65575C6.00082 4.88208 6 5.18299 6 5.66667V10.3333C6 10.817 6.00082 11.1179 6.01985 11.3443C6.03781 11.5581 6.06664 11.6145 6.07258 11.6258C6.13719 11.7491 6.24313 11.8545 6.37991 11.9223C6.40132 11.9329 6.4699 11.9625 6.6961 11.9804C6.93318 11.9993 7.24677 12 7.74286 12H8.25715C8.75324 12 9.06683 11.9993 9.3039 11.9804C9.5301 11.9625 9.59869 11.9329 9.62009 11.9223C9.75687 11.8545 9.86281 11.7491 9.92742 11.6258C9.93337 11.6144 9.96219 11.5581 9.98016 11.3443C9.99918 11.1179 10 10.817 10 10.3333V5.66667C10 5.18299 9.99918 4.88208 9.98016 4.65575C9.96219 4.44194 9.93337 4.38555 9.92742 4.37422C9.86281 4.25093 9.75687 4.14549 9.62009 4.07774C9.59869 4.06713 9.5301 4.03754 9.3039 4.01957C9.06683 4.00074 8.75324 4 8.25715 4H7.74286C7.24677 4 6.93318 4.00074 6.6961 4.01957Z" />
<path fill-rule="evenodd" clip-rule="evenodd" d="M15.9011 2.56641C16.1406 3.06408 15.9313 3.66164 15.4336 3.9011C15.2721 3.97881 15.1515 4.09753 15.0797 4.23066C15.0713 4.24626 15.0404 4.30712 15.0212 4.52895C15.0009 4.76426 15 5.07692 15 5.57868V10.4213C15 10.9231 15.0009 11.2357 15.0212 11.471C15.0404 11.6929 15.0713 11.7537 15.0797 11.7693C15.1515 11.9024 15.2721 12.0212 15.4336 12.0989C15.9313 12.3383 16.1406 12.9359 15.9011 13.4336C15.6617 13.9312 15.0641 14.1406 14.5664 13.9011C14.0387 13.6472 13.5989 13.2367 13.3196 12.719C13.1284 12.3647 13.0594 11.9984 13.0287 11.6434C13 11.3115 13 10.9112 13 10.4603L13 5.57868C13 5.56564 13 5.55264 13 5.53968C13 5.08877 13 4.6885 13.0287 4.35655C13.0594 4.00159 13.1284 3.63531 13.3196 3.28095C13.5989 2.76323 14.0387 2.35279 14.5664 2.09887C15.0641 1.85941 15.6617 2.06874 15.9011 2.56641Z" />
<path fill-rule="evenodd" clip-rule="evenodd" d="M0.0988815 2.56641C-0.140577 3.06408 0.0687461 3.66164 0.566419 3.9011C0.727928 3.97881 0.84848 4.09753 0.920314 4.23066C0.928731 4.24626 0.959574 4.30712 0.978767 4.52895C0.999126 4.76426 0.999997 5.07692 0.999997 5.57868V10.4213C0.999997 10.9231 0.999126 11.2357 0.978767 11.471C0.959574 11.6929 0.928731 11.7537 0.920314 11.7693C0.84848 11.9024 0.727928 12.0212 0.566419 12.0989C0.0687461 12.3383 -0.140577 12.9359 0.0988815 13.4336C0.33834 13.9312 0.935903 14.1406 1.43358 13.9011C1.96129 13.6472 2.4011 13.2367 2.68044 12.719C2.87164 12.3647 2.94061 11.9984 2.97132 11.6434C3.00004 11.3115 3.00002 10.9112 3 10.4603L3 5.57868C3 5.56564 3 5.55264 3 5.53968C3.00002 5.08877 3.00004 4.6885 2.97132 4.35655C2.94061 4.00159 2.87164 3.63531 2.68044 3.28095C2.4011 2.76323 1.96129 2.35279 1.43358 2.09887C0.935903 1.85941 0.33834 2.06874 0.0988815 2.56641Z" />
</g>
</svg>
