<svg width="16" height="16" viewBox="0 0 16 16" xmlns="http://www.w3.org/2000/svg">
<g clip-path="url(#clip0_5676_10879)">
<path fill-rule="evenodd" clip-rule="evenodd" d="M4.5 2C4.5 1.44772 4.94772 1 5.5 1H6.5C7.05228 1 7.5 1.44772 7.5 2C7.5 2.55228 7.05228 3 6.5 3H10C10.5523 3 11 3.44772 11 4C11 4.55228 10.5523 5 10 5H9C8.99999 5.25813 8.90065 5.51614 8.70241 5.71177L7.90511 6.49858L7.03091 7.37455L7.8 8.4C8.13137 8.84183 8.04183 9.46863 7.6 9.8C7.15817 10.1314 6.53137 10.0418 6.2 9.6L5.60358 8.80477L2.70782 11.7064C2.31769 12.0973 1.68453 12.098 1.29361 11.7078C0.90269 11.3177 0.902049 10.6845 1.29218 10.2936L4.39122 7.18829L3.2 5.6C3.06492 5.41989 2.99978 5.20904 2.99994 5H2C1.44772 5 1 4.55228 1 4C1 3.44772 1.44772 3 2 3H5.5C4.94772 3 4.5 2.55228 4.5 2ZM5.25 5L5.81855 5.75807L6.49757 5.07768L6.57633 5H5.25ZM11.425 9.00127L12.1497 10.4737H10.7003L11.425 9.00127ZM9.71584 12.4737L8.74721 14.4416C8.50331 14.9371 7.9039 15.1411 7.40839 14.8972C6.91287 14.6533 6.7089 14.0539 6.95279 13.5584L10.0587 7.2483C10.0628 7.23989 10.067 7.23137 10.0713 7.22274C10.1348 7.09354 10.2095 6.94153 10.2847 6.81874C10.3565 6.70142 10.5292 6.43381 10.8589 6.27909C11.2173 6.11093 11.6327 6.11093 11.9911 6.27909C12.3208 6.43381 12.4935 6.70142 12.5653 6.81874C12.6405 6.94153 12.7152 7.09352 12.7787 7.22272C12.783 7.23135 12.7872 7.23988 12.7913 7.2483L15.8972 13.5584C16.1411 14.0539 15.9371 14.6533 15.4416 14.8972C14.9461 15.1411 14.3467 14.9371 14.1028 14.4416L13.1342 12.4737H9.71584Z"/>
</g>
<defs>
<clipPath id="clip0_5676_10879">
<rect width="16" height="16"/>
</clipPath>
</defs>
</svg>
