<svg width="16" height="16" viewBox="0 0 16 16" xmlns="http://www.w3.org/2000/svg">
<path fill-rule="evenodd" clip-rule="evenodd" d="M2 1C2.55229 1 3 1.44772 3 2V2.53333C3 2.91557 3.00036 3.24652 3.0164 3.51644C3.02432 3.64988 3.03504 3.74749 3.04663 3.81449C3.04897 3.828 3.05109 3.83874 3.05285 3.84696C3.08466 3.89654 3.12912 3.93691 3.1818 3.96377L3.18568 3.96585C3.19676 3.97195 3.20963 3.97904 3.28642 3.98641C3.41612 3.99887 3.60473 4 4 4H12C12.3956 4 12.5819 3.99884 12.7094 3.98649C12.7826 3.9794 12.7946 3.97293 12.807 3.96616L12.8115 3.96377C12.8642 3.93691 12.9087 3.89654 12.9405 3.84696C12.9422 3.83874 12.9444 3.82801 12.9467 3.81449C12.9583 3.74749 12.969 3.64988 12.9769 3.51644C12.993 3.24652 12.9933 2.91557 12.9933 2.53333V2C12.9933 1.44772 13.4411 1 13.9933 1C14.5456 1 14.9933 1.44772 14.9933 2V2.5523C14.9933 2.91152 14.9934 3.29952 14.9734 3.63502C14.9564 3.92215 14.9192 4.37231 14.7392 4.72578C14.5156 5.16478 14.1589 5.5218 13.7199 5.74558C13.2146 6.00321 12.7357 6.00189 12.1449 6.00026C12.0973 6.00013 12.0491 6 12 6H4C3.95076 6 3.90228 6.00014 3.85448 6.00027C3.26446 6.00192 2.7789 6.00328 2.27342 5.74558C1.83447 5.5218 1.47769 5.16478 1.25414 4.72578C1.07413 4.37231 1.03697 3.92215 1.01992 3.63502C0.999987 3.29951 0.999994 2.91152 1 2.55229L1 2C1 1.44772 1.44772 1 2 1ZM3.85448 9.99973C3.90228 9.99986 3.95076 10 4 10H12C12.0491 10 12.0973 9.99987 12.1449 9.99974C12.7357 9.99811 13.2146 9.99679 13.7199 10.2544C14.1589 10.4782 14.5156 10.8352 14.7392 11.2742C14.9174 11.6241 14.9576 12.0698 14.9764 12.3596C14.9987 12.7027 15 13.0981 15 13.4667V14C15 14.5523 14.5523 15 14 15C13.4477 15 13 14.5523 13 14V13.4667C13 13.0885 12.998 12.7571 12.9806 12.489C12.972 12.356 12.9607 12.2581 12.9486 12.1906C12.9459 12.1752 12.9435 12.1634 12.9415 12.1546C12.9096 12.1043 12.8648 12.0634 12.8115 12.0362L12.807 12.0338C12.7946 12.0271 12.7826 12.0206 12.7094 12.0135C12.5819 12.0012 12.3956 12 12 12H4C3.60473 12 3.41612 12.0011 3.28642 12.0136C3.20963 12.021 3.19676 12.028 3.18568 12.0342L3.1818 12.0362C3.12912 12.0631 3.08466 12.1035 3.05285 12.153C3.05109 12.1613 3.04897 12.172 3.04663 12.1855C3.03504 12.2525 3.02432 12.3501 3.0164 12.4836C3.00036 12.7535 3 13.0844 3 13.4667V14C3 14.5523 2.55229 15 2 15C1.44772 15 1 14.5523 1 14L1 13.4477C0.999994 13.0885 0.999987 12.7005 1.01992 12.365C1.03697 12.0778 1.07413 11.6277 1.25414 11.2742C1.47769 10.8352 1.83447 10.4782 2.27342 10.2544C2.7789 9.99672 3.26446 9.99808 3.85448 9.99973Z"/>
<path fill-rule="evenodd" clip-rule="evenodd" d="M1.5 8C1.5 7.44772 1.94772 7 2.5 7H13.5C14.0523 7 14.5 7.44772 14.5 8C14.5 8.55228 14.0523 9 13.5 9H2.5C1.94772 9 1.5 8.55228 1.5 8Z"/>
</svg>
