<svg width="16" height="16" viewBox="0 0 16 16" xmlns="http://www.w3.org/2000/svg">
<path fill-rule="evenodd" clip-rule="evenodd" d="M4.96817 1H11.0318C11.5095 0.999987 11.9495 0.999974 12.3177 1.02783C12.6861 1.0557 13.1024 1.1174 13.4778 1.31223C14.0061 1.58639 14.4322 2.02202 14.6981 2.55362C14.832 2.82113 14.8822 3.1499 14.9094 3.36586C14.9419 3.62434 14.9618 3.92157 14.9746 4.21973C15 4.81356 15 5.48253 15 5.99029V11.0337C15 11.5188 15 11.9527 14.9726 12.3133C14.9445 12.6825 14.8824 13.078 14.6981 13.4464C14.4322 13.978 14.0061 14.4136 13.4778 14.6878C13.1024 14.8826 12.6861 14.9443 12.3177 14.9722C11.9495 15 11.5096 15 11.0318 15H4.96816C4.49045 15 4.0505 15 3.68233 14.9722C3.31394 14.9443 2.89761 14.8826 2.52219 14.6878C1.99391 14.4136 1.5678 13.978 1.30186 13.4464C1.11759 13.078 1.05549 12.6825 1.02741 12.3133C0.999973 11.9527 0.999986 11.5188 1 11.0337L1 5.99028C1 5.48252 0.999999 4.81356 1.02544 4.21973C1.03822 3.92157 1.05807 3.62434 1.09059 3.36586C1.11775 3.1499 1.16803 2.82113 1.30186 2.55362C1.5678 2.02202 1.99391 1.58639 2.52219 1.31223C2.89761 1.1174 3.31394 1.0557 3.68233 1.02783C4.0505 0.999974 4.49045 0.999987 4.96817 1ZM9 3H7V5H9V3ZM11 5V3C11.5181 3 11.8828 3.00065 12.1668 3.02213C12.3039 3.0325 12.3999 3.04637 12.4675 3.06118C12.5344 3.07581 12.5577 3.08799 12.5566 3.08742C12.6951 3.15934 12.8126 3.27267 12.8921 3.41543C12.8954 3.43203 12.9095 3.49189 12.9251 3.61548C12.9477 3.79564 12.9646 4.03113 12.9764 4.30534C12.9859 4.52762 12.9916 4.76351 12.995 5H11ZM3 7V11C3 11.5281 3.00066 11.8858 3.02164 12.1616C3.04261 12.4372 3.0786 12.5277 3.09052 12.5516C3.16972 12.7099 3.29433 12.8352 3.44341 12.9126C3.44308 12.9124 3.46666 12.9244 3.53246 12.9388C3.60013 12.9536 3.6961 12.9675 3.8332 12.9779C4.11717 12.9994 4.48191 13 5 13H11C11.5181 13 11.8828 12.9994 12.1668 12.9779C12.3039 12.9675 12.3999 12.9536 12.4675 12.9388C12.5344 12.9242 12.5577 12.912 12.5566 12.9126C12.7057 12.8352 12.8303 12.7099 12.9095 12.5516C12.9214 12.5277 12.9574 12.4372 12.9784 12.1616C12.9993 11.8858 13 11.5281 13 11V7H3ZM3.00501 5H5V3C4.48191 3 4.11717 3.00065 3.8332 3.02213C3.6961 3.0325 3.60013 3.04637 3.53246 3.06118C3.46711 3.07548 3.44341 3.08744 3.44341 3.08744C3.30482 3.15936 3.18742 3.27267 3.10794 3.41543C3.10459 3.43203 3.09049 3.49189 3.07495 3.61548C3.05229 3.79564 3.03536 4.03113 3.02361 4.30534C3.01408 4.52762 3.0084 4.76351 3.00501 5Z"/>
</svg>
