<svg width="16" height="16" viewBox="0 0 16 16" xmlns="http://www.w3.org/2000/svg">
<path fill-rule="evenodd" clip-rule="evenodd" d="M4.09842 1C4.11004 1 4.1217 1 4.13338 1L7.90167 1C8.24498 0.999977 8.56029 0.999955 8.82387 1.02149C9.10805 1.04471 9.41895 1.09786 9.72602 1.25432C10.1651 1.47803 10.522 1.83498 10.7457 2.27403C10.9022 2.5811 10.9553 2.892 10.9786 3.17617C11.0001 3.43976 11.0001 3.75508 11 4.0984L11 5H11.2111C11.5775 5 12.0432 5 12.4556 5.01926C12.6636 5.02897 12.8771 5.04434 13.0685 5.07055C13.2248 5.09195 13.4916 5.13489 13.726 5.25432C14.165 5.47803 14.522 5.83498 14.7457 6.27403C14.9021 6.5811 14.9553 6.892 14.9785 7.17617C15.0001 7.43976 15 7.75508 15 8.0984V11.9016C15 12.2449 15.0001 12.5602 14.9785 12.8238C14.9553 13.108 14.9021 13.4189 14.7457 13.726C14.522 14.165 14.165 14.522 13.726 14.7457C13.4189 14.9021 13.108 14.9553 12.8238 14.9785C12.5602 15.0001 12.2449 15 11.9016 15H8.0984C7.75508 15 7.43976 15.0001 7.17617 14.9785C6.892 14.9553 6.5811 14.9021 6.27403 14.7457C5.83498 14.522 5.47803 14.165 5.25432 13.726C5.13489 13.4916 5.09195 13.2249 5.07055 13.0686C5.04434 12.8771 5.02897 12.6637 5.01926 12.4557C5 12.0433 5 11.5776 5 11.2112V11L4.0984 11C3.75508 11 3.43976 11.0001 3.17617 10.9785C2.892 10.9553 2.5811 10.9021 2.27403 10.7457C1.83498 10.522 1.47803 10.165 1.25432 9.72598C1.09786 9.4189 1.04471 9.10801 1.02149 8.82383C0.999955 8.56025 0.999977 8.24494 1 7.90163L1.00005 4.13334C1.00005 4.13333 1.00005 4.13334 1.00005 4.13334C1.00005 4.12166 1.00005 4.11 1.00005 4.09838C1.00002 3.75506 0.999999 3.43976 1.02153 3.17617C1.04475 2.892 1.0979 2.5811 1.25437 2.27403C1.47807 1.83498 1.83502 1.47803 2.27407 1.25432C2.58115 1.09786 2.89204 1.04471 3.17622 1.02149C3.4398 0.999955 3.75511 0.999977 4.09842 1ZM7 11V11.2C7 11.5786 7.00021 12.001 7.01708 12.3624C7.02553 12.5434 7.03741 12.6902 7.05207 12.7973C7.05574 12.8241 7.05913 12.8448 7.06191 12.8602C7.09201 12.9024 7.1317 12.9372 7.17795 12.9616C7.18979 12.9652 7.23396 12.9766 7.33904 12.9852C7.51121 12.9992 7.74347 13 8.13334 13H11.8667C12.2565 13 12.4888 12.9992 12.661 12.9852C12.7661 12.9766 12.8102 12.9652 12.8221 12.9616C12.8816 12.9302 12.9302 12.8816 12.9616 12.8221C12.9652 12.8102 12.9766 12.7661 12.9852 12.661C12.9992 12.4888 13 12.2565 13 11.8667V8.13334C13 7.74347 12.9992 7.51121 12.9852 7.33904C12.9766 7.23396 12.9652 7.18979 12.9616 7.17795C12.9372 7.1317 12.9024 7.09202 12.8602 7.06191C12.8448 7.05914 12.8241 7.05575 12.7973 7.05207C12.6902 7.03741 12.5434 7.02553 12.3623 7.01708C12.0009 7.00021 11.5785 7 11.1998 7H11L11 7.90161C11 8.24493 11.0001 8.56025 10.9785 8.82383C10.9553 9.10801 10.9021 9.4189 10.7457 9.72598C10.522 10.165 10.165 10.522 9.72598 10.7457C9.4189 10.9021 9.10801 10.9553 8.82383 10.9785C8.56025 11.0001 8.24493 11 7.90161 11L7 11ZM9.00002 5.99337C9.00001 5.99558 9 5.99779 9 6C9 6.00221 9.00001 6.00441 9.00002 6.00661L9 7.86666C9 8.25654 8.99923 8.4888 8.98516 8.66097C8.97657 8.76605 8.96524 8.81022 8.96157 8.82205C8.93021 8.88157 8.88157 8.93021 8.82205 8.96157C8.81022 8.96525 8.76605 8.97657 8.66097 8.98516C8.4888 8.99923 8.25654 9 7.86667 9H4.13334C3.74347 9 3.51121 8.99923 3.33904 8.98516C3.23396 8.97657 3.18979 8.96525 3.17795 8.96157C3.11843 8.93021 3.0698 8.88157 3.03843 8.82205C3.03476 8.81022 3.02343 8.76605 3.01485 8.66097C3.00078 8.4888 3 8.25654 3 7.86668C3 7.86668 3 7.86668 3 7.86668L3.00005 4.13335C3.00005 3.74348 3.00083 3.51121 3.01489 3.33904C3.02348 3.23396 3.03481 3.18979 3.03848 3.17795C3.06984 3.11843 3.11848 3.06979 3.178 3.03843C3.18983 3.03476 3.234 3.02343 3.33908 3.01485C3.51125 3.00078 3.74351 3 4.13338 3H7.86671C8.25658 3 8.48884 3.00078 8.66101 3.01485C8.76609 3.02343 8.81026 3.03476 8.8221 3.03843C8.88162 3.06979 8.93025 3.11843 8.96161 3.17795C8.96529 3.18979 8.97662 3.23396 8.9852 3.33904C8.99927 3.51121 9.00005 3.74347 9.00005 4.13334L9.00002 5.99337ZM8.96041 3.1745C8.96042 3.17446 8.96068 3.17509 8.96114 3.17648ZM8.82555 3.03964C8.82551 3.03965 8.8248 3.03942 8.82353 3.03889ZM3.17455 3.03964C3.17451 3.03963 3.17514 3.03936 3.17657 3.03889ZM3.03968 3.1745C3.0397 3.17454 3.03946 3.17525 3.03894 3.17652ZM3.03964 8.8255C3.03963 8.82554 3.03937 8.82492 3.03891 8.82352ZM3.1745 8.96037C3.17454 8.96035 3.17525 8.96059 3.17652 8.96111ZM8.8255 8.96037C8.82554 8.96038 8.82492 8.96064 8.82352 8.9611ZM8.96037 8.8255C8.96035 8.82546 8.96059 8.82477 8.9611 8.82352ZM12.9604 7.1745C12.9604 7.17446 12.9606 7.17509 12.9611 7.17649ZM12.9604 12.8255C12.9604 12.8255 12.9606 12.8248 12.9611 12.8235ZM12.8255 12.9604C12.8255 12.9604 12.8249 12.9606 12.8235 12.9611ZM7.1745 12.9604C7.17454 12.9604 7.17524 12.9606 7.17648 12.9611Z"/>
</svg>
