<svg width="16" height="16" viewBox="0 0 16 16" xmlns="http://www.w3.org/2000/svg">
<path d="M1 5C1 4.44772 1.44772 4 2 4H14C14.5523 4 15 4.44772 15 5C15 5.55228 14.5523 6 14 6H2C1.44772 6 1 5.55228 1 5Z"/>
<path d="M5 2C5 1.44772 5.44772 1 6 1H10C10.5523 1 11 1.44772 11 2C11 2.55228 10.5523 3 10 3H6C5.44772 3 5 2.55228 5 2Z"/>
<path fill-rule="evenodd" clip-rule="evenodd" d="M3 6H13V12C13 13.6569 11.6569 15 10 15H6C4.34315 15 3 13.6569 3 12V6ZM5 6V12C5 12.5523 5.44772 13 6 13H10C10.5523 13 11 12.5523 11 12V6H5Z"/>
</svg>
