<svg width="16" height="16" viewBox="0 0 16 16" fill="none" xmlns="http://www.w3.org/2000/svg">
<path fill-rule="evenodd" clip-rule="evenodd" d="M5.999 6.999C5.44671 6.999 4.999 6.55128 4.999 5.999V5.999C4.999 5.44672 5.44672 4.999 5.999 4.999H13C13.5523 4.999 14 5.44672 14 5.999V5.999C14 6.55128 13.5523 6.999 13 6.999H5.999ZM2 2.9995C2 2.44749 2.44749 2 2.9995 2V2C3.55151 2 3.999 2.44749 3.999 2.9995V13.0005C3.999 13.5525 3.55151 14 2.9995 14V14C2.44749 14 2 13.5525 2 13.0005V2.9995ZM10 10C10 10.5523 9.55228 11 9 11H5.999C5.44671 11 4.999 10.5523 4.999 10V10C4.999 9.44772 5.44672 9 5.999 9H9C9.55229 9 10 9.44772 10 10V10Z" fill="black"/>
</svg>
