<svg width="16" height="16" viewBox="0 0 16 16" xmlns="http://www.w3.org/2000/svg">
<path fill-rule="evenodd" clip-rule="evenodd" d="M8.21367 3.16435C9.76614 1.61188 12.2832 1.61188 13.8356 3.16435C15.3881 4.71682 15.3881 7.23386 13.8356 8.78633L12.9941 9.62788C12.6036 10.0184 11.9704 10.0184 11.5799 9.62788C11.1894 9.23736 11.1894 8.60419 11.5799 8.21367L12.4214 7.37212C13.1929 6.6007 13.1929 5.34998 12.4214 4.57856C11.65 3.80715 10.3993 3.80715 9.62788 4.57856L8.78633 5.42012C8.39581 5.81064 7.76264 5.81064 7.37212 5.42012C6.98159 5.02959 6.98159 4.39643 7.37212 4.0059L8.21367 3.16435ZM11.2898 5.71014C11.6804 6.10067 11.6804 6.73383 11.2898 7.12436L7.12437 11.2898C6.73384 11.6804 6.10068 11.6804 5.71016 11.2898C5.31963 10.8993 5.31963 10.2661 5.71016 9.87562L9.87563 5.71014C10.2662 5.31962 10.8993 5.31962 11.2898 5.71014ZM5.42012 7.37212C5.81064 7.76264 5.81064 8.39581 5.42012 8.78633L4.57856 9.62788C3.80715 10.3993 3.80715 11.65 4.57856 12.4214C5.34998 13.1929 6.6007 13.1929 7.37212 12.4214L8.21367 11.5799C8.60419 11.1894 9.23736 11.1894 9.62788 11.5799C10.0184 11.9704 10.0184 12.6036 9.62788 12.9941L8.78633 13.8356C7.23386 15.3881 4.71682 15.3881 3.16435 13.8356C1.61188 12.2832 1.61188 9.76614 3.16435 8.21367L4.0059 7.37212C4.39643 6.98159 5.02959 6.98159 5.42012 7.37212Z"/>
</svg>
