<svg width="16" height="16" viewBox="0 0 16 16" xmlns="http://www.w3.org/2000/svg">
<path d="M8 2.99999C8 2.44771 7.55228 1.99999 7 1.99999H4C2.34315 1.99999 1 3.34314 1 4.99999V11C1 12.6568 2.34315 14 4 14H12C13.6569 14 15 12.6568 15 11V8.99999C15 8.44771 14.5523 7.99999 14 7.99999C13.4477 7.99999 13 8.44771 13 8.99999V11C13 11.5523 12.5523 12 12 12H4C3.44772 12 3 11.5523 3 11V4.99999C3 4.44771 3.44772 3.99999 4 3.99999H7C7.55228 3.99999 8 3.55228 8 2.99999Z"/>
<path d="M6 6.99999C5.44772 6.99999 5 7.44771 5 7.99999C5 8.55228 5.44772 8.99999 6 8.99999H10C10.5523 8.99999 11 8.55228 11 7.99999C11 7.44771 10.5523 6.99999 10 6.99999H6Z"/>
<path fill-rule="evenodd" clip-rule="evenodd" d="M12 1C12.5523 1 13 1.44772 13 2V3H14C14.5523 3 15 3.44772 15 4C15 4.55228 14.5523 5 14 5H13V5.99999C13 6.55228 12.5523 6.99999 12 6.99999C11.4477 6.99999 11 6.55228 11 5.99999V5H10C9.44772 5 9 4.55228 9 4C9 3.44772 9.44772 3 10 3H11V2C11 1.44772 11.4477 1 12 1Z"/>
</svg>
