<svg width="16" height="16" viewBox="0 0 16 16" xmlns="http://www.w3.org/2000/svg">
<path fill-rule="evenodd" clip-rule="evenodd" d="M4.08333 3C4.08333 2.44772 4.53105 2 5.08333 2H10.9167C11.469 2 11.9167 2.44772 11.9167 3C11.9167 3.55228 11.469 4 10.9167 4H9V10C9 10.5523 8.55228 11 8 11C7.44772 11 7 10.5523 7 10V4H5.08333C4.53105 4 4.08333 3.55228 4.08333 3ZM4.45711 10.5429C4.84763 10.9334 4.84763 11.5666 4.45711 11.9571L4.41421 12H11.5858L11.5429 11.9571C11.1524 11.5666 11.1524 10.9334 11.5429 10.5429C11.9334 10.1524 12.5666 10.1524 12.9571 10.5429L14.7071 12.2929C15.0976 12.6834 15.0976 13.3166 14.7071 13.7071L12.9571 15.4571C12.5666 15.8476 11.9334 15.8476 11.5429 15.4571C11.1524 15.0666 11.1524 14.4334 11.5429 14.0429L11.5858 14H4.41421L4.45711 14.0429C4.84763 14.4334 4.84763 15.0666 4.45711 15.4571C4.06658 15.8476 3.43342 15.8476 3.04289 15.4571L1.29289 13.7071C0.902369 13.3166 0.902369 12.6834 1.29289 12.2929L3.04289 10.5429C3.43342 10.1524 4.06658 10.1524 4.45711 10.5429Z"/>
</svg>
