<svg width="16" height="16" viewBox="0 0 16 16" xmlns="http://www.w3.org/2000/svg">
<path fill-rule="evenodd" clip-rule="evenodd" d="M2.21554 3.56691e-06C2.2252 5.35505e-06 2.23484 7.14319e-06 2.24445 7.14319e-06H4.75556C4.76518 7.14319e-06 4.77482 5.35505e-06 4.78447 3.56691e-06C4.97696 -3.18383e-05 5.17657 -6.85547e-05 5.34784 0.0139248C5.53937 0.029574 5.78167 0.0675863 6.02932 0.193773C6.36383 0.364214 6.6358 0.636179 6.80624 0.970691C6.93243 1.21835 6.97044 1.46064 6.98609 1.65218C7.00008 1.82345 7.00005 2.02306 7.00001 2.21554C7.00001 2.2252 7.00001 2.23484 7.00001 2.24445V4.75556C7.00001 4.76518 7.00001 4.77482 7.00001 4.78447C7.00005 4.97696 7.00008 5.17657 6.98609 5.34784C6.97044 5.53937 6.93243 5.78167 6.80624 6.02932C6.6358 6.36383 6.36383 6.6358 6.02932 6.80624C5.78167 6.93243 5.53937 6.97044 5.34784 6.98609C5.17657 7.00008 4.97696 7.00005 4.78447 7.00001C4.77482 7.00001 4.76518 7.00001 4.75556 7.00001H2.24445C2.23484 7.00001 2.2252 7.00001 2.21554 7.00001C2.02306 7.00005 1.82345 7.00008 1.65218 6.98609C1.46064 6.97044 1.21835 6.93243 0.970691 6.80624C0.636179 6.6358 0.364214 6.36383 0.193773 6.02932C0.0675863 5.78167 0.029574 5.53937 0.0139248 5.34784C-6.85547e-05 5.17657 -3.18383e-05 4.97696 3.56691e-06 4.78447C5.35505e-06 4.77482 7.14319e-06 4.76518 7.14319e-06 4.75556V2.24445C7.14319e-06 2.23484 5.35505e-06 2.2252 3.56691e-06 2.21554C-3.18383e-05 2.02306 -6.85547e-05 1.82345 0.0139248 1.65218C0.029574 1.46064 0.0675864 1.21835 0.193773 0.970691C0.364215 0.63618 0.63618 0.364215 0.970691 0.193773C1.21835 0.0675864 1.46064 0.029574 1.65218 0.0139248C1.82345 -6.85547e-05 2.02306 -3.18383e-05 2.21554 3.56691e-06ZM2.00081 2.00081C2.00003 2.06895 2.00001 2.14739 2.00001 2.24445V4.75556C2.00001 4.85262 2.00003 4.93107 2.00081 4.9992C2.06895 4.99999 2.14739 5.00001 2.24445 5.00001H4.75556C4.85262 5.00001 4.93107 4.99999 4.9992 4.9992C4.99999 4.93107 5.00001 4.85262 5.00001 4.75556V2.24445C5.00001 2.14739 4.99999 2.06895 4.9992 2.00081C4.93107 2.00003 4.85262 2.00001 4.75556 2.00001H2.24445C2.14739 2.00001 2.06895 2.00003 2.00081 2.00081ZM11.2155 3.56691e-06H13.7845C13.977 -3.18383e-05 14.1766 -6.85547e-05 14.3478 0.0139248C14.5394 0.029574 14.7817 0.0675863 15.0293 0.193773C15.3638 0.364215 15.6358 0.636182 15.8062 0.970691C15.9324 1.21835 15.9704 1.46064 15.9861 1.65218C16.0001 1.82345 16 2.02307 16 2.21556V4.78446C16 4.97695 16.0001 5.17656 15.9861 5.34784C15.9704 5.53937 15.9324 5.78167 15.8062 6.02932C15.6358 6.36383 15.3638 6.6358 15.0293 6.80624C14.7817 6.93243 14.5394 6.97044 14.3478 6.98609C14.1766 7.00008 13.977 7.00005 13.7845 7.00001L11.2445 7.00001C11.2348 7.00001 11.2252 7.00001 11.2155 7.00001C11.0231 7.00005 10.8234 7.00008 10.6522 6.98609C10.4606 6.97044 10.2183 6.93243 9.97069 6.80624C9.63618 6.6358 9.36421 6.36383 9.19377 6.02932C9.06759 5.78167 9.02957 5.53937 9.01392 5.34784C8.99993 5.17657 8.99997 4.97696 9 4.78447C9 4.77482 9.00001 4.76518 9.00001 4.75556V2.24445C9.00001 2.23484 9 2.2252 9 2.21554C8.99997 2.02306 8.99993 1.82345 9.01392 1.65218C9.02957 1.46064 9.06759 1.21835 9.19377 0.970691C9.36421 0.636181 9.63618 0.364215 9.97069 0.193773C10.2183 0.0675863 10.4606 0.029574 10.6522 0.0139248C10.8234 -6.85547e-05 11.0231 -3.18383e-05 11.2155 3.56691e-06ZM11.0008 2.00081C11 2.06895 11 2.14739 11 2.24445V4.75556C11 4.85262 11 4.93107 11.0008 4.9992C11.0689 4.99999 11.1474 5.00001 11.2445 5.00001H13.7556C13.8526 5.00001 13.9311 4.99999 13.9992 4.9992C14 4.93107 14 4.85262 14 4.75556V2.24445C14 2.14739 14 2.06895 13.9992 2.00081C13.9311 2.00003 13.8526 2.00001 13.7556 2.00001H11.2445C11.1474 2.00001 11.0689 2.00003 11.0008 2.00081ZM2.21554 8.89546C2.2252 8.89546 2.23484 8.89546 2.24445 8.89546H4.86011C4.86972 8.89546 4.87936 8.89546 4.88901 8.89546C5.0815 8.89542 5.28111 8.89539 5.45238 8.90938C5.64392 8.92503 5.88621 8.96304 6.13387 9.08923C6.46837 9.25967 6.74034 9.53163 6.91078 9.86615C7.03697 10.1138 7.07498 10.3561 7.09063 10.5476C7.10463 10.7189 7.10459 10.9185 7.10455 11.111C7.10455 11.1207 7.10455 11.1303 7.10455 11.1399L7.10455 13.7845C7.10459 13.977 7.10463 14.1766 7.09063 14.3478C7.07498 14.5394 7.03697 14.7817 6.91078 15.0293C6.74034 15.3638 6.46837 15.6358 6.13387 15.8062C5.88621 15.9324 5.64392 15.9704 5.45238 15.9861C5.2811 16.0001 5.08149 16 4.889 16H2.21556C2.02307 16 1.82345 16.0001 1.65218 15.9861C1.46064 15.9704 1.21835 15.9324 0.970691 15.8062C0.636182 15.6358 0.364215 15.3638 0.193773 15.0293C0.0675863 14.7817 0.029574 14.5394 0.0139248 14.3478C-6.85547e-05 14.1766 -3.18383e-05 13.977 3.56691e-06 13.7845V11.111C-3.18383e-05 10.9185 -6.85547e-05 10.7189 0.0139248 10.5476C0.029574 10.3561 0.0675863 10.1138 0.193773 9.86615C0.364215 9.53164 0.636181 9.25967 0.970691 9.08923C1.21835 8.96304 1.46064 8.92503 1.65218 8.90938C1.82345 8.89539 2.02306 8.89542 2.21554 8.89546ZM2.00081 10.8963C2.00003 10.9644 2.00001 11.0428 2.00001 11.1399V13.7556C2.00001 13.8526 2.00003 13.9311 2.00081 13.9992C2.06895 14 2.14739 14 2.24445 14H4.86011C4.95717 14 5.03561 14 5.10374 13.9992C5.10453 13.9311 5.10455 13.8526 5.10455 13.7556V11.1399C5.10455 11.0428 5.10453 10.9644 5.10374 10.8963C5.03561 10.8955 4.95717 10.8955 4.86011 10.8955H2.24445C2.14739 10.8955 2.06895 10.8955 2.00081 10.8963ZM11.1958 8.89546C11.2054 8.89546 11.2151 8.89546 11.2247 8.89546L13.7845 8.89546C13.977 8.89542 14.1766 8.89539 14.3478 8.90938C14.5394 8.92503 14.7817 8.96304 15.0293 9.08923C15.3638 9.25967 15.6358 9.53164 15.8062 9.86615C15.9324 10.1138 15.9704 10.3561 15.9861 10.5476C16.0001 10.7189 16 10.9185 16 11.111V13.7845C16 13.9769 16.0001 14.1766 15.9861 14.3478C15.9704 14.5394 15.9324 14.7817 15.8062 15.0293C15.6358 15.3638 15.3638 15.6358 15.0293 15.8062C14.7817 15.9324 14.5394 15.9704 14.3478 15.9861C14.1766 16.0001 13.9769 16 13.7845 16H11.1958C11.0033 16 10.8037 16.0001 10.6324 15.9861C10.4409 15.9704 10.1986 15.9324 9.95092 15.8062C9.61641 15.6358 9.34444 15.3638 9.174 15.0293C9.04782 14.7817 9.0098 14.5394 8.99415 14.3478C8.98016 14.1766 8.9802 13.977 8.98023 13.7845L8.98024 11.1399C8.98024 11.1303 8.98023 11.1207 8.98023 11.111C8.9802 10.9185 8.98016 10.7189 8.99415 10.5476C9.0098 10.3561 9.04782 10.1138 9.174 9.86615C9.34444 9.53164 9.61641 9.25967 9.95092 9.08923C10.1986 8.96304 10.4409 8.92503 10.6324 8.90938C10.8037 8.89539 11.0033 8.89542 11.1958 8.89546ZM10.981 10.8963C10.9803 10.9644 10.9802 11.0428 10.9802 11.1399V13.7556C10.9802 13.8526 10.9803 13.9311 10.981 13.9992C11.0492 14 11.1276 14 11.2247 14H13.7556C13.8526 14 13.9311 14 13.9992 13.9992C14 13.9311 14 13.8526 14 13.7556V11.1399C14 11.0428 14 10.9644 13.9992 10.8963C13.9311 10.8955 13.8526 10.8955 13.7556 10.8955H11.2247C11.1276 10.8955 11.0492 10.8955 10.981 10.8963Z"/>
</svg>
