<svg width="16" height="16" viewBox="0 0 16 16" xmlns="http://www.w3.org/2000/svg">
<path d="M12 6C12.5523 6 13 6.44771 13 7L13 13C13 13.5523 12.5523 14 12 14C11.4477 14 11 13.5523 11 13L11 7C11 6.44772 11.4477 6 12 6Z"/>
<path fill-rule="evenodd" clip-rule="evenodd" d="M6 1C7.10457 1 8 1.89543 8 3L8 13C8 14.1046 7.10457 15 6 15L3 15C1.89543 15 1 14.1046 1 13L1 3C1 1.89543 1.89543 1 3 1L6 1ZM6 13L6 3L3 3L3 13L6 13Z"/>
<path d="M11.5963 4.81262C11.8192 5.06246 12.1808 5.06246 12.4037 4.81262L14.8316 2.09212C15.1913 1.6891 14.9366 1 14.4279 1L9.57209 1C9.06343 1 8.8087 1.6891 9.16837 2.09212L11.5963 4.81262Z"/>
</svg>
