<svg width="16" height="16" viewBox="0 0 16 16" xmlns="http://www.w3.org/2000/svg">
<path fill-rule="evenodd" clip-rule="evenodd" d="M1 4C1 2.34315 2.34315 1 4 1H12C13.6569 1 15 2.34315 15 4V5.4C15 5.96005 15 6.24008 14.891 6.45399C14.7951 6.64215 14.6422 6.79513 14.454 6.89101C14.2401 7 13.9601 7 13.4 7H3V9H5C5.55228 9 6 9.44772 6 10V10C6 10.5523 5.55228 11 5 11H3V12C3 12.5523 3.44772 13 4 13H5C5.55228 13 6 13.4477 6 14V14C6 14.5523 5.55228 15 5 15H4C2.34315 15 1 13.6569 1 12V4ZM4 3C3.44772 3 3 3.44772 3 4V5H13V4C13 3.44772 12.5523 3 12 3H4Z"/>
<path d="M14.7071 10.7071C15.0976 10.3166 15.0976 9.68342 14.7071 9.29289C14.3166 8.90237 13.6834 8.90237 13.2929 9.29289L10 12.5858L8.70711 11.2929C8.31658 10.9024 7.68342 10.9024 7.29289 11.2929C6.90237 11.6834 6.90237 12.3166 7.29289 12.7071L9.29289 14.7071C9.68342 15.0976 10.3166 15.0976 10.7071 14.7071L14.7071 10.7071Z"/>
</svg>
