<svg width="16" height="16" viewBox="0 0 16 16" fill="none" xmlns="http://www.w3.org/2000/svg">
<path d="M0 8C0 6.89543 0.895431 6 2 6V6C3.10457 6 4 6.89543 4 8V8C4 9.10457 3.10457 10 2 10V10C0.895431 10 0 9.10457 0 8V8Z" fill="#000"/>
<path d="M6 8C6 6.89543 6.89543 6 8 6V6C9.10457 6 10 6.89543 10 8V8C10 9.10457 9.10457 10 8 10V10C6.89543 10 6 9.10457 6 8V8Z" fill="#000"/>
<path d="M16 8C16 6.89543 15.1046 6 14 6V6C12.8954 6 12 6.89543 12 8V8C12 9.10457 12.8954 10 14 10V10C15.1046 10 16 9.10457 16 8V8Z" fill="#000"/>
</svg>
