<svg width="16" height="16" viewBox="0 0 16 16" fill="none" xmlns="http://www.w3.org/2000/svg">
<g clip-path="url(#clip0_9379_65)">
<path fill-rule="evenodd" clip-rule="evenodd" d="M8.00016 2C8.55245 2 9.00016 2.44772 9.00016 3V13C9.00016 13.5523 8.55245 14 8.00016 14C7.44788 14 7.00016 13.5523 7.00016 13V3C7.00016 2.44772 7.44788 2 8.00016 2ZM1.62623 4.62623C2.01675 4.2357 2.64992 4.2357 3.04044 4.62623L5.70711 7.29289C6.09763 7.68342 6.09763 8.31658 5.70711 8.70711L3.04044 11.3738C2.64992 11.7643 2.01675 11.7643 1.62623 11.3738C1.2357 10.9832 1.2357 10.3501 1.62623 9.95956L2.58579 9H1C0.447715 9 0 8.55228 0 8C0 7.44772 0.447715 7 1 7H2.58579L1.62623 6.04044C1.2357 5.64992 1.2357 5.01675 1.62623 4.62623ZM14.3738 4.62623C14.7643 5.01675 14.7643 5.64992 14.3738 6.04044L13.4142 7H15C15.5523 7 16 7.44772 16 8C16 8.55228 15.5523 9 15 9H13.4142L14.3738 9.95956C14.7643 10.3501 14.7643 10.9832 14.3738 11.3738C13.9832 11.7643 13.3501 11.7643 12.9596 11.3738L10.2929 8.70711C10.1054 8.51957 10 8.26522 10 8C10 7.73478 10.1054 7.48043 10.2929 7.29289L12.9596 4.62623C13.3501 4.2357 13.9832 4.2357 14.3738 4.62623Z" fill="black"/>
</g>
</svg>
