<svg width="16" height="16" viewBox="0 0 16 16" xmlns="http://www.w3.org/2000/svg">
<path d="M6 4C6 3.44772 6.44771 3 7 3H13C13.5523 3 14 3.44772 14 4C14 4.55228 13.5523 5 13 5H7C6.44772 5 6 4.55228 6 4Z"/>
<path fill-rule="evenodd" clip-rule="evenodd" d="M1 10C1 8.89543 1.89543 8 3 8H13C14.1046 8 15 8.89543 15 10V13C15 14.1046 14.1046 15 13 15H3C1.89543 15 1 14.1046 1 13V10ZM13 10H3L3 13H13V10Z"/>
<path d="M4.81262 4.40372C5.06246 4.18075 5.06246 3.81925 4.81262 3.59628L2.09212 1.16837C1.6891 0.808695 1 1.06343 1 1.57209L1 6.42791C1 6.93657 1.6891 7.1913 2.09212 6.83163L4.81262 4.40372Z"/>
</svg>
