<svg width="16" height="16" viewBox="0 0 16 16" fill="none" xmlns="http://www.w3.org/2000/svg">
<path fill-rule="evenodd" clip-rule="evenodd" d="M4.36952 3H5.6305C6.02449 2.99999 6.36737 2.99998 6.65043 3.01848C6.94736 3.03789 7.25468 3.08094 7.55846 3.20477C8.00497 3.38678 8.40986 3.69391 8.67997 4.11801C8.87726 4.42777 8.94551 4.74743 8.9744 5.03024C9.00011 5.28198 9.00006 5.57879 9.00001 5.88081C9.00001 5.89387 9.00001 5.90693 9.00001 5.92V10.08C9.00001 10.0931 9.00001 10.1061 9.00001 10.1192C9.00006 10.4212 9.00011 10.718 8.9744 10.9698C8.94551 11.2526 8.87726 11.5722 8.67997 11.882C8.40986 12.3061 8.00497 12.6132 7.55846 12.7952C7.25467 12.9191 6.94736 12.9621 6.65043 12.9815C6.36738 13 6.02451 13 5.63054 13H4.36948C3.9755 13 3.63264 13 3.34959 12.9815C3.05265 12.9621 2.74534 12.9191 2.44156 12.7952C1.99505 12.6132 1.59016 12.3061 1.32004 11.882C1.12276 11.5722 1.0545 11.2526 1.02562 10.9698C0.999909 10.718 0.999956 10.4212 1 10.1192C1.00001 10.1061 1.00001 10.0931 1.00001 10.08V5.92C1.00001 5.90693 1.00001 5.89387 1 5.88082C0.999956 5.5788 0.999909 5.28199 1.02562 5.03024C1.0545 4.74743 1.12276 4.42777 1.32004 4.11801C1.59016 3.69391 1.99505 3.38678 2.44156 3.20477C2.74534 3.08094 3.05265 3.03789 3.34959 3.01848C3.63265 2.99998 3.97553 2.99999 4.36952 3ZM3.48003 5.01422C3.27671 5.02751 3.21357 5.04985 3.19649 5.05682C3.10401 5.09451 3.05081 5.13954 3.0237 5.17048C3.02129 5.18398 3.01824 5.20441 3.01527 5.23344C3.00122 5.37103 3.00001 5.5634 3.00001 5.92V10.08C3.00001 10.4366 3.00122 10.629 3.01527 10.7666C3.01824 10.7956 3.02129 10.816 3.0237 10.8295C3.05081 10.8605 3.10401 10.9055 3.19649 10.9432C3.21357 10.9501 3.27671 10.9725 3.48003 10.9858C3.68995 10.9995 3.96674 11 4.40001 11H5.60001C6.03327 11 6.31006 10.9995 6.51998 10.9858C6.7233 10.9725 6.78645 10.9501 6.80353 10.9432C6.89601 10.9055 6.9492 10.8605 6.97631 10.8295C6.97872 10.816 6.98178 10.7956 6.98475 10.7666C6.9988 10.629 7.00001 10.4366 7.00001 10.08V5.92C7.00001 5.5634 6.9988 5.37103 6.98475 5.23344C6.98178 5.20441 6.97872 5.18398 6.97631 5.17048C6.9492 5.13954 6.89601 5.09451 6.80353 5.05682C6.78645 5.04985 6.7233 5.02751 6.51998 5.01422C6.31006 5.0005 6.03327 5 5.60001 5H4.40001C3.96674 5 3.68995 5.0005 3.48003 5.01422Z" fill="black"/>
<path fill-rule="evenodd" clip-rule="evenodd" d="M15 3.99994C15 4.55222 14.5523 4.99994 14 4.99994H13.4C12.4816 4.99994 12.2508 5.01105 12.1081 5.05414L11.819 4.09682L12.1081 5.05414C12.0664 5.06673 12.0315 5.08011 12.003 5.09294C12.0027 5.10115 12.0024 5.10983 12.0022 5.11901C12.0001 5.19935 12 5.29385 12 5.42216V10.5777C12 10.706 12.0001 10.8005 12.0022 10.8809C12.0024 10.8901 12.0027 10.8987 12.003 10.9069C12.0315 10.9198 12.0664 10.9332 12.1081 10.9457L11.8399 11.834L12.1081 10.9457C12.2508 10.9888 12.4816 10.9999 13.4 10.9999H14C14.5523 10.9999 15 11.4477 15 11.9999C15 12.5522 14.5523 12.9999 14 12.9999H13.4C13.3504 12.9999 13.3015 13 13.2532 13C12.5594 13.0007 11.9965 13.0012 11.53 12.8604C11.1252 12.7382 10.7085 12.5192 10.4052 12.1666L11.1635 11.5146L10.4052 12.1666C10.1602 11.8815 10.0673 11.5697 10.0298 11.2981C9.99972 11.0799 9.99986 10.8307 9.99998 10.6177C9.99999 10.6042 10 10.5909 10 10.5777V5.42216C10 5.409 9.99999 5.39568 9.99998 5.38221C9.99986 5.16919 9.99972 4.92001 10.0298 4.70176C10.0673 4.43016 10.1602 4.11834 10.4052 3.83332C10.7084 3.48068 11.1252 3.26171 11.53 3.13951C11.9965 2.99864 12.5594 2.99918 13.2532 2.99985C13.3015 2.99989 13.3504 2.99994 13.4 2.99994H14C14.5523 2.99994 15 3.44765 15 3.99994Z" fill="black"/>
</svg>
