<svg width="16" height="16" viewBox="0 0 16 16" fill="none" xmlns="http://www.w3.org/2000/svg">
<path fill-rule="evenodd" clip-rule="evenodd" d="M3 4C2.44772 4 2 3.55228 2 3V3C2 2.44772 2.44772 2 3 2H13.1176C13.6699 2 14.1176 2.44772 14.1176 3V3C14.1176 3.55228 13.6699 4 13.1176 4H3ZM7 13C7 13.5523 6.55228 14 6 14V14C5.44772 14 5 13.5523 5 13V6C5 5.44772 5.44772 5 6 5V5C6.55228 5 7 5.44772 7 6V13ZM11 9C11 9.55228 10.5523 10 10 10V10C9.44772 10 9 9.55228 9 9V6C9 5.44772 9.44772 5 10 5V5C10.5523 5 11 5.44772 11 6V9Z" fill="black"/>
</svg>
