<svg width="16" height="16" viewBox="0 0 16 16" fill="none" xmlns="http://www.w3.org/2000/svg">
<path fill-rule="evenodd" clip-rule="evenodd" d="M8.999 6.999V9H11C11.5523 9 12 9.44772 12 10V10C12 10.5523 11.5523 11 11 11H8.999V13.0005C8.999 13.5525 8.55151 14 7.9995 14V14C7.44749 14 7 13.5525 7 13.0005V11H4.999C4.44672 11 3.999 10.5523 3.999 10V10C3.999 9.44772 4.44672 9 4.999 9H7V6.999H3C2.44772 6.999 2 6.55128 2 5.999V5.999C2 5.44672 2.44772 4.999 3 4.999H7V2.9995C7 2.44749 7.44749 2 7.9995 2V2C8.55151 2 8.999 2.44749 8.999 2.9995V4.999H13C13.5523 4.999 14 5.44672 14 5.999V5.999C14 6.55128 13.5523 6.999 13 6.999H8.999Z" fill="black"/>
</svg>
