<svg width="16" height="16" viewBox="0 0 16 16" xmlns="http://www.w3.org/2000/svg">
<path d="M5.14555 8.77676C5.61815 8.35499 5.61815 7.64502 5.14555 7.22324L2.42504 4.79533C2.06641 4.47526 1.59232 4.43857 1.22156 4.57562C0.850291 4.71287 0.5 5.06185 0.5 5.57209L0.5 10.4279C0.500001 10.9382 0.85029 11.2871 1.22156 11.4244C1.59232 11.5614 2.06641 11.5247 2.42504 11.2047L5.14555 8.77676Z" stroke="white"/>
<rect width="2" height="9" rx="1" transform="matrix(1.12401e-07 1 1 -1.5299e-07 6 7)"/>
<rect opacity="0.3" width="2" height="11" rx="1" transform="matrix(1.12401e-07 1 1 -1.5299e-07 4 3)"/>
<rect opacity="0.3" width="2" height="11" rx="1" transform="matrix(1.12401e-07 1 1 -1.5299e-07 4 11)"/>
</svg>
