<svg width="16" height="16" viewBox="0 0 16 16" fill="none" xmlns="http://www.w3.org/2000/svg">
<path fill-rule="evenodd" clip-rule="evenodd" d="M2 2C2.55228 2 3 2.44772 3 3V13C3 13.5523 2.55228 14 2 14C1.44772 14 1 13.5523 1 13V3C1 2.44772 1.44772 2 2 2ZM14 2C14.5523 2 15 2.44772 15 3V13C15 13.5523 14.5523 14 14 14C13.4477 14 13 13.5523 13 13V3C13 2.44772 13.4477 2 14 2ZM5 5C5.55228 5 6 5.44772 6 6V7H10V6C10 5.44772 10.4477 5 11 5C11.5523 5 12 5.44772 12 6L12 10C12 10.5523 11.5523 11 11 11C10.4477 11 10 10.5523 10 10V9H6V10C6 10.5523 5.55229 11 5 11C4.44772 11 4 10.5523 4 10L4 8.0007C4 8.00047 4 8.00093 4 8.0007C4 8.00047 4 7.99953 4 7.9993L4 6C4 5.44772 4.44772 5 5 5Z" fill="black"/>
</svg>
