<svg width="16" height="16" viewBox="0 0 16 16" fill="none" xmlns="http://www.w3.org/2000/svg">
<path fill-rule="evenodd" clip-rule="evenodd" d="M3 14C2.44772 14 2 13.5523 2 13V13C2 12.4477 2.44772 12 3 12H13C13.5523 12 14 12.4477 14 13V13C14 13.5523 13.5523 14 13 14H3ZM9 5.999C9 5.44671 9.44772 4.999 10 4.999V4.999C10.5523 4.999 11 5.44672 11 5.999V10C11 10.5523 10.5523 11 10 11V11C9.44772 11 9 10.5523 9 10V5.999ZM4.999 3C4.999 2.44772 5.44672 2 5.999 2V2C6.55128 2 6.999 2.44772 6.999 3V10C6.999 10.5523 6.55128 11 5.999 11V11C5.44672 11 4.999 10.5523 4.999 10V3Z" fill="black"/>
</svg>
