<svg width="16" height="16" viewBox="0 0 16 16" xmlns="http://www.w3.org/2000/svg">
<g clip-path="url(#clip0_6999_80)">
<path fill-rule="evenodd" clip-rule="evenodd" d="M8 0C8.55228 0 9 0.447715 9 1V1.7C9 2.25228 8.55228 2.7 8 2.7C7.44772 2.7 7 2.25228 7 1.7V1C7 0.447715 7.44772 0 8 0ZM2.32282 2.32282C2.71335 1.9323 3.34651 1.9323 3.73704 2.32282L4.15711 2.74289C4.54763 3.13342 4.54763 3.76658 4.15711 4.15711C3.76658 4.54763 3.13342 4.54763 2.74289 4.15711L2.32282 3.73704C1.9323 3.34651 1.9323 2.71335 2.32282 2.32282ZM13.6774 2.32291C14.0678 2.71349 14.0678 3.34665 13.6772 3.73713L13.257 4.1572C12.8664 4.54767 12.2333 4.54759 11.8428 4.15702C11.4523 3.76644 11.4524 3.13328 11.843 2.7428L12.2632 2.32274C12.6537 1.93226 13.2869 1.93234 13.6774 2.32291ZM8 4.8C6.23269 4.8 4.8 6.23269 4.8 8C4.8 9.76731 6.23269 11.2 8 11.2C9.76731 11.2 11.2 9.76731 11.2 8C11.2 6.23269 9.76731 4.8 8 4.8ZM2.8 8C2.8 5.12812 5.12812 2.8 8 2.8C10.8719 2.8 13.2 5.12812 13.2 8C13.2 10.0062 12.0639 11.747 10.4 12.6142V13.6C10.4 14.9255 9.32548 16 8 16C6.67452 16 5.6 14.9255 5.6 13.6V12.6142C3.93609 11.747 2.8 10.0062 2.8 8ZM7.6 13.1848V13.6C7.6 13.8209 7.77909 14 8 14C8.22091 14 8.4 13.8209 8.4 13.6V13.1848C8.26798 13.1949 8.13459 13.2 8 13.2C7.86541 13.2 7.73202 13.1949 7.6 13.1848ZM0 8C0 7.44772 0.447715 7 1 7H1.7C2.25228 7 2.7 7.44772 2.7 8C2.7 8.55228 2.25228 9 1.7 9H1C0.447715 9 0 8.55228 0 8ZM13.3 8C13.3 7.44772 13.7477 7 14.3 7H15C15.5523 7 16 7.44772 16 8C16 8.55228 15.5523 9 15 9H14.3C13.7477 9 13.3 8.55228 13.3 8Z"/>
</g>
<defs>
<clipPath id="clip0_6999_80">
<rect width="16" height="16"/>
</clipPath>
</defs>
</svg>
