<svg width="16" height="16" viewBox="0 0 16 16" xmlns="http://www.w3.org/2000/svg">
<path fill-rule="evenodd" clip-rule="evenodd" d="M11.0599 1.6234C11.9848 0.768632 13.4206 0.796113 14.312 1.68585C15.2044 2.57654 15.2322 4.01275 14.3746 4.93715L9.32173 10.3837C9.3185 10.3872 9.31524 10.3908 9.31195 10.3943L8.79345 10.9532C8.77331 10.9749 8.75301 10.9968 8.73254 11.019C8.51004 11.2601 8.26709 11.5233 7.98174 11.6915C7.75942 11.8225 7.51971 11.9119 7.2736 11.9593C7.24543 12.7224 6.93956 13.4772 6.356 14.0597C5.68177 14.7326 4.7757 14.916 4.04904 14.9737C3.55396 15.0131 2.98618 14.9984 2.51926 14.9864C2.3244 14.9814 2.14711 14.9769 2 14.9769C1.65151 14.9769 1.32815 14.7954 1.14653 14.498C0.964915 14.2006 0.951243 13.83 1.11044 13.52C1.27783 13.1941 1.26529 12.7949 1.2356 12.0507C1.23495 12.0345 1.23426 12.0178 1.23356 12.0008C1.20964 11.4186 1.16686 10.3779 1.91973 9.62652C2.50331 9.04408 3.2594 8.73904 4.02367 8.71142C4.07131 8.4656 4.16092 8.2262 4.29229 8.0042C4.46096 7.71916 4.72477 7.4766 4.9662 7.2546C4.98844 7.23416 5.01049 7.21388 5.03225 7.19377L5.59551 6.67325C5.59687 6.67198 5.59824 6.67072 5.59961 6.66946L11.0599 1.6234ZM6.24927 8.79268C6.16692 8.86937 6.10917 8.92438 6.0638 8.97072C6.03111 9.00412 6.01532 9.02269 6.00945 9.0299C5.97579 9.092 5.97437 9.16634 6.00558 9.22963C6.01118 9.23707 6.02623 9.25622 6.05759 9.29082C6.12249 9.36244 6.21416 9.45434 6.37133 9.61121C6.52849 9.76807 6.62058 9.85956 6.69234 9.92435C6.72725 9.95587 6.7465 9.97091 6.7539 9.97645C6.81882 10.0084 6.89547 10.007 6.95905 9.97254C6.96624 9.96672 6.98488 9.95095 7.01853 9.91814C7.06443 9.87338 7.1188 9.81655 7.19427 9.73586L6.24927 8.79268ZM8.5556 8.26886L7.71912 7.43399L12.4173 3.09223C12.5542 2.96573 12.7674 2.96989 12.8992 3.10143C13.03 3.23199 13.034 3.44156 12.9084 3.57692L8.5556 8.26886ZM4.94315 11.0421C4.49863 10.5984 3.77711 10.5984 3.33258 11.0421C3.27258 11.102 3.2046 11.2338 3.23401 11.971C3.23585 12.0171 3.23815 12.0662 3.24058 12.118C3.2521 12.3633 3.26641 12.6682 3.24735 13.0005C3.4619 13.0018 3.6731 12.9973 3.8906 12.98C4.47459 12.9336 4.78248 12.8045 4.94315 12.6441C5.38661 12.2015 5.38661 11.4847 4.94315 11.0421Z"/>
</svg>
