<svg width="16" height="16" viewBox="0 0 16 16" xmlns="http://www.w3.org/2000/svg">
<path fill-rule="evenodd" clip-rule="evenodd" d="M5.35407 1H10.6459C11.2098 0.99999 11.6839 0.999981 12.0719 1.02693C12.4755 1.05495 12.8654 1.11581 13.2412 1.27855C13.8114 1.52552 14.3057 1.93279 14.6269 2.46867C14.8487 2.83866 14.9304 3.22558 14.9666 3.60209C15.0001 3.95059 15 4.36988 15 4.83741L15 6.8C15 7.35229 14.5523 7.8 14 7.8C13.4477 7.8 13 7.35229 13 6.8V4.88C13 4.35658 12.9989 4.0347 12.9757 3.79345C12.9542 3.56964 12.9205 3.51202 12.9115 3.49696C12.8267 3.35546 12.673 3.21201 12.4463 3.11382C12.3691 3.08038 12.2361 3.04314 11.9334 3.02212C11.6229 3.00056 11.2188 3 10.6118 3H5.38824C4.7812 3 4.37707 3.00056 4.06665 3.02212C3.76395 3.04314 3.6309 3.08038 3.55368 3.11382C3.32698 3.21201 3.17334 3.35546 3.08852 3.49696C3.07949 3.51202 3.04578 3.56965 3.02427 3.79345C3.00108 4.0347 3 4.35658 3 4.88V11.12C3 11.6434 3.00108 11.9653 3.02427 12.2066C3.04578 12.4304 3.07949 12.488 3.08852 12.503C3.17334 12.6445 3.32698 12.788 3.55368 12.8862C3.63089 12.9196 3.76395 12.9569 4.06666 12.9779C4.37708 12.9994 4.7812 13 5.38824 13H7C7.55229 13 8 13.4477 8 14C8 14.5523 7.55229 15 7 15H5.35409C4.79018 15 4.31612 15 3.9281 14.9731C3.52456 14.9451 3.13461 14.8842 2.75883 14.7214C2.18861 14.4745 1.69434 14.0672 1.37311 13.5313C1.15133 13.1613 1.06963 12.7744 1.03344 12.3979C0.999944 12.0494 0.999971 11.6301 1 11.1626L1 4.88C1 4.86576 1 4.85157 1 4.83742C0.999971 4.36989 0.999944 3.95059 1.03344 3.60208C1.06963 3.22558 1.15133 2.83866 1.37311 2.46867C1.69434 1.93279 2.18861 1.52552 2.75883 1.27855C3.13461 1.11581 3.52455 1.05495 3.92809 1.02693C4.31611 0.999981 4.79016 0.99999 5.35407 1ZM3.82353 5C3.82353 4.44772 4.27125 4 4.82353 4H10.7273C11.2796 4 11.7273 4.44772 11.7273 5C11.7273 5.55229 11.2796 6 10.7273 6H4.82353C4.27125 6 3.82353 5.55229 3.82353 5ZM3.82353 8C3.82353 7.44772 4.27125 7 4.82353 7H8C8.55229 7 9 7.44772 9 8C9 8.55229 8.55229 9 8 9H4.82353C4.27125 9 3.82353 8.55229 3.82353 8ZM12 8C12.5523 8 13 8.44772 13 9V10H14C14.5523 10 15 10.4477 15 11C15 11.5523 14.5523 12 14 12H13V13C13 13.5523 12.5523 14 12 14C11.4477 14 11 13.5523 11 13V12H10C9.44772 12 9 11.5523 9 11C9 10.4477 9.44772 10 10 10H11V9C11 8.44772 11.4477 8 12 8Z"/>
</svg>
