<svg width="15" height="15" viewBox="0 0 15 15" xmlns="http://www.w3.org/2000/svg">
<path fill-rule="evenodd" clip-rule="evenodd" d="M1.50654 1C1.78269 1 2.00654 1.22386 2.00654 1.5V2.03304C2.00654 2.41062 2.00673 2.75805 2.02382 3.04614C2.03232 3.18944 2.04449 3.30761 2.06051 3.40025C2.06843 3.44609 2.07659 3.48146 2.08419 3.50775C2.09201 3.53481 2.09736 3.54568 2.09729 3.54554C2.17711 3.7022 2.30448 3.82957 2.46115 3.9094C2.52144 3.94012 2.61287 3.96802 2.80416 3.98365C3.00129 3.99976 3.25728 4.00015 3.63869 4.00015L11.3677 4.00015C11.7491 4.00015 12.0051 3.99976 12.2023 3.98365C12.3935 3.96802 12.485 3.94012 12.5453 3.9094C12.7019 3.82957 12.8293 3.7022 12.9091 3.54554C12.9093 3.54509 12.9146 3.53408 12.9222 3.50775C12.9298 3.48146 12.938 3.44609 12.9459 3.40025C12.9619 3.30761 12.9741 3.18944 12.9826 3.04614C12.9997 2.75805 12.9999 2.41062 12.9999 2.03304V1.5C12.9999 1.22386 13.2237 1 13.4999 1C13.776 1 13.9999 1.22386 13.9999 1.5V2.04328C13.9999 2.4088 13.9999 2.78457 13.9808 3.10538C13.9632 3.40189 13.9265 3.75146 13.8001 3.99953C13.6244 4.34436 13.3441 4.62471 12.9993 4.8004C12.7745 4.91493 12.5368 4.95965 12.2837 4.98033C12.041 5.00016 11.7439 5.00015 11.388 5.00015L3.6184 5.00015C3.26251 5.00015 2.96543 5.00016 2.72273 4.98033C2.4696 4.95965 2.23192 4.91493 2.00716 4.8004C1.66233 4.62471 1.38198 4.34436 1.20628 3.99953C1.07988 3.75146 1.04317 3.40189 1.02558 3.10538C1.00654 2.78457 1.00654 2.40881 1.00654 2.0433L1.00654 1.5C1.00654 1.22386 1.2304 1 1.50654 1ZM0.999878 7.50362C0.999878 7.22748 1.22374 7.00362 1.49988 7.00362H1.50654C1.78268 7.00362 2.00654 7.22748 2.00654 7.50362C2.00654 7.77977 1.78268 8.00362 1.50654 8.00362H1.49988C1.22374 8.00362 0.999878 7.77977 0.999878 7.50362ZM3.99821 7.50362C3.99821 7.22748 4.22207 7.00362 4.49821 7.00362H4.50488C4.78102 7.00362 5.00488 7.22748 5.00488 7.50362C5.00488 7.77977 4.78102 8.00362 4.50488 8.00362H4.49821C4.22207 8.00362 3.99821 7.77977 3.99821 7.50362ZM6.99655 7.50362C6.99655 7.22748 7.2204 7.00362 7.49655 7.00362H7.50321C7.77935 7.00362 8.00321 7.22748 8.00321 7.50362C8.00321 7.77977 7.77935 8.00362 7.50321 8.00362H7.49655C7.2204 8.00362 6.99655 7.77977 6.99655 7.50362ZM9.99488 7.50362C9.99488 7.22748 10.2187 7.00362 10.4949 7.00362H10.5015C10.7777 7.00362 11.0015 7.22748 11.0015 7.50362C11.0015 7.77977 10.7777 8.00362 10.5015 8.00362H10.4949C10.2187 8.00362 9.99488 7.77977 9.99488 7.50362ZM13.4999 8.00362H13.4932C13.2171 8.00362 12.9932 7.77977 12.9932 7.50362C12.9932 7.22748 13.2171 7.00362 13.4932 7.00362H13.4999C13.776 7.00362 13.9999 7.22748 13.9999 7.50362C13.9999 7.77977 13.776 8.00362 13.4999 8.00362ZM3.61839 10L11.388 10C11.7439 9.99999 12.041 9.99998 12.2837 10.0198C12.5368 10.0405 12.7745 10.0852 12.9993 10.1997C13.3441 10.3754 13.6244 10.6558 13.8001 11.0006C13.9265 11.2487 13.9633 11.5982 13.9808 11.8947C13.9999 12.2155 13.9999 12.5912 13.9999 12.9567V13.5C13.9999 13.7761 13.776 14 13.4999 14C13.2237 14 12.9999 13.7761 12.9999 13.5V12.967C12.9999 12.5894 12.9997 12.242 12.9826 11.9539C12.9741 11.8107 12.9619 11.6925 12.9459 11.5999C12.938 11.554 12.9298 11.5187 12.9222 11.4924C12.9146 11.466 12.9093 11.455 12.9091 11.4546C12.8293 11.298 12.7019 11.1706 12.5453 11.0907C12.485 11.06 12.3936 11.0321 12.2023 11.0165C12.0051 11.0004 11.7491 11 11.3677 11L3.63869 11C3.25728 11 3.00129 11.0004 2.80416 11.0165C2.61287 11.0321 2.52144 11.06 2.46115 11.0907C2.30449 11.1706 2.17711 11.2979 2.09729 11.4546C2.09736 11.4545 2.09201 11.4653 2.08419 11.4924C2.07659 11.5187 2.06843 11.5541 2.06051 11.5999C2.04449 11.6925 2.03232 11.8107 2.02382 11.9539C2.00672 12.242 2.00654 12.5894 2.00654 12.967V13.5C2.00654 13.7761 1.78268 14 1.50654 14C1.2304 14 1.00654 13.7761 1.00654 13.5L1.00654 12.9567C1.00654 12.5912 1.00654 12.2155 1.02558 11.8947C1.04317 11.5982 1.07989 11.2487 1.20628 11.0006C1.38198 10.6558 1.66233 10.3754 2.00716 10.1997C2.23192 10.0852 2.4696 10.0405 2.72273 10.0198C2.96543 9.99998 3.2625 9.99999 3.61839 10Z"/>
</svg>
