<svg width="15" height="15" viewBox="0 0 15 15" xmlns="http://www.w3.org/2000/svg">
<path fill-rule="evenodd" clip-rule="evenodd" d="M1 13.4933C1 13.2172 1.22386 12.9933 1.5 12.9933L2.03304 12.9933C2.41062 12.9933 2.75805 12.9932 3.04614 12.9761C3.18944 12.9676 3.30761 12.9554 3.40025 12.9394C3.44609 12.9314 3.48146 12.9233 3.50775 12.9157C3.53481 12.9079 3.54568 12.9025 3.54554 12.9026C3.7022 12.8228 3.82957 12.6954 3.9094 12.5387C3.94012 12.4784 3.96802 12.387 3.98365 12.1957C3.99976 11.9986 4.00015 11.7426 4.00015 11.3612L4.00015 3.63215C4.00015 3.25074 3.99976 2.99475 3.98365 2.79762C3.96802 2.60633 3.94012 2.5149 3.9094 2.4546C3.82957 2.29794 3.7022 2.17057 3.54554 2.09075C3.54509 2.09053 3.53407 2.08525 3.50775 2.07765C3.48146 2.07005 3.44609 2.06189 3.40025 2.05396C3.30761 2.03795 3.18944 2.02578 3.04614 2.01728C2.75805 2.00018 2.41062 2 2.03304 2L1.5 2C1.22386 2 0.999999 1.77614 0.999999 1.5C0.999999 1.22386 1.22386 1 1.5 1L2.04328 1C2.4088 0.999998 2.78457 0.999996 3.10538 1.01903C3.40189 1.03663 3.75145 1.07334 3.99953 1.19974C4.34436 1.37544 4.62471 1.65579 4.8004 2.00061C4.91493 2.22538 4.95965 2.46305 4.98033 2.71619C5.00016 2.95889 5.00015 3.25596 5.00015 3.61186L5.00015 11.3815C5.00015 11.7374 5.00016 12.0344 4.98033 12.2771C4.95965 12.5303 4.91493 12.768 4.8004 12.9927C4.62471 13.3375 4.34436 13.6179 3.99953 13.7936C3.75146 13.92 3.40189 13.9567 3.10538 13.9743C2.78457 13.9933 2.40881 13.9933 2.0433 13.9933L1.5 13.9933C1.22386 13.9933 1 13.7695 1 13.4933ZM7.50362 14C7.22748 14 7.00362 13.7761 7.00362 13.5L7.00362 13.4933C7.00362 13.2172 7.22748 12.9933 7.50362 12.9933C7.77977 12.9933 8.00362 13.2172 8.00362 13.4933L8.00362 13.5C8.00362 13.7761 7.77977 14 7.50362 14ZM7.50362 11.0017C7.22748 11.0017 7.00362 10.7778 7.00362 10.5017L7.00362 10.495C7.00362 10.2189 7.22748 9.995 7.50362 9.995C7.77977 9.995 8.00362 10.2189 8.00362 10.495L8.00362 10.5017C8.00362 10.7778 7.77977 11.0017 7.50362 11.0017ZM7.50362 8.00333C7.22748 8.00333 7.00362 7.77947 7.00362 7.50333L7.00362 7.49667C7.00362 7.22053 7.22748 6.99667 7.50362 6.99667C7.77977 6.99667 8.00362 7.22052 8.00362 7.49667L8.00362 7.50333C8.00362 7.77947 7.77977 8.00333 7.50362 8.00333ZM7.50362 5.005C7.22748 5.005 7.00362 4.78114 7.00362 4.505L7.00362 4.49833C7.00362 4.22219 7.22748 3.99833 7.50362 3.99833C7.77977 3.99833 8.00362 4.22219 8.00362 4.49833L8.00362 4.505C8.00362 4.78114 7.77977 5.005 7.50362 5.005ZM8.00362 1.5L8.00362 1.50666C8.00362 1.78281 7.77977 2.00666 7.50362 2.00666C7.22748 2.00666 7.00362 1.78281 7.00362 1.50666L7.00362 1.5C7.00362 1.22386 7.22748 1 7.50362 1C7.77977 1 8.00362 1.22386 8.00362 1.5ZM10 11.3815L10 3.61185C9.99999 3.25596 9.99998 2.95888 10.0198 2.71619C10.0405 2.46305 10.0852 2.22537 10.1997 2.00061C10.3754 1.65579 10.6558 1.37543 11.0006 1.19974C11.2487 1.07334 11.5982 1.03663 11.8947 1.01903C12.2155 0.999997 12.5912 0.999999 12.9567 1L13.5 1C13.7761 1 14 1.22386 14 1.5C14 1.77614 13.7761 2 13.5 2L12.967 2C12.5894 2 12.242 2.00018 11.9539 2.01728C11.8107 2.02578 11.6925 2.03795 11.5999 2.05396C11.554 2.06189 11.5187 2.07005 11.4924 2.07764C11.466 2.08526 11.455 2.09053 11.4546 2.09074C11.298 2.17056 11.1706 2.29794 11.0907 2.4546C11.06 2.5149 11.0321 2.60633 11.0165 2.79762C11.0004 2.99475 11 3.25073 11 3.63215L11 11.3612C11 11.7426 11.0004 11.9986 11.0165 12.1957C11.0321 12.387 11.06 12.4784 11.0907 12.5387C11.1706 12.6954 11.2979 12.8228 11.4546 12.9026C11.4545 12.9025 11.4653 12.9079 11.4924 12.9157C11.5187 12.9233 11.5541 12.9314 11.5999 12.9394C11.6925 12.9554 11.8107 12.9676 11.9539 12.9761C12.242 12.9932 12.5894 12.9933 12.967 12.9933L13.5 12.9933C13.7761 12.9933 14 13.2172 14 13.4933C14 13.7695 13.7761 13.9933 13.5 13.9933L12.9567 13.9933C12.5912 13.9933 12.2155 13.9933 11.8947 13.9743C11.5982 13.9567 11.2487 13.92 11.0006 13.7936C10.6558 13.6179 10.3754 13.3375 10.1997 12.9927C10.0852 12.768 10.0405 12.5303 10.0198 12.2771C9.99998 12.0344 9.99999 11.7374 10 11.3815Z"/>
</svg>
