<svg width="16" height="16" viewBox="0 0 16 16" xmlns="http://www.w3.org/2000/svg">
<path fill-rule="evenodd" clip-rule="evenodd" d="M8.44411 1H3.55979C3.21296 0.999993 2.92271 0.999987 2.68545 1.01937C2.43775 1.03961 2.20409 1.08344 1.98282 1.19619C1.64412 1.36876 1.36876 1.64413 1.19619 1.98282C1.08344 2.20409 1.03961 2.43775 1.01937 2.68545C0.999986 2.92271 0.999991 3.21295 0.999999 3.55978V8.44022C0.999991 8.78705 0.999986 9.07729 1.01937 9.31455C1.03961 9.56225 1.08344 9.79591 1.19619 10.0172C1.36876 10.3559 1.64412 10.6312 1.98282 10.8038C2.20409 10.9166 2.43775 10.9604 2.68544 10.9806C2.92272 11 3.21298 11 3.55983 11H5V12.4402C4.99999 12.787 4.99999 13.0773 5.01937 13.3146C5.03961 13.5623 5.08344 13.7959 5.19619 14.0172C5.36876 14.3559 5.64412 14.6312 5.98282 14.8038C6.20409 14.9166 6.43775 14.9604 6.68545 14.9806C6.92271 15 7.21295 15 7.55978 15H12.4402C12.787 15 13.0773 15 13.3146 14.9806C13.5623 14.9604 13.7959 14.9166 14.0172 14.8038C14.3559 14.6312 14.6312 14.3559 14.8038 14.0172C14.9166 13.7959 14.9604 13.5623 14.9806 13.3146C15 13.0773 15 12.787 15 12.4402V7.55979C15 7.21296 15 6.92271 14.9806 6.68545C14.9604 6.43775 14.9166 6.20409 14.8038 5.98282C14.6312 5.64413 14.3559 5.36876 14.0172 5.19619C13.7868 5.07882 13.5206 5.03804 13.2625 5.01906C13.0032 4.99999 12.6908 5 12.3402 5H11.0039L11.0039 3.5598C11.0039 3.21296 11.0039 2.92272 10.9845 2.68545C10.9643 2.43775 10.9205 2.20409 10.8077 1.98282C10.6351 1.64413 10.3598 1.36876 10.0211 1.19619C9.79981 1.08344 9.56616 1.03961 9.31846 1.01937C9.08119 0.999987 8.79095 0.999993 8.44411 1ZM11.0039 6H12.3239C12.6947 6 12.9708 6.0003 13.1891 6.01637C13.4126 6.0328 13.5155 6.06287 13.5632 6.0872C13.7137 6.16389 13.8361 6.28628 13.9128 6.43681C13.9418 6.49362 13.9688 6.58102 13.9839 6.76688C13.9996 6.95857 14 7.20772 14 7.58V12.42C14 12.7923 13.9996 13.0414 13.9839 13.2331C13.9688 13.419 13.9418 13.5064 13.9128 13.5632C13.8361 13.7137 13.7137 13.8361 13.5632 13.9128C13.5064 13.9418 13.419 13.9688 13.2331 13.9839C13.0414 13.9996 12.7923 14 12.42 14H7.58C7.20772 14 6.95857 13.9996 6.76688 13.9839C6.58102 13.9688 6.49362 13.9418 6.43681 13.9128C6.28628 13.8361 6.16389 13.7137 6.0872 13.5632C6.05825 13.5064 6.03124 13.419 6.01605 13.2331C6.00039 13.0414 6 12.7923 6 12.42V11H8.44408C8.79093 11 9.08118 11 9.31846 10.9806C9.56616 10.9604 9.79981 10.9166 10.0211 10.8038C10.3598 10.6312 10.6351 10.3559 10.8077 10.0172C10.9205 9.79591 10.9643 9.56225 10.9845 9.31455C11.0039 9.07728 11.0039 8.78704 11.0039 8.4402L11.0039 6ZM8.42391 10C8.79619 10 9.04533 9.99961 9.23703 9.98395C9.42288 9.96876 9.51029 9.94175 9.5671 9.9128C9.71763 9.83611 9.84001 9.71372 9.91671 9.56319C9.94566 9.50638 9.97267 9.41898 9.98785 9.23312C10.0035 9.04143 10.0039 8.79228 10.0039 8.42V3.58C10.0039 3.20772 10.0035 2.95857 9.98785 2.76688C9.97267 2.58102 9.94566 2.49362 9.91671 2.43681C9.84001 2.28628 9.71763 2.16389 9.5671 2.0872C9.51029 2.05825 9.42288 2.03124 9.23703 2.01605C9.04533 2.00039 8.79619 2 8.42391 2H3.58C3.20772 2 2.95857 2.00039 2.76688 2.01605C2.58102 2.03124 2.49362 2.05825 2.43681 2.0872C2.28628 2.16389 2.16389 2.28628 2.08719 2.43681C2.05825 2.49362 2.03124 2.58102 2.01605 2.76688C2.00039 2.95857 2 3.20772 2 3.58V8.42C2 8.79228 2.00039 9.04143 2.01605 9.23312C2.03124 9.41898 2.05825 9.50638 2.08719 9.56319C2.16389 9.71372 2.28628 9.83611 2.43681 9.9128C2.49362 9.94175 2.58102 9.96876 2.76688 9.98395C2.95857 9.99961 3.20772 10 3.58 10H8.42391Z"/>
</svg>
