<svg width="15" height="15" viewBox="0 0 15 15" xmlns="http://www.w3.org/2000/svg">
<path fill-rule="evenodd" clip-rule="evenodd" d="M14 1.5C14 1.77614 13.7761 2 13.5 2L1.5 2C1.22386 2 1 1.77614 1 1.5C1 1.22386 1.22386 0.999999 1.5 0.999999L13.5 1C13.7761 1 14 1.22386 14 1.5ZM14 13.5C14 13.7761 13.7761 14 13.5 14L1.5 14C1.22386 14 0.999999 13.7761 0.999999 13.5C0.999999 13.2239 1.22386 13 1.5 13L13.5 13C13.7761 13 14 13.2239 14 13.5ZM9.91602 5.11068C9.76285 5.34045 9.45241 5.40254 9.22265 5.24936L8 4.43426L8 10.5657L9.22265 9.75064C9.45241 9.59747 9.76285 9.65955 9.91602 9.88932C10.0692 10.1191 10.0071 10.4295 9.77735 10.5827L7.77735 11.916C7.6094 12.028 7.3906 12.028 7.22265 11.916L5.22265 10.5827C4.99289 10.4295 4.9308 10.1191 5.08397 9.88932C5.23715 9.65955 5.54758 9.59747 5.77735 9.75064L7 10.5657L7 4.43426L5.77735 5.24936C5.54759 5.40253 5.23715 5.34045 5.08397 5.11068C4.9308 4.88092 4.99289 4.57048 5.22265 4.41731L7.22265 3.08397C7.3906 2.97201 7.6094 2.97201 7.77735 3.08398L9.77735 4.41731C10.0071 4.57048 10.0692 4.88092 9.91602 5.11068Z"/>
</svg>
