<svg width="16" height="16" viewBox="0 0 16 16" xmlns="http://www.w3.org/2000/svg">
<path fill-rule="evenodd" clip-rule="evenodd" d="M2.74365 8C2.74365 7.30964 3.3033 6.75 3.99365 6.75H4.00031C4.69067 6.75 5.25031 7.30964 5.25031 8C5.25031 8.69036 4.69067 9.25 4.00031 9.25H3.99365C3.3033 9.25 2.74365 8.69036 2.74365 8ZM6.74691 8C6.74691 7.30964 7.30655 6.75 7.99691 6.75H8.00357C8.69392 6.75 9.25357 7.30964 9.25357 8C9.25357 8.69036 8.69392 9.25 8.00357 9.25H7.99691C7.30655 9.25 6.74691 8.69036 6.74691 8ZM10.7436 8C10.7436 7.30964 11.3032 6.75 11.9936 6.75H12.0002C12.6906 6.75 13.2502 7.30964 13.2502 8C13.2502 8.69036 12.6906 9.25 12.0002 9.25H11.9936C11.3032 9.25 10.7436 8.69036 10.7436 8Z"/>
</svg>
