<svg width="16" height="16" viewBox="0 0 16 16" xmlns="http://www.w3.org/2000/svg">
<path d="M6.07136 14.9643C3.28564 14.9643 1.03564 12.7143 1.03564 9.92856C1.03564 7.14285 3.28564 4.89285 6.07136 4.89285C8.85707 4.89285 11.1071 7.14285 11.1071 9.92856C11.1071 12.7143 8.85707 14.9643 6.07136 14.9643ZM6.07136 5.96428C3.9285 5.96428 2.10707 7.78571 2.10707 9.92856C2.10707 12.0714 3.9285 13.8928 6.07136 13.8928C8.21422 13.8928 10.0356 12.0714 10.0356 9.92856C10.0356 7.78571 8.21422 5.96428 6.07136 5.96428ZM13.1428 9.71428C13.0356 9.71428 12.8214 9.71428 12.8214 9.60713C12.6071 9.39285 12.6071 9.07142 12.8214 8.85713C13.5714 8.10713 13.9999 7.14285 13.9999 6.07142C13.9999 3.92856 12.1785 2.10713 10.0356 2.10713C8.96422 2.10713 7.99993 2.53571 7.24993 3.28571C6.9285 3.49999 6.60707 3.39285 6.39279 3.28571C6.1785 3.07142 6.1785 2.64285 6.39279 2.42856C7.35707 1.57142 8.64279 1.03571 9.9285 1.03571C12.7142 1.03571 14.9642 3.28571 14.9642 6.07142C14.9642 7.35713 14.4285 8.64285 13.5714 9.60713C13.4642 9.71428 13.2499 9.71428 13.1428 9.71428Z"/>
</svg>
