<svg width="16" height="16" viewBox="0 0 16 16" xmlns="http://www.w3.org/2000/svg">
<path fill-rule="evenodd" clip-rule="evenodd" d="M5.5 1C5.77614 1 6 1.22386 6 1.5V3.5C6 3.77614 5.77614 4 5.5 4C5.22386 4 5 3.77614 5 3.5V1.5C5 1.22386 5.22386 1 5.5 1ZM9.3331 2C10.6218 0.71127 12.7113 0.71127 14 2C15.2887 3.28873 15.2887 5.37817 14 6.6669L11.5151 9.15183C11.3198 9.34709 11.0032 9.34709 10.808 9.15183C10.6127 8.95657 10.6127 8.63998 10.808 8.44472L13.2929 5.9598C14.1911 5.06159 14.1911 3.60531 13.2929 2.70711C12.3947 1.8089 10.9384 1.8089 10.0402 2.70711L7.55528 5.19203C7.36001 5.38729 7.04343 5.38729 6.84817 5.19203C6.65291 4.99677 6.65291 4.68019 6.84817 4.48492L9.3331 2ZM5.19203 6.84817C5.38729 7.04343 5.38729 7.36002 5.19203 7.55528L2.70711 10.0402C1.8089 10.9384 1.8089 12.3947 2.70711 13.2929C3.60531 14.1911 5.06159 14.1911 5.9598 13.2929L8.44472 10.808C8.63998 10.6127 8.95657 10.6127 9.15183 10.808C9.34709 11.0032 9.34709 11.3198 9.15183 11.5151L6.6669 14C5.37817 15.2887 3.28873 15.2887 2 14C0.71127 12.7113 0.71127 10.6218 2 9.3331L4.48492 6.84817C4.68019 6.65291 4.99677 6.65291 5.19203 6.84817ZM12.0151 10.5C12.0151 10.2238 12.2389 9.99998 12.5151 9.99998H14.5C14.7761 9.99998 15 10.2238 15 10.5C15 10.7761 14.7761 11 14.5 11H12.5151C12.2389 11 12.0151 10.7761 12.0151 10.5ZM10.5 12C10.7761 12 11 12.2239 11 12.5V14.5C11 14.7761 10.7761 15 10.5 15C10.2239 15 10 14.7761 10 14.5V12.5C10 12.2239 10.2239 12 10.5 12Z"/>
<path d="M1.00879 5.49998C1.00879 5.22383 1.23265 4.99998 1.50879 4.99998H3.48492C3.76107 4.99998 3.98492 5.22383 3.98492 5.49998C3.98492 5.77612 3.76107 5.99998 3.48492 5.99998H1.50879C1.23265 5.99998 1.00879 5.77612 1.00879 5.49998Z"/>
</svg>
