<svg width="169" height="52" viewBox="0 0 169 52" xmlns="http://www.w3.org/2000/svg">
<path d="M95.2831 0H93.5331L79.2631 6.28C79.0165 6.39333 78.9131 6.31667 78.9531 6.05C79.0434 5.51725 79.4619 5.20668 79.8948 4.88545C80.4206 4.4952 80.9676 4.08922 80.9731 3.25C80.9798 2.59 80.7165 2.45333 80.1831 2.84L74.4931 6.96C74.2131 7.16 74.0431 7.43 73.9831 7.77L72.7931 14.16C72.7331 14.4667 72.7965 14.7433 72.9831 14.99C73.7565 16.0367 74.7598 16.2133 75.9931 15.52C81.0731 12.6667 86.3698 9.97 91.8831 7.43C92.0238 7.36701 92.1793 7.34493 92.3319 7.36628C92.4845 7.38763 92.628 7.45155 92.746 7.55071C92.8639 7.64987 92.9516 7.78027 92.9988 7.92694C93.0461 8.07361 93.051 8.23063 93.0131 8.38C90.9311 16.3701 85.144 23.4022 79.7163 29.9976C79.0438 30.8148 78.3768 31.6253 77.7231 32.43C77.4765 32.7367 77.4331 33.07 77.5931 33.43L79.4631 37.69C79.6498 38.1167 79.9731 38.38 80.4331 38.48C81.9998 38.82 83.4298 38.06 84.7231 36.2C91.4498 26.5067 98.8498 17.7133 106.923 9.82C107.067 9.69039 107.252 9.61575 107.445 9.60926C107.638 9.60277 107.828 9.66486 107.98 9.78454C108.132 9.90423 108.237 10.0738 108.276 10.2633C108.315 10.4528 108.285 10.65 108.193 10.82C104.086 17.7533 99.6698 24.2933 94.9431 30.44C92.7498 33.3 92.7131 36.1333 94.8331 38.94C94.9562 39.1011 95.1119 39.2343 95.2898 39.3309C95.4678 39.4276 95.664 39.4854 95.8654 39.5005C96.0668 39.5156 96.2689 39.4878 96.4581 39.4187C96.6474 39.3497 96.8195 39.241 96.9631 39.1C97.1845 38.8836 97.4077 38.6684 97.631 38.453C98.7291 37.394 99.8324 36.3298 100.763 35.1C106.43 27.6333 112.933 20.97 120.273 15.11C120.82 14.6767 120.883 14.74 120.463 15.3C120.333 15.4738 120.19 15.6627 120.037 15.8654L120.035 15.868C116.188 20.9616 105.732 34.8073 113.203 39.74C117.793 42.77 133.703 30.27 132.413 26.14C132.273 25.6867 132.043 25.6367 131.723 25.99C128.61 29.45 125.023 32.33 120.963 34.63C118.603 35.96 117.323 33.5 117.813 31.54C119.493 24.7797 124.841 18.4291 129.718 12.6365C130.937 11.1888 132.127 9.7757 133.223 8.4C135.643 5.37 131.773 0.0799999 129.293 2.08C125.493 5.13333 118.816 11.0267 109.263 19.76C108.77 20.2133 108.676 20.14 108.983 19.54C109.796 17.9667 110.85 16.26 112.143 14.42C113.576 12.3933 114.786 9.97 115.773 7.15C117.323 2.73 113.363 -0.56 109.463 2.53C104.643 6.35 100.07 10.5033 95.7431 14.99C95.3498 15.39 95.2265 15.32 95.3731 14.78C95.9598 12.5533 96.7098 10.43 97.6231 8.41C98.896 5.57749 97.5174 3.45204 95.864 0.90292L95.8624 0.900476C95.6717 0.606532 95.4774 0.306951 95.2831 0Z"/>
<path d="M28.2031 27.07L23.0631 29.32C23.0089 29.3428 22.9488 29.348 22.8915 29.3348C22.8342 29.3216 22.7825 29.2906 22.7437 29.2463C22.705 29.202 22.6812 29.1467 22.6757 29.0881C22.6702 29.0295 22.6833 28.9707 22.7131 28.92C26.7931 22.13 31.8231 13.71 33.3131 5.91001C34.0931 1.83001 30.5731 0.170008 27.0431 1.16001C19.2364 3.33334 13.3831 8.06001 9.4831 15.34C7.8931 18.31 3.2531 31.12 8.7131 30.97C9.05976 30.9633 9.3731 30.8567 9.6531 30.65C12.3264 28.6833 14.6198 26.3267 16.5331 23.58C16.6398 23.42 16.6264 23.2733 16.4931 23.14L16.2931 22.94C16.1931 22.84 16.0798 22.8267 15.9531 22.9L13.1831 24.52C12.7431 24.7733 12.5898 24.6567 12.7231 24.17C15.0364 15.7033 20.1098 9.54667 27.9431 5.70001C28.0221 5.66242 28.11 5.64716 28.1971 5.65588C28.2842 5.6646 28.3672 5.69697 28.4372 5.74949C28.5073 5.80201 28.5616 5.87268 28.5944 5.95385C28.6271 6.03501 28.6371 6.1236 28.6231 6.21001C27.3171 14.174 22.7747 21.5124 18.4545 28.4918C18.0444 29.1544 17.6363 29.8137 17.2331 30.47C15.7574 32.8727 12.849 34.8176 9.83559 36.8328C4.7219 40.2525 -0.69454 43.8746 0.073098 50.28C0.106575 50.5547 0.207776 50.8167 0.367607 51.0426C0.527438 51.2685 0.740889 51.4511 0.988776 51.574C1.23666 51.697 1.51121 51.7564 1.78776 51.747C2.0643 51.7376 2.33417 51.6596 2.5731 51.52C7.16313 48.8508 11.3961 43.5632 15.1526 38.8707C16.2656 37.4803 17.3368 36.1423 18.3631 34.94C20.4414 32.5074 23.53 31.1408 26.4919 29.8302C27.2924 29.476 28.0836 29.1259 28.8431 28.76C29.4131 28.49 29.3131 28.05 29.1431 27.51C28.9964 27.01 28.6831 26.8633 28.2031 27.07Z"/>
<path d="M62.9532 8.37008C59.9332 8.33008 45.2732 10.7201 44.7632 14.5901C44.6565 15.4234 45.0032 15.9534 45.8032 16.1801C50.5565 17.5401 55.0332 18.7067 59.2332 19.6801C63.1332 20.5901 67.0332 23.4201 66.2532 27.9101C65.0232 35.0601 54.4132 37.2901 48.6332 38.1701C46.0332 38.5601 29.1532 41.0001 32.6032 33.6101C33.7965 31.0501 35.8865 29.6334 38.8732 29.3601C39.4065 29.3134 39.5565 29.5334 39.3232 30.0201L39.0032 30.7001C38.6832 31.3601 38.8899 31.7001 39.6232 31.7201C46.0432 31.8801 56.6932 30.9901 61.2632 26.6201C61.425 26.4627 61.5442 26.2667 61.6093 26.0506C61.6744 25.8346 61.6833 25.6058 61.6352 25.3861C61.587 25.1664 61.4834 24.9631 61.3342 24.7957C61.1851 24.6284 60.9953 24.5025 60.7832 24.4301C55.1699 22.5234 49.4432 21.1567 43.6032 20.3301C37.9732 19.5401 38.7632 13.2701 40.6032 9.78008C44.9732 1.46008 62.9732 0.310081 70.8632 1.78008C71.2365 1.84675 71.4665 2.06675 71.5532 2.44008C72.6589 7.36127 68.629 9.29328 64.8269 11.1161C63.7462 11.6342 62.6839 12.1435 61.7632 12.7101C61.5165 12.8634 61.2599 12.8801 60.9932 12.7601C59.6593 12.1515 61.6268 10.3336 62.6832 9.35746C62.8939 9.16274 63.0684 9.00151 63.1732 8.89008C63.4865 8.55008 63.4132 8.37675 62.9532 8.37008Z"/>
<path fill-rule="evenodd" clip-rule="evenodd" d="M167.883 16.3199C168.733 12.7299 167.843 7.24994 162.763 8.46994C161.05 8.88328 161.013 8.69327 162.653 7.89994C163.553 7.46661 164.47 7.07327 165.403 6.71994C165.608 6.64107 165.794 6.52051 165.949 6.36593C166.104 6.21135 166.226 6.02612 166.306 5.82203C166.386 5.61794 166.422 5.39945 166.413 5.18045C166.404 4.96145 166.35 4.74673 166.253 4.54994C164.893 1.75994 162.643 0.479941 159.463 1.48994C150.123 4.45661 142.703 9.94994 137.203 17.9699C132.253 25.1899 133.453 39.9399 145.423 38.1899C156.263 36.6099 165.423 26.6199 167.883 16.3199ZM145.313 20.0499L145.863 20.4499C146.23 20.7233 146.55 20.6766 146.823 20.3099C150.07 15.8833 154.283 12.8666 159.463 11.2599C162.853 10.2099 164.333 12.7299 163.133 15.6099C159.803 23.6399 151.973 33.1099 142.713 34.2299C134.973 35.1699 142.603 22.1699 144.343 20.1599C144.636 19.8266 144.96 19.7899 145.313 20.0499Z"/>
</svg>
