<svg width="15" height="15" viewBox="0 0 15 15"  xmlns="http://www.w3.org/2000/svg">
<path  clip-rule="evenodd" d="M1.5 1C1.77614 1 2 1.22386 2 1.5V13.5C2 13.7761 1.77614 14 1.5 14C1.22386 14 1 13.7761 1 13.5V1.5C1 1.22386 1.22386 1 1.5 1ZM13.5 1C13.7761 1 14 1.22386 14 1.5V13.5C14 13.7761 13.7761 14 13.5 14C13.2239 14 13 13.7761 13 13.5V1.5C13 1.22386 13.2239 1 13.5 1ZM5.11068 5.08398C5.34045 5.23715 5.40254 5.54759 5.24936 5.77735L4.43426 7H10.5657L9.75064 5.77735C9.59747 5.54759 9.65955 5.23715 9.88932 5.08398C10.1191 4.9308 10.4295 4.99289 10.5827 5.22265L11.916 7.22265C12.028 7.3906 12.028 7.6094 11.916 7.77735L10.5827 9.77735C10.4295 10.0071 10.1191 10.0692 9.88932 9.91603C9.65955 9.76285 9.59747 9.45241 9.75064 9.22265L10.5657 8H4.43426L5.24936 9.22265C5.40253 9.45241 5.34045 9.76285 5.11068 9.91603C4.88092 10.0692 4.57048 10.0071 4.41731 9.77735L3.08398 7.77735C2.97201 7.6094 2.97201 7.3906 3.08398 7.22265L4.41731 5.22265C4.57048 4.99289 4.88092 4.9308 5.11068 5.08398Z"/>
</svg>
