<svg width="12" height="12" viewBox="0 0 12 12" xmlns="http://www.w3.org/2000/svg">
<g clip-path="url(#clip0_7744_471)">
<path fill-rule="evenodd" clip-rule="evenodd" d="M5.37936 0.5H6.62065C7.02314 0.499994 7.35532 0.499989 7.62592 0.522097C7.90697 0.54506 8.16532 0.594342 8.40799 0.717988C8.78431 0.909734 9.09027 1.2157 9.28202 1.59202C9.40567 1.83469 9.45495 2.09304 9.47791 2.37409C9.48123 2.41467 9.48404 2.45663 9.48644 2.50001C9.72237 2.50008 9.9201 2.5009 10.084 2.50982C10.2696 2.51993 10.4451 2.5416 10.6148 2.59923C10.8726 2.68679 11.1183 2.83797 11.2883 3.06039C11.415 3.22625 11.4626 3.40408 11.4827 3.56798C11.5001 3.71006 11.5 3.87705 11.5 4.04392C11.5 4.0515 11.5 4.05908 11.5 4.06667V7.93333C11.5 7.94092 11.5 7.9485 11.5 7.95608C11.5 8.12295 11.5001 8.28994 11.4827 8.43202C11.4626 8.59592 11.415 8.77375 11.2883 8.93961C11.1183 9.16203 10.8726 9.31321 10.6148 9.40077C10.4451 9.4584 10.2696 9.48007 10.084 9.49018C9.9201 9.4991 9.72237 9.49992 9.48643 9.49999C9.48404 9.54337 9.48123 9.58533 9.47791 9.62591C9.45495 9.90696 9.40567 10.1653 9.28202 10.408C9.09027 10.7843 8.78431 11.0903 8.40799 11.282C8.16532 11.4057 7.90697 11.4549 7.62592 11.4779C7.35532 11.5 7.02315 11.5 6.62067 11.5H5.37934C4.97687 11.5 4.64469 11.5 4.37409 11.4779C4.09304 11.4549 3.83469 11.4057 3.59203 11.282C3.2157 11.0903 2.90974 10.7843 2.71799 10.408C2.59435 10.1653 2.54507 9.90696 2.5221 9.62591C2.51879 9.58533 2.51597 9.54337 2.51358 9.49999C2.27764 9.49992 2.07991 9.4991 1.91601 9.49018C1.73044 9.48007 1.55487 9.4584 1.3852 9.40077C1.12742 9.31321 0.881734 9.16204 0.711741 8.93962C0.584976 8.77375 0.537431 8.59592 0.517344 8.43202C0.499931 8.28994 0.499967 8.12296 0.500003 7.9561C0.500005 7.94851 0.500007 7.94092 0.500007 7.93333V4.06667C0.500007 4.05908 0.500005 4.05149 0.500003 4.04391C0.499967 3.87704 0.499931 3.71006 0.517344 3.56798C0.537431 3.40408 0.584976 3.22625 0.711741 3.06039C0.881734 2.83797 1.12742 2.68679 1.3852 2.59923C1.55487 2.5416 1.73044 2.51993 1.91601 2.50982C2.07991 2.5009 2.27764 2.50008 2.51357 2.50001C2.51597 2.45663 2.51879 2.41467 2.5221 2.37409C2.54507 2.09304 2.59435 1.83469 2.71799 1.59202C2.90974 1.2157 3.2157 0.909734 3.59203 0.717988C3.83469 0.594342 4.09304 0.54506 4.37409 0.522097C4.64469 0.499989 4.97687 0.499994 5.37936 0.5ZM2.50001 3.50002C2.26801 3.50016 2.10218 3.50117 1.9704 3.50834C1.82248 3.5164 1.75108 3.53107 1.70683 3.54609C1.60164 3.58183 1.54233 3.62743 1.51511 3.65713C1.51369 3.66371 1.51181 3.67416 1.50992 3.68962C1.50087 3.76342 1.50001 3.86769 1.50001 4.06667V7.93333C1.50001 8.13231 1.50087 8.23658 1.50992 8.31038C1.51181 8.32584 1.51369 8.33629 1.51511 8.34287C1.54233 8.37257 1.60164 8.41818 1.70683 8.45391C1.75108 8.46894 1.82248 8.4836 1.9704 8.49166C2.10218 8.49884 2.26801 8.49984 2.50001 8.49998V3.50002ZM9.50001 8.49998C9.73201 8.49984 9.89783 8.49884 10.0296 8.49166C10.1775 8.4836 10.2489 8.46894 10.2932 8.45391C10.3984 8.41818 10.4577 8.37257 10.4849 8.34287C10.4863 8.33629 10.4882 8.32584 10.4901 8.31038C10.4991 8.23658 10.5 8.13231 10.5 7.93333V4.06667C10.5 3.86769 10.4991 3.76342 10.4901 3.68962C10.4882 3.67416 10.4863 3.66371 10.4849 3.65713C10.4577 3.62743 10.3984 3.58183 10.2932 3.54609C10.2489 3.53107 10.1775 3.5164 10.0296 3.50834C9.89783 3.50117 9.73201 3.50016 9.50001 3.50002V8.49998ZM4.45553 1.51878C4.23632 1.53669 4.12422 1.56915 4.04602 1.60899C3.85785 1.70487 3.70487 1.85785 3.609 2.04601C3.56916 2.12421 3.53669 2.23631 3.51878 2.45552C3.5004 2.68056 3.50001 2.97171 3.50001 3.4V8.6C3.50001 9.02829 3.5004 9.31944 3.51878 9.54448C3.53669 9.76369 3.56916 9.87579 3.609 9.95399C3.70487 10.1422 3.85785 10.2951 4.04602 10.391C4.12422 10.4309 4.23632 10.4633 4.45553 10.4812C4.68057 10.4996 4.97172 10.5 5.40001 10.5H6.60001C7.0283 10.5 7.31944 10.4996 7.54449 10.4812C7.7637 10.4633 7.8758 10.4309 7.954 10.391C8.14216 10.2951 8.29514 10.1422 8.39101 9.95399C8.43086 9.87579 8.46332 9.76369 8.48123 9.54448C8.49962 9.31944 8.50001 9.02829 8.50001 8.6V3.4C8.50001 2.97171 8.49962 2.68056 8.48123 2.45552C8.46332 2.23631 8.43086 2.12421 8.39101 2.04601C8.29514 1.85785 8.14216 1.70487 7.954 1.60899C7.8758 1.56915 7.7637 1.53669 7.54449 1.51878C7.31944 1.50039 7.0283 1.5 6.60001 1.5H5.40001C4.97172 1.5 4.68057 1.50039 4.45553 1.51878Z"/>
</g>
</svg>
