<svg width="12" height="12" viewBox="0 0 12 12" xmlns="http://www.w3.org/2000/svg">
<path fill-rule="evenodd" clip-rule="evenodd" d="M2.55411 1.79477e-07H9.44589C9.75066 -4.6485e-06 10.0051 -8.76095e-06 10.214 0.0138469C10.4314 0.0282706 10.6368 0.0593659 10.8359 0.139555C11.298 0.325627 11.6651 0.682529 11.8565 1.13175C11.9389 1.32534 11.9709 1.52502 11.9858 1.73642C12 1.9395 12 2.18686 12 2.48316V2.5C12 2.77614 11.7697 3 11.4857 3C11.2017 3 10.9714 2.77614 10.9714 2.5C10.9714 2.18253 10.9711 1.96947 10.9596 1.80449C10.9483 1.64401 10.9281 1.56587 10.9062 1.51443C10.8192 1.31024 10.6523 1.14801 10.4423 1.06343C10.3894 1.04213 10.309 1.02248 10.1439 1.01153C9.97426 1.00027 9.75511 1 9.42857 1H6.51429L6.50039 11H8.04325C8.32728 11 8.55753 11.2239 8.55753 11.5C8.55753 11.7761 8.32728 12 8.04325 12H3.92896C3.64493 12 3.41468 11.7761 3.41468 11.5C3.41468 11.2239 3.64493 11 3.92896 11H5.47182L5.48571 1H2.57143C2.24489 1 2.02574 1.00027 1.85605 1.01153C1.69098 1.02248 1.61061 1.04213 1.5577 1.06343C1.34768 1.14801 1.18081 1.31024 1.09382 1.51443C1.0719 1.56587 1.05169 1.64401 1.04043 1.8045C1.02885 1.96947 1.02857 2.18253 1.02857 2.5C1.02857 2.77614 0.798318 3 0.514286 3C0.230254 3 4.29841e-07 2.77614 4.29841e-07 2.5L1.8461e-07 2.48317C-4.78131e-06 2.18686 -9.01605e-06 1.9395 0.0142426 1.73642C0.0290784 1.52502 0.0610621 1.32534 0.143542 1.13175C0.334931 0.682529 0.70203 0.325627 1.16408 0.139555C1.36321 0.0593659 1.5686 0.0282706 1.78604 0.0138469C1.99491 -8.76095e-06 2.24934 -4.6485e-06 2.55411 1.79477e-07Z"/>
</svg>
