<svg width="16" height="16" viewBox="0 0 16 16" xmlns="http://www.w3.org/2000/svg">
<path fill-rule="evenodd" clip-rule="evenodd" d="M4.99976 12.5308V3.48318C4.99976 3.18687 4.99976 2.93951 5.01361 2.73643C5.02804 2.52503 5.05913 2.32535 5.13932 2.13176C5.32539 1.68254 5.68229 1.32563 6.13151 1.13956C6.3251 1.05937 6.52479 1.02828 6.73619 1.01385C6.93926 0.999998 7.18662 1 7.48293 1.00001L7.5166 1.00001C7.81291 1 9.0605 1.01344 9.26358 1.02729C9.47498 1.04172 9.67466 1.07281 9.86825 1.153C10.3175 1.33907 10.6744 1.69598 10.8604 2.14519C10.9406 2.33879 10.9717 2.53847 10.9862 2.74987C11 2.95294 11 3.2003 11 3.49661L11 12.5442C11 12.8405 11 13.0879 10.9862 13.291C10.9717 13.5024 10.9406 13.7021 10.8604 13.8957C10.6744 14.3449 10.3175 14.7018 9.86825 14.8878C9.67466 14.968 9.47498 14.9991 9.26358 15.0136C9.0605 15.0274 7.81291 15.014 7.5166 15.014H7.48293C7.18662 15.014 6.93926 15.014 6.73619 15.0001C6.52479 14.9857 6.3251 14.9546 6.13151 14.8744C5.68229 14.6883 5.32539 14.3314 5.13932 13.8822C5.05913 13.6886 5.02803 13.4889 5.01361 13.2775C4.99976 13.0745 4.99976 12.8271 4.99976 12.5308ZM6.01129 13.2095C6.02224 13.3699 6.04189 13.4481 6.0632 13.4995C6.14778 13.7037 6.31001 13.8659 6.5142 13.9505C6.56563 13.9718 6.64378 13.9915 6.80426 14.0024C6.96924 14.0137 7.1823 14.014 7.49976 14.014C7.81723 14.014 9.03053 14.0271 9.19551 14.0159C9.35599 14.0049 9.43413 13.9853 9.48557 13.964C9.68976 13.8794 9.85199 13.7172 9.93657 13.513C9.95787 13.4615 9.97752 13.3834 9.98847 13.2229C9.99973 13.0579 10 12.8449 10 12.5274V3.51345C10 3.19598 9.99973 2.98292 9.98847 2.81794C9.97752 2.65746 9.95787 2.57931 9.93657 2.52788C9.85199 2.32369 9.68976 2.16146 9.48557 2.07688C9.43413 2.05558 9.35599 2.03592 9.19551 2.02497C9.03053 2.01372 7.81723 2.00001 7.49976 2.00001C7.1823 2.00001 6.96923 2.00028 6.80426 2.01154C6.64377 2.02248 6.56563 2.04214 6.5142 2.06344C6.31001 2.14802 6.14778 2.31025 6.0632 2.51444C6.04189 2.56587 6.02224 2.64402 6.01129 2.8045C6.00004 2.96948 5.99976 3.18254 5.99976 3.50001V12.514C5.99976 12.8314 6.00004 13.0445 6.01129 13.2095Z"/>
<path fill-rule="evenodd" clip-rule="evenodd" d="M1 14.5C1 14.2239 1.22386 14 1.5 14C1.85883 14 2.09588 13.9996 2.27759 13.9837C2.45243 13.9685 2.53002 13.9418 2.57873 13.9154C2.71756 13.8399 2.83631 13.7162 2.91259 13.5565C2.94283 13.4932 2.96958 13.3981 2.98443 13.2042C2.99966 13.0054 3 12.7478 3 12.3667L3 3.63333C3 3.25223 2.99966 2.99459 2.98443 2.79579C2.96958 2.60194 2.94283 2.50683 2.91259 2.44353C2.83631 2.28385 2.71756 2.16009 2.57873 2.08464C2.53002 2.05816 2.45243 2.03152 2.27759 2.01628C2.09588 2.00044 1.85883 2 1.5 2C1.22386 2 1 1.77614 1 1.5C1 1.22386 1.22386 1 1.5 1L1.52114 1C1.85315 0.999991 2.13411 0.999983 2.36441 1.02005C2.60644 1.04115 2.83757 1.08716 3.05625 1.20602C3.38783 1.38622 3.65152 1.67041 3.81493 2.0125C3.92093 2.23441 3.9623 2.46859 3.98151 2.71942C4.00001 2.96096 4.00001 3.25709 4 3.61411L4 12.3859C4.00001 12.7429 4.00001 13.039 3.98151 13.2806C3.9623 13.5314 3.92093 13.7656 3.81493 13.9875C3.65152 14.3296 3.38783 14.6138 3.05625 14.794C2.83757 14.9128 2.60645 14.9589 2.36441 14.9799C2.13411 15 1.85316 15 1.52117 15C1.51413 15 1.50708 15 1.5 15C1.22386 15 1 14.7761 1 14.5Z"/>
<path fill-rule="evenodd" clip-rule="evenodd" d="M15 14.5C15 14.2239 14.7761 14 14.5 14C14.1412 14 13.9041 13.9996 13.7224 13.9837C13.5476 13.9685 13.47 13.9418 13.4213 13.9154C13.2824 13.8399 13.1637 13.7162 13.0874 13.5565C13.0572 13.4932 13.0304 13.3981 13.0156 13.2042C13.0003 13.0054 13 12.7478 13 12.3667L13 3.63333C13 3.25223 13.0003 2.99459 13.0156 2.79579C13.0304 2.60194 13.0572 2.50683 13.0874 2.44353C13.1637 2.28385 13.2824 2.16009 13.4213 2.08464C13.47 2.05816 13.5476 2.03152 13.7224 2.01628C13.9041 2.00044 14.1412 2 14.5 2C14.7761 2 15 1.77614 15 1.5C15 1.22386 14.7761 1 14.5 1L14.4789 1C14.1468 0.999991 13.8659 0.999983 13.6356 1.02005C13.3936 1.04115 13.1624 1.08716 12.9438 1.20602C12.6122 1.38622 12.3485 1.67041 12.1851 2.0125C12.0791 2.23441 12.0377 2.46859 12.0185 2.71942C12 2.96096 12 3.25709 12 3.61411L12 12.3859C12 12.7429 12 13.039 12.0185 13.2806C12.0377 13.5314 12.0791 13.7656 12.1851 13.9875C12.3485 14.3296 12.6122 14.6138 12.9438 14.794C13.1624 14.9128 13.3936 14.9589 13.6356 14.9799C13.8659 15 14.1468 15 14.4788 15C14.4859 15 14.4929 15 14.5 15C14.7761 15 15 14.7761 15 14.5Z"/>
</svg>
