<svg width="15" height="15" viewBox="0 0 15 15" xmlns="http://www.w3.org/2000/svg">
<path fill-rule="evenodd" clip-rule="evenodd" d="M3.54556 1H11.4544C11.7604 0.999995 12.015 0.999991 12.2239 1.01424C12.4411 1.02906 12.6451 1.06095 12.8425 1.14273C13.302 1.33303 13.667 1.69804 13.8573 2.15747C13.9174 2.30269 13.9403 2.50582 13.9538 2.6566C13.9698 2.83436 13.98 3.04652 13.9867 3.26357C14 3.69737 14 4.1781 14 4.49721V4.5C14 4.77614 13.7761 5 13.5 5C13.2239 5 13 4.77614 13 4.5C13 4.17843 13 3.71145 12.9872 3.29426C12.9807 3.08518 12.9713 2.89545 12.9579 2.74628C12.9477 2.634 12.9374 2.57344 12.9333 2.54917C12.9309 2.53537 12.9306 2.53331 12.9334 2.54015C12.8446 2.32575 12.6742 2.15541 12.4598 2.06661C12.4046 2.04371 12.3221 2.02327 12.1558 2.01192C11.985 2.00027 11.7647 2 11.4375 2H8L7.99999 13H9.56249C9.83863 13 10.0625 13.2239 10.0625 13.5C10.0625 13.7761 9.83863 14 9.56249 14H5.43749C5.16134 14 4.93749 13.7761 4.93749 13.5C4.93749 13.2239 5.16134 13 5.43749 13H6.99999L7 2H3.56248C3.2353 2 3.01496 2.00027 2.84417 2.01192C2.67788 2.02327 2.59539 2.04371 2.54013 2.06661C2.32573 2.15541 2.15539 2.32575 2.06658 2.54015C2.06942 2.5333 2.06907 2.53536 2.06671 2.54917C2.06257 2.57343 2.05223 2.63399 2.04212 2.74627C2.02869 2.89544 2.01925 3.08517 2.01284 3.29425C2.00003 3.71144 2 4.17842 2 4.5C2 4.77614 1.77614 5 1.5 5C1.22386 5 1 4.77614 1 4.5V4.49681C1 4.1777 1 3.69719 1.01331 3.26357C1.01997 3.04652 1.03015 2.83437 1.04615 2.65661C1.05972 2.50583 1.08255 2.3027 1.1427 2.15747C1.333 1.69804 1.69802 1.33303 2.15744 1.14273C2.35487 1.06095 2.55889 1.02906 2.7761 1.01424C2.98498 0.999991 3.23961 0.999995 3.54556 1Z"/>
</svg>
