<svg width="16" height="16" viewBox="0 0 16 16" xmlns="http://www.w3.org/2000/svg">
<path fill-rule="evenodd" clip-rule="evenodd" d="M5.84527 1.00026L10.3216 0.999954C10.8635 0.999949 11.3006 0.999945 11.6546 1.02886C12.019 1.05864 12.3391 1.12154 12.6352 1.27244C13.1056 1.51212 13.4881 1.89457 13.7278 2.36498C13.8787 2.66112 13.9416 2.98122 13.9713 3.34564C14.0003 3.69958 14.0002 4.13665 14.0002 4.67854V8.49995C14.0002 8.7761 13.7764 8.99995 13.5002 8.99995C13.2241 8.99995 13.0002 8.7761 13.0002 8.49995V4.69995C13.0002 4.13165 12.9999 3.73549 12.9747 3.42707C12.9499 3.12449 12.9038 2.95065 12.8368 2.81897C12.6929 2.53673 12.4635 2.30725 12.1812 2.16344C12.0496 2.09635 11.8757 2.05026 11.5731 2.02554C11.2647 2.00034 10.8685 1.99995 10.3002 1.99995L5.86667 2.00026C5.29837 2.00026 4.73579 1.97154 4.42736 1.99674C4.12478 2.02146 3.95094 2.06755 3.81926 2.13464C3.53702 2.27845 3.30754 2.50792 3.16373 2.79017C3.09664 2.92185 3.05055 3.09569 3.02583 3.39827C3.00063 3.70669 3.00024 4.10285 3.00024 4.67115L3.00024 11.2708C3.00024 11.8391 3.00063 12.2352 3.02583 12.5437C3.05055 12.8462 3.09664 13.0201 3.16373 13.1518C3.30754 13.434 3.53702 13.6635 3.81926 13.8073C3.95094 13.8744 4.12478 13.9205 4.42736 13.9452C4.73579 13.9704 5.29837 13.9999 5.86667 13.9999H8.5C8.77614 13.9999 9 14.2237 9 14.4999C9 14.776 8.77614 14.9999 8.5 14.9999H5.84531C5.3034 14.9999 4.69988 14.9708 4.34593 14.9419C3.98151 14.9121 3.66141 14.8492 3.36527 14.6983C2.89486 14.4586 2.51241 14.0762 2.27273 13.6058C2.12183 13.3096 2.05893 12.9895 2.02915 12.6251C2.00024 12.2712 2.00024 11.8341 2.00024 11.2922L2.00024 4.64975C2.00024 4.10786 2.00024 3.67078 2.02915 3.31684C2.05893 2.95242 2.12183 2.63232 2.27273 2.33618C2.51241 1.86577 2.89486 1.48332 3.36527 1.24364C3.66141 1.09274 3.98151 1.02984 4.34593 1.00006C4.69987 0.971144 5.30338 1.00025 5.84527 1.00026ZM5.00024 5.50006C5.00024 5.22392 5.2241 5.00006 5.50024 5.00006H10.5002C10.7764 5.00006 11.0002 5.22392 11.0002 5.50006C11.0002 5.7762 10.7764 6.00006 10.5002 6.00006H5.50024C5.2241 6.00006 5.00024 5.7762 5.00024 5.50006ZM5.00024 8.50006C5.00024 8.22392 5.2241 8.00006 5.50024 8.00006H9.50024C9.77639 8.00006 10.0002 8.22392 10.0002 8.50006C10.0002 8.77621 9.77639 9.00006 9.50024 9.00006H5.50024C5.2241 9.00006 5.00024 8.77621 5.00024 8.50006ZM14.3536 10.6466C14.5488 10.8418 14.5488 11.1584 14.3536 11.3537L11.3536 14.3537C11.2598 14.4474 11.1326 14.5001 11 14.5001C10.8674 14.5001 10.7402 14.4474 10.6465 14.3537L9.31312 13.0203C9.11786 12.8251 9.11786 12.5085 9.31312 12.3132C9.50838 12.118 9.82497 12.118 10.0202 12.3132L11 13.293L13.6465 10.6466C13.8417 10.4513 14.1583 10.4513 14.3536 10.6466Z"/>
</svg>
