<svg width="12" height="12" viewBox="0 0 12 12" xmlns="http://www.w3.org/2000/svg">
<path fill-rule="evenodd" clip-rule="evenodd" d="M11 1H1L1 4.5H11V1ZM1 0C0.447715 0 0 0.447715 0 1L0 4.5C0 5.05228 0.447715 5.5 1 5.5H11C11.5523 5.5 12 5.05228 12 4.5V1C12 0.447715 11.5523 0 11 0H1Z"/>
<path fill-rule="evenodd" clip-rule="evenodd" d="M11 7.5H1L1 11H11V7.5ZM1 6.5C0.447715 6.5 0 6.94772 0 7.5L0 11C0 11.5523 0.447715 12 1 12H11C11.5523 12 12 11.5523 12 11V7.5C12 6.94772 11.5523 6.5 11 6.5H1Z"/>
</svg>
