<svg width="12" height="12" viewBox="0 0 12 12" xmlns="http://www.w3.org/2000/svg">
<path d="M0 3.5C0 3.22386 0.223858 3 0.5 3H11.5C11.7761 3 12 3.22386 12 3.5C12 3.77614 11.7761 4 11.5 4H0.5C0.223858 4 0 3.77614 0 3.5Z"/>
<path d="M0 8.5C0 8.22386 0.223858 8 0.5 8H11.5C11.7761 8 12 8.22386 12 8.5C12 8.77614 11.7761 9 11.5 9H0.5C0.223858 9 0 8.77614 0 8.5Z"/>
<path d="M3 0.5C3 0.223858 3.22386 0 3.5 0C3.77614 0 4 0.223858 4 0.5V11.5C4 11.7761 3.77614 12 3.5 12C3.22386 12 3 11.7761 3 11.5V0.5Z"/>
<path d="M8 0.5C8 0.223858 8.22386 0 8.5 0C8.77614 0 9 0.223858 9 0.5V11.5C9 11.7761 8.77614 12 8.5 12C8.22386 12 8 11.7761 8 11.5V0.5Z"/>
</svg>
