<svg width="15" height="15" viewBox="0 0 15 15" xmlns="http://www.w3.org/2000/svg">
<path d="M7.49933 1C7.77547 1 7.99933 1.22386 7.99933 1.5V13.5C7.99933 13.7761 7.77547 14 7.49933 14C7.22319 14 6.99933 13.7761 6.99933 13.5V1.5C6.99933 1.22386 7.22319 1 7.49933 1Z" fill-rule="evenodd" clip-rule="evenodd" />
<path d="M11.8893 9.91597C11.6596 9.7628 11.5975 9.45236 11.7506 9.2226L12.5657 7.99995L9 8V7L12.5657 6.99995L11.7506 5.7773C11.5975 5.54753 11.6596 5.2371 11.8893 5.08392C12.1191 4.93075 12.4295 4.99283 12.5827 5.2226L13.916 7.2226C14.028 7.39055 14.028 7.60935 13.916 7.7773L12.5827 9.7773C12.4295 10.0071 12.1191 10.0691 11.8893 9.91597Z" fill-rule="evenodd" clip-rule="evenodd" />
<path d="M3.11068 5.08429C3.34045 5.23746 3.40253 5.5479 3.24936 5.77766L2.43426 7.00031L6 7.00026V8.00026L2.43426 8.00031L3.24936 9.22296C3.40253 9.45273 3.34045 9.76316 3.11068 9.91634C2.88092 10.0695 2.57048 10.0074 2.41731 9.77766L1.08397 7.77766C0.972008 7.60971 0.972008 7.39091 1.08397 7.22296L2.41731 5.22296C2.57048 4.9932 2.88092 4.93111 3.11068 5.08429Z" fill-rule="evenodd" clip-rule="evenodd" />
</svg>
