<svg width="15" height="15" viewBox="0 0 15 15" xmlns="http://www.w3.org/2000/svg">
<path d="M4.51408 0.999996L10.4868 1.00002C10.8342 1.00002 11.1231 1.00002 11.3582 1.01824C11.6023 1.03646 11.8296 1.07716 12.0432 1.17859C12.3731 1.33582 12.6413 1.58672 12.8094 1.89531C12.9178 2.09575 12.9613 2.30773 12.9814 2.53611C13.0009 2.7566 13.0009 3.02628 13.0003 3.35123V11.6476C13.0003 11.9725 13.0003 12.2428 12.9808 12.4627C12.9613 12.6911 12.9178 12.9037 12.8094 13.1035C12.6413 13.4121 12.3731 13.663 12.0432 13.8202C11.8289 13.9217 11.6023 13.9624 11.3582 13.9812C11.1225 13.9994 10.8342 13.9994 10.4868 13.9994L4.51343 13.9994C4.16605 13.9994 3.87712 13.9994 3.64207 13.9812C3.39794 13.9623 3.17068 13.9216 2.95706 13.8202C2.62718 13.663 2.35897 13.4121 2.19089 13.1035C2.08246 12.903 2.03896 12.6911 2.01948 12.4627C2 12.2422 2 11.9725 2 11.6476V3.3506C2 3.02565 2 2.75536 2.01948 2.53548C2.03896 2.3071 2.08246 2.09452 2.19089 1.89468C2.35897 1.58609 2.62718 1.33519 2.95706 1.17796C3.17133 1.07653 3.39794 1.03583 3.64207 1.01761C3.87777 0.999389 4.1667 0.999996 4.51408 0.999996ZM3.80708 1.99939C3.61878 2.01397 3.52528 2.03948 3.461 2.07045C3.30222 2.14615 3.17312 2.26692 3.0922 2.41545C3.05974 2.47558 3.03182 2.56305 3.01623 2.73919C3.00065 2.9208 3 3.15526 3 3.50268V11.4994C3 11.8468 3 12.0813 3.01623 12.2629C3.03182 12.439 3.05909 12.5265 3.0922 12.5866C3.17312 12.7352 3.30222 12.8559 3.461 12.9316C3.52528 12.962 3.61878 12.9881 3.80708 13.0027C4.00122 13.0173 4.25184 13.0179 4.62324 13.0179H10.3768C10.7482 13.0179 10.9988 13.0179 11.1929 13.0027C11.3812 12.9881 11.4747 12.9626 11.539 12.9316C11.6981 12.8563 11.8273 12.7354 11.9078 12.5866C11.9403 12.5265 11.9682 12.439 11.9838 12.2629C11.9994 12.0813 12 11.8468 12 11.4994V3.50268C12 3.15526 12 2.9208 11.9838 2.73919C11.9682 2.56305 11.9409 2.47559 11.9078 2.41545C11.8269 2.26692 11.6978 2.14615 11.539 2.07045C11.4747 2.04008 11.3812 2.01397 11.1929 1.99939C10.9988 1.98481 10.7482 1.9842 10.3768 1.9842L4.62324 1.98421C4.25184 1.98421 4.00122 1.98421 3.80708 1.99939Z"/>
<path d="M6.74658 10.75C6.74658 10.3358 7.08237 10 7.49658 10L7.50324 10C7.91746 10 8.25324 10.3358 8.25324 10.75C8.25324 11.1642 7.91746 11.5 7.50324 11.5L7.49658 11.5C7.08237 11.5 6.74658 11.1642 6.74658 10.75Z"/>
</svg>
