<svg width="16" height="16" viewBox="0 0 16 16" xmlns="http://www.w3.org/2000/svg">
<path fill-rule="evenodd" clip-rule="evenodd" d="M10.5001 1C10.6327 1 10.7598 1.05268 10.8536 1.14645L15.3536 5.64645C15.5488 5.84171 15.5488 6.15829 15.3536 6.35356C15.1583 6.54882 14.8417 6.54881 14.6464 6.35355L11.0001 2.70712V8.5239C11.0001 9.55376 11.0001 10.3593 10.9437 11.0064C10.8862 11.6653 10.7676 12.2052 10.5034 12.6912C10.0675 13.4932 9.37538 14.1394 8.53153 14.5424C7.57275 15.0004 6.50826 15.0003 4.4244 15C4.37246 15 4.31989 15 4.26667 15H2C1.72386 15 1.5 14.7761 1.5 14.5C1.5 14.2239 1.72386 14 2 14H4.26667C6.55863 14 7.37189 13.9882 8.1005 13.6401C8.76195 13.3241 9.29366 12.8229 9.62477 12.2137C9.79657 11.8976 9.89588 11.5113 9.94745 10.9196C9.99961 10.321 10.0001 9.55889 10.0001 8.5V2.7071L6.35355 6.35356C6.15829 6.54882 5.84171 6.54881 5.64644 6.35355C5.45118 6.15829 5.45119 5.84171 5.64645 5.64644L10.1465 1.14644C10.2403 1.05268 10.3674 0.999999 10.5001 1Z"/>
</svg>
