<svg width="15" height="15" viewBox="0 0 15 15" xmlns="http://www.w3.org/2000/svg">
<path fill-rule="evenodd" clip-rule="evenodd" d="M14 1.5C14 1.77614 13.7761 2 13.5 2L1.5 2C1.22386 2 1 1.77614 1 1.5C1 1.22386 1.22386 0.999999 1.5 0.999999L13.5 1C13.7761 1 14 1.22386 14 1.5ZM14 13.5C14 13.7761 13.7761 14 13.5 14L1.5 14C1.22386 14 0.999999 13.7761 0.999999 13.5C0.999999 13.2239 1.22386 13 1.5 13L13.5 13C13.7761 13 14 13.2239 14 13.5ZM10 3.5C10 3.77614 9.77614 4 9.5 4L8 4L8 11L9.5 11C9.77614 11 10 11.2239 10 11.5C10 11.7761 9.77614 12 9.5 12L5.5 12C5.22386 12 5 11.7761 5 11.5C5 11.2239 5.22386 11 5.5 11L7 11L7 4L5.5 4C5.22386 4 5 3.77614 5 3.5C5 3.22386 5.22386 3 5.5 3L7.49951 3L9.5 3C9.77614 3 10 3.22386 10 3.5Z"/>
</svg>
