<svg width="15" height="15" viewBox="0 0 15 15" xmlns="http://www.w3.org/2000/svg">
<path fill-rule="evenodd" clip-rule="evenodd" d="M1.5 1C1.77614 1 2 1.22386 2 1.5V13.5C2 13.7761 1.77614 14 1.5 14C1.22386 14 1 13.7761 1 13.5V1.5C1 1.22386 1.22386 1 1.5 1ZM13.5 1C13.7761 1 14 1.22386 14 1.5V13.5C14 13.7761 13.7761 14 13.5 14C13.2239 14 13 13.7761 13 13.5V1.5C13 1.22386 13.2239 1 13.5 1ZM3.5 5C3.77614 5 4 5.22386 4 5.5V7H11V5.5C11 5.22386 11.2239 5 11.5 5C11.7761 5 12 5.22386 12 5.5L12 9.5C12 9.77614 11.7761 10 11.5 10C11.2239 10 11 9.77614 11 9.5V8H4L4 9.5C4 9.77614 3.77614 10 3.5 10C3.22386 10 3 9.77614 3 9.5V7.50049L3 5.5C3 5.22386 3.22386 5 3.5 5Z"/>
</svg>
