<svg width="16" height="16" viewBox="0 0 16 16" xmlns="http://www.w3.org/2000/svg">
<path d="M12.8185 3.18145C12.9347 3.29763 13 3.45521 13 3.61951C13 3.78381 12.9347 3.94138 12.8185 4.05756L8.87611 8L12.8185 11.9424C12.8761 12 12.9217 12.0683 12.9528 12.1434C12.984 12.2186 13 12.2991 13 12.3805C13 12.4618 12.984 12.5424 12.9528 12.6176C12.9217 12.6927 12.8761 12.761 12.8186 12.8186C12.761 12.8761 12.6927 12.9217 12.6176 12.9528C12.5424 12.984 12.4618 13 12.3805 13C12.2991 13 12.2186 12.984 12.1434 12.9528C12.0683 12.9217 12 12.8761 11.9424 12.8185L8 8.87611L4.05756 12.8185C4.00004 12.8761 3.93174 12.9217 3.85658 12.9528C3.78142 12.984 3.70086 13 3.61951 13C3.53815 13 3.45759 12.984 3.38243 12.9528C3.30727 12.9217 3.23897 12.8761 3.18145 12.8186C3.12392 12.761 3.07829 12.6927 3.04716 12.6176C3.01602 12.5424 3 12.4618 3 12.3805C3 12.2991 3.01603 12.2186 3.04716 12.1434C3.07829 12.0683 3.12393 12 3.18145 11.9424L7.12389 8L3.18145 4.05756C3.12393 4.00004 3.07829 3.93174 3.04716 3.85658C3.01603 3.78142 3 3.70086 3 3.61951C3 3.53815 3.01602 3.45759 3.04716 3.38243C3.07829 3.30727 3.12392 3.23897 3.18145 3.18145C3.23897 3.12392 3.30727 3.07829 3.38243 3.04716C3.45759 3.01602 3.53815 3 3.61951 3C3.70086 3 3.78142 3.01603 3.85658 3.04716C3.93174 3.07829 4.00004 3.12393 4.05756 3.18145L8 7.12389L11.9424 3.18145C12.0586 3.06528 12.2162 3.00001 12.3805 3.00001C12.5448 3.00001 12.7024 3.06528 12.8185 3.18145Z"/>
</svg>
