<svg width="16" height="16" viewBox="0 0 16 16" xmlns="http://www.w3.org/2000/svg">
<path fill-rule="evenodd" clip-rule="evenodd" d="M4.49999 1.5C4.6326 1.5 4.75977 1.55268 4.85354 1.64645L7.85355 4.64645C8.04882 4.84171 8.04882 5.15829 7.85355 5.35355C7.65829 5.54882 7.34171 5.54882 7.14645 5.35355L4.99999 3.2071V14C4.99999 14.2761 4.77613 14.5 4.49999 14.5C4.22385 14.5 3.99999 14.2761 3.99999 14V3.20711L1.85355 5.35355C1.65829 5.54882 1.34171 5.54882 1.14645 5.35355C0.951185 5.15829 0.951184 4.84171 1.14645 4.64645L4.14643 1.64645C4.2402 1.55268 4.36738 1.5 4.49999 1.5ZM11.5 1.5C11.7761 1.5 12 1.72386 12 2V12.7929L14.1464 10.6464C14.3417 10.4512 14.6583 10.4512 14.8536 10.6464C15.0488 10.8417 15.0488 11.1583 14.8536 11.3536L11.8536 14.3536C11.6583 14.5488 11.3417 14.5488 11.1464 14.3536L8.14645 11.3536C7.95118 11.1583 7.95118 10.8417 8.14645 10.6464C8.34171 10.4512 8.65829 10.4512 8.85355 10.6464L11 12.7929V2C11 1.72386 11.2239 1.5 11.5 1.5Z"/>
</svg>
