<svg width="16" height="16" viewBox="0 0 16 16" xmlns="http://www.w3.org/2000/svg">
<path fill-rule="evenodd" clip-rule="evenodd" d="M4.6786 1H11.3214C11.8633 0.999995 12.3004 0.999991 12.6543 1.02891C13.0187 1.05868 13.3388 1.12159 13.635 1.27248C14.1054 1.51217 14.4878 1.89462 14.7275 2.36502C14.8784 2.66117 14.9413 2.98126 14.9711 3.34569C15 3.69962 15 4.1367 15 4.67858V11.3214C15 11.8633 15 12.3004 14.9711 12.6543C14.9413 13.0187 14.8784 13.3388 14.7275 13.635C14.4878 14.1054 14.1054 14.4878 13.635 14.7275C13.3388 14.8784 13.0187 14.9413 12.6543 14.9711C12.3004 15 11.8633 15 11.3214 15H4.67858C4.1367 15 3.69963 15 3.34569 14.9711C2.98126 14.9413 2.66117 14.8784 2.36502 14.7275C1.89462 14.4878 1.51217 14.1054 1.27248 13.635C1.12159 13.3388 1.05868 13.0187 1.02891 12.6543C0.999991 12.3004 0.999995 11.8633 1 11.3214V4.6786C0.999995 4.13671 0.999991 3.69963 1.02891 3.34569C1.05868 2.98126 1.12159 2.66117 1.27248 2.36502C1.51217 1.89462 1.89462 1.51217 2.36502 1.27248C2.66117 1.12159 2.98126 1.05868 3.34569 1.02891C3.69963 0.999991 4.13671 0.999995 4.6786 1ZM3.42712 2.02559C3.12454 2.05031 2.95069 2.0964 2.81901 2.16349C2.53677 2.3073 2.3073 2.53677 2.16349 2.81901C2.0964 2.95069 2.05031 3.12454 2.02559 3.42712C2.00039 3.73554 2 4.1317 2 4.7V11.3C2 11.8683 2.00039 12.2645 2.02559 12.5729C2.05031 12.8755 2.0964 13.0493 2.16349 13.181C2.3073 13.4632 2.53677 13.6927 2.81901 13.8365C2.95069 13.9036 3.12454 13.9497 3.42712 13.9744C3.73554 13.9996 4.1317 14 4.7 14H11.3C11.8683 14 12.2645 13.9996 12.5729 13.9744C12.8755 13.9497 13.0493 13.9036 13.181 13.8365C13.4632 13.6927 13.6927 13.4632 13.8365 13.181C13.9036 13.0493 13.9497 12.8755 13.9744 12.5729C13.9996 12.2645 14 11.8683 14 11.3V4.7C14 4.1317 13.9996 3.73554 13.9744 3.42712C13.9497 3.12454 13.9036 2.95069 13.8365 2.81901C13.6927 2.53677 13.4632 2.3073 13.181 2.16349C13.0493 2.0964 12.8755 2.05031 12.5729 2.02559C12.2645 2.00039 11.8683 2 11.3 2H4.7C4.1317 2 3.73554 2.00039 3.42712 2.02559ZM3.0002 4.49996C3.0002 4.22382 3.22405 3.99996 3.5002 3.99996H12.5002C12.7763 3.99996 13.0002 4.22382 13.0002 4.49996C13.0002 4.7761 12.7763 4.99996 12.5002 4.99996H3.5002C3.22405 4.99996 3.0002 4.7761 3.0002 4.49996ZM3.0002 11.5C3.0002 11.2238 3.22405 11 3.5002 11L12.5002 11C12.7763 11 13.0002 11.2238 13.0002 11.5C13.0002 11.7761 12.7763 12 12.5002 12L3.5002 12C3.22405 12 3.0002 11.7761 3.0002 11.5Z"/>
</svg>
