<svg width="16" height="16" viewBox="0 0 16 16" xmlns="http://www.w3.org/2000/svg">
<path fill-rule="evenodd" clip-rule="evenodd" d="M12.2517 1.14645C12.447 0.951185 12.7636 0.951185 12.9588 1.14645L14.8536 3.04118C15.0488 3.23644 15.0488 3.55302 14.8536 3.74828C14.6583 3.94354 14.3417 3.94354 14.1464 3.74828L13.1053 2.7071V5.28946C13.1053 5.5656 12.8814 5.78946 12.6053 5.78946C12.3291 5.78946 12.1053 5.5656 12.1053 5.28946V2.7071L11.0641 3.74828C10.8688 3.94354 10.5522 3.94354 10.357 3.74828C10.1617 3.55302 10.1617 3.23644 10.357 3.04118L12.2517 1.14645ZM4.5103 1.63158L7.5 1.63158C7.77614 1.63158 8 1.85543 8 2.13158C8 2.40772 7.77614 2.63157 7.5 2.63157H4.53158C3.99275 2.63157 3.6187 2.63196 3.32784 2.65573C3.0428 2.67902 2.88196 2.72223 2.76154 2.78359C2.4991 2.91731 2.28574 3.13068 2.15202 3.39311C2.09066 3.51353 2.04744 3.67438 2.02415 3.95941C2.00039 4.25027 2 4.62432 2 5.16315V10.4684C2 11.0072 2.00039 11.3813 2.02415 11.6721C2.04744 11.9572 2.09066 12.118 2.15202 12.2384C2.28574 12.5009 2.4991 12.7142 2.76154 12.8479C2.78296 12.8589 2.80566 12.8692 2.83011 12.879C2.88726 12.7549 2.96953 12.6618 3.02328 12.6036C3.11508 12.5043 3.24155 12.3893 3.37872 12.2646L8.74773 7.38373C8.85112 7.28972 8.94827 7.20139 9.03623 7.13283C9.13238 7.05789 9.24541 6.98375 9.38715 6.93772C9.5912 6.87144 9.8099 6.86454 10.0177 6.91782C10.1621 6.95483 10.2796 7.0217 10.3802 7.09043C10.4723 7.15331 10.5749 7.23533 10.684 7.32263L12.4627 8.74562C12.4751 8.75551 12.4873 8.76527 12.4993 8.77491C12.7025 8.9372 12.8653 9.0673 12.9922 9.22899C13.1506 9.43084 13.2631 9.66483 13.3218 9.91464C13.3687 10.1147 13.3686 10.3232 13.3684 10.5832C13.3684 10.5986 13.3684 10.6142 13.3684 10.6301V10.6483C13.3684 10.7559 13.3684 10.8584 13.3681 10.9563C13.3683 10.962 13.3684 10.9678 13.3684 10.9737C13.3684 10.9993 13.3684 11.0245 13.3684 11.0493C13.3686 11.5633 13.3688 11.9193 13.2868 12.225C13.1899 12.5866 13.0119 12.9135 12.773 13.1854C12.6947 13.2746 12.6099 13.3578 12.5192 13.4345C12.2544 13.6583 11.9398 13.8256 11.5935 13.9184C11.2877 14.0003 10.9318 14.0002 10.4178 14C10.3929 14 10.3677 14 10.3421 14H10.0477C10.0374 14 10.027 14 10.0167 14H4.51034C4.49759 14 4.48489 14 4.47226 14L4.04961 14C3.88395 14 3.72985 14 3.60278 13.9916C3.47512 13.9875 3.35655 13.9815 3.2464 13.9725C2.89953 13.9441 2.59244 13.8841 2.30755 13.739C1.85695 13.5094 1.4906 13.143 1.26101 12.6924C1.11585 12.4075 1.05582 12.1004 1.02748 11.7536C0.999991 11.4172 0.999995 11.0022 1 10.4897V5.14187C0.999995 4.62935 0.999991 4.21437 1.02748 3.87797C1.05582 3.5311 1.11585 3.22401 1.26101 2.93912C1.4906 2.48853 1.85695 2.12218 2.30755 1.89259C2.59244 1.74743 2.89953 1.68739 3.2464 1.65905C3.5828 1.63157 3.99778 1.63157 4.5103 1.63158ZM12.0672 12.471C12.1433 12.3749 12.207 12.2684 12.256 12.1538C12.3012 12.0481 12.3333 11.9078 12.3506 11.6622C12.3681 11.4119 12.3684 11.0916 12.3684 10.6301C12.3684 10.3005 12.3653 10.216 12.3482 10.1432C12.3228 10.0351 12.2742 9.93378 12.2056 9.84641C12.1594 9.78757 12.0953 9.73236 11.838 9.52649L10.0713 8.11315C9.94593 8.01283 9.87335 7.95519 9.81644 7.91634C9.78676 7.89608 9.77144 7.88816 9.76619 7.88572C9.74405 7.88062 9.72097 7.88135 9.69919 7.88783C9.6941 7.8906 9.67932 7.89946 9.65097 7.92156C9.59662 7.96392 9.52782 8.02602 9.40899 8.13404L4.06654 12.9908C4.06348 12.9936 4.06046 12.9963 4.05746 12.9991C4.20008 12.9999 4.3572 13 4.53158 13H9.99851C10.46 13 10.7804 12.9997 11.0307 12.9821C11.2763 12.9649 11.4166 12.9328 11.5222 12.8876C11.659 12.8291 11.7842 12.7496 11.894 12.6532C11.9571 12.5978 12.0151 12.5368 12.0672 12.471ZM4.97368 4.84209C4.5522 4.84209 4.21053 5.18377 4.21053 5.60525C4.21053 6.02673 4.5522 6.36841 4.97368 6.36841C5.39516 6.36841 5.73684 6.02673 5.73684 5.60525C5.73684 5.18377 5.39516 4.84209 4.97368 4.84209ZM3.21053 5.60525C3.21053 4.63149 3.99992 3.8421 4.97368 3.8421C5.94745 3.8421 6.73684 4.63149 6.73684 5.60525C6.73684 6.57901 5.94745 7.3684 4.97368 7.3684C3.99992 7.3684 3.21053 6.57901 3.21053 5.60525Z"/>
</svg>
