<svg width="16" height="16" viewBox="0 0 16 16" xmlns="http://www.w3.org/2000/svg">
<path fill-rule="evenodd" clip-rule="evenodd" d="M1.5 12.5C1.22386 12.5 1 12.2761 1 12L1 4C1 3.72386 1.22386 3.5 1.5 3.5C1.77614 3.5 2 3.72386 2 4L2 12C2 12.2761 1.77614 12.5 1.5 12.5ZM3.5 14.5C3.5 14.2239 3.72386 14 4 14L12 14C12.2761 14 12.5 14.2239 12.5 14.5C12.5 14.7761 12.2761 15 12 15L4 15C3.72386 15 3.5 14.7761 3.5 14.5ZM3.50003 1.5C3.50003 1.22386 3.72389 1 4.00003 1L12 1C12.2762 1 12.5 1.22386 12.5 1.5C12.5 1.77614 12.2762 2 12 2L4.00003 2C3.72389 2 3.50003 1.77614 3.50003 1.5ZM4 9.02344L4 6.97654C3.99999 6.54876 3.99999 6.20949 4.02366 5.936C4.04879 5.64575 4.10271 5.39426 4.22889 5.14662C4.43022 4.75148 4.75148 4.43022 5.14662 4.22889C5.39426 4.10271 5.64575 4.04879 5.936 4.02366C6.20949 3.99999 6.54876 3.99999 6.97654 4L9.02346 4C9.45124 3.99999 9.79051 3.99999 10.064 4.02366C10.3543 4.04879 10.6057 4.1027 10.8534 4.22889C11.2485 4.43022 11.5698 4.75148 11.7711 5.14662C11.8973 5.39426 11.9512 5.64575 11.9763 5.936C12 6.20949 12 6.54876 12 6.97654L12 9.02346C12 9.45124 12 9.79051 11.9763 10.064C11.9512 10.3543 11.8973 10.6057 11.7711 10.8534C11.5698 11.2485 11.2485 11.5698 10.8534 11.7711C10.6057 11.8973 10.3543 11.9512 10.064 11.9763C9.79051 12 9.45124 12 9.02344 12L6.97656 12C6.54877 12 6.20949 12 5.936 11.9763C5.64575 11.9512 5.39426 11.8973 5.14662 11.7711C4.75148 11.5698 4.43022 11.2485 4.22889 10.8534C4.10271 10.6057 4.04879 10.3543 4.02366 10.064C3.99999 9.79051 3.99999 9.45123 4 9.02344ZM5.01994 9.97775C5.03841 10.1911 5.07168 10.3048 5.11989 10.3994C5.22535 10.6064 5.39363 10.7746 5.60061 10.8801C5.69523 10.9283 5.80889 10.9616 6.02225 10.9801C6.24739 10.9996 6.54278 11 7 11L9 11C9.45722 11 9.75261 10.9996 9.97775 10.9801C10.1911 10.9616 10.3048 10.9283 10.3994 10.8801C10.6064 10.7746 10.7746 10.6064 10.8801 10.3994C10.9283 10.3048 10.9616 10.1911 10.9801 9.97775C10.9996 9.75261 11 9.45722 11 9L11 7C11 6.54278 10.9996 6.24739 10.9801 6.02225C10.9616 5.80889 10.9283 5.69523 10.8801 5.60061C10.7746 5.39363 10.6064 5.22535 10.3994 5.11989C10.3048 5.07168 10.1911 5.03841 9.97775 5.01994C9.75261 5.00044 9.45722 5 9 5L7 5C6.54278 5 6.24739 5.00045 6.02225 5.01994C5.80889 5.03841 5.69523 5.07168 5.60061 5.11989C5.39363 5.22535 5.22535 5.39363 5.11989 5.60061C5.07168 5.69522 5.03841 5.80889 5.01994 6.02225C5.00045 6.24739 5 6.54278 5 7L5 9C5 9.45722 5.00045 9.75261 5.01994 9.97775ZM14.5 12.5C14.2239 12.5 14 12.2761 14 12L14 4C14 3.72386 14.2239 3.5 14.5 3.5C14.7762 3.5 15 3.72386 15 4L15 12C15 12.2761 14.7762 12.5 14.5 12.5Z"/>
</svg>
