<svg width="16" height="16" viewBox="0 0 16 16" xmlns="http://www.w3.org/2000/svg">
<path fill-rule="evenodd" clip-rule="evenodd" d="M1 10.8105L1 5.21955C0.999999 4.66704 0.999998 4.10264 1.0281 3.62206C1.04228 3.37962 1.06412 3.14813 1.09907 2.94307C1.13288 2.74473 1.18411 2.53841 1.27248 2.36496C1.51217 1.89456 1.89462 1.51211 2.36502 1.27242C2.66117 1.12153 2.98126 1.05862 3.34569 1.02885C3.69962 0.999929 4.1367 0.999934 4.67858 0.999939L11.3212 0.999971C11.8631 0.999966 12.3002 0.999961 12.6541 1.02888C13.0185 1.05865 13.3386 1.12156 13.6348 1.27245C14.1052 1.51214 14.4876 1.89459 14.7273 2.36499C14.8157 2.53845 14.8669 2.74476 14.9007 2.9431C14.9357 3.14816 14.9575 3.37965 14.9717 3.6221C14.9998 4.10267 14.9998 4.66707 14.9998 5.21957L14.9998 10.8106C14.9998 11.3627 14.9998 11.9199 14.9717 12.3932C14.945 12.8425 14.8901 13.3156 14.7273 13.635C14.4876 14.1054 14.1052 14.4878 13.6348 14.7275C13.3386 14.8784 13.0185 14.9413 12.6541 14.9711C12.3002 15 11.8631 15 11.3212 15L4.6786 15C4.1367 15 3.69963 15 3.34569 14.9711C2.98126 14.9413 2.66117 14.8784 2.36502 14.7275C1.89462 14.4878 1.51217 14.1053 1.27248 13.6349C1.10975 13.3156 1.05483 12.8425 1.02813 12.3932C0.999998 11.9198 0.999999 11.3627 1 10.8105ZM2.02637 12.3339C2.05417 12.8017 2.10824 13.0725 2.16349 13.181C2.3073 13.4632 2.53677 13.6927 2.81901 13.8365C2.95069 13.9036 3.12454 13.9497 3.42712 13.9744C3.73554 13.9996 4.1317 14 4.7 14L11.2998 14C11.8681 14 12.2643 13.9996 12.5727 13.9744C12.8753 13.9497 13.0491 13.9036 13.1808 13.8365C13.463 13.6927 13.6925 13.4632 13.8363 13.181C13.8916 13.0725 13.9456 12.8017 13.9734 12.3339C13.9996 11.8933 13.9998 11.3645 13.9998 10.8L13.9998 5.22979C13.9998 4.66545 13.9996 4.12886 13.9734 3.68047C13.9603 3.45696 13.9413 3.26576 13.915 3.11113C13.8874 2.9498 13.8569 2.85944 13.8363 2.81899C13.6925 2.53674 13.463 2.30727 13.1808 2.16346C13.0491 2.09637 12.8753 2.05028 12.5727 2.02556C12.2643 2.00036 11.8681 1.99997 11.2998 1.99997L4.7 1.99994C4.1317 1.99994 3.73554 2.00033 3.42712 2.02553C3.12454 2.05025 2.95069 2.09634 2.81901 2.16343C2.53677 2.30724 2.3073 2.53671 2.16349 2.81895C2.14288 2.85941 2.11235 2.94976 2.08485 3.1111C2.0585 3.26573 2.03947 3.45693 2.0264 3.68044C2.00018 4.12882 2 4.66542 2 5.22976L2 10.7999C2 11.3644 2.00018 11.8933 2.02637 12.3339ZM4.5 10.5C4.22386 10.5 4 10.2761 4 9.99997L4 5.99996C4 5.72382 4.22386 5.49996 4.5 5.49996C4.77614 5.49996 5 5.72382 5 5.99996L5 9.99997C5 10.2761 4.77614 10.5 4.5 10.5ZM5.5 11.5C5.5 11.2238 5.72386 11 6 11L7.99942 11L7.9998 11.5L7.99979 12L6 12C5.72386 12 5.5 11.7761 5.5 11.5ZM5.5 4.49996C5.5 4.22382 5.72386 3.99996 6 3.99996L10 3.99996C10.2761 3.99996 10.5 4.22382 10.5 4.49996C10.5 4.77611 10.2761 4.99996 10 4.99996L6 4.99996C5.72386 4.99996 5.5 4.77611 5.5 4.49996ZM7.99942 11L10 11C10.2761 11 10.5 11.2238 10.5 11.5C10.5 11.7761 10.2761 12 10 12L7.99979 12L7.9998 11.5L7.99942 11ZM11.5 10.5C11.2239 10.5 11 10.2761 11 9.99997L11 5.99996C11 5.72382 11.2239 5.49996 11.5 5.49996C11.7761 5.49996 12 5.72382 12 5.99996L12 9.99997C12 10.2761 11.7761 10.5 11.5 10.5Z"/>
</svg>
