<svg width="12" height="12" viewBox="0 0 12 12" xmlns="http://www.w3.org/2000/svg">
<path fill-rule="evenodd" clip-rule="evenodd" d="M5.25827 -6.05363e-07H6.74173C7.03624 -8.59238e-06 7.28672 -1.53817e-05 7.49231 0.016614C7.70812 0.0340698 7.91788 0.07227 8.11851 0.173473C8.42125 0.326183 8.66832 0.570344 8.82347 0.8718C8.92657 1.07213 8.96545 1.28165 8.98317 1.4964C8.99924 1.69109 8.99997 1.72612 9 2H11.5C11.7761 2 12 2.22386 12 2.5C12 2.77614 11.7761 3 11.5 3L10.5 3V8.8811C10.5 9.32522 10.5 9.68904 10.4756 9.98484C10.4503 10.2913 10.3963 10.5687 10.2629 10.8279C10.0545 11.2328 9.72244 11.5611 9.31517 11.7666C9.05512 11.8978 8.77675 11.9509 8.4683 11.9759C8.17014 12 7.80318 12 7.35411 12H4.25699C3.80793 12 3.82986 12 3.53169 11.9759C3.22324 11.9509 2.94487 11.8978 2.68483 11.7666C2.27755 11.5611 1.94549 11.2328 1.73708 10.8279C1.6037 10.5687 1.54969 10.2913 1.5244 9.98484C1.49999 9.68904 1.49999 9.32522 1.5 8.8811L1.5 3L0.5 3C0.223858 3 0 2.77614 0 2.5C0 2.22386 0.223858 2 0.5 2H3C3.00003 1.72612 3.00076 1.69109 3.01683 1.4964C3.03455 1.28165 3.07343 1.07213 3.17653 0.8718C3.33168 0.570344 3.57875 0.326183 3.88149 0.173473C4.08212 0.0722701 4.29188 0.0340698 4.50769 0.016614C4.71328 -1.53817e-05 4.96376 -8.59238e-06 5.25827 -6.05363e-07ZM2.5 3V8.86C2.5 9.33038 2.50039 9.65279 2.52101 9.90259C2.54113 10.1464 2.57795 10.2765 2.62623 10.3703C2.73739 10.5863 2.91527 10.7628 3.1352 10.8737C3.23167 10.9224 3.36492 10.9591 3.61231 10.9791C3.8654 10.9996 3.8029 11 4.27778 11H7.33333C7.80821 11 8.1346 10.9996 8.38768 10.9791C8.63508 10.9591 8.76832 10.9224 8.86479 10.8737C9.08473 10.7628 9.2626 10.5863 9.37377 10.3703C9.42204 10.2765 9.45886 10.1464 9.47898 9.90259C9.4996 9.65279 9.5 9.33038 9.5 8.86V3H2.5ZM7.99999 2H4.00001C4.0001 1.71709 4.00124 1.72652 4.01344 1.57865C4.026 1.42654 4.04768 1.3644 4.06568 1.32942C4.12358 1.21692 4.21647 1.12452 4.33187 1.06631C4.36892 1.04762 4.43356 1.02588 4.58831 1.01336C4.74876 1.00038 4.95847 1 5.27778 1H6.72222C7.04153 1 7.25124 1.00038 7.41169 1.01336C7.56644 1.02588 7.63108 1.04762 7.66814 1.06631C7.78354 1.12452 7.87642 1.21692 7.93432 1.32942C7.95232 1.3644 7.974 1.42654 7.98656 1.57865C7.99876 1.72652 7.9999 1.71709 7.99999 2ZM4.50001 5C4.77615 5 5.00001 5.22386 5.00001 5.5V8.475C5.00001 8.75114 4.77615 8.975 4.50001 8.975C4.22387 8.975 4.00001 8.75114 4.00001 8.475V5.5C4.00001 5.22386 4.22387 5 4.50001 5ZM7.50001 5C7.77615 5 8.00001 5.22386 8.00001 5.5V8.475C8.00001 8.75114 7.77615 8.975 7.50001 8.975C7.22387 8.975 7.00001 8.75114 7.00001 8.475V5.5C7.00001 5.22386 7.22387 5 7.50001 5Z"/>
</svg>
