<svg width="16" height="16" viewBox="0 0 16 16" xmlns="http://www.w3.org/2000/svg">
<path fill-rule="evenodd" clip-rule="evenodd" d="M9.57845 2.09094C9.42272 2.01159 9.35321 2.00011 8.56667 2.00011H7.5C6.71349 2.00011 6.6442 2.01158 6.48846 2.09094C6.33166 2.17083 6.20418 2.29832 6.12428 2.45512C6.06286 2.57567 6.0256 2.67673 6.00944 4.00011H10.0031C10.0039 2.88692 10.0034 2.79769 9.99923 2.71694C9.99182 2.57404 9.9741 2.51688 9.94263 2.45512C9.86273 2.29832 9.73525 2.17083 9.57845 2.09094ZM11.0031 4.00011C11.0037 2.87274 11.0028 2.76067 10.9979 2.66515C10.9857 2.43005 10.9475 2.22458 10.8336 2.00113C10.6579 1.65616 10.3774 1.3757 10.0324 1.19993C9.63857 0.999243 9.30834 0.999519 8.67048 1.00005C8.63675 1.00008 8.60217 1.00011 8.56667 1.00011H7.5C7.46451 1.00011 7.42993 1.00008 7.39622 1.00005C6.75833 0.99952 6.42835 0.999244 6.03447 1.19993C5.68951 1.3757 5.40905 1.65616 5.23328 2.00113C5.08038 2.30121 5.02579 2.57213 5.00792 4.00011H1.5C1.22386 4.00011 1 4.22397 1 4.50011C1 4.77625 1.22386 5.00011 1.5 5.00011H3L3 11.3215C2.99999 11.8634 2.99999 12.3005 3.02891 12.6544C3.05868 13.0189 3.12159 13.339 3.27248 13.6351C3.51217 14.1055 3.89462 14.488 4.36502 14.7276C4.66117 14.8785 4.98126 14.9414 5.34569 14.9712C5.69962 15.0001 6.1367 15.0001 6.67858 15.0001H9.32142C9.8633 15.0001 10.3004 15.0001 10.6543 14.9712C11.0187 14.9414 11.3388 14.8785 11.635 14.7276C12.1054 14.488 12.4878 14.1055 12.7275 13.6351C12.8784 13.339 12.9413 13.0189 12.9711 12.6544C13 12.3005 13 11.8634 13 11.3215V5.00011H14.5C14.7761 5.00011 15 4.77625 15 4.50011C15 4.22397 14.7761 4.00011 14.5 4.00011H11.0031ZM5.50424 5.00011L5.5 5.00013L5.49576 5.00011H4L4 11.3001C4 11.8684 4.00039 12.2646 4.02559 12.573C4.05031 12.8756 4.0964 13.0494 4.16349 13.1811C4.3073 13.4634 4.53677 13.6928 4.81901 13.8366C4.95069 13.9037 5.12454 13.9498 5.42712 13.9745C5.73554 13.9997 6.1317 14.0001 6.7 14.0001H9.3C9.8683 14.0001 10.2645 13.9997 10.5729 13.9745C10.8755 13.9498 11.0493 13.9037 11.181 13.8366C11.4632 13.6928 11.6927 13.4634 11.8365 13.1811C11.9036 13.0494 11.9497 12.8756 11.9744 12.573C11.9996 12.2646 12 11.8684 12 11.3001V5.00011H5.50424ZM6.5 7.00011C6.77614 7.00011 7 7.22397 7 7.50011V11.5001C7 11.7763 6.77614 12.0001 6.5 12.0001C6.22386 12.0001 6 11.7763 6 11.5001V7.50011C6 7.22397 6.22386 7.00011 6.5 7.00011ZM9.5 7.00011C9.77614 7.00011 10 7.22397 10 7.50011V11.5001C10 11.7763 9.77614 12.0001 9.5 12.0001C9.22386 12.0001 9 11.7763 9 11.5001V7.50011C9 7.22397 9.22386 7.00011 9.5 7.00011Z"/>
</svg>
