<svg width="16" height="16" viewBox="0 0 16 16" xmlns="http://www.w3.org/2000/svg">
<path fill-rule="evenodd" clip-rule="evenodd" d="M1 1.5C1 1.22386 1.22386 1 1.5 1H14.5C14.7761 1 15 1.22386 15 1.5C15 1.77614 14.7761 2 14.5 2H1.5C1.22386 2 1 1.77614 1 1.5ZM4.3741 3.99996C4.41518 3.99998 4.45713 4 4.5 4H11.5C11.5429 4 11.5848 3.99998 11.6259 3.99996C12.6156 3.99951 13.0988 3.99929 13.635 4.27248C14.1054 4.51217 14.4878 4.89462 14.7275 5.36502C15.0007 5.90119 15.0005 6.38437 15 7.37409C15 7.41518 15 7.45713 15 7.5V8.5C15 8.54287 15 8.58484 15 8.62592C15.0005 9.61564 15.0007 10.0988 14.7275 10.635C14.4878 11.1054 14.1054 11.4878 13.635 11.7275C13.0988 12.0007 12.6156 12.0005 11.6259 12C11.5848 12 11.5429 12 11.5 12H4.5C4.45713 12 4.41517 12 4.37409 12C3.38437 12.0005 2.9012 12.0007 2.36503 11.7275C1.89462 11.4878 1.51217 11.1054 1.27249 10.635C1.12159 10.3388 1.05869 10.0187 1.02891 9.65431C0.999993 9.30037 0.999997 8.8633 1 8.3214L1 7.6786C0.999995 7.1367 0.999991 6.69963 1.02891 6.34569C1.05868 5.98126 1.12159 5.66117 1.27248 5.36502C1.51217 4.89462 1.89462 4.51217 2.36502 4.27248C2.9012 3.99929 3.38437 3.99951 4.3741 3.99996ZM4.5 5C3.3354 5 3.11623 5.01205 2.81901 5.16349C2.53677 5.3073 2.3073 5.53677 2.16349 5.81901C2.0964 5.95069 2.05031 6.12454 2.02559 6.42712C2.00039 6.73554 2 7.1317 2 7.7L2 8.3C2 8.8683 2.00039 9.26446 2.02559 9.57288C2.05031 9.87547 2.0964 10.0493 2.16349 10.181C2.3073 10.4632 2.53677 10.6927 2.81902 10.8365C3.11624 10.988 3.3354 11 4.5 11H11.5C12.6646 11 12.8838 10.988 13.181 10.8365C13.4632 10.6927 13.6927 10.4632 13.8365 10.181C13.988 9.88377 14 9.6646 14 8.5V7.5C14 6.3354 13.988 6.11623 13.8365 5.81901C13.6927 5.53677 13.4632 5.3073 13.181 5.16349C12.8838 5.01205 12.6646 5 11.5 5H4.5Z"/>
</svg>

