<svg width="16" height="16" viewBox="0 0 16 16" xmlns="http://www.w3.org/2000/svg">
<path d="M7.99992 1.91829C7.80594 1.91829 7.6199 1.9956 7.48274 2.13322C7.34557 2.27084 7.26851 2.4575 7.26851 2.65212V2.75583C7.26737 3.03739 7.18421 3.31247 7.02927 3.54722C6.87433 3.78198 6.65437 3.96617 6.39645 4.07713C6.35355 4.09554 6.3081 4.10727 6.26168 4.11192C6.00702 4.20438 5.73153 4.22288 5.46686 4.16528C5.20219 4.10769 4.95909 3.97635 4.76549 3.78635L4.76222 3.78307L4.72624 3.74697C4.6594 3.67392 4.57852 3.6152 4.48847 3.57434C4.39842 3.53347 4.30106 3.51131 4.20225 3.50918C4.10344 3.50705 4.00522 3.525 3.9135 3.56194C3.82179 3.59889 3.73847 3.65407 3.66856 3.72417C3.59865 3.79426 3.5436 3.87782 3.50672 3.96982C3.46984 4.06181 3.45189 4.16035 3.45395 4.25949C3.45601 4.35862 3.47804 4.45632 3.51871 4.54669C3.55939 4.63707 3.61786 4.71825 3.69062 4.78536L3.72987 4.82475C3.92934 5.02926 4.06375 5.28862 4.11605 5.56991C4.16835 5.85121 4.13618 6.14174 4.02361 6.40466C3.92214 6.6734 3.74305 6.90566 3.50926 7.0717C3.27547 7.23774 2.99762 7.33002 2.71126 7.33672H2.64715C2.45317 7.33672 2.26713 7.41404 2.12996 7.55166C1.9928 7.68928 1.91574 7.87593 1.91574 8.07056C1.91574 8.26518 1.9928 8.45184 2.12996 8.58946C2.26713 8.72708 2.45317 8.80439 2.64715 8.80439H2.75052C3.0307 8.80563 3.30443 8.88889 3.53813 9.04396C3.77183 9.19904 3.95534 9.41918 4.06614 9.67738C4.18164 9.94111 4.21589 10.2335 4.16448 10.5169C4.11307 10.8003 3.97834 11.0618 3.77763 11.2678L3.7737 11.2717L3.73838 11.3072C3.60131 11.4451 3.52434 11.6319 3.52434 11.8267C3.52434 12.0215 3.60131 12.2083 3.73838 12.3462C3.8409 12.4488 3.97138 12.5187 4.1134 12.5471C4.25542 12.5755 4.40263 12.5611 4.53652 12.5057C4.62511 12.4686 4.70558 12.4144 4.77334 12.3462L4.81259 12.3068C5.01643 12.1067 5.27494 11.9719 5.5553 11.9194C5.83566 11.8669 6.12524 11.8992 6.38729 12.0121C6.65514 12.1139 6.88663 12.2936 7.05212 12.5282C7.21762 12.7628 7.30959 13.0415 7.31627 13.3288V13.3932C7.31627 13.5878 7.39333 13.7744 7.53049 13.9121C7.66766 14.0497 7.8537 14.127 8.04768 14.127C8.24166 14.127 8.4277 14.0497 8.56486 13.9121C8.70203 13.7744 8.77909 13.5878 8.77909 13.3932V13.2895C8.78032 13.0083 8.86331 12.7337 9.01787 12.4992C9.17243 12.2647 9.39184 12.0806 9.64919 11.9695C9.91205 11.8536 10.2034 11.8192 10.4859 11.8708C10.7684 11.9224 11.029 12.0576 11.2343 12.2589L11.2383 12.2629L11.2736 12.2983C11.3762 12.4009 11.5066 12.4707 11.6486 12.4991C11.7907 12.5274 11.9378 12.5131 12.0717 12.4578C12.1831 12.4117 12.2813 12.3387 12.3578 12.2454C12.4343 12.152 12.4866 12.0412 12.5101 11.9226C12.5336 11.8041 12.5275 11.6816 12.4925 11.566C12.4574 11.4504 12.3945 11.3453 12.3092 11.2599L12.27 11.2205C12.069 11.0146 11.9341 10.753 11.8826 10.4694C11.831 10.1859 11.8652 9.89334 11.9808 9.62946C12.0917 9.37116 12.2753 9.15095 12.5091 8.99587C12.7429 8.84079 13.0168 8.75758 13.2971 8.75648H13.3527C13.5467 8.75648 13.7327 8.67916 13.8699 8.54154C14.007 8.40392 14.0841 8.21727 14.0841 8.02264C14.0841 7.82802 14.007 7.64136 13.8699 7.50374C13.7327 7.36612 13.5467 7.28881 13.3527 7.28881H13.2493C12.9687 7.28766 12.6945 7.20422 12.4605 7.04877C12.2266 6.89332 12.043 6.67262 11.9324 6.41385C11.914 6.37081 11.9023 6.32521 11.8977 6.27863C11.8056 6.02313 11.7871 5.74673 11.8445 5.48118C11.9019 5.21564 12.0328 4.97173 12.2222 4.77749L12.2261 4.77421L12.2615 4.7381C12.3637 4.63524 12.4334 4.50433 12.4617 4.36184C12.49 4.21935 12.4756 4.07164 12.4204 3.93732C12.3745 3.82562 12.3018 3.72703 12.2087 3.65032C12.1157 3.5736 12.0052 3.52112 11.887 3.49755C11.7689 3.47397 11.6468 3.48003 11.5316 3.51519C11.4163 3.55034 11.3116 3.6135 11.2265 3.69905L11.1872 3.73843C10.982 3.94006 10.7212 4.07543 10.4386 4.12713C10.156 4.17884 9.86444 4.1445 9.60143 4.02855C9.34398 3.91734 9.1245 3.73313 8.96993 3.49853C8.81536 3.26392 8.73244 2.98914 8.73133 2.70791V2.65212C8.73133 2.4575 8.65427 2.27084 8.51711 2.13322C8.37994 1.9956 8.1939 1.91829 7.99992 1.91829ZM6.83542 1.48376C7.0658 1.25275 7.35926 1.09544 7.67873 1.03172C7.99819 0.968004 8.32931 1.00073 8.63023 1.12577C8.93116 1.25081 9.18838 1.46255 9.3694 1.73423C9.55042 2.00591 9.6471 2.32533 9.64723 2.65212V2.70463C9.64779 2.80692 9.67811 2.90683 9.73448 2.99207C9.79085 3.07731 9.8708 3.14417 9.96452 3.18445L9.9691 3.18642C10.0644 3.22868 10.1701 3.24145 10.2726 3.22309C10.3752 3.20473 10.47 3.15608 10.5448 3.08336L10.5782 3.04989C10.7296 2.8894 10.9116 2.76099 11.1133 2.67224C11.315 2.58349 11.5325 2.5362 11.7527 2.53317C11.973 2.53013 12.1916 2.57141 12.3957 2.65456C12.5998 2.73772 12.7852 2.86106 12.9409 3.01732C13.0967 3.17357 13.2197 3.35955 13.3026 3.56429C13.3856 3.76903 13.4268 3.98837 13.4238 4.20935C13.4209 4.43034 13.3738 4.64848 13.2854 4.85091C13.197 5.05334 13.069 5.23593 12.9091 5.38792L12.8758 5.4214C12.8032 5.49641 12.7546 5.59146 12.7362 5.69437C12.7177 5.79727 12.7304 5.90335 12.7724 5.99901C12.7885 6.03568 12.7997 6.0743 12.8058 6.11388C12.852 6.19155 12.9174 6.25592 12.9957 6.30077C13.0739 6.34562 13.1625 6.36942 13.2526 6.36987H13.3527C13.7896 6.36987 14.2086 6.544 14.5175 6.85396C14.8264 7.16391 15 7.5843 15 8.02264C15 8.46098 14.8264 8.88137 14.5175 9.19132C14.2086 9.50128 13.7896 9.67541 13.3527 9.67541H13.3004C13.1984 9.67597 13.0988 9.7064 13.0139 9.76295C12.9289 9.8195 12.8623 9.89972 12.8221 9.99376L12.8202 9.99835C12.778 10.094 12.7654 10.2001 12.7838 10.303C12.8022 10.4059 12.8509 10.501 12.9235 10.576L12.9562 10.6094C13.1162 10.7614 13.2442 10.9439 13.3326 11.1463C13.4211 11.3487 13.4682 11.5669 13.4713 11.7879C13.4743 12.0088 13.4331 12.2282 13.3503 12.433C13.2674 12.6377 13.1444 12.8237 12.9887 12.98C12.833 13.1363 12.6476 13.2597 12.4435 13.3429C12.2395 13.4262 12.0209 13.4675 11.8006 13.4645C11.5804 13.4615 11.3629 13.4143 11.1612 13.3256C10.9594 13.2369 10.7774 13.1086 10.6259 12.9481L10.5926 12.9147C10.5178 12.8418 10.4231 12.7931 10.3205 12.7746C10.2179 12.7561 10.1122 12.7688 10.0169 12.8109L10.0123 12.8129C9.91866 12.8531 9.83878 12.9199 9.78242 13.005C9.72606 13.0901 9.69567 13.1899 9.69499 13.2921V13.3932C9.6829 13.8234 9.50404 14.232 9.19643 14.5321C8.88882 14.8321 8.47671 15 8.04768 15C7.61865 15 7.20654 14.8321 6.89893 14.5321C6.59131 14.232 6.41246 13.8234 6.40037 13.3932V13.3459C6.3971 13.2412 6.36272 13.1399 6.30163 13.055C6.24055 12.9701 6.15555 12.9054 6.05756 12.8694C6.04873 12.8661 6.04 12.8626 6.03139 12.8589C5.93596 12.8165 5.8301 12.8038 5.7274 12.8223C5.62471 12.8408 5.52986 12.8896 5.45503 12.9626L5.42167 12.9954C5.27023 13.1559 5.08827 13.2843 4.88654 13.373C4.6848 13.4618 4.46739 13.5091 4.24714 13.5121C4.02689 13.5152 3.80826 13.4739 3.60418 13.3907C3.40009 13.3076 3.21468 13.1842 3.0589 13.028C2.90312 12.8717 2.78013 12.6857 2.6972 12.481C2.61426 12.2762 2.57306 12.0569 2.57602 11.8359C2.57898 11.6149 2.62606 11.3968 2.71446 11.1944C2.80286 10.9919 2.93079 10.8093 3.09071 10.6574L3.12407 10.6239C3.19666 10.5489 3.24527 10.4538 3.26368 10.3509C3.2821 10.248 3.26948 10.1419 3.22744 10.0463L3.22547 10.0417C3.18537 9.94774 3.11883 9.86759 3.034 9.81105C2.94917 9.7545 2.84974 9.72401 2.7479 9.72333H2.64715C2.21028 9.72328 1.79133 9.54913 1.48243 9.23918C1.17353 8.92923 1 8.50887 1 8.07056C1 7.63224 1.17353 7.21188 1.48243 6.90193C1.79133 6.59198 2.21028 6.41783 2.64715 6.41779H2.69491C2.79912 6.41438 2.89994 6.37982 2.98445 6.31854C3.06896 6.25726 3.13329 6.17205 3.16921 6.07384C3.17243 6.06498 3.17592 6.05623 3.17968 6.04759C3.22195 5.9519 3.23475 5.84573 3.21645 5.74269C3.19815 5.63966 3.14958 5.54446 3.07697 5.46931L3.0436 5.43584C2.7345 5.1258 2.56081 4.70525 2.56075 4.26673C2.56069 3.8282 2.73426 3.40761 3.04328 3.09748C3.35229 2.78735 3.77145 2.61308 4.20852 2.61302C4.6456 2.61296 5.06481 2.78711 5.37391 3.09715L5.40727 3.13062C5.48204 3.20345 5.57678 3.25222 5.67934 3.2707C5.78191 3.28918 5.88763 3.27651 5.98298 3.23433C6.01953 3.21822 6.05802 3.20696 6.09747 3.20086C6.17488 3.1545 6.23904 3.08888 6.28374 3.01033C6.32844 2.93179 6.35217 2.84299 6.35261 2.75255V2.65212C6.35261 2.21366 6.52598 1.79357 6.83477 1.48376H6.83542ZM7.99992 6.51296C7.60085 6.51296 7.21813 6.67202 6.93594 6.95514C6.65376 7.23826 6.49523 7.62225 6.49523 8.02264C6.49523 8.42303 6.65376 8.80702 6.93594 9.09014C7.21813 9.37326 7.60085 9.53232 7.99992 9.53232C8.39899 9.53232 8.78171 9.37326 9.0639 9.09014C9.34608 8.80702 9.50461 8.42303 9.50461 8.02264C9.50461 7.62225 9.34608 7.23826 9.0639 6.95514C8.78171 6.67202 8.39899 6.51296 7.99992 6.51296V6.51296ZM5.57933 8.02264C5.57933 7.37853 5.83436 6.7608 6.28831 6.30535C6.74225 5.8499 7.35794 5.59403 7.99992 5.59403C8.6419 5.59403 9.25759 5.8499 9.71154 6.30535C10.1655 6.7608 10.4205 7.37853 10.4205 8.02264C10.4205 8.66675 10.1655 9.28448 9.71154 9.73993C9.25759 10.1954 8.6419 10.4513 7.99992 10.4513C7.35794 10.4513 6.74225 10.1954 6.28831 9.73993C5.83436 9.28448 5.57933 8.66675 5.57933 8.02264V8.02264Z"/>
</svg>
