<svg width="15" height="15" viewBox="0 0 15 15" xmlns="http://www.w3.org/2000/svg">
<path fill-rule="evenodd" clip-rule="evenodd" d="M3 1C3.27614 1 3.5 1.22386 3.5 1.5V2.5H4.5C4.77614 2.5 5 2.72386 5 3C5 3.27614 4.77614 3.5 4.5 3.5H3.5V4.5C3.5 4.77614 3.27614 5 3 5C2.72386 5 2.5 4.77614 2.5 4.5V3.5H1.5C1.22386 3.5 1 3.27614 1 3C1 2.72386 1.22386 2.5 1.5 2.5H2.5V1.5C2.5 1.22386 2.72386 1 3 1ZM8.1 1.6C8.30689 1.6 8.4924 1.72741 8.56667 1.92051L9.60718 4.62583C9.78558 5.08967 9.84688 5.23887 9.93337 5.3605C10.0176 5.47894 10.1211 5.58242 10.2395 5.66663C10.3611 5.75312 10.5103 5.81442 10.9742 5.99282L13.6795 7.03333C13.8726 7.10759 14 7.29311 14 7.5C14 7.70689 13.8726 7.89241 13.6795 7.96667L10.9742 9.00718C10.5103 9.18558 10.3611 9.24688 10.2395 9.33337C10.1211 9.41758 10.0176 9.52106 9.93337 9.6395C9.84688 9.76113 9.78558 9.91033 9.60718 10.3742L8.56667 13.0795C8.49241 13.2726 8.30689 13.4 8.1 13.4C7.89312 13.4 7.7076 13.2726 7.63333 13.0795L6.59282 10.3742C6.41442 9.91033 6.35312 9.76113 6.26663 9.6395C6.18242 9.52106 6.07894 9.41758 5.9605 9.33337C5.83887 9.24688 5.68967 9.18558 5.22583 9.00718L2.52051 7.96667C2.32741 7.89241 2.2 7.70689 2.2 7.5C2.2 7.29311 2.32741 7.10759 2.52051 7.03333L5.22583 5.99282C5.68967 5.81442 5.83887 5.75312 5.9605 5.66663C6.07894 5.58242 6.18242 5.47894 6.26663 5.3605C6.35312 5.23887 6.41442 5.08967 6.59282 4.62583L7.63333 1.92051C7.70759 1.72741 7.89311 1.6 8.1 1.6ZM8.1 3.49284L7.52617 4.98481C7.51903 5.00337 7.51199 5.02168 7.50505 5.03976C7.35639 5.4267 7.25037 5.70266 7.08161 5.94C6.93261 6.14954 6.74954 6.33261 6.54 6.48161C6.30267 6.65036 6.0267 6.75639 5.63977 6.90504C5.62169 6.91199 5.60337 6.91902 5.58481 6.92617L4.09284 7.5L5.58481 8.07383C5.60337 8.08097 5.62169 8.08801 5.63976 8.09495C6.0267 8.24361 6.30266 8.34964 6.54 8.51839C6.74954 8.66739 6.93261 8.85046 7.08161 9.06C7.25037 9.29734 7.35639 9.5733 7.50505 9.96025C7.51199 9.97832 7.51903 9.99663 7.52617 10.0152L8.1 11.5072L8.67383 10.0152C8.68097 9.99663 8.68801 9.97832 8.69495 9.96025C8.84361 9.5733 8.94963 9.29734 9.11839 9.06C9.26739 8.85046 9.45046 8.66739 9.66 8.51839C9.89734 8.34964 10.1733 8.24361 10.5602 8.09495C10.5783 8.08801 10.5966 8.08097 10.6152 8.07383L12.1072 7.5L10.6152 6.92617C10.5966 6.91903 10.5783 6.91199 10.5602 6.90505C10.1733 6.75639 9.89734 6.65037 9.66 6.48161C9.45046 6.33261 9.26739 6.14954 9.11839 5.94C8.94964 5.70267 8.84361 5.4267 8.69496 5.03977C8.68801 5.02169 8.68098 5.00337 8.67383 4.98481L8.1 3.49284ZM3 10C3.27614 10 3.5 10.2239 3.5 10.5V11.5H4.5C4.77614 11.5 5 11.7239 5 12C5 12.2761 4.77614 12.5 4.5 12.5H3.5V13.5C3.5 13.7761 3.27614 14 3 14C2.72386 14 2.5 13.7761 2.5 13.5V12.5H1.5C1.22386 12.5 1 12.2761 1 12C1 11.7239 1.22386 11.5 1.5 11.5H2.5V10.5C2.5 10.2239 2.72386 10 3 10Z"/>
</svg>
