<svg width="16" height="16" viewBox="0 0 16 16" xmlns="http://www.w3.org/2000/svg">
<path fill-rule="evenodd" clip-rule="evenodd" d="M3.84652 1C3.85599 1 3.86548 1 3.87499 1L12.1535 1C12.4202 0.999983 12.6682 0.999967 12.877 1.01422C13.1023 1.02958 13.354 1.06481 13.611 1.17127C14.1624 1.39963 14.6004 1.83765 14.8287 2.38896C14.8799 2.5125 14.9 2.62842 14.9072 2.67023C14.9177 2.73162 14.9253 2.7943 14.9311 2.85086C14.9427 2.96506 14.9516 3.10019 14.9586 3.24121C14.9728 3.52568 14.982 3.88038 14.988 4.2367C15 4.9507 15 5.70697 15 5.99876V6C15 6.55229 14.5523 7 14 7C13.4477 7 13 6.55229 13 6C13 5.70846 13 4.96654 12.9882 4.27041C12.9824 3.92116 12.9737 3.59234 12.9611 3.34096C12.956 3.23803 12.9505 3.15551 12.9452 3.09376C12.9208 3.06335 12.8895 3.03882 12.8535 3.02246C12.842 3.02005 12.8089 3.01422 12.7409 3.00958C12.6085 3.00054 12.4299 3 12.125 3H9V13H11C11.5523 13 12 13.4477 12 14C12 14.5523 11.5523 15 11 15H5C4.44772 15 4 14.5523 4 14C4 13.4477 4.44772 13 5 13H7V3H3.87499C3.5701 3 3.39151 3.00054 3.25912 3.00958C3.19113 3.01422 3.15796 3.02005 3.14644 3.02246C3.11048 3.03882 3.07918 3.06335 3.05483 3.09376C3.04947 3.15551 3.04403 3.23803 3.03889 3.34096C3.02634 3.59234 3.01764 3.92116 3.01175 4.27041C3.00002 4.96654 3 5.70846 3 6C3 6.55229 2.55228 7 2 7C1.44772 7 1 6.55229 1 6V5.99868C1 5.70682 1 4.95063 1.01203 4.2367C1.01804 3.88039 1.02718 3.52568 1.04138 3.24121C1.04842 3.10019 1.05725 2.96506 1.06891 2.85086C1.07468 2.7943 1.08227 2.73162 1.0928 2.67023C1.09998 2.62843 1.12009 2.5125 1.17127 2.38896C1.39963 1.83765 1.83764 1.39963 2.38896 1.17127C2.64597 1.06481 2.89774 1.02958 3.12298 1.01422C3.33182 0.999967 3.57981 0.999983 3.84652 1Z"/>
</svg>
