<svg width="16" height="16" viewBox="0 0 16 16" xmlns="http://www.w3.org/2000/svg">
<path fill-rule="evenodd" clip-rule="evenodd" d="M4.6786 1L6.16667 1C6.44281 1 6.66667 1.22386 6.66667 1.5C6.66667 1.77614 6.44281 2 6.16667 2H4.7C4.1317 2 3.73554 2.00039 3.42712 2.02559C3.12454 2.05031 2.95069 2.0964 2.81901 2.16349C2.53677 2.3073 2.3073 2.53677 2.16349 2.81901C2.0964 2.95069 2.05031 3.12454 2.02559 3.42712C2.00039 3.73554 2 4.1317 2 4.7V6.16667C2 6.44281 1.77614 6.66667 1.5 6.66667C1.22386 6.66667 1 6.44281 1 6.16667L1 4.6786C0.999995 4.1367 0.999991 3.69963 1.02891 3.34569C1.05868 2.98126 1.12159 2.66117 1.27248 2.36502C1.51217 1.89462 1.89462 1.51217 2.36502 1.27248C2.66117 1.12159 2.98126 1.05868 3.34569 1.02891C3.69963 0.999991 4.1367 0.999995 4.6786 1ZM10.5 2C10.2239 2 10 1.77614 10 1.5C10 1.22386 10.2239 1 10.5 1H14.5C14.7761 1 15 1.22386 15 1.5V5.5C15 5.77614 14.7761 6 14.5 6C14.2239 6 14 5.77614 14 5.5V2.70711L11.8536 4.85355C11.6583 5.04882 11.3417 5.04882 11.1464 4.85355C10.9512 4.65829 10.9512 4.34171 11.1464 4.14645L13.2929 2H10.5ZM14.5 9.33333C14.7761 9.33333 15 9.55719 15 9.83333V11.3214C15 11.8633 15 12.3004 14.9711 12.6543C14.9413 13.0187 14.8784 13.3388 14.7275 13.635C14.4878 14.1054 14.1054 14.4878 13.635 14.7275C13.3388 14.8784 13.0187 14.9413 12.6543 14.9711C12.3004 15 11.8633 15 11.3214 15H9.83333C9.55719 15 9.33333 14.7761 9.33333 14.5C9.33333 14.2239 9.55719 14 9.83333 14H11.3C11.8683 14 12.2645 13.9996 12.5729 13.9744C12.8755 13.9497 13.0493 13.9036 13.181 13.8365C13.4632 13.6927 13.6927 13.4632 13.8365 13.181C13.9036 13.0493 13.9497 12.8755 13.9744 12.5729C13.9996 12.2645 14 11.8683 14 11.3V9.83333C14 9.55719 14.2239 9.33333 14.5 9.33333ZM1.5 10C1.77614 10 2 10.2239 2 10.5L2 13.2929L4.14645 11.1464C4.34171 10.9512 4.65829 10.9512 4.85355 11.1464C5.04882 11.3417 5.04882 11.6583 4.85355 11.8536L2.70711 14H5.5C5.77614 14 6 14.2239 6 14.5C6 14.7761 5.77614 15 5.5 15H1.5C1.36739 15 1.24022 14.9473 1.14645 14.8536C1.05268 14.7598 1 14.6326 1 14.5L1 10.5C1 10.2239 1.22386 10 1.5 10Z"/>
</svg>
