<svg width="16" height="16" viewBox="0 0 16 16" xmlns="http://www.w3.org/2000/svg">
<path d="M11.5325 3.01048C11.1259 3.01048 10.7359 3.17203 10.4483 3.45959C10.1607 3.74714 9.9992 4.13715 9.9992 4.54382C9.9992 4.95048 10.1607 5.34049 10.4483 5.62805C10.7359 5.9156 11.1259 6.07715 11.5325 6.07715C11.9392 6.07715 12.3292 5.9156 12.6168 5.62805C12.9043 5.34049 13.0659 4.95048 13.0659 4.54382C13.0659 4.13715 12.9043 3.74714 12.6168 3.45959C12.3292 3.17203 11.9392 3.01048 11.5325 3.01048ZM9.10987 4.07715C9.22596 3.47443 9.56254 2.93662 10.0539 2.56874C10.5452 2.20086 11.156 2.02933 11.7671 2.08764C12.3781 2.14595 12.9454 2.42992 13.3583 2.88409C13.7712 3.33826 14 3.93002 14 4.54382C14 5.15762 13.7712 5.74938 13.3583 6.20355C12.9454 6.65772 12.3781 6.94168 11.7671 6.99999C11.156 7.0583 10.5452 6.88677 10.0539 6.51889C9.56254 6.15101 9.22596 5.6132 9.10987 5.01048L2.46675 5.01048C2.40546 5.01049 2.34477 4.99843 2.28814 4.97498C2.23151 4.95154 2.18006 4.91717 2.13671 4.87383C2.09337 4.83049 2.05899 4.77905 2.03553 4.72242C2.01207 4.6658 2 4.60511 2 4.54382C2 4.48253 2.01207 4.42184 2.03553 4.36521C2.05899 4.30859 2.09337 4.25714 2.13671 4.2138C2.18006 4.17047 2.23151 4.1361 2.28814 4.11265C2.34477 4.0892 2.40546 4.07714 2.46675 4.07715L9.10987 4.07715Z"/>
<path d="M11.5325 3.01048C11.1259 3.01048 10.7359 3.17203 10.4483 3.45959C10.1607 3.74714 9.9992 4.13715 9.9992 4.54382C9.9992 4.95048 10.1607 5.34049 10.4483 5.62805C10.7359 5.9156 11.1259 6.07715 11.5325 6.07715C11.9392 6.07715 12.3292 5.9156 12.6168 5.62805C12.9043 5.34049 13.0659 4.95048 13.0659 4.54382C13.0659 4.13715 12.9043 3.74714 12.6168 3.45959C12.3292 3.17203 11.9392 3.01048 11.5325 3.01048ZM9.10987 4.07715C9.22596 3.47443 9.56254 2.93662 10.0539 2.56874C10.5452 2.20086 11.156 2.02933 11.7671 2.08764C12.3781 2.14595 12.9454 2.42992 13.3583 2.88409C13.7712 3.33826 14 3.93002 14 4.54382C14 5.15762 13.7712 5.74938 13.3583 6.20355C12.9454 6.65772 12.3781 6.94168 11.7671 6.99999C11.156 7.0583 10.5452 6.88677 10.0539 6.51889C9.56254 6.15101 9.22596 5.6132 9.10987 5.01048L2.46675 5.01048C2.40546 5.01049 2.34477 4.99843 2.28814 4.97498C2.23151 4.95154 2.18006 4.91717 2.13671 4.87383C2.09337 4.83049 2.05899 4.77905 2.03553 4.72242C2.01207 4.6658 2 4.60511 2 4.54382C2 4.48253 2.01207 4.42184 2.03553 4.36521C2.05899 4.30859 2.09337 4.25714 2.13671 4.2138C2.18006 4.17047 2.23151 4.1361 2.28814 4.11265C2.34477 4.0892 2.40546 4.07714 2.46675 4.07715L9.10987 4.07715Z"/>
<path d="M4.46747 13.0007C4.87413 13.0007 5.26414 12.8391 5.5517 12.5516C5.83925 12.264 6.0008 11.874 6.0008 11.4674C6.0008 11.0607 5.83925 10.6707 5.5517 10.3831C5.26414 10.0956 4.87413 9.93402 4.46747 9.93402C4.0608 9.93402 3.67079 10.0956 3.38323 10.3831C3.09568 10.6707 2.93413 11.0607 2.93413 11.4674C2.93413 11.874 3.09568 12.264 3.38323 12.5516C3.67079 12.8391 4.0608 13.0007 4.46747 13.0007ZM6.89013 11.934C6.77404 12.5367 6.43746 13.0745 5.94612 13.4424C5.45478 13.8103 4.84397 13.9818 4.23294 13.9235C3.62191 13.8652 3.05457 13.5813 2.64167 13.1271C2.22878 12.6729 2 12.0812 2 11.4674C2 10.8536 2.22878 10.2618 2.64167 9.80762C3.05457 9.35345 3.62191 9.06949 4.23294 9.01118C4.84397 8.95287 5.45478 9.1244 5.94612 9.49228C6.43746 9.86016 6.77404 10.398 6.89013 11.0007L13.5332 11.0007C13.5945 11.0007 13.6552 11.0127 13.7119 11.0362C13.7685 11.0596 13.8199 11.094 13.8633 11.1373C13.9066 11.1807 13.941 11.2321 13.9645 11.2887C13.9879 11.3454 14 11.4061 14 11.4674C14 11.5286 13.9879 11.5893 13.9645 11.646C13.941 11.7026 13.9066 11.754 13.8633 11.7974C13.8199 11.8407 13.7685 11.8751 13.7119 11.8985C13.6552 11.922 13.5945 11.934 13.5332 11.934L6.89013 11.934Z"/>
<path d="M4.46747 13.0007C4.87413 13.0007 5.26414 12.8391 5.5517 12.5516C5.83925 12.264 6.0008 11.874 6.0008 11.4674C6.0008 11.0607 5.83925 10.6707 5.5517 10.3831C5.26414 10.0956 4.87413 9.93402 4.46747 9.93402C4.0608 9.93402 3.67079 10.0956 3.38323 10.3831C3.09568 10.6707 2.93413 11.0607 2.93413 11.4674C2.93413 11.874 3.09568 12.264 3.38323 12.5516C3.67079 12.8391 4.0608 13.0007 4.46747 13.0007ZM6.89013 11.934C6.77404 12.5367 6.43746 13.0745 5.94612 13.4424C5.45478 13.8103 4.84397 13.9818 4.23294 13.9235C3.62191 13.8652 3.05457 13.5813 2.64167 13.1271C2.22878 12.6729 2 12.0812 2 11.4674C2 10.8536 2.22878 10.2618 2.64167 9.80762C3.05457 9.35345 3.62191 9.06949 4.23294 9.01118C4.84397 8.95287 5.45478 9.1244 5.94612 9.49228C6.43746 9.86016 6.77404 10.398 6.89013 11.0007L13.5332 11.0007C13.5945 11.0007 13.6552 11.0127 13.7119 11.0362C13.7685 11.0596 13.8199 11.094 13.8633 11.1373C13.9066 11.1807 13.941 11.2321 13.9645 11.2887C13.9879 11.3454 14 11.4061 14 11.4674C14 11.5286 13.9879 11.5893 13.9645 11.646C13.941 11.7026 13.9066 11.754 13.8633 11.7974C13.8199 11.8407 13.7685 11.8751 13.7119 11.8985C13.6552 11.922 13.5945 11.934 13.5332 11.934L6.89013 11.934Z"/>
</svg>
