<svg width="14" height="14" viewBox="0 0 14 14" fill="none" xmlns="http://www.w3.org/2000/svg">
<path d="M1 6.99996C1 4.99951 2.28523 3 4.42857 3C6.14286 3 7.85714 3 9.57143 3C11.7148 3.00001 13 4.99951 13 6.99996C13 9.00043 11.7148 11 9.57143 11C7.85714 11 6.14286 10.9999 4.42857 10.9999C2.28523 10.9999 1 9.00041 1 6.99996Z" stroke="black" stroke-linecap="round" stroke-linejoin="round"/>
<path d="M5 9C6.10458 9 7.00002 8.10454 7 6.99996C6.99998 5.8954 6.10456 5 5 5C3.89543 5 3 5.89543 3 7C3 8.10457 3.89543 9 5 9Z" stroke="black" stroke-linecap="round" stroke-linejoin="round"/>
</svg>
