<svg width="16" height="16" viewBox="0 0 16 16" fill="none" xmlns="http://www.w3.org/2000/svg">
<path d="M1 7.99995C1 5.49939 2.49944 3 5 3C7 3 9 3 11 3C13.5006 3.00001 15 5.49939 15 7.99995C15 10.5005 13.5006 13 11 13C9 13 7 12.9999 5 12.9999C2.49944 12.9999 1 10.5005 1 7.99995Z" stroke="black" stroke-width="2" stroke-linecap="round" stroke-linejoin="round"/>
<path d="M6 10C7.10458 10 8.00003 9.10454 8 7.99995C7.99997 6.8954 7.10456 6 6 6C4.89544 6 4.00003 6.8954 4 7.99995C3.99997 9.10454 4.89542 10 6 10Z" stroke="black" stroke-width="2" stroke-linecap="round" stroke-linejoin="round"/>
</svg>
