<svg width="16" height="16" viewBox="0 0 16 16" xmlns="http://www.w3.org/2000/svg">
<path fill-rule="evenodd" clip-rule="evenodd" d="M8 0.5C8.27614 0.5 8.5 0.723858 8.5 1V2.4C8.5 2.67614 8.27614 2.9 8 2.9C7.72386 2.9 7.5 2.67614 7.5 2.4V1C7.5 0.723858 7.72386 0.5 8 0.5ZM2.67638 2.67638C2.87164 2.48112 3.18822 2.48112 3.38348 2.67638L4.37343 3.66633C4.5687 3.86159 4.5687 4.17817 4.37343 4.37343C4.17817 4.5687 3.86159 4.5687 3.66633 4.37343L2.67638 3.38348C2.48112 3.18822 2.48112 2.87164 2.67638 2.67638ZM13.3236 2.67638C13.5189 2.87164 13.5189 3.18822 13.3236 3.38348L12.3337 4.37343C12.1384 4.5687 11.8218 4.5687 11.6266 4.37343C11.4313 4.17817 11.4313 3.86159 11.6266 3.66633L12.6165 2.67638C12.8118 2.48112 13.1284 2.48112 13.3236 2.67638ZM8 5C6.34315 5 5 6.34315 5 8C5 9.65685 6.34315 11 8 11C9.65685 11 11 9.65685 11 8C11 6.34315 9.65685 5 8 5ZM4 8C4 5.79086 5.79086 4 8 4C10.2091 4 12 5.79086 12 8C12 10.2091 10.2091 12 8 12C5.79086 12 4 10.2091 4 8ZM0.5 8C0.5 7.72386 0.723858 7.5 1 7.5H2.4C2.67614 7.5 2.9 7.72386 2.9 8C2.9 8.27614 2.67614 8.5 2.4 8.5H1C0.723858 8.5 0.5 8.27614 0.5 8ZM13.1 8C13.1 7.72386 13.3239 7.5 13.6 7.5H15C15.2761 7.5 15.5 7.72386 15.5 8C15.5 8.27614 15.2761 8.5 15 8.5H13.6C13.3239 8.5 13.1 8.27614 13.1 8ZM4.37343 11.6294C4.5687 11.8247 4.5687 12.1413 4.37343 12.3366L3.38348 13.3265C3.18822 13.5218 2.87164 13.5218 2.67638 13.3265C2.48112 13.1312 2.48112 12.8147 2.67638 12.6194L3.66633 11.6294C3.86159 11.4342 4.17817 11.4342 4.37343 11.6294ZM11.6266 11.6294C11.8218 11.4342 12.1384 11.4342 12.3337 11.6294L13.3236 12.6194C13.5189 12.8147 13.5189 13.1312 13.3236 13.3265C13.1284 13.5218 12.8118 13.5218 12.6165 13.3265L11.6266 12.3366C11.4313 12.1413 11.4313 11.8247 11.6266 11.6294ZM8 13.1C8.27614 13.1 8.5 13.3239 8.5 13.6V15C8.5 15.2761 8.27614 15.5 8 15.5C7.72386 15.5 7.5 15.2761 7.5 15V13.6C7.5 13.3239 7.72386 13.1 8 13.1Z"/>
</svg>
