<svg width="15" height="15" viewBox="0 0 15 15" xmlns="http://www.w3.org/2000/svg">
<path fill-rule="evenodd" clip-rule="evenodd" d="M12 12.5C12 12.7761 11.7761 13 11.5 13L3.5 13C3.22386 13 3 12.7761 3 12.5C3 12.2239 3.22386 12 3.5 12L11.5 12C11.7761 12 12 12.2239 12 12.5Z"/>
<path fill-rule="evenodd" clip-rule="evenodd" d="M12 7.5C12 7.77614 11.7761 8 11.5 8L3.5 8C3.22386 8 3 7.77614 3 7.5C3 7.22385 3.22386 7 3.5 7L11.5 7C11.7761 7 12 7.22386 12 7.5Z"/>
<path fill-rule="evenodd" clip-rule="evenodd" d="M12 2.5C12 2.77614 11.7761 3 11.5 3L3.5 3C3.22386 3 3 2.77614 3 2.5C3 2.22386 3.22386 2 3.5 2L11.5 2C11.7761 2 12 2.22386 12 2.5Z"/>
</svg>
