<svg width="16" height="16" viewBox="0 0 16 16" xmlns="http://www.w3.org/2000/svg">
<path d="M11.0243 15H4.36032C4.1417 15 3.95547 15 3.80162 14.9838C3.22672 14.9595 2.82996 14.8948 2.46559 14.7006C1.95547 14.4416 1.55061 14.0289 1.2915 13.5272C1 12.9526 1 12.3052 1 11.0104V4.9815C1 3.6948 1 3.03931 1.2915 2.46474C1.55061 1.95491 1.95547 1.55029 2.46559 1.29133C3.04049 1 3.68826 1 4.98381 1H11.0162C12.3117 1 12.9595 1 13.5344 1.29133C14.0445 1.55029 14.4494 1.95491 14.7085 2.46474C15 3.03931 15 3.68671 15 4.9815V11.0104C15 12.3052 15 12.9526 14.7085 13.5272C14.4494 14.037 14.0445 14.4416 13.5344 14.7006C12.9595 15 12.3117 15 11.0243 15ZM4.27935 13.9237H11.0162C12.1336 13.9237 12.7004 13.9237 13.0405 13.7457C13.3482 13.5919 13.5911 13.341 13.7449 13.0416C13.9231 12.6936 13.9231 12.1353 13.9231 11.0185V10.3792L11.3077 7.75723C11.1538 7.60347 10.9838 7.43353 10.9271 7.40925C10.8947 7.40116 10.8543 7.40116 10.8219 7.40925C10.7733 7.43353 10.6032 7.59538 10.4494 7.75723L4.33603 13.8671C4.31984 13.8832 4.29555 13.8994 4.27935 13.9237ZM4.98381 2.0763C3.8664 2.0763 3.2996 2.0763 2.95951 2.25434C2.65182 2.40809 2.40891 2.65087 2.25506 2.95838C2.07692 3.30636 2.07692 3.86474 2.07692 4.9815V11.0104C2.07692 12.1272 2.07692 12.6936 2.25506 13.0335C2.40891 13.341 2.65182 13.5838 2.95951 13.7376C2.97571 13.7457 2.9919 13.7538 3.01619 13.7618C3.11336 13.5595 3.2996 13.3653 3.5749 13.0902L9.68016 6.98844C10.004 6.66474 10.1984 6.47052 10.4899 6.37341C10.7409 6.29249 11.0081 6.29249 11.2672 6.37341C11.5587 6.47052 11.753 6.66474 12.0688 6.98844L13.9312 8.84971V4.9815C13.9312 3.86474 13.9312 3.29827 13.753 2.95838C13.5992 2.65087 13.3482 2.40809 13.0486 2.25434C12.7004 2.0763 12.1417 2.0763 11.0243 2.0763H4.98381ZM5.48583 7.4578C4.39271 7.4578 3.51012 6.57572 3.51012 5.48324C3.51012 4.39075 4.39271 3.50867 5.48583 3.50867C6.57895 3.50867 7.46154 4.39075 7.46154 5.48324C7.46154 6.57572 6.57895 7.4578 5.48583 7.4578ZM5.48583 4.59306C4.9919 4.59306 4.58704 4.99769 4.58704 5.49133C4.58704 5.98497 4.9919 6.3896 5.48583 6.3896C5.97976 6.3896 6.38462 5.98497 6.38462 5.49133C6.38462 4.9896 5.98785 4.59306 5.48583 4.59306Z"/>
</svg>
