<svg width="15" height="15" viewBox="0 0 15 15" xmlns="http://www.w3.org/2000/svg">
<path d="M10.3083 14H4.1203C3.91729 14 3.74436 14 3.6015 13.985C3.06767 13.9624 2.69925 13.9023 2.3609 13.722C1.88722 13.4815 1.51128 13.0983 1.27068 12.6324C1 12.0988 1 11.4977 1 10.2954V4.69711C1 3.50231 1 2.89364 1.27068 2.36012C1.51128 1.88671 1.88722 1.51098 2.3609 1.27052C2.89474 1 3.49624 1 4.69925 1H10.3008C11.5038 1 12.1053 1 12.6391 1.27052C13.1128 1.51098 13.4887 1.88671 13.7293 2.36012C14 2.89364 14 3.4948 14 4.69711V10.2954C14 11.4977 14 12.0988 13.7293 12.6324C13.4887 13.1058 13.1128 13.4815 12.6391 13.722C12.1053 14 11.5038 14 10.3083 14ZM4.04511 13.0006H10.3008C11.3383 13.0006 11.8647 13.0006 12.1805 12.8353C12.4662 12.6925 12.6917 12.4595 12.8346 12.1815C13 11.8584 13 11.3399 13 10.3029V9.70925L10.5714 7.27457C10.4286 7.13179 10.2707 6.97399 10.218 6.95144C10.188 6.94393 10.1504 6.94393 10.1203 6.95144C10.0752 6.97399 9.91729 7.12428 9.77444 7.27457L4.09774 12.948C4.08271 12.963 4.06015 12.978 4.04511 13.0006ZM4.69925 1.99942C3.66165 1.99942 3.13534 1.99942 2.81955 2.16474C2.53383 2.30751 2.30827 2.53295 2.16541 2.8185C2 3.14162 2 3.66012 2 4.69711V10.2954C2 11.3324 2 11.8584 2.16541 12.174C2.30827 12.4595 2.53383 12.685 2.81955 12.8277C2.83459 12.8353 2.84962 12.8428 2.87218 12.8503C2.96241 12.6624 3.13534 12.4821 3.39098 12.2266L9.06015 6.56069C9.3609 6.26012 9.54135 6.07977 9.81203 5.9896C10.0451 5.91445 10.2932 5.91445 10.5338 5.9896C10.8045 6.07977 10.985 6.26012 11.2782 6.56069L13.0075 8.28902V4.69711C13.0075 3.66012 13.0075 3.1341 12.8421 2.8185C12.6992 2.53295 12.4662 2.30751 12.188 2.16474C11.8647 1.99942 11.3459 1.99942 10.3083 1.99942H4.69925ZM5.16541 6.99653C4.15038 6.99653 3.33083 6.17746 3.33083 5.16301C3.33083 4.14855 4.15038 3.32948 5.16541 3.32948C6.18045 3.32948 7 4.14855 7 5.16301C7 6.17746 6.18045 6.99653 5.16541 6.99653ZM5.16541 4.33642C4.70677 4.33642 4.33083 4.71214 4.33083 5.17052C4.33083 5.6289 4.70677 6.00462 5.16541 6.00462C5.62406 6.00462 6 5.6289 6 5.17052C6 4.70462 5.63158 4.33642 5.16541 4.33642Z"/>
</svg>
