<svg width="24" height="24" viewBox="0 0 24 24" xmlns="http://www.w3.org/2000/svg">
<g clip-path="url(#clip0_2878_11063)">
<path d="M18.2572 21.0684L23.3482 15.9676C23.7668 15.5463 24.0012 14.9755 24 14.3809C23.9988 13.7863 23.7619 13.2165 23.3416 12.797C22.9213 12.3774 22.3519 12.1424 21.7587 12.1436C21.1656 12.1448 20.5972 12.3823 20.1786 12.8036L15.0929 17.9043V17.9229C15.0838 17.9365 15.0731 17.949 15.0611 17.9601C13.8592 19.1476 12.2375 19.8105 10.5499 19.8041C8.86235 19.7977 7.24576 19.1225 6.0528 17.926C4.85983 16.7294 4.1873 15.1085 4.18191 13.4168C4.17652 11.7251 4.83871 10.0999 6.02402 8.89569C6.03483 8.88436 6.04634 8.87371 6.05847 8.86381L6.07438 8.85053L11.1574 3.74979C11.5521 3.3283 11.7677 2.76945 11.7587 2.19146C11.7496 1.61346 11.5167 1.06165 11.1091 0.652721C10.7015 0.243795 10.1512 0.00982664 9.57467 0.000302539C8.99808 -0.00922157 8.44041 0.206445 8.01961 0.601687L2.93392 5.70242L2.92067 5.71836C1.00064 7.77706 -0.0460765 10.5032 0.00155731 13.3211C0.0491911 16.139 1.18745 18.828 3.17595 20.8203C5.16445 22.8126 7.84754 23.9522 10.6586 23.9985C13.4697 24.0448 16.1886 22.9941 18.2413 21.0684H18.2572Z"/>
<path d="M21.207 4.97716C21.207 4.38657 20.9735 3.82006 20.5576 3.40177C20.1411 2.98436 19.5763 2.74987 18.9874 2.74987C18.3984 2.74987 17.8336 2.98436 17.4171 3.40177L9.03727 11.81C8.65554 12.233 8.45032 12.7867 8.46394 13.3569C8.47756 13.9271 8.70898 14.4703 9.11047 14.8745C9.51195 15.2786 10.0529 15.5129 10.6216 15.529C11.1904 15.545 11.7436 15.3416 12.1671 14.9608L20.5576 6.55254C20.9735 6.13425 21.207 5.56774 21.207 4.97716Z"/>
</g>
</svg>
