<svg width="16" height="16" viewBox="0 0 16 16" xmlns="http://www.w3.org/2000/svg">
<path d="M7.33336 12.4179C7.33336 12.2455 7.48103 12.1053 7.67003 12.1053H8.33002C8.51602 12.1053 8.66669 12.2477 8.66669 12.4179V13.6874C8.66669 13.8598 8.51902 14 8.33002 14H7.67003C7.48403 14 7.33336 13.8576 7.33336 13.6874V12.4179ZM9.42569 9.30956C9.29334 9.3582 9.16169 9.40967 9.03502 9.46999C8.79302 9.58524 8.66369 9.77251 8.65469 10.0327C8.65102 10.141 8.65602 10.2525 8.63102 10.357C8.55802 10.6624 8.25069 10.8705 7.93868 10.8389C7.58636 10.8033 7.3407 10.5528 7.32736 10.2231C7.29136 9.33357 7.68203 8.68619 8.53369 8.29871C8.64851 8.24513 8.7661 8.19707 8.88602 8.15471C10.041 7.75998 10.7643 6.67713 10.636 5.53049C10.5073 4.37881 9.55001 3.44122 8.34837 3.29217C6.77536 3.09637 5.38204 4.22185 5.33004 5.7247C5.32738 5.80681 5.32337 5.89176 5.30004 5.97007C5.21239 6.26849 4.89537 6.46397 4.5827 6.42007C4.23872 6.37144 3.99605 6.11281 4.00005 5.77713C4.01205 4.8487 4.31872 4.01469 4.97337 3.32343C6.04836 2.18815 7.40003 1.75774 8.95869 2.13164C10.5323 2.509 11.5073 3.50469 11.8873 5.00628C11.952 5.2627 11.964 5.53143 12 5.79418C11.9647 7.37061 10.969 8.73924 9.42569 9.30956Z"/>
</svg>
