<svg width="16" height="16" viewBox="0 0 16 16" xmlns="http://www.w3.org/2000/svg">
<path fill-rule="evenodd" clip-rule="evenodd" d="M13.181 5.1635C12.8838 5.01206 12.6646 5.00001 11.5 5.00001H4.5C3.3354 5.00001 3.11623 5.01206 2.81901 5.1635C2.53677 5.30731 2.3073 5.53678 2.16349 5.81903C2.0964 5.9507 2.05031 6.12455 2.02559 6.42713C2.00039 6.73555 2 7.13171 2 7.70001L2 8.30001C2 8.86832 2.00039 9.26447 2.02559 9.57289C2.05031 9.87548 2.0964 10.0493 2.16349 10.181C2.3073 10.4632 2.53677 10.6927 2.81902 10.8365C3.11624 10.988 3.3354 11 4.5 11H11.5C12.6646 11 12.8838 10.988 13.181 10.8365C13.4632 10.6927 13.6927 10.4632 13.8365 10.181C13.988 9.88378 14 9.66461 14 8.50001V7.50001C14 6.33541 13.988 6.11625 13.8365 5.81903C13.6927 5.53678 13.4632 5.30731 13.181 5.1635ZM11.6259 3.99997C12.6156 3.99952 13.0988 3.9993 13.635 4.2725C14.1054 4.51218 14.4878 4.89463 14.7275 5.36504C15.0007 5.90121 15.0005 6.38438 15 7.37411C15 7.41519 15 7.45714 15 7.50001V8.50001C15 8.54289 15 8.58485 15 8.62594C15.0005 9.61565 15.0007 10.0988 14.7275 10.635C14.4878 11.1054 14.1054 11.4878 13.635 11.7275C13.0988 12.0007 12.6156 12.0005 11.6259 12.0001C11.5848 12 11.5429 12 11.5 12H4.5C4.45713 12 4.41517 12 4.37409 12.0001C3.38437 12.0005 2.9012 12.0007 2.36503 11.7275C1.89462 11.4878 1.51217 11.1054 1.27249 10.635C1.12159 10.3388 1.05869 10.0188 1.02891 9.65433C0.999993 9.30039 0.999997 8.86331 1 8.32142L1 7.67861C0.999995 7.13671 0.999991 6.69964 1.02891 6.3457C1.05868 5.98128 1.12159 5.66118 1.27248 5.36504C1.51217 4.89463 1.89462 4.51218 2.36502 4.2725C2.9012 3.9993 3.38437 3.99952 4.3741 3.99997C4.41518 3.99999 4.45713 4.00001 4.5 4.00001H11.5C11.5429 4.00001 11.5848 3.99999 11.6259 3.99997ZM1 14.5C1 14.2239 1.22386 14 1.5 14H14.5C14.7761 14 15 14.2239 15 14.5C15 14.7762 14.7761 15 14.5 15H1.5C1.22386 15 1 14.7762 1 14.5Z"/>
</svg>

