<svg width="16" height="16" viewBox="0 0 16 16" xmlns="http://www.w3.org/2000/svg">
<path fill-rule="evenodd" clip-rule="evenodd" d="M8 2.02109C7.99746 2.02237 7.99483 2.02369 7.99212 2.02506L2.61276 4.73071L4.97003 5.91634C4.97337 5.91797 4.9767 5.91965 4.98001 5.92136L7.99212 7.43635C7.99483 7.43772 7.99746 7.43904 8 7.44032C8.00254 7.43904 8.00517 7.43772 8.00788 7.43635L11.02 5.92135C11.0233 5.91965 11.0266 5.91797 11.03 5.91634L13.3872 4.73071L8.00788 2.02506C8.00517 2.02369 8.00254 2.02237 8 2.02109ZM12.3628 6.36535L14.7247 5.17739C14.8935 5.09248 15 4.91966 15 4.73071C15 4.54175 14.8935 4.36893 14.7247 4.28402L8.45722 1.1317C8.45174 1.12894 8.44579 1.1259 8.43939 1.12264C8.37657 1.09058 8.27071 1.03656 8.15266 1.01428C8.05177 0.99524 7.94823 0.99524 7.84734 1.01428C7.72929 1.03656 7.62343 1.09058 7.56061 1.12264C7.55421 1.1259 7.54826 1.12894 7.54278 1.1317L1.27533 4.28402C1.10652 4.36893 1 4.54175 1 4.73071C1 4.91966 1.10652 5.09248 1.27533 5.17739L3.63724 6.36535L1.27533 7.55332C1.10652 7.63822 1 7.81104 1 8C1 8.18896 1.10652 8.36178 1.27533 8.44668L3.63724 9.63465L1.27533 10.8226C1.10652 10.9075 1 11.0803 1 11.2693C1 11.4583 1.10652 11.6311 1.27533 11.716L7.54278 14.8683C7.54826 14.8711 7.55421 14.8741 7.56061 14.8774C7.62343 14.9094 7.72929 14.9634 7.84734 14.9857C7.94823 15.0048 8.05177 15.0048 8.15266 14.9857C8.27071 14.9634 8.37657 14.9094 8.43939 14.8774C8.44579 14.8741 8.45174 14.8711 8.45722 14.8683L14.7247 11.716C14.8935 11.6311 15 11.4583 15 11.2693C15 11.0803 14.8935 10.9075 14.7247 10.8226L12.3628 9.63465L14.7247 8.44668C14.8935 8.36178 15 8.18896 15 8C15 7.81104 14.8935 7.63822 14.7247 7.55332L12.3628 6.36535ZM11.25 6.92503L8.45722 8.32972C8.45174 8.33247 8.44579 8.33551 8.43939 8.33878C8.37656 8.37083 8.27071 8.42485 8.15266 8.44713C8.05177 8.46617 7.94823 8.46617 7.84734 8.44713C7.72929 8.42485 7.62344 8.37083 7.56061 8.33878C7.55421 8.33551 7.54826 8.33247 7.54278 8.32972L4.75 6.92503L2.61276 8L4.97002 9.18563C4.97337 9.18727 4.9767 9.18894 4.98002 9.19065L7.99212 10.7056C7.99483 10.707 7.99746 10.7083 8 10.7096C8.00254 10.7083 8.00517 10.707 8.00788 10.7056L11.02 9.19065C11.0233 9.18894 11.0266 9.18727 11.03 9.18563L13.3872 8L11.25 6.92503ZM11.25 10.1943L8.45722 11.599C8.45174 11.6018 8.44579 11.6048 8.43939 11.6081C8.37657 11.6401 8.27071 11.6941 8.15266 11.7164L8.05993 11.2251L8.15266 11.7164C8.05177 11.7355 7.94823 11.7355 7.84734 11.7164L7.94007 11.2251L7.84734 11.7164C7.72929 11.6941 7.62343 11.6401 7.56061 11.6081C7.55421 11.6048 7.54826 11.6018 7.54278 11.599L4.75 10.1943L2.61276 11.2693L7.99212 13.9749C7.99483 13.9763 7.99746 13.9776 8 13.9789C8.00254 13.9776 8.00517 13.9763 8.00788 13.9749L13.3872 11.2693L11.25 10.1943Z"/>
</svg>
