<svg width="16" height="16" viewBox="0 0 16 16" xmlns="http://www.w3.org/2000/svg">
<path d="M10.6809 14H5.31915C5.05851 14 4.90213 14 4.7234 13.9445C4.57447 13.896 4.42553 13.8197 4.30638 13.7156C4.17234 13.5977 4.09043 13.459 3.96383 13.2578L1.25319 8.70751C1.13404 8.50636 1.05957 8.3815 1.02234 8.22196C0.992553 8.0763 0.992553 7.93064 1.02234 7.79191C1.05957 7.63237 1.1266 7.50751 1.25319 7.30636L3.97128 2.74913C4.09787 2.5341 4.17234 2.40925 4.31383 2.29133C4.42553 2.18035 4.57447 2.10405 4.7234 2.05549C4.90213 2 5.05851 2 5.31915 2H10.6809C10.9415 2 11.0979 2 11.2766 2.05549C11.433 2.10405 11.5745 2.18035 11.6936 2.28439C11.8351 2.40231 11.9096 2.5341 12.0362 2.7422L14.7468 7.29942C14.866 7.49364 14.9404 7.62543 14.9777 7.78497C15.0074 7.93064 15.0074 8.0763 14.9777 8.21503C14.9404 8.3815 14.866 8.50636 14.7468 8.70751L12.0362 13.2578C11.9096 13.4728 11.8351 13.5977 11.6936 13.7156C11.567 13.8197 11.4255 13.9029 11.2691 13.9445C11.0979 14 10.9415 14 10.6809 14ZM5.31915 2.92254C5.19255 2.92254 5.06596 2.92254 5.03617 2.92948C4.95426 2.98497 4.89468 3.08902 4.82766 3.19306L2.11702 7.74335C2.05745 7.84046 1.99787 7.93757 1.99043 7.96532C1.99787 8.05549 2.05745 8.1526 2.11702 8.24971L4.83511 12.8069C4.89468 12.904 4.95426 13.015 4.98404 13.0358C5.0734 13.0775 5.20745 13.0775 5.3266 13.0775H10.6809C10.8074 13.0775 10.934 13.0775 10.9638 13.0705C11.0457 13.015 11.1128 12.904 11.1723 12.8069L13.883 8.25665C13.9426 8.15954 14.0021 8.06243 14.0096 8.03468C14.0021 7.94451 13.9426 7.8474 13.883 7.75029L11.1723 3.2C11.1128 3.09595 11.0457 2.99191 11.0234 2.9711C10.934 2.92948 10.8074 2.92948 10.6809 2.92948H5.31915V2.92254Z"/>
</svg>
