<svg width="16" height="16" viewBox="0 0 16 16" xmlns="http://www.w3.org/2000/svg">
<path d="M7.29079 4.28355C7.1046 4.4651 7 4.71133 7 4.96809C7 5.22484 7.1046 5.47107 7.29079 5.65263C7.47698 5.83418 7.72951 5.93617 7.99282 5.93617H8.007C8.1374 5.93619 8.26652 5.91117 8.38699 5.86253C8.50747 5.81389 8.61693 5.74259 8.70915 5.65269C8.80136 5.56279 8.8745 5.45606 8.92441 5.3386C8.97431 5.22113 9 5.09523 9 4.96809C9 4.84094 8.97431 4.71504 8.92441 4.59757C8.8745 4.48011 8.80136 4.37338 8.70915 4.28348C8.61693 4.19359 8.50747 4.12228 8.38699 4.07364C8.26652 4.025 8.1374 3.99998 8.007 4H7.99282C7.72951 4 7.47698 4.102 7.29079 4.28355Z"/>
<path d="M8.69484 7.31546C8.50866 7.13391 8.25613 7.03192 7.99282 7.03192C7.72951 7.03192 7.47698 7.13391 7.29079 7.31546C7.1046 7.49701 7 7.74325 7 8V11.0319C7 11.2887 7.1046 11.5349 7.29079 11.7165C7.47698 11.898 7.72951 12 7.99282 12C8.25613 12 8.50866 11.898 8.69484 11.7165C8.88103 11.5349 8.98563 11.2887 8.98563 11.0319V8C8.98563 7.74325 8.88103 7.49701 8.69484 7.31546Z"/>
<path fill-rule="evenodd" clip-rule="evenodd" d="M8 2C4.68629 2 2 4.68629 2 8C2 11.3137 4.68629 14 8 14C11.3137 14 14 11.3137 14 8C14 4.68629 11.3137 2 8 2ZM1 8C1 4.13401 4.13401 1 8 1C11.866 1 15 4.13401 15 8C15 11.866 11.866 15 8 15C4.13401 15 1 11.866 1 8Z"/>
</svg>
