<svg width="16" height="16" viewBox="0 0 16 16" xmlns="http://www.w3.org/2000/svg">
<path fill-rule="evenodd" clip-rule="evenodd" d="M1.25 2C1.25 1.58579 1.58579 1.25 2 1.25H2.00667C2.42088 1.25 2.75667 1.58579 2.75667 2C2.75667 2.41421 2.42088 2.75 2.00667 2.75H2C1.58579 2.75 1.25 2.41421 1.25 2ZM4.25 2C4.25 1.58579 4.58579 1.25 5 1.25H5.00667C5.42088 1.25 5.75667 1.58579 5.75667 2C5.75667 2.41421 5.42088 2.75 5.00667 2.75H5C4.58579 2.75 4.25 2.41421 4.25 2ZM7.25 2C7.25 1.58579 7.58579 1.25 8 1.25H8.00667C8.42088 1.25 8.75667 1.58579 8.75667 2C8.75667 2.41421 8.42088 2.75 8.00667 2.75H8C7.58579 2.75 7.25 2.41421 7.25 2ZM10.25 2C10.25 1.58579 10.5858 1.25 11 1.25H11.0067C11.4209 1.25 11.7567 1.58579 11.7567 2C11.7567 2.41421 11.4209 2.75 11.0067 2.75H11C10.5858 2.75 10.25 2.41421 10.25 2ZM13.25 2C13.25 1.58579 13.5858 1.25 14 1.25H14.0067C14.4209 1.25 14.7567 1.58579 14.7567 2C14.7567 2.41421 14.4209 2.75 14.0067 2.75H14C13.5858 2.75 13.25 2.41421 13.25 2ZM1.25 5C1.25 4.58579 1.58579 4.25 2 4.25H2.00667C2.42088 4.25 2.75667 4.58579 2.75667 5C2.75667 5.41421 2.42088 5.75 2.00667 5.75H2C1.58579 5.75 1.25 5.41421 1.25 5ZM7.25 5C7.25 4.58579 7.58579 4.25 8 4.25H8.00667C8.42088 4.25 8.75667 4.58579 8.75667 5C8.75667 5.41421 8.42088 5.75 8.00667 5.75H8C7.58579 5.75 7.25 5.41421 7.25 5ZM13.25 5C13.25 4.58579 13.5858 4.25 14 4.25H14.0067C14.4209 4.25 14.7567 4.58579 14.7567 5C14.7567 5.41421 14.4209 5.75 14.0067 5.75H14C13.5858 5.75 13.25 5.41421 13.25 5ZM1.25 8C1.25 7.58579 1.58579 7.25 2 7.25H2.00667C2.42088 7.25 2.75667 7.58579 2.75667 8C2.75667 8.41421 2.42088 8.75 2.00667 8.75H2C1.58579 8.75 1.25 8.41421 1.25 8ZM4.25 8C4.25 7.58579 4.58579 7.25 5 7.25H5.00667C5.42088 7.25 5.75667 7.58579 5.75667 8C5.75667 8.41421 5.42088 8.75 5.00667 8.75H5C4.58579 8.75 4.25 8.41421 4.25 8ZM7.25 8C7.25 7.58579 7.58579 7.25 8 7.25H8.00667C8.42088 7.25 8.75667 7.58579 8.75667 8C8.75667 8.41421 8.42088 8.75 8.00667 8.75H8C7.58579 8.75 7.25 8.41421 7.25 8ZM10.25 8C10.25 7.58579 10.5858 7.25 11 7.25H11.0067C11.4209 7.25 11.7567 7.58579 11.7567 8C11.7567 8.41421 11.4209 8.75 11.0067 8.75H11C10.5858 8.75 10.25 8.41421 10.25 8ZM13.25 8C13.25 7.58579 13.5858 7.25 14 7.25H14.0067C14.4209 7.25 14.7567 7.58579 14.7567 8C14.7567 8.41421 14.4209 8.75 14.0067 8.75H14C13.5858 8.75 13.25 8.41421 13.25 8ZM1.25 11C1.25 10.5858 1.58579 10.25 2 10.25H2.00667C2.42088 10.25 2.75667 10.5858 2.75667 11C2.75667 11.4142 2.42088 11.75 2.00667 11.75H2C1.58579 11.75 1.25 11.4142 1.25 11ZM7.25 11C7.25 10.5858 7.58579 10.25 8 10.25H8.00667C8.42088 10.25 8.75667 10.5858 8.75667 11C8.75667 11.4142 8.42088 11.75 8.00667 11.75H8C7.58579 11.75 7.25 11.4142 7.25 11ZM13.25 11C13.25 10.5858 13.5858 10.25 14 10.25H14.0067C14.4209 10.25 14.7567 10.5858 14.7567 11C14.7567 11.4142 14.4209 11.75 14.0067 11.75H14C13.5858 11.75 13.25 11.4142 13.25 11ZM1.25 14C1.25 13.5858 1.58579 13.25 2 13.25H2.00667C2.42088 13.25 2.75667 13.5858 2.75667 14C2.75667 14.4142 2.42088 14.75 2.00667 14.75H2C1.58579 14.75 1.25 14.4142 1.25 14ZM4.25 14C4.25 13.5858 4.58579 13.25 5 13.25H5.00667C5.42088 13.25 5.75667 13.5858 5.75667 14C5.75667 14.4142 5.42088 14.75 5.00667 14.75H5C4.58579 14.75 4.25 14.4142 4.25 14ZM7.25 14C7.25 13.5858 7.58579 13.25 8 13.25H8.00667C8.42088 13.25 8.75667 13.5858 8.75667 14C8.75667 14.4142 8.42088 14.75 8.00667 14.75H8C7.58579 14.75 7.25 14.4142 7.25 14ZM10.25 14C10.25 13.5858 10.5858 13.25 11 13.25H11.0067C11.4209 13.25 11.7567 13.5858 11.7567 14C11.7567 14.4142 11.4209 14.75 11.0067 14.75H11C10.5858 14.75 10.25 14.4142 10.25 14ZM13.25 14C13.25 13.5858 13.5858 13.25 14 13.25H14.0067C14.4209 13.25 14.7567 13.5858 14.7567 14C14.7567 14.4142 14.4209 14.75 14.0067 14.75H14C13.5858 14.75 13.25 14.4142 13.25 14Z"/>
</svg>
