<svg width="16" height="16" viewBox="0 0 16 16" xmlns="http://www.w3.org/2000/svg">
<path d="M7.99993 14.9643C4.14279 14.9643 1.03564 11.8571 1.03564 7.99999C1.03564 4.14285 4.14279 1.03571 7.99993 1.03571C11.8571 1.03571 14.9642 4.14285 14.9642 7.99999C14.9642 9.39285 13.8928 10.4643 12.4999 10.4643H11.6428C10.9999 10.5714 10.5714 11 10.4642 11.6428V12.5C10.4642 13.8928 9.39279 14.9643 7.99993 14.9643ZM7.99993 2.10713C4.78564 2.10713 2.10707 4.78571 2.10707 7.99999C2.10707 11.2143 4.78564 13.8928 7.99993 13.8928C8.74993 13.8928 9.39279 13.25 9.39279 12.5V12.1786V11.5357C9.49993 10.4643 10.4642 9.60713 11.5356 9.39285H12.4999C13.2499 9.39285 13.8928 8.74999 13.8928 7.99999C13.8928 4.78571 11.2142 2.10713 7.99993 2.10713Z"/>
<path d="M4.7855 9.17861C4.14265 9.17861 3.60693 8.64289 3.60693 8.00003C3.60693 7.35718 4.14265 6.82146 4.7855 6.82146C5.42836 6.82146 5.96408 7.35718 5.96408 8.00003C5.96408 8.64289 5.42836 9.17861 4.7855 9.17861ZM10.5712 6.60718C9.92836 6.60718 9.39265 6.07146 9.39265 5.42861C9.39265 4.78575 9.92836 4.25003 10.5712 4.25003C11.2141 4.25003 11.7498 4.78575 11.7498 5.42861C11.7498 6.07146 11.2141 6.60718 10.5712 6.60718ZM6.71408 5.96432C6.07122 5.96432 5.5355 5.42861 5.5355 4.78575C5.5355 4.14289 6.07122 3.60718 6.71408 3.60718C7.35693 3.60718 7.89265 4.14289 7.89265 4.78575C7.89265 5.42861 7.35693 5.96432 6.71408 5.96432Z"/>
</svg>
