<svg width="16" height="16" viewBox="0 0 16 16" xmlns="http://www.w3.org/2000/svg">
<path fill-rule="evenodd" clip-rule="evenodd" d="M4.94508 1L11.0549 1C11.6433 0.999996 12.1154 0.999993 12.4971 1.03118C12.8893 1.06323 13.23 1.13067 13.544 1.29065C14.0457 1.54631 14.4537 1.95426 14.7094 2.45603C14.8693 2.77 14.9368 3.11067 14.9688 3.50289C15 3.88461 15 4.35666 15 4.94507V11.0549C15 11.6433 15 12.1154 14.9688 12.4971C14.9368 12.8893 14.8693 13.23 14.7094 13.544C14.4537 14.0457 14.0457 14.4537 13.544 14.7094C13.23 14.8693 12.8893 14.9368 12.4971 14.9688C12.1154 15 11.6433 15 11.0548 15H4.94507C4.35666 15 3.88461 15 3.50289 14.9688C3.11067 14.9368 2.77 14.8693 2.45603 14.7093C1.95426 14.4537 1.54631 14.0457 1.29065 13.544C1.13067 13.23 1.06323 12.8893 1.03118 12.4971C0.999992 12.1154 0.999995 11.6433 1 11.0549L1 4.94509C0.999996 4.35667 0.999992 3.88461 1.03118 3.50289C1.06323 3.11067 1.13067 2.77 1.29065 2.45603C1.54631 1.95426 1.95426 1.54631 2.45603 1.29065C2.77 1.13067 3.11067 1.06322 3.50289 1.03118C3.88461 0.999992 4.35666 0.999995 4.94508 1ZM3.58432 2.02786C3.25395 2.05485 3.05952 2.10548 2.91002 2.18166C2.59641 2.34144 2.34145 2.59641 2.18166 2.91002C2.10548 3.05952 2.05485 3.25394 2.02786 3.58432C2.00039 3.92053 2 4.35169 2 4.96667V11.0333C2 11.6483 2.00039 12.0795 2.02786 12.4157C2.05485 12.7461 2.10548 12.9405 2.18166 13.09C2.34144 13.4036 2.59641 13.6586 2.91002 13.8183C3.05952 13.8945 3.25394 13.9451 3.58432 13.9721C3.92053 13.9996 4.35169 14 4.96667 14H11.0333C11.6483 14 12.0795 13.9996 12.4157 13.9721C12.7461 13.9451 12.9405 13.8945 13.09 13.8183C13.4036 13.6586 13.6586 13.4036 13.8183 13.09C13.8945 12.9405 13.9451 12.7461 13.9721 12.4157C13.9996 12.0795 14 11.6483 14 11.0333V4.96667C14 4.35169 13.9996 3.92053 13.9721 3.58432C13.9451 3.25395 13.8945 3.05952 13.8183 2.91002C13.6586 2.59641 13.4036 2.34145 13.09 2.18166C12.9405 2.10548 12.7461 2.05485 12.4157 2.02786C12.0795 2.00039 11.6483 2 11.0333 2L4.96667 2C4.35169 2 3.92053 2.00039 3.58432 2.02786Z"/>
<path fill-rule="evenodd" clip-rule="evenodd" d="M10 6H6V10H10V6ZM5 5V11H11V5H5Z"/>
</svg>
