<svg width="16" height="16" viewBox="0 0 16 16" xmlns="http://www.w3.org/2000/svg">
<path fill-rule="evenodd" clip-rule="evenodd" d="M10.9744 12.5729C10.9996 12.2645 11 11.8683 11 11.3L11 4.7C11 4.1317 10.9996 3.73554 10.9744 3.42712C10.9497 3.12454 10.9036 2.95069 10.8365 2.81901C10.6927 2.53677 10.4632 2.3073 10.181 2.16349C10.0493 2.0964 9.87546 2.05031 9.57288 2.02559C9.26446 2.00039 8.8683 2 8.3 2L7.7 2C7.1317 2 6.73554 2.00039 6.42712 2.02559C6.12453 2.05031 5.95069 2.0964 5.81901 2.16349C5.53677 2.3073 5.3073 2.53677 5.16349 2.81902C5.09639 2.95069 5.05031 3.12454 5.02559 3.42712C5.00039 3.73554 5 4.1317 5 4.7L5 11.3C5 11.8683 5.00039 12.2645 5.02559 12.5729C5.05031 12.8755 5.0964 13.0493 5.16349 13.181C5.3073 13.4632 5.53677 13.6927 5.81901 13.8365C5.95069 13.9036 6.12453 13.9497 6.42712 13.9744C6.73554 13.9996 7.1317 14 7.7 14L8.3 14C8.8683 14 9.26446 13.9996 9.57288 13.9744C9.87546 13.9497 10.0493 13.9036 10.181 13.8365C10.4632 13.6927 10.6927 13.4632 10.8365 13.181C10.9036 13.0493 10.9497 12.8755 10.9744 12.5729ZM11.9711 12.6543C11.9413 13.0187 11.8784 13.3388 11.7275 13.635C11.4878 14.1054 11.1054 14.4878 10.635 14.7275C10.3388 14.8784 10.0187 14.9413 9.65431 14.9711C9.30037 15 8.8633 15 8.32142 15L7.67858 15C7.1367 15 6.69962 15 6.34569 14.9711C5.98126 14.9413 5.66117 14.8784 5.36502 14.7275C4.89462 14.4878 4.51217 14.1054 4.27248 13.635C4.12159 13.3388 4.05868 13.0187 4.02891 12.6543C3.99999 12.3004 3.99999 11.8633 4 11.3214L4 4.67861C3.99999 4.13671 3.99999 3.69963 4.02891 3.34569C4.05868 2.98126 4.12159 2.66117 4.27248 2.36502C4.51216 1.89462 4.89461 1.51217 5.36502 1.27248C5.66117 1.12159 5.98126 1.05868 6.34569 1.02891C6.69963 0.999992 7.1367 0.999996 7.6786 1L8.3214 1C8.8633 0.999995 9.30037 0.999991 9.65431 1.02891C10.0187 1.05868 10.3388 1.12159 10.635 1.27248C11.1054 1.51217 11.4878 1.89462 11.7275 2.36502C11.8784 2.66117 11.9413 2.98126 11.9711 3.34569C12 3.69963 12 4.13671 12 4.6786L12 11.3214C12 11.8633 12 12.3004 11.9711 12.6543ZM2 14.5C2 14.7761 1.77614 15 1.5 15C1.22386 15 0.999999 14.7761 0.999999 14.5L0.999999 1.5C0.999999 1.22386 1.22386 1 1.5 1C1.77614 1 2 1.22386 2 1.5L2 14.5Z"/>
</svg>
