<svg width="16" height="16" viewBox="0 0 16 16" xmlns="http://www.w3.org/2000/svg">
<path fill-rule="evenodd" clip-rule="evenodd" d="M1.00004 11.1397C1.00006 11.0939 1.00008 11.0474 1.00008 11L1.00008 5.07833C1.00007 4.46664 1.00007 3.9771 1.03239 3.58148C1.06557 3.17537 1.13529 2.82441 1.29981 2.50152C1.56346 1.98408 1.98416 1.56338 2.5016 1.29973C2.82449 1.13521 3.17545 1.06549 3.58157 1.03231C3.97718 0.999988 4.46672 0.999992 5.0784 0.999997L10.9217 0.999996C11.5333 0.999991 12.0229 0.999987 12.4185 1.03231C12.8246 1.06549 13.1756 1.13521 13.4985 1.29973C14.0159 1.56338 14.4366 1.98407 14.7002 2.50152C14.8648 2.82441 14.9345 3.17537 14.9677 3.58148C15 3.97711 15 4.46666 15 5.07837L15.0001 11C15.0001 11.047 15.0001 11.0932 15.0001 11.1386C15.0006 12.2592 15.0009 12.9085 14.7002 13.4985C14.4366 14.0159 14.0159 14.4366 13.4985 14.7003C13.1756 14.8648 12.8246 14.9345 12.4185 14.9677C12.0229 15 11.5333 15 10.9216 15L5.0784 15C4.46672 15 3.97718 15 3.58157 14.9677C3.17545 14.9345 2.82449 14.8648 2.5016 14.7003C1.98416 14.4366 1.56346 14.0159 1.29981 13.4985C0.999271 12.9086 0.999553 12.2595 1.00004 11.1397ZM2.00008 11C2.00008 12.3139 2.01316 12.6958 2.19082 13.0445C2.3586 13.3738 2.62631 13.6415 2.95559 13.8093C3.11401 13.89 3.31873 13.9429 3.663 13.971C4.01311 13.9996 4.46177 14 5.10008 14L10.9 14C11.5383 14 11.9869 13.9996 12.3371 13.971C12.6813 13.9429 12.886 13.89 13.0445 13.8093C13.3737 13.6415 13.6415 13.3738 13.8092 13.0445C13.9869 12.6958 14.0001 12.3138 14.0001 11L14 5.1C14 4.46169 13.9996 4.01302 13.971 3.66292C13.9429 3.31864 13.89 3.11393 13.8092 2.95551C13.6415 2.62623 13.3737 2.35851 13.0445 2.19073C12.886 2.11002 12.6813 2.05712 12.3371 2.02899C11.987 2.00038 11.5383 2 10.9 2L5.10008 2C4.46177 2 4.01311 2.00039 3.663 2.02899C3.31873 2.05712 3.11401 2.11002 2.95559 2.19074C2.62631 2.35851 2.35859 2.62623 2.19082 2.95551C2.1101 3.11393 2.0572 3.31865 2.02907 3.66292C2.00047 4.01303 2.00008 4.46169 2.00008 5.1L2.00008 11ZM4.50008 13C4.22394 13 4.00008 12.7761 4.00008 12.5L4.00008 3.5C4.00008 3.22386 4.22394 3 4.50008 3C4.77622 3 5.00008 3.22386 5.00008 3.5L5.00008 12.5C5.00008 12.7761 4.77622 13 4.50008 13Z"/>
</svg>
