<svg width="15" height="15" viewBox="0 0 15 15" xmlns="http://www.w3.org/2000/svg"><path d="M7.808 1.031 C 7.764 1.045,7.694 1.086,7.652 1.122 C 7.556 1.206,3.193 7.832,3.091 8.049 C 2.872 8.518,3.093 9.039,3.564 9.162 C 3.688 9.194,3.958 9.200,5.331 9.200 L 6.952 9.200 6.939 9.281 C 6.932 9.326,6.834 10.299,6.722 11.443 C 6.493 13.781,6.495 13.670,6.678 13.853 C 6.841 14.016,7.106 14.044,7.297 13.918 C 7.374 13.867,7.823 13.201,9.613 10.484 C 10.834 8.629,11.868 7.039,11.910 6.950 C 12.058 6.640,12.000 6.258,11.772 6.027 C 11.725 5.980,11.626 5.913,11.550 5.877 L 11.413 5.813 9.731 5.805 L 8.050 5.798 8.063 5.705 C 8.070 5.654,8.167 4.684,8.278 3.550 C 8.498 1.323,8.496 1.370,8.370 1.193 C 8.341 1.153,8.260 1.093,8.190 1.060 C 8.055 0.997,7.940 0.988,7.808 1.031 M7.131 4.930 C 6.974 6.520,6.974 6.474,7.150 6.650 C 7.203 6.703,7.290 6.759,7.342 6.773 C 7.405 6.791,8.017 6.800,9.133 6.800 C 10.066 6.800,10.825 6.810,10.821 6.821 C 10.805 6.863,7.743 11.501,7.736 11.494 C 7.732 11.491,7.792 10.852,7.868 10.075 C 8.023 8.492,8.024 8.524,7.854 8.354 C 7.803 8.303,7.715 8.248,7.659 8.231 C 7.583 8.208,7.128 8.200,5.864 8.200 C 4.917 8.200,4.175 8.190,4.179 8.178 C 4.195 8.137,7.257 3.499,7.264 3.506 C 7.268 3.509,7.208 4.150,7.131 4.930 " stroke="none" fill-rule="evenodd" fill="black"></path></svg>