<svg width="14" height="14" viewBox="0 0 14 14" xmlns="http://www.w3.org/2000/svg"><path d="M8.572 2.043 C 8.170 2.111,7.713 2.299,7.377 2.535 C 7.291 2.595,6.999 2.865,6.726 3.135 C 6.172 3.684,6.143 3.727,6.167 3.959 C 6.201 4.286,6.577 4.500,6.860 4.353 C 6.905 4.330,7.141 4.115,7.385 3.875 C 7.640 3.625,7.899 3.393,7.996 3.330 C 9.011 2.658,10.387 3.078,10.851 4.203 C 11.038 4.656,11.037 5.215,10.850 5.670 C 10.734 5.952,10.582 6.148,10.101 6.639 C 9.677 7.072,9.642 7.115,9.615 7.225 C 9.545 7.519,9.746 7.802,10.047 7.834 C 10.273 7.857,10.319 7.825,10.877 7.262 C 11.407 6.726,11.565 6.524,11.723 6.179 C 11.907 5.773,11.993 5.378,11.993 4.935 C 11.993 4.156,11.714 3.463,11.177 2.908 C 10.722 2.438,10.165 2.144,9.538 2.042 C 9.275 1.999,8.829 2.000,8.572 2.043 M8.493 4.842 C 8.406 4.881,4.956 8.309,4.877 8.436 C 4.722 8.684,4.815 9.021,5.075 9.147 C 5.201 9.208,5.369 9.212,5.498 9.159 C 5.622 9.107,9.080 5.655,9.149 5.514 C 9.253 5.299,9.183 5.027,8.987 4.889 C 8.905 4.832,8.861 4.819,8.731 4.813 C 8.627 4.808,8.548 4.818,8.493 4.842 M3.698 6.203 C 3.553 6.273,2.652 7.198,2.489 7.446 C 2.166 7.936,2.007 8.472,2.007 9.065 C 2.007 9.870,2.294 10.560,2.867 11.133 C 3.440 11.706,4.130 11.993,4.935 11.993 C 5.528 11.993,6.064 11.834,6.554 11.511 C 6.832 11.328,7.752 10.420,7.808 10.274 C 7.903 10.026,7.770 9.730,7.522 9.635 C 7.422 9.597,7.225 9.605,7.136 9.650 C 7.093 9.672,6.857 9.887,6.612 10.129 C 6.329 10.406,6.100 10.610,5.988 10.683 C 5.394 11.071,4.611 11.098,3.990 10.752 C 3.020 10.211,2.713 8.946,3.324 8.002 C 3.390 7.900,3.603 7.662,3.871 7.388 C 4.113 7.143,4.330 6.905,4.353 6.860 C 4.458 6.657,4.372 6.369,4.168 6.243 C 4.023 6.154,3.835 6.138,3.698 6.203 " stroke="none" fill-rule="evenodd" fill="black"></path></svg>