<svg width="14" height="14" viewBox="0 0 14 14" xmlns="http://www.w3.org/2000/svg"><path d="M6.758 1.028 C 6.708 1.040,6.608 1.082,6.535 1.121 C 6.341 1.224,1.119 5.411,1.062 5.509 C 1.028 5.568,1.016 5.631,1.015 5.753 C 1.015 5.895,1.024 5.932,1.079 6.016 C 1.169 6.150,1.297 6.230,1.452 6.246 C 1.611 6.262,1.725 6.215,1.937 6.044 L 2.088 5.922 2.100 8.742 C 2.113 11.906,2.102 11.714,2.287 12.098 C 2.490 12.518,2.856 12.820,3.313 12.944 C 3.455 12.982,3.699 12.985,7.000 12.985 L 10.535 12.985 10.721 12.931 C 11.288 12.767,11.697 12.333,11.845 11.737 C 11.886 11.572,11.889 11.392,11.900 8.742 L 11.912 5.922 12.063 6.044 C 12.275 6.215,12.389 6.262,12.548 6.246 C 12.703 6.230,12.831 6.151,12.921 6.016 C 12.975 5.934,12.985 5.893,12.985 5.765 C 12.985 5.660,12.971 5.583,12.940 5.521 C 12.903 5.447,12.387 5.023,10.245 3.309 C 8.256 1.718,7.553 1.167,7.427 1.105 C 7.280 1.031,7.234 1.020,7.054 1.013 C 6.941 1.009,6.808 1.015,6.758 1.028 M7.287 2.244 C 7.354 2.287,8.193 2.949,9.152 3.716 L 10.897 5.110 10.896 8.196 C 10.896 10.138,10.887 11.342,10.872 11.444 C 10.832 11.722,10.671 11.921,10.448 11.969 C 10.386 11.982,10.067 11.993,9.741 11.993 L 9.147 11.993 9.147 9.845 C 9.147 7.460,9.149 7.505,8.993 7.241 C 8.835 6.974,8.570 6.794,8.260 6.745 C 8.171 6.730,7.652 6.720,7.000 6.720 C 6.348 6.720,5.829 6.730,5.740 6.745 C 5.430 6.794,5.165 6.974,5.007 7.241 C 4.851 7.505,4.853 7.460,4.853 9.845 L 4.853 11.993 4.259 11.993 C 3.933 11.993,3.614 11.982,3.552 11.969 C 3.329 11.921,3.168 11.722,3.128 11.444 C 3.113 11.342,3.104 10.138,3.104 8.196 L 3.103 5.110 4.848 3.716 C 6.584 2.328,6.744 2.205,6.858 2.167 C 6.976 2.129,7.158 2.162,7.287 2.244 M8.138 9.864 L 8.144 11.993 7.000 11.993 L 5.857 11.993 5.857 9.874 C 5.857 8.708,5.864 7.747,5.872 7.739 C 5.881 7.730,6.393 7.726,7.010 7.729 L 8.132 7.735 8.138 9.864 " stroke="none" fill-rule="evenodd" fill="black"></path></svg>