<svg width="15" height="15" viewBox="0 0 15 15" fill="none" xmlns="http://www.w3.org/2000/svg"><path d="M7.342 2.024 C 7.227 2.061,7.109 2.166,7.053 2.282 L 7.000 2.391 7.000 7.504 L 7.000 12.617 7.058 12.727 C 7.090 12.788,7.164 12.871,7.223 12.913 C 7.316 12.978,7.351 12.988,7.498 12.988 C 7.639 12.988,7.683 12.977,7.767 12.920 C 7.823 12.884,7.896 12.810,7.928 12.758 L 7.988 12.663 7.988 7.500 L 7.988 2.337 7.928 2.242 C 7.843 2.106,7.708 2.024,7.546 2.012 C 7.473 2.006,7.381 2.012,7.342 2.024 M3.192 5.025 C 2.911 5.110,2.766 5.462,2.906 5.721 C 2.937 5.778,3.207 6.089,3.506 6.411 L 4.050 6.998 2.690 7.005 L 1.329 7.013 1.223 7.088 C 0.929 7.294,0.929 7.706,1.223 7.913 L 1.329 7.988 2.690 7.995 L 4.050 8.002 3.506 8.589 C 3.207 8.911,2.937 9.222,2.906 9.279 C 2.661 9.731,3.225 10.204,3.640 9.895 C 3.753 9.810,5.594 7.808,5.643 7.716 C 5.698 7.613,5.698 7.387,5.643 7.284 C 5.602 7.206,3.768 5.204,3.659 5.118 C 3.525 5.012,3.352 4.977,3.192 5.025 M11.480 5.036 C 11.434 5.057,11.372 5.094,11.341 5.118 C 11.232 5.204,9.398 7.206,9.357 7.284 C 9.302 7.387,9.302 7.613,9.357 7.716 C 9.406 7.808,11.247 9.810,11.360 9.895 C 11.775 10.204,12.339 9.731,12.094 9.279 C 12.063 9.222,11.793 8.911,11.494 8.589 L 10.950 8.002 12.306 7.995 L 13.663 7.988 13.758 7.928 C 13.810 7.896,13.884 7.823,13.920 7.767 C 13.976 7.683,13.988 7.638,13.988 7.500 C 13.988 7.362,13.976 7.317,13.920 7.233 C 13.884 7.177,13.810 7.104,13.758 7.072 L 13.663 7.013 12.306 7.005 L 10.950 6.998 11.494 6.411 C 11.793 6.089,12.063 5.778,12.094 5.721 C 12.207 5.511,12.137 5.233,11.936 5.093 C 11.810 5.005,11.604 4.980,11.480 5.036 " stroke="none" fill-rule="evenodd"></path></svg>