<svg width="16" height="16" viewBox="0 0 16 16" xmlns="http://www.w3.org/2000/svg"><path d="M7.056 3.042 C 6.875 3.086,6.643 3.230,6.494 3.390 C 6.337 3.560,6.244 3.764,6.223 3.986 C 6.216 4.060,6.205 4.159,6.197 4.207 L 6.184 4.293 4.685 4.293 L 3.185 4.293 3.135 4.200 C 3.056 4.053,2.817 3.845,2.620 3.752 C 2.451 3.672,2.421 3.667,2.147 3.667 C 1.873 3.667,1.841 3.672,1.677 3.750 C 1.250 3.953,1.008 4.327,1.008 4.787 C 1.008 5.247,1.251 5.623,1.677 5.822 C 2.016 5.981,2.480 5.944,2.785 5.734 C 2.915 5.645,3.109 5.440,3.152 5.347 L 3.182 5.280 3.970 5.280 C 4.403 5.280,4.746 5.290,4.732 5.302 C 4.718 5.314,4.599 5.407,4.467 5.508 C 3.790 6.025,3.132 6.859,2.797 7.624 C 2.571 8.138,2.391 8.784,2.334 9.283 L 2.317 9.432 2.077 9.448 C 1.887 9.460,1.800 9.480,1.667 9.543 C 1.366 9.684,1.145 9.937,1.049 10.253 C 1.006 10.393,1.000 10.514,1.000 11.213 C 1.000 11.915,1.006 12.033,1.049 12.173 C 1.175 12.581,1.482 12.869,1.896 12.966 C 1.995 12.989,2.279 13.000,2.800 13.000 C 3.615 13.000,3.741 12.986,3.984 12.864 C 4.142 12.785,4.349 12.593,4.439 12.440 C 4.586 12.188,4.600 12.081,4.599 11.200 C 4.598 10.422,4.595 10.379,4.537 10.216 C 4.367 9.737,3.951 9.440,3.452 9.440 C 3.310 9.440,3.311 9.450,3.388 9.051 C 3.621 7.844,4.347 6.763,5.382 6.078 C 5.623 5.919,6.080 5.673,6.182 5.649 C 6.205 5.643,6.235 5.694,6.265 5.789 C 6.381 6.158,6.704 6.448,7.101 6.540 C 7.292 6.584,8.708 6.584,8.899 6.540 C 9.296 6.448,9.619 6.158,9.735 5.789 C 9.765 5.694,9.795 5.643,9.818 5.649 C 9.921 5.674,10.378 5.919,10.618 6.080 C 11.663 6.776,12.378 7.842,12.612 9.051 C 12.691 9.461,12.704 9.429,12.449 9.449 C 11.973 9.486,11.589 9.795,11.449 10.253 C 11.406 10.393,11.400 10.514,11.400 11.213 C 11.400 11.915,11.406 12.033,11.449 12.173 C 11.575 12.581,11.882 12.869,12.296 12.966 C 12.493 13.012,13.904 13.013,14.099 12.967 C 14.399 12.896,14.693 12.688,14.835 12.446 C 14.987 12.187,15.000 12.085,14.999 11.200 C 14.998 10.422,14.995 10.379,14.937 10.216 C 14.764 9.728,14.352 9.440,13.828 9.440 L 13.685 9.440 13.668 9.300 C 13.509 8.021,12.958 6.880,12.067 5.986 C 11.905 5.824,11.665 5.609,11.533 5.508 C 11.401 5.407,11.282 5.314,11.268 5.302 C 11.254 5.290,11.597 5.280,12.030 5.280 L 12.818 5.280 12.848 5.347 C 12.891 5.440,13.085 5.645,13.215 5.734 C 13.520 5.944,13.984 5.981,14.323 5.822 C 14.749 5.623,14.990 5.249,14.991 4.787 C 14.992 4.328,14.751 3.953,14.323 3.750 C 14.159 3.672,14.127 3.667,13.853 3.667 C 13.579 3.667,13.549 3.672,13.380 3.752 C 13.183 3.845,12.944 4.053,12.865 4.200 L 12.815 4.293 11.317 4.293 L 9.820 4.293 9.803 4.233 C 9.795 4.200,9.787 4.125,9.787 4.065 C 9.786 3.684,9.517 3.297,9.126 3.112 L 8.947 3.027 8.053 3.022 C 7.562 3.019,7.113 3.028,7.056 3.042 M8.747 4.053 C 8.797 4.104,8.800 4.142,8.800 4.787 C 8.800 5.431,8.797 5.469,8.747 5.520 C 8.696 5.571,8.658 5.573,8.000 5.573 C 7.342 5.573,7.304 5.571,7.253 5.520 C 7.203 5.469,7.200 5.431,7.200 4.787 C 7.200 4.142,7.203 4.104,7.253 4.053 C 7.304 4.003,7.342 4.000,8.000 4.000 C 8.658 4.000,8.696 4.003,8.747 4.053 M3.562 10.492 C 3.621 10.572,3.617 11.857,3.558 11.941 C 3.517 11.999,3.511 12.000,2.800 12.000 C 2.089 12.000,2.083 11.999,2.042 11.941 C 2.007 11.891,2.000 11.775,2.000 11.212 C 2.000 10.528,2.006 10.482,2.107 10.445 C 2.129 10.436,2.457 10.432,2.836 10.435 C 3.483 10.440,3.527 10.443,3.562 10.492 M13.962 10.492 C 14.021 10.572,14.017 11.857,13.958 11.941 C 13.917 11.999,13.911 12.000,13.200 12.000 C 12.489 12.000,12.483 11.999,12.442 11.941 C 12.407 11.891,12.400 11.775,12.400 11.212 C 12.400 10.528,12.406 10.482,12.507 10.445 C 12.529 10.436,12.857 10.432,13.236 10.435 C 13.883 10.440,13.927 10.443,13.962 10.492 " stroke="none" fill-rule="evenodd"></path></svg>