<svg width="14" height="14" viewBox="0 0 14 14" xmlns="http://www.w3.org/2000/svg"><path d="M3.558 1.019 C 3.456 1.041,3.324 1.157,3.259 1.284 C 3.204 1.390,3.195 1.432,3.205 1.532 C 3.220 1.688,3.261 1.764,3.432 1.946 L 3.572 2.097 3.460 2.111 C 3.066 2.161,2.773 2.246,2.480 2.395 C 1.972 2.654,1.544 3.081,1.292 3.577 C 1.053 4.049,0.932 4.753,1.047 5.005 C 1.212 5.369,1.724 5.396,1.926 5.052 C 1.976 4.967,1.992 4.901,2.009 4.703 C 2.021 4.566,2.055 4.381,2.088 4.277 C 2.271 3.698,2.776 3.252,3.378 3.136 C 3.473 3.118,3.556 3.103,3.563 3.103 C 3.570 3.103,3.511 3.172,3.433 3.255 C 3.261 3.439,3.220 3.515,3.204 3.672 C 3.194 3.773,3.203 3.812,3.260 3.920 C 3.375 4.139,3.606 4.240,3.844 4.176 C 3.944 4.149,4.016 4.086,4.569 3.537 C 4.907 3.202,5.204 2.894,5.230 2.853 C 5.256 2.811,5.283 2.720,5.290 2.649 C 5.314 2.414,5.294 2.387,4.591 1.687 C 4.064 1.163,3.939 1.050,3.862 1.029 C 3.770 1.004,3.650 1.000,3.558 1.019 M8.680 1.037 C 8.254 1.099,7.888 1.213,7.512 1.401 C 6.588 1.863,5.908 2.651,5.587 3.628 C 5.482 3.949,5.483 4.099,5.591 4.252 C 5.771 4.509,6.108 4.547,6.336 4.337 C 6.422 4.257,6.448 4.210,6.512 4.017 C 6.676 3.518,6.889 3.161,7.219 2.833 C 7.470 2.584,7.657 2.447,7.948 2.301 C 9.026 1.762,10.326 1.971,11.177 2.823 C 11.738 3.384,12.024 4.128,11.987 4.930 C 11.953 5.657,11.692 6.251,11.177 6.769 C 10.832 7.117,10.513 7.311,10.008 7.479 C 9.790 7.552,9.744 7.576,9.663 7.664 C 9.497 7.845,9.481 8.070,9.621 8.275 C 9.709 8.405,9.831 8.475,9.996 8.488 C 10.088 8.495,10.174 8.478,10.372 8.413 C 11.683 7.983,12.636 6.912,12.927 5.542 C 12.998 5.208,13.015 4.624,12.964 4.278 C 12.726 2.661,11.516 1.386,9.924 1.073 C 9.598 1.009,8.996 0.991,8.680 1.037 M4.328 5.429 C 2.881 5.616,1.661 6.615,1.201 7.989 C 1.073 8.372,1.026 8.640,1.011 9.077 C 0.996 9.521,1.031 9.827,1.143 10.228 C 1.498 11.493,2.507 12.502,3.772 12.857 C 4.172 12.969,4.479 13.004,4.923 12.989 C 5.354 12.975,5.626 12.927,6.018 12.797 C 7.834 12.191,8.920 10.279,8.514 8.404 C 8.230 7.093,7.273 6.025,6.002 5.600 C 5.592 5.463,5.259 5.413,4.787 5.417 C 4.573 5.419,4.367 5.424,4.328 5.429 M5.374 6.466 C 6.026 6.595,6.623 6.974,7.043 7.527 C 7.218 7.757,7.431 8.199,7.502 8.480 C 7.759 9.498,7.465 10.530,6.715 11.235 C 6.184 11.735,5.534 11.993,4.807 11.993 C 3.065 11.993,1.750 10.438,2.044 8.726 C 2.284 7.333,3.530 6.335,4.935 6.410 C 5.050 6.416,5.248 6.441,5.374 6.466 M12.272 8.768 C 12.081 8.864,12.019 8.980,11.992 9.294 C 11.966 9.584,11.890 9.844,11.767 10.057 C 11.660 10.241,11.352 10.553,11.170 10.660 C 11.017 10.751,10.704 10.862,10.536 10.885 L 10.421 10.901 10.565 10.747 C 10.739 10.561,10.780 10.486,10.796 10.328 C 10.821 10.079,10.605 9.831,10.341 9.806 C 10.121 9.785,10.058 9.831,9.374 10.519 C 8.714 11.182,8.703 11.198,8.704 11.422 C 8.705 11.599,8.768 11.678,9.418 12.323 C 10.105 13.004,10.119 13.014,10.356 12.989 C 10.531 12.971,10.655 12.883,10.741 12.717 C 10.796 12.610,10.805 12.568,10.795 12.468 C 10.780 12.312,10.739 12.236,10.570 12.056 L 10.431 11.907 10.628 11.879 C 11.548 11.751,12.318 11.204,12.726 10.389 C 12.949 9.945,13.064 9.235,12.952 8.995 C 12.829 8.729,12.539 8.632,12.272 8.768 " stroke="none" fill-rule="evenodd" fill="black"></path></svg>