<svg width="16" height="16" viewBox="0 0 16 16" xmlns="http://www.w3.org/2000/svg"><path d="M3.449 1.053 C 3.174 1.103,2.930 1.188,2.636 1.338 C 1.785 1.771,1.213 2.552,1.036 3.520 C 0.983 3.812,0.983 8.188,1.036 8.480 C 1.272 9.774,2.226 10.728,3.520 10.964 C 3.816 11.017,12.184 11.017,12.480 10.964 C 13.774 10.728,14.728 9.774,14.964 8.480 C 14.993 8.321,15.000 7.811,15.000 6.000 C 15.000 3.554,15.000 3.554,14.861 3.107 C 14.534 2.055,13.614 1.241,12.537 1.052 C 12.224 0.998,3.751 0.998,3.449 1.053 M12.504 2.059 C 13.098 2.243,13.550 2.626,13.803 3.160 C 14.002 3.580,14.000 3.558,14.000 6.000 C 14.000 8.442,14.002 8.420,13.803 8.840 C 13.521 9.435,13.024 9.827,12.388 9.959 C 12.096 10.019,3.900 10.020,3.617 9.960 C 2.966 9.822,2.479 9.438,2.199 8.840 C 2.004 8.426,2.013 8.563,2.013 6.000 C 2.013 3.437,2.004 3.574,2.199 3.160 C 2.478 2.565,3.035 2.135,3.669 2.028 C 3.741 2.016,5.726 2.008,8.080 2.010 C 12.001 2.014,12.372 2.018,12.504 2.059 M3.182 12.040 C 2.030 12.292,1.608 13.716,2.440 14.547 C 2.639 14.746,2.845 14.871,3.107 14.951 C 3.259 14.998,3.481 15.000,8.000 15.000 C 12.519 15.000,12.741 14.998,12.893 14.951 C 13.436 14.785,13.835 14.362,13.963 13.820 C 14.017 13.592,13.998 13.251,13.919 13.021 C 13.771 12.590,13.400 12.222,12.962 12.073 L 12.787 12.013 8.067 12.009 C 4.186 12.005,3.317 12.010,3.182 12.040 M12.701 13.050 C 12.805 13.094,12.920 13.213,12.958 13.315 C 13.025 13.492,12.967 13.753,12.835 13.872 C 12.687 14.007,12.934 14.000,8.000 14.000 C 3.066 14.000,3.313 14.007,3.165 13.872 C 3.026 13.747,2.968 13.445,3.051 13.285 C 3.092 13.207,3.208 13.091,3.293 13.044 C 3.332 13.023,4.653 13.015,7.981 13.014 C 11.858 13.013,12.629 13.019,12.701 13.050 " fill="#000000" stroke="none" fill-rule="evenodd"></path></svg>