<svg width="16" height="16" viewBox="0 0 16 16" fill="none" xmlns="http://www.w3.org/2000/svg"><path d="M3.449 1.053 C 3.174 1.103,2.930 1.188,2.636 1.338 C 1.785 1.771,1.213 2.552,1.036 3.520 C 0.983 3.816,0.983 12.184,1.036 12.480 C 1.272 13.774,2.226 14.728,3.520 14.964 C 3.816 15.017,12.184 15.017,12.480 14.964 C 13.774 14.728,14.728 13.774,14.964 12.480 C 15.017 12.184,15.017 3.816,14.964 3.520 C 14.733 2.250,13.766 1.268,12.537 1.052 C 12.224 0.998,3.751 0.998,3.449 1.053 M12.504 2.059 C 13.098 2.243,13.550 2.626,13.803 3.160 C 14.011 3.600,14.000 3.329,14.000 8.000 C 14.000 12.648,14.010 12.399,13.811 12.825 C 13.528 13.429,13.034 13.822,12.385 13.960 C 12.109 14.018,3.893 14.019,3.617 13.960 C 3.124 13.856,2.754 13.630,2.442 13.243 C 2.296 13.061,2.105 12.677,2.050 12.453 C 1.996 12.236,1.996 3.764,2.050 3.547 C 2.106 3.320,2.297 2.938,2.447 2.751 C 2.745 2.382,3.211 2.105,3.669 2.028 C 3.741 2.016,5.726 2.008,8.080 2.010 C 12.001 2.014,12.372 2.018,12.504 2.059 M4.669 5.525 C 3.940 5.616,3.235 6.081,2.850 6.724 C 2.716 6.947,2.576 7.338,2.533 7.607 C 2.492 7.860,2.512 8.378,2.571 8.593 C 2.696 9.050,2.903 9.425,3.198 9.727 C 4.203 10.756,5.809 10.755,6.801 9.725 C 7.107 9.407,7.304 9.051,7.434 8.578 C 7.498 8.346,7.498 7.654,7.434 7.422 C 7.300 6.934,7.090 6.562,6.768 6.240 C 6.364 5.837,5.862 5.592,5.293 5.523 C 5.022 5.490,4.949 5.490,4.669 5.525 M5.454 6.570 C 5.982 6.735,6.410 7.248,6.480 7.800 C 6.595 8.705,5.906 9.493,5.000 9.493 C 4.351 9.493,3.786 9.081,3.573 8.453 C 3.485 8.195,3.489 7.790,3.581 7.526 C 3.750 7.040,4.149 6.669,4.634 6.547 C 4.824 6.498,5.265 6.511,5.454 6.570 " fill="#000000" stroke="none" fill-rule="evenodd"></path></svg>