<svg width="15" height="15" viewBox="0 0 15 15" xmlns="http://www.w3.org/2000/svg"><path d="M6.927 1.026 C 5.636 1.151,4.446 1.630,3.425 2.436 C 3.169 2.638,2.597 3.216,2.396 3.475 C 1.483 4.655,1.000 6.046,1.000 7.500 C 1.000 8.955,1.481 10.341,2.396 11.525 C 2.608 11.798,3.202 12.392,3.475 12.604 C 4.722 13.567,6.172 14.044,7.700 13.992 C 9.122 13.943,10.386 13.484,11.525 12.604 C 11.798 12.392,12.392 11.798,12.604 11.525 C 13.331 10.584,13.757 9.585,13.942 8.383 C 14.001 8.005,14.001 6.995,13.942 6.617 C 13.757 5.415,13.330 4.413,12.603 3.475 C 12.402 3.215,11.830 2.637,11.575 2.436 C 11.058 2.027,10.315 1.609,9.716 1.388 C 9.374 1.262,8.870 1.137,8.459 1.075 C 8.059 1.016,7.290 0.991,6.927 1.026 M6.335 2.156 C 6.324 2.173,6.252 2.283,6.174 2.400 C 5.362 3.616,4.808 5.178,4.648 6.706 L 4.617 7.000 3.319 7.000 L 2.021 7.000 2.038 6.856 C 2.072 6.555,2.182 6.075,2.289 5.750 C 2.864 4.020,4.286 2.682,6.075 2.187 C 6.326 2.118,6.359 2.114,6.335 2.156 M8.874 2.175 C 10.816 2.671,12.394 4.274,12.846 6.213 C 12.891 6.408,12.975 6.901,12.975 6.975 C 12.975 6.991,12.532 7.000,11.679 7.000 L 10.383 7.000 10.352 6.706 C 10.192 5.179,9.638 3.615,8.826 2.400 C 8.651 2.138,8.643 2.125,8.663 2.125 C 8.672 2.125,8.767 2.147,8.874 2.175 M7.716 2.557 C 8.571 3.732,9.117 5.073,9.309 6.463 C 9.329 6.614,9.353 6.797,9.362 6.869 L 9.377 7.000 7.500 7.000 L 5.623 7.000 5.638 6.869 C 5.647 6.797,5.671 6.614,5.691 6.463 C 5.883 5.073,6.429 3.732,7.284 2.557 C 7.396 2.402,7.493 2.276,7.500 2.276 C 7.507 2.276,7.604 2.402,7.716 2.557 M4.648 8.294 C 4.810 9.835,5.361 11.383,6.189 12.622 C 6.277 12.753,6.345 12.864,6.340 12.869 C 6.335 12.874,6.241 12.855,6.131 12.827 C 4.344 12.370,2.870 10.999,2.289 9.250 C 2.182 8.925,2.072 8.445,2.038 8.144 L 2.021 8.000 3.319 8.000 L 4.617 8.000 4.648 8.294 M9.362 8.131 C 9.353 8.203,9.329 8.386,9.309 8.537 C 9.117 9.927,8.571 11.268,7.716 12.443 C 7.604 12.598,7.507 12.724,7.500 12.724 C 7.493 12.724,7.396 12.598,7.284 12.443 C 6.429 11.268,5.883 9.927,5.691 8.537 C 5.671 8.386,5.647 8.203,5.638 8.131 L 5.623 8.000 7.500 8.000 L 9.377 8.000 9.362 8.131 M12.975 8.025 C 12.975 8.039,12.958 8.166,12.937 8.306 C 12.761 9.481,12.219 10.555,11.379 11.394 C 10.696 12.077,9.798 12.589,8.869 12.827 C 8.759 12.855,8.665 12.874,8.660 12.869 C 8.655 12.864,8.723 12.753,8.811 12.622 C 9.638 11.384,10.190 9.834,10.352 8.294 L 10.383 8.000 11.679 8.000 C 12.532 8.000,12.975 8.009,12.975 8.025 " stroke="none" fill-rule="evenodd" fill="black"></path></svg>