<svg width="14" height="14" viewBox="0 0 14 14" xmlns="http://www.w3.org/2000/svg"><path d="M6.743 2.083 C 6.648 2.140,6.603 2.187,6.558 2.274 L 6.498 2.390 6.487 6.346 L 6.475 10.302 5.798 9.648 C 5.426 9.289,4.825 8.708,4.463 8.358 C 4.024 7.935,3.770 7.706,3.704 7.676 C 3.379 7.528,3.009 7.762,3.006 8.117 C 3.005 8.349,2.955 8.295,4.870 10.142 C 5.853 11.090,6.693 11.891,6.738 11.923 C 6.808 11.974,6.844 11.982,7.000 11.982 C 7.156 11.982,7.192 11.974,7.262 11.923 C 7.306 11.891,8.147 11.089,9.130 10.141 C 11.044 8.295,10.995 8.348,10.994 8.117 C 10.991 7.761,10.621 7.528,10.294 7.677 C 10.233 7.705,10.075 7.837,9.897 8.011 C 9.735 8.169,9.134 8.749,8.563 9.300 L 7.525 10.302 7.513 6.346 L 7.502 2.390 7.442 2.274 C 7.359 2.113,7.184 2.007,7.000 2.007 C 6.894 2.007,6.846 2.021,6.743 2.083 " stroke="none" fill-rule="evenodd" fill="black"></path></svg>