<svg width="15" height="15" viewBox="0 0 15 15" xmlns="http://www.w3.org/2000/svg"><path d="M9.326 1.033 C 9.279 1.048,9.199 1.101,9.148 1.152 C 9.060 1.240,8.980 1.473,7.025 7.338 C 5.123 13.044,4.995 13.440,5.009 13.557 C 5.058 13.969,5.556 14.144,5.848 13.852 C 5.942 13.758,5.991 13.614,7.972 7.671 C 9.087 4.325,10.000 1.555,10.000 1.515 C 10.000 1.162,9.667 0.924,9.326 1.033 M4.286 3.062 C 4.191 3.109,3.692 3.595,2.108 5.181 C 0.226 7.065,0.051 7.247,0.024 7.350 C -0.012 7.487,0.009 7.655,0.074 7.759 C 0.101 7.802,1.048 8.762,2.180 9.892 C 4.064 11.773,4.247 11.949,4.350 11.976 C 4.748 12.080,5.080 11.748,4.976 11.350 C 4.949 11.247,4.786 11.078,3.080 9.369 L 1.213 7.500 3.080 5.631 C 4.786 3.922,4.949 3.753,4.976 3.650 C 5.041 3.401,4.944 3.176,4.722 3.066 C 4.557 2.984,4.444 2.983,4.286 3.062 M10.278 3.066 C 10.056 3.176,9.959 3.401,10.024 3.650 C 10.051 3.753,10.214 3.922,11.920 5.631 L 13.787 7.500 11.920 9.369 C 10.214 11.078,10.051 11.247,10.024 11.350 C 9.920 11.748,10.252 12.080,10.650 11.976 C 10.753 11.949,10.936 11.773,12.820 9.892 C 13.952 8.762,14.899 7.802,14.926 7.759 C 14.991 7.655,15.012 7.487,14.976 7.350 C 14.949 7.247,14.774 7.065,12.892 5.181 C 10.739 3.025,10.712 3.000,10.500 3.000 C 10.450 3.000,10.351 3.030,10.278 3.066 " stroke="none" fill-rule="evenodd" fill="black"></path></svg>