<svg width="12" height="14" viewBox="0 0 12 14" xmlns="http://www.w3.org/2000/svg"><path d="M5.220 0.017 C 5.072 0.066,4.943 0.181,4.887 0.313 C 4.850 0.402,4.853 0.598,4.892 0.693 C 4.911 0.738,5.016 0.863,5.145 0.994 L 5.365 1.217 5.298 1.228 C 4.666 1.325,4.471 1.368,4.060 1.503 C 2.039 2.167,0.520 3.853,0.114 5.880 C 0.025 6.322,0.010 6.485,0.011 7.010 C 0.011 7.380,0.021 7.573,0.047 7.750 C 0.231 9.006,0.767 10.094,1.648 10.997 C 1.935 11.291,2.381 11.660,2.555 11.748 C 2.713 11.828,2.941 11.799,3.083 11.681 C 3.185 11.596,3.260 11.439,3.260 11.309 C 3.260 11.093,3.202 11.006,2.905 10.778 C 1.313 9.552,0.646 7.576,1.190 5.690 C 1.549 4.445,2.481 3.342,3.682 2.739 C 4.190 2.484,4.806 2.294,5.332 2.232 L 5.434 2.219 5.188 2.463 C 5.037 2.612,4.925 2.740,4.901 2.793 C 4.853 2.895,4.846 3.088,4.887 3.187 C 4.927 3.281,5.033 3.395,5.128 3.445 C 5.239 3.504,5.457 3.506,5.568 3.451 C 5.691 3.390,7.018 2.100,7.085 1.977 C 7.162 1.835,7.162 1.665,7.085 1.523 C 7.016 1.397,5.707 0.125,5.577 0.059 C 5.486 0.012,5.301 -0.009,5.220 0.017 M9.080 2.230 C 8.766 2.331,8.637 2.729,8.832 2.993 C 8.858 3.028,8.976 3.131,9.095 3.222 C 10.137 4.024,10.786 5.135,10.963 6.420 C 11.001 6.697,10.996 7.356,10.953 7.647 C 10.805 8.652,10.365 9.541,9.650 10.277 C 9.022 10.924,8.298 11.359,7.433 11.609 C 7.197 11.677,6.875 11.745,6.668 11.770 L 6.567 11.783 6.830 11.516 C 7.114 11.228,7.140 11.184,7.140 10.982 C 7.140 10.857,7.107 10.772,7.019 10.672 C 6.917 10.556,6.815 10.511,6.650 10.511 C 6.543 10.511,6.490 10.522,6.424 10.556 C 6.376 10.582,6.042 10.887,5.654 11.262 C 4.890 11.999,4.860 12.037,4.860 12.250 C 4.860 12.464,4.889 12.501,5.661 13.245 C 6.067 13.636,6.385 13.928,6.431 13.950 C 6.753 14.104,7.140 13.867,7.140 13.515 C 7.140 13.323,7.110 13.268,6.864 13.016 L 6.636 12.783 6.733 12.771 C 9.320 12.444,11.395 10.571,11.886 8.120 C 11.975 7.678,11.989 7.516,11.988 6.980 C 11.988 6.555,11.980 6.422,11.943 6.183 C 11.744 4.902,11.154 3.770,10.215 2.868 C 9.973 2.636,9.620 2.351,9.476 2.270 C 9.364 2.208,9.200 2.191,9.080 2.230 " stroke="none" fill-rule="evenodd" fill="black"></path></svg>