<svg width="14" height="14" viewBox="0 0 14 14" xmlns="http://www.w3.org/2000/svg"><path d="M3.202 1.028 C 2.551 1.078,2.131 1.259,1.714 1.668 C 1.318 2.057,1.131 2.424,1.047 2.975 C 1.000 3.285,1.000 10.715,1.047 11.025 C 1.124 11.532,1.301 11.902,1.638 12.262 C 1.998 12.648,2.428 12.870,2.975 12.953 C 3.285 13.000,10.715 13.000,11.025 12.953 C 11.572 12.870,12.002 12.648,12.362 12.262 C 12.699 11.902,12.876 11.532,12.953 11.025 C 13.000 10.715,13.000 3.285,12.953 2.975 C 12.869 2.424,12.682 2.057,12.286 1.668 C 11.856 1.246,11.461 1.081,10.751 1.027 C 10.385 0.999,3.567 1.000,3.202 1.028 M11.017 2.059 C 11.480 2.172,11.858 2.563,11.949 3.022 C 11.969 3.122,11.979 3.794,11.986 5.390 L 11.995 7.618 11.079 6.705 C 10.535 6.163,10.109 5.759,10.033 5.710 C 9.698 5.498,9.319 5.477,8.960 5.650 C 8.820 5.717,8.579 5.952,5.839 8.689 C 4.205 10.320,2.841 11.697,2.806 11.748 C 2.772 11.800,2.741 11.846,2.738 11.850 C 2.735 11.855,2.687 11.832,2.632 11.800 C 2.406 11.667,2.156 11.354,2.088 11.119 C 2.069 11.054,2.043 10.896,2.031 10.768 C 2.000 10.456,2.000 3.544,2.031 3.232 C 2.060 2.932,2.100 2.796,2.213 2.622 C 2.329 2.443,2.443 2.329,2.622 2.213 C 2.790 2.104,2.941 2.057,3.202 2.031 C 3.308 2.021,5.075 2.014,7.128 2.016 C 10.488 2.020,10.877 2.024,11.017 2.059 M4.436 3.198 C 3.477 3.449,2.934 4.423,3.221 5.377 C 3.312 5.680,3.529 6.001,3.774 6.196 C 4.419 6.708,5.335 6.703,5.956 6.184 C 6.569 5.671,6.752 4.832,6.406 4.118 C 6.222 3.739,5.926 3.454,5.543 3.286 C 5.223 3.145,4.774 3.109,4.436 3.198 M5.116 4.190 C 5.258 4.238,5.424 4.387,5.502 4.535 C 5.556 4.640,5.565 4.682,5.565 4.865 C 5.565 5.038,5.555 5.092,5.512 5.174 C 5.380 5.422,5.179 5.554,4.910 5.572 C 4.697 5.585,4.545 5.537,4.400 5.410 C 4.225 5.256,4.169 5.137,4.158 4.898 C 4.149 4.719,4.155 4.680,4.206 4.568 C 4.327 4.304,4.558 4.154,4.843 4.154 C 4.934 4.153,5.057 4.170,5.116 4.190 M10.739 7.787 L 11.993 9.042 11.993 9.780 C 11.993 10.538,11.970 10.913,11.912 11.119 C 11.840 11.370,11.569 11.694,11.318 11.828 C 11.015 11.989,11.262 11.979,7.408 11.987 L 3.932 11.994 6.662 9.264 C 8.448 7.478,9.408 6.533,9.439 6.533 C 9.469 6.533,9.927 6.976,10.739 7.787 " stroke="none" fill-rule="evenodd" fill="black"></path></svg>