<svg width="14" height="14" viewBox="0 0 14 14" xmlns="http://www.w3.org/2000/svg"><path d="M3.898 1.029 C 3.488 1.066,3.197 1.163,2.890 1.367 C 2.440 1.666,2.146 2.111,2.050 2.637 C 2.003 2.896,2.003 11.104,2.050 11.363 C 2.186 12.108,2.751 12.715,3.483 12.902 C 3.800 12.983,4.091 12.997,5.492 12.996 C 6.753 12.996,6.855 12.993,6.942 12.953 C 7.132 12.867,7.248 12.667,7.228 12.460 C 7.207 12.241,7.056 12.064,6.847 12.016 C 6.796 12.004,6.155 11.994,5.421 11.994 C 4.616 11.994,4.014 11.984,3.904 11.969 C 3.429 11.904,3.097 11.590,3.035 11.146 C 3.000 10.891,3.000 3.109,3.035 2.854 C 3.078 2.547,3.231 2.321,3.510 2.158 C 3.753 2.016,3.635 2.022,6.557 2.012 C 9.496 2.003,9.639 2.007,9.888 2.123 C 10.062 2.204,10.259 2.384,10.343 2.538 C 10.455 2.743,10.459 2.822,10.474 4.937 L 10.488 6.922 10.553 7.020 C 10.626 7.130,10.723 7.198,10.862 7.236 C 11.107 7.303,11.399 7.118,11.456 6.858 C 11.477 6.763,11.482 6.251,11.474 4.807 C 11.463 2.748,11.459 2.667,11.341 2.323 C 11.185 1.870,10.798 1.452,10.329 1.226 C 10.081 1.108,9.887 1.060,9.517 1.027 C 9.196 0.999,4.221 1.001,3.898 1.029 M4.448 3.534 C 4.218 3.616,4.075 3.877,4.131 4.111 C 4.167 4.263,4.330 4.440,4.468 4.478 C 4.533 4.495,5.240 4.503,6.758 4.503 L 8.955 4.503 9.079 4.438 C 9.255 4.346,9.344 4.200,9.345 4.002 C 9.345 3.804,9.256 3.657,9.079 3.565 L 8.955 3.500 6.747 3.501 C 4.927 3.502,4.522 3.508,4.448 3.534 M4.391 5.556 C 4.270 5.617,4.184 5.724,4.139 5.872 C 4.072 6.096,4.176 6.329,4.398 6.448 C 4.491 6.498,4.496 6.498,6.207 6.498 C 7.918 6.498,7.922 6.498,8.015 6.448 C 8.367 6.258,8.387 5.785,8.050 5.583 L 7.924 5.507 6.208 5.507 C 4.505 5.507,4.491 5.507,4.391 5.556 M4.398 7.552 C 4.058 7.731,4.026 8.192,4.337 8.411 L 4.437 8.482 5.143 8.482 L 5.848 8.482 5.947 8.417 C 6.194 8.253,6.249 7.917,6.064 7.692 C 5.920 7.518,5.896 7.513,5.140 7.514 C 4.574 7.515,4.457 7.521,4.398 7.552 M11.270 9.310 C 11.225 9.334,10.722 9.795,10.152 10.334 L 9.116 11.314 8.736 10.953 C 8.348 10.585,8.226 10.501,8.076 10.501 C 7.790 10.499,7.560 10.728,7.560 11.013 C 7.561 11.199,7.634 11.289,8.260 11.879 C 8.798 12.385,8.867 12.442,8.978 12.475 C 9.123 12.517,9.242 12.503,9.362 12.429 C 9.445 12.379,11.625 10.333,11.833 10.111 C 11.961 9.973,12.002 9.862,11.988 9.692 C 11.975 9.532,11.882 9.393,11.739 9.318 C 11.607 9.248,11.390 9.244,11.270 9.310 " stroke="none" fill-rule="evenodd" fill="black"></path></svg>