<svg width="14" height="14" viewBox="0 0 14 14" xmlns="http://www.w3.org/2000/svg"><path d="M1.003 7.000 L 1.003 8.004 2.001 7.998 L 2.998 7.992 2.998 7.000 L 2.998 6.008 2.001 6.002 L 1.003 5.996 1.003 7.000 M5.997 7.000 L 5.997 8.003 7.000 8.003 L 8.003 8.003 8.003 7.000 L 8.003 5.997 7.000 5.997 L 5.997 5.997 5.997 7.000 M11.001 6.026 C 10.995 6.042,10.992 6.491,10.996 7.023 L 11.002 7.992 11.999 7.998 L 12.997 8.004 12.997 7.000 L 12.997 5.997 12.004 5.997 C 11.232 5.997,11.009 6.003,11.001 6.026 " stroke="none" fill-rule="evenodd" fill="black"></path></svg>