<svg width="15" height="15" viewBox="0 0 15 15" fill="none" xmlns="http://www.w3.org/2000/svg"><path d="M7.342 2.025 C 7.152 2.083,7.000 2.295,7.000 2.504 C 7.000 2.655,7.089 2.818,7.223 2.913 L 7.329 2.988 8.165 2.995 L 9.000 3.003 9.000 7.500 L 9.000 11.997 8.165 12.005 L 7.329 12.013 7.223 12.088 C 6.929 12.294,6.929 12.706,7.223 12.913 L 7.329 12.988 9.498 12.988 L 11.666 12.988 11.767 12.920 C 11.924 12.817,11.988 12.695,11.988 12.500 C 11.988 12.305,11.924 12.183,11.768 12.080 L 11.666 12.013 10.833 12.005 L 10.000 11.997 10.000 11.501 L 10.000 11.004 11.294 10.994 C 12.528 10.985,12.597 10.982,12.783 10.930 C 13.083 10.847,13.260 10.741,13.502 10.501 C 13.748 10.256,13.868 10.047,13.942 9.731 C 13.984 9.552,13.988 9.382,13.988 7.488 C 13.988 5.203,13.993 5.287,13.813 4.911 C 13.664 4.603,13.327 4.289,12.988 4.142 C 12.727 4.030,12.599 4.020,11.269 4.007 L 10.000 3.995 10.000 3.497 L 10.000 3.000 10.781 2.999 C 11.483 2.999,11.573 2.994,11.663 2.953 C 11.832 2.876,11.975 2.669,11.975 2.500 C 11.975 2.331,11.832 2.124,11.663 2.047 C 11.568 2.004,11.443 2.001,9.488 2.003 C 8.346 2.004,7.381 2.014,7.342 2.025 M2.563 4.025 C 2.319 4.046,2.169 4.078,2.013 4.144 C 1.679 4.283,1.336 4.602,1.187 4.911 C 1.007 5.287,1.012 5.203,1.012 7.488 C 1.012 9.382,1.016 9.552,1.058 9.731 C 1.132 10.047,1.252 10.256,1.498 10.501 C 1.739 10.741,1.916 10.846,2.217 10.931 C 2.410 10.985,2.439 10.986,4.513 10.994 L 6.613 11.002 6.725 10.943 C 6.787 10.910,6.871 10.836,6.913 10.777 C 6.978 10.685,6.988 10.649,6.988 10.504 C 6.988 10.305,6.925 10.184,6.768 10.080 L 6.666 10.013 4.589 9.998 C 3.447 9.990,2.484 9.975,2.450 9.965 C 2.336 9.931,2.190 9.812,2.117 9.695 C 2.064 9.610,2.039 9.527,2.021 9.381 C 2.007 9.265,2.000 8.416,2.005 7.348 C 2.012 5.548,2.013 5.510,2.065 5.400 C 2.123 5.273,2.244 5.143,2.355 5.085 C 2.493 5.014,2.855 5.001,4.738 5.000 L 6.614 5.000 6.726 4.944 C 6.791 4.911,6.868 4.842,6.912 4.779 C 6.976 4.687,6.988 4.647,6.988 4.517 C 6.988 4.312,6.922 4.187,6.762 4.088 L 6.641 4.013 4.714 4.010 C 3.655 4.008,2.686 4.015,2.563 4.025 M12.341 5.023 C 12.466 5.036,12.603 5.063,12.644 5.085 C 12.756 5.143,12.876 5.272,12.935 5.400 C 12.987 5.510,12.988 5.548,12.995 7.348 C 13.000 8.416,12.993 9.265,12.979 9.381 C 12.937 9.723,12.765 9.920,12.460 9.973 C 12.367 9.990,11.861 10.000,11.154 10.000 L 10.000 10.000 10.000 7.500 L 10.000 5.000 11.056 5.001 C 11.637 5.001,12.215 5.011,12.341 5.023 " fill="#000000" stroke="none" fill-rule="evenodd"></path></svg>