<svg width="16" height="16" viewBox="0 0 16 16" xmlns="http://www.w3.org/2000/svg"><path d="M3.449 1.053 C 3.174 1.103,2.930 1.188,2.636 1.338 C 1.785 1.771,1.213 2.552,1.036 3.520 C 0.983 3.816,0.983 12.184,1.036 12.480 C 1.272 13.774,2.226 14.728,3.520 14.964 C 3.816 15.017,12.184 15.017,12.480 14.964 C 13.774 14.728,14.728 13.774,14.964 12.480 C 15.017 12.184,15.017 3.816,14.964 3.520 C 14.733 2.250,13.766 1.268,12.537 1.052 C 12.224 0.998,3.751 0.998,3.449 1.053 M12.504 2.059 C 13.098 2.243,13.550 2.626,13.803 3.160 C 14.011 3.600,14.000 3.329,14.000 8.000 C 14.000 12.648,14.010 12.399,13.811 12.825 C 13.528 13.429,13.034 13.822,12.385 13.960 C 12.109 14.018,3.893 14.019,3.617 13.960 C 3.124 13.856,2.754 13.630,2.442 13.243 C 2.296 13.061,2.105 12.677,2.050 12.453 C 1.996 12.236,1.996 3.764,2.050 3.547 C 2.106 3.320,2.297 2.938,2.447 2.751 C 2.745 2.382,3.211 2.105,3.669 2.028 C 3.741 2.016,5.726 2.008,8.080 2.010 C 12.001 2.014,12.372 2.018,12.504 2.059 M4.110 7.055 C 3.465 7.229,3.010 7.823,3.007 8.494 C 3.006 8.921,3.143 9.250,3.453 9.560 C 3.660 9.767,3.887 9.894,4.167 9.960 C 4.417 10.019,11.583 10.019,11.833 9.960 C 12.113 9.894,12.340 9.767,12.547 9.560 C 12.857 9.250,12.994 8.921,12.993 8.494 C 12.990 7.819,12.530 7.224,11.879 7.054 C 11.650 6.994,4.332 6.996,4.110 7.055 M11.674 8.041 C 12.136 8.234,12.085 8.873,11.599 8.985 C 11.434 9.023,4.566 9.023,4.401 8.985 C 3.924 8.875,3.862 8.256,4.307 8.050 C 4.409 8.003,4.570 8.001,7.994 8.001 C 11.167 8.000,11.586 8.005,11.674 8.041 " fill="#000000" stroke="none" fill-rule="evenodd"></path></svg>