<svg width="16" height="16" viewBox="0 0 16 16" xmlns="http://www.w3.org/2000/svg"><path d="M3.027 3.044 C 2.414 3.121,1.917 3.397,1.548 3.862 C 1.292 4.185,1.139 4.522,1.067 4.920 C 1.010 5.238,0.988 6.076,0.988 8.013 C 0.988 10.507,1.010 10.971,1.151 11.413 C 1.355 12.052,1.905 12.632,2.507 12.842 C 2.940 12.993,2.963 12.994,6.090 13.006 C 9.616 13.020,10.079 13.002,10.533 12.829 C 10.989 12.656,11.430 12.257,11.691 11.783 C 11.918 11.370,11.976 11.040,11.997 10.034 L 12.013 9.281 12.760 10.083 C 13.171 10.525,13.567 10.940,13.640 11.007 C 13.907 11.249,14.186 11.313,14.489 11.199 C 14.655 11.137,14.851 10.948,14.920 10.784 C 15.005 10.579,15.017 10.177,15.007 7.784 C 14.997 5.067,15.014 5.253,14.748 4.985 C 14.424 4.659,14.004 4.663,13.640 4.993 C 13.567 5.060,13.171 5.475,12.760 5.917 L 12.013 6.719 11.997 5.966 C 11.976 4.960,11.918 4.630,11.691 4.217 C 11.395 3.679,10.895 3.264,10.373 3.122 C 10.263 3.092,10.065 3.056,9.933 3.041 C 9.634 3.007,3.295 3.010,3.027 3.044 M9.984 4.049 C 10.341 4.133,10.661 4.391,10.824 4.724 C 10.983 5.048,10.986 5.107,10.986 8.000 C 10.986 10.893,10.983 10.952,10.824 11.276 C 10.725 11.479,10.473 11.749,10.299 11.837 C 10.237 11.869,10.112 11.915,10.020 11.941 C 9.866 11.983,9.596 11.987,6.507 11.987 C 3.379 11.987,3.148 11.984,2.974 11.939 C 2.741 11.879,2.599 11.797,2.426 11.621 C 2.244 11.436,2.115 11.198,2.060 10.943 C 2.018 10.753,2.014 10.479,2.014 8.000 C 2.014 5.521,2.018 5.247,2.060 5.057 C 2.137 4.702,2.342 4.401,2.640 4.206 C 2.812 4.094,2.943 4.056,3.253 4.027 C 3.629 3.992,9.830 4.013,9.984 4.049 M13.994 8.965 L 13.987 9.929 13.085 8.965 L 12.184 8.000 13.085 7.035 L 13.987 6.071 13.994 7.035 C 13.998 7.566,13.998 8.434,13.994 8.965 " stroke="none" fill-rule="evenodd" fill="black"></path></svg>