<svg width="14" height="14" viewBox="0 0 14 14" xmlns="http://www.w3.org/2000/svg"><path d="M4.281 2.053 C 4.211 2.088,3.918 2.402,3.149 3.267 C 2.578 3.908,2.088 4.477,2.059 4.530 C 1.849 4.918,2.271 5.384,2.678 5.214 C 2.795 5.165,2.819 5.141,3.438 4.446 L 3.978 3.841 3.990 7.736 L 4.002 11.632 4.067 11.743 C 4.159 11.900,4.285 11.977,4.467 11.989 C 4.627 11.999,4.720 11.966,4.838 11.857 C 4.994 11.712,4.980 12.063,4.993 7.738 L 5.005 3.821 5.596 4.487 C 5.988 4.929,6.215 5.166,6.270 5.193 C 6.617 5.357,7.000 5.115,7.000 4.731 C 7.000 4.686,6.971 4.595,6.936 4.530 C 6.900 4.463,6.475 3.965,5.974 3.401 C 4.871 2.160,4.818 2.104,4.702 2.051 C 4.577 1.993,4.399 1.995,4.281 2.053 M9.310 2.043 C 9.218 2.084,9.141 2.150,9.069 2.252 L 9.018 2.322 9.007 6.250 L 8.995 10.179 8.412 9.522 C 7.786 8.816,7.708 8.750,7.503 8.750 C 7.376 8.751,7.183 8.844,7.111 8.940 C 6.983 9.112,6.968 9.291,7.064 9.470 C 7.120 9.574,8.657 11.329,9.076 11.768 C 9.248 11.948,9.334 11.993,9.504 11.993 C 9.730 11.993,9.733 11.991,10.851 10.734 C 11.421 10.092,11.912 9.523,11.941 9.470 C 12.045 9.277,11.991 9.015,11.816 8.870 C 11.623 8.712,11.367 8.713,11.185 8.872 C 11.139 8.913,10.859 9.219,10.562 9.553 L 10.022 10.159 10.010 6.264 L 9.998 2.368 9.933 2.257 C 9.840 2.099,9.714 2.022,9.535 2.013 C 9.441 2.008,9.363 2.019,9.310 2.043 " stroke="none" fill-rule="evenodd" fill="black"></path></svg>