<svg width="15" height="15" viewBox="0 0 15 15" xmlns="http://www.w3.org/2000/svg"><path d="M6.927 1.026 C 5.636 1.151,4.446 1.630,3.425 2.436 C 3.169 2.638,2.597 3.216,2.396 3.475 C 1.483 4.655,1.000 6.046,1.000 7.500 C 1.000 8.955,1.481 10.341,2.396 11.525 C 2.608 11.798,3.202 12.392,3.475 12.604 C 4.722 13.567,6.172 14.044,7.700 13.992 C 9.122 13.943,10.386 13.484,11.525 12.604 C 11.798 12.392,12.392 11.798,12.604 11.525 C 13.331 10.584,13.757 9.585,13.942 8.383 C 14.001 8.005,14.001 6.995,13.942 6.617 C 13.757 5.415,13.330 4.413,12.603 3.475 C 12.402 3.215,11.830 2.637,11.575 2.436 C 11.058 2.027,10.315 1.609,9.716 1.388 C 9.374 1.262,8.870 1.137,8.459 1.075 C 8.059 1.016,7.290 0.991,6.927 1.026 M8.000 2.026 C 9.906 2.200,11.596 3.365,12.436 5.085 C 13.468 7.194,13.045 9.723,11.384 11.387 C 10.352 12.419,8.954 13.000,7.500 13.000 C 5.406 13.000,3.487 11.800,2.561 9.910 C 1.532 7.811,1.957 5.273,3.615 3.615 C 4.771 2.459,6.375 1.878,8.000 2.026 " stroke="none" fill-rule="evenodd" fill="black"></path></svg>