<svg width="16" height="16" viewBox="0 0 16 16" xmlns="http://www.w3.org/2000/svg"><path d="M7.449 1.053 C 7.174 1.103,6.930 1.188,6.636 1.338 C 5.785 1.771,5.213 2.552,5.036 3.520 C 4.983 3.816,4.983 12.184,5.036 12.480 C 5.272 13.774,6.226 14.728,7.520 14.964 C 7.812 15.017,12.188 15.017,12.480 14.964 C 13.774 14.728,14.728 13.774,14.964 12.480 C 15.017 12.184,15.017 3.816,14.964 3.520 C 14.733 2.250,13.766 1.268,12.537 1.052 C 12.228 0.998,7.747 0.999,7.449 1.053 M2.167 2.039 C 1.652 2.156,1.211 2.577,1.049 3.107 C 1.002 3.259,1.000 3.481,1.000 8.000 C 1.000 12.519,1.002 12.741,1.049 12.893 C 1.215 13.436,1.638 13.835,2.180 13.963 C 2.408 14.017,2.749 13.998,2.979 13.919 C 3.410 13.771,3.773 13.406,3.925 12.965 L 3.987 12.787 3.987 8.000 L 3.987 3.213 3.925 3.035 C 3.770 2.586,3.394 2.213,2.962 2.078 C 2.734 2.007,2.383 1.989,2.167 2.039 M12.504 2.060 C 13.095 2.241,13.550 2.626,13.803 3.160 C 14.011 3.600,14.000 3.329,14.000 8.000 C 14.000 12.648,14.010 12.399,13.811 12.825 C 13.528 13.429,13.034 13.822,12.385 13.960 C 12.112 14.018,7.890 14.018,7.617 13.960 C 7.124 13.856,6.754 13.630,6.442 13.243 C 6.296 13.061,6.105 12.677,6.050 12.453 C 5.996 12.236,5.996 3.764,6.050 3.547 C 6.106 3.320,6.297 2.938,6.447 2.751 C 6.744 2.382,7.210 2.106,7.669 2.028 C 7.741 2.015,8.826 2.008,10.080 2.010 C 12.118 2.015,12.375 2.020,12.504 2.060 M2.701 3.050 C 2.805 3.094,2.920 3.213,2.958 3.315 C 2.998 3.421,2.998 12.579,2.958 12.685 C 2.927 12.769,2.814 12.896,2.734 12.940 C 2.493 13.070,2.164 12.960,2.051 12.710 C 2.003 12.604,2.001 12.436,2.001 8.000 C 2.001 3.593,2.003 3.396,2.050 3.293 C 2.103 3.177,2.156 3.123,2.280 3.058 C 2.379 3.005,2.587 3.001,2.701 3.050 " fill="#000000" stroke="none" fill-rule="evenodd"></path></svg>