<svg width="14" height="14" viewBox="0 0 14 14" xmlns="http://www.w3.org/2000/svg"><path d="M1.295 3.049 C 1.037 3.185,0.933 3.471,1.056 3.712 C 1.088 3.774,2.211 5.018,3.902 6.862 C 6.111 9.271,6.716 9.918,6.792 9.952 C 6.914 10.007,7.086 10.008,7.207 9.953 C 7.281 9.920,7.911 9.245,10.106 6.851 C 11.856 4.942,12.927 3.757,12.953 3.698 C 13.097 3.382,12.856 3.010,12.508 3.010 C 12.259 3.010,12.412 2.856,9.611 5.912 C 8.186 7.466,7.011 8.738,7.000 8.738 C 6.989 8.738,5.814 7.466,4.389 5.912 C 2.258 3.587,1.781 3.079,1.703 3.048 C 1.584 3.000,1.386 3.001,1.295 3.049 " stroke="none" fill-rule="evenodd" fill="black"></path></svg>