<svg width="14" height="14" viewBox="0 0 14 14" xmlns="http://www.w3.org/2000/svg"><path d="M9.730 1.018 C 9.322 1.097,8.988 1.264,8.709 1.527 C 8.388 1.830,8.215 2.113,8.082 2.555 C 8.024 2.746,8.018 2.800,8.017 3.150 C 8.016 3.481,8.024 3.563,8.070 3.732 C 8.248 4.390,8.624 4.863,9.182 5.134 C 9.652 5.362,10.126 5.390,10.628 5.221 C 11.122 5.055,11.628 4.556,11.827 4.042 C 11.962 3.690,11.980 3.589,11.981 3.173 C 11.982 2.841,11.974 2.761,11.928 2.590 C 11.721 1.833,11.192 1.272,10.496 1.072 C 10.328 1.024,9.868 0.991,9.730 1.018 M3.810 1.589 C 3.215 1.658,2.790 1.900,2.445 2.365 C 2.201 2.694,2.079 3.023,2.030 3.480 C 2.000 3.774,1.999 9.787,2.030 10.068 C 2.094 10.648,2.279 11.054,2.648 11.422 C 2.930 11.703,3.210 11.857,3.593 11.939 C 3.779 11.979,3.974 11.982,6.732 11.982 C 9.894 11.982,9.838 11.984,10.181 11.860 C 10.420 11.775,10.605 11.656,10.818 11.451 C 11.046 11.232,11.221 10.978,11.320 10.722 C 11.482 10.301,11.502 10.034,11.503 8.307 L 11.503 6.965 11.448 6.848 C 11.383 6.709,11.340 6.668,11.189 6.601 C 10.968 6.504,10.716 6.583,10.576 6.794 L 10.512 6.892 10.498 8.433 C 10.488 9.446,10.474 10.027,10.456 10.127 C 10.401 10.433,10.160 10.775,9.917 10.891 C 9.690 11.000,9.629 11.002,6.755 11.002 C 3.851 11.002,3.819 11.000,3.578 10.883 C 3.430 10.812,3.224 10.596,3.141 10.425 C 3.019 10.176,3.022 10.257,3.022 6.778 C 3.022 4.261,3.028 3.504,3.051 3.395 C 3.093 3.197,3.181 3.029,3.329 2.870 C 3.482 2.705,3.638 2.623,3.862 2.591 C 3.954 2.578,4.569 2.567,5.275 2.567 C 6.680 2.567,6.690 2.566,6.842 2.410 C 7.097 2.148,7.031 1.757,6.708 1.608 C 6.621 1.567,6.534 1.565,5.297 1.567 C 4.572 1.568,3.903 1.578,3.810 1.589 M10.372 2.088 C 10.640 2.216,10.870 2.512,10.955 2.840 C 10.999 3.009,10.999 3.334,10.955 3.500 C 10.896 3.724,10.784 3.910,10.615 4.070 C 10.412 4.262,10.259 4.325,9.998 4.325 C 9.723 4.325,9.576 4.261,9.368 4.051 C 9.121 3.801,9.006 3.523,9.007 3.174 C 9.008 2.644,9.290 2.204,9.731 2.044 C 9.897 1.984,10.195 2.004,10.372 2.088 M4.305 6.600 C 3.987 6.746,3.904 7.122,4.132 7.382 C 4.297 7.569,4.173 7.560,6.497 7.560 C 7.885 7.560,8.581 7.552,8.642 7.535 C 8.691 7.521,8.777 7.468,8.833 7.416 C 9.093 7.176,9.039 6.775,8.725 6.618 L 8.601 6.557 6.500 6.557 C 4.515 6.558,4.393 6.560,4.305 6.600 M4.353 8.802 C 4.214 8.839,4.051 9.014,4.015 9.163 C 3.961 9.386,4.069 9.614,4.277 9.718 L 4.396 9.777 5.986 9.777 C 7.113 9.777,7.599 9.769,7.656 9.750 C 7.872 9.678,8.021 9.452,7.995 9.235 C 7.976 9.072,7.885 8.928,7.752 8.850 L 7.642 8.785 6.043 8.781 C 4.984 8.779,4.414 8.786,4.353 8.802 " stroke="none" fill-rule="evenodd" fill="black"></path></svg>