<svg width="15" height="15" viewBox="0 0 15 15" xmlns="http://www.w3.org/2000/svg"><path d="M3.425 1.027 C 2.665 1.079,2.174 1.289,1.713 1.763 C 1.353 2.131,1.153 2.528,1.057 3.063 C 1.015 3.296,1.012 3.586,1.012 7.500 C 1.012 12.136,1.005 11.906,1.173 12.394 C 1.385 13.008,1.992 13.615,2.606 13.827 C 3.094 13.995,2.864 13.988,7.500 13.988 C 12.136 13.988,11.906 13.995,12.394 13.827 C 13.008 13.615,13.615 13.008,13.827 12.394 C 13.995 11.906,13.988 12.136,13.988 7.500 C 13.988 2.864,13.995 3.094,13.827 2.606 C 13.685 2.195,13.301 1.701,12.930 1.452 C 12.519 1.176,12.165 1.069,11.520 1.025 C 11.096 0.996,3.853 0.998,3.425 1.027 M11.835 2.057 C 12.132 2.117,12.330 2.226,12.552 2.448 C 12.924 2.819,12.970 3.001,12.992 4.181 L 13.007 5.000 7.500 5.000 L 1.993 5.000 2.008 4.181 C 2.030 3.001,2.076 2.818,2.448 2.449 C 2.743 2.157,2.961 2.065,3.458 2.026 C 3.598 2.015,5.496 2.008,7.675 2.011 C 11.216 2.016,11.659 2.021,11.835 2.057 M5.000 9.500 L 5.000 13.000 4.356 13.000 C 3.324 13.000,2.988 12.951,2.686 12.755 C 2.489 12.627,2.272 12.388,2.175 12.192 C 2.015 11.867,2.018 11.928,2.007 8.819 L 1.997 6.000 3.499 6.000 L 5.000 6.000 5.000 9.500 M12.993 8.819 C 12.982 11.928,12.985 11.867,12.825 12.192 C 12.669 12.508,12.325 12.804,12.001 12.901 C 11.702 12.990,11.362 13.000,8.644 13.000 L 6.000 13.000 6.000 9.500 L 6.000 6.000 9.502 6.000 L 13.003 6.000 12.993 8.819 " stroke="none" fill-rule="evenodd" fill="black"></path></svg>