<svg width="14" height="14" viewBox="0 0 14 14" xmlns="http://www.w3.org/2000/svg"><path d="M6.755 2.023 C 5.086 2.168,3.541 3.111,2.704 4.495 C 2.349 5.083,2.126 5.730,2.031 6.448 C 2.000 6.683,2.000 7.317,2.031 7.552 C 2.155 8.487,2.514 9.339,3.082 10.045 C 3.864 11.018,5.029 11.692,6.335 11.927 C 6.603 11.975,6.709 11.981,7.245 11.981 C 7.916 11.980,8.066 11.962,8.630 11.816 C 10.235 11.400,11.560 10.243,12.140 8.750 C 12.291 8.361,12.309 8.268,12.264 8.113 C 12.197 7.883,11.953 7.721,11.730 7.757 C 11.607 7.776,11.475 7.847,11.405 7.929 C 11.374 7.967,11.314 8.096,11.272 8.216 C 10.998 9.004,10.467 9.709,9.776 10.203 C 9.491 10.406,8.977 10.662,8.620 10.778 C 7.445 11.161,6.098 11.031,5.067 10.435 C 4.557 10.141,4.042 9.681,3.727 9.240 C 3.542 8.980,3.272 8.446,3.187 8.173 C 3.050 7.729,3.023 7.540,3.023 7.000 C 3.023 6.568,3.031 6.465,3.076 6.259 C 3.152 5.908,3.232 5.668,3.374 5.368 C 3.925 4.206,5.018 3.369,6.347 3.091 C 6.863 2.983,7.609 2.985,8.139 3.094 C 8.734 3.217,9.309 3.468,9.810 3.823 C 10.067 4.005,10.597 4.525,11.052 5.040 C 11.262 5.277,11.433 5.480,11.433 5.489 C 11.433 5.499,10.939 5.507,10.336 5.507 C 9.140 5.507,9.143 5.506,8.998 5.642 C 8.716 5.907,8.846 6.382,9.228 6.485 C 9.291 6.501,9.852 6.510,10.922 6.510 C 12.726 6.510,12.693 6.513,12.855 6.346 C 12.906 6.293,12.955 6.212,12.971 6.155 C 12.991 6.082,12.997 5.623,12.992 4.441 L 12.985 2.827 12.914 2.726 C 12.813 2.582,12.671 2.509,12.495 2.510 C 12.342 2.510,12.253 2.547,12.148 2.652 C 12.004 2.796,12.006 2.780,11.993 3.719 L 11.982 4.580 11.760 4.326 C 11.440 3.958,10.800 3.323,10.570 3.146 C 9.739 2.504,8.805 2.132,7.773 2.030 C 7.549 2.008,6.970 2.004,6.755 2.023 " stroke="none" fill-rule="evenodd" fill="black"></path></svg>