<svg width="15" height="15" viewBox="0 0 15 15" xmlns="http://www.w3.org/2000/svg"><path d="M7.252 1.038 C 7.178 1.059,7.080 1.099,7.034 1.127 C 6.913 1.202,6.751 1.393,6.632 1.602 C 6.545 1.756,3.130 9.088,3.026 9.345 C 2.983 9.452,3.007 9.652,3.077 9.766 C 3.239 10.028,3.629 10.074,3.843 9.855 C 3.914 9.783,4.091 9.423,4.648 8.218 L 5.363 6.674 7.500 6.674 L 9.637 6.674 10.352 8.218 C 10.909 9.421,11.087 9.783,11.157 9.855 C 11.368 10.071,11.745 10.032,11.914 9.777 C 11.991 9.661,12.016 9.487,11.974 9.359 C 11.924 9.208,8.486 1.811,8.368 1.600 C 8.227 1.350,8.001 1.122,7.838 1.065 C 7.659 1.004,7.415 0.992,7.252 1.038 M7.710 2.531 C 7.816 2.755,8.187 3.551,8.535 4.300 L 9.166 5.663 8.333 5.669 C 7.875 5.673,7.125 5.673,6.667 5.669 L 5.834 5.663 6.465 4.300 C 7.289 2.523,7.478 2.125,7.500 2.125 C 7.510 2.125,7.605 2.308,7.710 2.531 M1.888 11.081 C 1.869 11.126,1.663 11.573,1.429 12.075 C 1.196 12.577,1.008 12.990,1.011 12.994 C 1.017 13.000,9.969 12.042,10.194 12.011 L 10.300 11.997 10.300 11.498 L 10.300 11.000 6.111 11.000 L 1.922 11.000 1.888 11.081 M9.350 12.501 C 7.336 12.774,5.679 12.998,5.669 12.999 C 5.658 13.000,5.650 13.225,5.650 13.500 L 5.650 14.000 9.824 14.000 L 13.997 14.000 13.950 13.894 C 13.650 13.218,13.071 12.012,13.045 12.008 C 13.027 12.006,11.364 12.228,9.350 12.501 " fill="#000000" stroke="none" fill-rule="evenodd"></path></svg>