<svg width="16" height="16" viewBox="0 0 16 16" fill="none" xmlns="http://www.w3.org/2000/svg"><path d="M3.449 1.053 C 3.174 1.103,2.930 1.188,2.636 1.338 C 1.785 1.771,1.213 2.552,1.036 3.520 C 0.983 3.816,0.983 12.184,1.036 12.480 C 1.272 13.774,2.226 14.728,3.520 14.964 C 3.816 15.017,12.184 15.017,12.480 14.964 C 13.774 14.728,14.728 13.774,14.964 12.480 C 15.017 12.184,15.017 3.816,14.964 3.520 C 14.733 2.250,13.766 1.268,12.537 1.052 C 12.224 0.998,3.751 0.998,3.449 1.053 M12.504 2.059 C 13.098 2.243,13.550 2.626,13.803 3.160 C 14.011 3.600,14.000 3.329,14.000 8.000 C 14.000 12.648,14.010 12.399,13.811 12.825 C 13.528 13.429,13.034 13.822,12.385 13.960 C 12.109 14.018,3.893 14.019,3.617 13.960 C 3.124 13.856,2.754 13.630,2.442 13.243 C 2.296 13.061,2.105 12.677,2.050 12.453 C 1.996 12.236,1.996 3.764,2.050 3.547 C 2.106 3.320,2.297 2.938,2.447 2.751 C 2.745 2.382,3.211 2.105,3.669 2.028 C 3.741 2.016,5.726 2.008,8.080 2.010 C 12.001 2.014,12.372 2.018,12.504 2.059 M7.387 5.522 C 4.978 5.639,3.345 6.550,3.517 7.680 C 3.573 8.051,3.777 8.356,4.156 8.637 C 4.750 9.077,5.890 9.426,7.008 9.509 L 7.257 9.527 7.178 9.610 C 6.866 9.939,7.008 10.427,7.435 10.496 C 7.651 10.530,7.722 10.480,8.366 9.833 C 8.895 9.303,8.959 9.229,8.974 9.133 C 8.984 9.075,8.992 9.021,8.993 9.013 C 8.995 9.006,8.987 8.946,8.976 8.880 C 8.958 8.768,8.921 8.723,8.379 8.178 C 8.060 7.858,7.764 7.577,7.720 7.554 C 7.675 7.530,7.576 7.511,7.493 7.511 C 7.217 7.511,7.007 7.722,7.007 8.000 C 7.007 8.144,7.058 8.254,7.195 8.406 L 7.293 8.515 7.000 8.499 C 6.037 8.446,4.860 8.044,4.577 7.674 C 4.473 7.538,4.485 7.477,4.649 7.319 C 4.986 6.992,5.825 6.702,6.816 6.569 C 7.305 6.503,8.695 6.503,9.184 6.569 C 10.174 6.701,10.997 6.985,11.345 7.315 C 11.516 7.477,11.532 7.550,11.423 7.679 C 11.318 7.804,11.062 7.968,10.789 8.085 C 10.513 8.203,10.392 8.311,10.346 8.481 C 10.280 8.727,10.414 8.985,10.654 9.075 C 10.849 9.148,11.000 9.110,11.453 8.874 C 12.202 8.486,12.589 7.914,12.485 7.355 C 12.296 6.337,10.771 5.629,8.534 5.519 C 7.991 5.493,7.981 5.493,7.387 5.522 " fill="#000000" stroke="none" fill-rule="evenodd"></path></svg>