<svg width="16" height="16" viewBox="0 0 16 16" xmlns="http://www.w3.org/2000/svg"><path d="M3.116 1.369 C 2.847 1.469,2.626 1.664,2.526 1.890 C 2.492 1.966,2.467 2.090,2.460 2.213 C 2.450 2.395,2.490 2.596,2.890 4.410 C 3.158 5.621,3.355 6.454,3.391 6.530 C 3.424 6.598,3.513 6.715,3.591 6.791 C 3.844 7.039,3.681 7.015,6.826 7.282 C 9.577 7.517,9.612 7.520,9.675 7.583 C 9.718 7.626,9.739 7.677,9.739 7.740 C 9.739 7.875,9.693 7.941,9.580 7.970 C 9.525 7.984,8.250 8.098,6.747 8.225 L 4.013 8.454 3.821 8.548 C 3.615 8.648,3.479 8.782,3.386 8.976 C 3.355 9.038,3.134 9.980,2.890 11.084 C 2.489 12.904,2.451 13.098,2.460 13.284 C 2.474 13.548,2.563 13.735,2.761 13.917 C 3.035 14.167,3.418 14.238,3.749 14.100 C 3.836 14.064,6.229 12.804,9.067 11.301 C 13.238 9.091,14.254 8.542,14.371 8.437 C 14.854 8.002,14.756 7.237,14.176 6.909 C 13.997 6.808,4.186 1.614,3.893 1.465 C 3.688 1.362,3.645 1.350,3.440 1.342 C 3.293 1.336,3.179 1.345,3.116 1.369 " stroke="none" fill-rule="evenodd" fill="black"></path></svg>