<svg width="15" height="15" viewBox="0 0 15 15" xmlns="http://www.w3.org/2000/svg"><path d="M7.286 1.062 C 7.191 1.109,6.692 1.595,5.108 3.181 C 3.226 5.065,3.051 5.247,3.024 5.350 C 2.920 5.748,3.252 6.080,3.650 5.976 C 3.753 5.949,3.905 5.803,5.381 4.330 L 7.000 2.713 7.000 6.165 L 7.000 9.617 7.058 9.727 C 7.090 9.788,7.164 9.871,7.223 9.913 C 7.316 9.978,7.351 9.988,7.498 9.988 C 7.639 9.988,7.683 9.977,7.767 9.920 C 7.823 9.884,7.896 9.810,7.928 9.758 L 7.988 9.663 7.994 6.188 L 8.001 2.714 9.619 4.330 C 11.095 5.803,11.247 5.949,11.350 5.976 C 11.746 6.080,12.080 5.746,11.976 5.350 C 11.949 5.247,11.774 5.065,9.892 3.181 C 7.739 1.025,7.712 1.000,7.500 1.000 C 7.450 1.000,7.354 1.028,7.286 1.062 M1.342 9.024 C 1.225 9.061,1.108 9.167,1.050 9.288 C 0.995 9.401,0.995 9.405,1.007 10.557 C 1.020 11.820,1.035 11.994,1.173 12.394 C 1.384 13.008,1.992 13.615,2.606 13.827 C 3.094 13.995,2.864 13.988,7.500 13.988 C 12.136 13.988,11.906 13.995,12.394 13.827 C 13.008 13.615,13.615 13.008,13.827 12.394 C 13.970 11.978,13.985 11.806,13.986 10.511 L 13.988 9.334 13.920 9.233 C 13.817 9.076,13.695 9.013,13.500 9.013 C 13.305 9.013,13.183 9.076,13.080 9.232 L 13.013 9.334 12.997 10.473 C 12.979 11.736,12.961 11.915,12.824 12.192 C 12.728 12.388,12.511 12.627,12.314 12.755 C 12.121 12.880,11.904 12.943,11.563 12.975 C 11.190 13.009,3.810 13.009,3.438 12.975 C 3.096 12.943,2.879 12.880,2.686 12.755 C 2.489 12.627,2.272 12.388,2.176 12.192 C 2.039 11.915,2.021 11.736,2.003 10.475 L 1.988 9.338 1.928 9.242 C 1.843 9.106,1.708 9.024,1.546 9.012 C 1.473 9.006,1.381 9.012,1.342 9.024 " stroke="none" fill-rule="evenodd" fill="black"></path></svg>