<svg width="15" height="15" viewBox="0 0 15 15" xmlns="http://www.w3.org/2000/svg"><path d="M7.292 1.035 C 7.119 1.099,7.009 1.199,6.195 2.022 C 4.248 3.989,3.008 5.485,2.515 6.461 C 2.275 6.936,2.089 7.589,2.026 8.180 C 1.847 9.858,2.571 11.602,3.906 12.706 C 4.706 13.368,5.599 13.768,6.663 13.942 C 7.049 14.005,7.951 14.005,8.338 13.942 C 10.179 13.641,11.674 12.565,12.460 10.975 C 13.129 9.620,13.175 8.048,12.586 6.671 C 12.168 5.694,10.862 4.094,8.763 1.983 C 8.175 1.392,7.878 1.112,7.801 1.074 C 7.661 1.004,7.422 0.986,7.292 1.035 M8.154 3.006 C 9.753 4.660,10.624 5.685,11.170 6.556 C 11.797 7.557,11.946 8.834,11.571 9.988 C 11.214 11.084,10.384 12.015,9.319 12.511 C 8.734 12.784,8.168 12.907,7.500 12.907 C 6.832 12.907,6.266 12.784,5.681 12.511 C 4.484 11.953,3.597 10.858,3.324 9.602 C 3.148 8.787,3.216 7.918,3.517 7.165 C 3.784 6.497,4.494 5.540,5.748 4.163 C 6.312 3.544,7.468 2.350,7.503 2.350 C 7.513 2.350,7.806 2.645,8.154 3.006 " stroke="none" fill-rule="evenodd" fill="black"></path></svg>