<svg width="16" height="16" viewBox="0 0 16 16" fill="none" xmlns="http://www.w3.org/2000/svg"><path d="M3.449 1.053 C 3.174 1.103,2.930 1.188,2.636 1.338 C 1.785 1.771,1.213 2.552,1.036 3.520 C 0.983 3.816,0.983 12.184,1.036 12.480 C 1.272 13.774,2.226 14.728,3.520 14.964 C 3.816 15.017,12.184 15.017,12.480 14.964 C 13.774 14.728,14.728 13.774,14.964 12.480 C 15.017 12.184,15.017 3.816,14.964 3.520 C 14.733 2.250,13.766 1.268,12.537 1.052 C 12.224 0.998,3.751 0.998,3.449 1.053 M12.504 2.059 C 13.098 2.243,13.550 2.626,13.803 3.160 C 14.011 3.600,14.000 3.329,14.000 8.000 C 14.000 12.648,14.010 12.399,13.811 12.825 C 13.528 13.429,13.034 13.822,12.385 13.960 C 12.109 14.018,3.893 14.019,3.617 13.960 C 3.124 13.856,2.754 13.630,2.442 13.243 C 2.296 13.061,2.105 12.677,2.050 12.453 C 1.996 12.236,1.996 3.764,2.050 3.547 C 2.106 3.320,2.297 2.938,2.447 2.751 C 2.745 2.382,3.211 2.105,3.669 2.028 C 3.741 2.016,5.726 2.008,8.080 2.010 C 12.001 2.014,12.372 2.018,12.504 2.059 M4.110 3.055 C 3.775 3.146,3.437 3.393,3.238 3.693 C 3.189 3.767,3.116 3.923,3.075 4.040 L 3.000 4.253 3.000 8.000 L 3.000 11.747 3.074 11.955 C 3.300 12.596,3.841 12.991,4.494 12.993 C 4.921 12.994,5.250 12.857,5.560 12.547 C 5.767 12.340,5.894 12.113,5.960 11.833 C 6.019 11.583,6.019 4.417,5.960 4.167 C 5.834 3.631,5.410 3.194,4.880 3.053 C 4.695 3.004,4.297 3.005,4.110 3.055 M4.687 4.041 C 4.813 4.094,4.874 4.150,4.936 4.272 C 4.985 4.368,4.987 4.492,4.987 8.000 C 4.987 11.559,4.986 11.631,4.934 11.732 C 4.746 12.101,4.225 12.078,4.050 11.694 C 4.004 11.592,4.001 11.412,4.001 8.006 C 4.000 4.833,4.005 4.414,4.041 4.326 C 4.096 4.194,4.178 4.110,4.307 4.050 C 4.437 3.990,4.557 3.987,4.687 4.041 " stroke="none" fill-rule="evenodd" fill="black"></path></svg>