<svg width="16" height="16" viewBox="0 0 16 16" fill="none" xmlns="http://www.w3.org/2000/svg"><path d="M3.449 1.053 C 3.174 1.103,2.930 1.188,2.636 1.338 C 1.785 1.771,1.213 2.552,1.036 3.520 C 0.983 3.816,0.983 12.184,1.036 12.480 C 1.272 13.774,2.226 14.728,3.520 14.964 C 3.816 15.017,12.184 15.017,12.480 14.964 C 13.774 14.728,14.728 13.774,14.964 12.480 C 15.017 12.184,15.017 3.816,14.964 3.520 C 14.733 2.250,13.766 1.268,12.537 1.052 C 12.224 0.998,3.751 0.998,3.449 1.053 M12.504 2.059 C 13.098 2.243,13.550 2.626,13.803 3.160 C 14.011 3.600,14.000 3.329,14.000 8.000 C 14.000 12.648,14.010 12.399,13.811 12.825 C 13.528 13.429,13.034 13.822,12.385 13.960 C 12.109 14.018,3.893 14.019,3.617 13.960 C 3.124 13.856,2.754 13.630,2.442 13.243 C 2.296 13.061,2.105 12.677,2.050 12.453 C 1.996 12.236,1.996 3.764,2.050 3.547 C 2.106 3.320,2.297 2.938,2.447 2.751 C 2.745 2.382,3.211 2.105,3.669 2.028 C 3.741 2.016,5.726 2.008,8.080 2.010 C 12.001 2.014,12.372 2.018,12.504 2.059 M7.554 3.052 C 6.855 3.211,6.301 3.736,6.076 4.454 L 6.013 4.653 6.013 8.000 L 6.013 11.347 6.076 11.546 C 6.282 12.204,6.761 12.701,7.373 12.896 C 8.468 13.243,9.575 12.658,9.924 11.546 L 9.987 11.347 9.987 8.000 L 9.987 4.653 9.924 4.453 C 9.714 3.783,9.221 3.287,8.559 3.080 C 8.359 3.017,7.777 3.001,7.554 3.052 M8.347 4.066 C 8.609 4.159,8.829 4.380,8.933 4.658 C 8.987 4.802,8.987 4.837,8.980 8.036 L 8.973 11.268 8.886 11.446 C 8.784 11.653,8.616 11.815,8.400 11.916 C 8.275 11.974,8.216 11.984,8.000 11.984 C 7.784 11.984,7.725 11.974,7.600 11.916 C 7.384 11.815,7.216 11.653,7.114 11.446 L 7.027 11.268 7.020 8.036 C 7.013 4.811,7.013 4.803,7.069 4.654 C 7.223 4.243,7.622 3.982,8.053 4.012 C 8.149 4.018,8.281 4.043,8.347 4.066 " fill="#000000" stroke="none" fill-rule="evenodd"></path></svg>