<svg width="15" height="15" viewBox="0 0 15 15" xmlns="http://www.w3.org/2000/svg"><path d="M1.965 1.027 C 1.514 1.094,1.134 1.460,1.037 1.918 C 0.984 2.168,0.984 5.508,1.037 5.757 C 1.128 6.188,1.465 6.527,1.904 6.631 C 2.107 6.679,5.584 6.676,5.775 6.628 C 6.178 6.526,6.497 6.219,6.620 5.816 C 6.654 5.706,6.661 5.440,6.669 3.975 C 6.678 2.181,6.669 1.964,6.572 1.718 C 6.457 1.426,6.187 1.173,5.879 1.069 C 5.713 1.013,5.707 1.013,3.913 1.009 C 2.922 1.007,2.046 1.015,1.965 1.027 M9.319 1.026 C 8.903 1.096,8.572 1.353,8.428 1.718 C 8.331 1.963,8.322 2.182,8.331 3.975 C 8.339 5.444,8.346 5.706,8.380 5.816 C 8.503 6.220,8.822 6.526,9.225 6.628 C 9.416 6.676,12.893 6.679,13.096 6.631 C 13.552 6.523,13.903 6.151,13.974 5.700 C 13.990 5.601,14.000 4.864,13.999 3.813 C 13.999 2.410,13.992 2.056,13.963 1.918 C 13.864 1.448,13.487 1.094,13.013 1.026 C 12.805 0.996,9.496 0.996,9.319 1.026 M5.618 2.057 C 5.660 2.099,5.663 2.205,5.663 3.838 C 5.663 5.470,5.660 5.576,5.618 5.618 C 5.576 5.660,5.470 5.663,3.838 5.663 C 2.205 5.663,2.099 5.660,2.057 5.618 C 2.015 5.576,2.012 5.467,2.006 3.877 C 2.001 2.784,2.008 2.157,2.024 2.115 C 2.038 2.078,2.075 2.038,2.106 2.026 C 2.139 2.012,2.874 2.005,3.868 2.008 C 5.468 2.012,5.576 2.015,5.618 2.057 M12.943 2.057 C 12.985 2.099,12.988 2.205,12.988 3.837 C 12.988 5.470,12.985 5.576,12.943 5.618 C 12.901 5.660,12.795 5.663,11.162 5.663 C 9.530 5.663,9.424 5.660,9.382 5.618 C 9.340 5.576,9.337 5.472,9.330 4.005 C 9.327 3.143,9.332 2.353,9.343 2.251 C 9.360 2.086,9.370 2.060,9.425 2.032 C 9.474 2.007,9.851 2.001,11.193 2.006 C 12.792 2.012,12.901 2.015,12.943 2.057 M3.710 3.354 C 3.482 3.405,3.296 3.675,3.337 3.894 C 3.385 4.148,3.553 4.302,3.801 4.320 C 4.243 4.352,4.504 3.859,4.224 3.520 C 4.104 3.373,3.906 3.309,3.710 3.354 M11.056 3.350 C 10.836 3.401,10.675 3.605,10.675 3.831 C 10.675 3.980,10.709 4.067,10.808 4.172 C 10.911 4.280,11.017 4.325,11.175 4.325 C 11.617 4.325,11.835 3.812,11.530 3.492 C 11.409 3.365,11.227 3.310,11.056 3.350 M7.342 7.025 C 7.229 7.059,7.109 7.166,7.053 7.282 C 6.904 7.590,7.101 7.951,7.440 7.991 C 7.749 8.028,8.000 7.808,8.000 7.500 C 8.000 7.158,7.677 6.925,7.342 7.025 M2.100 8.350 C 1.969 8.361,1.812 8.389,1.750 8.414 C 1.378 8.561,1.117 8.866,1.036 9.246 C 0.984 9.490,0.984 12.835,1.036 13.078 C 1.132 13.531,1.468 13.868,1.918 13.963 C 2.168 14.016,5.508 14.016,5.757 13.963 C 6.188 13.872,6.527 13.535,6.631 13.096 C 6.679 12.893,6.676 9.416,6.628 9.225 C 6.526 8.822,6.217 8.500,5.816 8.381 C 5.707 8.349,5.429 8.342,4.013 8.336 C 3.091 8.333,2.231 8.339,2.100 8.350 M10.438 8.341 C 10.410 8.347,10.362 8.357,10.332 8.364 C 10.247 8.382,10.098 8.525,10.047 8.637 C 9.937 8.879,10.036 9.152,10.280 9.277 C 10.369 9.323,10.450 9.325,12.000 9.325 C 13.550 9.325,13.631 9.323,13.720 9.277 C 14.026 9.120,14.091 8.740,13.855 8.492 C 13.701 8.330,13.794 8.338,12.063 8.334 C 11.196 8.331,10.465 8.335,10.438 8.341 M5.618 9.382 C 5.660 9.424,5.663 9.530,5.663 11.166 L 5.663 12.904 5.603 12.952 C 5.547 12.998,5.481 13.000,3.838 13.000 C 2.194 13.000,2.128 12.998,2.072 12.952 L 2.013 12.904 2.006 11.196 C 2.002 9.855,2.007 9.474,2.032 9.425 C 2.058 9.374,2.088 9.360,2.201 9.347 C 2.276 9.339,3.066 9.333,3.955 9.335 C 5.473 9.337,5.576 9.340,5.618 9.382 M8.637 10.047 C 8.511 10.104,8.386 10.245,8.352 10.368 C 8.316 10.498,8.316 13.502,8.352 13.632 C 8.366 13.684,8.414 13.767,8.457 13.817 C 8.700 14.094,9.111 14.045,9.277 13.720 C 9.323 13.631,9.325 13.550,9.325 12.000 C 9.325 10.450,9.323 10.369,9.277 10.280 C 9.152 10.036,8.879 9.937,8.637 10.047 M13.438 10.343 C 13.299 10.368,13.269 10.382,13.184 10.456 C 12.999 10.619,13.001 10.600,13.001 11.869 L 13.000 13.000 11.869 13.001 C 10.829 13.001,10.729 13.005,10.637 13.047 C 10.468 13.124,10.325 13.331,10.325 13.500 C 10.325 13.596,10.386 13.737,10.466 13.825 C 10.630 14.007,10.587 14.003,12.213 13.995 L 13.663 13.988 13.758 13.928 C 13.810 13.896,13.884 13.823,13.920 13.768 L 13.988 13.666 13.995 12.227 C 14.000 11.231,13.994 10.758,13.975 10.693 C 13.944 10.586,13.823 10.438,13.728 10.390 C 13.653 10.352,13.511 10.329,13.438 10.343 M3.654 10.702 C 3.406 10.801,3.275 11.081,3.362 11.325 C 3.489 11.681,3.921 11.780,4.187 11.514 C 4.505 11.196,4.285 10.671,3.836 10.677 C 3.768 10.677,3.686 10.689,3.654 10.702 M10.963 10.714 C 10.848 10.774,10.729 10.899,10.698 10.995 C 10.682 11.042,10.674 11.141,10.680 11.214 C 10.714 11.618,11.188 11.810,11.492 11.543 C 11.848 11.230,11.641 10.675,11.170 10.675 C 11.097 10.675,11.004 10.693,10.963 10.714 " stroke="none" fill-rule="evenodd" fill="black"></path></svg>