<svg width="14" height="14" viewBox="0 0 14 14" xmlns="http://www.w3.org/2000/svg"><path d="M4.538 2.051 C 4.407 2.113,2.092 4.435,2.042 4.555 C 1.994 4.672,1.998 4.845,2.051 4.958 C 2.115 5.095,4.436 7.405,4.560 7.456 C 4.881 7.589,5.250 7.344,5.250 7.000 C 5.250 6.811,5.230 6.785,4.449 6.003 L 3.699 5.250 5.986 5.250 C 7.425 5.250,8.346 5.259,8.471 5.274 C 8.939 5.332,9.472 5.543,9.835 5.815 C 10.197 6.086,10.529 6.491,10.721 6.894 C 11.100 7.694,11.081 8.676,10.670 9.455 C 10.263 10.226,9.572 10.746,8.686 10.947 C 8.459 10.999,8.456 10.999,5.397 11.007 L 2.335 11.016 2.225 11.090 C 2.065 11.198,2.001 11.331,2.011 11.529 C 2.020 11.701,2.075 11.796,2.233 11.917 L 2.318 11.982 5.482 11.982 L 8.645 11.982 8.882 11.929 C 9.217 11.855,9.514 11.752,9.814 11.608 C 10.901 11.083,11.662 10.102,11.928 8.882 C 11.973 8.676,11.980 8.576,11.980 8.120 C 11.979 7.534,11.954 7.366,11.794 6.886 C 11.603 6.314,11.311 5.850,10.851 5.389 C 10.197 4.734,9.404 4.359,8.482 4.270 C 8.350 4.258,7.259 4.248,5.986 4.247 L 3.723 4.247 4.439 3.529 C 5.181 2.784,5.249 2.700,5.249 2.520 C 5.251 2.231,5.033 2.008,4.748 2.008 C 4.683 2.008,4.591 2.027,4.538 2.051 " stroke="none" fill-rule="evenodd" fill="black"></path></svg>