<svg width="15" height="15" viewBox="0 0 15 15" xmlns="http://www.w3.org/2000/svg"><path d="M3.638 2.017 C 3.362 2.041,3.198 2.085,2.975 2.192 C 2.554 2.395,2.195 2.820,2.088 3.241 C 2.033 3.458,2.000 3.963,2.000 4.575 C 2.000 5.094,2.002 5.122,2.058 5.227 C 2.090 5.288,2.164 5.371,2.223 5.413 C 2.315 5.478,2.351 5.488,2.496 5.488 C 2.695 5.488,2.816 5.425,2.920 5.268 L 2.987 5.167 3.004 4.477 C 3.014 4.098,3.029 3.712,3.038 3.620 C 3.064 3.360,3.205 3.174,3.464 3.057 C 3.555 3.016,3.696 3.012,5.281 3.005 L 7.000 2.997 7.000 7.498 L 7.000 11.998 5.915 12.005 L 4.829 12.013 4.723 12.088 C 4.429 12.294,4.429 12.706,4.723 12.913 L 4.829 12.988 7.498 12.988 L 10.166 12.988 10.267 12.920 C 10.424 12.817,10.488 12.695,10.488 12.500 C 10.488 12.305,10.424 12.183,10.268 12.080 L 10.166 12.013 9.083 12.005 L 8.000 11.998 8.000 7.498 L 8.000 2.997 9.719 3.005 C 11.402 3.012,11.440 3.014,11.550 3.065 C 11.701 3.135,11.813 3.233,11.889 3.362 C 11.944 3.457,11.954 3.513,11.975 3.853 C 11.988 4.065,11.999 4.435,11.999 4.677 C 12.000 5.089,12.004 5.124,12.058 5.227 C 12.090 5.288,12.164 5.371,12.223 5.413 C 12.315 5.478,12.351 5.488,12.496 5.488 C 12.695 5.488,12.816 5.425,12.920 5.268 C 12.987 5.167,12.988 5.161,12.996 4.664 C 13.006 4.095,12.968 3.453,12.911 3.238 C 12.805 2.829,12.447 2.400,12.046 2.201 C 11.644 2.002,11.977 2.016,7.625 2.012 C 5.487 2.009,3.692 2.012,3.638 2.017 " fill="#000000" stroke="none" fill-rule="evenodd"></path></svg>