<svg width="16" height="16" viewBox="0 0 16 16" xmlns="http://www.w3.org/2000/svg"><path d="M6.191 1.065 C 5.936 1.128,5.550 1.322,5.341 1.493 C 5.027 1.749,4.771 2.133,4.639 2.547 C 4.593 2.693,4.576 2.826,4.563 3.160 L 4.547 3.587 3.813 3.604 C 3.312 3.616,3.025 3.634,2.905 3.662 C 2.117 3.842,1.443 4.431,1.171 5.174 C 1.052 5.502,1.011 5.841,1.005 6.547 C 1.000 7.133,1.003 7.165,1.059 7.270 C 1.132 7.407,1.252 7.510,1.381 7.545 C 1.435 7.561,1.745 7.573,2.068 7.573 C 2.703 7.573,2.834 7.593,3.057 7.724 C 3.214 7.816,3.405 8.030,3.489 8.208 C 3.552 8.343,3.560 8.392,3.560 8.640 C 3.560 8.889,3.552 8.937,3.487 9.076 C 3.385 9.293,3.268 9.432,3.087 9.549 C 2.848 9.703,2.667 9.733,1.987 9.733 C 1.351 9.733,1.301 9.743,1.153 9.895 C 1.001 10.051,0.987 10.151,0.987 11.078 C 0.989 12.479,1.035 13.045,1.179 13.438 C 1.385 14.000,1.921 14.550,2.502 14.796 C 2.872 14.953,3.478 15.011,4.762 15.013 C 5.534 15.013,5.635 14.996,5.792 14.834 C 5.846 14.779,5.903 14.700,5.918 14.658 C 5.935 14.613,5.947 14.330,5.947 13.949 C 5.947 13.600,5.958 13.253,5.972 13.179 C 6.027 12.889,6.205 12.649,6.467 12.511 C 6.585 12.448,6.630 12.440,6.867 12.440 C 7.120 12.440,7.142 12.445,7.302 12.531 C 7.492 12.634,7.595 12.745,7.701 12.960 L 7.773 13.107 7.787 13.867 C 7.801 14.686,7.801 14.683,7.956 14.847 C 8.088 14.987,8.227 15.013,8.812 15.013 C 9.917 15.011,10.495 14.954,10.878 14.810 C 11.296 14.653,11.785 14.241,12.038 13.832 C 12.332 13.358,12.395 13.009,12.418 11.730 L 12.435 10.807 12.837 10.793 C 13.194 10.782,13.269 10.771,13.494 10.697 C 14.212 10.464,14.744 9.897,14.936 9.160 C 15.012 8.868,15.013 8.414,14.938 8.131 C 14.745 7.403,14.237 6.854,13.526 6.605 C 13.312 6.530,13.258 6.523,12.860 6.512 C 12.562 6.504,12.426 6.491,12.426 6.470 C 12.422 6.219,12.365 5.612,12.333 5.474 C 12.128 4.581,11.401 3.858,10.511 3.663 C 10.362 3.630,10.112 3.614,9.587 3.603 L 8.867 3.587 8.851 3.160 C 8.833 2.699,8.793 2.520,8.636 2.202 C 8.357 1.636,7.827 1.212,7.220 1.066 C 6.933 0.998,6.468 0.997,6.191 1.065 M7.152 2.180 C 7.365 2.282,7.511 2.409,7.619 2.590 C 7.762 2.830,7.787 2.980,7.787 3.628 C 7.787 4.364,7.818 4.465,8.090 4.600 L 8.224 4.667 9.052 4.667 C 10.071 4.667,10.291 4.689,10.556 4.814 C 10.821 4.939,11.061 5.179,11.186 5.444 C 11.301 5.688,11.333 5.934,11.333 6.600 C 11.334 7.135,11.352 7.239,11.472 7.375 C 11.630 7.555,11.646 7.559,12.415 7.573 L 13.110 7.587 13.311 7.686 C 14.175 8.113,14.097 9.338,13.185 9.669 C 13.076 9.709,12.935 9.719,12.369 9.732 L 11.684 9.747 11.571 9.827 C 11.509 9.871,11.433 9.955,11.402 10.013 C 11.349 10.116,11.346 10.171,11.330 11.413 C 11.312 12.822,11.301 12.934,11.155 13.207 C 10.990 13.515,10.618 13.797,10.280 13.868 C 10.207 13.883,9.856 13.903,9.500 13.912 L 8.853 13.927 8.853 13.509 C 8.853 13.018,8.815 12.808,8.668 12.493 C 8.430 11.984,8.008 11.613,7.462 11.430 C 7.141 11.323,6.647 11.322,6.293 11.428 C 5.676 11.613,5.160 12.127,4.958 12.760 C 4.908 12.917,4.897 13.026,4.886 13.436 L 4.874 13.926 4.070 13.913 C 3.198 13.898,3.048 13.878,2.789 13.740 C 2.616 13.648,2.355 13.385,2.259 13.207 C 2.121 12.951,2.103 12.794,2.088 11.753 L 2.074 10.800 2.398 10.800 C 3.098 10.800,3.605 10.596,4.053 10.134 C 4.428 9.749,4.621 9.309,4.657 8.760 C 4.714 7.906,4.205 7.066,3.403 6.691 C 3.114 6.555,2.861 6.507,2.449 6.507 L 2.080 6.507 2.080 6.349 C 2.080 6.263,2.092 6.068,2.107 5.916 C 2.130 5.686,2.151 5.607,2.232 5.440 C 2.362 5.173,2.586 4.949,2.853 4.818 C 3.121 4.688,3.324 4.667,4.361 4.667 L 5.190 4.667 5.330 4.597 C 5.421 4.551,5.495 4.489,5.542 4.419 L 5.613 4.311 5.628 3.615 C 5.642 3.001,5.650 2.904,5.698 2.784 C 5.807 2.511,5.980 2.318,6.233 2.190 C 6.403 2.103,6.525 2.081,6.766 2.091 C 6.941 2.099,7.018 2.117,7.152 2.180 " stroke="none" fill-rule="evenodd" fill="black"></path></svg>