<svg width="14" height="14" viewBox="0 0 14 14" xmlns="http://www.w3.org/2000/svg"><path d="M6.673 1.040 C 6.408 1.097,6.151 1.242,5.938 1.456 C 5.662 1.735,5.543 2.000,5.506 2.422 C 5.481 2.707,5.429 2.803,5.275 2.849 C 5.128 2.893,5.034 2.860,4.860 2.706 C 4.559 2.439,4.132 2.289,3.757 2.317 C 2.962 2.379,2.357 3.026,2.357 3.815 C 2.357 4.188,2.476 4.498,2.742 4.818 C 2.917 5.028,2.937 5.100,2.871 5.277 C 2.806 5.452,2.738 5.487,2.433 5.509 C 2.019 5.539,1.725 5.670,1.446 5.949 C 0.850 6.545,0.855 7.463,1.457 8.062 C 1.735 8.338,2.006 8.459,2.420 8.493 C 2.687 8.514,2.767 8.552,2.832 8.689 C 2.907 8.848,2.880 8.939,2.696 9.149 C 2.436 9.444,2.294 9.844,2.318 10.220 C 2.368 11.027,3.016 11.644,3.813 11.643 C 4.180 11.642,4.506 11.519,4.803 11.270 C 4.997 11.107,5.080 11.073,5.202 11.106 C 5.389 11.157,5.460 11.267,5.460 11.508 C 5.462 12.180,5.936 12.782,6.594 12.951 C 6.970 13.047,7.410 12.996,7.754 12.817 C 8.214 12.577,8.538 12.037,8.540 11.508 C 8.540 11.267,8.611 11.157,8.798 11.106 C 8.919 11.074,9.003 11.107,9.190 11.264 C 9.497 11.522,9.815 11.643,10.185 11.643 C 10.985 11.643,11.632 11.028,11.682 10.220 C 11.706 9.844,11.564 9.444,11.304 9.149 C 11.120 8.939,11.093 8.848,11.168 8.689 C 11.233 8.552,11.313 8.514,11.580 8.493 C 11.994 8.459,12.265 8.338,12.543 8.062 C 13.145 7.463,13.150 6.545,12.554 5.949 C 12.276 5.671,11.896 5.507,11.530 5.507 C 11.424 5.507,11.348 5.492,11.278 5.458 C 11.193 5.417,11.172 5.391,11.131 5.281 C 11.062 5.099,11.082 5.030,11.263 4.813 C 11.520 4.503,11.642 4.183,11.643 3.813 C 11.644 3.027,11.045 2.386,10.248 2.319 C 9.869 2.288,9.444 2.436,9.140 2.706 C 9.036 2.798,8.955 2.850,8.900 2.860 C 8.776 2.883,8.645 2.836,8.573 2.741 C 8.521 2.672,8.509 2.627,8.493 2.421 C 8.459 2.005,8.339 1.735,8.062 1.456 C 7.915 1.308,7.832 1.247,7.676 1.170 C 7.353 1.011,7.014 0.967,6.673 1.040 M7.235 2.068 C 7.416 2.167,7.469 2.266,7.495 2.549 C 7.531 2.948,7.655 3.239,7.890 3.474 C 8.390 3.975,9.173 4.001,9.707 3.534 C 9.790 3.461,9.900 3.381,9.952 3.358 C 10.270 3.210,10.640 3.455,10.640 3.815 C 10.640 3.963,10.592 4.063,10.440 4.231 C 10.121 4.583,10.015 5.075,10.157 5.548 C 10.227 5.781,10.330 5.957,10.487 6.112 C 10.737 6.357,11.019 6.474,11.438 6.507 C 11.654 6.523,11.701 6.534,11.779 6.589 C 11.907 6.678,11.993 6.845,11.993 7.004 C 11.993 7.105,11.978 7.156,11.918 7.257 C 11.813 7.431,11.706 7.482,11.384 7.512 C 11.013 7.546,10.771 7.652,10.535 7.884 C 10.373 8.044,10.277 8.193,10.205 8.399 C 10.048 8.851,10.146 9.341,10.466 9.707 C 10.539 9.790,10.619 9.900,10.642 9.952 C 10.788 10.266,10.547 10.640,10.197 10.640 C 10.047 10.640,9.936 10.594,9.811 10.478 C 9.666 10.345,9.479 10.227,9.321 10.169 C 9.150 10.107,8.774 10.085,8.578 10.126 C 8.367 10.170,8.103 10.315,7.946 10.473 C 7.679 10.744,7.569 10.996,7.539 11.412 C 7.520 11.671,7.491 11.754,7.381 11.858 C 7.285 11.949,7.161 11.993,7.000 11.993 C 6.668 11.993,6.465 11.791,6.463 11.457 C 6.460 10.938,6.177 10.465,5.738 10.245 C 5.502 10.127,5.345 10.096,5.053 10.109 C 4.705 10.124,4.460 10.229,4.189 10.478 C 4.064 10.594,3.953 10.640,3.803 10.640 C 3.453 10.640,3.212 10.266,3.358 9.952 C 3.381 9.900,3.461 9.790,3.534 9.707 C 3.996 9.178,3.981 8.431,3.498 7.923 C 3.246 7.658,3.009 7.548,2.614 7.513 C 2.297 7.484,2.188 7.432,2.083 7.257 C 1.979 7.085,1.977 6.924,2.076 6.752 C 2.178 6.573,2.265 6.529,2.564 6.506 C 2.981 6.474,3.263 6.357,3.513 6.112 C 3.670 5.957,3.773 5.781,3.843 5.548 C 3.985 5.075,3.879 4.583,3.560 4.231 C 3.408 4.063,3.360 3.963,3.360 3.815 C 3.360 3.455,3.730 3.210,4.048 3.358 C 4.100 3.381,4.210 3.461,4.293 3.534 C 4.814 3.989,5.562 3.980,6.064 3.512 C 6.339 3.255,6.467 2.978,6.505 2.552 C 6.531 2.265,6.577 2.176,6.752 2.076 C 6.913 1.984,7.075 1.981,7.235 2.068 M6.597 4.890 C 5.938 5.010,5.337 5.480,5.050 6.101 C 4.901 6.422,4.866 6.596,4.866 7.000 C 4.866 7.306,4.874 7.390,4.919 7.546 C 5.139 8.311,5.689 8.861,6.454 9.081 C 6.610 9.126,6.694 9.134,7.000 9.134 C 7.306 9.134,7.390 9.126,7.546 9.081 C 8.311 8.861,8.861 8.311,9.081 7.546 C 9.126 7.390,9.134 7.306,9.134 7.000 C 9.134 6.694,9.126 6.610,9.081 6.454 C 8.969 6.063,8.782 5.745,8.502 5.468 C 8.009 4.981,7.294 4.764,6.597 4.890 M7.291 5.892 C 7.491 5.945,7.646 6.036,7.805 6.195 C 8.033 6.422,8.143 6.686,8.143 7.000 C 8.143 7.314,8.033 7.576,7.805 7.808 C 7.582 8.033,7.318 8.143,7.000 8.143 C 6.682 8.143,6.418 8.033,6.195 7.808 C 6.036 7.646,5.944 7.490,5.892 7.291 C 5.822 7.020,5.860 6.700,5.991 6.453 C 6.073 6.301,6.302 6.072,6.454 5.991 C 6.700 5.860,7.021 5.822,7.291 5.892 " stroke="none" fill-rule="evenodd" fill="black"></path></svg>