<svg width="16" height="16" viewBox="0 0 16 16" fill="none" xmlns="http://www.w3.org/2000/svg"><path d="M7.547 2.028 C 6.839 2.116,6.216 2.352,5.671 2.740 C 5.394 2.936,4.963 3.366,4.768 3.642 C 4.477 4.051,4.263 4.510,4.133 5.000 C 4.023 5.415,4.000 5.657,4.000 6.386 L 4.000 7.027 3.768 7.073 C 3.123 7.201,2.517 7.696,2.227 8.329 C 2.023 8.774,1.990 9.135,2.008 10.717 C 2.022 12.007,2.039 12.181,2.178 12.529 C 2.416 13.124,2.934 13.627,3.510 13.823 C 3.923 13.964,3.802 13.960,8.000 13.960 C 12.198 13.960,12.077 13.964,12.490 13.823 C 13.064 13.628,13.585 13.122,13.822 12.529 C 13.961 12.181,13.978 12.007,13.992 10.717 C 14.010 9.131,13.977 8.774,13.771 8.324 C 13.483 7.695,12.870 7.197,12.232 7.074 L 12.000 7.029 12.000 6.370 C 12.000 5.662,11.980 5.439,11.879 5.036 C 11.700 4.327,11.368 3.726,10.867 3.205 C 10.518 2.842,10.224 2.623,9.800 2.413 C 9.253 2.142,8.792 2.031,8.133 2.013 C 7.921 2.008,7.657 2.014,7.547 2.028 M8.632 3.064 C 9.636 3.260,10.459 3.977,10.812 4.964 C 10.962 5.384,10.987 5.575,10.987 6.323 L 10.987 6.987 8.000 6.987 L 5.013 6.987 5.013 6.337 C 5.013 5.429,5.070 5.147,5.363 4.586 C 5.786 3.776,6.548 3.216,7.448 3.053 C 7.747 2.999,8.324 3.004,8.632 3.064 M11.920 8.024 C 12.177 8.067,12.441 8.208,12.623 8.398 C 12.820 8.605,12.922 8.824,12.959 9.119 C 12.995 9.413,12.995 11.585,12.959 11.858 C 12.886 12.409,12.478 12.839,11.933 12.939 C 11.661 12.989,4.339 12.989,4.067 12.939 C 3.522 12.839,3.114 12.409,3.041 11.858 C 3.005 11.585,3.005 9.413,3.041 9.119 C 3.059 8.973,3.097 8.834,3.147 8.726 C 3.290 8.418,3.617 8.142,3.947 8.052 C 4.013 8.034,4.265 8.010,4.507 7.999 C 5.203 7.968,11.715 7.990,11.920 8.024 " stroke="none" fill-rule="evenodd"></path></svg>