<svg width="15" height="15" viewBox="0 0 15 15" xmlns="http://www.w3.org/2000/svg"><path d="M7.228 1.040 C 7.153 1.060,7.030 1.115,6.953 1.162 C 6.876 1.209,5.530 2.275,3.963 3.530 C 0.886 5.994,1.000 5.894,1.000 6.131 C 1.000 6.350,1.154 6.553,1.368 6.615 C 1.563 6.672,1.703 6.623,1.975 6.402 L 2.188 6.230 2.202 9.359 C 2.211 11.369,2.226 12.523,2.242 12.588 C 2.335 12.950,2.403 13.100,2.586 13.343 C 2.807 13.637,3.147 13.855,3.524 13.943 C 3.700 13.985,3.962 13.988,7.500 13.988 C 11.038 13.988,11.300 13.985,11.476 13.943 C 11.853 13.855,12.193 13.637,12.414 13.343 C 12.597 13.100,12.665 12.950,12.758 12.588 C 12.774 12.523,12.789 11.369,12.798 9.359 L 12.813 6.230 13.025 6.402 C 13.297 6.623,13.437 6.672,13.632 6.615 C 13.846 6.553,14.000 6.350,14.000 6.131 C 14.000 5.894,14.114 5.994,11.038 3.530 C 9.470 2.275,8.125 1.209,8.048 1.162 C 7.798 1.009,7.505 0.965,7.228 1.040 M7.850 2.280 C 7.926 2.330,8.845 3.056,9.893 3.892 L 11.798 5.413 11.799 8.750 C 11.799 10.719,11.790 12.173,11.776 12.295 C 11.761 12.420,11.729 12.549,11.695 12.617 C 11.627 12.754,11.453 12.913,11.328 12.954 C 11.271 12.972,10.973 12.987,10.519 12.994 L 9.801 13.004 9.794 10.571 L 9.788 8.138 9.731 7.988 C 9.615 7.680,9.392 7.444,9.100 7.321 L 8.963 7.263 7.500 7.263 L 6.038 7.263 5.900 7.321 C 5.605 7.446,5.386 7.677,5.269 7.988 L 5.213 8.138 5.206 10.571 L 5.199 13.004 4.481 12.994 C 4.027 12.987,3.729 12.972,3.672 12.954 C 3.547 12.913,3.373 12.754,3.305 12.617 C 3.271 12.549,3.239 12.420,3.224 12.295 C 3.210 12.173,3.201 10.720,3.201 8.750 L 3.203 5.413 5.058 3.932 C 7.117 2.289,7.100 2.303,7.239 2.226 C 7.320 2.182,7.370 2.174,7.525 2.180 C 7.693 2.187,7.727 2.197,7.850 2.280 M8.776 8.314 C 8.791 8.354,8.800 9.248,8.800 10.689 L 8.800 13.000 7.500 13.000 L 6.200 13.000 6.200 10.689 C 6.200 9.248,6.209 8.354,6.224 8.314 L 6.249 8.250 7.500 8.250 L 8.751 8.250 8.776 8.314 " stroke="none" fill-rule="evenodd" fill="black"></path></svg>