<svg width="15" height="15" viewBox="0 0 15 15" xmlns="http://www.w3.org/2000/svg"><path d="M7.286 1.062 C 7.190 1.110,6.485 1.802,4.108 4.181 C 1.295 6.996,1.051 7.246,1.024 7.350 C 0.988 7.487,1.009 7.655,1.074 7.759 C 1.101 7.802,2.498 9.212,4.180 10.892 C 6.996 13.705,7.246 13.949,7.350 13.976 C 7.746 14.080,8.080 13.746,7.976 13.350 C 7.949 13.247,7.735 13.026,5.330 10.619 L 2.714 8.000 8.188 7.994 L 13.663 7.988 13.758 7.928 C 13.810 7.896,13.884 7.823,13.920 7.767 C 13.976 7.683,13.988 7.638,13.988 7.500 C 13.988 7.362,13.976 7.317,13.920 7.233 C 13.884 7.177,13.810 7.104,13.758 7.072 L 13.663 7.013 8.188 7.006 L 2.714 7.000 5.330 4.381 C 7.734 1.975,7.948 1.753,7.976 1.650 C 8.041 1.401,7.944 1.176,7.722 1.066 C 7.557 0.984,7.444 0.983,7.286 1.062 " stroke="none" fill-rule="evenodd" fill="black"></path></svg>