<svg width="14" height="14" viewBox="0 0 14 14" xmlns="http://www.w3.org/2000/svg"><path d="M6.440 1.027 C 5.941 1.078,5.356 1.210,4.935 1.365 C 4.563 1.503,4.027 1.776,3.694 1.999 C 2.783 2.608,2.091 3.394,1.623 4.349 C 1.407 4.788,1.304 5.068,1.190 5.517 C 1.046 6.088,1.016 6.345,1.016 7.000 C 1.016 7.438,1.026 7.637,1.058 7.852 C 1.113 8.205,1.254 8.765,1.365 9.067 C 1.565 9.610,1.944 10.281,2.320 10.757 C 2.498 10.982,3.018 11.502,3.243 11.680 C 3.719 12.056,4.390 12.435,4.933 12.635 C 5.235 12.746,5.795 12.887,6.148 12.942 C 6.363 12.974,6.562 12.984,7.000 12.984 C 7.655 12.984,7.912 12.954,8.483 12.810 C 8.932 12.696,9.212 12.593,9.651 12.377 C 10.829 11.800,11.800 10.829,12.377 9.651 C 12.593 9.212,12.696 8.932,12.810 8.483 C 12.954 7.912,12.984 7.655,12.984 7.000 C 12.984 6.345,12.954 6.088,12.810 5.517 C 12.696 5.068,12.593 4.788,12.377 4.349 C 11.507 2.572,9.824 1.354,7.835 1.060 C 7.549 1.018,6.719 0.998,6.440 1.027 M7.517 2.031 C 8.461 2.126,9.405 2.516,10.150 3.121 C 10.361 3.292,10.733 3.665,10.900 3.873 C 12.474 5.840,12.334 8.694,10.575 10.485 C 9.753 11.322,8.725 11.828,7.561 11.969 C 7.306 12.000,6.694 12.000,6.439 11.969 C 5.475 11.853,4.520 11.446,3.815 10.851 C 2.653 9.870,2.007 8.495,2.007 7.000 C 2.007 5.637,2.546 4.364,3.527 3.411 C 4.314 2.646,5.381 2.144,6.452 2.032 C 6.726 2.004,7.240 2.003,7.517 2.031 M6.854 3.228 C 6.733 3.265,6.614 3.366,6.551 3.484 L 6.498 3.582 6.492 5.257 C 6.487 6.346,6.493 6.980,6.509 7.066 C 6.559 7.339,6.529 7.318,7.805 7.962 C 8.434 8.279,9.004 8.556,9.072 8.576 C 9.177 8.608,9.214 8.610,9.316 8.585 C 9.554 8.528,9.743 8.247,9.694 8.022 C 9.668 7.899,9.596 7.777,9.514 7.715 C 9.473 7.684,9.006 7.442,8.477 7.178 L 7.515 6.697 7.508 5.140 L 7.502 3.582 7.450 3.485 C 7.383 3.359,7.253 3.254,7.127 3.222 C 7.005 3.191,6.968 3.192,6.854 3.228 " stroke="none" fill-rule="evenodd" fill="black"></path></svg>