<svg width="21" height="21" viewBox="0 0 21 21" xmlns="http://www.w3.org/2000/svg"><path d="M10.308 2.045 C 10.145 2.119,5.049 7.242,5.020 7.361 C 4.989 7.489,5.022 7.685,5.094 7.794 C 5.125 7.842,5.220 7.912,5.305 7.950 C 5.626 8.092,5.489 8.206,7.866 5.833 L 10.009 3.694 10.018 8.704 L 10.028 13.714 10.115 13.808 C 10.163 13.860,10.245 13.924,10.297 13.951 C 10.488 14.050,10.709 13.996,10.885 13.808 L 10.973 13.714 10.982 8.704 L 10.991 3.694 13.134 5.833 C 15.511 8.206,15.374 8.092,15.695 7.950 C 15.780 7.912,15.875 7.842,15.906 7.794 C 15.978 7.685,16.011 7.489,15.980 7.361 C 15.949 7.236,10.851 2.116,10.685 2.044 C 10.545 1.983,10.443 1.984,10.308 2.045 M2.230 13.082 C 2.177 13.115,2.100 13.211,2.059 13.294 C 1.988 13.442,1.987 13.477,2.005 14.764 C 2.024 16.138,2.056 16.490,2.199 16.906 C 2.511 17.810,3.266 18.546,4.165 18.822 C 4.710 18.988,4.678 18.988,10.500 18.988 C 16.320 18.988,16.288 18.988,16.835 18.822 C 17.712 18.556,18.495 17.795,18.798 16.914 C 18.944 16.489,18.976 16.144,18.995 14.764 C 19.013 13.476,19.012 13.442,18.940 13.293 C 18.847 13.100,18.713 13.020,18.485 13.020 C 18.336 13.020,18.287 13.038,18.184 13.128 C 18.114 13.190,18.046 13.292,18.026 13.364 C 18.007 13.435,17.985 14.083,17.976 14.805 C 17.960 16.252,17.937 16.454,17.749 16.828 C 17.516 17.288,17.037 17.714,16.596 17.851 C 16.168 17.984,15.911 17.990,10.500 17.990 C 5.089 17.990,4.832 17.984,4.404 17.851 C 3.963 17.714,3.484 17.288,3.251 16.828 C 3.063 16.454,3.040 16.252,3.024 14.805 C 3.015 14.083,2.993 13.435,2.974 13.364 C 2.954 13.292,2.886 13.190,2.816 13.128 C 2.711 13.036,2.665 13.020,2.510 13.021 C 2.400 13.021,2.289 13.046,2.230 13.082 " stroke="none" fill-rule="evenodd" fill="black"></path></svg>