<svg width="15" height="15" viewBox="0 0 15 15" xmlns="http://www.w3.org/2000/svg"><path d="M7.342 1.024 C 7.227 1.061,7.109 1.166,7.053 1.282 C 7.003 1.384,7.000 1.432,7.000 2.028 L 7.000 2.665 6.860 2.712 C 6.347 2.886,5.889 3.354,5.713 3.881 C 5.509 4.496,5.620 5.120,6.026 5.640 L 6.146 5.793 5.010 7.728 C 4.386 8.792,3.863 9.659,3.848 9.655 C 3.785 9.639,3.440 9.344,3.125 9.036 C 2.939 8.854,2.751 8.688,2.707 8.666 C 2.663 8.643,2.570 8.625,2.500 8.625 C 2.131 8.625,1.899 8.987,2.052 9.325 C 2.136 9.511,2.870 10.206,3.299 10.507 L 3.357 10.547 2.688 11.688 C 2.063 12.756,2.019 12.838,2.009 12.971 C 1.995 13.151,2.070 13.305,2.223 13.413 C 2.316 13.478,2.351 13.488,2.500 13.488 C 2.799 13.488,2.785 13.505,3.530 12.238 C 3.886 11.633,4.186 11.121,4.198 11.101 C 4.216 11.071,4.264 11.086,4.472 11.184 C 6.342 12.063,8.634 12.066,10.509 11.192 C 10.732 11.088,10.784 11.072,10.802 11.101 C 10.814 11.121,11.114 11.633,11.470 12.238 C 12.193 13.467,12.198 13.473,12.460 13.495 C 12.795 13.522,13.066 13.208,12.981 12.890 C 12.965 12.830,12.657 12.278,12.297 11.664 L 11.643 10.547 11.701 10.507 C 12.128 10.207,12.864 9.509,12.949 9.323 C 13.101 8.987,12.868 8.625,12.500 8.625 C 12.430 8.625,12.337 8.643,12.293 8.666 C 12.249 8.688,12.061 8.854,11.875 9.036 C 11.559 9.344,11.215 9.639,11.152 9.655 C 11.137 9.659,10.614 8.792,9.990 7.728 L 8.854 5.794 8.974 5.641 C 9.380 5.121,9.491 4.495,9.287 3.881 C 9.111 3.354,8.653 2.886,8.142 2.713 L 8.003 2.666 7.995 2.002 C 7.988 1.353,7.986 1.335,7.928 1.242 C 7.843 1.106,7.708 1.024,7.546 1.012 C 7.473 1.006,7.381 1.012,7.342 1.024 M7.874 3.689 C 8.041 3.764,8.210 3.927,8.304 4.103 C 8.355 4.198,8.363 4.248,8.363 4.475 C 8.363 4.719,8.357 4.747,8.289 4.871 C 8.130 5.157,7.812 5.350,7.500 5.350 C 7.188 5.350,6.870 5.157,6.711 4.871 C 6.643 4.747,6.638 4.719,6.638 4.475 C 6.638 4.248,6.645 4.198,6.696 4.104 C 6.820 3.870,7.048 3.688,7.294 3.626 C 7.450 3.586,7.708 3.614,7.874 3.689 M7.500 6.338 C 7.631 6.338,7.794 6.328,7.863 6.317 L 7.988 6.297 9.123 8.233 C 9.748 9.298,10.258 10.179,10.257 10.191 C 10.255 10.203,10.148 10.259,10.019 10.317 C 8.412 11.027,6.587 11.026,4.977 10.315 C 4.845 10.256,4.738 10.200,4.739 10.189 C 4.740 10.178,5.252 9.298,5.877 8.233 L 7.012 6.297 7.137 6.317 C 7.206 6.328,7.369 6.338,7.500 6.338 " stroke="none" fill-rule="evenodd" fill="black"></path></svg>