<svg width="16" height="16" viewBox="0 0 16 16" xmlns="http://www.w3.org/2000/svg"><path d="M7.874 1.519 C 7.760 1.547,7.611 1.662,7.553 1.768 C 7.511 1.845,7.506 1.974,7.499 3.140 C 7.494 4.037,7.501 4.461,7.522 4.539 C 7.539 4.605,7.593 4.692,7.650 4.750 C 7.921 5.021,8.381 4.900,8.480 4.532 C 8.499 4.463,8.506 3.989,8.501 3.140 C 8.494 1.899,8.491 1.850,8.439 1.760 C 8.329 1.574,8.081 1.468,7.874 1.519 M3.524 3.364 C 3.292 3.479,3.190 3.773,3.303 4.005 C 3.341 4.084,3.649 4.409,4.273 5.031 C 5.224 5.979,5.251 6.001,5.467 5.999 C 5.573 5.999,5.740 5.910,5.832 5.805 C 5.931 5.693,5.960 5.572,5.934 5.393 C 5.916 5.270,5.894 5.245,4.991 4.338 C 4.483 3.827,4.022 3.386,3.968 3.358 C 3.838 3.291,3.668 3.293,3.524 3.364 M12.027 3.359 C 11.975 3.387,11.517 3.827,11.009 4.338 C 10.106 5.245,10.084 5.270,10.066 5.393 C 10.040 5.572,10.069 5.693,10.168 5.805 C 10.260 5.910,10.427 5.999,10.533 5.999 C 10.749 6.001,10.776 5.979,11.727 5.031 C 12.719 4.043,12.763 3.988,12.741 3.759 C 12.707 3.414,12.324 3.199,12.027 3.359 M1.874 7.519 C 1.690 7.564,1.544 7.725,1.507 7.923 C 1.465 8.147,1.633 8.416,1.854 8.477 C 1.924 8.496,2.377 8.506,3.200 8.506 C 4.023 8.506,4.476 8.496,4.546 8.477 C 4.687 8.438,4.840 8.281,4.879 8.136 C 4.939 7.915,4.859 7.711,4.663 7.581 L 4.551 7.507 3.255 7.502 C 2.543 7.500,1.921 7.507,1.874 7.519 M11.474 7.519 C 11.290 7.564,11.144 7.725,11.107 7.923 C 11.065 8.147,11.233 8.416,11.454 8.477 C 11.524 8.496,11.977 8.506,12.800 8.506 C 13.623 8.506,14.076 8.496,14.146 8.477 C 14.287 8.438,14.440 8.281,14.479 8.136 C 14.539 7.915,14.459 7.711,14.263 7.581 L 14.151 7.507 12.855 7.502 C 12.143 7.500,11.521 7.507,11.474 7.519 M5.240 10.104 C 5.170 10.137,4.824 10.466,4.223 11.070 C 3.240 12.060,3.230 12.072,3.264 12.315 C 3.305 12.619,3.616 12.814,3.910 12.720 C 4.061 12.672,5.847 10.892,5.910 10.727 C 6.069 10.313,5.642 9.916,5.240 10.104 M10.324 10.111 C 10.104 10.220,10.000 10.492,10.090 10.727 C 10.153 10.892,11.939 12.672,12.090 12.720 C 12.384 12.814,12.695 12.619,12.736 12.315 C 12.770 12.072,12.760 12.060,11.777 11.070 C 11.176 10.466,10.830 10.137,10.760 10.104 C 10.619 10.038,10.466 10.041,10.324 10.111 M7.874 11.119 C 7.760 11.147,7.611 11.262,7.553 11.368 C 7.511 11.445,7.506 11.574,7.499 12.740 C 7.494 13.637,7.501 14.061,7.522 14.139 C 7.539 14.205,7.593 14.292,7.650 14.350 C 7.921 14.621,8.381 14.500,8.480 14.132 C 8.499 14.063,8.506 13.589,8.501 12.740 C 8.494 11.499,8.491 11.450,8.439 11.360 C 8.329 11.174,8.081 11.068,7.874 11.119 " stroke="none" fill-rule="evenodd" fill="black"></path></svg>