<svg width="16" height="16" viewBox="0 0 16 16" xmlns="http://www.w3.org/2000/svg"><path d="M2.306 2.050 C 1.864 2.251,1.927 2.883,2.400 2.984 C 2.592 3.025,13.408 3.025,13.600 2.984 C 14.073 2.883,14.136 2.251,13.694 2.050 C 13.591 2.003,13.347 2.001,8.000 2.001 C 2.653 2.001,2.409 2.003,2.306 2.050 M7.787 4.494 C 7.685 4.540,3.438 8.763,3.313 8.944 C 3.251 9.033,3.240 9.076,3.240 9.229 C 3.240 9.390,3.248 9.419,3.323 9.511 C 3.368 9.567,3.444 9.636,3.492 9.664 C 3.592 9.723,3.822 9.732,3.921 9.681 C 3.957 9.663,4.776 8.860,5.740 7.897 L 7.493 6.147 7.493 9.861 C 7.493 13.153,7.498 13.586,7.535 13.674 C 7.713 14.101,8.287 14.101,8.465 13.674 C 8.502 13.586,8.507 13.153,8.507 9.861 L 8.507 6.147 10.260 7.897 C 11.224 8.860,12.043 9.663,12.079 9.681 C 12.178 9.732,12.408 9.723,12.508 9.664 C 12.725 9.537,12.822 9.286,12.747 9.050 C 12.720 8.966,12.303 8.536,10.550 6.779 C 9.360 5.587,8.341 4.580,8.285 4.541 C 8.157 4.452,7.928 4.431,7.787 4.494 " stroke="none" fill-rule="evenodd"></path></svg>