<svg width="21" height="21" viewBox="0 0 21 21" xmlns="http://www.w3.org/2000/svg"><path d="M6.878 2.033 C 6.647 2.048,6.339 2.086,6.195 2.116 C 5.306 2.304,4.454 3.073,4.181 3.932 C 4.006 4.483,4.008 4.420,4.008 10.500 C 4.008 16.580,4.006 16.517,4.181 17.068 C 4.408 17.783,5.103 18.506,5.823 18.777 C 6.375 18.985,6.268 18.980,10.658 18.995 C 14.858 19.010,15.348 18.998,15.878 18.865 C 16.811 18.631,17.632 17.826,17.865 16.919 C 17.984 16.451,17.993 16.064,17.982 11.883 C 17.971 8.051,17.966 7.737,17.908 7.543 C 17.808 7.202,17.550 6.720,17.334 6.467 C 17.038 6.122,13.634 2.785,13.388 2.600 C 12.957 2.276,12.474 2.087,11.935 2.031 C 11.546 1.990,7.498 1.992,6.878 2.033 M11.948 3.032 L 12.110 3.055 12.111 4.721 C 12.112 6.488,12.131 6.790,12.256 7.059 C 12.368 7.301,12.689 7.605,12.939 7.705 C 13.142 7.787,13.144 7.787,15.038 7.798 L 16.933 7.809 16.960 7.886 C 17.003 8.005,17.019 14.958,16.979 15.783 C 16.940 16.580,16.891 16.809,16.696 17.114 C 16.536 17.363,16.190 17.669,15.933 17.789 C 15.510 17.988,15.461 17.990,11.008 17.989 C 8.611 17.988,6.840 17.974,6.685 17.954 C 6.293 17.904,6.072 17.822,5.797 17.624 C 5.506 17.416,5.210 17.031,5.127 16.754 C 5.011 16.361,5.001 15.825,5.014 10.203 C 5.025 5.146,5.031 4.616,5.084 4.397 C 5.186 3.982,5.461 3.598,5.833 3.350 C 6.114 3.164,6.324 3.090,6.685 3.049 C 6.990 3.014,11.707 2.999,11.948 3.032 M15.907 6.437 L 16.256 6.790 14.793 6.790 C 13.906 6.790,13.305 6.777,13.266 6.756 C 13.137 6.687,13.125 6.542,13.125 5.101 L 13.125 3.702 14.341 4.893 C 15.010 5.549,15.715 6.244,15.907 6.437 M8.164 10.068 C 7.825 10.235,7.829 10.772,8.170 10.934 C 8.275 10.984,8.583 10.990,11.016 10.990 L 13.745 10.990 13.864 10.911 C 14.178 10.701,14.171 10.274,13.849 10.078 C 13.741 10.012,13.652 10.010,11.008 10.011 C 8.577 10.012,8.265 10.018,8.164 10.068 M8.173 14.065 C 7.992 14.177,7.934 14.268,7.920 14.464 C 7.902 14.702,7.992 14.853,8.207 14.948 C 8.357 15.015,8.446 15.016,11.049 15.007 C 13.657 14.998,13.741 14.995,13.852 14.928 C 13.916 14.890,13.999 14.792,14.040 14.707 C 14.164 14.452,14.076 14.190,13.823 14.061 C 13.711 14.005,13.503 14.000,10.990 14.000 C 8.410 14.000,8.272 14.003,8.173 14.065 " stroke="none" fill-rule="evenodd" fill="black"></path></svg>