<svg width="14" height="14" viewBox="0 0 14 14" xmlns="http://www.w3.org/2000/svg"><path d="M2.884 3.035 C 2.260 3.103,1.749 3.382,1.395 3.849 C 1.181 4.132,1.076 4.415,1.028 4.842 C 0.996 5.123,0.996 8.877,1.028 9.158 C 1.084 9.661,1.219 9.971,1.524 10.305 C 1.866 10.679,2.314 10.897,2.896 10.971 C 3.240 11.015,7.062 11.015,7.427 10.971 C 7.996 10.903,8.391 10.721,8.753 10.361 C 9.043 10.072,9.218 9.733,9.289 9.320 C 9.304 9.231,9.323 8.879,9.331 8.538 L 9.345 7.918 10.512 8.662 C 11.153 9.071,11.759 9.446,11.857 9.495 C 12.350 9.743,12.837 9.563,12.961 9.086 C 13.014 8.882,13.014 5.118,12.961 4.914 C 12.869 4.560,12.557 4.353,12.181 4.396 C 11.998 4.417,11.792 4.522,11.246 4.872 C 10.983 5.041,10.448 5.382,10.057 5.631 L 9.345 6.084 9.331 5.463 C 9.323 5.121,9.304 4.769,9.289 4.680 C 9.216 4.257,9.040 3.921,8.736 3.625 C 8.446 3.342,8.122 3.167,7.712 3.073 C 7.508 3.026,7.433 3.024,5.285 3.020 C 4.066 3.017,2.985 3.024,2.884 3.035 M7.578 4.065 C 7.820 4.139,8.056 4.317,8.187 4.523 C 8.319 4.731,8.318 4.724,8.318 7.000 C 8.318 8.664,8.312 9.117,8.287 9.228 C 8.215 9.550,7.924 9.836,7.572 9.932 C 7.331 9.998,6.690 10.014,4.855 10.003 C 2.886 9.991,2.820 9.987,2.567 9.858 C 2.399 9.773,2.183 9.564,2.112 9.417 C 2.078 9.346,2.045 9.220,2.031 9.101 C 1.998 8.834,1.998 5.166,2.031 4.899 C 2.062 4.644,2.133 4.499,2.309 4.331 C 2.479 4.169,2.685 4.069,2.905 4.040 C 2.996 4.028,4.035 4.020,5.262 4.023 C 7.205 4.027,7.469 4.032,7.578 4.065 M11.993 6.999 L 11.993 8.420 10.885 7.716 C 10.276 7.329,9.778 7.006,9.778 7.000 C 9.778 6.992,11.948 5.596,11.988 5.579 C 11.991 5.578,11.993 6.216,11.993 6.999 " stroke="none" fill-rule="evenodd" fill="black"></path></svg>