<svg width="16" height="16" viewBox="0 0 16 16" xmlns="http://www.w3.org/2000/svg"><path d="M11.107 2.107 C 10.718 2.176,10.297 2.371,9.961 2.639 C 9.611 2.917,9.274 3.435,9.152 3.880 L 9.101 4.067 5.704 4.080 L 2.307 4.093 2.209 4.154 C 2.039 4.260,1.955 4.518,2.028 4.712 C 2.067 4.814,2.182 4.932,2.286 4.977 C 2.357 5.007,2.940 5.013,5.743 5.013 L 9.115 5.013 9.134 5.127 C 9.144 5.189,9.194 5.341,9.245 5.465 C 9.542 6.189,10.158 6.729,10.925 6.938 C 11.202 7.014,11.814 7.021,12.089 6.952 C 12.526 6.843,12.887 6.648,13.206 6.349 C 13.553 6.024,13.769 5.675,13.910 5.211 C 13.975 4.998,13.983 4.931,13.984 4.560 C 13.985 4.070,13.935 3.835,13.751 3.467 C 13.423 2.810,12.883 2.360,12.182 2.158 C 11.961 2.095,11.340 2.065,11.107 2.107 M12.027 3.103 C 12.609 3.306,13.000 3.816,13.056 4.448 C 13.092 4.852,12.919 5.300,12.606 5.613 C 12.298 5.921,11.959 6.063,11.533 6.063 C 11.101 6.063,10.767 5.921,10.453 5.603 C 10.229 5.377,10.133 5.206,10.052 4.888 C 9.991 4.649,9.987 4.478,10.038 4.240 C 10.230 3.336,11.163 2.803,12.027 3.103 M4.167 9.014 C 3.153 9.153,2.362 9.845,2.075 10.843 C 2.024 11.021,2.014 11.117,2.014 11.467 C 2.014 11.817,2.024 11.912,2.075 12.091 C 2.338 13.006,3.044 13.681,3.951 13.883 C 4.206 13.940,4.721 13.940,4.980 13.883 C 5.392 13.793,5.807 13.581,6.118 13.304 C 6.436 13.021,6.742 12.527,6.843 12.137 L 6.892 11.947 10.213 11.946 C 12.110 11.946,13.578 11.935,13.638 11.921 C 14.115 11.811,14.115 11.123,13.638 11.012 C 13.578 10.998,12.110 10.988,10.213 10.987 L 6.892 10.987 6.844 10.803 C 6.628 9.964,5.855 9.233,4.996 9.056 C 4.750 9.005,4.370 8.986,4.167 9.014 M4.836 9.989 C 5.403 10.134,5.840 10.589,5.960 11.160 C 6.033 11.506,5.990 11.820,5.823 12.159 C 5.518 12.778,4.772 13.118,4.097 12.945 C 3.530 12.799,3.093 12.344,2.973 11.773 C 2.924 11.538,2.924 11.395,2.973 11.160 C 3.091 10.600,3.504 10.161,4.067 9.997 C 4.270 9.938,4.623 9.934,4.836 9.989 " stroke="none" fill-rule="evenodd" fill="black"></path></svg>