<svg width="21" height="21" viewBox="0 0 21 21" xmlns="http://www.w3.org/2000/svg"><path d="M13.276 2.066 C 13.172 2.119,13.108 2.183,13.059 2.287 C 13.021 2.367,11.640 6.031,9.991 10.430 C 6.783 18.988,6.936 18.550,7.085 18.778 C 7.291 19.092,7.778 19.056,7.941 18.714 C 8.087 18.408,14.000 2.586,14.000 2.501 C 14.000 2.134,13.607 1.898,13.276 2.066 M5.260 5.074 C 5.160 5.135,1.154 10.095,1.054 10.282 C 1.004 10.376,1.004 10.624,1.054 10.718 C 1.154 10.905,5.160 15.865,5.260 15.926 C 5.473 16.056,5.791 15.981,5.919 15.770 C 6.013 15.616,6.006 15.371,5.903 15.219 C 5.858 15.152,4.999 14.071,3.995 12.817 C 2.991 11.562,2.170 10.520,2.170 10.500 C 2.170 10.480,2.991 9.438,3.995 8.183 C 4.999 6.929,5.858 5.848,5.903 5.781 C 6.006 5.629,6.013 5.384,5.919 5.230 C 5.791 5.019,5.473 4.944,5.260 5.074 M15.264 5.065 C 15.016 5.187,14.934 5.540,15.097 5.781 C 15.142 5.848,16.001 6.929,17.005 8.183 C 18.009 9.438,18.830 10.480,18.830 10.500 C 18.830 10.520,18.009 11.562,17.005 12.817 C 16.001 14.071,15.142 15.152,15.097 15.219 C 14.994 15.371,14.987 15.616,15.081 15.770 C 15.209 15.981,15.527 16.056,15.740 15.926 C 15.840 15.865,19.846 10.905,19.946 10.718 C 19.967 10.678,19.985 10.580,19.985 10.500 C 19.985 10.420,19.967 10.322,19.946 10.282 C 19.846 10.095,15.840 5.135,15.740 5.074 C 15.603 4.990,15.422 4.987,15.264 5.065 " stroke="none" fill-rule="evenodd" fill="black"></path></svg>