<svg width="14" height="14" viewBox="0 0 14 14" xmlns="http://www.w3.org/2000/svg"><path d="M7.362 1.028 C 6.967 1.075,6.668 1.221,6.401 1.497 C 6.159 1.749,6.022 2.045,5.975 2.426 C 5.960 2.546,5.950 3.179,5.950 4.030 L 5.950 5.437 4.777 5.438 C 3.468 5.439,2.931 5.460,2.707 5.518 C 2.447 5.585,2.250 5.704,2.030 5.925 C 1.714 6.243,1.604 6.504,1.564 7.031 C 1.551 7.200,1.540 8.165,1.540 9.176 L 1.540 11.013 1.454 11.013 C 1.340 11.013,1.184 11.092,1.114 11.184 C 0.915 11.447,0.995 11.798,1.288 11.949 C 1.373 11.992,1.510 11.993,6.993 11.993 C 12.412 11.992,12.615 11.991,12.705 11.949 C 13.002 11.812,13.087 11.450,12.886 11.184 C 12.816 11.092,12.660 11.013,12.546 11.013 L 12.460 11.013 12.459 6.948 C 12.459 4.711,12.449 2.756,12.438 2.602 C 12.427 2.448,12.400 2.253,12.379 2.170 C 12.242 1.637,11.826 1.221,11.277 1.068 C 11.098 1.018,11.065 1.017,9.310 1.013 C 8.328 1.010,7.452 1.017,7.362 1.028 M11.118 2.069 C 11.216 2.122,11.307 2.209,11.374 2.315 C 11.449 2.433,11.458 2.976,11.451 7.035 L 11.445 11.002 9.199 11.008 L 6.953 11.014 6.954 6.831 C 6.954 4.084,6.962 2.598,6.978 2.501 C 7.018 2.254,7.177 2.076,7.399 2.031 C 7.455 2.020,8.294 2.013,9.263 2.015 C 11.020 2.018,11.025 2.018,11.118 2.069 M8.202 3.254 C 8.067 3.302,7.920 3.472,7.889 3.615 C 7.840 3.845,7.958 4.077,8.178 4.179 C 8.264 4.219,8.345 4.222,9.179 4.223 C 9.831 4.223,10.113 4.215,10.182 4.195 C 10.312 4.156,10.466 3.999,10.501 3.870 C 10.564 3.638,10.468 3.404,10.266 3.290 L 10.162 3.232 9.228 3.226 C 8.470 3.222,8.278 3.227,8.202 3.254 M8.283 5.458 C 7.984 5.521,7.814 5.799,7.899 6.086 C 7.943 6.234,8.074 6.372,8.209 6.413 C 8.272 6.432,8.581 6.440,9.219 6.439 C 10.064 6.439,10.146 6.435,10.232 6.396 C 10.604 6.224,10.624 5.721,10.267 5.510 L 10.162 5.448 9.263 5.444 C 8.769 5.442,8.328 5.448,8.283 5.458 M5.950 8.727 L 5.950 11.014 4.253 11.008 L 2.555 11.002 2.549 9.228 C 2.545 8.253,2.552 7.316,2.563 7.145 C 2.582 6.863,2.590 6.825,2.652 6.726 C 2.751 6.565,2.894 6.485,3.120 6.464 C 3.220 6.454,3.898 6.445,4.626 6.443 L 5.950 6.440 5.950 8.727 M8.147 7.727 C 7.944 7.827,7.832 8.079,7.896 8.290 C 7.942 8.443,8.028 8.548,8.160 8.613 C 8.271 8.668,8.274 8.668,9.170 8.668 C 9.664 8.668,10.106 8.660,10.152 8.650 C 10.262 8.627,10.425 8.485,10.479 8.366 C 10.588 8.127,10.484 7.847,10.238 7.721 C 10.157 7.680,10.091 7.677,9.200 7.677 C 8.272 7.677,8.246 7.678,8.147 7.727 " stroke="none" fill-rule="evenodd" fill="black"></path></svg>