<svg width="15" height="15" viewBox="0 0 15 15" xmlns="http://www.w3.org/2000/svg"><path d="M6.825 1.036 C 5.776 1.171,4.868 1.644,4.075 2.466 C 3.479 3.084,3.145 3.773,3.035 4.610 C 2.965 5.139,3.007 5.376,3.204 5.573 C 3.415 5.784,3.793 5.851,4.068 5.728 C 4.213 5.663,4.384 5.494,4.441 5.359 C 4.461 5.311,4.488 5.145,4.502 4.992 C 4.537 4.589,4.606 4.329,4.761 4.013 C 4.991 3.543,5.292 3.200,5.732 2.906 C 6.826 2.178,8.314 2.208,9.353 2.979 C 10.112 3.542,10.510 4.346,10.469 5.234 C 10.452 5.589,10.381 5.868,10.225 6.191 C 9.889 6.883,9.323 7.368,8.507 7.664 C 7.972 7.857,7.615 8.059,7.340 8.322 C 7.104 8.548,6.943 8.801,6.847 9.097 C 6.780 9.302,6.767 9.386,6.756 9.669 C 6.741 10.056,6.770 10.166,6.929 10.339 C 7.075 10.497,7.241 10.561,7.500 10.562 C 7.682 10.562,7.731 10.552,7.838 10.496 C 8.108 10.352,8.210 10.171,8.237 9.788 C 8.257 9.505,8.284 9.423,8.400 9.291 C 8.512 9.164,8.637 9.096,9.027 8.948 C 9.788 8.661,10.246 8.386,10.738 7.920 C 11.458 7.238,11.909 6.307,11.990 5.337 C 12.009 5.108,11.951 4.578,11.873 4.270 C 11.625 3.287,11.062 2.435,10.300 1.894 C 9.877 1.593,9.273 1.321,8.702 1.176 C 8.113 1.025,7.348 0.968,6.825 1.036 M6.950 11.994 C 6.903 12.018,6.838 12.076,6.807 12.122 C 6.751 12.206,6.750 12.219,6.750 12.975 C 6.750 13.731,6.751 13.744,6.807 13.828 C 6.910 13.983,6.980 14.000,7.500 14.000 C 8.020 14.000,8.090 13.983,8.193 13.828 C 8.249 13.744,8.250 13.731,8.250 12.975 C 8.250 12.219,8.249 12.206,8.193 12.122 C 8.090 11.967,8.020 11.950,7.500 11.950 C 7.110 11.950,7.024 11.957,6.950 11.994 " stroke="none" fill-rule="evenodd" fill="black"></path></svg>