<svg width="14" height="14" viewBox="0 0 14 14" xmlns="http://www.w3.org/2000/svg"><path d="M6.802 1.017 C 6.776 1.024,6.703 1.045,6.640 1.065 C 6.524 1.101,1.756 3.510,1.515 3.654 C 1.364 3.744,1.191 3.920,1.125 4.051 C 0.999 4.298,1.003 4.184,1.003 7.000 C 1.003 9.814,0.999 9.702,1.124 9.948 C 1.182 10.061,1.335 10.228,1.458 10.313 C 1.583 10.399,6.455 12.871,6.623 12.935 C 6.810 13.004,7.190 13.005,7.376 12.935 C 7.546 12.871,12.417 10.399,12.542 10.313 C 12.665 10.228,12.818 10.061,12.876 9.948 C 13.001 9.702,12.997 9.814,12.997 7.000 C 12.997 4.184,13.001 4.298,12.875 4.051 C 12.809 3.920,12.636 3.744,12.485 3.654 C 12.270 3.525,7.488 1.106,7.362 1.062 C 7.248 1.023,6.895 0.994,6.802 1.017 M9.219 3.107 L 11.388 4.207 11.183 4.316 C 11.070 4.376,10.083 4.879,8.989 5.433 L 7.000 6.441 4.807 5.328 C 3.600 4.716,2.618 4.211,2.623 4.206 C 2.663 4.166,6.954 2.008,6.996 2.008 C 7.025 2.007,8.026 2.502,9.219 3.107 M4.258 6.170 L 6.475 7.296 6.481 9.530 L 6.487 11.764 5.804 11.416 C 5.429 11.224,4.421 10.712,3.564 10.277 L 2.007 9.488 2.007 7.264 C 2.007 6.041,2.015 5.041,2.024 5.041 C 2.034 5.042,3.039 5.550,4.258 6.170 M11.993 7.264 L 11.993 9.488 10.436 10.277 C 9.579 10.712,8.571 11.224,8.196 11.416 L 7.513 11.764 7.519 9.530 L 7.525 7.297 9.742 6.170 C 10.961 5.550,11.966 5.042,11.976 5.041 C 11.985 5.041,11.993 6.041,11.993 7.264 " stroke="none" fill-rule="evenodd" fill="black"></path></svg>