<svg width="14" height="14" viewBox="0 0 14 14" xmlns="http://www.w3.org/2000/svg"><path d="M5.779 1.027 C 5.666 1.061,5.550 1.168,5.493 1.292 C 5.400 1.491,5.429 1.668,5.580 1.832 C 5.712 1.975,5.821 2.007,6.187 2.007 L 6.487 2.007 6.487 2.343 L 6.487 2.679 6.283 2.707 C 5.972 2.750,5.492 2.879,5.198 2.999 C 4.519 3.276,4.003 3.626,3.476 4.168 C 3.056 4.599,2.807 4.954,2.542 5.495 C 2.177 6.241,2.007 6.979,2.007 7.817 C 2.007 9.216,2.513 10.486,3.465 11.477 C 5.413 13.504,8.585 13.504,10.535 11.477 C 11.345 10.636,11.836 9.576,11.972 8.379 C 12.006 8.075,11.987 7.274,11.939 7.000 C 11.772 6.048,11.397 5.202,10.833 4.502 C 10.626 4.246,10.123 3.768,9.875 3.593 C 9.210 3.123,8.504 2.829,7.771 2.716 L 7.513 2.677 7.513 2.342 L 7.513 2.007 7.813 2.007 C 8.179 2.007,8.288 1.975,8.420 1.832 C 8.514 1.730,8.563 1.610,8.563 1.480 C 8.563 1.363,8.448 1.164,8.334 1.085 L 8.233 1.015 7.039 1.011 C 6.382 1.008,5.815 1.016,5.779 1.027 M3.232 2.173 C 3.154 2.194,3.061 2.277,2.666 2.680 C 2.379 2.972,2.174 3.201,2.144 3.262 C 2.074 3.404,2.089 3.623,2.176 3.748 C 2.278 3.893,2.385 3.953,2.564 3.962 C 2.691 3.969,2.736 3.961,2.818 3.916 C 2.942 3.848,3.798 2.958,3.844 2.849 C 3.892 2.735,3.885 2.542,3.831 2.435 C 3.720 2.218,3.473 2.111,3.232 2.173 M10.500 2.167 C 10.258 2.246,10.123 2.418,10.123 2.647 C 10.123 2.715,10.138 2.806,10.156 2.849 C 10.202 2.958,11.058 3.848,11.182 3.916 C 11.319 3.990,11.550 3.981,11.675 3.896 C 11.865 3.768,11.949 3.520,11.876 3.301 C 11.840 3.192,10.963 2.266,10.841 2.208 C 10.743 2.161,10.579 2.142,10.500 2.167 M7.828 3.743 C 8.475 3.892,9.028 4.170,9.540 4.604 C 10.167 5.136,10.657 5.927,10.858 6.732 C 10.964 7.159,10.978 7.290,10.978 7.840 C 10.978 8.295,10.970 8.401,10.924 8.633 C 10.659 9.948,9.854 11.026,8.715 11.593 C 8.424 11.738,8.161 11.830,7.803 11.915 C 7.541 11.977,7.494 11.980,7.000 11.980 C 6.506 11.980,6.459 11.977,6.197 11.915 C 5.839 11.830,5.576 11.737,5.285 11.593 C 4.143 11.024,3.341 9.951,3.076 8.633 C 3.030 8.401,3.022 8.295,3.022 7.840 C 3.022 7.290,3.036 7.159,3.142 6.732 C 3.510 5.254,4.709 4.069,6.160 3.748 C 6.526 3.668,6.528 3.668,7.070 3.674 C 7.497 3.678,7.578 3.686,7.828 3.743 M6.770 5.182 C 6.641 5.248,6.543 5.383,6.510 5.540 C 6.493 5.623,6.487 6.036,6.491 6.793 C 6.498 7.820,6.502 7.930,6.540 8.015 C 6.563 8.066,6.605 8.132,6.634 8.162 C 6.686 8.219,8.032 9.067,8.150 9.118 C 8.317 9.191,8.564 9.127,8.695 8.977 C 8.791 8.868,8.828 8.751,8.815 8.595 C 8.797 8.375,8.742 8.323,8.097 7.921 L 7.525 7.564 7.513 6.540 L 7.502 5.517 7.442 5.401 C 7.354 5.230,7.226 5.148,7.028 5.139 C 6.902 5.132,6.852 5.141,6.770 5.182 " stroke="none" fill-rule="evenodd" fill="black"></path></svg>