<svg width="14" height="14" viewBox="0 0 14 14" xmlns="http://www.w3.org/2000/svg"><path d="M4.352 1.048 C 4.300 1.071,4.230 1.121,4.195 1.158 C 4.080 1.281,4.060 1.367,4.060 1.746 L 4.060 2.093 3.599 2.109 C 2.891 2.134,2.564 2.194,2.229 2.362 C 1.976 2.488,1.782 2.633,1.583 2.843 C 1.292 3.151,1.162 3.394,1.066 3.814 C 1.018 4.022,1.017 4.077,1.009 7.373 C 1.000 10.779,1.005 11.047,1.087 11.375 C 1.213 11.880,1.510 12.284,1.992 12.607 C 2.297 12.812,2.662 12.928,3.138 12.973 C 3.489 13.005,10.511 13.005,10.862 12.973 C 11.591 12.904,12.069 12.669,12.513 12.159 C 12.669 11.980,12.857 11.614,12.912 11.385 C 12.994 11.040,12.999 10.760,12.991 7.362 C 12.983 4.077,12.982 4.022,12.934 3.814 C 12.838 3.394,12.708 3.151,12.417 2.843 C 12.218 2.633,12.024 2.488,11.771 2.362 C 11.436 2.194,11.109 2.134,10.401 2.109 L 9.940 2.093 9.940 1.746 C 9.940 1.367,9.920 1.281,9.805 1.158 C 9.585 0.924,9.188 0.969,9.018 1.246 C 8.949 1.359,8.948 1.367,8.940 1.731 L 8.933 2.100 7.000 2.100 L 5.067 2.100 5.060 1.731 C 5.052 1.367,5.051 1.360,4.981 1.247 C 4.850 1.035,4.571 0.946,4.352 1.048 M4.061 3.459 C 4.061 3.864,4.084 3.948,4.231 4.077 C 4.460 4.278,4.830 4.215,4.987 3.949 C 5.049 3.843,5.052 3.824,5.060 3.471 L 5.067 3.103 7.000 3.103 L 8.933 3.103 8.940 3.471 C 8.948 3.824,8.951 3.843,9.013 3.949 C 9.170 4.215,9.540 4.278,9.769 4.077 C 9.916 3.948,9.939 3.864,9.939 3.459 L 9.940 3.103 10.214 3.104 C 10.564 3.104,10.962 3.139,11.142 3.186 C 11.323 3.233,11.502 3.340,11.667 3.500 C 11.937 3.762,11.971 3.893,11.987 4.754 L 11.999 5.413 7.000 5.413 L 2.001 5.413 2.013 4.754 C 2.026 4.077,2.043 3.933,2.134 3.757 C 2.254 3.523,2.557 3.276,2.822 3.195 C 3.005 3.140,3.304 3.111,3.739 3.107 L 4.060 3.103 4.061 3.459 M11.987 8.697 C 11.978 11.185,11.982 11.115,11.854 11.363 C 11.773 11.520,11.536 11.740,11.345 11.836 C 11.041 11.988,11.226 11.982,7.000 11.982 C 3.874 11.982,3.130 11.976,2.991 11.950 C 2.753 11.906,2.522 11.784,2.342 11.608 C 2.144 11.414,2.064 11.242,2.031 10.938 C 2.016 10.796,2.007 9.909,2.007 8.553 L 2.007 6.393 7.001 6.393 L 11.995 6.393 11.987 8.697 M6.860 7.075 C 6.815 7.088,6.542 7.241,6.254 7.417 C 5.701 7.752,5.649 7.798,5.598 7.989 C 5.542 8.194,5.660 8.439,5.865 8.545 C 6.011 8.621,6.169 8.614,6.345 8.523 L 6.487 8.450 6.487 9.125 L 6.487 9.800 6.329 9.800 C 6.126 9.800,6.029 9.828,5.918 9.920 C 5.619 10.167,5.719 10.666,6.088 10.777 C 6.211 10.813,7.789 10.813,7.912 10.777 C 8.281 10.666,8.381 10.167,8.082 9.920 C 7.971 9.829,7.874 9.800,7.672 9.800 L 7.516 9.800 7.509 8.616 C 7.502 7.444,7.501 7.431,7.450 7.335 C 7.383 7.209,7.253 7.104,7.127 7.072 C 7.010 7.043,6.972 7.043,6.860 7.075 " stroke="none" fill-rule="evenodd" fill="black"></path></svg>