<svg width="16" height="16" viewBox="0 0 16 16" fill="none" xmlns="http://www.w3.org/2000/svg"><path d="M3.449 1.053 C 3.174 1.103,2.930 1.188,2.636 1.338 C 1.785 1.771,1.213 2.552,1.036 3.520 C 0.983 3.816,0.983 12.184,1.036 12.480 C 1.272 13.774,2.226 14.728,3.520 14.964 C 3.816 15.017,12.184 15.017,12.480 14.964 C 13.774 14.728,14.728 13.774,14.964 12.480 C 15.017 12.184,15.017 3.816,14.964 3.520 C 14.733 2.250,13.766 1.268,12.537 1.052 C 12.224 0.998,3.751 0.998,3.449 1.053 M12.504 2.059 C 13.098 2.243,13.550 2.626,13.803 3.160 C 14.011 3.600,14.000 3.329,14.000 8.000 C 14.000 12.648,14.010 12.399,13.811 12.825 C 13.528 13.429,13.034 13.822,12.385 13.960 C 12.109 14.018,3.893 14.019,3.617 13.960 C 3.124 13.856,2.754 13.630,2.442 13.243 C 2.296 13.061,2.105 12.677,2.050 12.453 C 1.996 12.236,1.996 3.764,2.050 3.547 C 2.106 3.320,2.297 2.938,2.447 2.751 C 2.745 2.382,3.211 2.105,3.669 2.028 C 3.741 2.016,5.726 2.008,8.080 2.010 C 12.001 2.014,12.372 2.018,12.504 2.059 M7.591 8.533 C 6.809 8.675,6.119 9.181,5.774 9.867 C 5.276 10.855,5.474 12.022,6.273 12.802 C 6.577 13.100,6.948 13.304,7.422 13.434 C 7.654 13.498,8.346 13.498,8.578 13.434 C 9.051 13.304,9.407 13.107,9.725 12.801 C 10.977 11.596,10.662 9.545,9.105 8.764 C 8.772 8.597,8.490 8.530,8.080 8.519 C 7.882 8.514,7.662 8.520,7.591 8.533 M8.467 9.579 C 8.906 9.723,9.298 10.121,9.434 10.560 C 9.497 10.761,9.497 11.239,9.434 11.440 C 9.376 11.629,9.219 11.886,9.067 12.044 C 8.485 12.647,7.515 12.647,6.933 12.044 C 6.781 11.886,6.624 11.629,6.566 11.440 C 6.503 11.239,6.503 10.761,6.566 10.560 C 6.694 10.145,7.054 9.763,7.472 9.598 C 7.755 9.486,8.161 9.478,8.467 9.579 " fill="#000000" stroke="none" fill-rule="evenodd"></path></svg>