<svg width="16" height="16" viewBox="0 0 16 16" fill="none" xmlns="http://www.w3.org/2000/svg"><path d="M3.449 1.053 C 3.174 1.103,2.930 1.188,2.636 1.338 C 1.785 1.771,1.213 2.552,1.036 3.520 C 0.983 3.816,0.983 12.184,1.036 12.480 C 1.272 13.774,2.226 14.728,3.520 14.964 C 3.816 15.017,12.184 15.017,12.480 14.964 C 13.774 14.728,14.728 13.774,14.964 12.480 C 15.017 12.184,15.017 3.816,14.964 3.520 C 14.733 2.250,13.766 1.268,12.537 1.052 C 12.224 0.998,3.751 0.998,3.449 1.053 M12.504 2.059 C 13.098 2.243,13.550 2.626,13.803 3.160 C 14.011 3.600,14.000 3.329,14.000 8.000 C 14.000 12.648,14.010 12.399,13.811 12.825 C 13.528 13.429,13.034 13.822,12.385 13.960 C 12.109 14.018,3.893 14.019,3.617 13.960 C 3.124 13.856,2.754 13.630,2.442 13.243 C 2.296 13.061,2.105 12.677,2.050 12.453 C 1.996 12.236,1.996 3.764,2.050 3.547 C 2.106 3.320,2.297 2.938,2.447 2.751 C 2.745 2.382,3.211 2.105,3.669 2.028 C 3.741 2.016,5.726 2.008,8.080 2.010 C 12.001 2.014,12.372 2.018,12.504 2.059 M4.480 8.558 C 3.588 8.747,2.869 9.414,2.597 10.307 C 2.530 10.526,2.523 10.585,2.522 10.987 C 2.520 11.369,2.528 11.454,2.581 11.637 C 2.793 12.368,3.252 12.924,3.907 13.241 C 4.313 13.438,4.504 13.480,5.000 13.480 C 5.496 13.480,5.687 13.438,6.093 13.241 C 6.748 12.923,7.207 12.368,7.419 11.637 C 7.471 11.457,7.480 11.365,7.480 11.000 C 7.480 10.635,7.471 10.543,7.419 10.363 C 7.093 9.237,6.130 8.503,4.987 8.509 C 4.825 8.510,4.611 8.531,4.480 8.558 M5.413 9.565 C 5.893 9.696,6.298 10.104,6.441 10.599 C 6.502 10.810,6.502 11.190,6.441 11.401 C 6.285 11.941,5.844 12.351,5.293 12.467 C 5.059 12.516,4.941 12.516,4.707 12.467 C 4.156 12.351,3.715 11.941,3.558 11.400 C 3.493 11.174,3.499 10.786,3.571 10.560 C 3.821 9.776,4.616 9.346,5.413 9.565 " fill="#000000" stroke="none" fill-rule="evenodd"></path></svg>