<svg width="14" height="14" viewBox="0 0 14 14" xmlns="http://www.w3.org/2000/svg"><path d="M4.463 2.042 C 4.056 2.130,3.743 2.478,3.715 2.871 C 3.699 3.095,3.750 3.244,4.144 4.119 L 4.480 4.866 4.480 5.385 L 4.480 5.905 3.972 6.470 C 3.191 7.338,3.129 7.417,3.044 7.654 C 2.993 7.798,2.998 8.032,3.055 8.198 C 3.167 8.520,3.418 8.734,3.777 8.810 C 3.899 8.836,4.201 8.843,5.208 8.843 L 6.485 8.843 6.492 10.226 L 6.498 11.610 6.558 11.725 C 6.594 11.796,6.657 11.869,6.717 11.911 C 6.808 11.975,6.835 11.982,7.000 11.982 C 7.165 11.982,7.192 11.975,7.283 11.911 C 7.343 11.869,7.406 11.796,7.442 11.725 L 7.502 11.610 7.509 10.226 L 7.515 8.843 8.792 8.843 C 9.799 8.843,10.101 8.836,10.223 8.810 C 10.582 8.734,10.833 8.520,10.945 8.198 C 11.002 8.032,11.007 7.798,10.956 7.654 C 10.871 7.417,10.809 7.338,10.028 6.470 L 9.520 5.905 9.520 5.385 L 9.520 4.864 9.820 4.200 C 10.273 3.194,10.306 3.096,10.284 2.844 C 10.259 2.576,10.054 2.275,9.801 2.138 C 9.560 2.006,9.578 2.007,6.988 2.009 C 5.075 2.010,4.580 2.017,4.463 2.042 M9.240 3.029 C 9.240 3.039,9.089 3.383,8.905 3.793 C 8.720 4.203,8.557 4.594,8.543 4.662 C 8.508 4.826,8.508 5.954,8.543 6.118 C 8.583 6.309,8.666 6.450,8.875 6.682 C 8.981 6.799,9.255 7.105,9.486 7.362 L 9.904 7.828 9.776 7.844 C 9.609 7.863,4.391 7.863,4.224 7.844 L 4.096 7.828 4.315 7.583 C 4.436 7.449,4.704 7.151,4.910 6.923 C 5.486 6.284,5.483 6.291,5.483 5.398 C 5.483 5.029,5.473 4.736,5.457 4.662 C 5.442 4.594,5.280 4.203,5.095 3.792 C 4.911 3.382,4.760 3.038,4.760 3.028 C 4.760 3.018,5.768 3.010,7.000 3.010 C 8.232 3.010,9.240 3.018,9.240 3.029 " stroke="none" fill-rule="evenodd" fill="black"></path></svg>