<svg width="14" height="14" viewBox="0 0 14 14" xmlns="http://www.w3.org/2000/svg"><path d="M3.780 2.033 C 3.242 2.090,2.789 2.327,2.462 2.723 C 2.221 3.015,2.083 3.354,2.031 3.779 C 1.998 4.050,1.998 9.950,2.031 10.221 C 2.099 10.778,2.327 11.211,2.724 11.539 C 3.015 11.779,3.354 11.917,3.779 11.969 C 4.050 12.002,9.950 12.002,10.221 11.969 C 10.917 11.884,11.456 11.525,11.758 10.944 C 11.966 10.544,11.993 10.314,11.993 8.947 L 11.993 7.871 11.940 7.768 C 11.906 7.705,11.842 7.636,11.774 7.589 C 11.676 7.523,11.642 7.513,11.511 7.513 C 11.288 7.513,11.150 7.596,11.045 7.793 C 11.005 7.869,11.001 7.962,10.988 9.042 C 10.974 10.302,10.974 10.306,10.841 10.532 C 10.766 10.661,10.581 10.829,10.443 10.893 C 10.216 11.000,10.174 11.002,7.000 11.002 C 3.823 11.002,3.784 11.000,3.555 10.893 C 3.403 10.821,3.216 10.640,3.132 10.484 C 3.084 10.393,3.052 10.288,3.035 10.166 C 3.000 9.913,3.000 4.087,3.035 3.836 C 3.049 3.734,3.086 3.604,3.119 3.539 C 3.232 3.315,3.473 3.115,3.707 3.050 C 3.755 3.037,4.298 3.021,4.958 3.013 C 6.094 2.999,6.127 2.997,6.218 2.948 C 6.400 2.850,6.494 2.695,6.494 2.494 C 6.494 2.329,6.410 2.174,6.271 2.082 L 6.175 2.018 5.077 2.015 C 4.473 2.014,3.889 2.022,3.780 2.033 M8.295 2.051 C 7.981 2.196,7.906 2.599,8.146 2.847 C 8.298 3.003,8.351 3.010,9.378 3.010 L 10.278 3.010 8.420 4.871 C 6.916 6.377,6.556 6.749,6.533 6.822 C 6.487 6.968,6.513 7.170,6.593 7.284 C 6.724 7.470,6.989 7.543,7.205 7.454 C 7.266 7.429,7.845 6.865,9.141 5.570 L 10.990 3.722 10.990 4.622 C 10.990 5.649,10.997 5.702,11.153 5.854 C 11.406 6.099,11.821 6.013,11.957 5.688 C 11.989 5.613,11.993 5.394,11.993 3.992 C 11.993 3.053,11.984 2.359,11.972 2.326 C 11.936 2.233,11.802 2.096,11.702 2.050 C 11.614 2.010,11.506 2.008,9.998 2.008 C 8.480 2.008,8.383 2.010,8.295 2.051 " stroke="none" fill-rule="evenodd" fill="black"></path></svg>