<svg width="14" height="14" viewBox="0 0 14 14" xmlns="http://www.w3.org/2000/svg"><path d="M5.343 1.016 C 5.324 1.019,5.230 1.035,5.133 1.051 C 4.610 1.136,4.062 1.436,3.668 1.853 C 2.817 2.752,2.684 4.112,3.342 5.176 C 3.488 5.412,3.883 5.825,4.104 5.973 C 4.606 6.309,5.124 6.456,5.728 6.433 C 6.444 6.407,7.053 6.135,7.549 5.620 C 7.874 5.283,8.063 4.966,8.201 4.527 C 8.447 3.743,8.325 2.909,7.864 2.212 C 7.689 1.947,7.389 1.639,7.143 1.472 C 6.814 1.249,6.387 1.085,5.985 1.027 C 5.837 1.006,5.429 0.999,5.343 1.016 M8.713 1.211 C 8.476 1.318,8.360 1.622,8.467 1.855 C 8.528 1.987,8.618 2.068,8.807 2.160 C 9.272 2.388,9.595 2.770,9.734 3.256 C 9.808 3.517,9.808 3.925,9.735 4.184 C 9.597 4.667,9.280 5.050,8.832 5.276 C 8.613 5.386,8.527 5.460,8.468 5.588 C 8.322 5.903,8.566 6.275,8.920 6.276 C 9.156 6.277,9.624 6.011,9.959 5.684 C 10.364 5.290,10.598 4.877,10.735 4.317 C 10.811 4.002,10.812 3.444,10.737 3.138 C 10.607 2.608,10.400 2.219,10.057 1.857 C 9.829 1.617,9.564 1.421,9.277 1.280 C 9.015 1.152,8.880 1.135,8.713 1.211 M5.985 2.042 C 6.332 2.114,6.740 2.376,6.966 2.670 C 7.206 2.983,7.311 3.304,7.311 3.722 C 7.311 4.041,7.275 4.211,7.151 4.471 C 6.990 4.806,6.689 5.113,6.361 5.273 C 5.987 5.456,5.486 5.488,5.089 5.354 C 4.544 5.170,4.132 4.716,3.977 4.130 C 3.924 3.926,3.924 3.517,3.977 3.313 C 4.158 2.628,4.647 2.169,5.355 2.022 C 5.466 1.999,5.835 2.010,5.985 2.042 M3.435 7.701 C 3.058 7.739,2.784 7.812,2.511 7.949 C 1.864 8.273,1.357 8.857,1.146 9.522 C 1.045 9.837,1.022 10.059,1.009 10.829 C 0.996 11.637,1.001 11.680,1.126 11.822 C 1.240 11.951,1.358 12.000,1.532 11.989 C 1.712 11.977,1.849 11.892,1.937 11.736 C 1.994 11.633,1.995 11.624,2.010 10.897 C 2.026 10.129,2.049 9.921,2.143 9.703 C 2.352 9.219,2.840 8.811,3.316 8.723 C 3.453 8.698,3.923 8.692,5.623 8.692 C 8.034 8.692,7.966 8.687,8.315 8.861 C 8.492 8.949,8.564 9.002,8.739 9.179 C 8.905 9.347,8.970 9.433,9.049 9.590 C 9.201 9.895,9.218 10.007,9.236 10.873 L 9.252 11.632 9.317 11.743 C 9.409 11.900,9.535 11.977,9.717 11.989 C 9.881 11.999,9.999 11.954,10.107 11.838 C 10.240 11.694,10.243 11.676,10.243 10.995 C 10.243 10.291,10.217 9.958,10.138 9.644 C 9.930 8.826,9.244 8.093,8.428 7.818 C 8.058 7.693,8.015 7.691,5.740 7.686 C 4.579 7.684,3.541 7.690,3.435 7.701 M10.621 7.796 C 10.365 7.923,10.277 8.258,10.433 8.510 C 10.497 8.614,10.586 8.672,10.779 8.738 C 11.079 8.840,11.266 8.956,11.480 9.170 C 11.707 9.397,11.805 9.551,11.908 9.841 L 11.980 10.045 11.993 10.838 C 12.005 11.631,12.005 11.632,12.063 11.736 C 12.231 12.034,12.638 12.082,12.865 11.830 C 12.997 11.684,13.002 11.647,12.991 10.757 C 12.982 9.975,12.980 9.945,12.920 9.723 C 12.713 8.952,12.229 8.339,11.542 7.979 C 11.115 7.755,10.823 7.697,10.621 7.796 " stroke="none" fill-rule="evenodd" fill="black"></path></svg>