<svg width="14" height="14" viewBox="0 0 14 14" xmlns="http://www.w3.org/2000/svg"><path d="M3.202 1.028 C 2.549 1.079,2.131 1.259,1.714 1.668 C 1.406 1.971,1.250 2.217,1.137 2.578 C 1.013 2.977,1.015 2.889,1.015 7.000 C 1.015 11.111,1.013 11.023,1.137 11.422 C 1.346 12.091,1.911 12.656,2.578 12.863 C 2.978 12.987,2.891 12.985,7.000 12.985 C 11.109 12.985,11.022 12.987,11.422 12.863 C 12.075 12.660,12.641 12.103,12.855 11.451 C 12.984 11.061,12.980 11.149,12.990 7.910 C 12.998 5.225,12.995 4.892,12.961 4.726 C 12.917 4.510,12.840 4.311,12.736 4.144 C 12.650 4.006,10.161 1.496,9.957 1.342 C 9.805 1.226,9.591 1.119,9.389 1.058 C 9.261 1.019,9.062 1.016,6.347 1.013 C 4.749 1.011,3.334 1.018,3.202 1.028 M3.436 3.051 C 3.450 4.184,3.456 4.246,3.588 4.487 C 3.722 4.734,4.005 4.948,4.293 5.020 C 4.483 5.067,9.517 5.067,9.707 5.020 C 9.895 4.973,10.098 4.858,10.232 4.722 C 10.450 4.500,10.544 4.252,10.550 3.886 C 10.551 3.770,10.559 3.598,10.567 3.504 L 10.582 3.332 11.237 3.994 C 11.833 4.595,11.897 4.667,11.943 4.790 L 11.993 4.925 11.993 7.722 C 11.993 10.510,11.985 10.862,11.912 11.119 C 11.840 11.370,11.569 11.694,11.317 11.828 C 11.171 11.906,10.972 11.957,10.730 11.980 L 10.574 11.994 10.564 10.040 C 10.555 8.417,10.547 8.063,10.519 7.955 C 10.409 7.539,10.098 7.237,9.690 7.151 C 9.455 7.101,4.545 7.101,4.310 7.151 C 3.902 7.237,3.591 7.539,3.481 7.955 C 3.452 8.063,3.445 8.413,3.436 10.040 L 3.426 11.994 3.271 11.980 C 2.768 11.933,2.458 11.758,2.215 11.382 C 2.100 11.204,2.060 11.069,2.031 10.768 C 2.000 10.456,2.000 3.544,2.031 3.232 C 2.060 2.932,2.100 2.796,2.213 2.622 C 2.329 2.443,2.443 2.329,2.622 2.213 C 2.789 2.105,2.929 2.061,3.197 2.033 C 3.306 2.022,3.401 2.011,3.409 2.010 C 3.417 2.008,3.429 2.477,3.436 3.051 M9.191 2.050 C 9.255 2.074,9.360 2.139,9.425 2.194 L 9.543 2.294 9.543 3.153 C 9.543 3.978,9.542 4.013,9.498 4.036 C 9.435 4.069,4.565 4.069,4.502 4.036 C 4.458 4.013,4.457 3.976,4.457 3.009 L 4.457 2.007 6.766 2.007 C 8.968 2.007,9.082 2.009,9.191 2.050 M9.515 8.148 C 9.537 8.169,9.543 8.631,9.543 10.085 L 9.543 11.993 7.000 11.993 L 4.457 11.993 4.457 10.085 C 4.457 8.631,4.463 8.169,4.485 8.148 C 4.525 8.107,9.475 8.107,9.515 8.148 " stroke="none" fill-rule="evenodd" fill="black"></path></svg>