<svg width="15" height="15" viewBox="0 0 15 15" xmlns="http://www.w3.org/2000/svg"><path d="M7.313 1.022 C 7.115 1.074,6.933 1.214,6.808 1.409 C 6.774 1.462,6.399 2.244,5.974 3.147 C 5.350 4.473,5.191 4.791,5.145 4.807 C 5.113 4.818,4.323 4.944,3.388 5.087 C 2.453 5.230,1.648 5.359,1.600 5.373 C 1.113 5.516,0.866 6.062,1.085 6.510 C 1.168 6.678,1.351 6.875,2.785 8.335 L 3.782 9.351 3.504 11.057 C 3.351 11.995,3.213 12.847,3.197 12.949 C 3.144 13.308,3.218 13.565,3.434 13.770 C 3.662 13.985,3.923 14.046,4.221 13.953 C 4.305 13.927,5.053 13.531,5.919 13.053 C 6.770 12.584,7.481 12.200,7.500 12.200 C 7.519 12.200,8.230 12.584,9.081 13.053 C 9.947 13.531,10.695 13.927,10.779 13.953 C 10.862 13.979,10.979 14.000,11.039 14.000 C 11.310 14.000,11.636 13.780,11.753 13.518 C 11.856 13.284,11.841 13.133,11.514 11.144 L 11.218 9.350 12.215 8.335 C 13.591 6.935,13.835 6.673,13.914 6.513 C 14.134 6.063,13.887 5.515,13.400 5.373 C 13.352 5.359,12.547 5.231,11.613 5.087 C 10.678 4.944,9.887 4.818,9.855 4.807 C 9.809 4.791,9.650 4.473,9.026 3.147 C 8.601 2.244,8.226 1.462,8.192 1.409 C 8.033 1.161,7.819 1.028,7.554 1.012 C 7.462 1.006,7.354 1.011,7.313 1.022 M7.937 3.182 C 8.892 5.223,8.995 5.431,9.104 5.541 C 9.298 5.739,9.324 5.746,11.150 6.025 C 12.064 6.166,12.814 6.282,12.816 6.284 C 12.818 6.286,12.269 6.850,11.596 7.538 C 10.201 8.963,10.211 8.950,10.216 9.299 C 10.218 9.447,10.699 12.496,10.764 12.772 C 10.775 12.821,10.770 12.828,10.733 12.814 C 10.708 12.805,10.064 12.453,9.301 12.032 C 8.539 11.612,7.864 11.245,7.801 11.216 C 7.719 11.179,7.634 11.165,7.497 11.164 C 7.261 11.163,7.324 11.132,5.563 12.108 C 4.834 12.511,4.235 12.840,4.233 12.839 C 4.230 12.838,4.358 12.049,4.515 11.087 C 4.738 9.730,4.799 9.308,4.787 9.207 C 4.754 8.924,4.717 8.880,3.404 7.538 C 2.731 6.850,2.182 6.286,2.184 6.284 C 2.186 6.282,2.936 6.166,3.850 6.025 C 5.676 5.746,5.702 5.739,5.896 5.541 C 6.005 5.431,6.108 5.223,7.063 3.182 C 7.297 2.684,7.493 2.276,7.500 2.276 C 7.507 2.276,7.703 2.684,7.937 3.182 " stroke="none" fill-rule="evenodd" fill="black"></path></svg>