<svg width="16" height="16" viewBox="0 0 16 16" xmlns="http://www.w3.org/2000/svg"><path d="M7.811 0.061 C 7.762 0.094,7.688 0.170,7.649 0.229 C 7.609 0.289,7.106 1.338,6.531 2.562 C 5.956 3.786,5.457 4.826,5.421 4.873 C 5.386 4.921,5.322 4.978,5.279 5.000 C 5.235 5.023,4.244 5.187,2.941 5.387 C 1.697 5.577,0.592 5.750,0.485 5.772 C 0.138 5.841,0.013 5.957,0.013 6.211 C 0.013 6.350,0.024 6.378,0.125 6.509 C 0.186 6.588,1.000 7.433,1.934 8.387 C 2.867 9.340,3.649 10.155,3.672 10.197 C 3.694 10.239,3.711 10.330,3.711 10.398 C 3.710 10.466,3.533 11.595,3.317 12.908 C 2.898 15.458,2.872 15.682,2.973 15.818 C 3.060 15.935,3.215 16.009,3.337 15.992 C 3.477 15.973,3.595 15.911,5.893 14.643 C 7.692 13.650,7.890 13.547,8.000 13.547 C 8.110 13.547,8.308 13.650,10.107 14.643 C 12.405 15.911,12.523 15.973,12.663 15.992 C 12.785 16.009,12.940 15.935,13.027 15.818 C 13.129 15.682,13.102 15.458,12.682 12.907 C 12.465 11.594,12.287 10.466,12.286 10.400 C 12.285 10.334,12.303 10.244,12.326 10.200 C 12.350 10.156,13.133 9.340,14.066 8.387 C 15.000 7.433,15.814 6.588,15.875 6.509 C 15.976 6.378,15.987 6.350,15.987 6.211 C 15.987 6.098,15.972 6.037,15.932 5.982 C 15.808 5.811,15.803 5.810,13.215 5.412 C 11.839 5.200,10.764 5.023,10.720 5.000 C 10.677 4.978,10.614 4.921,10.579 4.873 C 10.543 4.826,10.044 3.786,9.469 2.562 C 8.894 1.338,8.391 0.289,8.351 0.229 C 8.202 0.006,7.990 -0.060,7.811 0.061 " stroke="none" fill-rule="evenodd" fill="black"></path></svg>