<svg width="14" height="14" viewBox="0 0 14 14" xmlns="http://www.w3.org/2000/svg"><path d="M4.047 1.027 C 3.398 1.082,3.000 1.265,2.586 1.698 C 2.292 2.006,2.124 2.346,2.048 2.784 C 2.005 3.028,2.005 10.972,2.048 11.216 C 2.124 11.654,2.292 11.994,2.586 12.302 C 2.987 12.721,3.383 12.909,4.001 12.971 C 4.351 13.006,9.649 13.006,9.999 12.971 C 10.617 12.909,11.013 12.721,11.414 12.302 C 11.708 11.994,11.876 11.654,11.952 11.216 C 11.995 10.972,11.995 3.028,11.952 2.784 C 11.876 2.346,11.708 2.006,11.414 1.698 C 11.065 1.333,10.746 1.158,10.243 1.058 C 10.064 1.023,9.762 1.018,7.152 1.014 C 5.560 1.011,4.163 1.017,4.047 1.027 M10.127 2.051 C 10.408 2.116,10.719 2.351,10.854 2.602 C 10.982 2.843,10.978 2.699,10.978 7.000 C 10.978 11.301,10.982 11.157,10.854 11.398 C 10.769 11.557,10.538 11.782,10.383 11.857 C 10.120 11.984,10.189 11.982,7.000 11.982 C 3.811 11.982,3.880 11.984,3.617 11.857 C 3.462 11.782,3.231 11.557,3.146 11.398 C 3.018 11.157,3.022 11.301,3.022 7.000 C 3.022 2.699,3.018 2.842,3.146 2.603 C 3.180 2.539,3.266 2.428,3.337 2.357 C 3.543 2.148,3.745 2.063,4.130 2.022 C 4.175 2.017,5.514 2.015,7.105 2.018 C 9.328 2.021,10.028 2.029,10.127 2.051 M4.537 3.801 C 4.377 3.873,4.246 4.075,4.247 4.249 C 4.247 4.452,4.408 4.667,4.604 4.725 C 4.781 4.778,9.219 4.778,9.396 4.725 C 9.592 4.667,9.753 4.452,9.753 4.249 C 9.754 4.075,9.623 3.873,9.463 3.801 C 9.373 3.760,9.254 3.758,7.000 3.758 C 4.746 3.758,4.627 3.760,4.537 3.801 M4.578 5.985 C 4.435 6.048,4.358 6.120,4.299 6.248 C 4.187 6.493,4.281 6.761,4.524 6.888 L 4.649 6.953 6.413 6.953 C 7.632 6.953,8.207 6.945,8.272 6.927 C 8.413 6.888,8.573 6.716,8.609 6.564 C 8.663 6.333,8.543 6.096,8.318 5.994 C 8.231 5.954,8.120 5.951,6.440 5.951 C 4.938 5.952,4.643 5.957,4.578 5.985 M4.596 8.178 C 4.484 8.214,4.358 8.320,4.304 8.425 C 4.179 8.667,4.286 8.978,4.534 9.098 C 4.629 9.144,4.672 9.147,5.310 9.146 C 6.067 9.146,6.103 9.139,6.245 8.977 C 6.454 8.739,6.395 8.382,6.120 8.220 L 6.008 8.155 5.355 8.150 C 4.842 8.146,4.679 8.152,4.596 8.178 " stroke="none" fill-rule="evenodd" fill="black"></path></svg>