<svg width="15" height="15" viewBox="0 0 15 15" xmlns="http://www.w3.org/2000/svg"><path d="M2.541 2.027 C 2.114 2.072,1.809 2.214,1.525 2.500 C 1.222 2.805,1.082 3.099,1.028 3.539 C 0.990 3.845,0.989 11.104,1.027 11.441 C 1.073 11.857,1.205 12.158,1.470 12.451 C 1.739 12.749,2.099 12.924,2.552 12.976 C 2.715 12.994,4.288 13.000,7.663 12.995 L 12.538 12.987 12.730 12.932 C 12.982 12.861,13.167 12.768,13.343 12.627 C 13.642 12.386,13.853 12.045,13.941 11.663 C 13.985 11.473,13.988 11.259,13.988 7.500 C 13.988 3.715,13.985 3.529,13.941 3.338 C 13.820 2.822,13.509 2.419,13.063 2.198 C 12.724 2.031,12.641 2.020,11.498 2.007 C 9.489 1.983,8.934 2.070,8.288 2.509 C 8.095 2.639,7.740 2.981,7.612 3.160 C 7.557 3.236,7.507 3.299,7.500 3.299 C 7.493 3.299,7.443 3.236,7.388 3.160 C 7.260 2.981,6.905 2.639,6.712 2.509 C 6.246 2.192,5.836 2.073,5.038 2.025 C 4.563 1.996,2.822 1.998,2.541 2.027 M5.350 3.048 C 5.653 3.092,5.826 3.145,6.024 3.257 C 6.355 3.444,6.691 3.834,6.835 4.200 C 6.985 4.579,7.000 4.977,7.000 8.745 L 7.000 12.002 4.769 11.995 C 2.271 11.987,2.443 12.000,2.242 11.805 C 2.105 11.673,2.051 11.552,2.024 11.317 C 1.993 11.045,1.993 3.954,2.024 3.682 C 2.051 3.450,2.091 3.354,2.222 3.217 C 2.341 3.091,2.422 3.051,2.608 3.025 C 2.820 2.995,5.117 3.015,5.350 3.048 M12.534 3.048 C 12.653 3.086,12.838 3.253,12.903 3.382 C 12.930 3.435,12.963 3.570,12.976 3.683 C 12.990 3.802,13.000 5.402,13.000 7.500 C 13.000 9.598,12.990 11.198,12.976 11.317 C 12.949 11.552,12.895 11.673,12.758 11.805 C 12.557 12.000,12.729 11.987,10.230 11.995 L 7.997 12.002 8.007 8.457 C 8.017 4.841,8.020 4.738,8.114 4.364 C 8.230 3.904,8.612 3.439,9.058 3.215 C 9.417 3.035,9.772 3.003,11.338 3.011 C 12.129 3.015,12.465 3.026,12.534 3.048 " stroke="none" fill-rule="evenodd" fill="black"></path></svg>