<svg width="14" height="14" viewBox="0 0 14 14" xmlns="http://www.w3.org/2000/svg"><path d="M6.778 0.031 C 6.602 0.089,0.251 3.296,0.169 3.369 C -0.037 3.549,-0.055 3.854,0.128 4.057 C 0.190 4.125,0.455 4.269,1.409 4.749 C 2.071 5.082,2.612 5.360,2.612 5.367 C 2.612 5.373,2.080 5.646,1.429 5.973 C 0.779 6.301,0.210 6.600,0.166 6.638 C -0.055 6.831,-0.052 7.171,0.173 7.369 C 0.222 7.412,0.777 7.704,1.437 8.033 C 2.084 8.357,2.613 8.627,2.613 8.633 C 2.613 8.640,2.068 8.921,1.401 9.259 C 0.117 9.909,0.076 9.934,0.025 10.120 C -0.032 10.324,0.021 10.501,0.179 10.640 C 0.239 10.693,1.433 11.304,3.528 12.355 L 6.783 13.988 7.000 13.988 L 7.216 13.988 10.472 12.355 C 12.566 11.305,13.761 10.693,13.821 10.640 C 13.979 10.501,14.032 10.324,13.975 10.120 C 13.924 9.935,13.883 9.909,12.599 9.259 C 11.932 8.921,11.387 8.640,11.387 8.633 C 11.387 8.627,11.916 8.357,12.563 8.033 C 13.223 7.704,13.778 7.412,13.827 7.369 C 14.052 7.171,14.055 6.830,13.834 6.638 C 13.789 6.600,13.221 6.301,12.570 5.973 C 11.920 5.646,11.388 5.373,11.388 5.367 C 11.388 5.360,11.929 5.082,12.591 4.749 C 13.875 4.103,13.922 4.073,13.975 3.881 C 14.032 3.674,13.978 3.494,13.817 3.359 C 13.761 3.312,12.371 2.601,10.472 1.647 L 7.222 0.016 7.047 0.008 C 6.943 0.004,6.834 0.013,6.778 0.031 M9.687 2.374 C 11.161 3.115,12.366 3.727,12.366 3.733 C 12.366 3.740,11.158 4.352,9.683 5.094 L 7.000 6.443 4.317 5.094 C 2.842 4.352,1.634 3.740,1.634 3.733 C 1.634 3.723,6.975 1.028,6.998 1.027 C 7.003 1.027,8.213 1.633,9.687 2.374 M5.255 6.681 C 6.327 7.220,6.768 7.431,6.866 7.450 C 7.114 7.499,7.147 7.485,8.756 6.676 L 10.244 5.927 11.305 6.458 C 11.889 6.749,12.367 6.993,12.367 7.000 C 12.367 7.006,11.159 7.619,9.683 8.361 L 7.000 9.710 4.317 8.361 C 2.841 7.619,1.633 7.006,1.633 7.000 C 1.633 6.984,3.741 5.928,3.761 5.934 C 3.770 5.936,4.442 6.273,5.255 6.681 M5.280 9.964 L 6.792 10.722 7.000 10.722 L 7.209 10.722 8.732 9.960 L 10.255 9.199 11.311 9.727 C 11.891 10.017,12.367 10.261,12.367 10.268 C 12.367 10.288,7.040 12.962,7.000 12.962 C 6.960 12.962,1.633 10.288,1.633 10.268 C 1.633 10.252,3.740 9.194,3.757 9.201 C 3.763 9.204,4.449 9.547,5.280 9.964 " stroke="none" fill-rule="evenodd"></path></svg>