<svg width="14" height="14" viewBox="0 0 14 14" xmlns="http://www.w3.org/2000/svg"><path d="M11.340 0.590 C 10.849 0.765,1.210 4.537,1.012 4.632 C 0.657 4.803,0.501 5.030,0.505 5.368 C 0.509 5.673,0.675 5.913,0.990 6.067 C 1.068 6.105,2.060 6.498,3.195 6.939 L 5.259 7.741 6.089 9.874 C 6.574 11.121,6.952 12.058,6.997 12.129 C 7.159 12.380,7.368 12.495,7.665 12.493 C 7.973 12.492,8.212 12.326,8.364 12.007 C 8.449 11.830,12.354 1.833,12.442 1.569 C 12.551 1.242,12.490 0.943,12.272 0.729 C 12.117 0.577,11.994 0.526,11.760 0.518 C 11.584 0.512,11.537 0.520,11.340 0.590 M7.839 4.446 L 5.517 6.768 3.704 6.063 C 2.707 5.675,1.895 5.354,1.901 5.348 C 1.911 5.338,10.130 2.126,10.150 2.124 C 10.156 2.124,9.117 3.168,7.839 4.446 M9.271 6.966 C 8.391 9.224,7.664 11.079,7.656 11.088 C 7.648 11.097,7.324 10.289,6.936 9.292 L 6.230 7.478 8.545 5.163 C 9.818 3.890,10.862 2.851,10.866 2.855 C 10.869 2.858,10.152 4.708,9.271 6.966 " stroke="none" fill-rule="evenodd" fill="black"></path></svg>