<svg width="16" height="16" viewBox="0 0 16 16" xmlns="http://www.w3.org/2000/svg"><path d="M9.743 1.080 C 9.683 1.116,9.615 1.174,9.592 1.209 C 9.569 1.244,9.339 1.823,9.080 2.496 C 8.822 3.169,8.570 3.804,8.520 3.907 C 8.412 4.134,8.171 4.385,7.952 4.501 C 7.868 4.545,7.248 4.793,6.573 5.052 C 5.899 5.312,5.299 5.550,5.240 5.582 C 4.957 5.738,4.930 6.207,5.193 6.395 C 5.233 6.424,5.819 6.660,6.493 6.919 C 7.168 7.178,7.804 7.430,7.907 7.480 C 8.158 7.600,8.400 7.842,8.520 8.093 C 8.570 8.196,8.822 8.832,9.081 9.507 C 9.340 10.181,9.576 10.767,9.605 10.807 C 9.679 10.911,9.852 10.993,10.000 10.993 C 10.148 10.993,10.321 10.911,10.395 10.807 C 10.424 10.767,10.660 10.181,10.919 9.507 C 11.178 8.832,11.430 8.196,11.480 8.093 C 11.600 7.842,11.842 7.600,12.093 7.480 C 12.196 7.430,12.832 7.178,13.507 6.919 C 14.181 6.660,14.767 6.424,14.807 6.395 C 15.070 6.207,15.043 5.738,14.760 5.582 C 14.701 5.550,14.101 5.312,13.427 5.052 C 12.752 4.793,12.132 4.545,12.048 4.501 C 11.829 4.385,11.588 4.134,11.480 3.907 C 11.430 3.804,11.178 3.169,10.920 2.496 C 10.661 1.823,10.431 1.244,10.408 1.209 C 10.283 1.018,9.953 0.954,9.743 1.080 M10.212 3.447 C 10.587 4.429,10.701 4.640,11.030 4.970 C 11.360 5.299,11.571 5.413,12.553 5.788 C 12.836 5.895,13.067 5.991,13.067 6.000 C 13.067 6.009,12.806 6.116,12.487 6.238 C 11.591 6.581,11.331 6.723,11.013 7.046 C 10.699 7.364,10.580 7.588,10.212 8.553 C 10.105 8.836,10.009 9.067,10.000 9.067 C 9.991 9.067,9.895 8.836,9.788 8.553 C 9.422 7.594,9.303 7.369,9.001 7.060 C 8.673 6.724,8.420 6.585,7.513 6.238 C 7.194 6.116,6.933 6.009,6.933 6.000 C 6.933 5.991,7.164 5.895,7.447 5.788 C 8.429 5.413,8.640 5.299,8.970 4.970 C 9.299 4.640,9.413 4.429,9.788 3.447 C 9.895 3.164,9.991 2.933,10.000 2.933 C 10.009 2.933,10.105 3.164,10.212 3.447 M3.728 9.091 C 3.611 9.165,3.588 9.202,3.241 9.891 C 2.768 10.830,2.821 10.776,1.938 11.218 C 1.569 11.402,1.233 11.577,1.193 11.605 C 1.089 11.679,1.007 11.852,1.007 12.000 C 1.007 12.148,1.089 12.321,1.193 12.394 C 1.233 12.423,1.567 12.597,1.935 12.782 C 2.815 13.224,2.776 13.185,3.218 14.065 C 3.403 14.433,3.577 14.767,3.606 14.807 C 3.679 14.911,3.852 14.993,4.000 14.993 C 4.148 14.993,4.321 14.911,4.394 14.807 C 4.423 14.767,4.598 14.431,4.784 14.061 C 5.225 13.182,5.182 13.225,6.065 12.782 C 6.433 12.597,6.767 12.423,6.807 12.394 C 6.911 12.321,6.993 12.148,6.993 12.000 C 6.993 11.852,6.911 11.679,6.807 11.605 C 6.767 11.577,6.432 11.402,6.063 11.218 C 5.181 10.777,5.231 10.828,4.757 9.887 C 4.412 9.202,4.389 9.165,4.272 9.091 C 4.174 9.029,4.119 9.013,4.000 9.013 C 3.881 9.013,3.826 9.029,3.728 9.091 " stroke="none" fill-rule="evenodd" fill="black"></path></svg>