<svg width="16" height="16" viewBox="0 0 16 16" fill="none" xmlns="http://www.w3.org/2000/svg"><path d="M3.449 1.053 C 3.174 1.103,2.930 1.188,2.636 1.338 C 1.785 1.771,1.213 2.552,1.036 3.520 C 0.983 3.816,0.983 12.184,1.036 12.480 C 1.272 13.774,2.226 14.728,3.520 14.964 C 3.816 15.017,12.184 15.017,12.480 14.964 C 13.774 14.728,14.728 13.774,14.964 12.480 C 15.017 12.184,15.017 3.816,14.964 3.520 C 14.733 2.250,13.766 1.268,12.537 1.052 C 12.224 0.998,3.751 0.998,3.449 1.053 M12.504 2.059 C 13.098 2.243,13.550 2.626,13.803 3.160 C 14.011 3.600,14.000 3.329,14.000 8.000 C 14.000 12.648,14.010 12.399,13.811 12.825 C 13.528 13.429,13.034 13.822,12.385 13.960 C 12.109 14.018,3.893 14.019,3.617 13.960 C 3.124 13.856,2.754 13.630,2.442 13.243 C 2.296 13.061,2.105 12.677,2.050 12.453 C 1.996 12.236,1.996 3.764,2.050 3.547 C 2.106 3.320,2.297 2.938,2.447 2.751 C 2.745 2.382,3.211 2.105,3.669 2.028 C 3.741 2.016,5.726 2.008,8.080 2.010 C 12.001 2.014,12.372 2.018,12.504 2.059 M7.467 4.524 C 7.006 4.598,6.763 4.673,6.400 4.855 C 6.045 5.033,5.785 5.222,5.514 5.499 C 4.352 6.687,4.172 8.574,5.087 9.974 C 5.713 10.933,6.729 11.493,7.842 11.493 C 8.729 11.493,9.496 11.170,10.149 10.521 C 10.547 10.124,10.812 9.698,10.990 9.166 C 11.094 8.856,11.089 8.689,10.969 8.540 C 10.866 8.411,10.738 8.347,10.582 8.347 C 10.312 8.347,10.168 8.468,10.064 8.785 C 9.759 9.708,9.051 10.338,8.160 10.479 C 7.532 10.578,6.832 10.356,6.314 9.896 C 6.018 9.632,5.714 9.130,5.601 8.715 C 5.483 8.286,5.483 7.714,5.601 7.285 C 5.714 6.870,6.018 6.368,6.314 6.104 C 6.625 5.828,7.045 5.614,7.413 5.546 C 7.636 5.504,8.044 5.504,8.267 5.546 C 8.631 5.613,9.008 5.802,9.332 6.076 C 9.412 6.144,9.595 6.338,9.739 6.507 L 10.001 6.813 9.487 6.827 C 9.013 6.839,8.965 6.845,8.866 6.901 C 8.695 7.000,8.627 7.123,8.627 7.333 C 8.627 7.556,8.699 7.677,8.892 7.774 L 9.024 7.840 10.052 7.839 C 10.996 7.839,11.089 7.835,11.187 7.789 C 11.311 7.732,11.425 7.618,11.465 7.512 C 11.504 7.409,11.504 5.258,11.465 5.155 C 11.396 4.973,11.204 4.846,11.000 4.846 C 10.849 4.846,10.741 4.893,10.635 5.004 C 10.527 5.119,10.507 5.202,10.507 5.541 L 10.507 5.853 10.304 5.633 C 9.617 4.886,8.766 4.501,7.827 4.511 C 7.665 4.513,7.503 4.519,7.467 4.524 " fill="#000000" stroke="none" fill-rule="evenodd"></path></svg>