<svg width="15" height="15" viewBox="0 0 15 15" xmlns="http://www.w3.org/2000/svg"><path d="M4.268 1.027 C 3.573 1.076,3.109 1.272,2.679 1.696 C 2.271 2.098,2.083 2.523,2.026 3.169 C 1.991 3.569,1.991 11.431,2.026 11.831 C 2.082 12.466,2.269 12.895,2.660 13.286 C 3.088 13.714,3.536 13.911,4.225 13.974 C 4.616 14.009,10.384 14.009,10.775 13.974 C 11.362 13.920,11.759 13.772,12.141 13.465 C 12.547 13.138,12.813 12.720,12.915 12.250 C 12.994 11.885,13.003 11.468,12.995 8.475 L 12.987 5.488 12.932 5.288 C 12.842 4.964,12.654 4.618,12.431 4.367 C 12.325 4.247,11.899 3.825,11.486 3.431 C 11.073 3.036,10.477 2.465,10.161 2.162 C 9.845 1.860,9.519 1.560,9.436 1.496 C 9.102 1.239,8.689 1.073,8.270 1.027 C 7.990 0.996,4.695 0.996,4.268 1.027 M8.134 2.016 L 8.250 2.032 8.250 3.300 C 8.250 4.047,8.260 4.623,8.275 4.701 C 8.358 5.138,8.718 5.492,9.161 5.573 C 9.255 5.590,9.792 5.600,10.640 5.600 L 11.971 5.600 11.987 5.731 C 11.996 5.803,11.999 7.207,11.994 8.850 C 11.983 12.119,11.989 12.001,11.836 12.303 C 11.750 12.474,11.477 12.742,11.299 12.831 C 10.974 12.994,11.128 12.988,7.500 12.988 C 4.462 12.988,4.198 12.984,4.026 12.944 C 3.750 12.880,3.589 12.790,3.389 12.590 C 3.190 12.391,3.118 12.262,3.055 11.995 C 3.016 11.827,3.013 11.479,3.013 7.500 C 3.013 3.521,3.016 3.173,3.055 3.005 C 3.116 2.744,3.190 2.610,3.375 2.422 C 3.635 2.159,3.866 2.061,4.310 2.027 C 4.617 2.003,7.971 1.994,8.134 2.016 M10.475 3.849 C 10.839 4.198,11.165 4.509,11.199 4.541 L 11.261 4.600 10.295 4.600 C 9.450 4.600,9.324 4.595,9.289 4.561 C 9.255 4.526,9.250 4.404,9.250 3.592 L 9.250 2.663 9.531 2.940 C 9.686 3.092,10.111 3.501,10.475 3.849 M5.342 7.025 C 5.151 7.083,5.000 7.295,5.000 7.504 C 5.000 7.655,5.089 7.818,5.223 7.913 L 5.329 7.988 7.498 7.988 L 9.666 7.988 9.767 7.920 C 9.924 7.817,9.988 7.695,9.988 7.500 C 9.988 7.305,9.924 7.183,9.768 7.080 L 9.666 7.013 7.539 7.008 C 6.370 7.006,5.381 7.013,5.342 7.025 M5.342 10.025 C 5.151 10.083,5.000 10.295,5.000 10.504 C 5.000 10.655,5.089 10.818,5.223 10.913 L 5.329 10.988 7.498 10.988 L 9.666 10.988 9.767 10.920 C 9.924 10.817,9.988 10.695,9.988 10.500 C 9.988 10.305,9.924 10.183,9.768 10.080 L 9.666 10.013 7.539 10.008 C 6.370 10.006,5.381 10.013,5.342 10.025 " stroke="none" fill-rule="evenodd" fill="black"></path></svg>