<svg width="16" height="16" viewBox="0 0 16 16" xmlns="http://www.w3.org/2000/svg"><path d="M7.324 1.054 C 6.424 1.200,5.634 1.590,4.981 2.211 C 4.281 2.876,3.843 3.686,3.662 4.648 C 3.589 5.033,3.596 5.816,3.675 6.210 C 3.709 6.376,3.732 6.516,3.728 6.520 C 3.724 6.524,3.599 6.587,3.452 6.661 C 1.456 7.659,0.520 9.938,1.244 12.038 C 2.034 14.328,4.543 15.547,6.838 14.756 C 7.155 14.646,7.540 14.458,7.808 14.282 L 8.000 14.155 8.192 14.282 C 9.312 15.020,10.754 15.199,12.031 14.758 C 14.329 13.965,15.550 11.458,14.755 9.162 C 14.376 8.067,13.599 7.187,12.548 6.661 C 12.401 6.587,12.276 6.524,12.272 6.520 C 12.268 6.516,12.291 6.376,12.325 6.210 C 12.404 5.816,12.411 5.033,12.338 4.648 C 12.001 2.852,10.665 1.473,8.893 1.093 C 8.542 1.017,7.680 0.996,7.324 1.054 M8.707 2.077 C 9.703 2.292,10.549 2.939,11.011 3.839 C 11.277 4.355,11.387 4.813,11.387 5.400 C 11.387 6.337,11.054 7.137,10.389 7.802 C 9.901 8.290,9.354 8.587,8.667 8.736 C 8.349 8.805,7.651 8.805,7.333 8.736 C 6.302 8.512,5.457 7.873,4.989 6.961 C 4.723 6.445,4.613 5.987,4.613 5.400 C 4.613 4.492,4.926 3.708,5.550 3.054 C 6.093 2.485,6.774 2.140,7.576 2.027 C 7.832 1.991,8.429 2.018,8.707 2.077 M4.208 7.628 C 4.557 8.263,5.320 8.979,6.024 9.332 C 6.722 9.682,7.595 9.851,8.360 9.784 C 8.532 9.769,8.679 9.764,8.687 9.772 C 8.716 9.800,8.771 10.152,8.789 10.414 C 8.811 10.733,8.769 11.133,8.677 11.492 C 8.597 11.804,8.326 12.364,8.129 12.627 C 7.032 14.082,5.025 14.429,3.514 13.425 C 2.784 12.939,2.269 12.179,2.077 11.306 C 1.998 10.943,1.990 10.321,2.061 9.968 C 2.272 8.921,2.924 8.052,3.854 7.577 C 3.971 7.517,4.079 7.468,4.093 7.468 C 4.108 7.468,4.160 7.540,4.208 7.628 M12.141 7.576 C 13.770 8.397,14.457 10.405,13.669 12.044 C 13.478 12.440,13.294 12.703,13.000 13.000 C 11.936 14.073,10.248 14.310,8.941 13.568 L 8.750 13.459 8.864 13.309 C 9.485 12.502,9.791 11.606,9.791 10.600 C 9.790 10.215,9.730 9.685,9.668 9.519 C 9.657 9.491,9.716 9.452,9.886 9.374 C 10.309 9.181,10.722 8.884,11.107 8.496 C 11.430 8.171,11.739 7.769,11.842 7.540 C 11.860 7.500,11.886 7.467,11.900 7.467 C 11.914 7.467,12.022 7.516,12.141 7.576 " stroke="none" fill-rule="evenodd"></path></svg>