<svg width="14" height="14" viewBox="0 0 14 14" xmlns="http://www.w3.org/2000/svg"><path d="M6.510 1.042 C 5.646 1.174,4.836 1.725,4.383 2.488 C 3.779 3.506,3.846 4.806,4.551 5.764 C 4.995 6.368,5.652 6.784,6.417 6.946 C 6.693 7.004,7.307 7.004,7.583 6.946 C 8.811 6.686,9.721 5.783,9.976 4.573 C 10.033 4.304,10.045 3.857,10.002 3.580 C 9.826 2.434,9.046 1.515,7.944 1.154 C 7.503 1.010,6.985 0.969,6.510 1.042 M7.435 2.051 C 7.829 2.133,8.217 2.354,8.496 2.656 C 9.109 3.321,9.199 4.265,8.723 5.056 C 8.381 5.624,7.698 5.997,7.000 5.997 C 5.885 5.997,4.970 5.097,4.970 4.002 C 4.970 3.234,5.428 2.528,6.140 2.195 C 6.324 2.109,6.526 2.045,6.685 2.023 C 6.877 1.997,7.236 2.010,7.435 2.051 M4.352 7.983 C 3.797 8.053,3.233 8.328,2.828 8.727 C 2.436 9.113,2.182 9.562,2.071 10.068 C 2.034 10.238,2.023 10.399,2.013 10.914 C 2.007 11.263,2.008 11.584,2.016 11.627 C 2.035 11.729,2.172 11.888,2.293 11.950 C 2.367 11.988,2.419 11.996,2.533 11.989 C 2.715 11.977,2.841 11.900,2.933 11.743 L 2.998 11.632 3.012 10.978 C 3.026 10.349,3.029 10.318,3.090 10.138 C 3.295 9.532,3.811 9.086,4.435 8.978 C 4.686 8.935,9.314 8.935,9.565 8.978 C 9.913 9.039,10.236 9.207,10.490 9.461 C 10.684 9.655,10.823 9.879,10.910 10.138 C 10.971 10.318,10.974 10.349,10.988 10.978 L 11.002 11.632 11.067 11.743 C 11.159 11.900,11.285 11.977,11.467 11.989 C 11.684 12.003,11.853 11.900,11.958 11.692 C 11.994 11.621,11.997 11.545,11.987 10.945 C 11.974 10.205,11.948 10.023,11.808 9.671 C 11.553 9.030,11.070 8.521,10.422 8.212 C 10.152 8.083,9.935 8.021,9.625 7.983 C 9.370 7.951,4.601 7.952,4.352 7.983 " stroke="none" fill-rule="evenodd" fill="black"></path></svg>