<svg width="16" height="16" viewBox="0 0 16 16" xmlns="http://www.w3.org/2000/svg"><path d="M3.136 1.054 C 2.740 1.163,2.329 1.496,2.165 1.842 C 1.990 2.211,2.001 1.792,2.001 8.000 C 2.001 14.208,1.990 13.789,2.165 14.158 C 2.285 14.411,2.588 14.708,2.853 14.833 C 3.110 14.954,3.295 14.997,3.560 14.995 C 3.978 14.992,3.772 15.108,8.793 12.072 C 12.000 10.133,13.428 9.256,13.521 9.167 C 14.141 8.576,14.159 7.596,13.561 7.000 C 13.390 6.830,12.965 6.561,8.880 4.040 C 6.409 2.515,4.314 1.229,4.225 1.181 C 4.137 1.134,3.993 1.077,3.906 1.054 C 3.715 1.005,3.317 1.004,3.136 1.054 M3.689 2.052 C 3.830 2.105,12.765 7.637,12.845 7.720 C 13.036 7.919,13.020 8.235,12.809 8.430 C 12.727 8.506,3.810 13.902,3.694 13.947 C 3.439 14.044,3.116 13.875,3.041 13.606 C 3.003 13.468,3.003 2.532,3.041 2.394 C 3.114 2.130,3.441 1.957,3.689 2.052 " stroke="none" fill-rule="evenodd" fill="black"></path></svg>