<svg width="15" height="15" viewBox="0 0 15 15" xmlns="http://www.w3.org/2000/svg"><path d="M7.226 2.040 C 7.105 2.072,2.744 4.263,2.488 4.420 C 2.260 4.559,2.101 4.770,2.038 5.016 C 2.004 5.150,2.000 5.461,2.006 7.565 C 2.012 9.784,2.016 9.971,2.057 10.075 C 2.116 10.228,2.265 10.420,2.405 10.524 C 2.566 10.643,7.000 12.889,7.196 12.950 C 7.398 13.013,7.602 13.013,7.804 12.950 C 8.000 12.889,12.434 10.643,12.595 10.524 C 12.735 10.420,12.884 10.228,12.943 10.075 C 12.984 9.971,12.988 9.784,12.994 7.565 C 13.000 5.461,12.996 5.150,12.962 5.016 C 12.899 4.770,12.740 4.559,12.513 4.420 C 12.227 4.245,7.895 2.073,7.763 2.039 C 7.581 1.991,7.406 1.992,7.226 2.040 M9.443 3.974 C 10.499 4.510,11.361 4.956,11.359 4.966 C 11.353 4.992,7.545 6.924,7.500 6.924 C 7.455 6.924,3.647 4.992,3.641 4.966 C 3.637 4.946,7.444 3.005,7.493 3.002 C 7.509 3.001,8.387 3.438,9.443 3.974 M5.256 6.925 L 7.000 7.808 7.000 9.779 C 7.000 10.863,6.992 11.749,6.981 11.748 C 6.971 11.747,6.074 11.294,4.988 10.742 L 3.013 9.738 3.006 7.754 L 3.000 5.771 3.256 5.907 C 3.397 5.982,4.297 6.440,5.256 6.925 M11.978 9.732 C 11.957 9.753,8.031 11.750,8.010 11.750 C 8.005 11.750,8.000 10.863,8.000 9.779 L 8.000 7.808 9.994 6.797 L 11.988 5.786 11.994 7.748 C 11.998 8.860,11.991 9.719,11.978 9.732 " stroke="none" fill-rule="evenodd" fill="black"></path></svg>