<svg width="15" height="15" viewBox="0 0 15 15" xmlns="http://www.w3.org/2000/svg"><path d="M6.927 1.026 C 5.636 1.151,4.446 1.630,3.425 2.436 C 3.169 2.638,2.597 3.216,2.396 3.475 C 1.483 4.655,1.000 6.046,1.000 7.500 C 1.000 8.955,1.481 10.341,2.396 11.525 C 2.608 11.798,3.202 12.392,3.475 12.604 C 4.659 13.519,6.045 14.000,7.500 14.000 C 8.953 14.000,10.343 13.518,11.525 12.604 C 11.798 12.392,12.392 11.798,12.604 11.525 C 13.566 10.280,14.044 8.825,13.992 7.300 C 13.943 5.877,13.483 4.611,12.603 3.475 C 12.402 3.215,11.830 2.637,11.575 2.436 C 11.058 2.027,10.315 1.609,9.716 1.388 C 9.374 1.262,8.870 1.137,8.459 1.075 C 8.059 1.016,7.290 0.991,6.927 1.026 M8.000 2.026 C 9.906 2.200,11.596 3.365,12.436 5.085 C 13.468 7.194,13.045 9.723,11.384 11.387 C 10.352 12.419,8.954 13.000,7.500 13.000 C 5.406 13.000,3.487 11.800,2.561 9.910 C 1.532 7.811,1.957 5.273,3.615 3.615 C 4.771 2.459,6.375 1.878,8.000 2.026 M5.191 4.876 C 4.906 4.924,4.635 5.139,4.505 5.420 C 4.415 5.613,4.412 5.917,4.497 6.131 C 4.642 6.499,5.095 6.772,5.459 6.711 C 5.952 6.629,6.278 6.262,6.278 5.788 C 6.278 5.209,5.765 4.778,5.191 4.876 M9.475 4.875 C 8.994 4.958,8.638 5.448,8.718 5.916 C 8.733 6.003,8.770 6.125,8.799 6.185 C 8.975 6.549,9.415 6.777,9.790 6.700 C 10.194 6.616,10.472 6.337,10.550 5.936 C 10.669 5.327,10.100 4.766,9.475 4.875 M4.689 8.780 C 4.634 8.812,4.555 8.887,4.514 8.946 C 4.449 9.038,4.438 9.077,4.438 9.209 C 4.438 9.345,4.450 9.385,4.547 9.555 C 4.878 10.133,5.406 10.671,5.974 11.009 C 6.696 11.438,7.591 11.540,8.403 11.285 C 9.205 11.034,10.004 10.354,10.470 9.525 C 10.548 9.387,10.562 9.339,10.562 9.208 C 10.562 9.077,10.551 9.038,10.486 8.946 C 10.384 8.801,10.248 8.726,10.083 8.725 C 9.851 8.725,9.739 8.800,9.581 9.063 C 9.163 9.760,8.533 10.254,7.895 10.385 C 6.962 10.577,6.027 10.071,5.397 9.032 C 5.265 8.813,5.158 8.741,4.953 8.731 C 4.817 8.724,4.770 8.733,4.689 8.780 " stroke="none" fill-rule="evenodd"></path></svg>