<svg width="16" height="16" viewBox="0 0 16 16" fill="none" xmlns="http://www.w3.org/2000/svg"><path d="M3.449 1.053 C 3.174 1.103,2.930 1.188,2.636 1.338 C 1.785 1.771,1.213 2.552,1.036 3.520 C 0.983 3.816,0.983 12.184,1.036 12.480 C 1.272 13.774,2.226 14.728,3.520 14.964 C 3.816 15.017,12.184 15.017,12.480 14.964 C 13.774 14.728,14.728 13.774,14.964 12.480 C 15.017 12.184,15.017 3.816,14.964 3.520 C 14.733 2.250,13.766 1.268,12.537 1.052 C 12.224 0.998,3.751 0.998,3.449 1.053 M12.504 2.059 C 13.098 2.243,13.550 2.626,13.803 3.160 C 14.011 3.600,14.000 3.329,14.000 8.000 C 14.000 12.648,14.010 12.399,13.811 12.825 C 13.528 13.429,13.034 13.822,12.385 13.960 C 12.109 14.018,3.893 14.019,3.617 13.960 C 3.124 13.856,2.754 13.630,2.442 13.243 C 2.296 13.061,2.105 12.677,2.050 12.453 C 1.996 12.236,1.996 3.764,2.050 3.547 C 2.106 3.320,2.297 2.938,2.447 2.751 C 2.745 2.382,3.211 2.105,3.669 2.028 C 3.741 2.016,5.726 2.008,8.080 2.010 C 12.001 2.014,12.372 2.018,12.504 2.059 M7.703 5.520 C 7.321 5.567,6.893 5.730,6.562 5.953 C 6.357 6.091,5.997 6.480,5.857 6.715 C 5.684 7.003,5.556 7.385,5.515 7.728 C 5.454 8.249,5.579 8.820,5.857 9.286 C 6.031 9.580,6.420 9.969,6.714 10.143 C 7.350 10.521,8.110 10.601,8.806 10.363 C 9.185 10.233,9.458 10.060,9.759 9.759 C 10.060 9.458,10.233 9.185,10.363 8.806 C 10.670 7.908,10.451 6.944,9.787 6.266 C 9.532 6.007,9.414 5.920,9.097 5.760 C 8.706 5.563,8.140 5.465,7.703 5.520 M8.510 6.595 C 8.943 6.759,9.235 7.049,9.406 7.486 C 9.470 7.647,9.477 7.702,9.477 8.000 C 9.477 8.298,9.470 8.353,9.406 8.514 C 9.168 9.120,8.632 9.493,8.000 9.493 C 7.368 9.493,6.832 9.120,6.594 8.514 C 6.530 8.353,6.523 8.298,6.523 8.000 C 6.523 7.704,6.531 7.647,6.592 7.490 C 6.790 6.986,7.186 6.642,7.693 6.532 C 7.894 6.489,8.315 6.521,8.510 6.595 " fill="#000000" stroke="none" fill-rule="evenodd"></path></svg>