<svg width="14" height="14" viewBox="0 0 14 14" xmlns="http://www.w3.org/2000/svg"><path d="M5.028 1.019 C 5.003 1.025,4.121 1.547,3.069 2.178 C 1.371 3.196,1.148 3.336,1.085 3.426 L 1.015 3.527 1.008 8.046 C 1.003 11.288,1.009 12.590,1.027 12.654 C 1.062 12.775,1.195 12.916,1.319 12.963 C 1.536 13.046,1.604 13.021,3.061 12.320 C 3.688 12.018,4.615 11.545,5.075 11.293 L 5.168 11.242 5.518 11.433 C 5.936 11.660,7.436 12.406,8.155 12.743 C 8.654 12.977,8.673 12.984,8.834 12.984 L 8.999 12.985 10.922 11.830 C 12.628 10.805,12.852 10.664,12.915 10.574 L 12.985 10.473 12.992 5.954 C 12.997 2.712,12.991 1.410,12.973 1.346 C 12.938 1.225,12.805 1.084,12.681 1.037 C 12.463 0.954,12.491 0.942,10.582 1.896 L 8.832 2.770 7.080 1.895 C 5.497 1.104,5.315 1.019,5.201 1.013 C 5.132 1.010,5.054 1.012,5.028 1.019 M8.330 7.676 C 8.330 11.509,8.328 11.711,8.289 11.698 C 8.211 11.671,6.287 10.712,5.979 10.547 L 5.670 10.381 5.670 6.345 L 5.670 2.310 7.000 2.975 L 8.330 3.640 8.330 7.676 M11.993 6.166 L 11.993 10.022 10.663 10.820 L 9.333 11.618 9.333 7.629 L 9.333 3.640 10.658 2.976 C 11.386 2.611,11.984 2.312,11.988 2.311 C 11.991 2.311,11.993 4.045,11.993 6.166 M4.667 6.379 L 4.667 10.378 4.334 10.557 C 3.996 10.740,2.254 11.609,2.094 11.675 L 2.007 11.711 2.007 7.845 L 2.007 3.978 3.331 3.181 C 4.059 2.743,4.658 2.383,4.661 2.382 C 4.664 2.381,4.667 4.179,4.667 6.379 " stroke="none" fill-rule="evenodd" fill="black"></path></svg>