<svg width="14" height="14" viewBox="0 0 14 14" xmlns="http://www.w3.org/2000/svg"><path d="M2.298 1.519 C 2.105 1.547,1.896 1.656,1.763 1.797 C 1.361 2.228,1.428 3.001,1.896 3.321 C 2.096 3.459,2.194 3.485,2.497 3.486 C 2.799 3.486,2.952 3.443,3.133 3.305 C 3.434 3.075,3.568 2.637,3.465 2.217 C 3.370 1.829,3.084 1.577,2.671 1.518 C 2.488 1.491,2.491 1.491,2.298 1.519 M4.795 2.051 C 4.481 2.197,4.406 2.599,4.647 2.847 C 4.817 3.023,4.501 3.011,9.055 3.004 L 13.125 2.998 13.218 2.948 C 13.400 2.850,13.494 2.695,13.494 2.494 C 13.494 2.329,13.410 2.174,13.271 2.082 L 13.175 2.018 9.032 2.013 C 5.038 2.008,4.885 2.009,4.795 2.051 M2.193 5.539 C 1.810 5.650,1.576 5.922,1.513 6.330 C 1.448 6.748,1.610 7.142,1.932 7.346 C 2.232 7.537,2.734 7.544,3.045 7.362 C 3.405 7.151,3.582 6.669,3.464 6.219 C 3.387 5.923,3.221 5.723,2.946 5.594 C 2.808 5.530,2.764 5.521,2.545 5.515 C 2.390 5.511,2.259 5.519,2.193 5.539 M4.848 6.030 C 4.641 6.104,4.525 6.248,4.508 6.454 C 4.488 6.690,4.636 6.917,4.846 6.975 C 4.907 6.992,6.210 7.000,9.018 6.999 C 12.918 6.999,13.106 6.997,13.195 6.956 C 13.246 6.933,13.326 6.872,13.373 6.820 C 13.555 6.618,13.540 6.328,13.338 6.142 C 13.281 6.090,13.194 6.036,13.145 6.022 C 13.083 6.005,11.811 5.997,8.995 5.998 C 5.670 5.999,4.919 6.004,4.848 6.030 M2.280 9.519 C 2.114 9.550,1.892 9.664,1.776 9.780 C 1.569 9.986,1.461 10.345,1.510 10.663 C 1.593 11.199,2.018 11.535,2.567 11.497 C 2.988 11.468,3.292 11.259,3.433 10.903 C 3.478 10.790,3.486 10.724,3.486 10.500 C 3.486 10.276,3.478 10.210,3.433 10.097 C 3.331 9.841,3.125 9.644,2.865 9.558 C 2.729 9.512,2.428 9.493,2.280 9.519 M4.795 10.049 C 4.545 10.181,4.438 10.460,4.547 10.698 C 4.603 10.822,4.759 10.959,4.869 10.983 C 4.918 10.993,6.785 11.002,9.018 11.002 C 12.346 11.002,13.094 10.996,13.166 10.970 C 13.547 10.836,13.613 10.326,13.280 10.093 L 13.179 10.022 9.022 10.017 C 5.269 10.012,4.858 10.015,4.795 10.049 " stroke="none" fill-rule="evenodd" fill="black"></path></svg>