<svg width="16" height="16" viewBox="0 0 16 16" xmlns="http://www.w3.org/2000/svg"><path d="M2.280 1.058 C 2.154 1.124,2.085 1.199,2.040 1.317 C 2.003 1.415,1.999 1.933,2.007 6.267 C 2.017 11.508,2.009 11.217,2.156 11.636 C 2.285 12.001,2.628 12.423,2.982 12.652 C 3.209 12.799,3.382 12.869,3.693 12.941 C 3.927 12.995,4.014 12.997,7.250 13.012 L 10.566 13.027 10.624 13.187 C 10.724 13.462,10.854 13.658,11.105 13.909 C 11.310 14.115,11.385 14.171,11.600 14.276 C 12.033 14.488,12.416 14.548,12.832 14.469 C 14.013 14.246,14.741 13.110,14.426 11.978 C 14.193 11.139,13.477 10.560,12.613 10.514 C 11.964 10.480,11.362 10.743,10.952 11.240 C 10.806 11.416,10.658 11.686,10.600 11.880 L 10.567 11.987 7.384 11.994 C 5.120 12.000,4.138 11.993,3.987 11.972 C 3.713 11.933,3.524 11.843,3.347 11.666 C 3.173 11.492,3.076 11.297,3.041 11.053 C 3.025 10.943,3.014 10.079,3.014 8.940 L 3.013 7.013 6.790 7.020 L 10.566 7.027 10.624 7.187 C 10.724 7.462,10.854 7.658,11.105 7.909 C 11.310 8.115,11.385 8.171,11.600 8.276 C 12.033 8.488,12.416 8.548,12.832 8.469 C 14.013 8.246,14.741 7.110,14.426 5.978 C 14.193 5.139,13.477 4.560,12.613 4.514 C 11.964 4.480,11.362 4.743,10.952 5.240 C 10.806 5.416,10.658 5.686,10.600 5.880 L 10.567 5.987 6.791 5.993 L 3.015 6.000 3.007 3.687 C 3.001 1.589,2.996 1.366,2.956 1.293 C 2.897 1.188,2.778 1.077,2.685 1.042 C 2.576 1.001,2.373 1.009,2.280 1.058 M12.873 5.578 C 13.062 5.649,13.289 5.860,13.394 6.064 C 13.472 6.214,13.478 6.247,13.479 6.493 C 13.480 6.727,13.471 6.778,13.410 6.907 C 13.308 7.123,13.145 7.291,12.943 7.391 C 12.609 7.555,12.191 7.519,11.909 7.303 C 11.644 7.099,11.512 6.829,11.512 6.490 C 11.512 6.304,11.524 6.248,11.593 6.100 C 11.698 5.875,11.827 5.735,12.028 5.628 C 12.298 5.484,12.578 5.468,12.873 5.578 M12.873 11.578 C 13.062 11.649,13.289 11.860,13.394 12.064 C 13.472 12.214,13.478 12.247,13.479 12.493 C 13.480 12.727,13.471 12.778,13.410 12.907 C 13.308 13.123,13.145 13.291,12.943 13.391 C 12.609 13.555,12.191 13.519,11.909 13.303 C 11.644 13.099,11.512 12.829,11.512 12.490 C 11.512 12.304,11.524 12.248,11.593 12.100 C 11.698 11.875,11.827 11.735,12.028 11.628 C 12.298 11.484,12.578 11.468,12.873 11.578 " stroke="none" fill-rule="evenodd" fill="black"></path></svg>