<svg width="15" height="15" viewBox="0 0 15 15" xmlns="http://www.w3.org/2000/svg"><path d="M7.342 1.024 C 7.227 1.061,7.109 1.166,7.053 1.282 L 7.000 1.391 7.000 4.839 L 7.000 8.287 5.406 6.695 C 3.741 5.031,3.708 5.002,3.499 5.001 C 3.370 5.000,3.158 5.114,3.086 5.223 C 3.010 5.337,2.986 5.505,3.024 5.650 C 3.051 5.753,3.227 5.936,5.108 7.820 C 6.238 8.952,7.202 9.902,7.250 9.932 C 7.373 10.010,7.627 10.010,7.750 9.933 C 7.798 9.902,8.762 8.952,9.892 7.820 C 11.772 5.937,11.948 5.753,11.976 5.650 C 12.014 5.505,11.990 5.337,11.914 5.223 C 11.842 5.114,11.630 5.000,11.501 5.001 C 11.292 5.002,11.259 5.031,9.594 6.694 L 8.001 8.286 7.994 4.812 L 7.988 1.338 7.928 1.242 C 7.843 1.106,7.708 1.024,7.546 1.012 C 7.473 1.006,7.381 1.012,7.342 1.024 M1.342 9.024 C 1.226 9.061,1.108 9.167,1.050 9.287 C 0.996 9.400,0.996 9.404,1.008 10.606 C 1.015 11.351,1.031 11.870,1.049 11.963 C 1.099 12.230,1.238 12.591,1.377 12.816 C 1.651 13.260,2.150 13.670,2.606 13.827 C 3.094 13.995,2.864 13.988,7.500 13.988 C 12.136 13.988,11.906 13.995,12.394 13.827 C 12.999 13.618,13.602 13.021,13.823 12.410 C 13.979 11.979,13.987 11.887,13.987 10.548 L 13.988 9.334 13.920 9.233 C 13.817 9.076,13.695 9.013,13.500 9.013 C 13.305 9.013,13.183 9.076,13.080 9.232 L 13.013 9.334 12.996 10.523 C 12.983 11.463,12.972 11.748,12.941 11.882 C 12.836 12.339,12.439 12.770,12.001 12.901 C 11.911 12.927,11.714 12.961,11.563 12.975 C 11.190 13.009,3.810 13.009,3.438 12.975 C 3.286 12.961,3.089 12.927,2.999 12.901 C 2.561 12.770,2.163 12.339,2.059 11.882 C 2.028 11.748,2.017 11.461,2.004 10.525 L 1.988 9.338 1.928 9.242 C 1.843 9.106,1.708 9.024,1.546 9.012 C 1.473 9.006,1.381 9.012,1.342 9.024 " stroke="none" fill-rule="evenodd" fill="black"></path></svg>