<svg width="15" height="15" viewBox="0 0 15 15" xmlns="http://www.w3.org/2000/svg"><path d="M10.913 1.026 C 10.044 1.161,9.337 1.785,9.087 2.638 C 8.995 2.952,8.978 3.373,9.046 3.688 C 9.073 3.811,9.086 3.921,9.076 3.932 C 9.067 3.943,8.346 4.367,7.475 4.875 L 5.891 5.799 5.764 5.679 C 5.309 5.251,4.679 5.041,4.031 5.103 C 3.741 5.130,3.556 5.181,3.302 5.302 C 2.642 5.616,2.192 6.184,2.047 6.887 C 1.835 7.913,2.388 8.976,3.350 9.392 C 3.685 9.536,3.822 9.563,4.250 9.563 C 4.678 9.563,4.815 9.536,5.150 9.392 C 5.375 9.295,5.582 9.161,5.763 8.995 L 5.896 8.873 7.492 9.802 C 8.370 10.313,9.091 10.734,9.094 10.737 C 9.098 10.740,9.083 10.809,9.062 10.890 C 9.040 10.971,9.016 11.167,9.008 11.325 C 8.978 11.970,9.211 12.558,9.680 13.016 C 9.996 13.326,10.327 13.508,10.769 13.617 C 11.019 13.679,11.528 13.672,11.781 13.604 C 12.232 13.483,12.554 13.293,12.870 12.964 C 13.705 12.095,13.708 10.749,12.878 9.869 C 12.682 9.660,12.337 9.427,12.077 9.328 C 11.271 9.017,10.340 9.190,9.725 9.765 L 9.604 9.878 8.008 8.948 C 7.131 8.436,6.409 8.015,6.405 8.012 C 6.401 8.008,6.415 7.939,6.437 7.859 C 6.520 7.552,6.509 7.032,6.412 6.712 C 6.399 6.668,6.587 6.552,7.980 5.739 C 8.850 5.232,9.571 4.812,9.580 4.807 C 9.590 4.802,9.684 4.871,9.790 4.959 C 10.024 5.155,10.337 5.324,10.638 5.415 C 10.841 5.477,10.899 5.484,11.250 5.484 C 11.601 5.484,11.659 5.477,11.861 5.416 C 12.627 5.182,13.182 4.627,13.416 3.861 C 13.477 3.659,13.484 3.601,13.484 3.250 C 13.484 2.899,13.477 2.841,13.415 2.638 C 13.178 1.856,12.578 1.271,11.813 1.074 C 11.581 1.015,11.136 0.991,10.913 1.026 M11.489 2.027 C 11.991 2.119,12.399 2.545,12.479 3.060 C 12.542 3.460,12.417 3.837,12.127 4.127 C 11.482 4.772,10.408 4.542,10.087 3.690 C 9.912 3.223,10.019 2.726,10.373 2.373 C 10.678 2.068,11.061 1.949,11.489 2.027 M4.644 6.154 C 4.946 6.251,5.193 6.459,5.347 6.747 C 5.651 7.319,5.477 8.004,4.930 8.380 C 4.756 8.500,4.566 8.557,4.300 8.569 C 4.091 8.579,4.038 8.572,3.866 8.514 C 3.535 8.403,3.283 8.187,3.136 7.888 C 2.870 7.346,3.025 6.689,3.501 6.339 C 3.836 6.092,4.243 6.026,4.644 6.154 M11.561 10.213 C 12.002 10.328,12.358 10.690,12.461 11.126 C 12.628 11.836,12.159 12.532,11.431 12.652 C 10.916 12.738,10.378 12.454,10.139 11.971 C 9.901 11.488,9.980 10.962,10.352 10.565 C 10.660 10.235,11.126 10.100,11.561 10.213 " fill="#000000" stroke="none" fill-rule="evenodd"></path></svg>