<svg width="14" height="14" viewBox="0 0 14 14" xmlns="http://www.w3.org/2000/svg"><path d="M2.304 1.028 C 1.963 1.068,1.695 1.198,1.444 1.447 C 1.308 1.583,1.245 1.668,1.170 1.821 C 0.997 2.175,1.001 2.089,1.009 5.101 C 1.015 7.566,1.019 7.768,1.057 7.898 C 1.150 8.212,1.301 8.446,1.540 8.647 C 1.710 8.791,1.878 8.876,2.119 8.941 C 2.285 8.987,2.375 8.991,3.305 9.001 L 4.311 9.011 4.326 9.143 C 4.417 9.951,4.783 10.802,5.311 11.436 C 5.965 12.222,6.885 12.750,7.933 12.943 C 8.213 12.995,9.044 13.001,9.310 12.954 C 10.284 12.780,11.061 12.383,11.722 11.722 C 12.383 11.061,12.780 10.284,12.954 9.310 C 13.001 9.044,12.995 8.213,12.943 7.933 C 12.596 6.046,11.156 4.632,9.298 4.352 C 9.170 4.333,9.052 4.317,9.036 4.317 C 9.013 4.317,9.007 4.132,9.006 3.471 C 9.005 2.513,8.987 2.246,8.902 1.993 C 8.723 1.461,8.269 1.100,7.688 1.029 C 7.444 0.999,2.560 0.998,2.304 1.028 M7.774 2.088 C 7.838 2.133,7.896 2.201,7.933 2.275 L 7.992 2.392 7.992 3.369 L 7.992 4.347 7.770 4.391 C 6.094 4.728,4.728 6.094,4.391 7.770 L 4.347 7.992 3.358 7.992 C 2.400 7.992,2.365 7.990,2.275 7.943 C 2.127 7.866,2.037 7.729,2.019 7.555 C 2.011 7.474,2.007 6.269,2.011 4.877 C 2.018 2.547,2.021 2.339,2.058 2.273 C 2.108 2.182,2.247 2.058,2.316 2.043 C 2.345 2.037,2.389 2.027,2.415 2.022 C 2.441 2.016,3.634 2.013,5.067 2.015 L 7.673 2.018 7.774 2.088 M9.282 5.365 C 10.598 5.620,11.646 6.646,11.924 7.951 C 11.992 8.269,12.010 8.825,11.962 9.135 C 11.846 9.883,11.532 10.498,10.991 11.037 C 10.550 11.476,9.996 11.778,9.357 11.927 C 9.074 11.993,8.443 12.011,8.143 11.961 C 7.409 11.841,6.790 11.524,6.279 11.006 C 5.803 10.525,5.492 9.942,5.368 9.298 C 5.341 9.162,5.320 9.042,5.320 9.031 C 5.320 9.020,5.853 9.006,6.504 9.000 C 7.826 8.989,7.873 8.984,8.190 8.828 C 8.433 8.708,8.708 8.433,8.828 8.190 C 8.984 7.873,8.989 7.826,9.000 6.504 C 9.006 5.847,9.020 5.320,9.031 5.320 C 9.042 5.320,9.156 5.340,9.282 5.365 M8.002 6.364 C 8.002 6.913,7.992 7.438,7.982 7.532 C 7.957 7.742,7.882 7.862,7.727 7.938 C 7.619 7.991,7.611 7.992,6.493 7.999 C 5.793 8.003,5.367 7.998,5.367 7.984 C 5.367 7.935,5.489 7.537,5.556 7.368 C 5.703 6.999,6.028 6.524,6.326 6.241 C 6.618 5.964,7.025 5.694,7.346 5.564 C 7.502 5.500,7.919 5.370,7.974 5.368 C 7.997 5.367,8.003 5.581,8.002 6.364 " stroke="none" fill-rule="evenodd" fill="black"></path></svg>