<svg width="16" height="16" viewBox="0 0 16 16" xmlns="http://www.w3.org/2000/svg"><path d="M3.449 1.053 C 3.174 1.103,2.930 1.188,2.636 1.338 C 1.785 1.771,1.213 2.552,1.036 3.520 C 0.983 3.816,0.983 12.184,1.036 12.480 C 1.272 13.774,2.226 14.728,3.520 14.964 C 3.816 15.017,12.184 15.017,12.480 14.964 C 13.774 14.728,14.728 13.774,14.964 12.480 C 15.017 12.184,15.017 3.816,14.964 3.520 C 14.733 2.250,13.766 1.268,12.537 1.052 C 12.224 0.998,3.751 0.998,3.449 1.053 M12.504 2.059 C 13.098 2.243,13.550 2.626,13.803 3.160 C 14.011 3.600,14.000 3.329,14.000 8.000 C 14.000 12.648,14.010 12.399,13.811 12.825 C 13.528 13.429,13.034 13.822,12.385 13.960 C 12.109 14.018,3.893 14.019,3.617 13.960 C 3.124 13.856,2.754 13.630,2.442 13.243 C 2.296 13.061,2.105 12.677,2.050 12.453 C 1.996 12.236,1.996 3.764,2.050 3.547 C 2.106 3.320,2.297 2.938,2.447 2.751 C 2.745 2.382,3.211 2.105,3.669 2.028 C 3.741 2.016,5.726 2.008,8.080 2.010 C 12.001 2.014,12.372 2.018,12.504 2.059 M4.167 4.040 C 3.656 4.151,3.203 4.585,3.052 5.105 C 2.981 5.351,2.992 5.699,3.078 5.956 C 3.237 6.432,3.559 6.754,4.045 6.926 L 4.253 7.000 8.000 7.000 L 11.747 7.000 11.955 6.926 C 12.441 6.754,12.763 6.432,12.922 5.956 C 13.008 5.699,13.019 5.351,12.948 5.105 C 12.796 4.578,12.342 4.150,11.820 4.039 C 11.560 3.984,4.421 3.985,4.167 4.040 M11.728 5.064 C 11.782 5.092,11.847 5.137,11.872 5.165 C 11.937 5.237,12.000 5.398,12.000 5.493 C 12.000 5.686,11.827 5.925,11.655 5.973 C 11.526 6.009,4.474 6.009,4.345 5.973 C 4.170 5.925,3.999 5.684,4.001 5.488 C 4.001 5.383,4.079 5.204,4.150 5.143 C 4.307 5.008,4.080 5.016,7.994 5.014 C 11.509 5.013,11.632 5.015,11.728 5.064 M4.110 9.055 C 3.465 9.229,3.010 9.823,3.007 10.494 C 3.006 10.921,3.143 11.250,3.453 11.560 C 3.660 11.767,3.887 11.894,4.167 11.960 C 4.417 12.019,11.583 12.019,11.833 11.960 C 12.113 11.894,12.340 11.767,12.547 11.560 C 12.857 11.250,12.994 10.921,12.993 10.494 C 12.990 9.819,12.530 9.224,11.879 9.054 C 11.650 8.994,4.332 8.996,4.110 9.055 M11.674 10.041 C 12.136 10.234,12.085 10.873,11.599 10.985 C 11.434 11.023,4.566 11.023,4.401 10.985 C 3.924 10.875,3.862 10.256,4.307 10.050 C 4.409 10.003,4.570 10.001,7.994 10.001 C 11.167 10.000,11.586 10.005,11.674 10.041 " fill="#000000" stroke="none" fill-rule="evenodd"></path></svg>