<svg width="16" height="16" viewBox="0 0 16 16" fill="none" xmlns="http://www.w3.org/2000/svg"><path d="M3.449 1.053 C 3.174 1.103,2.930 1.188,2.636 1.338 C 1.785 1.771,1.213 2.552,1.036 3.520 C 0.983 3.816,0.983 12.184,1.036 12.480 C 1.272 13.774,2.226 14.728,3.520 14.964 C 3.816 15.017,12.184 15.017,12.480 14.964 C 13.774 14.728,14.728 13.774,14.964 12.480 C 15.017 12.184,15.017 3.816,14.964 3.520 C 14.733 2.250,13.766 1.268,12.537 1.052 C 12.224 0.998,3.751 0.998,3.449 1.053 M12.504 2.059 C 13.098 2.243,13.550 2.626,13.803 3.160 C 14.011 3.600,14.000 3.329,14.000 8.000 C 14.000 12.648,14.010 12.399,13.811 12.825 C 13.528 13.429,13.034 13.822,12.385 13.960 C 12.109 14.018,3.893 14.019,3.617 13.960 C 3.124 13.856,2.754 13.630,2.442 13.243 C 2.296 13.061,2.105 12.677,2.050 12.453 C 1.996 12.236,1.996 3.764,2.050 3.547 C 2.106 3.320,2.297 2.938,2.447 2.751 C 2.745 2.382,3.211 2.105,3.669 2.028 C 3.741 2.016,5.726 2.008,8.080 2.010 C 12.001 2.014,12.372 2.018,12.504 2.059 M11.108 3.054 C 10.588 3.197,10.165 3.636,10.041 4.161 C 9.980 4.421,9.980 11.579,10.041 11.839 C 10.107 12.118,10.231 12.338,10.440 12.547 C 10.750 12.857,11.079 12.994,11.506 12.993 C 12.159 12.991,12.700 12.596,12.926 11.955 L 13.000 11.747 13.000 8.000 L 13.000 4.253 12.926 4.045 C 12.749 3.544,12.365 3.181,11.879 3.054 C 11.688 3.004,11.290 3.004,11.108 3.054 M11.674 4.041 C 11.806 4.096,11.890 4.178,11.950 4.307 C 11.997 4.409,11.999 4.569,11.999 8.000 C 11.999 11.412,11.996 11.592,11.950 11.694 C 11.775 12.078,11.254 12.101,11.066 11.732 C 11.014 11.631,11.013 11.559,11.013 8.000 C 11.013 4.492,11.015 4.368,11.064 4.272 C 11.183 4.039,11.437 3.942,11.674 4.041 " fill="black" stroke="none" fill-rule="evenodd"></path></svg>