<svg width="14" height="14" viewBox="0 0 14 14" xmlns="http://www.w3.org/2000/svg"><path d="M2.395 1.030 C 2.010 1.075,1.758 1.201,1.469 1.491 C 1.254 1.708,1.141 1.902,1.059 2.193 C 1.018 2.337,1.015 2.543,1.008 6.020 C 1.000 9.850,1.005 10.085,1.098 10.442 C 1.273 11.109,1.809 11.672,2.462 11.876 C 2.838 11.992,2.835 11.992,7.000 11.992 C 11.165 11.992,11.162 11.992,11.538 11.876 C 11.850 11.778,12.111 11.617,12.363 11.365 C 12.735 10.993,12.915 10.595,12.973 10.013 C 13.005 9.687,13.005 5.512,12.972 5.208 C 12.908 4.606,12.713 4.189,12.325 3.823 C 11.976 3.493,11.671 3.347,11.165 3.264 C 11.060 3.247,10.443 3.234,9.432 3.227 L 7.862 3.215 7.491 2.477 C 7.246 1.991,7.081 1.691,7.007 1.599 C 6.801 1.344,6.510 1.151,6.192 1.057 C 6.068 1.021,5.889 1.016,4.317 1.013 C 3.361 1.010,2.496 1.018,2.395 1.030 M6.023 2.060 C 6.179 2.138,6.250 2.238,6.499 2.733 L 6.744 3.220 4.376 3.220 L 2.007 3.220 2.007 2.923 C 2.007 2.553,2.035 2.375,2.111 2.260 C 2.186 2.147,2.319 2.058,2.452 2.032 C 2.509 2.021,3.316 2.013,4.247 2.015 C 5.823 2.018,5.944 2.021,6.023 2.060 M11.130 4.268 C 11.526 4.359,11.860 4.696,11.950 5.098 C 11.975 5.211,11.982 5.702,11.982 7.607 C 11.982 10.151,11.982 10.132,11.861 10.383 C 11.774 10.562,11.543 10.787,11.359 10.873 C 11.078 11.003,11.129 11.002,7.000 11.002 C 2.871 11.002,2.922 11.003,2.641 10.873 C 2.365 10.745,2.122 10.443,2.050 10.138 C 2.029 10.053,2.020 9.252,2.013 7.122 L 2.005 4.222 6.503 4.230 C 10.013 4.237,11.030 4.245,11.130 4.268 " stroke="none" fill-rule="evenodd" fill="black"></path></svg>