<svg width="14" height="14" viewBox="0 0 14 14" xmlns="http://www.w3.org/2000/svg"><path d="M6.090 1.019 C 4.749 1.148,3.616 1.657,2.698 2.543 C 2.203 3.021,1.870 3.474,1.575 4.072 C 1.309 4.610,1.150 5.110,1.057 5.697 C 0.992 6.106,0.999 6.979,1.070 7.381 C 1.345 8.933,2.190 10.231,3.488 11.094 C 4.178 11.553,5.112 11.883,5.969 11.972 C 6.349 12.011,7.079 11.988,7.432 11.925 C 9.632 11.535,11.357 9.950,11.879 7.840 C 11.922 7.667,11.960 7.521,11.964 7.515 C 11.967 7.510,12.035 7.569,12.116 7.646 C 12.334 7.855,12.525 7.889,12.753 7.757 C 12.883 7.683,12.974 7.539,12.990 7.386 C 13.014 7.156,13.000 7.138,12.323 6.456 C 11.970 6.101,11.661 5.809,11.608 5.781 C 11.487 5.718,11.290 5.716,11.172 5.777 C 11.054 5.838,9.864 7.020,9.814 7.126 C 9.737 7.290,9.776 7.540,9.900 7.673 C 10.038 7.820,10.306 7.872,10.477 7.784 C 10.522 7.761,10.650 7.651,10.763 7.541 C 10.875 7.430,10.967 7.350,10.967 7.362 C 10.966 7.430,10.815 7.944,10.742 8.128 C 10.132 9.662,8.780 10.724,7.144 10.957 C 6.815 11.004,6.219 11.003,5.892 10.955 C 4.395 10.737,3.129 9.821,2.472 8.482 C 2.284 8.096,2.196 7.852,2.115 7.488 C 1.974 6.851,1.970 6.179,2.104 5.553 C 2.297 4.652,2.814 3.763,3.496 3.159 C 4.883 1.931,6.857 1.656,8.505 2.460 C 9.285 2.841,9.888 3.379,10.365 4.118 C 10.488 4.309,10.550 4.371,10.669 4.421 C 11.032 4.572,11.427 4.243,11.342 3.859 C 11.292 3.637,10.869 3.056,10.453 2.638 C 9.536 1.716,8.352 1.155,7.050 1.027 C 6.826 1.005,6.280 1.000,6.090 1.019 M6.388 3.242 C 6.265 3.282,6.159 3.365,6.096 3.473 L 6.032 3.582 6.032 5.110 L 6.032 6.638 6.097 6.750 C 6.157 6.851,6.245 6.916,7.066 7.460 C 8.076 8.130,8.119 8.151,8.335 8.088 C 8.431 8.060,8.487 8.025,8.558 7.948 C 8.731 7.760,8.748 7.526,8.604 7.319 C 8.578 7.283,8.213 7.023,7.791 6.742 L 7.025 6.231 7.018 4.891 L 7.012 3.551 6.941 3.449 C 6.902 3.394,6.826 3.324,6.773 3.295 C 6.665 3.235,6.485 3.211,6.388 3.242 " stroke="none" fill-rule="evenodd" fill="black"></path></svg>