<svg width="16" height="16" viewBox="0 0 16 16" xmlns="http://www.w3.org/2000/svg"><path d="M4.889 2.028 C 4.562 2.093,4.214 2.372,4.108 2.655 C 4.077 2.739,4.039 2.899,4.024 3.011 C 4.007 3.142,4.001 4.961,4.006 8.147 L 4.013 13.080 4.074 13.258 C 4.177 13.563,4.412 13.802,4.731 13.929 C 4.927 14.007,5.294 14.006,5.494 13.926 C 5.740 13.828,5.974 13.683,9.600 11.386 C 13.548 8.886,13.541 8.890,13.710 8.716 C 13.939 8.482,14.038 8.157,13.981 7.827 C 13.924 7.492,13.764 7.277,13.387 7.023 C 12.916 6.706,5.941 2.300,5.747 2.196 C 5.414 2.019,5.173 1.972,4.889 2.028 " stroke="none" fill-rule="evenodd" fill="black"></path></svg>