<svg width="21" height="21" viewBox="0 0 21 21" xmlns="http://www.w3.org/2000/svg"><path d="M5.180 2.031 C 4.479 2.073,4.137 2.150,3.707 2.365 C 2.995 2.721,2.410 3.410,2.178 4.165 C 2.012 4.710,2.013 4.678,2.013 10.500 C 2.013 16.322,2.012 16.290,2.178 16.835 C 2.461 17.760,3.240 18.539,4.165 18.822 C 4.710 18.988,4.678 18.988,10.500 18.988 C 16.320 18.988,16.288 18.988,16.835 18.822 C 17.740 18.547,18.547 17.740,18.822 16.835 C 18.986 16.297,18.988 16.240,18.988 11.620 L 18.988 7.263 18.889 6.983 C 18.699 6.445,18.672 6.415,16.611 4.355 C 14.761 2.506,14.671 2.421,14.399 2.282 C 13.836 1.994,14.199 2.015,9.660 2.009 C 7.437 2.007,5.421 2.016,5.180 2.031 M5.994 4.419 C 6.011 5.969,6.020 6.043,6.232 6.373 C 6.434 6.687,6.759 6.899,7.144 6.965 C 7.299 6.991,8.376 7.000,10.640 6.993 L 13.913 6.983 14.114 6.901 C 14.514 6.740,14.802 6.428,14.928 6.020 C 14.974 5.871,14.992 5.642,15.006 5.010 L 15.024 4.192 16.399 5.567 C 17.496 6.663,17.794 6.981,17.873 7.137 L 17.973 7.333 17.973 11.690 C 17.973 16.511,17.979 16.372,17.749 16.827 C 17.516 17.288,17.037 17.714,16.596 17.851 C 16.328 17.934,15.847 17.990,15.393 17.990 L 15.018 17.990 15.007 15.076 C 14.996 12.381,14.991 12.148,14.932 11.973 C 14.782 11.524,14.462 11.210,14.013 11.071 C 13.821 11.012,13.595 11.008,10.500 11.008 C 7.405 11.008,7.179 11.012,6.987 11.071 C 6.533 11.211,6.219 11.519,6.068 11.973 C 6.009 12.148,6.004 12.381,5.993 15.076 L 5.982 17.990 5.607 17.990 C 5.153 17.990,4.672 17.934,4.404 17.851 C 3.963 17.714,3.484 17.288,3.251 16.827 C 3.018 16.365,3.028 16.641,3.028 10.500 C 3.028 4.282,3.014 4.627,3.278 4.124 C 3.531 3.643,4.069 3.215,4.550 3.112 C 4.823 3.053,5.184 3.020,5.606 3.015 L 5.979 3.010 5.994 4.419 M13.835 3.111 L 14.003 3.194 13.993 4.484 L 13.983 5.773 13.887 5.869 C 13.811 5.945,13.746 5.969,13.555 5.990 C 13.245 6.024,7.755 6.024,7.445 5.990 C 7.254 5.969,7.189 5.945,7.113 5.869 L 7.018 5.773 7.007 4.391 L 6.997 3.009 10.332 3.018 L 13.668 3.028 13.835 3.111 M13.768 12.038 C 13.817 12.057,13.885 12.115,13.919 12.168 C 13.979 12.259,13.983 12.437,13.992 15.127 L 14.002 17.990 10.500 17.990 L 6.998 17.990 7.008 15.127 C 7.017 12.434,7.021 12.259,7.081 12.168 C 7.116 12.115,7.179 12.057,7.221 12.040 C 7.327 11.998,13.656 11.996,13.768 12.038 " stroke="none" fill-rule="evenodd" fill="black"></path></svg>