<svg width="14" height="14" viewBox="0 0 14 14" xmlns="http://www.w3.org/2000/svg"><path d="M3.202 1.028 C 2.551 1.078,2.131 1.259,1.714 1.668 C 1.318 2.057,1.131 2.424,1.047 2.975 C 1.000 3.285,1.000 10.715,1.047 11.025 C 1.124 11.532,1.301 11.902,1.638 12.262 C 1.998 12.648,2.428 12.870,2.975 12.953 C 3.285 13.000,10.715 13.000,11.025 12.953 C 11.572 12.870,12.002 12.648,12.362 12.262 C 12.699 11.902,12.876 11.532,12.953 11.025 C 13.000 10.715,13.000 3.285,12.953 2.975 C 12.869 2.424,12.682 2.057,12.286 1.668 C 11.856 1.246,11.461 1.081,10.751 1.027 C 10.385 0.999,3.567 1.000,3.202 1.028 M11.017 2.059 C 11.479 2.172,11.856 2.561,11.949 3.022 C 11.989 3.217,12.008 10.313,11.971 10.727 C 11.939 11.074,11.904 11.197,11.788 11.377 C 11.599 11.668,11.340 11.859,11.023 11.940 C 10.872 11.979,10.618 11.982,7.000 11.982 C 3.382 11.982,3.128 11.979,2.977 11.940 C 2.659 11.859,2.402 11.670,2.215 11.382 C 2.100 11.204,2.060 11.069,2.031 10.768 C 2.000 10.456,2.000 3.544,2.031 3.232 C 2.060 2.932,2.100 2.796,2.213 2.622 C 2.329 2.443,2.443 2.329,2.622 2.213 C 2.790 2.104,2.941 2.057,3.202 2.031 C 3.308 2.021,5.075 2.014,7.128 2.016 C 10.488 2.020,10.877 2.024,11.017 2.059 M5.553 4.034 C 5.257 4.131,5.051 4.364,4.994 4.665 C 4.979 4.744,4.970 5.604,4.970 7.004 C 4.970 9.460,4.969 9.435,5.117 9.643 C 5.276 9.866,5.460 9.967,5.730 9.982 C 5.890 9.991,5.939 9.984,6.057 9.936 C 6.187 9.883,9.350 7.868,9.641 7.653 C 9.891 7.467,10.001 7.240,9.981 6.947 C 9.967 6.736,9.900 6.589,9.752 6.444 C 9.636 6.330,6.390 4.230,6.129 4.099 C 6.011 4.040,5.953 4.027,5.799 4.021 C 5.696 4.018,5.585 4.023,5.553 4.034 M7.249 5.988 C 7.940 6.432,8.577 6.842,8.665 6.899 L 8.825 7.002 7.411 7.911 C 6.633 8.411,5.991 8.820,5.985 8.820 C 5.979 8.820,5.973 8.001,5.973 7.000 C 5.973 5.999,5.978 5.180,5.983 5.180 C 5.988 5.180,6.558 5.544,7.249 5.988 " stroke="none" fill-rule="evenodd" fill="black"></path></svg>