<svg width="16" height="16" viewBox="0 0 16 16" xmlns="http://www.w3.org/2000/svg"><path d="M3.108 1.054 C 2.865 1.121,2.635 1.258,2.440 1.453 C 1.656 2.236,1.975 3.559,3.035 3.925 L 3.213 3.987 8.000 3.987 L 12.787 3.987 12.965 3.925 C 14.025 3.559,14.343 2.237,13.560 1.453 C 13.360 1.253,13.135 1.121,12.880 1.053 C 12.669 0.997,3.313 0.998,3.108 1.054 M12.687 2.041 C 12.741 2.064,12.807 2.103,12.835 2.128 C 12.973 2.252,13.027 2.519,12.951 2.701 C 12.907 2.805,12.747 2.951,12.646 2.980 C 12.551 3.006,3.449 3.006,3.354 2.980 C 3.262 2.954,3.103 2.815,3.052 2.717 C 2.968 2.555,3.025 2.254,3.165 2.128 C 3.311 1.996,3.066 2.002,7.994 2.001 C 12.070 2.000,12.599 2.005,12.687 2.041 M3.449 5.053 C 3.174 5.103,2.930 5.188,2.636 5.338 C 1.785 5.771,1.213 6.552,1.036 7.520 C 0.983 7.812,0.983 12.188,1.036 12.480 C 1.272 13.774,2.226 14.728,3.520 14.964 C 3.816 15.017,12.184 15.017,12.480 14.964 C 13.774 14.728,14.728 13.774,14.964 12.480 C 14.993 12.321,15.000 11.811,15.000 10.000 C 15.000 7.554,15.000 7.554,14.861 7.107 C 14.534 6.055,13.614 5.241,12.537 5.052 C 12.224 4.998,3.751 4.998,3.449 5.053 M12.504 6.059 C 13.098 6.243,13.550 6.626,13.803 7.160 C 14.002 7.580,14.000 7.558,14.000 10.000 C 14.000 12.424,14.000 12.419,13.811 12.825 C 13.528 13.429,13.034 13.822,12.385 13.960 C 12.109 14.018,3.893 14.019,3.617 13.960 C 2.966 13.822,2.479 13.438,2.199 12.840 C 2.004 12.426,2.013 12.563,2.013 10.000 C 2.013 7.437,2.004 7.574,2.199 7.160 C 2.478 6.565,3.035 6.135,3.669 6.028 C 3.741 6.016,5.726 6.008,8.080 6.010 C 12.001 6.014,12.372 6.018,12.504 6.059 " fill="#000000" stroke="none" fill-rule="evenodd"></path></svg>