<svg width="14" height="14" viewBox="0 0 14 14" xmlns="http://www.w3.org/2000/svg"><path d="M6.650 1.018 C 5.413 1.174,4.397 1.898,3.832 3.022 C 3.534 3.616,3.439 4.046,3.406 4.943 C 3.374 5.804,3.316 6.252,3.159 6.857 C 3.012 7.424,2.841 7.820,2.474 8.447 C 2.357 8.646,2.207 8.918,2.140 9.051 C 2.020 9.290,2.018 9.297,2.018 9.506 C 2.018 9.698,2.025 9.730,2.088 9.843 C 2.176 10.003,2.327 10.136,2.481 10.190 C 2.596 10.230,2.821 10.232,7.000 10.232 C 11.179 10.232,11.404 10.230,11.519 10.190 C 11.673 10.136,11.824 10.003,11.912 9.843 C 11.975 9.731,11.982 9.697,11.982 9.508 C 11.982 9.252,11.964 9.212,11.527 8.447 C 11.199 7.876,11.033 7.514,10.910 7.109 C 10.714 6.460,10.627 5.867,10.594 4.961 C 10.582 4.607,10.557 4.264,10.535 4.142 C 10.253 2.553,9.122 1.354,7.630 1.062 C 7.438 1.024,6.820 0.997,6.650 1.018 M7.583 2.073 C 8.315 2.266,8.901 2.747,9.258 3.446 C 9.505 3.931,9.561 4.193,9.590 4.998 C 9.650 6.627,9.916 7.652,10.580 8.809 C 10.716 9.046,10.827 9.245,10.827 9.251 C 10.827 9.258,9.105 9.263,7.000 9.263 C 4.895 9.263,3.173 9.258,3.173 9.251 C 3.173 9.245,3.284 9.046,3.420 8.809 C 3.778 8.186,3.967 7.726,4.142 7.058 C 4.305 6.437,4.378 5.877,4.410 4.998 C 4.439 4.193,4.495 3.931,4.742 3.446 C 4.937 3.064,5.196 2.752,5.520 2.508 C 5.870 2.244,6.180 2.113,6.673 2.021 C 6.818 1.994,7.412 2.028,7.583 2.073 M5.461 11.483 C 5.348 11.528,5.244 11.628,5.189 11.746 C 5.085 11.970,5.133 12.157,5.347 12.354 C 5.633 12.619,5.978 12.807,6.385 12.920 C 6.593 12.978,6.652 12.984,7.000 12.984 C 7.348 12.984,7.407 12.978,7.615 12.920 C 8.022 12.807,8.367 12.619,8.653 12.354 C 8.872 12.152,8.918 11.962,8.803 11.735 C 8.718 11.568,8.587 11.476,8.415 11.462 C 8.244 11.448,8.152 11.483,7.964 11.634 C 7.661 11.877,7.349 11.993,7.000 11.993 C 6.654 11.993,6.334 11.875,6.049 11.643 C 5.968 11.578,5.866 11.509,5.822 11.490 C 5.731 11.452,5.547 11.448,5.461 11.483 " stroke="none" fill-rule="evenodd" fill="black"></path></svg>