<svg width="14" height="14" viewBox="0 0 14 14" xmlns="http://www.w3.org/2000/svg"><path d="M6.440 1.027 C 5.941 1.078,5.356 1.210,4.935 1.365 C 4.563 1.503,4.027 1.776,3.694 1.999 C 2.783 2.608,2.091 3.394,1.623 4.349 C 1.407 4.788,1.304 5.068,1.190 5.517 C 1.046 6.088,1.016 6.345,1.016 7.000 C 1.016 7.438,1.026 7.637,1.058 7.852 C 1.113 8.205,1.254 8.765,1.365 9.067 C 1.565 9.610,1.944 10.281,2.320 10.757 C 2.498 10.982,3.018 11.502,3.243 11.680 C 3.719 12.056,4.390 12.435,4.933 12.635 C 5.235 12.746,5.795 12.887,6.148 12.942 C 6.363 12.974,6.562 12.984,7.000 12.984 C 7.655 12.984,7.912 12.954,8.483 12.810 C 8.932 12.696,9.212 12.593,9.651 12.377 C 10.829 11.800,11.800 10.829,12.377 9.651 C 12.593 9.212,12.696 8.932,12.810 8.483 C 12.954 7.912,12.984 7.655,12.984 7.000 C 12.984 6.345,12.954 6.088,12.810 5.517 C 12.696 5.068,12.593 4.788,12.377 4.349 C 11.507 2.572,9.824 1.354,7.835 1.060 C 7.549 1.018,6.719 0.998,6.440 1.027 M7.517 2.031 C 8.461 2.126,9.405 2.516,10.150 3.121 C 10.361 3.292,10.733 3.665,10.900 3.873 C 12.474 5.840,12.334 8.694,10.575 10.485 C 9.753 11.322,8.725 11.828,7.561 11.969 C 7.306 12.000,6.694 12.000,6.439 11.969 C 5.475 11.853,4.520 11.446,3.815 10.851 C 2.653 9.870,2.007 8.495,2.007 7.000 C 2.007 5.637,2.546 4.364,3.527 3.411 C 4.314 2.646,5.381 2.144,6.452 2.032 C 6.726 2.004,7.240 2.003,7.517 2.031 M5.155 4.604 C 4.914 4.672,4.754 4.809,4.645 5.040 C 4.563 5.216,4.561 5.485,4.640 5.663 C 4.702 5.801,4.902 6.004,5.029 6.057 C 5.408 6.215,5.837 6.071,6.025 5.724 C 6.147 5.499,6.153 5.232,6.042 5.002 C 5.982 4.879,5.793 4.700,5.658 4.641 C 5.525 4.582,5.293 4.565,5.155 4.604 M8.446 4.604 C 8.303 4.644,8.192 4.716,8.074 4.843 C 7.912 5.020,7.846 5.243,7.889 5.477 C 7.982 5.981,8.494 6.256,8.971 6.057 C 9.098 6.004,9.298 5.801,9.360 5.663 C 9.439 5.484,9.437 5.216,9.354 5.039 C 9.269 4.857,9.166 4.749,8.999 4.667 C 8.828 4.583,8.608 4.558,8.446 4.604 M4.621 7.633 C 4.357 7.738,4.230 8.061,4.351 8.318 C 4.375 8.370,4.517 8.533,4.665 8.681 C 5.169 9.184,5.742 9.500,6.400 9.640 C 6.736 9.711,7.264 9.711,7.600 9.640 C 8.258 9.500,8.831 9.184,9.335 8.681 C 9.483 8.533,9.625 8.370,9.649 8.318 C 9.795 8.008,9.587 7.639,9.250 7.611 C 9.062 7.596,8.943 7.650,8.783 7.824 C 8.358 8.285,7.916 8.549,7.385 8.659 C 7.119 8.714,6.881 8.714,6.615 8.659 C 6.092 8.551,5.632 8.279,5.239 7.847 C 5.163 7.762,5.058 7.674,5.006 7.651 C 4.904 7.604,4.714 7.595,4.621 7.633 " stroke="none" fill-rule="evenodd" fill="black"></path></svg>