<svg width="14" height="14" viewBox="0 0 14 14" xmlns="http://www.w3.org/2000/svg"><path d="M3.488 1.029 C 2.864 1.081,2.428 1.248,1.983 1.604 C 1.421 2.054,1.100 2.680,1.027 3.465 C 0.995 3.812,0.995 10.188,1.027 10.535 C 1.091 11.223,1.327 11.752,1.773 12.204 C 2.170 12.606,2.605 12.831,3.205 12.945 C 3.401 12.982,3.702 12.985,7.000 12.985 C 10.941 12.985,10.729 12.992,11.203 12.843 C 11.957 12.605,12.605 11.957,12.843 11.203 C 12.992 10.729,12.985 10.941,12.985 7.000 C 12.985 3.059,12.992 3.271,12.843 2.797 C 12.678 2.274,12.298 1.775,11.827 1.465 C 11.575 1.297,11.443 1.233,11.200 1.156 C 10.750 1.014,10.902 1.020,7.152 1.014 C 5.265 1.011,3.617 1.018,3.488 1.029 M10.617 3.070 C 10.751 3.132,10.868 3.249,10.930 3.383 L 10.978 3.488 10.978 7.000 L 10.978 10.512 10.930 10.617 C 10.867 10.751,10.750 10.869,10.620 10.926 C 10.457 10.998,9.892 11.011,7.000 11.011 C 4.108 11.011,3.543 10.998,3.380 10.926 C 3.250 10.869,3.133 10.751,3.070 10.617 L 3.022 10.512 3.022 7.000 L 3.022 3.488 3.070 3.383 C 3.164 3.181,3.327 3.061,3.547 3.032 C 3.617 3.023,5.213 3.017,7.093 3.019 C 10.507 3.022,10.512 3.022,10.617 3.070 M5.361 4.364 C 4.975 4.461,4.673 4.812,4.620 5.227 C 4.591 5.455,4.591 8.545,4.620 8.773 C 4.666 9.132,4.875 9.420,5.203 9.576 C 5.344 9.643,5.373 9.648,5.612 9.648 C 5.852 9.648,5.878 9.644,6.026 9.573 C 6.234 9.475,6.418 9.291,6.517 9.083 L 6.592 8.925 6.592 7.000 L 6.592 5.075 6.517 4.917 C 6.421 4.714,6.244 4.536,6.037 4.434 C 5.900 4.367,5.853 4.356,5.664 4.349 C 5.545 4.345,5.409 4.352,5.361 4.364 M8.116 4.371 C 7.850 4.446,7.609 4.655,7.481 4.923 L 7.408 5.075 7.408 7.000 L 7.408 8.925 7.483 9.083 C 7.582 9.291,7.766 9.475,7.974 9.573 C 8.122 9.644,8.148 9.648,8.388 9.648 C 8.627 9.648,8.656 9.643,8.797 9.576 C 9.125 9.420,9.334 9.132,9.380 8.773 C 9.409 8.545,9.409 5.455,9.380 5.227 C 9.334 4.869,9.124 4.579,8.800 4.426 C 8.676 4.368,8.616 4.355,8.438 4.348 C 8.307 4.343,8.183 4.352,8.116 4.371 " stroke="none" fill-rule="evenodd" fill="black"></path></svg>