<svg width="16" height="16" viewBox="0 0 16 16" fill="none" xmlns="http://www.w3.org/2000/svg"><path d="M3.449 1.053 C 3.174 1.103,2.930 1.188,2.636 1.338 C 1.785 1.771,1.213 2.552,1.036 3.520 C 0.983 3.816,0.983 12.184,1.036 12.480 C 1.272 13.774,2.226 14.728,3.520 14.964 C 3.816 15.017,12.184 15.017,12.480 14.964 C 13.774 14.728,14.728 13.774,14.964 12.480 C 15.017 12.184,15.017 3.816,14.964 3.520 C 14.733 2.250,13.766 1.268,12.537 1.052 C 12.224 0.998,3.751 0.998,3.449 1.053 M12.504 2.059 C 13.098 2.243,13.550 2.626,13.803 3.160 C 14.011 3.600,14.000 3.329,14.000 8.000 C 14.000 12.648,14.010 12.399,13.811 12.825 C 13.528 13.429,13.034 13.822,12.385 13.960 C 12.109 14.018,3.893 14.019,3.617 13.960 C 3.124 13.856,2.754 13.630,2.442 13.243 C 2.296 13.061,2.105 12.677,2.050 12.453 C 1.996 12.236,1.996 3.764,2.050 3.547 C 2.106 3.320,2.297 2.938,2.447 2.751 C 2.745 2.382,3.211 2.105,3.669 2.028 C 3.741 2.016,5.726 2.008,8.080 2.010 C 12.001 2.014,12.372 2.018,12.504 2.059 M10.480 8.558 C 9.588 8.747,8.869 9.414,8.597 10.307 C 8.530 10.526,8.523 10.585,8.522 10.987 C 8.520 11.369,8.528 11.454,8.581 11.637 C 8.793 12.368,9.252 12.924,9.907 13.241 C 10.313 13.438,10.504 13.480,11.000 13.480 C 11.496 13.480,11.687 13.438,12.093 13.241 C 12.748 12.923,13.207 12.368,13.419 11.637 C 13.471 11.457,13.480 11.365,13.480 11.000 C 13.480 10.635,13.471 10.543,13.419 10.363 C 13.093 9.237,12.130 8.503,10.987 8.509 C 10.825 8.510,10.611 8.531,10.480 8.558 M11.413 9.565 C 11.893 9.696,12.298 10.104,12.441 10.599 C 12.502 10.810,12.502 11.190,12.441 11.401 C 12.285 11.941,11.844 12.351,11.293 12.467 C 11.059 12.516,10.941 12.516,10.707 12.467 C 10.156 12.351,9.715 11.941,9.558 11.400 C 9.493 11.174,9.499 10.786,9.571 10.560 C 9.821 9.776,10.616 9.346,11.413 9.565 " fill="#000000" stroke="none" fill-rule="evenodd"></path></svg>