<svg width="16" height="16" viewBox="0 0 16 16" fill="none" xmlns="http://www.w3.org/2000/svg"><path d="M3.449 1.053 C 3.174 1.103,2.930 1.188,2.636 1.338 C 1.785 1.771,1.213 2.552,1.036 3.520 C 0.983 3.816,0.983 12.184,1.036 12.480 C 1.272 13.774,2.226 14.728,3.520 14.964 C 3.816 15.017,12.184 15.017,12.480 14.964 C 13.774 14.728,14.728 13.774,14.964 12.480 C 15.017 12.184,15.017 3.816,14.964 3.520 C 14.733 2.250,13.766 1.268,12.537 1.052 C 12.224 0.998,3.751 0.998,3.449 1.053 M12.504 2.059 C 13.098 2.243,13.550 2.626,13.803 3.160 C 14.011 3.600,14.000 3.329,14.000 8.000 C 14.000 12.648,14.010 12.399,13.811 12.825 C 13.528 13.429,13.034 13.822,12.385 13.960 C 12.109 14.018,3.893 14.019,3.617 13.960 C 3.124 13.856,2.754 13.630,2.442 13.243 C 2.296 13.061,2.105 12.677,2.050 12.453 C 1.996 12.236,1.996 3.764,2.050 3.547 C 2.106 3.320,2.297 2.938,2.447 2.751 C 2.745 2.382,3.211 2.105,3.669 2.028 C 3.741 2.016,5.726 2.008,8.080 2.010 C 12.001 2.014,12.372 2.018,12.504 2.059 M7.338 3.520 C 7.014 3.568,6.643 3.839,6.380 4.220 C 5.755 5.127,5.418 6.818,5.515 8.553 C 5.562 9.385,5.641 9.890,5.826 10.532 C 6.154 11.670,6.675 12.345,7.332 12.483 C 7.654 12.550,8.074 12.417,8.358 12.158 C 8.951 11.615,9.409 10.357,9.509 8.994 L 9.528 8.748 9.617 8.827 C 9.753 8.946,9.862 8.993,10.004 8.993 C 10.246 8.993,10.456 8.811,10.495 8.568 C 10.529 8.354,10.490 8.297,9.870 7.670 C 9.553 7.350,9.255 7.071,9.208 7.050 C 9.160 7.030,9.067 7.013,9.000 7.013 C 8.933 7.013,8.840 7.030,8.792 7.050 C 8.745 7.071,8.447 7.350,8.130 7.670 C 7.510 8.297,7.471 8.354,7.505 8.568 C 7.544 8.811,7.754 8.993,7.996 8.993 C 8.144 8.993,8.253 8.943,8.406 8.805 L 8.515 8.707 8.499 8.987 C 8.481 9.298,8.384 9.853,8.279 10.240 C 8.104 10.891,7.742 11.493,7.528 11.493 C 7.341 11.493,7.029 11.009,6.840 10.424 C 6.597 9.670,6.523 9.106,6.523 8.000 C 6.523 6.894,6.597 6.330,6.840 5.576 C 7.032 4.982,7.341 4.507,7.533 4.507 C 7.664 4.507,7.846 4.731,8.043 5.135 C 8.137 5.327,8.241 5.510,8.274 5.541 C 8.368 5.629,8.555 5.686,8.687 5.667 C 8.853 5.642,9.014 5.509,9.075 5.346 C 9.133 5.189,9.123 5.088,9.026 4.864 C 8.594 3.869,8.029 3.419,7.338 3.520 " fill="#000000" stroke="none" fill-rule="evenodd"></path></svg>