<svg width="14" height="14" viewBox="0 0 14 14" xmlns="http://www.w3.org/2000/svg"><path d="M1.801 1.029 C 1.627 1.082,1.469 1.316,1.471 1.519 C 1.472 1.699,1.533 1.772,2.421 2.651 L 3.278 3.500 3.127 3.632 C 2.822 3.898,2.128 4.616,1.900 4.900 C 1.500 5.400,1.152 5.914,1.063 6.137 C 1.038 6.198,1.016 6.329,1.010 6.452 C 0.992 6.786,1.071 6.969,1.490 7.556 C 2.742 9.308,4.281 10.435,5.876 10.766 C 6.342 10.862,6.548 10.883,7.023 10.881 C 7.941 10.878,8.729 10.678,9.589 10.229 L 9.879 10.078 10.090 10.283 C 10.207 10.396,10.627 10.811,11.025 11.205 C 11.505 11.680,11.778 11.934,11.835 11.957 C 11.946 12.003,12.111 12.003,12.222 11.957 C 12.482 11.848,12.602 11.522,12.472 11.271 C 12.428 11.185,2.325 1.136,2.217 1.070 C 2.124 1.014,1.917 0.993,1.801 1.029 M6.358 2.151 C 6.044 2.186,5.892 2.295,5.819 2.535 C 5.784 2.654,5.794 2.766,5.851 2.882 C 5.959 3.101,6.165 3.190,6.462 3.146 C 6.703 3.111,7.354 3.119,7.630 3.160 C 9.048 3.373,10.427 4.312,11.555 5.833 C 11.799 6.162,11.993 6.459,11.993 6.501 C 11.993 6.548,11.606 7.114,11.378 7.400 C 11.128 7.715,11.097 7.773,11.097 7.933 C 11.098 8.217,11.313 8.429,11.599 8.427 C 11.831 8.425,11.923 8.345,12.343 7.782 C 12.649 7.372,12.876 7.018,12.940 6.848 C 12.974 6.760,12.985 6.672,12.985 6.487 C 12.985 6.268,12.978 6.227,12.920 6.103 C 12.619 5.459,11.640 4.285,10.850 3.622 C 10.529 3.353,9.957 2.964,9.613 2.782 C 8.997 2.454,8.329 2.241,7.654 2.157 C 7.360 2.120,6.658 2.117,6.358 2.151 M5.044 5.556 C 4.878 5.899,4.842 6.069,4.842 6.498 C 4.842 6.933,4.878 7.101,5.051 7.455 C 5.569 8.517,6.878 8.964,7.951 8.445 L 8.150 8.349 8.637 8.835 C 8.904 9.102,9.123 9.328,9.123 9.336 C 9.123 9.364,8.640 9.574,8.373 9.662 C 7.738 9.871,7.145 9.934,6.508 9.859 C 5.604 9.753,4.737 9.367,3.885 8.689 C 3.541 8.415,2.985 7.853,2.676 7.467 C 2.406 7.129,2.007 6.553,2.007 6.500 C 2.007 6.426,2.477 5.765,2.821 5.355 C 3.061 5.070,3.511 4.620,3.778 4.400 L 3.997 4.219 4.568 4.789 L 5.138 5.360 5.044 5.556 M6.892 7.089 L 7.402 7.601 7.277 7.632 C 6.780 7.758,6.215 7.508,5.967 7.053 C 5.843 6.825,5.797 6.466,5.859 6.217 L 5.886 6.113 6.134 6.345 C 6.270 6.473,6.611 6.807,6.892 7.089 " stroke="none" fill-rule="evenodd" fill="black"></path></svg>