<svg width="15" height="15" viewBox="0 0 15 15" xmlns="http://www.w3.org/2000/svg"><path d="M5.826 3.033 C 5.779 3.048,5.700 3.100,5.652 3.149 C 5.573 3.228,5.484 3.448,4.861 5.113 L 4.158 6.988 3.243 7.000 L 2.329 7.013 2.223 7.088 C 1.929 7.294,1.929 7.706,2.223 7.913 L 2.329 7.988 3.433 7.995 C 4.663 8.003,4.701 8.000,4.848 7.851 C 4.927 7.772,4.998 7.601,5.463 6.356 C 5.751 5.583,5.993 4.951,6.000 4.951 C 6.007 4.951,6.586 6.483,7.288 8.356 C 8.461 11.491,8.570 11.769,8.655 11.855 C 8.860 12.060,9.232 12.034,9.394 11.802 C 9.429 11.753,9.768 10.880,10.149 9.863 L 10.842 8.013 11.754 8.000 L 12.666 7.988 12.768 7.920 C 12.924 7.817,12.988 7.695,12.988 7.498 C 12.988 7.362,12.976 7.317,12.920 7.233 C 12.884 7.177,12.810 7.104,12.758 7.072 L 12.663 7.013 11.563 7.005 C 10.337 6.997,10.299 7.001,10.152 7.149 C 10.073 7.228,10.002 7.399,9.537 8.644 C 9.249 9.417,9.007 10.049,9.000 10.049 C 8.993 10.049,8.421 8.533,7.728 6.681 C 7.035 4.828,6.441 3.269,6.408 3.217 C 6.298 3.045,6.042 2.964,5.826 3.033 " stroke="none" fill-rule="evenodd" fill="black"></path></svg>