<svg width="14" height="14" viewBox="0 0 14 14" xmlns="http://www.w3.org/2000/svg"><path d="M6.440 1.027 C 5.941 1.078,5.356 1.210,4.935 1.365 C 4.563 1.503,4.027 1.776,3.694 1.999 C 2.783 2.608,2.091 3.394,1.623 4.349 C 1.407 4.788,1.304 5.068,1.190 5.517 C 1.046 6.088,1.016 6.345,1.016 7.000 C 1.016 7.438,1.026 7.637,1.058 7.852 C 1.113 8.205,1.254 8.765,1.365 9.067 C 1.565 9.610,1.944 10.281,2.320 10.757 C 2.498 10.982,3.018 11.502,3.243 11.680 C 3.719 12.056,4.390 12.435,4.933 12.635 C 5.235 12.746,5.795 12.887,6.148 12.942 C 6.363 12.974,6.562 12.984,7.000 12.984 C 7.655 12.984,7.912 12.954,8.483 12.810 C 8.932 12.696,9.212 12.593,9.651 12.377 C 10.829 11.800,11.800 10.829,12.377 9.651 C 12.593 9.212,12.696 8.932,12.810 8.483 C 12.954 7.912,12.984 7.655,12.984 7.000 C 12.984 6.345,12.954 6.088,12.810 5.517 C 12.696 5.068,12.593 4.788,12.377 4.349 C 11.507 2.572,9.824 1.354,7.835 1.060 C 7.549 1.018,6.719 0.998,6.440 1.027 M7.517 2.031 C 8.461 2.126,9.405 2.516,10.150 3.121 C 10.361 3.292,10.733 3.665,10.900 3.873 C 12.474 5.840,12.334 8.694,10.575 10.485 C 9.753 11.322,8.725 11.828,7.561 11.969 C 7.306 12.000,6.694 12.000,6.439 11.969 C 5.475 11.853,4.520 11.446,3.815 10.851 C 2.653 9.870,2.007 8.495,2.007 7.000 C 2.007 5.637,2.546 4.364,3.527 3.411 C 4.314 2.646,5.381 2.144,6.452 2.032 C 6.726 2.004,7.240 2.003,7.517 2.031 M6.533 3.791 C 5.829 3.942,5.243 4.423,4.973 5.072 C 4.882 5.290,4.879 5.409,4.962 5.575 C 5.114 5.879,5.511 5.942,5.745 5.699 C 5.791 5.651,5.864 5.533,5.908 5.437 C 6.024 5.183,6.205 4.996,6.455 4.872 C 6.641 4.780,6.664 4.775,6.901 4.765 C 7.114 4.757,7.175 4.763,7.303 4.806 C 7.609 4.908,7.835 5.107,7.984 5.405 C 8.068 5.574,8.080 5.620,8.091 5.806 C 8.102 6.003,8.099 6.025,8.033 6.166 C 7.884 6.483,7.462 6.807,6.898 7.036 C 6.672 7.127,6.565 7.209,6.508 7.335 C 6.354 7.674,6.601 8.050,6.977 8.050 C 7.069 8.050,7.479 7.888,7.716 7.759 C 8.288 7.446,8.744 7.018,8.939 6.611 C 9.044 6.391,9.100 6.139,9.100 5.890 C 9.100 5.249,8.823 4.665,8.318 4.239 C 8.133 4.084,7.729 3.876,7.490 3.815 C 7.283 3.761,6.736 3.747,6.533 3.791 M6.778 9.302 C 6.667 9.361,6.600 9.431,6.551 9.541 C 6.452 9.762,6.522 10.024,6.717 10.161 C 6.808 10.225,6.835 10.232,6.998 10.232 C 7.156 10.232,7.190 10.224,7.277 10.167 C 7.387 10.094,7.455 9.997,7.493 9.858 C 7.547 9.659,7.429 9.410,7.232 9.309 C 7.120 9.252,6.881 9.248,6.778 9.302 " stroke="none" fill-rule="evenodd" fill="black"></path></svg>