<svg width="14" height="14" viewBox="0 0 14 14" xmlns="http://www.w3.org/2000/svg"><path d="M2.185 1.040 C 1.715 1.154,1.242 1.593,1.069 2.077 L 1.015 2.228 1.015 3.500 L 1.015 4.772 1.070 4.923 C 1.210 5.315,1.578 5.722,1.920 5.865 L 2.007 5.901 2.007 8.280 C 2.007 10.732,2.014 10.973,2.103 11.340 C 2.262 12.002,2.792 12.619,3.388 12.836 C 3.809 12.990,3.688 12.985,7.000 12.985 C 10.312 12.985,10.191 12.990,10.612 12.836 C 11.152 12.639,11.640 12.120,11.843 11.524 C 11.981 11.118,11.977 11.204,11.987 8.442 L 11.995 5.905 12.112 5.846 C 12.482 5.660,12.791 5.312,12.930 4.923 L 12.985 4.772 12.985 3.500 L 12.985 2.228 12.931 2.077 C 12.754 1.583,12.266 1.139,11.789 1.037 C 11.555 0.988,2.391 0.990,2.185 1.040 M11.738 2.090 C 11.793 2.130,11.870 2.207,11.910 2.262 L 11.982 2.361 11.982 3.500 L 11.982 4.639 11.909 4.740 C 11.869 4.796,11.792 4.873,11.738 4.912 L 11.639 4.982 7.000 4.982 L 2.361 4.982 2.262 4.912 C 2.208 4.873,2.131 4.796,2.091 4.740 L 2.018 4.639 2.011 3.550 C 2.006 2.823,2.012 2.433,2.029 2.376 C 2.059 2.275,2.232 2.088,2.340 2.041 C 2.404 2.013,3.102 2.009,7.027 2.013 L 11.639 2.018 11.738 2.090 M10.984 8.453 C 10.975 11.172,10.980 11.072,10.822 11.368 C 10.665 11.663,10.421 11.867,10.138 11.940 C 9.986 11.979,9.780 11.982,7.000 11.982 C 4.220 11.982,4.014 11.979,3.862 11.940 C 3.579 11.867,3.335 11.663,3.178 11.368 C 3.020 11.072,3.025 11.172,3.016 8.453 L 3.008 5.997 7.000 5.997 L 10.992 5.997 10.984 8.453 M5.279 8.061 C 4.974 8.203,4.907 8.612,5.151 8.850 C 5.316 9.011,5.267 9.007,7.000 9.007 C 8.733 9.007,8.684 9.011,8.849 8.850 C 9.093 8.612,9.026 8.203,8.721 8.061 L 8.598 8.004 7.000 8.004 L 5.402 8.004 5.279 8.061 " stroke="none" fill-rule="evenodd" fill="black"></path></svg>