<svg width="16" height="16" viewBox="0 0 16 16" xmlns="http://www.w3.org/2000/svg"><path d="M3.449 1.053 C 3.174 1.103,2.930 1.188,2.636 1.338 C 1.785 1.771,1.213 2.552,1.036 3.520 C 0.983 3.816,0.983 12.184,1.036 12.480 C 1.272 13.774,2.226 14.728,3.520 14.964 C 3.812 15.017,8.188 15.017,8.480 14.964 C 9.774 14.728,10.728 13.774,10.964 12.480 C 11.017 12.184,11.017 3.816,10.964 3.520 C 10.733 2.250,9.766 1.268,8.537 1.052 C 8.228 0.998,3.747 0.999,3.449 1.053 M8.504 2.060 C 9.095 2.241,9.550 2.626,9.803 3.160 C 10.011 3.600,10.000 3.329,10.000 8.000 C 10.000 12.648,10.010 12.399,9.811 12.825 C 9.528 13.429,9.034 13.822,8.385 13.960 C 8.112 14.018,3.890 14.018,3.617 13.960 C 3.124 13.856,2.754 13.630,2.442 13.243 C 2.296 13.061,2.105 12.677,2.050 12.453 C 1.996 12.236,1.996 3.764,2.050 3.547 C 2.106 3.320,2.297 2.938,2.447 2.751 C 2.744 2.382,3.210 2.106,3.669 2.028 C 3.741 2.015,4.826 2.008,6.080 2.010 C 8.118 2.015,8.375 2.020,8.504 2.060 M13.182 2.040 C 12.668 2.152,12.250 2.527,12.075 3.035 L 12.013 3.213 12.013 8.000 L 12.013 12.787 12.075 12.965 C 12.441 14.025,13.763 14.343,14.547 13.560 C 14.746 13.361,14.871 13.155,14.951 12.893 C 14.998 12.741,15.000 12.519,15.000 8.000 C 15.000 3.481,14.998 3.259,14.951 3.107 C 14.873 2.852,14.746 2.640,14.560 2.452 C 14.192 2.082,13.686 1.930,13.182 2.040 M13.728 3.064 C 13.850 3.126,13.906 3.187,13.959 3.313 C 13.995 3.401,14.000 3.931,13.999 8.006 C 13.999 12.435,13.997 12.604,13.949 12.710 C 13.922 12.770,13.859 12.850,13.809 12.888 C 13.722 12.954,13.519 13.019,13.457 13.000 C 13.440 12.995,13.394 12.984,13.354 12.975 C 13.265 12.956,13.104 12.819,13.052 12.717 C 12.995 12.606,12.994 3.395,13.051 3.285 C 13.092 3.207,13.208 3.091,13.293 3.044 C 13.380 2.997,13.617 3.007,13.728 3.064 " fill="#000000" stroke="none" fill-rule="evenodd"></path></svg>