<svg width="14" height="14" viewBox="0 0 14 14" xmlns="http://www.w3.org/2000/svg"><path d="M6.545 2.020 C 6.507 2.026,6.391 2.041,6.288 2.055 C 4.688 2.266,3.114 3.290,1.826 4.958 C 1.551 5.314,1.153 5.919,1.078 6.095 C 1.023 6.225,1.016 6.271,1.016 6.498 C 1.016 6.827,1.047 6.905,1.356 7.376 C 2.718 9.444,4.488 10.717,6.335 10.955 C 6.694 11.002,7.306 11.002,7.665 10.955 C 8.257 10.879,8.843 10.696,9.430 10.402 C 10.628 9.803,11.728 8.767,12.644 7.376 C 12.953 6.905,12.984 6.827,12.984 6.498 C 12.984 6.180,12.950 6.090,12.658 5.644 C 12.237 4.998,11.828 4.496,11.295 3.967 C 10.374 3.052,9.351 2.437,8.307 2.170 C 7.889 2.063,7.587 2.026,7.093 2.018 C 6.830 2.014,6.583 2.015,6.545 2.020 M7.585 3.046 C 8.077 3.115,8.449 3.232,8.948 3.477 C 9.990 3.986,10.976 4.914,11.793 6.153 C 11.903 6.320,11.993 6.477,11.993 6.502 C 11.993 6.568,11.571 7.193,11.278 7.560 C 10.987 7.926,10.468 8.465,10.150 8.732 C 9.341 9.412,8.532 9.802,7.618 9.954 C 7.305 10.006,6.695 10.006,6.382 9.954 C 5.459 9.801,4.662 9.414,3.838 8.721 C 3.530 8.463,3.008 7.920,2.722 7.560 C 2.425 7.188,2.007 6.569,2.007 6.503 C 2.007 6.449,2.332 5.949,2.585 5.615 C 2.970 5.106,3.533 4.517,3.967 4.169 C 4.728 3.558,5.577 3.165,6.393 3.047 C 6.700 3.003,7.269 3.002,7.585 3.046 M6.580 4.329 C 5.710 4.507,5.034 5.199,4.863 6.086 C 4.824 6.288,4.820 6.678,4.855 6.873 C 4.939 7.349,5.145 7.740,5.493 8.086 C 5.910 8.500,6.415 8.709,7.000 8.709 C 7.585 8.709,8.090 8.500,8.507 8.086 C 8.790 7.805,8.944 7.557,9.061 7.198 C 9.144 6.940,9.170 6.774,9.170 6.496 C 9.170 5.431,8.435 4.529,7.400 4.327 C 7.191 4.286,6.785 4.287,6.580 4.329 M7.295 5.329 C 7.577 5.404,7.860 5.625,8.015 5.889 C 8.222 6.243,8.216 6.773,8.001 7.130 C 7.899 7.298,7.670 7.514,7.507 7.594 C 7.436 7.628,7.294 7.673,7.190 7.693 C 7.016 7.728,6.984 7.728,6.810 7.693 C 6.706 7.673,6.562 7.627,6.490 7.592 C 6.330 7.515,6.056 7.246,5.968 7.080 C 5.782 6.731,5.790 6.224,5.985 5.889 C 6.136 5.630,6.421 5.406,6.695 5.330 C 6.839 5.291,7.148 5.290,7.295 5.329 " stroke="none" fill-rule="evenodd" fill="black"></path></svg>