<svg width="16" height="16" viewBox="0 0 16 16" xmlns="http://www.w3.org/2000/svg"><path d="M3.449 1.053 C 3.174 1.103,2.930 1.188,2.636 1.338 C 1.785 1.771,1.213 2.552,1.036 3.520 C 0.983 3.816,0.983 12.184,1.036 12.480 C 1.272 13.774,2.226 14.728,3.520 14.964 C 3.816 15.017,12.184 15.017,12.480 14.964 C 13.774 14.728,14.728 13.774,14.964 12.480 C 15.017 12.184,15.017 3.816,14.964 3.520 C 14.733 2.250,13.766 1.268,12.537 1.052 C 12.224 0.998,3.751 0.998,3.449 1.053 M12.504 2.059 C 13.098 2.243,13.550 2.626,13.803 3.160 C 14.011 3.600,14.000 3.329,14.000 8.000 C 14.000 12.648,14.010 12.399,13.811 12.825 C 13.528 13.429,13.034 13.822,12.385 13.960 C 12.109 14.018,3.893 14.019,3.617 13.960 C 3.124 13.856,2.754 13.630,2.442 13.243 C 2.296 13.061,2.105 12.677,2.050 12.453 C 1.996 12.236,1.996 3.764,2.050 3.547 C 2.106 3.320,2.297 2.938,2.447 2.751 C 2.745 2.382,3.211 2.105,3.669 2.028 C 3.741 2.016,5.726 2.008,8.080 2.010 C 12.001 2.014,12.372 2.018,12.504 2.059 M4.778 3.041 C 4.329 3.101,4.075 3.230,3.733 3.573 C 3.230 4.078,3.060 4.530,3.013 5.493 C 2.981 6.133,2.981 9.867,3.013 10.507 C 3.060 11.470,3.230 11.922,3.733 12.427 C 4.134 12.829,4.410 12.941,5.120 12.987 C 5.333 13.001,6.629 13.012,8.000 13.012 C 9.371 13.012,10.667 13.001,10.880 12.987 C 11.581 12.941,11.864 12.829,12.256 12.440 C 12.518 12.181,12.675 11.945,12.800 11.621 C 12.988 11.136,13.011 10.736,13.011 8.000 C 13.011 5.879,12.990 5.128,12.919 4.787 C 12.820 4.303,12.611 3.913,12.269 3.571 C 12.006 3.308,11.788 3.175,11.477 3.087 L 11.267 3.028 8.107 3.023 C 6.369 3.021,4.871 3.029,4.778 3.041 M11.249 4.063 C 11.510 4.150,11.787 4.476,11.894 4.820 C 11.983 5.112,12.000 5.601,12.000 8.000 C 12.000 10.399,11.983 10.888,11.894 11.180 C 11.784 11.536,11.507 11.855,11.235 11.939 C 11.090 11.984,10.891 11.987,8.000 11.987 C 5.109 11.987,4.910 11.984,4.765 11.939 C 4.579 11.881,4.410 11.737,4.262 11.509 C 4.119 11.288,4.058 11.069,4.027 10.658 C 3.992 10.198,3.992 5.802,4.027 5.342 C 4.058 4.930,4.119 4.711,4.263 4.491 C 4.470 4.175,4.642 4.063,4.973 4.026 C 5.076 4.015,6.498 4.008,8.133 4.010 C 10.912 4.015,11.116 4.018,11.249 4.063 " fill="#000000" stroke="none" fill-rule="evenodd"></path></svg>