<svg width="15" height="15" viewBox="0 0 15 15" xmlns="http://www.w3.org/2000/svg"><path d="M3.425 1.027 C 2.665 1.079,2.174 1.289,1.713 1.763 C 1.353 2.131,1.153 2.528,1.057 3.063 C 1.015 3.296,1.012 3.586,1.012 7.500 C 1.012 12.136,1.005 11.906,1.173 12.394 C 1.385 13.008,1.992 13.615,2.606 13.827 C 3.094 13.995,2.864 13.988,7.500 13.988 C 12.136 13.988,11.906 13.995,12.394 13.827 C 13.008 13.615,13.616 13.008,13.827 12.394 C 13.989 11.922,13.984 12.042,13.994 8.476 C 14.001 5.569,13.998 5.218,13.962 5.038 C 13.909 4.778,13.808 4.540,13.667 4.345 C 13.605 4.258,12.915 3.551,12.133 2.772 C 10.952 1.595,10.683 1.339,10.538 1.255 C 10.330 1.134,10.115 1.059,9.882 1.026 C 9.680 0.996,3.857 0.997,3.425 1.027 M4.000 2.956 C 4.001 4.018,4.014 4.141,4.152 4.400 C 4.302 4.682,4.622 4.913,4.947 4.974 C 5.131 5.009,9.869 5.009,10.053 4.974 C 10.378 4.913,10.698 4.682,10.848 4.400 C 10.966 4.178,10.999 3.978,11.000 3.475 L 11.000 3.038 11.924 3.963 C 12.722 4.763,12.857 4.908,12.917 5.038 L 12.988 5.188 12.987 8.400 C 12.986 11.959,12.990 11.856,12.824 12.192 C 12.669 12.508,12.325 12.804,12.001 12.901 C 11.835 12.950,11.405 13.000,11.144 13.000 L 11.000 13.000 11.000 11.005 C 11.000 9.294,10.995 8.990,10.962 8.863 C 10.849 8.433,10.475 8.098,10.025 8.026 C 9.803 7.991,5.197 7.991,4.975 8.026 C 4.503 8.102,4.114 8.479,4.026 8.947 C 4.010 9.032,4.000 9.813,4.000 11.041 L 4.000 13.000 3.856 13.000 C 3.595 13.000,3.165 12.950,2.999 12.901 C 2.675 12.804,2.331 12.508,2.176 12.192 C 2.005 11.847,2.013 12.062,2.013 7.500 C 2.013 2.932,2.005 3.155,2.178 2.802 C 2.274 2.605,2.573 2.296,2.765 2.194 C 2.988 2.075,3.314 2.019,3.869 2.004 L 4.000 2.000 4.000 2.956 M9.956 2.080 C 10.035 2.117,10.100 2.160,10.100 2.174 C 10.100 2.189,10.080 2.232,10.056 2.268 C 10.018 2.327,10.011 2.428,10.000 3.115 C 9.988 3.837,9.984 3.899,9.940 3.947 L 9.892 4.000 7.500 4.000 L 5.108 4.000 5.060 3.947 C 5.015 3.898,5.012 3.838,5.005 2.947 L 4.998 1.999 7.405 2.006 L 9.813 2.013 9.956 2.080 M9.965 9.061 C 9.994 9.102,10.000 9.414,10.000 11.055 L 10.000 13.000 7.500 13.000 L 5.000 13.000 5.000 11.052 L 5.000 9.104 5.066 9.051 L 5.133 8.999 7.531 9.006 C 9.872 9.012,9.930 9.014,9.965 9.061 " stroke="none" fill-rule="evenodd" fill="black"></path></svg>