<svg width="14" height="14" viewBox="0 0 14 14" xmlns="http://www.w3.org/2000/svg"><path d="M2.866 1.040 C 2.084 1.181,1.385 1.813,1.136 2.602 C 1.012 2.996,1.015 2.895,1.015 7.000 C 1.015 10.071,1.021 10.854,1.046 11.013 C 1.192 11.939,1.830 12.674,2.708 12.928 C 2.932 12.992,3.393 13.012,3.797 12.975 C 4.462 12.914,5.529 12.782,5.696 12.741 C 6.346 12.581,6.897 12.145,7.212 11.543 C 7.402 11.179,7.493 10.804,7.498 10.361 C 7.501 10.073,7.474 9.966,7.366 9.851 C 7.182 9.652,6.818 9.652,6.634 9.851 C 6.537 9.954,6.504 10.077,6.486 10.407 C 6.465 10.768,6.447 10.840,6.319 11.088 C 6.160 11.396,5.878 11.635,5.544 11.747 C 5.481 11.768,5.071 11.828,4.634 11.881 C 3.989 11.959,3.757 11.977,3.407 11.979 L 2.975 11.982 2.788 11.891 C 2.417 11.710,2.122 11.330,2.050 10.939 C 2.003 10.687,2.003 3.313,2.050 3.061 C 2.122 2.670,2.417 2.290,2.788 2.109 L 2.975 2.018 3.383 2.021 C 3.705 2.022,3.967 2.044,4.616 2.121 C 5.069 2.174,5.489 2.235,5.549 2.255 C 5.872 2.362,6.163 2.610,6.319 2.913 C 6.447 3.159,6.465 3.232,6.486 3.593 C 6.510 4.019,6.564 4.141,6.778 4.253 C 6.960 4.349,7.224 4.302,7.366 4.149 C 7.474 4.034,7.501 3.927,7.498 3.639 C 7.486 2.623,6.942 1.765,6.067 1.384 C 5.810 1.272,5.553 1.222,4.760 1.132 C 3.505 0.990,3.221 0.976,2.866 1.040 M9.220 3.375 C 9.004 3.482,8.901 3.716,8.969 3.948 C 9.003 4.066,9.070 4.141,10.167 5.286 L 11.328 6.498 8.167 6.510 C 5.277 6.521,4.999 6.525,4.935 6.560 C 4.704 6.688,4.605 6.968,4.710 7.199 C 4.755 7.298,4.888 7.428,4.990 7.474 C 5.036 7.495,5.832 7.503,8.173 7.508 C 9.889 7.511,11.293 7.520,11.293 7.526 C 11.293 7.533,10.778 8.076,10.149 8.732 C 9.069 9.860,9.003 9.933,8.969 10.052 C 8.882 10.351,9.081 10.648,9.389 10.680 C 9.654 10.707,9.566 10.786,11.320 8.955 C 12.398 7.830,12.922 7.267,12.952 7.201 C 13.008 7.078,13.008 6.922,12.952 6.799 C 12.922 6.733,12.398 6.170,11.321 5.046 C 10.055 3.725,9.715 3.382,9.639 3.352 C 9.499 3.296,9.363 3.303,9.220 3.375 " stroke="none" fill-rule="evenodd" fill="black"></path></svg>