<svg width="14" height="14" viewBox="0 0 14 14" xmlns="http://www.w3.org/2000/svg"><path d="M1.295 1.048 C 0.941 1.212,0.900 1.689,1.221 1.906 C 1.282 1.947,1.378 1.988,1.436 1.996 L 1.540 2.012 1.540 4.558 C 1.540 7.194,1.556 7.821,1.631 8.178 C 1.787 8.927,2.324 9.576,2.973 9.799 C 3.307 9.914,3.425 9.924,4.603 9.938 L 5.718 9.952 4.586 10.999 C 3.964 11.575,3.408 12.096,3.351 12.156 C 3.184 12.334,3.156 12.512,3.261 12.718 C 3.349 12.891,3.477 12.979,3.662 12.992 C 3.770 13.000,3.823 12.991,3.901 12.953 C 3.962 12.923,4.488 12.453,5.238 11.758 L 6.475 10.613 6.487 11.612 C 6.500 12.694,6.500 12.688,6.634 12.830 C 6.840 13.049,7.160 13.049,7.366 12.830 C 7.500 12.688,7.500 12.694,7.513 11.612 L 7.525 10.613 8.762 11.758 C 9.512 12.453,10.038 12.923,10.099 12.953 C 10.177 12.991,10.230 13.000,10.338 12.992 C 10.523 12.979,10.651 12.891,10.739 12.718 C 10.844 12.512,10.816 12.334,10.649 12.156 C 10.592 12.096,10.036 11.575,9.414 10.999 L 8.282 9.952 9.397 9.938 C 10.575 9.924,10.693 9.914,11.027 9.799 C 11.676 9.576,12.213 8.927,12.369 8.178 C 12.444 7.821,12.460 7.194,12.460 4.558 L 12.460 2.012 12.562 1.997 C 12.694 1.977,12.859 1.871,12.925 1.765 C 12.989 1.661,13.012 1.460,12.974 1.343 C 12.935 1.226,12.820 1.099,12.705 1.047 C 12.616 1.006,12.378 1.004,7.000 1.004 C 1.587 1.004,1.385 1.006,1.295 1.048 M11.456 4.486 C 11.454 7.800,11.442 8.034,11.256 8.345 C 11.152 8.518,10.945 8.729,10.806 8.803 C 10.570 8.929,10.710 8.925,7.000 8.925 C 3.290 8.925,3.430 8.929,3.194 8.803 C 3.055 8.729,2.848 8.518,2.744 8.345 C 2.558 8.034,2.546 7.800,2.544 4.498 L 2.543 2.007 7.000 2.007 L 11.457 2.007 11.456 4.486 M8.995 3.492 C 8.886 3.549,8.795 3.643,8.748 3.745 C 8.707 3.833,8.704 3.931,8.704 5.472 C 8.704 7.296,8.696 7.202,8.870 7.366 C 9.143 7.625,9.604 7.478,9.684 7.106 C 9.702 7.026,9.707 6.488,9.702 5.402 C 9.695 3.829,9.695 3.814,9.645 3.722 C 9.582 3.605,9.509 3.536,9.398 3.489 C 9.287 3.443,9.085 3.445,8.995 3.492 M6.828 4.701 C 6.720 4.740,6.597 4.853,6.540 4.968 C 6.502 5.045,6.498 5.139,6.498 6.078 L 6.498 7.105 6.553 7.216 C 6.736 7.588,7.264 7.588,7.447 7.216 L 7.502 7.105 7.502 6.078 C 7.502 4.925,7.506 4.960,7.326 4.797 C 7.187 4.672,7.007 4.637,6.828 4.701 M4.573 5.948 C 4.456 6.012,4.371 6.110,4.329 6.227 C 4.286 6.350,4.279 6.968,4.319 7.127 C 4.388 7.403,4.695 7.561,4.979 7.468 C 5.083 7.433,5.239 7.264,5.273 7.148 C 5.291 7.091,5.297 6.911,5.293 6.650 C 5.284 6.180,5.262 6.107,5.089 5.985 C 5.005 5.926,4.965 5.915,4.823 5.909 C 4.692 5.904,4.637 5.913,4.573 5.948 " stroke="none" fill-rule="evenodd" fill="black"></path></svg>