<svg width="14" height="14" viewBox="0 0 14 14" xmlns="http://www.w3.org/2000/svg"><path d="M6.650 1.018 C 5.945 1.107,5.363 1.358,4.835 1.802 C 4.291 2.258,3.917 2.888,3.750 3.628 C 3.709 3.812,3.702 3.943,3.693 4.679 L 3.683 5.520 3.551 5.551 C 3.233 5.623,2.783 5.905,2.550 6.177 C 2.319 6.447,2.201 6.658,2.114 6.959 C 2.017 7.294,2.002 7.582,2.013 8.902 C 2.022 10.016,2.027 10.132,2.070 10.325 C 2.160 10.722,2.326 11.029,2.611 11.325 C 2.978 11.707,3.398 11.906,3.962 11.967 C 4.295 12.003,9.705 12.003,10.038 11.967 C 10.602 11.906,11.022 11.707,11.389 11.325 C 11.674 11.029,11.840 10.722,11.930 10.325 C 11.973 10.132,11.978 10.016,11.987 8.902 C 11.998 7.582,11.983 7.294,11.886 6.959 C 11.799 6.658,11.681 6.447,11.450 6.177 C 11.212 5.900,10.775 5.629,10.430 5.545 C 10.059 5.455,9.908 5.450,7.263 5.449 L 4.690 5.448 4.690 4.769 C 4.690 3.888,4.725 3.676,4.937 3.259 C 5.050 3.038,5.131 2.922,5.305 2.737 C 5.504 2.524,5.711 2.372,5.985 2.239 C 6.354 2.060,6.541 2.020,7.000 2.020 C 7.331 2.020,7.413 2.028,7.583 2.075 C 8.407 2.301,9.000 2.888,9.239 3.714 C 9.277 3.846,9.328 3.980,9.352 4.012 C 9.476 4.179,9.719 4.261,9.906 4.200 C 10.049 4.153,10.191 4.004,10.234 3.858 C 10.276 3.712,10.260 3.600,10.145 3.255 C 9.777 2.147,8.844 1.320,7.681 1.072 C 7.460 1.025,6.848 0.993,6.650 1.018 M10.057 6.484 C 10.473 6.556,10.837 6.886,10.941 7.287 C 10.973 7.411,10.978 7.612,10.978 8.727 C 10.978 9.887,10.974 10.037,10.938 10.169 C 10.836 10.536,10.538 10.837,10.181 10.933 C 9.954 10.993,9.205 11.012,7.000 11.012 C 4.795 11.012,4.046 10.993,3.819 10.933 C 3.563 10.864,3.305 10.663,3.167 10.426 C 3.025 10.181,3.022 10.147,3.022 8.738 C 3.022 7.358,3.026 7.292,3.144 7.059 C 3.219 6.910,3.457 6.673,3.606 6.597 C 3.778 6.510,3.897 6.484,4.222 6.464 C 4.681 6.435,9.875 6.453,10.057 6.484 " stroke="none" fill-rule="evenodd" fill="black"></path></svg>