<svg width="15" height="15" viewBox="0 0 15 15" xmlns="http://www.w3.org/2000/svg"><path d="M4.150 1.016 C 3.543 1.053,3.136 1.202,2.742 1.532 C 2.446 1.779,2.178 2.210,2.091 2.575 C 2.005 2.933,2.000 3.227,2.000 7.500 C 2.000 11.781,2.005 12.070,2.091 12.425 C 2.207 12.902,2.516 13.332,2.951 13.623 C 3.199 13.789,3.364 13.858,3.688 13.931 C 3.896 13.979,4.016 13.983,5.322 13.993 C 6.906 14.006,6.868 14.009,7.034 13.825 C 7.114 13.737,7.175 13.596,7.175 13.500 C 7.175 13.409,7.116 13.267,7.045 13.186 C 6.886 13.005,6.968 13.014,5.400 12.998 C 4.205 12.985,3.963 12.976,3.831 12.942 C 3.459 12.844,3.153 12.535,3.057 12.162 C 3.015 11.998,3.013 11.727,3.013 7.500 C 3.013 3.273,3.015 3.002,3.057 2.838 C 3.161 2.432,3.493 2.125,3.915 2.045 C 4.052 2.019,4.800 2.013,7.500 2.013 C 11.169 2.013,11.126 2.011,11.382 2.141 C 11.537 2.219,11.723 2.392,11.825 2.549 C 11.984 2.797,11.982 2.773,11.998 5.339 L 12.013 7.666 12.080 7.768 C 12.183 7.924,12.305 7.988,12.502 7.988 C 12.638 7.988,12.683 7.976,12.767 7.920 C 12.823 7.884,12.896 7.810,12.928 7.758 L 12.988 7.663 12.995 5.488 C 13.004 2.798,12.995 2.672,12.762 2.188 C 12.538 1.723,12.083 1.312,11.612 1.150 C 11.215 1.013,11.340 1.017,7.675 1.012 C 5.812 1.010,4.226 1.012,4.150 1.016 M8.912 7.901 C 8.009 8.040,7.227 8.700,6.955 9.550 C 6.867 9.827,6.840 10.002,6.840 10.300 C 6.840 10.598,6.867 10.773,6.955 11.050 C 7.109 11.531,7.467 12.009,7.888 12.292 C 8.659 12.812,9.617 12.865,10.429 12.432 L 10.613 12.334 11.425 13.140 C 12.148 13.857,12.250 13.949,12.350 13.975 C 12.747 14.081,13.081 13.747,12.975 13.350 C 12.949 13.250,12.858 13.150,12.135 12.424 C 11.622 11.908,11.333 11.602,11.348 11.586 C 11.399 11.535,11.573 11.153,11.621 10.988 C 11.781 10.434,11.742 9.832,11.512 9.313 C 11.349 8.945,10.986 8.519,10.642 8.291 C 10.426 8.148,10.108 8.007,9.872 7.950 C 9.630 7.891,9.140 7.866,8.912 7.901 M9.730 8.949 C 9.947 9.017,10.246 9.218,10.387 9.390 C 10.591 9.641,10.724 10.001,10.724 10.300 C 10.724 10.641,10.559 11.037,10.312 11.288 C 9.532 12.079,8.197 11.738,7.888 10.669 C 7.833 10.480,7.833 10.120,7.888 9.931 C 7.975 9.631,8.205 9.301,8.443 9.137 C 8.563 9.053,8.814 8.944,8.959 8.911 C 9.164 8.864,9.514 8.881,9.730 8.949 " stroke="none" fill-rule="evenodd" fill="black"></path></svg>