<svg width="16" height="16" viewBox="0 0 16 16" fill="none" xmlns="http://www.w3.org/2000/svg"><path d="M7.520 2.028 C 6.557 2.148,5.698 2.537,5.064 3.140 C 4.631 3.553,4.351 3.984,4.174 4.512 C 4.025 4.957,4.000 5.197,4.000 6.181 C 4.000 6.847,3.992 7.044,3.967 7.051 C 3.948 7.056,3.856 7.074,3.762 7.092 C 3.103 7.215,2.438 7.783,2.183 8.440 C 2.036 8.820,2.022 8.967,2.008 10.325 C 1.991 11.906,2.020 12.204,2.229 12.662 C 2.351 12.929,2.519 13.156,2.755 13.376 C 3.078 13.676,3.371 13.826,3.839 13.930 C 4.092 13.986,4.112 13.987,8.000 13.987 C 11.888 13.987,11.908 13.986,12.161 13.930 C 12.629 13.826,12.922 13.676,13.245 13.376 C 13.694 12.959,13.902 12.523,13.975 11.845 C 14.022 11.414,13.992 9.146,13.936 8.857 C 13.848 8.406,13.647 8.026,13.323 7.697 C 13.015 7.385,12.655 7.183,12.227 7.084 C 11.991 7.030,11.920 7.029,8.498 7.020 L 5.010 7.011 5.020 6.072 C 5.031 5.013,5.034 4.989,5.238 4.573 C 5.605 3.825,6.297 3.312,7.253 3.079 C 7.493 3.021,8.200 2.997,8.480 3.038 C 9.134 3.134,9.707 3.417,10.154 3.864 C 10.585 4.295,10.852 4.819,11.000 5.528 C 11.037 5.699,11.061 5.753,11.142 5.838 C 11.330 6.036,11.621 6.051,11.817 5.874 C 12.009 5.700,12.035 5.561,11.947 5.166 C 11.593 3.565,10.397 2.388,8.810 2.080 C 8.476 2.015,7.830 1.989,7.520 2.028 M12.004 8.060 C 12.330 8.139,12.569 8.304,12.755 8.577 C 12.967 8.891,12.969 8.900,12.980 10.372 C 12.987 11.204,12.980 11.741,12.962 11.878 C 12.884 12.456,12.468 12.872,11.876 12.964 C 11.528 13.017,4.472 13.017,4.124 12.964 C 3.532 12.872,3.116 12.456,3.038 11.878 C 3.020 11.741,3.013 11.204,3.020 10.372 C 3.029 9.248,3.036 9.059,3.076 8.922 C 3.157 8.644,3.334 8.404,3.580 8.240 C 3.775 8.110,3.957 8.054,4.277 8.027 C 4.411 8.016,6.164 8.009,8.173 8.011 C 11.438 8.016,11.846 8.021,12.004 8.060 " stroke="none" fill-rule="evenodd"></path></svg>