<svg width="15" height="15" viewBox="0 0 15 15" xmlns="http://www.w3.org/2000/svg"><path d="M3.425 1.027 C 2.665 1.079,2.174 1.289,1.713 1.763 C 1.353 2.131,1.153 2.528,1.057 3.063 C 1.015 3.296,1.012 3.586,1.012 7.500 C 1.012 12.136,1.005 11.906,1.173 12.394 C 1.385 13.008,1.992 13.615,2.606 13.827 C 3.094 13.995,2.864 13.988,7.500 13.988 C 12.136 13.988,11.906 13.995,12.394 13.827 C 13.008 13.615,13.615 13.008,13.827 12.394 C 13.995 11.906,13.988 12.136,13.988 7.500 C 13.988 2.864,13.995 3.094,13.827 2.606 C 13.685 2.195,13.301 1.701,12.930 1.452 C 12.519 1.176,12.165 1.069,11.520 1.025 C 11.096 0.996,3.853 0.998,3.425 1.027 M11.835 2.057 C 12.132 2.117,12.330 2.226,12.552 2.448 C 12.777 2.673,12.883 2.869,12.945 3.177 C 12.983 3.370,12.987 3.737,12.987 7.500 C 12.987 11.263,12.983 11.630,12.945 11.823 C 12.890 12.095,12.781 12.313,12.604 12.505 C 12.325 12.808,12.055 12.929,11.563 12.975 C 11.190 13.009,3.810 13.009,3.438 12.975 C 2.945 12.929,2.675 12.808,2.396 12.505 C 2.219 12.313,2.110 12.095,2.055 11.823 C 2.016 11.630,2.013 11.264,2.013 7.500 C 2.013 3.736,2.016 3.370,2.055 3.177 C 2.117 2.868,2.223 2.673,2.448 2.449 C 2.743 2.157,2.961 2.065,3.458 2.026 C 3.598 2.015,5.496 2.008,7.675 2.011 C 11.216 2.016,11.659 2.021,11.835 2.057 M9.650 4.017 C 8.886 4.096,8.247 4.460,7.867 5.033 C 7.522 5.552,7.354 6.056,7.087 7.370 C 6.828 8.646,6.691 9.055,6.394 9.438 C 6.082 9.839,5.497 10.049,4.688 10.050 C 4.450 10.051,4.367 10.061,4.288 10.097 C 3.957 10.250,3.904 10.672,4.183 10.918 C 4.320 11.038,4.431 11.058,4.875 11.042 C 6.361 10.989,7.240 10.381,7.687 9.098 C 7.819 8.718,7.906 8.372,8.063 7.600 C 8.286 6.502,8.370 6.206,8.570 5.813 C 8.708 5.541,8.961 5.273,9.175 5.171 C 9.481 5.024,9.862 4.975,10.298 5.025 L 10.574 5.057 10.707 4.991 C 10.780 4.956,10.863 4.895,10.891 4.857 C 11.080 4.600,11.002 4.248,10.725 4.109 C 10.552 4.022,10.030 3.978,9.650 4.017 " stroke="none" fill-rule="evenodd" fill="black"></path></svg>