<svg width="14" height="14" viewBox="0 0 14 14" xmlns="http://www.w3.org/2000/svg"><path d="M6.148 1.030 C 5.000 1.105,3.866 1.369,3.149 1.728 C 2.703 1.951,2.309 2.289,2.152 2.583 C 1.997 2.874,2.007 2.586,2.007 7.012 C 2.007 11.449,1.996 11.119,2.155 11.422 C 2.249 11.602,2.572 11.930,2.796 12.074 C 3.461 12.503,4.470 12.798,5.763 12.943 C 6.278 13.001,7.722 13.001,8.237 12.943 C 9.530 12.798,10.539 12.503,11.204 12.074 C 11.429 11.930,11.751 11.602,11.847 11.420 C 12.003 11.124,11.993 11.415,11.993 7.000 C 11.993 2.587,12.003 2.874,11.848 2.583 C 11.691 2.289,11.297 1.951,10.851 1.728 C 9.768 1.186,7.927 0.913,6.148 1.030 M7.793 2.030 C 8.352 2.071,8.882 2.147,9.323 2.252 C 10.234 2.466,10.990 2.874,10.990 3.150 C 10.990 3.351,10.548 3.657,9.961 3.861 C 9.459 4.036,8.895 4.159,8.225 4.239 C 7.947 4.272,7.696 4.281,7.000 4.281 C 6.304 4.281,6.053 4.272,5.775 4.239 C 5.109 4.159,4.564 4.042,4.075 3.873 C 3.457 3.661,3.010 3.357,3.010 3.150 C 3.010 2.874,3.766 2.466,4.677 2.252 C 5.098 2.152,5.659 2.069,6.160 2.032 C 6.523 2.004,7.433 2.003,7.793 2.030 M3.815 4.842 C 4.377 5.030,5.008 5.160,5.763 5.242 C 6.064 5.275,6.336 5.285,7.000 5.285 C 7.917 5.285,8.280 5.258,8.960 5.143 C 9.634 5.028,10.293 4.836,10.748 4.621 L 10.990 4.507 10.990 5.783 L 10.990 7.059 10.932 7.145 C 10.859 7.251,10.636 7.413,10.392 7.535 C 9.839 7.812,8.952 8.024,7.992 8.108 C 7.480 8.153,6.520 8.153,6.008 8.108 C 5.100 8.028,4.272 7.838,3.675 7.572 C 3.464 7.477,3.155 7.263,3.078 7.157 L 3.010 7.063 3.010 5.785 L 3.010 4.507 3.252 4.621 C 3.385 4.683,3.638 4.783,3.815 4.842 M3.761 8.677 C 4.313 8.866,4.986 9.006,5.763 9.093 C 6.043 9.125,6.323 9.134,7.000 9.134 C 7.677 9.134,7.957 9.125,8.237 9.093 C 9.277 8.977,10.129 8.765,10.751 8.470 L 10.990 8.356 10.990 9.633 L 10.990 10.909 10.932 10.995 C 10.859 11.101,10.636 11.263,10.392 11.385 C 9.839 11.662,8.952 11.874,7.992 11.958 C 7.480 12.003,6.520 12.003,6.008 11.958 C 5.100 11.878,4.272 11.688,3.675 11.422 C 3.464 11.327,3.155 11.113,3.078 11.007 L 3.010 10.913 3.010 9.635 L 3.010 8.356 3.249 8.470 C 3.381 8.532,3.611 8.626,3.761 8.677 " stroke="none" fill-rule="evenodd" fill="black"></path></svg>