<svg width="14" height="14" viewBox="0 0 14 14" xmlns="http://www.w3.org/2000/svg"><path d="M3.888 1.040 C 3.678 1.091,3.444 1.227,3.268 1.398 C 3.071 1.592,2.582 2.188,2.404 2.453 C 2.158 2.820,2.034 3.230,2.014 3.745 C 2.000 4.113,2.018 4.247,2.170 4.853 C 2.449 5.964,2.833 6.976,3.324 7.890 C 4.659 10.376,6.686 12.154,9.042 12.903 C 9.494 13.047,9.931 13.017,10.352 12.812 C 10.707 12.640,10.850 12.501,11.454 11.749 C 11.857 11.248,11.967 10.987,11.986 10.488 C 12.009 9.923,11.897 9.639,11.410 9.025 C 10.785 8.237,10.493 8.053,9.907 8.079 C 9.517 8.095,9.215 8.245,8.946 8.554 C 8.870 8.640,8.782 8.742,8.750 8.778 L 8.692 8.845 8.467 8.696 C 7.262 7.894,6.340 6.755,5.702 5.276 C 5.532 4.883,5.533 4.874,5.762 4.588 C 5.970 4.329,6.086 4.112,6.164 3.838 C 6.242 3.559,6.237 3.124,6.151 2.839 C 6.076 2.590,6.013 2.462,5.867 2.263 C 5.660 1.983,5.228 1.475,5.087 1.347 C 4.767 1.058,4.304 0.940,3.888 1.040 M4.366 2.047 C 4.433 2.086,4.964 2.710,5.093 2.899 C 5.180 3.028,5.213 3.153,5.213 3.360 C 5.214 3.612,5.166 3.727,4.933 4.025 C 4.822 4.166,4.712 4.320,4.687 4.368 C 4.574 4.591,4.539 4.983,4.611 5.228 C 4.709 5.565,5.066 6.318,5.367 6.825 C 5.851 7.639,6.518 8.425,7.233 9.024 C 7.556 9.295,8.103 9.668,8.334 9.776 C 8.606 9.904,8.873 9.894,9.152 9.748 C 9.282 9.679,9.357 9.608,9.655 9.268 C 9.834 9.065,9.930 9.025,10.097 9.089 C 10.185 9.123,10.247 9.186,10.527 9.528 C 10.937 10.029,10.972 10.095,10.985 10.372 C 10.999 10.679,10.961 10.762,10.600 11.214 C 10.180 11.740,10.036 11.880,9.848 11.943 C 9.628 12.017,9.509 12.009,9.183 11.897 C 6.592 11.009,4.457 8.674,3.430 5.602 C 3.191 4.887,3.030 4.229,3.016 3.908 C 3.003 3.616,3.056 3.336,3.162 3.125 C 3.264 2.926,3.920 2.128,4.047 2.050 C 4.136 1.996,4.277 1.994,4.366 2.047 " stroke="none" fill-rule="evenodd" fill="black"></path></svg>