<svg width="16" height="16" viewBox="0 0 16 16" fill="none" xmlns="http://www.w3.org/2000/svg"><path d="M3.449 1.053 C 3.174 1.103,2.930 1.188,2.636 1.338 C 1.785 1.771,1.213 2.552,1.036 3.520 C 0.983 3.816,0.983 12.184,1.036 12.480 C 1.272 13.774,2.226 14.728,3.520 14.964 C 3.816 15.017,12.184 15.017,12.480 14.964 C 13.774 14.728,14.728 13.774,14.964 12.480 C 15.017 12.184,15.017 3.816,14.964 3.520 C 14.733 2.250,13.766 1.268,12.537 1.052 C 12.224 0.998,3.751 0.998,3.449 1.053 M12.504 2.059 C 13.098 2.243,13.550 2.626,13.803 3.160 C 14.011 3.600,14.000 3.329,14.000 8.000 C 14.000 12.648,14.010 12.399,13.811 12.825 C 13.528 13.429,13.034 13.822,12.385 13.960 C 12.109 14.018,3.893 14.019,3.617 13.960 C 3.124 13.856,2.754 13.630,2.442 13.243 C 2.296 13.061,2.105 12.677,2.050 12.453 C 1.996 12.236,1.996 3.764,2.050 3.547 C 2.106 3.320,2.297 2.938,2.447 2.751 C 2.745 2.382,3.211 2.105,3.669 2.028 C 3.741 2.016,5.726 2.008,8.080 2.010 C 12.001 2.014,12.372 2.018,12.504 2.059 M4.689 6.027 C 3.627 6.209,2.899 7.161,3.016 8.213 C 3.108 9.030,3.646 9.670,4.454 9.924 L 4.653 9.987 8.000 9.987 L 11.347 9.987 11.546 9.924 C 12.204 9.718,12.701 9.239,12.896 8.627 C 13.244 7.532,12.652 6.417,11.542 6.075 L 11.347 6.014 8.080 6.010 C 6.283 6.008,4.757 6.015,4.689 6.027 M11.446 7.114 C 11.931 7.353,12.132 7.947,11.893 8.440 C 11.760 8.715,11.476 8.927,11.162 8.984 C 10.941 9.025,5.058 9.025,4.839 8.984 C 4.216 8.869,3.858 8.253,4.067 7.653 C 4.156 7.397,4.359 7.191,4.633 7.078 L 4.787 7.014 8.027 7.020 L 11.268 7.027 11.446 7.114 " stroke="none" fill-rule="evenodd" fill="black"></path></svg>