<svg width="14" height="14" viewBox="0 0 14 14" xmlns="http://www.w3.org/2000/svg"><path d="M6.734 1.033 C 6.597 1.061,5.411 1.645,5.299 1.740 C 5.196 1.826,5.134 1.966,5.134 2.112 C 5.134 2.398,5.356 2.613,5.651 2.613 C 5.715 2.613,5.895 2.534,6.346 2.310 C 6.681 2.143,6.975 2.007,7.000 2.007 C 7.025 2.007,7.319 2.143,7.654 2.310 C 8.105 2.534,8.285 2.613,8.349 2.613 C 8.643 2.613,8.867 2.399,8.866 2.118 C 8.866 1.966,8.805 1.828,8.701 1.740 C 8.573 1.632,7.406 1.063,7.247 1.031 C 7.086 0.999,6.895 0.999,6.734 1.033 M2.248 3.255 C 1.457 3.654,1.194 3.793,1.145 3.837 C 1.120 3.859,1.079 3.923,1.053 3.977 C 1.009 4.071,1.006 4.127,1.004 4.875 C 1.002 5.774,1.006 5.795,1.177 5.946 C 1.288 6.043,1.350 6.067,1.496 6.067 C 1.699 6.067,1.849 5.977,1.944 5.798 C 1.987 5.718,1.995 5.657,2.003 5.361 C 2.007 5.172,2.015 5.017,2.021 5.017 C 2.026 5.017,2.185 5.094,2.374 5.189 C 2.564 5.283,2.753 5.368,2.795 5.377 C 3.024 5.427,3.305 5.235,3.360 4.991 C 3.394 4.837,3.368 4.717,3.270 4.581 C 3.218 4.509,3.139 4.456,2.910 4.339 L 2.617 4.188 2.894 4.047 C 3.202 3.890,3.253 3.852,3.313 3.733 C 3.409 3.544,3.390 3.342,3.263 3.188 C 3.162 3.065,3.040 3.010,2.873 3.010 C 2.743 3.010,2.703 3.026,2.248 3.255 M10.908 3.049 C 10.659 3.180,10.556 3.485,10.680 3.722 C 10.748 3.853,10.793 3.887,11.106 4.047 L 11.383 4.188 11.089 4.340 C 10.863 4.457,10.781 4.512,10.729 4.583 C 10.632 4.717,10.606 4.837,10.640 4.991 C 10.695 5.235,10.976 5.427,11.205 5.377 C 11.247 5.368,11.436 5.283,11.626 5.189 C 11.815 5.094,11.974 5.017,11.979 5.017 C 11.985 5.017,11.993 5.172,11.997 5.361 C 12.005 5.657,12.013 5.718,12.056 5.798 C 12.151 5.977,12.301 6.067,12.504 6.067 C 12.650 6.067,12.712 6.043,12.823 5.946 C 12.994 5.795,12.998 5.774,12.996 4.875 C 12.993 3.846,13.014 3.901,12.547 3.659 C 12.403 3.585,12.056 3.408,11.776 3.267 C 11.289 3.021,11.260 3.010,11.122 3.011 C 11.038 3.011,10.949 3.027,10.908 3.049 M5.507 5.784 C 5.261 5.864,5.133 6.032,5.133 6.277 C 5.133 6.411,5.189 6.537,5.289 6.630 C 5.325 6.664,5.609 6.819,5.919 6.974 L 6.483 7.257 6.492 7.857 C 6.497 8.232,6.511 8.482,6.527 8.520 C 6.570 8.621,6.701 8.754,6.801 8.800 C 6.990 8.885,7.216 8.836,7.366 8.677 C 7.492 8.543,7.498 8.508,7.508 7.858 L 7.517 7.258 8.081 6.975 C 8.391 6.819,8.675 6.663,8.711 6.630 C 8.811 6.537,8.867 6.411,8.867 6.277 C 8.867 5.983,8.664 5.779,8.371 5.777 C 8.243 5.776,8.203 5.793,7.618 6.090 L 7.000 6.405 6.388 6.095 C 5.764 5.779,5.648 5.738,5.507 5.784 M1.347 7.872 C 1.215 7.921,1.107 8.014,1.052 8.127 C 1.006 8.222,1.003 8.265,1.004 8.880 C 1.005 9.562,1.016 9.667,1.109 9.852 C 1.255 10.143,1.379 10.234,2.166 10.626 C 2.831 10.957,2.872 10.967,3.097 10.863 C 3.317 10.760,3.421 10.523,3.350 10.282 C 3.295 10.093,3.203 10.025,2.567 9.707 L 2.007 9.426 2.007 8.858 C 2.007 8.405,1.999 8.268,1.971 8.187 C 1.932 8.078,1.823 7.949,1.724 7.898 C 1.629 7.848,1.447 7.835,1.347 7.872 M12.378 7.860 C 12.278 7.886,12.225 7.919,12.140 8.007 C 12.007 8.146,11.993 8.224,11.993 8.858 L 11.993 9.426 11.433 9.707 C 11.107 9.870,10.834 10.022,10.780 10.071 C 10.530 10.297,10.595 10.720,10.903 10.863 C 11.128 10.967,11.169 10.957,11.834 10.626 C 12.622 10.234,12.745 10.143,12.892 9.851 C 12.988 9.659,12.999 9.547,12.992 8.840 L 12.985 8.175 12.921 8.079 C 12.809 7.909,12.567 7.812,12.378 7.860 M6.801 10.660 C 6.700 10.706,6.569 10.841,6.529 10.940 C 6.515 10.974,6.498 11.151,6.492 11.334 C 6.486 11.517,6.477 11.667,6.473 11.667 C 6.469 11.667,6.305 11.587,6.109 11.490 C 5.756 11.315,5.750 11.313,5.595 11.321 C 5.404 11.332,5.271 11.413,5.186 11.573 C 5.105 11.725,5.118 11.950,5.216 12.091 C 5.280 12.184,5.344 12.221,6.087 12.594 C 6.787 12.945,6.904 12.997,7.000 12.997 C 7.096 12.997,7.213 12.945,7.913 12.594 C 8.656 12.221,8.720 12.184,8.784 12.091 C 8.882 11.950,8.895 11.725,8.814 11.573 C 8.729 11.413,8.596 11.332,8.405 11.321 C 8.250 11.313,8.244 11.315,7.891 11.490 C 7.695 11.587,7.531 11.667,7.527 11.667 C 7.523 11.667,7.514 11.517,7.508 11.334 C 7.495 10.971,7.477 10.901,7.366 10.783 C 7.216 10.624,6.990 10.575,6.801 10.660 " stroke="none" fill-rule="evenodd" fill="black"></path></svg>