<svg width="14" height="14" viewBox="0 0 14 14" xmlns="http://www.w3.org/2000/svg"><path d="M2.298 2.051 C 2.055 2.163,1.941 2.455,2.043 2.702 C 2.068 2.763,2.703 3.413,4.183 4.894 L 6.288 7.000 4.183 9.106 C 2.703 10.587,2.068 11.237,2.043 11.298 C 1.967 11.482,2.018 11.724,2.161 11.858 C 2.301 11.989,2.526 12.030,2.702 11.957 C 2.762 11.932,3.416 11.294,4.894 9.817 L 7.000 7.712 9.106 9.817 C 10.587 11.297,11.237 11.932,11.298 11.957 C 11.482 12.033,11.724 11.982,11.858 11.839 C 11.989 11.699,12.030 11.474,11.957 11.298 C 11.932 11.238,11.294 10.584,9.817 9.106 L 7.712 7.000 9.817 4.894 C 11.294 3.416,11.932 2.762,11.957 2.702 C 12.030 2.526,11.989 2.301,11.858 2.161 C 11.722 2.017,11.474 1.965,11.297 2.045 C 11.242 2.070,10.463 2.831,9.106 4.186 L 7.000 6.288 4.894 4.186 C 3.537 2.831,2.758 2.070,2.703 2.045 C 2.591 1.995,2.415 1.997,2.298 2.051 " stroke="none" fill-rule="evenodd" fill="black"></path></svg>