<svg width="21" height="21" viewBox="0 0 21 21" xmlns="http://www.w3.org/2000/svg"><path d="M10.291 2.054 C 10.224 2.089,10.133 2.171,10.089 2.236 L 10.010 2.355 10.010 7.329 L 10.010 12.302 7.901 10.197 C 6.741 9.040,5.758 8.075,5.716 8.054 C 5.594 7.992,5.358 8.008,5.232 8.086 C 5.039 8.204,4.947 8.501,5.044 8.691 C 5.099 8.800,10.183 13.889,10.297 13.950 C 10.349 13.977,10.440 14.000,10.500 14.000 C 10.560 14.000,10.651 13.977,10.703 13.950 C 10.817 13.889,15.901 8.800,15.956 8.691 C 16.053 8.501,15.961 8.204,15.768 8.086 C 15.642 8.008,15.406 7.992,15.284 8.054 C 15.242 8.075,14.259 9.040,13.099 10.197 L 10.990 12.302 10.990 7.332 C 10.990 2.468,10.988 2.360,10.922 2.251 C 10.784 2.024,10.512 1.940,10.291 2.054 M2.230 13.082 C 2.177 13.115,2.100 13.210,2.060 13.293 C 1.989 13.439,1.988 13.479,2.005 14.833 C 2.023 16.333,2.052 16.596,2.243 17.046 C 2.601 17.892,3.332 18.567,4.165 18.822 C 4.710 18.988,4.678 18.988,10.500 18.988 C 16.323 18.988,16.291 18.988,16.835 18.822 C 17.667 18.567,18.399 17.890,18.757 17.046 C 18.948 16.596,18.977 16.333,18.995 14.833 C 19.012 13.477,19.011 13.439,18.940 13.292 C 18.847 13.101,18.712 13.020,18.486 13.020 C 18.301 13.020,18.145 13.112,18.050 13.278 C 18.019 13.332,18.002 13.747,17.987 14.770 C 17.965 16.316,17.953 16.419,17.759 16.805 C 17.518 17.287,17.046 17.711,16.596 17.851 C 16.168 17.984,15.911 17.990,10.500 17.990 C 5.089 17.990,4.832 17.984,4.404 17.851 C 3.954 17.711,3.482 17.287,3.241 16.805 C 3.047 16.419,3.035 16.316,3.013 14.770 C 2.998 13.747,2.981 13.332,2.950 13.278 C 2.926 13.236,2.858 13.161,2.798 13.111 C 2.711 13.038,2.653 13.020,2.509 13.021 C 2.400 13.021,2.289 13.046,2.230 13.082 " stroke="none" fill-rule="evenodd" fill="black"></path></svg>