<svg width="15" height="15" viewBox="0 0 15 15" xmlns="http://www.w3.org/2000/svg"><path d="M6.300 1.025 C 4.661 1.196,3.274 1.951,2.241 3.236 C 1.727 3.874,1.302 4.786,1.126 5.625 C 0.993 6.260,0.967 7.077,1.061 7.688 C 1.209 8.645,1.583 9.542,2.155 10.312 C 2.390 10.630,2.852 11.111,3.161 11.362 C 4.307 12.291,5.821 12.768,7.250 12.651 C 8.437 12.554,9.528 12.134,10.425 11.430 L 10.588 11.302 11.913 12.624 C 13.115 13.823,13.248 13.949,13.350 13.976 C 13.746 14.080,14.080 13.746,13.976 13.350 C 13.949 13.248,13.823 13.115,12.624 11.913 L 11.302 10.588 11.430 10.425 C 12.396 9.196,12.830 7.578,12.611 6.025 C 12.378 4.375,11.439 2.894,10.038 1.964 C 9.353 1.510,8.509 1.188,7.675 1.063 C 7.359 1.015,6.595 0.995,6.300 1.025 M7.289 2.027 C 8.757 2.170,10.068 2.957,10.865 4.175 C 11.400 4.994,11.653 5.848,11.653 6.838 C 11.653 7.651,11.494 8.322,11.134 9.029 C 10.754 9.774,10.156 10.439,9.459 10.890 C 8.316 11.630,6.904 11.852,5.586 11.501 C 4.015 11.082,2.765 9.902,2.249 8.351 C 1.493 6.082,2.530 3.586,4.673 2.513 C 5.229 2.235,5.706 2.102,6.463 2.016 C 6.633 1.997,7.034 2.002,7.289 2.027 " stroke="none" fill-rule="evenodd" fill="black"></path></svg>