<svg width="15" height="15" viewBox="0 0 15 15" xmlns="http://www.w3.org/2000/svg"><path d="M7.278 1.066 C 7.056 1.176,6.959 1.401,7.024 1.650 C 7.051 1.753,7.265 1.974,9.670 4.381 L 12.286 7.000 6.808 7.006 L 1.329 7.013 1.223 7.088 C 0.929 7.294,0.929 7.706,1.223 7.913 L 1.329 7.988 6.808 7.994 L 12.286 8.000 9.670 10.619 C 7.265 13.026,7.051 13.247,7.024 13.350 C 6.920 13.748,7.252 14.080,7.650 13.976 C 7.754 13.949,8.003 13.706,10.807 10.904 C 12.481 9.231,13.879 7.823,13.913 7.774 C 13.990 7.664,14.014 7.497,13.976 7.350 C 13.949 7.246,13.705 6.996,10.892 4.181 C 8.515 1.802,7.810 1.110,7.714 1.062 C 7.556 0.983,7.443 0.984,7.278 1.066 " stroke="none" fill-rule="evenodd" fill="black"></path></svg>