<svg width="12" height="12" viewBox="0 0 12 12" xmlns="http://www.w3.org/2000/svg"><path d="M9.590 0.021 C 9.280 0.069,8.981 0.187,8.690 0.375 C 8.581 0.445,7.777 1.239,5.108 3.908 C 1.485 7.531,1.560 7.452,1.403 7.786 C 1.274 8.058,0.013 11.373,0.004 11.463 C -0.024 11.755,0.245 12.024,0.537 11.996 C 0.641 11.985,3.990 10.706,4.248 10.578 C 4.335 10.535,4.465 10.458,4.538 10.407 C 4.622 10.348,5.904 9.080,8.102 6.882 C 11.667 3.317,11.614 3.372,11.778 3.046 C 12.375 1.853,11.708 0.401,10.410 0.069 C 10.185 0.011,9.797 -0.012,9.590 0.021 M10.125 1.029 C 10.446 1.097,10.729 1.320,10.877 1.620 C 11.038 1.949,11.038 2.271,10.878 2.600 C 10.798 2.763,10.771 2.794,10.192 3.376 L 9.588 3.983 8.834 3.178 C 8.419 2.735,8.080 2.367,8.080 2.361 C 8.080 2.354,8.339 2.092,8.655 1.778 C 9.159 1.278,9.248 1.198,9.376 1.132 C 9.618 1.007,9.862 0.974,10.125 1.029 M8.131 3.890 L 8.880 4.690 6.455 7.116 C 4.840 8.731,3.990 9.567,3.910 9.620 C 3.827 9.674,3.419 9.841,2.592 10.160 C 1.934 10.414,1.391 10.618,1.387 10.614 C 1.371 10.598,2.304 8.206,2.364 8.111 C 2.430 8.005,7.336 3.075,7.366 3.085 C 7.375 3.088,7.719 3.451,8.131 3.890 M6.332 11.031 C 6.218 11.073,6.128 11.149,6.065 11.256 C 6.018 11.336,6.010 11.372,6.010 11.500 C 6.010 11.628,6.018 11.664,6.065 11.744 C 6.096 11.796,6.151 11.861,6.187 11.889 C 6.340 12.006,6.195 12.000,8.999 12.000 C 11.891 12.000,11.691 12.011,11.851 11.851 C 12.046 11.655,12.046 11.345,11.851 11.149 C 11.690 10.989,11.893 11.000,8.991 11.001 C 6.803 11.003,6.398 11.007,6.332 11.031 " stroke="none" fill-rule="evenodd" fill="black"></path></svg>