<svg width="16" height="16" viewBox="0 0 16 16" xmlns="http://www.w3.org/2000/svg"><path d="M11.969 1.332 C 11.625 1.395,11.297 1.536,10.987 1.755 C 10.833 1.863,8.514 4.149,3.299 9.333 C 1.391 11.229,1.478 11.097,1.296 12.360 C 1.052 14.047,0.987 14.570,1.010 14.667 C 1.040 14.799,1.092 14.874,1.200 14.942 C 1.327 15.021,1.570 15.015,2.387 14.909 C 3.610 14.750,4.530 14.564,4.820 14.416 C 4.920 14.366,5.766 13.528,8.499 10.769 C 10.451 8.799,12.328 6.918,12.671 6.589 C 14.177 5.144,14.313 4.996,14.495 4.601 C 14.656 4.254,14.702 4.037,14.701 3.627 C 14.701 3.315,14.691 3.235,14.630 3.032 C 14.501 2.603,14.302 2.276,13.983 1.972 C 13.882 1.875,13.742 1.757,13.671 1.709 C 13.500 1.592,13.145 1.428,12.947 1.374 C 12.762 1.324,12.157 1.298,11.969 1.332 M12.653 2.307 C 12.926 2.364,13.160 2.489,13.349 2.678 C 13.770 3.099,13.873 3.761,13.603 4.307 C 13.487 4.540,13.387 4.646,12.333 5.649 L 11.827 6.131 10.833 5.139 C 10.287 4.593,9.840 4.140,9.840 4.131 C 9.840 4.121,10.215 3.758,10.673 3.322 C 11.432 2.600,11.526 2.520,11.720 2.425 C 12.032 2.271,12.315 2.236,12.653 2.307 M10.173 5.813 L 11.160 6.800 7.773 10.188 C 5.911 12.052,4.345 13.599,4.293 13.626 C 4.083 13.735,3.809 13.789,2.922 13.894 C 2.425 13.952,2.015 13.997,2.011 13.993 C 1.992 13.974,2.248 12.227,2.295 12.055 C 2.325 11.946,2.399 11.760,2.461 11.642 C 2.568 11.433,2.671 11.327,5.853 8.127 C 7.657 6.312,9.145 4.827,9.160 4.827 C 9.175 4.827,9.631 5.271,10.173 5.813 M8.307 14.038 C 8.206 14.083,8.065 14.230,8.028 14.328 C 7.931 14.586,8.099 14.911,8.367 14.985 C 8.433 15.004,9.490 15.013,11.482 15.013 C 14.803 15.013,14.668 15.020,14.845 14.849 C 14.963 14.734,15.024 14.538,14.985 14.395 C 14.950 14.263,14.816 14.111,14.680 14.050 C 14.579 14.004,14.416 14.001,11.480 14.002 C 8.949 14.002,8.372 14.009,8.307 14.038 " stroke="none" fill-rule="evenodd" fill="black"></path></svg>