<svg width="15" height="15" viewBox="0 0 15 15" xmlns="http://www.w3.org/2000/svg"><path d="M3.068 5.037 L 2.000 7.075 2.000 9.537 L 2.000 12.000 4.500 12.000 L 7.000 12.000 7.000 9.537 L 7.000 7.075 5.313 7.075 C 4.384 7.075,3.625 7.071,3.625 7.065 C 3.625 7.060,4.087 6.174,4.652 5.096 C 5.218 4.019,5.696 3.107,5.716 3.069 L 5.751 3.000 4.944 3.000 L 4.136 3.000 3.068 5.037 M9.054 5.045 L 8.000 7.090 8.000 9.545 L 8.000 12.000 10.500 12.000 L 13.000 12.000 13.000 9.550 L 13.000 7.100 11.310 7.100 C 9.727 7.100,9.621 7.097,9.636 7.057 C 9.652 7.015,11.189 4.031,11.542 3.356 L 11.729 3.000 10.918 3.000 L 10.108 3.000 9.054 5.045 " stroke="none" fill-rule="evenodd" fill="black"></path></svg>