<svg width="16" height="16" viewBox="0 0 16 16" xmlns="http://www.w3.org/2000/svg"><path d="M3.587 1.031 C 2.798 1.100,2.313 1.314,1.814 1.813 C 1.358 2.269,1.149 2.692,1.050 3.365 C 1.010 3.633,1.004 4.094,0.994 7.506 C 0.980 12.274,0.994 12.681,1.196 13.250 C 1.320 13.600,1.498 13.871,1.814 14.186 C 2.129 14.502,2.400 14.680,2.750 14.804 C 3.063 14.915,3.356 14.959,3.973 14.987 C 4.741 15.022,6.285 15.020,6.454 14.984 C 6.894 14.890,6.993 14.334,6.616 14.079 L 6.520 14.013 5.053 13.997 C 4.205 13.988,3.523 13.969,3.437 13.952 C 3.005 13.871,2.809 13.770,2.520 13.480 C 2.167 13.128,2.076 12.895,2.027 12.224 C 1.991 11.728,1.991 4.272,2.027 3.776 C 2.076 3.105,2.167 2.872,2.520 2.520 C 2.872 2.167,3.105 2.076,3.776 2.027 C 4.270 1.992,11.782 1.991,12.275 2.027 C 12.478 2.042,12.725 2.072,12.825 2.095 C 13.162 2.171,13.523 2.437,13.747 2.773 C 14.009 3.167,14.030 3.333,14.051 5.122 L 14.067 6.524 14.138 6.632 C 14.266 6.825,14.524 6.903,14.740 6.812 C 14.867 6.759,14.926 6.704,14.996 6.573 C 15.053 6.468,15.053 6.452,15.047 5.133 C 15.040 3.714,15.019 3.361,14.918 2.963 C 14.718 2.172,14.059 1.459,13.280 1.189 C 12.795 1.022,13.065 1.030,8.160 1.026 C 5.703 1.023,3.645 1.026,3.587 1.031 M6.904 6.302 C 6.652 6.396,6.462 6.582,6.374 6.819 C 6.309 6.990,6.306 7.160,6.361 7.374 C 6.423 7.615,8.662 14.361,8.734 14.523 C 8.974 15.067,9.639 15.234,10.059 14.857 C 10.134 14.789,10.239 14.667,10.291 14.585 C 10.344 14.503,10.710 13.835,11.106 13.099 L 11.826 11.762 13.026 11.117 C 13.686 10.762,14.345 10.405,14.490 10.323 C 14.824 10.133,15.019 9.933,15.083 9.714 C 15.170 9.414,15.075 9.040,14.864 8.855 C 14.664 8.679,14.714 8.697,8.653 6.692 C 7.568 6.333,7.402 6.285,7.213 6.276 C 7.074 6.269,6.966 6.278,6.904 6.302 M10.673 8.415 C 12.444 9.000,13.893 9.487,13.893 9.496 C 13.893 9.506,13.303 9.830,12.580 10.217 C 11.426 10.835,11.250 10.938,11.120 11.068 C 10.992 11.197,10.884 11.382,10.270 12.530 C 9.883 13.252,9.557 13.834,9.547 13.822 C 9.529 13.802,8.473 10.627,7.692 8.245 C 7.527 7.741,7.405 7.334,7.422 7.340 C 7.439 7.346,8.902 7.829,10.673 8.415 " stroke="none" fill-rule="evenodd" fill="black"></path></svg>