<svg width="16" height="16" viewBox="0 0 16 16" xmlns="http://www.w3.org/2000/svg"><path d="M0.993 8.007 L 1.000 15.000 3.000 15.000 L 5.000 15.000 5.007 8.007 L 5.013 1.013 3.000 1.013 L 0.987 1.013 0.993 8.007 M6.000 8.013 L 6.000 15.013 8.000 15.013 L 10.000 15.013 10.000 8.013 L 10.000 1.013 8.000 1.013 L 6.000 1.013 6.000 8.013 M10.993 8.007 L 11.000 15.000 13.000 15.000 L 15.000 15.000 15.007 8.007 L 15.013 1.013 13.000 1.013 L 10.987 1.013 10.993 8.007 M4.000 8.000 L 4.000 14.000 3.000 14.000 L 2.000 14.000 2.000 8.000 L 2.000 2.000 3.000 2.000 L 4.000 2.000 4.000 8.000 M8.987 8.000 L 8.987 14.000 8.000 14.000 L 7.013 14.000 7.013 8.000 L 7.013 2.000 8.000 2.000 L 8.987 2.000 8.987 8.000 M14.000 8.000 L 14.000 14.000 13.000 14.000 L 12.000 14.000 12.000 8.000 L 12.000 2.000 13.000 2.000 L 14.000 2.000 14.000 8.000 " stroke="none" fill-rule="evenodd" fill="black"></path></svg>