<svg width="17" height="17" viewBox="0 0 17 17" xmlns="http://www.w3.org/2000/svg"><path d="M4.987 5.496 L 4.987 7.989 3.492 7.997 L 1.997 8.004 1.997 8.500 L 1.997 8.996 3.492 9.003 L 4.987 9.011 4.987 11.504 L 4.987 13.997 5.992 13.997 L 6.998 13.997 6.998 11.503 L 6.998 9.010 8.500 9.010 L 10.002 9.010 10.002 10.512 L 10.002 12.014 11.000 12.007 L 11.999 11.999 12.007 10.505 L 12.014 9.011 13.508 9.003 L 15.002 8.996 15.002 8.500 L 15.002 8.004 13.508 7.997 L 12.013 7.989 12.013 6.502 L 12.013 5.015 11.008 5.015 L 10.002 5.015 10.002 6.502 L 10.002 7.990 8.500 7.990 L 6.998 7.990 6.998 5.497 L 6.998 3.003 5.992 3.003 L 4.987 3.003 4.987 5.496 " stroke="none" fill-rule="evenodd" fill="black"></path></svg>