<svg width="16" height="16" viewBox="0 0 16 16" xmlns="http://www.w3.org/2000/svg"><path d="M3.387 1.044 C 2.855 1.100,2.446 1.254,2.061 1.544 C 1.587 1.901,1.260 2.382,1.124 2.920 C 1.001 3.408,1.000 3.443,1.000 8.000 C 1.000 12.557,1.001 12.592,1.124 13.080 C 1.339 13.932,2.069 14.662,2.920 14.876 C 3.409 14.999,3.444 15.000,8.000 15.000 C 12.552 15.000,12.588 14.999,13.080 14.877 C 13.912 14.670,14.670 13.912,14.877 13.080 C 14.999 12.588,15.000 12.552,15.000 8.000 C 15.000 3.443,14.999 3.408,14.876 2.920 C 14.740 2.382,14.413 1.901,13.939 1.544 C 13.540 1.244,13.147 1.100,12.564 1.041 C 12.222 1.007,3.719 1.009,3.387 1.044 M7.493 8.002 L 7.493 14.004 5.487 13.992 C 3.248 13.980,3.255 13.980,2.881 13.796 C 2.613 13.664,2.335 13.385,2.201 13.114 C 2.004 12.715,2.014 12.992,2.014 8.000 C 2.014 3.006,2.004 3.286,2.201 2.885 C 2.321 2.643,2.609 2.345,2.844 2.220 C 3.215 2.023,3.404 2.009,5.700 2.004 L 7.493 2.000 7.493 8.002 M12.320 2.027 C 12.745 2.059,12.936 2.103,13.156 2.220 C 13.365 2.331,13.669 2.635,13.780 2.844 C 13.976 3.214,13.999 3.524,14.000 5.780 L 14.000 7.493 11.253 7.493 L 8.507 7.493 8.507 4.747 L 8.507 2.000 10.233 2.000 C 11.183 2.000,12.122 2.012,12.320 2.027 M14.000 10.220 C 14.000 11.958,13.978 12.554,13.906 12.837 C 13.808 13.221,13.483 13.617,13.119 13.796 C 12.745 13.980,12.752 13.980,10.513 13.992 L 8.507 14.004 8.507 11.255 L 8.507 8.507 11.253 8.507 L 14.000 8.507 14.000 10.220 " stroke="none" fill-rule="evenodd" fill="black"></path></svg>