<svg width="15" height="15" viewBox="0 0 15 15" xmlns="http://www.w3.org/2000/svg"><path d="M3.378 1.028 C 2.717 1.075,2.330 1.219,1.880 1.582 C 1.580 1.825,1.282 2.251,1.165 2.602 C 1.011 3.064,1.012 3.025,1.012 6.000 C 1.012 8.975,1.011 8.936,1.165 9.398 C 1.372 10.020,1.979 10.628,2.602 10.835 C 3.033 10.979,3.100 10.983,5.131 10.994 L 7.000 11.003 7.000 12.001 L 7.000 12.998 5.669 13.005 L 4.338 13.013 4.227 13.075 C 3.968 13.221,3.924 13.646,4.145 13.857 C 4.300 14.007,4.145 14.000,7.509 13.999 C 10.437 13.999,10.592 13.997,10.688 13.953 C 10.908 13.852,11.019 13.656,10.991 13.416 C 10.972 13.252,10.906 13.150,10.774 13.075 L 10.663 13.013 9.331 13.005 L 8.000 12.998 8.000 12.001 L 8.000 11.003 9.869 10.994 C 11.488 10.985,11.769 10.978,11.971 10.941 C 12.601 10.827,13.079 10.547,13.463 10.066 C 13.776 9.676,13.925 9.262,13.976 8.643 C 13.994 8.423,14.000 7.469,13.994 5.788 C 13.984 3.032,13.985 3.051,13.835 2.602 C 13.675 2.120,13.282 1.648,12.798 1.355 C 12.459 1.150,12.148 1.067,11.563 1.025 C 11.141 0.995,3.797 0.997,3.378 1.028 M11.810 2.057 C 12.391 2.175,12.828 2.616,12.944 3.202 C 12.982 3.391,12.986 3.678,12.986 6.000 C 12.986 8.853,12.988 8.823,12.831 9.157 C 12.676 9.486,12.328 9.801,12.011 9.899 C 11.684 10.000,11.526 10.003,7.338 9.994 C 3.716 9.985,3.294 9.980,3.131 9.943 C 2.809 9.871,2.565 9.719,2.285 9.417 C 2.040 9.155,2.035 9.136,1.999 8.463 C 1.955 7.650,2.003 3.485,2.060 3.190 C 2.122 2.860,2.294 2.574,2.564 2.351 C 2.819 2.140,3.054 2.059,3.497 2.026 C 3.643 2.015,5.529 2.008,7.688 2.011 C 11.190 2.016,11.634 2.021,11.810 2.057 " stroke="none" fill-rule="evenodd" fill="black"></path></svg>