<svg width="16" height="16" viewBox="0 0 16 16" xmlns="http://www.w3.org/2000/svg"><path d="M11.360 1.069 C 11.221 1.152,9.368 3.007,9.286 3.145 C 9.068 3.513,9.372 3.945,9.804 3.881 C 9.929 3.863,9.952 3.844,10.513 3.285 L 11.093 2.708 11.093 4.003 C 11.093 5.454,11.098 5.502,11.265 5.648 C 11.508 5.861,11.846 5.818,12.029 5.551 L 12.093 5.457 12.101 4.084 L 12.109 2.710 12.674 3.272 C 13.282 3.876,13.335 3.912,13.563 3.886 C 13.781 3.862,13.959 3.685,13.990 3.462 C 14.023 3.217,14.021 3.214,12.937 2.125 C 12.385 1.570,11.889 1.093,11.834 1.065 C 11.699 0.994,11.482 0.996,11.360 1.069 M3.397 1.655 C 2.863 1.685,2.613 1.745,2.261 1.926 C 1.733 2.197,1.276 2.750,1.123 3.302 C 1.002 3.737,1.000 3.827,1.000 7.813 C 1.000 11.794,1.003 11.890,1.122 12.321 C 1.303 12.974,1.866 13.582,2.514 13.826 C 2.959 13.993,2.784 13.987,7.240 13.987 C 11.096 13.987,11.304 13.984,11.505 13.937 C 12.432 13.720,13.155 12.970,13.322 12.053 C 13.348 11.911,13.358 11.597,13.359 10.971 C 13.360 10.178,13.355 10.068,13.307 9.883 C 13.242 9.627,13.096 9.345,12.936 9.166 C 12.766 8.977,10.396 7.087,10.222 7.001 C 9.785 6.787,9.332 6.871,8.904 7.246 C 8.807 7.331,7.445 8.567,5.877 9.993 C 4.092 11.617,2.988 12.640,2.922 12.731 L 2.818 12.876 2.716 12.825 C 2.534 12.732,2.276 12.464,2.177 12.266 C 2.008 11.929,2.013 12.079,2.013 7.813 C 2.013 3.589,2.009 3.711,2.165 3.387 C 2.265 3.179,2.538 2.898,2.733 2.802 C 3.030 2.656,2.987 2.659,5.400 2.642 C 7.416 2.628,7.648 2.622,7.720 2.583 C 7.884 2.492,8.001 2.302,7.999 2.128 C 7.998 1.925,7.831 1.710,7.633 1.655 C 7.518 1.623,3.957 1.623,3.397 1.655 M4.687 3.866 C 4.310 3.935,4.007 4.095,3.732 4.371 C 3.513 4.591,3.396 4.774,3.309 5.033 C 3.092 5.679,3.249 6.357,3.726 6.840 C 3.920 7.038,4.135 7.175,4.405 7.274 C 4.582 7.339,4.635 7.345,4.973 7.345 C 5.312 7.345,5.365 7.339,5.541 7.274 C 6.085 7.074,6.480 6.665,6.657 6.120 C 6.713 5.947,6.727 5.854,6.728 5.627 C 6.729 5.115,6.577 4.738,6.227 4.384 C 5.990 4.145,5.774 4.011,5.480 3.921 C 5.271 3.857,4.882 3.830,4.687 3.866 M5.301 4.922 C 5.878 5.210,5.867 6.036,5.282 6.303 C 5.114 6.379,4.832 6.379,4.664 6.303 C 4.140 6.063,4.060 5.349,4.518 5.000 C 4.733 4.836,5.062 4.803,5.301 4.922 M9.841 7.939 C 9.971 8.029,12.148 9.780,12.192 9.830 C 12.217 9.859,12.265 9.942,12.299 10.014 C 12.358 10.143,12.360 10.169,12.358 10.920 C 12.357 11.397,12.344 11.765,12.324 11.880 C 12.232 12.411,11.791 12.862,11.267 12.963 C 11.062 13.002,4.069 13.030,4.084 12.991 C 4.091 12.973,8.833 8.651,9.568 7.993 C 9.693 7.882,9.744 7.872,9.841 7.939 " stroke="none" fill-rule="evenodd" fill="black"></path></svg>