<svg width="15" height="15" viewBox="0 0 15 15" xmlns="http://www.w3.org/2000/svg"><path d="M6.950 2.029 C 5.715 2.145,4.500 2.727,3.600 3.630 C 1.627 5.613,1.460 8.753,3.212 10.938 C 4.254 12.238,5.840 13.000,7.500 13.000 C 9.593 13.000,11.525 11.792,12.439 9.913 C 13.189 8.369,13.189 6.631,12.439 5.088 C 11.438 3.029,9.254 1.812,6.950 2.029 M7.945 3.026 C 8.510 3.088,8.955 3.214,9.449 3.452 C 10.382 3.902,11.085 4.602,11.540 5.534 C 12.144 6.773,12.149 8.203,11.552 9.440 C 11.403 9.750,11.294 9.934,11.119 10.170 L 11.019 10.306 7.861 7.148 C 5.345 4.633,4.708 3.983,4.730 3.956 C 4.795 3.878,5.260 3.592,5.550 3.453 C 6.311 3.086,7.138 2.939,7.945 3.026 M10.269 11.045 C 10.213 11.112,9.719 11.423,9.492 11.535 C 8.898 11.825,8.336 11.966,7.663 11.992 C 5.328 12.084,3.309 10.352,3.037 8.027 C 2.959 7.358,3.021 6.726,3.229 6.088 C 3.360 5.684,3.669 5.094,3.907 4.791 L 3.983 4.695 7.140 7.853 C 9.700 10.412,10.292 11.017,10.269 11.045 " stroke="none" fill-rule="evenodd" fill="black"></path></svg>