<svg width="16" height="16" viewBox="0 0 16 16" fill="none" xmlns="http://www.w3.org/2000/svg"><path d="M12.187 1.000 C 11.842 1.077,11.490 1.234,11.240 1.422 C 11.181 1.466,10.428 2.205,9.567 3.064 L 8.000 4.626 7.647 4.276 C 7.452 4.083,7.255 3.906,7.208 3.883 C 6.929 3.743,6.548 3.945,6.513 4.252 C 6.485 4.501,6.507 4.539,6.914 4.953 L 7.291 5.335 5.023 7.607 C 3.776 8.857,2.683 9.970,2.596 10.080 C 1.830 11.043,1.285 12.326,0.945 13.966 C 0.891 14.227,0.845 14.526,0.843 14.631 C 0.840 14.803,0.848 14.833,0.920 14.936 C 1.100 15.193,1.275 15.212,2.027 15.057 C 3.661 14.721,4.957 14.170,5.920 13.404 C 6.030 13.317,7.143 12.224,8.393 10.976 L 10.667 8.707 11.020 9.058 C 11.214 9.250,11.412 9.427,11.459 9.451 C 11.738 9.590,12.119 9.388,12.153 9.081 C 12.181 8.832,12.160 8.794,11.752 8.381 L 11.376 7.999 12.963 6.406 C 13.906 5.461,14.589 4.754,14.645 4.667 C 15.231 3.758,15.171 2.622,14.494 1.806 C 14.204 1.456,13.759 1.168,13.307 1.038 C 13.044 0.963,12.443 0.942,12.187 1.000 M12.967 1.986 C 13.361 2.069,13.723 2.353,13.902 2.720 C 14.096 3.116,14.096 3.547,13.903 3.947 C 13.811 4.138,13.738 4.216,12.237 5.720 L 10.667 7.293 9.687 6.313 L 8.707 5.333 10.280 3.765 C 11.986 2.064,11.981 2.068,12.354 1.987 C 12.573 1.939,12.747 1.939,12.967 1.986 M8.987 7.027 L 9.960 8.001 7.680 10.276 C 6.090 11.863,5.329 12.604,5.164 12.726 C 4.507 13.212,3.686 13.589,2.649 13.882 C 2.326 13.973,1.967 14.056,1.954 14.043 C 1.938 14.027,2.191 13.084,2.288 12.799 C 2.559 12.000,2.925 11.288,3.342 10.747 C 3.462 10.592,7.965 6.053,8.000 6.053 C 8.007 6.053,8.452 6.491,8.987 7.027 " stroke="none" fill-rule="evenodd" fill="black"></path></svg>