<svg width="15" height="15" viewBox="0 0 15 15" xmlns="http://www.w3.org/2000/svg"><path d="M13.163 3.039 C 13.014 3.085,13.405 2.690,9.032 7.217 C 7.302 9.006,5.881 10.469,5.874 10.467 C 5.866 10.464,4.993 9.557,3.934 8.450 C 2.596 7.052,1.978 6.423,1.910 6.391 C 1.404 6.151,0.862 6.621,1.037 7.149 C 1.077 7.268,1.190 7.394,2.248 8.496 C 2.890 9.165,3.878 10.196,4.445 10.788 C 5.192 11.567,5.507 11.880,5.593 11.925 C 5.743 12.005,5.986 12.011,6.144 11.940 C 6.224 11.904,7.137 10.973,10.061 7.947 C 12.404 5.522,13.894 3.961,13.926 3.899 C 14.080 3.597,13.962 3.228,13.665 3.079 C 13.517 3.005,13.323 2.989,13.163 3.039 " stroke="none" fill-rule="evenodd" fill="black"></path></svg>