<svg width="16" height="16" viewBox="0 0 16 16" xmlns="http://www.w3.org/2000/svg"><path d="M3.387 1.044 C 2.855 1.100,2.446 1.254,2.061 1.544 C 1.587 1.901,1.259 2.383,1.124 2.920 C 1.043 3.242,1.017 3.541,0.997 4.347 C 0.981 4.978,0.985 5.100,1.022 5.227 C 1.092 5.468,1.265 5.600,1.509 5.600 C 1.720 5.600,1.911 5.464,1.970 5.272 C 1.984 5.225,2.002 4.809,2.011 4.347 C 2.028 3.385,2.054 3.184,2.201 2.886 C 2.382 2.519,2.781 2.191,3.163 2.094 C 3.390 2.037,3.954 2.000,4.621 2.000 C 5.335 2.000,5.424 1.974,5.550 1.728 C 5.642 1.547,5.609 1.310,5.472 1.163 C 5.336 1.018,5.300 1.013,4.421 1.017 C 3.977 1.019,3.512 1.031,3.387 1.044 M10.680 1.051 C 10.581 1.095,10.466 1.216,10.428 1.315 C 10.362 1.492,10.419 1.753,10.551 1.872 C 10.676 1.985,10.773 2.000,11.379 2.000 C 12.046 2.000,12.610 2.037,12.837 2.094 C 13.079 2.156,13.300 2.288,13.506 2.494 C 13.712 2.700,13.844 2.921,13.906 3.163 C 13.962 3.383,13.999 3.968,14.000 4.634 C 14.000 5.334,14.027 5.424,14.272 5.550 C 14.556 5.694,14.886 5.543,14.978 5.227 C 15.015 5.100,15.019 4.978,15.003 4.347 C 14.983 3.539,14.956 3.240,14.876 2.920 C 14.702 2.228,14.184 1.606,13.512 1.281 C 13.076 1.070,12.647 1.013,11.524 1.014 C 10.945 1.015,10.741 1.024,10.680 1.051 M1.307 10.430 C 1.183 10.479,1.067 10.619,1.022 10.773 C 0.985 10.900,0.981 11.022,0.997 11.653 C 1.017 12.458,1.043 12.758,1.124 13.080 C 1.337 13.930,2.069 14.662,2.920 14.876 C 3.240 14.956,3.539 14.983,4.347 15.003 C 4.978 15.019,5.100 15.015,5.227 14.978 C 5.468 14.908,5.600 14.735,5.600 14.491 C 5.600 14.330,5.517 14.176,5.382 14.087 L 5.271 14.013 4.389 13.996 C 3.387 13.977,3.198 13.952,2.881 13.796 C 2.613 13.664,2.335 13.385,2.201 13.114 C 2.054 12.816,2.028 12.615,2.011 11.653 C 2.002 11.191,1.984 10.775,1.970 10.728 C 1.909 10.531,1.720 10.399,1.501 10.402 C 1.431 10.403,1.343 10.415,1.307 10.430 M14.280 10.444 C 14.156 10.510,14.103 10.564,14.050 10.680 C 14.008 10.773,14.001 10.861,14.000 11.360 C 13.999 12.034,13.962 12.617,13.906 12.837 C 13.808 13.221,13.483 13.617,13.119 13.796 C 12.802 13.952,12.613 13.977,11.611 13.996 L 10.729 14.013 10.618 14.087 C 10.483 14.176,10.400 14.330,10.400 14.491 C 10.400 14.735,10.532 14.908,10.773 14.978 C 10.900 15.015,11.022 15.019,11.653 15.003 C 12.458 14.983,12.757 14.956,13.080 14.877 C 13.911 14.671,14.671 13.911,14.877 13.080 C 14.956 12.761,14.983 12.461,15.002 11.680 C 15.023 10.866,15.006 10.721,14.872 10.568 C 14.825 10.515,14.749 10.456,14.701 10.436 C 14.586 10.388,14.379 10.392,14.280 10.444 " stroke="none" fill-rule="evenodd" fill="black"></path></svg>