<svg width="16" height="16" viewBox="0 0 16 16" fill="none" xmlns="http://www.w3.org/2000/svg"><path d="M5.734 2.041 C 5.360 2.146,5.088 2.448,5.016 2.839 C 4.996 2.944,4.987 3.670,4.987 5.004 L 4.987 7.011 3.847 7.019 L 2.707 7.027 2.538 7.118 C 2.340 7.226,2.179 7.396,2.084 7.600 C 2.026 7.725,2.016 7.784,2.016 8.000 C 2.016 8.216,2.026 8.275,2.084 8.400 C 2.231 8.714,2.518 8.930,2.867 8.987 C 2.955 9.001,3.468 9.013,4.007 9.013 L 4.987 9.013 4.987 11.008 C 4.987 12.334,4.996 13.056,5.016 13.161 C 5.076 13.489,5.278 13.758,5.570 13.900 C 5.729 13.976,5.771 13.985,5.987 13.985 C 6.282 13.985,6.458 13.922,6.659 13.746 C 6.823 13.602,6.948 13.368,6.987 13.133 C 7.002 13.039,7.013 12.161,7.013 10.993 L 7.013 9.013 8.000 9.013 L 8.987 9.013 8.987 10.008 C 8.987 10.610,8.998 11.066,9.016 11.162 C 9.076 11.491,9.295 11.774,9.600 11.916 C 9.725 11.974,9.784 11.984,10.000 11.984 C 10.216 11.984,10.275 11.974,10.400 11.916 C 10.705 11.774,10.924 11.491,10.984 11.162 C 11.002 11.066,11.013 10.610,11.013 10.008 L 11.013 9.013 11.993 9.013 C 12.532 9.013,13.045 9.001,13.133 8.987 C 13.490 8.928,13.800 8.688,13.926 8.373 C 14.013 8.155,14.008 7.801,13.915 7.600 C 13.815 7.384,13.653 7.216,13.446 7.114 L 13.268 7.027 12.141 7.019 L 11.013 7.012 11.013 6.004 C 11.013 5.391,11.002 4.935,10.984 4.839 C 10.912 4.449,10.646 4.153,10.268 4.042 C 9.816 3.910,9.326 4.126,9.109 4.555 C 9.001 4.769,8.987 4.935,8.987 6.005 L 8.987 7.013 8.001 7.013 L 7.015 7.013 7.008 4.913 L 7.000 2.813 6.939 2.663 C 6.822 2.374,6.608 2.158,6.347 2.066 C 6.169 2.004,5.906 1.993,5.734 2.041 " stroke="none" fill-rule="evenodd"></path></svg>