<svg width="16" height="16" viewBox="0 0 16 16" xmlns="http://www.w3.org/2000/svg"><path d="M3.673 1.045 C 2.971 1.117,2.368 1.399,1.884 1.884 C 1.408 2.360,1.150 2.891,1.047 3.608 C 1.004 3.907,1.000 4.263,1.000 8.000 C 1.000 11.737,1.004 12.093,1.047 12.392 C 1.150 13.109,1.408 13.640,1.884 14.116 C 2.360 14.592,2.891 14.850,3.608 14.953 C 3.907 14.996,4.262 15.000,7.973 15.000 C 12.227 15.000,12.295 14.998,12.780 14.879 C 13.802 14.628,14.628 13.802,14.879 12.780 C 14.998 12.295,15.000 12.227,15.000 7.973 C 15.000 4.262,14.996 3.907,14.953 3.608 C 14.850 2.891,14.592 2.360,14.116 1.884 C 13.617 1.385,13.036 1.118,12.282 1.043 C 11.923 1.007,4.025 1.008,3.673 1.045 M6.987 5.013 L 6.987 7.013 5.000 7.013 L 3.013 7.013 3.014 5.527 C 3.015 4.709,3.027 3.951,3.041 3.842 C 3.073 3.596,3.138 3.459,3.298 3.298 C 3.454 3.143,3.601 3.070,3.818 3.042 C 3.911 3.030,4.662 3.019,5.487 3.017 L 6.987 3.013 6.987 5.013 M12.354 3.072 C 12.601 3.156,12.844 3.399,12.928 3.646 C 12.965 3.756,12.972 3.988,12.980 5.393 L 12.990 7.013 11.002 7.013 L 9.013 7.013 9.013 5.012 L 9.013 3.010 10.620 3.020 C 12.013 3.028,12.244 3.035,12.354 3.072 M6.987 11.017 L 6.987 13.020 5.487 13.006 C 3.944 12.991,3.739 12.978,3.532 12.879 C 3.392 12.812,3.188 12.608,3.120 12.466 C 3.029 12.279,3.015 12.012,3.014 10.487 L 3.013 9.013 5.000 9.013 L 6.987 9.013 6.987 11.017 M12.986 10.487 C 12.985 12.012,12.971 12.279,12.880 12.466 C 12.812 12.608,12.608 12.812,12.468 12.879 C 12.261 12.978,12.056 12.991,10.513 13.006 L 9.013 13.020 9.013 11.017 L 9.013 9.013 11.000 9.013 L 12.987 9.013 12.986 10.487 " stroke="none" fill-rule="evenodd" fill="black"></path></svg>