<svg width="16" height="16" viewBox="0 0 16 16" xmlns="http://www.w3.org/2000/svg"><path d="M3.606 2.029 C 3.309 2.067,3.007 2.159,2.707 2.304 C 1.748 2.764,1.127 3.651,1.014 4.720 C 0.979 5.060,0.979 10.940,1.014 11.280 C 1.152 12.592,2.082 13.639,3.373 13.937 C 3.576 13.984,3.803 13.987,8.000 13.987 C 12.197 13.987,12.424 13.984,12.627 13.937 C 13.918 13.639,14.848 12.592,14.986 11.280 C 15.021 10.940,15.021 5.060,14.986 4.720 C 14.838 3.310,13.768 2.208,12.373 2.028 C 12.129 1.996,3.850 1.997,3.606 2.029 M12.254 4.041 C 12.560 4.119,12.819 4.354,12.931 4.654 C 12.987 4.803,12.987 4.811,12.980 8.036 L 12.973 11.268 12.886 11.446 C 12.784 11.652,12.618 11.814,12.400 11.917 L 12.253 11.987 8.000 11.987 L 3.747 11.987 3.600 11.917 C 3.382 11.814,3.216 11.652,3.114 11.446 L 3.027 11.268 3.020 8.036 C 3.013 4.811,3.013 4.803,3.069 4.654 C 3.179 4.359,3.439 4.120,3.733 4.042 C 3.960 3.982,12.021 3.981,12.254 4.041 M5.662 7.063 C 5.041 7.278,4.802 8.074,5.203 8.596 C 5.316 8.744,5.482 8.870,5.659 8.942 C 5.800 9.000,5.802 9.000,8.000 9.000 C 10.198 9.000,10.200 9.000,10.341 8.942 C 10.747 8.776,10.993 8.421,10.993 8.000 C 10.993 7.674,10.857 7.403,10.593 7.200 C 10.341 7.007,10.453 7.015,8.000 7.015 C 5.958 7.015,5.790 7.018,5.662 7.063 " stroke="none" fill-rule="evenodd" fill="black"></path></svg>