<svg width="16" height="16" viewBox="0 0 16 16" xmlns="http://www.w3.org/2000/svg"><path d="M1.662 7.061 C 1.221 7.219,0.939 7.692,1.014 8.152 C 1.145 8.957,2.127 9.277,2.702 8.702 C 3.188 8.216,3.050 7.404,2.429 7.100 C 2.234 7.005,1.872 6.986,1.662 7.061 M4.637 7.075 C 4.445 7.155,4.344 7.228,4.229 7.369 C 4.066 7.568,4.017 7.713,4.016 8.000 C 4.016 8.216,4.026 8.275,4.084 8.400 C 4.278 8.816,4.730 9.062,5.159 8.985 C 5.490 8.925,5.773 8.706,5.916 8.400 C 5.974 8.275,5.984 8.216,5.984 8.000 C 5.984 7.784,5.974 7.725,5.916 7.600 C 5.815 7.384,5.653 7.216,5.446 7.114 C 5.291 7.038,5.237 7.026,5.027 7.019 C 4.824 7.013,4.763 7.022,4.637 7.075 M7.662 7.061 C 7.221 7.219,6.939 7.692,7.014 8.152 C 7.145 8.957,8.127 9.277,8.702 8.702 C 9.188 8.216,9.050 7.404,8.429 7.100 C 8.234 7.005,7.872 6.986,7.662 7.061 M10.637 7.075 C 10.445 7.155,10.344 7.228,10.229 7.369 C 10.066 7.568,10.017 7.713,10.016 8.000 C 10.016 8.216,10.026 8.275,10.084 8.400 C 10.278 8.816,10.730 9.062,11.159 8.985 C 11.490 8.925,11.773 8.706,11.916 8.400 C 11.974 8.275,11.984 8.216,11.984 8.000 C 11.984 7.784,11.974 7.725,11.916 7.600 C 11.815 7.384,11.653 7.216,11.446 7.114 C 11.291 7.038,11.237 7.026,11.027 7.019 C 10.824 7.013,10.763 7.022,10.637 7.075 M13.662 7.061 C 13.221 7.219,12.939 7.692,13.014 8.152 C 13.145 8.957,14.127 9.277,14.702 8.702 C 15.188 8.216,15.050 7.404,14.429 7.100 C 14.234 7.005,13.872 6.986,13.662 7.061 " stroke="none" fill-rule="evenodd" fill="black"></path></svg>