<svg width="16" height="16" viewBox="0 0 16 16" fill="none" xmlns="http://www.w3.org/2000/svg"><path d="M7.662 1.062 C 7.272 1.198,7.007 1.577,7.007 2.000 C 7.007 2.422,7.256 2.781,7.659 2.940 C 7.783 2.990,7.870 2.997,8.393 3.008 L 8.987 3.019 8.987 8.014 L 8.987 13.010 8.353 13.018 C 7.726 13.027,7.719 13.027,7.572 13.099 C 7.388 13.190,7.192 13.383,7.105 13.560 C 6.810 14.163,7.186 14.877,7.855 14.987 C 8.065 15.022,11.935 15.022,12.145 14.987 C 12.814 14.877,13.190 14.163,12.895 13.560 C 12.808 13.383,12.612 13.190,12.428 13.099 C 12.281 13.027,12.274 13.027,11.647 13.018 L 11.013 13.010 11.013 12.505 L 11.013 12.000 11.927 12.000 C 13.162 12.000,13.415 11.964,13.880 11.725 C 14.046 11.640,14.150 11.559,14.347 11.361 C 14.618 11.088,14.741 10.906,14.846 10.620 C 14.986 10.239,14.991 10.163,15.005 8.360 C 15.021 6.422,15.000 5.904,14.893 5.533 C 14.694 4.844,14.111 4.274,13.421 4.095 C 13.165 4.029,12.691 4.001,11.820 4.000 L 11.013 4.000 11.013 3.507 L 11.013 3.013 11.500 3.013 C 12.044 3.012,12.275 2.977,12.464 2.867 C 12.625 2.773,12.790 2.587,12.876 2.405 C 12.937 2.274,12.947 2.219,12.947 2.000 C 12.947 1.781,12.937 1.726,12.876 1.595 C 12.781 1.393,12.623 1.227,12.420 1.117 L 12.253 1.027 10.027 1.021 C 7.944 1.015,7.791 1.018,7.662 1.062 M2.952 4.029 C 2.381 4.090,1.949 4.305,1.570 4.716 C 1.361 4.942,1.240 5.140,1.144 5.412 C 1.006 5.803,1.000 5.906,1.000 8.000 C 1.000 10.094,1.006 10.197,1.144 10.588 C 1.254 10.899,1.373 11.080,1.653 11.361 C 1.928 11.637,2.165 11.783,2.510 11.889 C 2.849 11.993,3.118 12.003,5.227 11.995 L 7.240 11.987 7.403 11.911 C 7.609 11.816,7.814 11.610,7.912 11.400 C 7.976 11.262,7.987 11.207,7.987 11.000 C 7.987 10.793,7.976 10.738,7.912 10.600 C 7.814 10.390,7.609 10.184,7.403 10.089 L 7.240 10.013 5.171 10.000 C 3.471 9.989,3.094 9.980,3.057 9.950 C 3.017 9.917,3.013 9.747,3.013 8.000 C 3.013 6.253,3.017 6.083,3.057 6.050 C 3.094 6.020,3.471 6.011,5.171 6.000 L 7.240 5.987 7.403 5.911 C 7.609 5.816,7.814 5.610,7.912 5.400 C 7.976 5.262,7.987 5.207,7.987 5.000 C 7.987 4.793,7.976 4.738,7.912 4.600 C 7.814 4.390,7.609 4.184,7.403 4.089 L 7.240 4.013 5.200 4.010 C 4.078 4.008,3.066 4.016,2.952 4.029 M12.943 6.050 C 12.983 6.083,12.987 6.253,12.987 8.000 C 12.987 9.747,12.983 9.917,12.943 9.950 C 12.907 9.979,12.707 9.988,11.956 9.994 L 11.013 10.002 11.013 7.999 L 11.013 5.995 11.956 6.004 C 12.705 6.011,12.908 6.021,12.943 6.050 " fill="#000000" stroke="none" fill-rule="evenodd"></path></svg>