<svg width="16" height="16" viewBox="0 0 16 16" fill="none" xmlns="http://www.w3.org/2000/svg"><path d="M1.669 6.026 C 1.219 6.108,0.771 6.367,0.469 6.720 C -0.009 7.278,-0.129 8.067,0.156 8.767 C 0.347 9.238,0.762 9.653,1.233 9.844 C 1.993 10.153,2.834 9.986,3.410 9.410 C 4.159 8.661,4.197 7.475,3.497 6.680 C 3.265 6.416,2.851 6.160,2.504 6.065 C 2.327 6.016,1.847 5.994,1.669 6.026 M7.669 6.026 C 7.219 6.108,6.771 6.367,6.469 6.720 C 5.991 7.278,5.871 8.067,6.156 8.767 C 6.347 9.238,6.762 9.653,7.233 9.844 C 7.993 10.153,8.834 9.986,9.410 9.410 C 10.159 8.661,10.197 7.475,9.497 6.680 C 9.265 6.416,8.851 6.160,8.504 6.065 C 8.327 6.016,7.847 5.994,7.669 6.026 M13.669 6.026 C 13.219 6.108,12.771 6.367,12.469 6.720 C 11.991 7.278,11.871 8.067,12.156 8.767 C 12.347 9.238,12.762 9.653,13.233 9.844 C 13.993 10.153,14.834 9.986,15.410 9.410 C 16.159 8.661,16.197 7.475,15.497 6.680 C 15.265 6.416,14.851 6.160,14.504 6.065 C 14.327 6.016,13.847 5.994,13.669 6.026 " stroke="none" fill-rule="evenodd"></path></svg>