<svg width="16" height="16" viewBox="0 0 16 16" xmlns="http://www.w3.org/2000/svg"><path d="M3.513 1.045 C 3.226 1.074,2.819 1.175,2.620 1.266 C 2.100 1.505,1.587 2.000,1.322 2.521 C 1.016 3.124,0.976 3.913,0.994 8.973 C 1.007 12.463,1.008 12.480,1.135 12.980 C 1.280 13.555,1.677 14.116,2.200 14.486 C 2.692 14.834,3.078 14.942,4.000 14.987 C 4.677 15.020,11.323 15.020,12.000 14.987 C 12.922 14.942,13.308 14.834,13.800 14.486 C 14.324 14.115,14.720 13.556,14.866 12.977 C 14.990 12.488,14.993 12.427,15.005 8.975 C 15.024 3.923,14.984 3.124,14.678 2.521 C 14.413 2.000,13.900 1.505,13.380 1.266 C 13.167 1.169,12.780 1.077,12.442 1.043 C 12.083 1.007,3.865 1.008,3.513 1.045 M4.987 4.013 L 4.987 5.013 3.996 5.013 L 3.005 5.013 3.022 4.500 C 3.041 3.901,3.083 3.484,3.133 3.388 C 3.176 3.307,3.348 3.139,3.435 3.095 C 3.539 3.041,3.802 3.020,4.407 3.017 L 4.987 3.013 4.987 4.013 M8.987 4.013 L 8.987 5.013 8.000 5.013 L 7.013 5.013 7.013 4.013 L 7.013 3.013 8.000 3.013 L 8.987 3.013 8.987 4.013 M12.489 3.066 C 12.602 3.100,12.810 3.277,12.867 3.387 C 12.917 3.485,12.959 3.901,12.978 4.500 L 12.995 5.013 12.004 5.013 L 11.013 5.013 11.013 4.010 L 11.013 3.007 11.700 3.021 C 12.114 3.029,12.427 3.047,12.489 3.066 M12.987 9.558 C 12.987 11.198,12.977 12.177,12.958 12.311 C 12.917 12.619,12.753 12.838,12.499 12.926 C 12.292 12.997,11.532 13.011,8.000 13.011 C 4.468 13.011,3.708 12.997,3.501 12.926 C 3.247 12.838,3.083 12.619,3.042 12.311 C 3.023 12.177,3.013 11.198,3.013 9.558 L 3.013 7.013 8.000 7.013 L 12.987 7.013 12.987 9.558 " stroke="none" fill-rule="evenodd" fill="black"></path></svg>