<svg width="16" height="16" viewBox="0 0 16 16" xmlns="http://www.w3.org/2000/svg"><path d="M3.449 1.053 C 3.174 1.103,2.930 1.188,2.636 1.338 C 1.785 1.771,1.213 2.552,1.036 3.520 C 0.983 3.816,0.983 12.184,1.036 12.480 C 1.267 13.746,2.183 14.687,3.441 14.949 C 3.713 15.005,4.882 15.032,5.136 14.988 C 5.488 14.927,5.769 14.715,5.916 14.400 C 5.974 14.275,5.984 14.216,5.984 14.000 C 5.984 13.784,5.974 13.725,5.916 13.600 C 5.815 13.384,5.653 13.216,5.446 13.114 L 5.268 13.027 4.534 13.011 C 3.872 12.998,3.786 12.991,3.659 12.940 C 3.384 12.831,3.152 12.597,3.063 12.338 C 3.023 12.222,3.015 12.105,3.014 11.607 L 3.013 11.013 4.008 11.013 C 4.610 11.013,5.066 11.002,5.162 10.984 C 5.491 10.924,5.774 10.705,5.916 10.400 C 5.974 10.275,5.984 10.216,5.984 10.000 C 5.984 9.784,5.974 9.725,5.916 9.600 C 5.815 9.384,5.653 9.216,5.446 9.114 L 5.268 9.027 4.141 9.019 L 3.013 9.012 3.013 8.013 L 3.013 7.015 8.580 7.007 C 13.664 6.999,14.159 6.994,14.290 6.954 C 14.625 6.851,14.879 6.582,14.964 6.240 C 15.016 6.029,15.016 3.807,14.964 3.520 C 14.733 2.250,13.766 1.268,12.537 1.052 C 12.224 0.998,3.751 0.998,3.449 1.053 M12.430 3.100 C 12.608 3.188,12.833 3.416,12.915 3.593 C 12.969 3.711,12.974 3.767,12.982 4.367 L 12.990 5.013 8.002 5.013 L 3.013 5.013 3.014 4.407 C 3.015 3.895,3.023 3.778,3.063 3.662 C 3.154 3.399,3.399 3.154,3.662 3.062 C 3.793 3.017,4.025 3.015,8.040 3.021 L 12.280 3.027 12.430 3.100 M13.689 9.050 C 13.627 9.070,13.531 9.114,13.475 9.148 C 13.419 9.181,12.615 9.965,11.687 10.890 L 10.001 12.571 9.301 11.877 C 8.456 11.040,8.436 11.027,8.000 11.027 C 7.749 11.027,7.705 11.034,7.572 11.099 C 7.179 11.293,6.946 11.732,7.014 12.152 C 7.068 12.481,7.093 12.513,8.290 13.710 C 9.208 14.627,9.426 14.832,9.548 14.890 C 9.742 14.983,9.958 15.017,10.152 14.986 C 10.498 14.929,10.427 14.992,12.710 12.710 C 14.992 10.427,14.929 10.498,14.986 10.152 C 15.054 9.732,14.821 9.292,14.429 9.100 C 14.309 9.041,14.240 9.027,14.041 9.021 C 13.890 9.017,13.758 9.027,13.689 9.050 " stroke="none" fill-rule="evenodd" fill="black"></path></svg>