<svg width="16" height="16" viewBox="0 0 16 16" xmlns="http://www.w3.org/2000/svg"><path d="M7.691 2.040 C 7.492 2.083,7.251 2.202,7.101 2.332 C 6.961 2.453,6.741 2.783,6.564 3.136 C 6.322 3.622,2.099 12.730,2.046 12.880 C 1.911 13.267,2.100 13.709,2.488 13.913 C 2.608 13.976,2.657 13.986,2.853 13.985 C 3.132 13.984,3.278 13.925,3.461 13.741 C 3.576 13.625,3.667 13.440,4.492 11.660 L 5.397 9.707 8.000 9.707 L 10.602 9.707 11.508 11.660 C 12.334 13.442,12.424 13.625,12.539 13.741 C 12.718 13.921,12.869 13.983,13.133 13.985 C 13.310 13.986,13.372 13.975,13.496 13.917 C 13.890 13.732,14.092 13.275,13.954 12.880 C 13.901 12.730,9.676 3.619,9.435 3.135 C 9.251 2.767,9.038 2.452,8.887 2.326 C 8.555 2.050,8.122 1.946,7.691 2.040 M8.909 6.060 L 9.803 7.987 8.901 7.994 C 8.406 7.998,7.594 7.998,7.098 7.994 L 6.197 7.987 7.091 6.060 C 7.582 5.000,7.991 4.133,8.000 4.133 C 8.009 4.133,8.418 5.000,8.909 6.060 " stroke="none" fill-rule="evenodd" fill="black"></path></svg>