<svg width="16" height="16" viewBox="0 0 16 16" xmlns="http://www.w3.org/2000/svg"><path d="M7.599 1.064 C 7.230 1.182,6.933 1.443,6.729 1.830 C 6.596 2.081,3.104 9.540,3.048 9.693 C 2.987 9.859,2.995 10.171,3.065 10.354 C 3.141 10.552,3.368 10.801,3.557 10.893 C 3.958 11.089,4.420 11.001,4.725 10.671 C 4.853 10.532,4.924 10.393,5.453 9.258 L 6.040 8.000 8.000 8.000 L 9.960 8.000 10.547 9.258 C 11.075 10.392,11.147 10.531,11.275 10.670 C 11.579 11.001,12.042 11.089,12.443 10.893 C 12.633 10.800,12.859 10.552,12.934 10.354 C 13.004 10.170,13.012 9.857,12.952 9.693 C 12.896 9.540,9.404 2.081,9.271 1.830 C 9.062 1.435,8.752 1.166,8.375 1.056 C 8.179 0.998,7.791 1.002,7.599 1.064 M8.507 4.895 C 8.778 5.475,9.004 5.961,9.009 5.975 C 9.014 5.990,8.619 6.000,8.000 6.000 C 7.381 6.000,6.986 5.990,6.991 5.975 C 7.025 5.880,7.989 3.840,8.000 3.840 C 8.008 3.840,8.236 4.315,8.507 4.895 M1.505 12.990 C 1.233 13.534,1.015 13.984,1.020 13.989 C 1.025 13.994,3.273 13.774,6.015 13.499 L 11.000 13.000 11.007 12.500 L 11.015 12.000 6.507 12.000 L 2.000 12.000 1.505 12.990 M9.947 13.508 C 7.813 13.777,6.052 13.998,6.033 13.999 C 6.008 14.000,6.000 14.120,6.000 14.507 L 6.000 15.013 10.493 15.013 C 13.460 15.013,14.987 15.004,14.987 14.987 C 14.987 14.972,14.768 14.522,14.500 13.987 L 14.014 13.013 13.920 13.016 C 13.869 13.018,12.081 13.239,9.947 13.508 " stroke="none" fill-rule="evenodd" fill="black"></path></svg>