<svg width="16" height="16" viewBox="0 0 16 16" xmlns="http://www.w3.org/2000/svg"><path d="M3.893 1.030 C 3.178 1.100,2.756 1.232,2.302 1.526 C 1.552 2.012,1.158 2.640,1.035 3.547 C 0.984 3.916,0.984 12.084,1.035 12.453 C 1.115 13.039,1.280 13.452,1.587 13.834 C 2.099 14.470,2.828 14.854,3.720 14.959 C 4.119 15.005,6.898 15.030,7.134 14.988 C 7.488 14.927,7.769 14.715,7.916 14.400 C 7.974 14.275,7.984 14.216,7.984 14.000 C 7.984 13.784,7.974 13.725,7.916 13.600 C 7.815 13.384,7.653 13.216,7.446 13.114 L 7.268 13.027 5.667 13.009 C 4.703 12.999,3.987 12.980,3.867 12.962 C 3.508 12.908,3.205 12.723,3.089 12.487 L 3.027 12.360 3.027 8.000 L 3.027 3.640 3.089 3.513 C 3.213 3.261,3.517 3.086,3.907 3.041 C 4.235 3.004,11.765 3.004,12.093 3.041 C 12.483 3.086,12.787 3.261,12.911 3.513 L 12.973 3.640 12.987 5.320 C 13.001 6.962,13.002 7.003,13.058 7.141 C 13.223 7.546,13.579 7.793,14.000 7.793 C 14.421 7.793,14.776 7.547,14.942 7.141 C 14.997 7.005,15.000 6.959,15.008 5.773 C 15.024 3.596,14.964 3.062,14.641 2.498 C 14.227 1.775,13.439 1.243,12.533 1.075 C 12.299 1.032,11.964 1.028,8.133 1.025 C 5.853 1.023,3.945 1.025,3.893 1.030 M4.529 4.051 C 4.329 4.115,4.211 4.191,4.082 4.337 C 3.637 4.843,3.789 5.601,4.395 5.899 L 4.572 5.987 7.773 5.987 L 10.974 5.987 11.152 5.899 C 11.513 5.721,11.716 5.399,11.716 5.000 C 11.716 4.601,11.513 4.279,11.152 4.101 L 10.974 4.013 7.827 4.008 C 4.847 4.003,4.672 4.005,4.529 4.051 M4.491 7.062 C 4.093 7.200,3.831 7.571,3.831 8.000 C 3.831 8.423,4.074 8.777,4.476 8.939 L 4.627 9.000 6.413 9.000 C 8.187 9.000,8.201 9.000,8.341 8.942 C 8.747 8.776,8.993 8.421,8.993 8.000 C 8.993 7.674,8.857 7.403,8.593 7.200 C 8.345 7.010,8.405 7.015,6.413 7.015 C 4.778 7.015,4.615 7.019,4.491 7.062 M9.734 10.043 C 9.363 10.143,9.088 10.447,9.016 10.840 C 8.937 11.267,9.182 11.718,9.600 11.917 L 9.747 11.987 12.000 11.987 L 14.253 11.987 14.400 11.917 C 14.818 11.718,15.063 11.267,14.984 10.840 C 14.911 10.441,14.636 10.141,14.254 10.041 C 14.023 9.981,9.959 9.982,9.734 10.043 " stroke="none" fill-rule="evenodd" fill="black"></path></svg>