<svg width="16" height="16" viewBox="0 0 16 16" xmlns="http://www.w3.org/2000/svg"><path d="M3.673 1.045 C 2.971 1.117,2.368 1.399,1.884 1.884 C 1.408 2.360,1.150 2.891,1.047 3.608 C 1.004 3.907,1.000 4.263,1.000 8.000 C 1.000 11.737,1.004 12.093,1.047 12.392 C 1.150 13.109,1.408 13.640,1.884 14.116 C 2.360 14.592,2.891 14.850,3.608 14.953 C 3.907 14.996,4.262 15.000,7.973 15.000 C 12.227 15.000,12.295 14.998,12.780 14.879 C 13.802 14.628,14.628 13.802,14.879 12.780 C 14.998 12.295,15.000 12.227,15.000 7.973 C 15.000 4.262,14.996 3.907,14.953 3.608 C 14.850 2.891,14.592 2.360,14.116 1.884 C 13.617 1.385,13.036 1.118,12.282 1.043 C 11.923 1.007,4.025 1.008,3.673 1.045 M12.354 3.071 C 12.602 3.157,12.843 3.398,12.929 3.646 C 12.969 3.762,12.974 4.134,12.981 7.840 C 12.986 10.484,12.979 11.985,12.961 12.131 C 12.929 12.401,12.867 12.536,12.702 12.702 C 12.545 12.858,12.415 12.922,12.160 12.966 C 11.868 13.016,4.132 13.016,3.840 12.966 C 3.585 12.922,3.455 12.858,3.298 12.702 C 3.138 12.541,3.073 12.404,3.041 12.158 C 3.006 11.892,3.006 4.108,3.041 3.842 C 3.073 3.596,3.138 3.459,3.298 3.298 C 3.454 3.143,3.601 3.070,3.818 3.042 C 3.911 3.029,5.841 3.021,8.107 3.023 C 11.869 3.027,12.238 3.031,12.354 3.071 M10.342 5.055 C 9.910 5.133,9.386 5.341,9.004 5.585 C 8.569 5.864,8.066 6.339,7.294 7.200 C 6.680 7.885,6.162 8.395,5.906 8.563 C 5.548 8.801,5.166 8.966,4.862 9.014 C 4.517 9.069,4.231 9.284,4.084 9.600 C 4.026 9.725,4.016 9.784,4.016 10.000 C 4.016 10.216,4.026 10.275,4.084 10.400 C 4.283 10.826,4.712 11.050,5.200 10.983 C 5.723 10.911,6.459 10.603,7.025 10.219 C 7.518 9.885,7.928 9.493,8.776 8.546 C 9.419 7.829,9.779 7.476,10.063 7.286 C 10.314 7.118,10.622 7.013,10.867 7.013 C 11.349 7.013,11.713 6.810,11.896 6.438 C 12.161 5.900,11.870 5.223,11.299 5.054 C 11.129 5.003,10.626 5.004,10.342 5.055 " stroke="none" fill-rule="evenodd" fill="black"></path></svg>