<svg width="16" height="16" viewBox="0 0 16 16" xmlns="http://www.w3.org/2000/svg"><path d="M3.673 1.045 C 2.971 1.117,2.368 1.399,1.884 1.884 C 1.408 2.360,1.150 2.891,1.047 3.608 C 1.004 3.907,1.000 4.263,1.000 8.000 C 1.000 11.737,1.004 12.093,1.047 12.392 C 1.150 13.109,1.408 13.640,1.884 14.116 C 2.360 14.592,2.891 14.850,3.608 14.953 C 3.907 14.996,4.262 15.000,7.973 15.000 C 12.227 15.000,12.295 14.998,12.780 14.879 C 13.802 14.628,14.628 13.802,14.879 12.780 C 14.998 12.295,15.000 12.227,15.000 7.973 C 15.000 4.262,14.996 3.907,14.953 3.608 C 14.850 2.891,14.592 2.360,14.116 1.884 C 13.617 1.385,13.036 1.118,12.282 1.043 C 11.923 1.007,4.025 1.008,3.673 1.045 M12.354 3.071 C 12.602 3.157,12.843 3.398,12.929 3.646 C 12.969 3.762,12.974 4.134,12.981 7.840 C 12.986 10.484,12.979 11.985,12.961 12.131 C 12.929 12.401,12.867 12.536,12.702 12.702 C 12.545 12.858,12.415 12.922,12.160 12.966 C 11.868 13.016,4.132 13.016,3.840 12.966 C 3.585 12.922,3.455 12.858,3.298 12.702 C 3.138 12.541,3.073 12.404,3.041 12.158 C 3.006 11.892,3.006 4.108,3.041 3.842 C 3.073 3.596,3.138 3.459,3.298 3.298 C 3.454 3.143,3.601 3.070,3.818 3.042 C 3.911 3.029,5.841 3.021,8.107 3.023 C 11.869 3.027,12.238 3.031,12.354 3.071 M5.662 5.063 C 5.041 5.278,4.802 6.074,5.203 6.596 C 5.317 6.745,5.484 6.871,5.659 6.940 C 5.783 6.989,5.870 6.997,6.392 7.008 L 6.984 7.019 6.992 8.610 C 7.000 10.172,7.001 10.202,7.058 10.341 C 7.224 10.747,7.579 10.993,8.000 10.993 C 8.421 10.993,8.776 10.747,8.942 10.341 C 8.999 10.202,9.000 10.172,9.008 8.610 L 9.016 7.019 9.608 7.008 C 10.130 6.997,10.217 6.989,10.341 6.940 C 10.744 6.781,10.993 6.422,10.993 6.000 C 10.993 5.674,10.857 5.403,10.593 5.200 C 10.341 5.007,10.453 5.015,8.000 5.015 C 5.958 5.015,5.790 5.018,5.662 5.063 " stroke="none" fill-rule="evenodd" fill="black"></path></svg>