<svg width="16" height="16" viewBox="0 0 16 16" xmlns="http://www.w3.org/2000/svg"><path d="M12.147 1.058 C 11.756 1.141,11.344 1.364,11.012 1.671 C 10.917 1.759,9.424 3.140,7.693 4.741 C 5.963 6.341,4.501 7.709,4.446 7.779 C 4.311 7.949,4.128 8.318,4.068 8.536 L 4.021 8.713 3.811 8.730 C 3.324 8.771,2.663 9.028,2.263 9.332 C 1.676 9.778,1.359 10.327,1.253 11.080 C 1.228 11.256,1.224 11.530,1.237 12.107 C 1.258 12.994,1.239 13.218,1.119 13.499 C 1.077 13.598,1.031 13.744,1.016 13.825 C 0.950 14.179,1.119 14.577,1.424 14.786 C 1.674 14.956,1.724 14.965,2.560 14.989 C 4.098 15.033,4.926 14.923,5.607 14.584 C 6.502 14.139,7.099 13.289,7.246 12.249 L 7.289 11.951 7.384 11.933 C 7.545 11.904,7.861 11.766,8.050 11.644 C 8.148 11.580,8.325 11.433,8.443 11.317 C 8.677 11.086,14.314 5.011,14.474 4.817 C 14.920 4.278,15.098 3.501,14.935 2.813 C 14.865 2.518,14.663 2.100,14.480 1.873 C 14.152 1.467,13.646 1.160,13.130 1.053 C 12.885 1.003,12.393 1.005,12.147 1.058 M12.828 3.054 C 12.968 3.127,13.034 3.367,12.952 3.510 C 12.935 3.541,11.937 4.625,10.736 5.919 L 8.552 8.271 8.143 7.863 C 7.918 7.638,7.733 7.446,7.733 7.437 C 7.733 7.413,12.421 3.086,12.489 3.048 C 12.569 3.003,12.734 3.006,12.828 3.054 M7.173 9.743 C 7.173 9.756,7.121 9.819,7.057 9.884 C 6.863 10.077,6.831 10.066,6.406 9.647 C 6.209 9.452,6.032 9.259,6.014 9.218 C 5.965 9.105,5.993 9.027,6.126 8.904 L 6.246 8.793 6.710 9.256 C 6.965 9.511,7.173 9.730,7.173 9.743 M4.622 10.822 C 4.965 10.991,5.194 11.300,5.256 11.677 C 5.313 12.019,5.196 12.381,4.947 12.629 C 4.799 12.778,4.633 12.854,4.313 12.921 C 4.153 12.955,3.539 13.012,3.331 13.013 L 3.262 13.013 3.244 12.220 C 3.219 11.149,3.230 11.099,3.509 10.906 C 3.706 10.769,3.901 10.718,4.189 10.727 C 4.415 10.734,4.465 10.745,4.622 10.822 " stroke="none" fill-rule="evenodd" fill="black"></path></svg>