<svg width="16" height="16" viewBox="0 0 16 16" fill="none" xmlns="http://www.w3.org/2000/svg"><path d="M5.734 2.041 C 5.353 2.148,5.083 2.454,5.014 2.856 C 4.993 2.975,4.987 4.106,4.992 6.613 L 5.000 10.200 5.058 10.341 C 5.224 10.748,5.579 10.993,6.000 10.993 C 6.274 10.992,6.463 10.918,6.667 10.729 C 6.855 10.555,6.948 10.378,6.987 10.120 C 7.006 9.994,7.013 8.783,7.008 6.373 L 7.000 2.813 6.939 2.663 C 6.822 2.374,6.608 2.158,6.347 2.066 C 6.169 2.004,5.906 1.993,5.734 2.041 M9.645 5.065 C 9.388 5.168,9.168 5.390,9.058 5.659 C 9.000 5.800,9.000 5.802,9.000 8.000 C 9.000 10.198,9.000 10.200,9.058 10.341 C 9.224 10.747,9.579 10.993,10.000 10.993 C 10.421 10.993,10.776 10.747,10.942 10.341 C 11.000 10.201,11.000 10.186,11.008 8.120 C 11.013 6.827,11.005 5.976,10.989 5.869 C 10.937 5.536,10.725 5.245,10.428 5.099 C 10.230 5.002,9.844 4.985,9.645 5.065 M2.767 12.029 C 2.486 12.095,2.229 12.309,2.096 12.587 C 2.022 12.741,2.013 12.786,2.013 13.000 C 2.013 13.213,2.023 13.259,2.096 13.413 C 2.201 13.634,2.366 13.799,2.587 13.904 L 2.760 13.987 8.000 13.987 L 13.240 13.987 13.400 13.912 C 13.610 13.814,13.816 13.609,13.911 13.403 C 13.976 13.262,13.987 13.207,13.987 13.000 C 13.987 12.793,13.976 12.738,13.911 12.597 C 13.816 12.391,13.610 12.186,13.400 12.088 L 13.240 12.013 8.053 12.009 C 5.095 12.007,2.824 12.015,2.767 12.029 " stroke="none" fill-rule="evenodd"></path></svg>