<svg width="16" height="16" viewBox="0 0 16 16" xmlns="http://www.w3.org/2000/svg"><path d="M10.637 1.075 C 10.555 1.109,10.453 1.163,10.410 1.193 C 10.368 1.224,9.845 1.739,9.248 2.338 C 7.988 3.602,8.016 3.564,8.016 4.000 C 8.016 4.437,7.985 4.395,9.275 5.688 C 10.475 6.891,10.517 6.925,10.855 6.987 C 11.266 7.062,11.726 6.808,11.916 6.400 C 11.974 6.275,11.984 6.216,11.984 6.000 C 11.984 5.665,11.921 5.524,11.639 5.229 L 11.433 5.013 11.966 5.013 C 12.260 5.013,12.537 5.021,12.583 5.030 C 12.648 5.043,12.688 5.081,12.768 5.210 C 12.952 5.504,12.968 5.566,12.981 6.058 C 12.999 6.719,12.928 7.044,12.689 7.401 C 12.544 7.618,12.286 7.865,12.118 7.947 C 12.011 7.999,11.944 8.000,6.957 8.000 C 1.391 8.000,1.732 7.990,1.461 8.164 C 0.795 8.591,0.873 9.571,1.600 9.917 L 1.747 9.987 6.947 9.994 C 10.619 10.000,12.197 9.993,12.318 9.973 C 13.240 9.816,14.233 8.958,14.672 7.941 C 14.895 7.424,14.992 6.890,14.994 6.173 C 14.996 5.407,14.914 5.015,14.640 4.467 C 14.336 3.858,14.004 3.497,13.533 3.265 C 13.119 3.061,12.974 3.035,12.153 3.021 C 11.761 3.014,11.440 3.002,11.440 2.994 C 11.440 2.986,11.531 2.884,11.642 2.767 C 11.921 2.476,11.984 2.334,11.984 2.000 C 11.984 1.784,11.974 1.725,11.916 1.600 C 11.815 1.384,11.653 1.216,11.446 1.114 C 11.291 1.038,11.237 1.026,11.027 1.019 C 10.824 1.013,10.763 1.022,10.637 1.075 M1.662 3.063 C 1.041 3.278,0.802 4.074,1.203 4.596 C 1.316 4.744,1.482 4.870,1.659 4.942 C 1.800 5.000,1.802 5.000,4.000 5.000 C 6.198 5.000,6.200 5.000,6.341 4.942 C 6.747 4.776,6.993 4.421,6.993 4.000 C 6.993 3.674,6.857 3.403,6.593 3.200 C 6.341 3.007,6.453 3.015,4.000 3.015 C 1.958 3.015,1.790 3.018,1.662 3.063 M1.662 13.063 C 1.041 13.278,0.802 14.074,1.203 14.596 C 1.316 14.744,1.482 14.870,1.659 14.942 L 1.800 15.000 8.000 15.000 L 14.200 15.000 14.341 14.942 C 14.747 14.776,14.993 14.421,14.993 14.000 C 14.993 13.577,14.728 13.197,14.338 13.063 C 14.207 13.018,13.881 13.015,8.000 13.015 C 2.119 13.015,1.793 13.018,1.662 13.063 " stroke="none" fill-rule="evenodd" fill="black"></path></svg>