<svg width="16" height="16" viewBox="0 0 16 16" xmlns="http://www.w3.org/2000/svg"><path d="M2.933 1.053 C 2.271 1.158,1.712 1.533,1.348 2.117 C 1.198 2.356,1.113 2.590,1.048 2.935 C 1.004 3.166,1.000 3.412,1.000 6.000 C 1.000 9.076,0.998 9.039,1.158 9.499 C 1.354 10.060,1.940 10.646,2.500 10.841 C 2.849 10.963,3.100 10.989,4.070 11.006 L 4.979 11.021 4.997 11.771 C 5.031 13.167,5.092 13.497,5.401 13.962 C 5.658 14.349,6.100 14.702,6.501 14.842 C 6.961 15.002,6.924 15.000,10.000 15.000 C 13.076 15.000,13.039 15.002,13.499 14.842 C 14.061 14.646,14.646 14.061,14.842 13.499 C 15.002 13.039,15.000 13.076,15.000 10.000 C 15.000 6.924,15.002 6.961,14.842 6.501 C 14.713 6.132,14.378 5.694,14.039 5.452 C 13.543 5.098,13.093 5.013,11.707 5.013 L 11.021 5.013 11.006 4.087 C 10.985 2.858,10.933 2.567,10.652 2.117 C 10.405 1.720,10.073 1.426,9.649 1.228 C 9.202 1.020,9.384 1.030,6.093 1.023 C 3.744 1.019,3.115 1.025,2.933 1.053 M8.899 3.101 L 8.973 3.175 8.973 6.000 L 8.973 8.825 8.902 8.897 C 8.838 8.961,8.802 8.971,8.568 8.990 C 8.227 9.017,3.773 9.017,3.432 8.990 C 3.198 8.971,3.162 8.961,3.098 8.897 L 3.027 8.825 3.027 6.002 L 3.027 3.178 3.090 3.110 C 3.125 3.073,3.179 3.038,3.210 3.031 C 3.241 3.025,4.517 3.022,6.046 3.023 L 8.825 3.027 8.899 3.101 M12.635 7.038 C 12.810 7.055,12.870 7.072,12.915 7.117 L 12.973 7.175 12.973 10.000 L 12.973 12.825 12.902 12.897 C 12.837 12.962,12.805 12.970,12.529 12.992 C 12.363 13.005,11.111 13.012,9.747 13.008 C 7.025 12.999,7.150 13.007,7.068 12.840 C 7.038 12.777,7.027 12.578,7.018 11.891 L 7.007 11.022 7.923 11.006 C 8.900 10.989,9.150 10.963,9.500 10.841 C 10.060 10.646,10.646 10.060,10.841 9.500 C 10.963 9.151,10.989 8.900,11.006 7.927 L 11.021 7.013 11.717 7.015 C 12.100 7.016,12.513 7.026,12.635 7.038 " stroke="none" fill-rule="evenodd" fill="black"></path></svg>