<svg width="16" height="16" viewBox="0 0 16 16" xmlns="http://www.w3.org/2000/svg"><path d="M2.507 1.068 C 1.943 1.213,1.466 1.601,1.215 2.120 C 0.980 2.604,1.000 2.052,1.000 8.000 C 1.000 13.948,0.980 13.396,1.215 13.880 C 1.410 14.282,1.718 14.590,2.120 14.785 C 2.562 15.000,2.564 15.000,4.000 15.000 C 5.436 15.000,5.438 15.000,5.880 14.785 C 6.282 14.590,6.590 14.282,6.785 13.880 C 6.991 13.455,6.993 13.439,7.006 12.153 L 7.018 11.013 6.002 11.013 L 4.987 11.013 4.987 12.013 L 4.987 13.013 4.000 13.013 L 3.013 13.013 3.013 11.013 L 3.013 9.013 3.507 9.013 L 4.000 9.013 4.000 9.507 L 4.000 10.000 5.493 9.007 C 6.313 8.460,6.985 8.007,6.985 8.000 C 6.985 7.993,6.313 7.540,5.493 6.993 L 4.000 6.000 4.000 6.507 L 4.000 7.013 3.507 7.013 L 3.013 7.013 3.013 5.013 L 3.013 3.013 4.000 3.013 L 4.986 3.013 4.993 4.007 L 5.000 5.000 6.000 5.000 L 7.000 5.000 6.999 3.867 C 6.998 2.580,6.995 2.552,6.785 2.120 C 6.531 1.596,6.053 1.210,5.482 1.066 C 5.286 1.017,5.183 1.013,3.989 1.015 C 2.812 1.016,2.690 1.021,2.507 1.068 M10.507 1.068 C 9.943 1.213,9.466 1.601,9.215 2.120 C 9.005 2.552,9.002 2.580,9.001 3.867 L 9.000 5.000 10.000 5.000 L 11.000 5.000 11.007 4.007 L 11.014 3.013 12.000 3.013 L 12.987 3.013 12.987 5.013 L 12.987 7.013 12.493 7.013 L 12.000 7.013 12.000 6.507 L 12.000 6.000 10.507 6.993 C 9.687 7.540,9.015 7.993,9.015 8.000 C 9.015 8.007,9.687 8.460,10.507 9.007 L 12.000 10.000 12.000 9.507 L 12.000 9.013 12.493 9.013 L 12.987 9.013 12.987 11.013 L 12.987 13.013 12.000 13.013 L 11.013 13.013 11.013 12.013 L 11.013 11.013 9.998 11.013 L 8.982 11.013 8.994 12.153 C 9.007 13.439,9.009 13.455,9.215 13.880 C 9.410 14.282,9.718 14.590,10.120 14.785 C 10.562 15.000,10.564 15.000,12.000 15.000 C 13.436 15.000,13.438 15.000,13.880 14.785 C 14.282 14.590,14.590 14.282,14.785 13.880 C 15.020 13.396,15.000 13.948,15.000 8.000 C 15.000 2.052,15.020 2.604,14.785 2.120 C 14.531 1.596,14.053 1.210,13.482 1.066 C 13.286 1.017,13.183 1.013,11.989 1.015 C 10.812 1.016,10.690 1.021,10.507 1.068 " stroke="none" fill-rule="evenodd" fill="black"></path></svg>