<svg width="16" height="16" viewBox="0 0 16 16" xmlns="http://www.w3.org/2000/svg"><path d="M3.893 1.030 C 3.178 1.100,2.756 1.232,2.302 1.526 C 1.552 2.012,1.158 2.640,1.035 3.547 C 0.984 3.916,0.984 12.084,1.035 12.453 C 1.115 13.039,1.280 13.452,1.587 13.834 C 2.099 14.470,2.828 14.854,3.720 14.959 C 4.119 15.005,6.898 15.030,7.134 14.988 C 7.488 14.927,7.769 14.715,7.916 14.400 C 7.974 14.275,7.984 14.216,7.984 14.000 C 7.984 13.784,7.974 13.725,7.916 13.600 C 7.815 13.384,7.653 13.216,7.446 13.114 L 7.268 13.027 5.667 13.009 C 4.703 12.999,3.987 12.980,3.867 12.962 C 3.508 12.908,3.205 12.723,3.089 12.487 L 3.027 12.360 3.027 8.000 L 3.027 3.640 3.089 3.513 C 3.213 3.261,3.517 3.086,3.907 3.041 C 4.235 3.004,11.765 3.004,12.093 3.041 C 12.483 3.086,12.787 3.261,12.911 3.513 L 12.973 3.640 12.987 5.320 C 13.001 6.962,13.002 7.003,13.058 7.141 C 13.223 7.546,13.579 7.793,14.000 7.793 C 14.421 7.793,14.776 7.547,14.942 7.141 C 14.997 7.005,15.000 6.959,15.008 5.773 C 15.024 3.596,14.964 3.062,14.641 2.498 C 14.227 1.775,13.439 1.243,12.533 1.075 C 12.299 1.032,11.964 1.028,8.133 1.025 C 5.853 1.023,3.945 1.025,3.893 1.030 M4.529 4.051 C 4.329 4.115,4.211 4.191,4.082 4.337 C 3.637 4.843,3.789 5.601,4.395 5.899 L 4.572 5.987 7.773 5.987 L 10.974 5.987 11.152 5.899 C 11.513 5.721,11.716 5.399,11.716 5.000 C 11.716 4.601,11.513 4.279,11.152 4.101 L 10.974 4.013 7.827 4.008 C 4.847 4.003,4.672 4.005,4.529 4.051 M4.491 7.062 C 4.093 7.200,3.831 7.571,3.831 8.000 C 3.831 8.423,4.074 8.777,4.476 8.939 L 4.627 9.000 6.413 9.000 C 8.187 9.000,8.201 9.000,8.341 8.942 C 8.747 8.776,8.993 8.421,8.993 8.000 C 8.993 7.674,8.857 7.403,8.593 7.200 C 8.345 7.010,8.405 7.015,6.413 7.015 C 4.778 7.015,4.615 7.019,4.491 7.062 M11.734 8.043 C 11.363 8.142,11.088 8.447,11.016 8.839 C 11.000 8.926,10.987 9.222,10.987 9.498 L 10.987 10.000 10.446 10.000 C 9.839 10.000,9.673 10.027,9.461 10.164 C 8.795 10.591,8.873 11.575,9.600 11.916 C 9.742 11.983,9.765 11.985,10.367 11.995 L 10.987 12.004 10.987 12.504 C 10.987 12.779,11.000 13.075,11.016 13.162 C 11.076 13.491,11.295 13.774,11.600 13.916 C 11.725 13.974,11.784 13.984,12.000 13.984 C 12.216 13.984,12.275 13.974,12.400 13.916 C 12.705 13.774,12.924 13.491,12.984 13.162 C 13.000 13.075,13.013 12.779,13.013 12.504 L 13.013 12.004 13.633 11.995 C 14.235 11.985,14.258 11.983,14.400 11.916 C 14.817 11.720,15.063 11.267,14.984 10.840 C 14.931 10.552,14.775 10.315,14.539 10.164 C 14.327 10.027,14.161 10.000,13.554 10.000 L 13.013 10.000 13.013 9.498 C 13.013 9.222,13.000 8.926,12.984 8.839 C 12.911 8.441,12.636 8.141,12.254 8.041 C 12.061 7.991,11.926 7.991,11.734 8.043 " stroke="none" fill-rule="evenodd" fill="black"></path></svg>