<svg width="16" height="16" viewBox="0 0 16 16" xmlns="http://www.w3.org/2000/svg"><path d="M5.196 1.050 C 4.921 1.150,4.710 1.340,4.590 1.597 C 4.530 1.726,4.520 1.782,4.520 2.000 C 4.520 2.218,4.530 2.274,4.590 2.403 C 4.719 2.678,4.940 2.872,5.227 2.962 C 5.369 3.007,5.323 3.009,3.587 3.012 C 1.596 3.015,1.655 3.010,1.407 3.200 C 1.143 3.403,1.007 3.674,1.007 4.000 C 1.007 4.422,1.256 4.781,1.659 4.940 C 1.783 4.989,1.870 4.997,2.392 5.008 C 3.048 5.020,2.991 5.002,3.027 5.212 C 3.057 5.390,3.131 5.504,3.763 6.349 C 4.099 6.798,4.373 7.176,4.373 7.189 C 4.373 7.202,3.654 7.933,2.776 8.813 C 1.067 10.525,1.074 10.516,1.015 10.843 C 0.938 11.270,1.185 11.722,1.600 11.916 C 1.725 11.974,1.784 11.984,2.000 11.984 C 2.447 11.984,2.347 12.063,4.086 10.326 C 5.395 9.019,5.605 8.820,5.636 8.854 C 5.656 8.876,5.800 9.063,5.955 9.271 C 6.297 9.728,6.364 9.795,6.587 9.903 C 6.742 9.978,6.785 9.987,7.000 9.987 C 7.207 9.987,7.262 9.976,7.403 9.911 C 7.609 9.816,7.814 9.610,7.912 9.400 C 7.976 9.262,7.987 9.207,7.987 9.000 C 7.987 8.676,7.942 8.588,7.440 7.920 L 7.034 7.380 7.928 6.483 C 8.469 5.940,8.842 5.545,8.874 5.480 C 8.925 5.379,8.966 5.247,8.999 5.090 L 9.013 5.019 9.606 5.008 C 10.130 4.997,10.217 4.990,10.341 4.940 C 10.744 4.781,10.993 4.422,10.993 4.000 C 10.993 3.674,10.857 3.403,10.593 3.200 C 10.345 3.010,10.404 3.015,8.413 3.012 C 6.677 3.009,6.631 3.007,6.773 2.962 C 7.060 2.872,7.281 2.678,7.410 2.403 C 7.470 2.274,7.480 2.218,7.480 2.000 C 7.480 1.781,7.470 1.726,7.409 1.595 C 7.314 1.393,7.156 1.227,6.953 1.117 L 6.787 1.027 6.040 1.020 C 5.471 1.016,5.270 1.023,5.196 1.050 M6.560 5.020 C 6.560 5.024,6.394 5.193,6.191 5.395 L 5.822 5.763 5.551 5.402 C 5.402 5.204,5.280 5.035,5.280 5.027 C 5.280 5.020,5.568 5.013,5.920 5.013 C 6.272 5.013,6.560 5.016,6.560 5.020 M11.102 6.198 C 10.765 6.280,10.467 6.512,10.271 6.845 C 10.084 7.162,6.911 13.637,6.878 13.769 C 6.827 13.972,6.859 14.238,6.957 14.438 C 7.259 15.051,8.071 15.185,8.554 14.702 C 8.664 14.591,8.756 14.424,9.199 13.527 L 9.716 12.480 11.427 12.480 L 13.137 12.480 13.645 13.513 C 14.207 14.656,14.264 14.743,14.542 14.880 C 14.856 15.034,15.177 15.032,15.475 14.874 C 15.871 14.663,16.084 14.171,15.963 13.752 C 15.912 13.578,12.712 7.058,12.555 6.808 C 12.356 6.492,12.036 6.258,11.712 6.190 C 11.532 6.152,11.278 6.155,11.102 6.198 M12.133 10.460 C 12.133 10.471,11.815 10.480,11.427 10.480 C 10.976 10.480,10.720 10.470,10.720 10.453 C 10.720 10.439,10.879 10.108,11.073 9.718 L 11.427 9.010 11.780 9.725 C 11.974 10.118,12.133 10.449,12.133 10.460 " stroke="none" fill-rule="evenodd" fill="black"></path></svg>