<svg width="16" height="16" viewBox="0 0 16 16" xmlns="http://www.w3.org/2000/svg"><path d="M3.689 1.050 C 3.464 1.123,3.410 1.174,1.998 2.627 C 1.101 3.550,1.074 3.585,1.015 3.910 C 0.898 4.557,1.513 5.167,2.163 5.046 C 2.402 5.001,2.547 4.920,2.779 4.698 L 2.987 4.500 2.987 8.001 L 2.987 11.502 2.789 11.311 C 2.511 11.041,2.309 10.949,1.995 10.949 C 1.777 10.949,1.750 10.955,1.556 11.054 C 1.314 11.178,1.159 11.347,1.066 11.591 C 0.956 11.880,0.999 12.240,1.174 12.493 C 1.275 12.639,3.260 14.683,3.418 14.804 C 3.762 15.068,4.280 15.058,4.613 14.781 C 4.783 14.640,6.761 12.593,6.837 12.479 C 7.001 12.235,7.040 11.875,6.933 11.591 C 6.841 11.348,6.687 11.178,6.444 11.054 C 6.250 10.955,6.223 10.949,6.005 10.949 C 5.691 10.949,5.489 11.041,5.211 11.311 L 5.013 11.502 5.013 8.001 L 5.013 4.500 5.221 4.698 C 5.335 4.807,5.484 4.923,5.552 4.956 C 6.404 5.369,7.301 4.485,6.898 3.628 C 6.826 3.474,6.505 3.131,5.067 1.672 C 4.477 1.073,4.414 1.033,4.041 1.021 C 3.890 1.017,3.758 1.027,3.689 1.050 M8.637 3.076 C 8.447 3.154,8.345 3.228,8.229 3.369 C 8.066 3.568,8.017 3.713,8.016 4.000 C 8.016 4.216,8.026 4.275,8.084 4.400 C 8.229 4.711,8.513 4.927,8.853 4.986 C 8.975 5.007,9.794 5.013,11.613 5.008 C 14.199 5.000,14.200 5.000,14.341 4.942 C 14.747 4.776,14.993 4.421,14.993 4.000 C 14.993 3.674,14.857 3.403,14.593 3.200 C 14.338 3.005,14.513 3.015,11.493 3.015 L 8.787 3.015 8.637 3.076 M8.637 7.076 C 8.447 7.154,8.345 7.228,8.229 7.369 C 8.066 7.568,8.017 7.713,8.016 8.000 C 8.016 8.216,8.026 8.275,8.084 8.400 C 8.229 8.711,8.513 8.927,8.853 8.986 C 8.975 9.007,9.794 9.013,11.613 9.008 C 14.199 9.000,14.200 9.000,14.341 8.942 C 14.747 8.776,14.993 8.421,14.993 8.000 C 14.993 7.674,14.857 7.403,14.593 7.200 C 14.338 7.005,14.513 7.015,11.493 7.015 L 8.787 7.015 8.637 7.076 M8.637 11.076 C 8.447 11.154,8.345 11.228,8.229 11.369 C 8.066 11.568,8.017 11.713,8.016 12.000 C 8.016 12.216,8.026 12.275,8.084 12.400 C 8.229 12.711,8.513 12.927,8.853 12.986 C 8.975 13.007,9.794 13.013,11.613 13.008 C 14.199 13.000,14.200 13.000,14.341 12.942 C 14.747 12.776,14.993 12.421,14.993 12.000 C 14.993 11.674,14.857 11.403,14.593 11.200 C 14.338 11.005,14.513 11.015,11.493 11.015 L 8.787 11.015 8.637 11.076 " stroke="none" fill-rule="evenodd" fill="black"></path></svg>