<svg width="16" height="16" viewBox="0 0 16 16" xmlns="http://www.w3.org/2000/svg"><path d="M7.373 1.029 C 7.329 1.035,7.149 1.059,6.973 1.083 C 5.545 1.272,4.112 1.995,3.041 3.068 C 1.942 4.167,1.265 5.551,1.053 7.134 C 1.001 7.518,0.994 8.347,1.038 8.747 C 1.375 11.769,3.590 14.216,6.563 14.850 C 7.452 15.040,8.548 15.040,9.437 14.850 C 11.333 14.446,12.963 13.293,13.980 11.637 C 14.996 9.982,15.264 7.936,14.715 6.027 C 14.042 3.683,12.081 1.800,9.707 1.216 C 9.096 1.066,8.836 1.036,8.107 1.026 C 7.747 1.022,7.417 1.023,7.373 1.029 M8.947 3.092 C 10.969 3.498,12.501 5.033,12.911 7.067 C 12.965 7.336,12.973 7.450,12.973 8.000 C 12.973 8.550,12.965 8.664,12.911 8.933 C 12.593 10.508,11.609 11.794,10.187 12.492 C 8.282 13.427,5.976 13.040,4.468 11.532 C 3.765 10.829,3.291 9.937,3.089 8.933 C 3.035 8.664,3.027 8.550,3.027 8.000 C 3.027 7.450,3.035 7.336,3.089 7.067 C 3.527 4.896,5.250 3.298,7.440 3.030 C 7.491 3.024,7.785 3.022,8.093 3.026 C 8.543 3.032,8.711 3.045,8.947 3.092 " stroke="none" fill-rule="evenodd" fill="black"></path></svg>