<svg width="16" height="16" viewBox="0 0 16 16" xmlns="http://www.w3.org/2000/svg"><path d="M9.227 1.037 C 8.973 1.119,8.729 1.320,8.618 1.537 C 8.590 1.594,8.365 2.162,8.120 2.800 C 7.593 4.169,7.557 4.252,7.427 4.396 C 7.294 4.543,7.209 4.581,5.773 5.133 C 5.099 5.392,4.509 5.627,4.463 5.656 C 4.331 5.737,4.161 5.938,4.087 6.099 C 3.894 6.521,4.049 7.066,4.433 7.318 C 4.514 7.371,4.991 7.570,5.560 7.788 C 6.973 8.329,7.200 8.422,7.315 8.507 C 7.532 8.666,7.535 8.673,8.212 10.440 C 8.430 11.009,8.629 11.486,8.682 11.567 C 8.934 11.951,9.479 12.106,9.901 11.913 C 10.064 11.838,10.263 11.669,10.346 11.534 C 10.376 11.486,10.614 10.890,10.876 10.210 C 11.138 9.529,11.385 8.904,11.424 8.822 C 11.511 8.638,11.662 8.497,11.877 8.399 C 11.967 8.359,12.562 8.125,13.200 7.880 C 13.838 7.635,14.407 7.410,14.464 7.381 C 14.828 7.196,15.060 6.735,14.987 6.347 C 14.928 6.037,14.730 5.754,14.484 5.629 C 14.425 5.599,13.827 5.362,13.155 5.104 C 12.483 4.845,11.879 4.606,11.813 4.573 C 11.660 4.495,11.505 4.340,11.427 4.187 C 11.394 4.121,11.155 3.517,10.896 2.845 C 10.638 2.173,10.401 1.575,10.371 1.516 C 10.292 1.360,10.114 1.194,9.932 1.105 C 9.797 1.038,9.738 1.026,9.533 1.021 C 9.401 1.018,9.263 1.025,9.227 1.037 M9.860 5.453 C 10.140 5.847,10.540 6.182,10.971 6.386 L 11.209 6.499 10.949 6.626 C 10.347 6.921,9.915 7.356,9.616 7.970 L 9.501 8.208 9.352 7.911 C 9.063 7.331,8.620 6.900,8.012 6.608 L 7.789 6.501 8.028 6.384 C 8.642 6.086,9.088 5.644,9.379 5.045 L 9.502 4.793 9.614 5.030 C 9.676 5.160,9.786 5.351,9.860 5.453 M3.440 9.008 C 3.291 9.032,3.234 9.113,2.907 9.759 C 2.504 10.557,2.533 10.528,1.726 10.935 C 1.400 11.099,1.112 11.252,1.087 11.274 C 1.017 11.335,0.980 11.499,1.015 11.591 C 1.068 11.730,1.157 11.791,1.744 12.085 C 2.536 12.482,2.527 12.473,2.919 13.252 C 3.085 13.583,3.252 13.882,3.289 13.916 C 3.331 13.956,3.400 13.984,3.472 13.991 C 3.684 14.013,3.720 13.970,4.070 13.275 C 4.481 12.458,4.458 12.481,5.275 12.070 C 5.970 11.720,6.013 11.684,5.991 11.472 C 5.984 11.400,5.956 11.331,5.916 11.289 C 5.882 11.252,5.583 11.085,5.252 10.919 C 4.473 10.527,4.482 10.536,4.085 9.744 C 3.924 9.423,3.763 9.133,3.727 9.099 C 3.652 9.030,3.537 8.993,3.440 9.008 " stroke="none" fill-rule="evenodd" fill="black"></path></svg>