<svg width="16" height="16" viewBox="0 0 16 16" xmlns="http://www.w3.org/2000/svg"><path d="M5.662 1.063 C 5.041 1.278,4.802 2.074,5.203 2.596 C 5.316 2.744,5.482 2.870,5.659 2.942 C 5.800 3.000,5.802 3.000,8.000 3.000 C 10.198 3.000,10.200 3.000,10.341 2.942 C 10.747 2.776,10.993 2.421,10.993 2.000 C 10.993 1.674,10.857 1.403,10.593 1.200 C 10.341 1.007,10.453 1.015,8.000 1.015 C 5.958 1.015,5.790 1.018,5.662 1.063 M1.734 4.043 C 1.363 4.143,1.088 4.447,1.016 4.840 C 0.937 5.267,1.183 5.720,1.600 5.916 C 1.742 5.983,1.766 5.985,2.366 5.995 L 2.985 6.004 2.994 9.182 C 3.005 12.628,2.998 12.467,3.150 12.933 C 3.446 13.841,4.193 14.577,5.107 14.861 C 5.554 15.000,5.554 15.000,8.000 15.000 C 10.446 15.000,10.446 15.000,10.893 14.861 C 11.807 14.577,12.554 13.841,12.850 12.933 C 13.002 12.468,12.995 12.627,13.006 9.182 L 13.016 6.004 13.634 5.995 C 14.234 5.985,14.258 5.983,14.400 5.916 C 14.817 5.720,15.063 5.267,14.984 4.840 C 14.931 4.552,14.775 4.315,14.539 4.164 C 14.266 3.989,14.719 4.000,7.988 4.002 C 2.703 4.003,1.860 4.009,1.734 4.043 M10.986 9.100 C 10.985 12.005,10.982 12.209,10.937 12.338 C 10.848 12.596,10.619 12.828,10.341 12.942 C 10.200 13.000,10.198 13.000,8.000 13.000 C 5.802 13.000,5.800 13.000,5.659 12.942 C 5.381 12.828,5.152 12.596,5.063 12.338 C 5.018 12.209,5.015 12.005,5.014 9.100 L 5.013 6.000 8.000 6.000 L 10.987 6.000 10.986 9.100 " stroke="none" fill-rule="evenodd" fill="black"></path></svg>