<svg width="16" height="16" viewBox="0 0 16 16" xmlns="http://www.w3.org/2000/svg"><path d="M5.734 2.043 C 5.654 2.064,5.534 2.117,5.468 2.160 C 5.401 2.203,4.409 3.177,3.263 4.326 C 1.032 6.560,1.075 6.511,1.015 6.843 C 0.938 7.270,1.185 7.722,1.600 7.916 C 1.725 7.974,1.784 7.984,2.000 7.984 C 2.440 7.984,2.384 8.026,3.780 6.633 L 4.987 5.428 4.987 6.361 C 4.989 9.048,5.101 10.180,5.457 11.107 C 5.897 12.250,6.915 13.266,8.020 13.663 C 8.825 13.952,9.561 14.008,12.387 13.995 L 14.253 13.987 14.400 13.917 C 14.818 13.718,15.063 13.267,14.984 12.840 C 14.931 12.552,14.775 12.315,14.539 12.164 C 14.284 12.000,14.285 12.000,12.214 12.000 C 9.537 11.999,9.036 11.959,8.520 11.701 C 8.166 11.523,7.773 11.170,7.558 10.836 C 7.111 10.141,7.014 9.426,7.014 6.827 L 7.013 5.428 8.220 6.633 C 9.616 8.026,9.560 7.984,10.000 7.984 C 10.216 7.984,10.275 7.974,10.400 7.916 C 10.805 7.727,11.064 7.262,10.988 6.859 C 10.920 6.504,11.014 6.609,8.749 4.339 C 7.596 3.183,6.599 2.203,6.533 2.160 C 6.396 2.072,6.146 1.999,5.988 2.002 C 5.928 2.003,5.814 2.021,5.734 2.043 " stroke="none" fill-rule="evenodd" fill="black"></path></svg>