<svg width="16" height="16" viewBox="0 0 16 16" fill="none" xmlns="http://www.w3.org/2000/svg"><path d="M7.734 2.043 C 7.363 2.142,7.088 2.447,7.016 2.839 C 6.975 3.060,6.975 12.939,7.016 13.162 C 7.076 13.491,7.295 13.774,7.600 13.916 C 7.725 13.974,7.784 13.984,8.000 13.984 C 8.216 13.984,8.275 13.974,8.400 13.916 C 8.705 13.774,8.924 13.491,8.984 13.162 C 9.025 12.939,9.025 3.060,8.984 2.839 C 8.911 2.441,8.636 2.141,8.254 2.041 C 8.061 1.991,7.926 1.991,7.734 2.043 M1.970 4.408 C 1.779 4.489,1.677 4.562,1.562 4.702 C 1.399 4.902,1.350 5.046,1.350 5.333 C 1.349 5.734,1.384 5.791,2.027 6.439 C 2.320 6.735,2.560 6.984,2.560 6.994 C 2.560 7.003,2.149 7.015,1.646 7.019 L 0.732 7.027 0.554 7.114 C 0.347 7.216,0.185 7.384,0.084 7.600 C 0.026 7.725,0.016 7.784,0.016 8.000 C 0.016 8.216,0.026 8.275,0.084 8.400 C 0.226 8.705,0.509 8.924,0.838 8.984 C 0.929 9.001,1.332 9.013,1.783 9.013 L 2.570 9.013 2.032 9.555 C 1.384 10.209,1.349 10.265,1.349 10.667 C 1.349 10.883,1.360 10.942,1.418 11.067 C 1.608 11.475,2.070 11.730,2.481 11.654 C 2.826 11.589,2.832 11.584,4.392 10.021 C 6.055 8.355,5.984 8.446,5.984 8.000 C 5.984 7.554,6.055 7.645,4.392 5.979 C 2.732 4.316,2.794 4.366,2.361 4.353 C 2.157 4.347,2.097 4.355,1.970 4.408 M13.304 4.408 C 13.222 4.443,13.120 4.496,13.077 4.527 C 13.035 4.558,12.362 5.223,11.581 6.005 C 9.948 7.642,10.016 7.555,10.016 8.000 C 10.016 8.446,9.945 8.355,11.608 10.021 C 13.170 11.586,13.175 11.590,13.521 11.654 C 13.933 11.729,14.392 11.474,14.582 11.067 C 14.640 10.942,14.651 10.883,14.651 10.667 C 14.651 10.265,14.616 10.209,13.968 9.555 L 13.430 9.013 14.217 9.013 C 14.668 9.013,15.071 9.001,15.162 8.984 C 15.491 8.924,15.774 8.705,15.916 8.400 C 15.974 8.275,15.984 8.216,15.984 8.000 C 15.984 7.784,15.974 7.725,15.916 7.600 C 15.815 7.384,15.653 7.216,15.446 7.114 L 15.268 7.027 14.354 7.019 C 13.851 7.015,13.440 7.003,13.440 6.994 C 13.440 6.984,13.680 6.735,13.973 6.439 C 14.616 5.792,14.651 5.734,14.651 5.333 C 14.651 5.117,14.640 5.058,14.582 4.933 C 14.482 4.717,14.320 4.550,14.113 4.448 C 13.957 4.371,13.904 4.359,13.694 4.353 C 13.491 4.347,13.430 4.355,13.304 4.408 " stroke="none" fill-rule="evenodd"></path></svg>