<svg width="16" height="16" viewBox="0 0 16 16" xmlns="http://www.w3.org/2000/svg"><path d="M11.662 1.061 C 11.400 1.155,11.169 1.384,11.060 1.659 C 11.010 1.784,11.002 1.869,10.992 2.407 L 10.981 3.013 10.390 3.014 C 9.728 3.015,9.622 3.035,9.407 3.200 C 9.143 3.403,9.007 3.674,9.007 4.000 C 9.007 4.422,9.256 4.781,9.659 4.940 C 9.783 4.989,9.870 4.997,10.390 5.008 L 10.981 5.019 10.992 5.610 C 11.003 6.130,11.011 6.217,11.060 6.341 C 11.219 6.744,11.578 6.993,12.000 6.993 C 12.422 6.993,12.781 6.744,12.940 6.341 C 12.989 6.217,12.997 6.130,13.008 5.610 L 13.019 5.019 13.610 5.008 C 14.130 4.997,14.217 4.989,14.341 4.940 C 14.744 4.781,14.993 4.422,14.993 4.000 C 14.993 3.674,14.857 3.403,14.593 3.200 C 14.377 3.035,14.272 3.015,13.607 3.014 L 13.013 3.013 13.013 2.513 C 13.013 1.945,12.989 1.754,12.895 1.560 C 12.808 1.384,12.612 1.190,12.429 1.100 C 12.234 1.005,11.872 0.986,11.662 1.061 M3.606 2.028 C 3.307 2.068,3.006 2.160,2.707 2.304 C 1.748 2.764,1.127 3.651,1.014 4.720 C 0.979 5.060,0.979 10.940,1.014 11.280 C 1.152 12.592,2.082 13.639,3.373 13.937 C 3.576 13.984,3.803 13.987,8.000 13.987 C 12.197 13.987,12.424 13.984,12.627 13.937 C 13.918 13.639,14.848 12.592,14.986 11.280 C 15.022 10.933,15.021 9.039,14.984 8.838 C 14.841 8.058,13.924 7.741,13.328 8.265 C 13.214 8.366,13.092 8.557,13.033 8.727 C 13.014 8.783,12.998 9.251,12.988 10.041 L 12.973 11.268 12.886 11.446 C 12.784 11.652,12.618 11.814,12.400 11.917 L 12.253 11.987 8.000 11.987 L 3.747 11.987 3.600 11.917 C 3.382 11.814,3.216 11.652,3.114 11.446 L 3.027 11.268 3.020 8.036 C 3.013 4.837,3.013 4.802,3.067 4.658 C 3.139 4.466,3.251 4.315,3.407 4.201 C 3.671 4.008,3.581 4.016,5.507 4.001 L 7.240 3.987 7.403 3.911 C 7.609 3.816,7.814 3.610,7.912 3.400 C 7.976 3.262,7.987 3.207,7.987 3.000 C 7.987 2.793,7.976 2.738,7.912 2.600 C 7.814 2.390,7.609 2.184,7.403 2.089 L 7.240 2.013 5.507 2.010 C 4.553 2.008,3.698 2.016,3.606 2.028 M5.662 7.063 C 5.041 7.278,4.802 8.074,5.203 8.596 C 5.316 8.744,5.482 8.870,5.659 8.942 C 5.800 9.000,5.802 9.000,8.000 9.000 C 10.198 9.000,10.200 9.000,10.341 8.942 C 10.747 8.776,10.993 8.421,10.993 8.000 C 10.993 7.674,10.857 7.403,10.593 7.200 C 10.341 7.007,10.453 7.015,8.000 7.015 C 5.958 7.015,5.790 7.018,5.662 7.063 " stroke="none" fill-rule="evenodd" fill="black"></path></svg>