<svg width="16" height="16" viewBox="0 0 16 16" xmlns="http://www.w3.org/2000/svg"><path d="M7.560 2.016 C 6.684 2.107,6.060 2.276,5.373 2.612 C 3.525 3.514,2.280 5.275,2.040 7.328 C 1.778 9.568,2.826 11.780,4.747 13.040 C 5.286 13.394,6.084 13.726,6.728 13.865 C 9.428 14.446,12.170 13.113,13.389 10.627 C 14.202 8.969,14.202 7.031,13.389 5.373 C 12.793 4.158,11.842 3.207,10.629 2.615 C 10.044 2.329,9.513 2.163,8.880 2.067 C 8.608 2.026,7.775 1.994,7.560 2.016 M8.694 4.064 C 9.581 4.222,10.425 4.697,11.004 5.363 C 11.486 5.919,11.804 6.584,11.940 7.320 C 12.008 7.691,12.000 8.411,11.923 8.773 C 11.843 9.149,11.759 9.397,11.594 9.741 L 11.456 10.029 8.715 7.288 L 5.974 4.547 6.203 4.432 C 6.616 4.224,7.073 4.085,7.526 4.028 C 7.786 3.995,8.413 4.015,8.694 4.064 M10.019 11.457 C 9.982 11.493,9.477 11.719,9.293 11.782 C 8.822 11.942,8.549 11.985,7.987 11.983 C 7.569 11.982,7.434 11.972,7.218 11.925 C 5.933 11.642,4.945 10.865,4.385 9.697 C 4.116 9.136,4.014 8.659,4.016 7.973 C 4.019 7.299,4.119 6.860,4.406 6.259 L 4.544 5.971 7.284 8.711 C 8.791 10.218,10.022 11.454,10.019 11.457 " stroke="none" fill-rule="evenodd" fill="black"></path></svg>