<svg width="16" height="16" viewBox="0 0 16 16" xmlns="http://www.w3.org/2000/svg"><path d="M2.507 1.068 C 1.943 1.213,1.466 1.601,1.215 2.120 C 0.999 2.565,1.005 2.505,0.993 4.305 C 0.982 6.017,0.995 6.282,1.104 6.625 C 1.299 7.239,1.796 7.717,2.454 7.924 L 2.653 7.987 8.000 7.987 L 13.347 7.987 13.546 7.924 C 14.204 7.717,14.701 7.239,14.896 6.625 C 15.005 6.282,15.018 6.017,15.007 4.305 C 14.995 2.505,15.001 2.565,14.785 2.120 C 14.532 1.596,14.053 1.210,13.482 1.066 C 13.275 1.014,13.173 1.013,7.989 1.015 C 2.861 1.016,2.701 1.018,2.507 1.068 M12.987 4.507 L 12.987 6.000 8.000 6.000 L 3.013 6.000 3.013 4.507 L 3.013 3.013 8.000 3.013 L 12.987 3.013 12.987 4.507 M1.347 9.068 C 1.184 9.150,1.070 9.276,1.026 9.424 C 0.966 9.624,0.967 14.378,1.027 14.579 C 1.072 14.730,1.218 14.883,1.383 14.953 C 1.531 15.014,1.780 15.008,1.921 14.938 C 2.094 14.854,4.874 12.362,4.941 12.232 C 5.006 12.105,5.008 11.906,4.945 11.773 C 4.910 11.700,4.503 11.320,3.476 10.403 C 2.694 9.705,2.004 9.106,1.943 9.073 C 1.795 8.993,1.503 8.991,1.347 9.068 M6.637 11.076 C 6.446 11.155,6.345 11.228,6.229 11.369 C 6.066 11.568,6.017 11.713,6.016 12.000 C 6.016 12.216,6.026 12.275,6.084 12.400 C 6.226 12.705,6.509 12.924,6.838 12.984 C 7.059 13.025,12.941 13.025,13.162 12.984 C 13.491 12.924,13.774 12.705,13.916 12.400 C 13.974 12.275,13.984 12.216,13.984 12.000 C 13.984 11.784,13.974 11.725,13.916 11.600 C 13.815 11.384,13.653 11.216,13.446 11.114 L 13.268 11.027 10.027 11.020 L 6.787 11.014 6.637 11.076 " stroke="none" fill-rule="evenodd" fill="black"></path></svg>