<svg width="16" height="16" viewBox="0 0 16 16" xmlns="http://www.w3.org/2000/svg"><path d="M2.637 3.076 C 2.447 3.154,2.345 3.228,2.229 3.369 C 2.066 3.568,2.017 3.713,2.016 4.000 C 2.016 4.216,2.026 4.275,2.084 4.400 C 2.229 4.711,2.513 4.928,2.853 4.986 C 2.978 5.007,4.612 5.013,8.613 5.008 L 14.200 5.000 14.341 4.942 C 14.747 4.776,14.993 4.421,14.993 4.000 C 14.993 3.577,14.728 3.197,14.338 3.063 C 14.207 3.018,13.901 3.015,8.493 3.015 L 2.787 3.015 2.637 3.076 M4.637 7.076 C 4.447 7.154,4.345 7.228,4.229 7.369 C 4.066 7.568,4.017 7.713,4.016 8.000 C 4.016 8.216,4.026 8.275,4.084 8.400 C 4.229 8.711,4.513 8.928,4.853 8.986 C 4.977 9.007,6.339 9.013,9.613 9.008 L 14.200 9.000 14.341 8.942 C 14.747 8.776,14.993 8.421,14.993 8.000 C 14.993 7.577,14.728 7.197,14.338 7.063 C 14.208 7.018,13.941 7.015,9.493 7.015 L 4.787 7.015 4.637 7.076 M6.637 11.076 C 6.447 11.154,6.345 11.228,6.229 11.369 C 6.066 11.568,6.017 11.713,6.016 12.000 C 6.016 12.216,6.026 12.275,6.084 12.400 C 6.229 12.711,6.513 12.928,6.853 12.986 C 6.976 13.007,8.067 13.013,10.613 13.008 L 14.200 13.000 14.341 12.942 C 14.747 12.776,14.993 12.421,14.993 12.000 C 14.993 11.674,14.857 11.403,14.593 11.200 C 14.334 11.002,14.632 11.015,10.493 11.015 L 6.787 11.015 6.637 11.076 " stroke="none" fill-rule="evenodd" fill="black"></path></svg>