<svg width="16" height="16" viewBox="0 0 16 16" xmlns="http://www.w3.org/2000/svg"><path d="M3.128 2.028 C 2.803 2.060,2.603 2.118,2.307 2.266 C 1.840 2.500,1.480 2.860,1.252 3.320 C 1.092 3.642,1.041 3.884,1.007 4.463 C 0.963 5.219,1.015 5.464,1.278 5.742 C 1.352 5.820,1.482 5.919,1.566 5.962 C 1.707 6.033,1.743 6.040,2.000 6.040 C 2.255 6.040,2.293 6.033,2.427 5.965 C 2.598 5.877,2.778 5.712,2.870 5.556 C 2.971 5.385,3.012 5.130,3.013 4.672 C 3.013 4.226,3.031 4.155,3.165 4.064 C 3.237 4.016,3.325 4.013,5.113 4.005 L 6.987 3.998 6.987 7.997 L 6.987 11.997 5.873 12.005 L 4.760 12.013 4.587 12.097 C 4.366 12.203,4.201 12.367,4.096 12.587 C 4.022 12.741,4.013 12.786,4.013 13.000 C 4.013 13.213,4.023 13.259,4.096 13.413 C 4.201 13.634,4.366 13.799,4.587 13.904 L 4.760 13.987 7.987 13.987 L 11.213 13.987 11.379 13.910 C 11.583 13.816,11.788 13.608,11.888 13.393 C 11.948 13.263,11.959 13.204,11.960 12.999 C 11.960 12.782,11.952 12.742,11.874 12.583 C 11.769 12.372,11.579 12.185,11.366 12.085 L 11.213 12.013 10.113 12.005 L 9.013 11.997 9.013 7.997 L 9.013 3.998 10.887 4.005 C 12.951 4.014,12.821 4.003,12.937 4.179 C 12.980 4.243,12.986 4.310,12.987 4.667 C 12.988 5.130,13.029 5.385,13.130 5.556 C 13.222 5.712,13.402 5.877,13.573 5.965 C 13.707 6.033,13.745 6.040,14.000 6.040 C 14.257 6.040,14.293 6.033,14.434 5.962 C 14.518 5.919,14.648 5.820,14.722 5.742 C 14.985 5.464,15.037 5.219,14.993 4.463 C 14.959 3.884,14.908 3.642,14.748 3.320 C 14.520 2.859,14.160 2.499,13.693 2.266 C 13.381 2.110,13.211 2.063,12.828 2.027 C 12.491 1.995,3.459 1.996,3.128 2.028 " stroke="none" fill-rule="evenodd" fill="black"></path></svg>