<svg width="16" height="16" viewBox="0 0 16 16" xmlns="http://www.w3.org/2000/svg"><path d="M7.734 0.043 C 7.363 0.142,7.088 0.447,7.016 0.839 C 6.974 1.063,6.980 1.685,7.026 1.899 C 7.093 2.218,7.294 2.468,7.595 2.609 C 7.726 2.670,7.781 2.680,8.000 2.680 C 8.219 2.680,8.274 2.670,8.405 2.609 C 8.706 2.468,8.907 2.218,8.974 1.899 C 9.020 1.685,9.026 1.063,8.984 0.839 C 8.911 0.441,8.636 0.141,8.254 0.041 C 8.061 -0.009,7.926 -0.009,7.734 0.043 M2.774 2.069 C 2.482 2.148,2.242 2.353,2.113 2.635 C 2.055 2.762,2.043 2.826,2.042 3.027 C 2.040 3.388,2.118 3.536,2.531 3.949 C 2.939 4.356,3.093 4.439,3.440 4.438 C 3.755 4.438,3.933 4.365,4.149 4.149 C 4.365 3.933,4.438 3.755,4.438 3.440 C 4.439 3.098,4.356 2.940,3.968 2.551 C 3.640 2.221,3.488 2.117,3.257 2.063 C 3.068 2.018,2.958 2.020,2.774 2.069 M12.730 2.063 C 12.511 2.119,12.353 2.229,12.032 2.551 C 11.639 2.945,11.560 3.097,11.561 3.453 C 11.561 3.669,11.570 3.711,11.647 3.871 C 11.755 4.092,11.965 4.292,12.180 4.377 C 12.297 4.423,12.388 4.438,12.560 4.438 C 12.907 4.439,13.061 4.356,13.469 3.949 C 13.881 3.536,13.960 3.388,13.959 3.027 C 13.959 2.811,13.950 2.769,13.873 2.609 C 13.665 2.182,13.177 1.949,12.730 2.063 M7.467 2.830 C 5.301 3.052,3.495 4.616,2.959 6.733 C 2.393 8.971,3.388 11.329,5.391 12.498 L 5.595 12.618 5.606 13.315 C 5.617 13.982,5.621 14.024,5.690 14.252 C 5.938 15.068,6.531 15.661,7.348 15.910 C 7.564 15.976,7.626 15.983,8.000 15.983 C 8.374 15.983,8.436 15.976,8.652 15.910 C 9.469 15.661,10.062 15.068,10.310 14.252 C 10.379 14.024,10.383 13.982,10.394 13.315 L 10.405 12.618 10.609 12.498 C 11.115 12.203,11.677 11.723,12.032 11.283 C 13.312 9.697,13.559 7.538,12.669 5.720 C 11.711 3.763,9.632 2.608,7.467 2.830 M8.636 4.866 C 9.602 5.069,10.419 5.698,10.863 6.579 C 11.097 7.043,11.181 7.421,11.181 8.000 C 11.181 8.468,11.154 8.650,11.026 9.030 C 10.474 10.676,8.646 11.588,7.003 11.038 C 5.909 10.672,5.126 9.793,4.862 8.636 C 4.801 8.367,4.801 7.638,4.863 7.364 C 5.009 6.717,5.291 6.197,5.744 5.744 C 6.282 5.207,6.866 4.928,7.693 4.815 C 7.852 4.793,8.444 4.825,8.636 4.866 M0.637 7.075 C 0.446 7.155,0.344 7.228,0.229 7.369 C 0.066 7.568,0.017 7.713,0.016 8.000 C 0.016 8.216,0.026 8.275,0.084 8.400 C 0.226 8.705,0.509 8.924,0.838 8.984 C 1.064 9.026,1.685 9.020,1.899 8.974 C 2.218 8.907,2.468 8.706,2.609 8.405 C 2.670 8.274,2.680 8.219,2.680 8.000 C 2.680 7.781,2.670 7.726,2.609 7.595 C 2.514 7.393,2.356 7.227,2.153 7.117 L 1.987 7.027 1.387 7.020 C 0.810 7.013,0.781 7.015,0.637 7.075 M13.996 7.050 C 13.721 7.150,13.510 7.340,13.390 7.597 C 13.330 7.726,13.320 7.782,13.320 8.000 C 13.320 8.219,13.330 8.274,13.391 8.405 C 13.532 8.706,13.782 8.907,14.101 8.974 C 14.315 9.020,14.936 9.026,15.162 8.984 C 15.491 8.924,15.774 8.705,15.916 8.400 C 15.974 8.275,15.984 8.216,15.984 8.000 C 15.984 7.784,15.974 7.725,15.916 7.600 C 15.815 7.384,15.653 7.216,15.446 7.114 L 15.268 7.027 14.681 7.020 C 14.245 7.016,14.068 7.023,13.996 7.050 M8.400 13.444 C 8.400 13.656,8.391 13.704,8.334 13.801 C 8.262 13.924,8.135 14.000,8.000 14.000 C 7.865 14.000,7.738 13.924,7.666 13.801 C 7.609 13.704,7.600 13.656,7.600 13.444 L 7.600 13.200 8.000 13.200 L 8.400 13.200 8.400 13.444 " stroke="none" fill-rule="evenodd" fill="black"></path></svg>