<svg width="16" height="16" viewBox="0 0 16 16" xmlns="http://www.w3.org/2000/svg"><path d="M1.662 1.063 C 1.404 1.152,1.172 1.381,1.058 1.659 C 1.002 1.795,1.000 1.833,1.003 2.707 C 1.007 3.620,1.032 4.001,1.111 4.320 C 1.274 4.984,1.818 5.582,2.487 5.833 C 2.951 6.008,2.739 6.002,8.127 5.993 C 13.481 5.984,13.104 5.996,13.537 5.825 C 14.050 5.623,14.584 5.108,14.788 4.619 C 14.946 4.242,14.992 3.761,14.982 2.627 L 14.973 1.747 14.902 1.595 C 14.808 1.393,14.649 1.227,14.447 1.117 C 14.287 1.031,14.268 1.027,14.000 1.027 C 13.745 1.027,13.706 1.034,13.561 1.105 C 13.352 1.207,13.188 1.375,13.085 1.595 L 13.000 1.773 12.985 2.773 C 12.975 3.421,12.960 3.792,12.941 3.827 C 12.925 3.856,12.885 3.904,12.853 3.934 C 12.795 3.986,12.743 3.987,8.061 3.994 C 4.818 3.998,3.295 3.992,3.224 3.973 C 3.027 3.920,3.029 3.929,3.012 2.801 C 2.997 1.866,2.993 1.791,2.940 1.659 C 2.831 1.383,2.597 1.152,2.338 1.063 C 2.156 1.000,1.844 1.000,1.662 1.063 M2.158 7.064 C 1.883 7.171,1.711 7.337,1.579 7.620 C 1.520 7.748,1.508 7.811,1.508 8.000 C 1.507 8.199,1.517 8.248,1.592 8.405 C 1.743 8.726,2.014 8.930,2.365 8.988 C 2.574 9.022,13.426 9.022,13.635 8.988 C 13.986 8.930,14.257 8.726,14.408 8.405 C 14.482 8.248,14.493 8.199,14.493 8.000 C 14.493 7.801,14.482 7.752,14.408 7.595 C 14.305 7.376,14.141 7.207,13.932 7.105 L 13.773 7.027 8.027 7.021 C 2.548 7.016,2.274 7.018,2.158 7.064 M3.080 10.028 C 2.367 10.106,1.796 10.451,1.389 11.048 C 1.078 11.505,1.008 11.911,1.003 13.293 C 1.000 14.167,1.002 14.205,1.058 14.341 C 1.224 14.747,1.579 14.993,2.000 14.993 C 2.421 14.993,2.780 14.744,2.940 14.341 C 2.993 14.209,2.997 14.133,3.012 13.200 C 3.023 12.531,3.039 12.182,3.059 12.146 C 3.137 12.006,2.862 12.013,8.015 12.013 C 12.748 12.013,12.795 12.014,12.853 12.066 C 12.885 12.096,12.925 12.144,12.941 12.173 C 12.960 12.208,12.977 12.572,12.987 13.213 C 13.003 14.131,13.008 14.210,13.060 14.341 C 13.219 14.744,13.578 14.993,14.000 14.993 C 14.422 14.993,14.783 14.742,14.939 14.341 C 14.985 14.225,14.997 14.121,15.007 13.760 C 15.022 13.234,14.973 12.146,14.922 11.867 C 14.840 11.413,14.671 11.077,14.364 10.754 C 13.945 10.313,13.508 10.097,12.893 10.028 C 12.610 9.996,3.371 9.996,3.080 10.028 " stroke="none" fill-rule="evenodd" fill="black"></path></svg>