<svg width="16" height="16" viewBox="0 0 16 16" xmlns="http://www.w3.org/2000/svg"><path d="M4.987 1.053 C 4.514 1.148,4.026 1.453,3.709 1.851 C 3.510 2.101,0.327 6.939,0.208 7.173 C -0.065 7.708,-0.065 8.292,0.208 8.827 C 0.341 9.088,3.532 13.931,3.730 14.173 C 3.814 14.276,3.960 14.423,4.055 14.500 C 4.254 14.662,4.637 14.860,4.867 14.920 C 5.210 15.010,5.576 15.018,8.857 15.006 C 11.691 14.996,12.131 14.989,12.393 14.950 C 13.108 14.845,13.601 14.592,14.089 14.081 C 14.602 13.545,14.871 12.927,14.964 12.080 C 15.017 11.593,15.017 4.407,14.964 3.920 C 14.872 3.081,14.604 2.462,14.102 1.931 C 13.594 1.394,13.041 1.126,12.272 1.043 C 11.850 0.997,5.218 1.007,4.987 1.053 M12.141 3.041 C 12.372 3.074,12.490 3.135,12.645 3.301 C 12.803 3.470,12.895 3.651,12.939 3.883 C 12.990 4.154,12.989 11.848,12.938 12.120 C 12.891 12.368,12.771 12.585,12.585 12.757 C 12.391 12.937,12.323 12.955,11.720 12.989 C 10.997 13.029,5.417 13.010,5.342 12.967 C 5.280 12.931,5.254 12.893,3.338 9.981 C 2.631 8.908,2.053 8.016,2.053 8.000 C 2.053 7.984,2.631 7.092,3.338 6.019 C 5.224 3.153,5.279 3.070,5.328 3.041 C 5.389 3.006,11.895 3.005,12.141 3.041 M5.662 5.061 C 5.036 5.284,4.801 6.073,5.205 6.598 C 5.253 6.662,5.650 6.999,6.087 7.349 C 6.523 7.698,6.880 7.991,6.880 8.000 C 6.880 8.009,6.523 8.302,6.087 8.651 C 5.650 9.001,5.253 9.338,5.205 9.402 C 4.937 9.750,4.937 10.249,5.203 10.596 C 5.475 10.950,5.948 11.090,6.350 10.936 C 6.483 10.885,7.217 10.321,8.390 9.369 L 8.499 9.280 9.470 10.056 C 10.003 10.483,10.494 10.860,10.561 10.894 C 10.952 11.092,11.455 10.991,11.749 10.655 C 12.046 10.316,12.074 9.778,11.814 9.419 C 11.768 9.356,11.381 9.027,10.921 8.660 C 10.475 8.304,10.109 8.007,10.109 8.000 C 10.109 7.993,10.464 7.705,10.898 7.360 C 11.332 7.015,11.734 6.675,11.790 6.604 C 12.166 6.134,12.007 5.414,11.462 5.118 C 11.299 5.030,11.284 5.027,11.000 5.027 C 10.734 5.027,10.694 5.033,10.573 5.097 C 10.500 5.136,10.003 5.517,9.469 5.944 C 8.614 6.629,8.494 6.717,8.456 6.684 C 8.102 6.379,6.491 5.125,6.402 5.085 C 6.228 5.006,5.849 4.994,5.662 5.061 " stroke="none" fill-rule="evenodd" fill="black"></path></svg>