<svg width="16" height="16" viewBox="0 0 16 16" xmlns="http://www.w3.org/2000/svg"><path d="M6.120 1.050 C 5.793 1.130,5.506 1.322,5.295 1.604 C 4.987 2.013,4.890 2.258,2.980 7.440 C 0.960 12.924,1.047 12.684,1.012 12.865 C 0.933 13.270,1.222 13.770,1.621 13.921 C 2.085 14.097,2.599 13.932,2.840 13.531 C 2.884 13.457,3.201 12.633,3.545 11.699 L 4.170 10.000 6.389 10.000 L 8.609 10.000 8.828 10.660 C 9.078 11.415,9.157 11.583,9.339 11.747 C 9.526 11.915,9.719 11.984,10.000 11.984 C 10.281 11.984,10.461 11.919,10.659 11.746 C 10.899 11.536,11.043 11.150,10.989 10.865 C 10.975 10.792,10.351 8.903,9.602 6.666 C 8.395 3.062,8.219 2.557,8.054 2.219 C 7.951 2.010,7.821 1.770,7.764 1.686 C 7.548 1.369,7.236 1.144,6.888 1.053 C 6.707 1.006,6.308 1.004,6.120 1.050 M7.222 5.862 L 7.936 8.000 6.422 8.000 L 4.907 8.000 4.969 7.833 C 5.004 7.742,5.359 6.775,5.760 5.686 C 6.160 4.597,6.492 3.710,6.497 3.715 C 6.502 3.720,6.828 4.686,7.222 5.862 M12.801 8.549 C 12.679 8.602,12.618 8.659,12.557 8.779 C 12.468 8.953,12.501 9.189,12.636 9.343 C 12.741 9.462,12.820 9.479,13.316 9.493 L 13.791 9.507 11.642 11.636 L 9.493 13.765 9.493 13.329 C 9.492 12.768,9.448 12.654,9.193 12.548 C 9.068 12.495,8.932 12.495,8.807 12.548 C 8.680 12.601,8.620 12.657,8.557 12.779 C 8.510 12.871,8.507 12.950,8.507 13.979 C 8.508 14.990,8.512 15.089,8.557 15.187 C 8.616 15.315,8.674 15.370,8.814 15.429 C 8.905 15.467,9.073 15.475,9.988 15.487 C 11.112 15.502,11.174 15.497,11.319 15.383 C 11.477 15.258,11.536 15.006,11.452 14.807 C 11.348 14.558,11.228 14.507,10.751 14.507 C 10.547 14.507,10.340 14.499,10.291 14.489 L 10.202 14.471 12.347 12.345 L 14.493 10.219 14.507 10.689 C 14.517 11.057,14.530 11.177,14.564 11.240 C 14.688 11.465,14.972 11.554,15.213 11.443 C 15.340 11.385,15.397 11.325,15.452 11.193 C 15.513 11.047,15.513 8.953,15.452 8.807 C 15.397 8.675,15.340 8.615,15.213 8.557 C 15.115 8.512,15.018 8.508,14.000 8.508 C 13.074 8.509,12.878 8.515,12.801 8.549 " stroke="none" fill-rule="evenodd" fill="black"></path></svg>