<svg width="16" height="16" viewBox="0 0 16 16" fill="none" xmlns="http://www.w3.org/2000/svg"><path d="M2.767 2.027 C 2.481 2.099,2.228 2.310,2.096 2.587 L 2.013 2.760 2.013 8.000 L 2.013 13.240 2.096 13.413 C 2.201 13.634,2.366 13.799,2.587 13.904 C 2.741 13.977,2.787 13.987,3.000 13.987 C 3.207 13.987,3.262 13.976,3.403 13.911 C 3.609 13.816,3.814 13.610,3.912 13.400 L 3.987 13.240 3.987 8.000 L 3.987 2.760 3.911 2.597 C 3.817 2.392,3.609 2.185,3.406 2.093 C 3.235 2.014,2.938 1.984,2.767 2.027 M5.649 5.064 C 5.377 5.171,5.153 5.402,5.051 5.680 C 4.987 5.854,4.992 6.165,5.061 6.341 C 5.169 6.618,5.417 6.860,5.690 6.953 C 5.817 6.996,6.081 7.000,9.387 7.007 C 11.663 7.012,13.009 7.005,13.119 6.988 C 13.364 6.951,13.599 6.827,13.746 6.659 C 13.922 6.458,13.985 6.282,13.985 5.987 C 13.985 5.771,13.976 5.729,13.900 5.570 C 13.803 5.370,13.647 5.213,13.436 5.102 L 13.293 5.027 9.533 5.021 C 5.949 5.016,5.768 5.018,5.649 5.064 M5.662 9.062 C 5.038 9.279,4.801 10.072,5.203 10.596 C 5.316 10.744,5.482 10.870,5.659 10.942 C 5.797 10.999,5.828 11.000,7.387 11.008 C 8.479 11.014,9.027 11.007,9.147 10.986 C 9.487 10.927,9.771 10.711,9.916 10.400 C 9.974 10.275,9.984 10.216,9.984 10.000 C 9.984 9.784,9.974 9.725,9.916 9.600 C 9.815 9.384,9.653 9.216,9.446 9.114 L 9.268 9.027 7.534 9.021 C 5.925 9.015,5.790 9.018,5.662 9.062 " stroke="none" fill-rule="evenodd"></path></svg>