<svg width="16" height="16" viewBox="0 0 16 16" xmlns="http://www.w3.org/2000/svg"><path d="M10.667 2.016 C 9.789 2.121,9.090 2.415,8.453 2.948 C 8.343 3.040,8.029 3.342,7.754 3.620 C 7.215 4.165,7.146 4.264,7.091 4.579 C 7.058 4.766,7.110 5.039,7.212 5.214 C 7.302 5.367,7.497 5.539,7.675 5.622 C 7.806 5.684,7.861 5.693,8.080 5.693 C 8.477 5.693,8.539 5.656,9.186 5.017 C 9.772 4.439,9.851 4.371,10.107 4.231 C 10.388 4.077,10.652 4.015,11.027 4.016 C 11.402 4.017,11.591 4.059,11.907 4.215 C 12.414 4.465,12.833 4.996,12.946 5.533 C 12.997 5.772,12.997 6.174,12.946 6.413 C 12.903 6.617,12.770 6.917,12.636 7.113 C 12.588 7.183,12.296 7.498,11.986 7.813 C 11.333 8.477,11.298 8.534,11.298 8.920 C 11.298 9.197,11.370 9.388,11.551 9.586 C 11.885 9.951,12.413 10.022,12.830 9.757 C 13.008 9.644,14.065 8.558,14.248 8.301 C 15.001 7.243,15.196 5.936,14.786 4.703 C 14.343 3.367,13.190 2.357,11.789 2.078 C 11.542 2.029,10.870 1.991,10.667 2.016 M10.347 5.448 C 10.281 5.467,10.179 5.505,10.120 5.532 C 9.992 5.592,5.695 9.865,5.574 10.053 C 5.532 10.119,5.477 10.245,5.452 10.332 C 5.326 10.770,5.570 11.290,5.995 11.489 C 6.128 11.551,6.180 11.560,6.413 11.560 C 6.877 11.560,6.668 11.737,9.181 9.229 C 11.719 6.697,11.560 6.886,11.560 6.414 C 11.560 6.180,11.551 6.128,11.489 5.995 C 11.295 5.582,10.764 5.328,10.347 5.448 M4.342 7.155 C 4.134 7.243,4.062 7.305,3.465 7.911 C 2.926 8.456,2.738 8.686,2.524 9.053 C 1.965 10.017,1.848 11.251,2.215 12.312 C 2.544 13.264,3.250 14.085,4.132 14.544 C 5.295 15.148,6.655 15.149,7.808 14.547 C 7.959 14.468,8.181 14.334,8.301 14.248 C 8.558 14.065,9.644 13.008,9.757 12.830 C 10.218 12.105,9.608 11.169,8.763 11.306 C 8.483 11.352,8.395 11.414,7.827 11.973 C 7.206 12.582,7.120 12.655,6.860 12.785 C 6.297 13.068,5.627 13.063,5.070 12.773 C 4.700 12.581,4.395 12.272,4.215 11.907 C 4.059 11.591,4.017 11.402,4.016 11.027 C 4.015 10.652,4.077 10.388,4.231 10.107 C 4.371 9.851,4.439 9.772,5.017 9.186 C 5.656 8.538,5.693 8.477,5.693 8.080 C 5.693 7.847,5.686 7.811,5.606 7.648 C 5.507 7.447,5.327 7.268,5.127 7.172 C 5.029 7.124,4.943 7.108,4.747 7.101 C 4.526 7.093,4.474 7.100,4.342 7.155 " stroke="none" fill-rule="evenodd" fill="black"></path></svg>