<svg width="16" height="16" viewBox="0 0 16 16" xmlns="http://www.w3.org/2000/svg"><path d="M0.766 2.027 C 0.490 2.097,0.212 2.331,0.090 2.594 C 0.024 2.738,0.013 2.792,0.013 3.000 C 0.013 3.208,0.024 3.262,0.090 3.406 C 0.177 3.595,0.378 3.796,0.635 3.951 C 0.832 4.071,0.926 4.205,0.961 4.416 C 0.995 4.628,0.995 11.372,0.961 11.584 C 0.926 11.795,0.832 11.929,0.635 12.049 C 0.378 12.204,0.177 12.405,0.090 12.594 C 0.024 12.738,0.013 12.792,0.013 13.000 C 0.013 13.207,0.024 13.262,0.088 13.400 C 0.186 13.610,0.391 13.816,0.597 13.911 C 0.738 13.977,0.793 13.987,1.003 13.987 C 1.238 13.987,1.252 13.983,1.496 13.862 C 1.953 13.634,2.388 13.224,2.641 12.781 C 2.790 12.521,2.893 12.208,2.952 11.836 C 2.996 11.556,3.000 11.272,3.000 8.000 C 3.000 4.728,2.996 4.444,2.952 4.164 C 2.926 3.998,2.870 3.761,2.829 3.639 C 2.623 3.025,2.119 2.454,1.510 2.147 C 1.299 2.040,1.240 2.022,1.067 2.013 C 0.957 2.007,0.821 2.013,0.766 2.027 M6.680 2.017 C 5.882 2.064,5.341 2.278,4.852 2.738 C 4.345 3.215,4.103 3.726,4.028 4.476 C 3.990 4.852,3.990 11.148,4.028 11.524 C 4.103 12.271,4.346 12.785,4.846 13.257 C 5.312 13.695,5.800 13.905,6.509 13.971 C 6.904 14.008,9.096 14.008,9.491 13.971 C 10.200 13.905,10.688 13.695,11.154 13.257 C 11.654 12.785,11.897 12.271,11.972 11.524 C 12.010 11.148,12.010 4.852,11.972 4.476 C 11.902 3.781,11.703 3.319,11.280 2.870 C 11.057 2.632,10.829 2.461,10.539 2.311 C 10.024 2.046,9.855 2.025,8.200 2.015 C 7.452 2.011,6.768 2.011,6.680 2.017 M14.762 2.028 C 14.457 2.105,13.922 2.483,13.637 2.824 C 13.309 3.216,13.134 3.613,13.048 4.160 C 13.004 4.444,13.000 4.725,13.000 8.000 C 13.000 11.272,13.004 11.556,13.048 11.836 C 13.107 12.208,13.210 12.521,13.359 12.781 C 13.612 13.224,14.047 13.634,14.504 13.862 C 14.748 13.983,14.762 13.987,14.997 13.987 C 15.207 13.987,15.262 13.977,15.403 13.911 C 15.609 13.816,15.814 13.610,15.912 13.400 C 15.976 13.262,15.987 13.207,15.987 13.000 C 15.987 12.792,15.976 12.738,15.910 12.594 C 15.823 12.405,15.622 12.204,15.365 12.049 C 15.168 11.929,15.074 11.795,15.039 11.584 C 15.005 11.372,15.005 4.628,15.039 4.416 C 15.074 4.205,15.168 4.071,15.365 3.951 C 15.622 3.796,15.823 3.595,15.910 3.406 C 15.976 3.262,15.987 3.208,15.987 3.000 C 15.987 2.792,15.976 2.738,15.910 2.594 C 15.817 2.392,15.607 2.185,15.400 2.090 C 15.234 2.014,14.935 1.985,14.762 2.028 M9.316 4.027 C 9.604 4.055,9.698 4.096,9.837 4.254 C 9.993 4.431,9.987 4.278,9.987 8.000 C 9.987 10.791,9.980 11.449,9.951 11.547 C 9.905 11.702,9.701 11.904,9.542 11.952 C 9.372 12.003,6.625 12.002,6.453 11.951 C 6.293 11.902,6.098 11.707,6.049 11.547 C 5.997 11.374,5.996 4.631,6.048 4.460 C 6.125 4.206,6.328 4.059,6.646 4.029 C 6.963 3.998,9.005 3.997,9.316 4.027 " stroke="none" fill-rule="evenodd" fill="black"></path></svg>