<svg width="16" height="16" viewBox="0 0 16 16" xmlns="http://www.w3.org/2000/svg"><path d="M3.449 1.053 C 3.174 1.103,2.930 1.188,2.636 1.338 C 1.785 1.771,1.213 2.552,1.036 3.520 C 0.983 3.816,0.983 12.184,1.036 12.480 C 1.272 13.774,2.226 14.728,3.520 14.964 C 3.816 15.017,12.184 15.017,12.480 14.964 C 13.774 14.728,14.728 13.774,14.964 12.480 C 15.017 12.184,15.017 3.816,14.964 3.520 C 14.733 2.250,13.766 1.268,12.537 1.052 C 12.224 0.998,3.751 0.998,3.449 1.053 M12.430 3.100 C 12.608 3.188,12.833 3.416,12.915 3.593 C 12.969 3.711,12.974 3.767,12.982 4.367 L 12.990 5.013 8.002 5.013 L 3.013 5.013 3.014 4.407 C 3.015 3.895,3.023 3.778,3.063 3.662 C 3.154 3.399,3.399 3.154,3.662 3.062 C 3.793 3.017,4.025 3.015,8.040 3.021 L 12.280 3.027 12.430 3.100 M6.987 8.013 L 6.987 9.013 5.000 9.013 L 3.013 9.013 3.013 8.013 L 3.013 7.013 5.000 7.013 L 6.987 7.013 6.987 8.013 M12.987 8.013 L 12.987 9.013 11.000 9.013 L 9.013 9.013 9.013 8.013 L 9.013 7.013 11.000 7.013 L 12.987 7.013 12.987 8.013 M6.987 12.013 L 6.987 13.013 5.500 13.013 C 4.662 13.013,3.944 13.002,3.855 12.987 C 3.532 12.934,3.243 12.720,3.099 12.428 C 3.027 12.281,3.027 12.274,3.018 11.647 L 3.010 11.013 4.998 11.013 L 6.987 11.013 6.987 12.013 M12.982 11.647 C 12.973 12.274,12.973 12.281,12.901 12.428 C 12.757 12.720,12.468 12.934,12.145 12.987 C 12.056 13.002,11.338 13.013,10.500 13.013 L 9.013 13.013 9.013 12.013 L 9.013 11.013 11.002 11.013 L 12.990 11.013 12.982 11.647 " stroke="none" fill-rule="evenodd" fill="black"></path></svg>