<svg width="16" height="16" viewBox="0 0 16 16" xmlns="http://www.w3.org/2000/svg"><path d="M5.734 2.043 C 5.363 2.143,5.088 2.447,5.016 2.840 C 4.937 3.267,5.182 3.718,5.600 3.917 L 5.747 3.987 6.833 3.995 C 7.431 3.999,7.920 4.011,7.921 4.021 C 7.921 4.032,7.282 5.830,6.501 8.019 L 5.081 11.997 3.920 12.005 L 2.760 12.013 2.587 12.097 C 2.366 12.203,2.201 12.367,2.096 12.587 C 2.022 12.741,2.013 12.786,2.013 13.000 C 2.013 13.213,2.023 13.259,2.096 13.413 C 2.201 13.634,2.366 13.799,2.587 13.904 L 2.760 13.987 6.000 13.987 L 9.240 13.987 9.403 13.911 C 9.609 13.816,9.814 13.610,9.912 13.400 C 9.976 13.262,9.987 13.207,9.987 13.000 C 9.987 12.793,9.976 12.738,9.912 12.600 C 9.814 12.390,9.609 12.184,9.403 12.089 L 9.240 12.013 8.225 12.000 L 7.210 11.987 8.636 7.995 L 10.062 4.003 11.158 3.995 L 12.253 3.987 12.400 3.917 C 12.817 3.719,13.062 3.269,12.985 2.843 C 12.912 2.443,12.637 2.141,12.254 2.041 C 12.022 1.981,5.960 1.982,5.734 2.043 " stroke="none" fill-rule="evenodd" fill="black"></path></svg>