<svg width="16" height="16" viewBox="0 0 16 16" xmlns="http://www.w3.org/2000/svg"><path d="M3.560 3.031 C 2.909 3.095,2.407 3.298,1.950 3.682 C 1.563 4.008,1.236 4.516,1.120 4.971 C 1.005 5.423,1.000 5.556,1.000 8.013 C 1.000 10.604,1.006 10.709,1.171 11.193 C 1.418 11.913,2.049 12.547,2.775 12.804 C 3.281 12.983,3.735 13.012,6.000 13.012 C 8.265 13.012,8.719 12.983,9.225 12.804 C 9.950 12.547,10.599 11.892,10.834 11.180 C 10.922 10.915,10.987 10.477,10.987 10.150 C 10.987 9.991,10.997 9.893,11.014 9.893 C 11.029 9.893,11.458 10.172,11.968 10.513 C 12.999 11.204,13.242 11.340,13.526 11.388 C 14.204 11.502,14.762 11.146,14.951 10.478 C 14.997 10.318,15.000 10.152,15.000 8.000 C 15.000 5.848,14.997 5.682,14.951 5.522 C 14.842 5.138,14.645 4.885,14.334 4.731 C 13.957 4.545,13.549 4.544,13.158 4.730 C 13.049 4.782,12.528 5.113,12.001 5.465 C 11.473 5.818,11.029 6.107,11.014 6.107 C 10.997 6.107,10.987 6.009,10.987 5.850 C 10.987 5.523,10.922 5.085,10.834 4.820 C 10.600 4.109,9.964 3.468,9.229 3.199 C 8.761 3.028,8.819 3.032,6.120 3.026 C 4.771 3.023,3.619 3.026,3.560 3.031 M8.560 5.082 C 8.731 5.162,8.840 5.263,8.911 5.407 L 8.973 5.533 8.981 7.880 C 8.986 9.362,8.979 10.290,8.962 10.399 C 8.915 10.702,8.716 10.897,8.387 10.966 C 8.156 11.015,3.844 11.015,3.613 10.966 C 3.290 10.899,3.087 10.702,3.040 10.413 C 3.005 10.199,3.005 5.801,3.040 5.587 C 3.087 5.299,3.309 5.084,3.605 5.040 C 3.683 5.028,4.803 5.021,6.093 5.023 C 8.414 5.027,8.441 5.027,8.560 5.082 M12.987 8.002 C 12.987 8.442,12.976 8.774,12.963 8.769 C 12.918 8.752,11.815 8.013,11.815 8.000 C 11.815 7.984,12.939 7.231,12.967 7.228 C 12.978 7.227,12.987 7.576,12.987 8.002 " stroke="none" fill-rule="evenodd" fill="black"></path></svg>