<svg width="16" height="16" viewBox="0 0 16 16" xmlns="http://www.w3.org/2000/svg"><path d="M4.900 0.989 C 4.018 1.049,3.455 1.285,2.902 1.828 C 2.436 2.286,2.183 2.776,2.060 3.460 C 2.017 3.700,2.013 4.039,2.013 7.960 C 2.013 12.627,2.006 12.397,2.176 12.937 C 2.444 13.786,3.174 14.516,4.023 14.784 C 4.489 14.931,4.650 14.944,6.000 14.945 L 7.240 14.947 7.413 14.864 C 7.634 14.759,7.799 14.594,7.904 14.373 C 7.977 14.219,7.987 14.173,7.987 13.960 C 7.987 13.752,7.976 13.698,7.910 13.554 C 7.816 13.351,7.608 13.146,7.393 13.045 L 7.240 12.973 6.040 12.956 C 4.614 12.936,4.561 12.927,4.294 12.662 C 4.117 12.485,4.058 12.331,4.027 11.958 C 3.992 11.535,3.992 4.387,4.027 3.964 C 4.044 3.759,4.071 3.607,4.105 3.532 C 4.176 3.370,4.380 3.160,4.543 3.081 C 4.782 2.964,5.130 2.955,8.813 2.967 C 12.275 2.979,12.341 2.981,12.542 3.084 C 12.658 3.145,12.849 3.330,12.920 3.452 C 13.034 3.645,13.047 3.837,13.064 5.573 L 13.080 7.213 13.151 7.365 C 13.235 7.543,13.407 7.738,13.559 7.828 C 13.734 7.930,14.007 7.982,14.194 7.949 C 14.551 7.887,14.798 7.706,14.953 7.393 L 15.053 7.190 15.062 5.788 C 15.073 3.959,15.038 3.433,14.875 2.947 C 14.740 2.543,14.512 2.185,14.177 1.851 C 13.910 1.586,13.701 1.434,13.390 1.279 C 13.028 1.100,12.717 1.029,12.107 0.987 C 11.649 0.956,5.365 0.957,4.900 0.989 M5.852 3.946 C 5.537 3.993,5.240 4.218,5.103 4.514 C 5.036 4.660,5.027 4.711,5.027 4.934 C 5.027 5.167,5.034 5.203,5.113 5.364 C 5.216 5.573,5.384 5.736,5.595 5.836 L 5.747 5.907 8.533 5.907 L 11.320 5.907 11.467 5.832 C 11.974 5.572,12.172 5.008,11.937 4.493 C 11.804 4.204,11.510 3.995,11.166 3.945 C 10.969 3.917,6.047 3.918,5.852 3.946 M5.707 7.002 C 5.406 7.084,5.147 7.314,5.037 7.595 C 4.955 7.805,4.955 8.115,5.037 8.327 C 5.120 8.540,5.319 8.750,5.542 8.859 L 5.719 8.947 7.999 8.947 L 10.280 8.947 10.453 8.864 C 10.674 8.759,10.839 8.594,10.944 8.373 C 11.017 8.219,11.027 8.173,11.027 7.960 C 11.027 7.752,11.016 7.698,10.950 7.554 C 10.856 7.351,10.648 7.146,10.433 7.045 L 10.280 6.973 8.067 6.968 C 6.180 6.964,5.832 6.969,5.707 7.002 M13.760 9.037 C 13.519 9.116,13.411 9.212,12.240 10.385 C 11.588 11.039,11.042 11.573,11.029 11.573 C 11.015 11.573,10.829 11.401,10.615 11.191 C 10.285 10.866,10.204 10.800,10.076 10.752 C 9.864 10.673,9.689 10.655,9.505 10.694 C 9.294 10.737,9.166 10.806,8.999 10.964 C 8.672 11.272,8.601 11.797,8.834 12.187 C 8.903 12.303,10.261 13.677,10.431 13.803 C 10.783 14.063,11.271 14.063,11.622 13.803 C 11.691 13.752,12.445 13.010,13.298 12.155 C 14.983 10.467,14.956 10.499,15.014 10.144 C 15.042 9.973,14.998 9.698,14.919 9.545 C 14.843 9.397,14.635 9.198,14.467 9.112 C 14.329 9.042,14.273 9.029,14.067 9.023 C 13.935 9.018,13.797 9.025,13.760 9.037 " stroke="none" fill-rule="evenodd" fill="black"></path></svg>