<svg width="16" height="16" viewBox="0 0 16 16" xmlns="http://www.w3.org/2000/svg"><path d="M1.662 3.063 C 1.040 3.278,0.802 4.074,1.203 4.596 C 1.316 4.744,1.482 4.870,1.659 4.942 L 1.800 5.000 7.387 5.008 C 11.388 5.013,13.022 5.007,13.147 4.986 C 13.487 4.928,13.771 4.711,13.916 4.400 C 13.974 4.275,13.984 4.216,13.984 4.000 C 13.984 3.784,13.974 3.725,13.916 3.600 C 13.815 3.384,13.653 3.216,13.446 3.114 L 13.268 3.027 7.534 3.021 C 2.087 3.015,1.793 3.017,1.662 3.063 M1.662 7.063 C 1.040 7.278,0.802 8.074,1.203 8.596 C 1.316 8.744,1.482 8.870,1.659 8.942 L 1.800 9.000 6.387 9.008 C 9.661 9.013,11.023 9.007,11.147 8.986 C 11.487 8.928,11.771 8.711,11.916 8.400 C 11.974 8.275,11.984 8.216,11.984 8.000 C 11.984 7.784,11.974 7.725,11.916 7.600 C 11.815 7.384,11.653 7.216,11.446 7.114 L 11.268 7.027 6.534 7.021 C 2.047 7.015,1.793 7.017,1.662 7.063 M1.662 11.063 C 1.040 11.278,0.802 12.074,1.203 12.596 C 1.316 12.744,1.482 12.870,1.659 12.942 L 1.800 13.000 5.387 13.008 C 7.933 13.013,9.024 13.007,9.147 12.986 C 9.487 12.928,9.771 12.711,9.916 12.400 C 9.974 12.275,9.984 12.216,9.984 12.000 C 9.984 11.784,9.974 11.725,9.916 11.600 C 9.815 11.384,9.653 11.216,9.446 11.114 L 9.268 11.027 5.534 11.021 C 2.006 11.015,1.792 11.017,1.662 11.063 " stroke="none" fill-rule="evenodd" fill="black"></path></svg>