<svg width="16" height="16" viewBox="0 0 16 16" fill="none" xmlns="http://www.w3.org/2000/svg"><path d="M12.767 2.027 C 12.481 2.099,12.228 2.310,12.096 2.587 L 12.013 2.760 12.013 8.000 L 12.013 13.240 12.096 13.413 C 12.201 13.634,12.366 13.799,12.587 13.904 C 12.741 13.977,12.787 13.987,13.000 13.987 C 13.207 13.987,13.262 13.976,13.403 13.911 C 13.609 13.816,13.814 13.610,13.912 13.400 L 13.987 13.240 13.987 8.000 L 13.987 2.760 13.911 2.597 C 13.817 2.392,13.609 2.185,13.406 2.093 C 13.235 2.014,12.938 1.984,12.767 2.027 M2.689 5.050 C 2.416 5.148,2.203 5.341,2.085 5.597 C 2.026 5.725,2.016 5.784,2.016 6.000 C 2.016 6.216,2.026 6.275,2.084 6.400 C 2.231 6.714,2.518 6.930,2.867 6.987 C 3.090 7.023,9.902 7.022,10.133 6.985 C 10.380 6.946,10.558 6.851,10.729 6.667 C 10.918 6.463,10.992 6.274,10.993 6.000 C 10.993 5.581,10.740 5.214,10.348 5.065 C 10.217 5.015,10.101 5.013,6.500 5.015 C 3.514 5.015,2.768 5.022,2.689 5.050 M5.662 9.063 C 5.039 9.278,4.801 10.073,5.203 10.596 C 5.316 10.744,5.482 10.870,5.659 10.942 C 5.800 11.000,5.802 11.000,8.000 11.000 C 10.198 11.000,10.200 11.000,10.341 10.942 C 10.747 10.776,10.993 10.421,10.993 10.000 C 10.993 9.674,10.857 9.403,10.593 9.200 C 10.341 9.007,10.453 9.015,8.000 9.015 C 5.958 9.015,5.790 9.018,5.662 9.063 " stroke="none" fill-rule="evenodd"></path></svg>