<svg width="16" height="16" viewBox="0 0 16 16" fill="none" xmlns="http://www.w3.org/2000/svg"><path d="M7.734 2.041 C 7.360 2.146,7.088 2.448,7.016 2.839 C 6.998 2.935,6.987 3.391,6.987 4.004 L 6.987 5.012 4.847 5.019 L 2.707 5.027 2.564 5.102 C 2.353 5.213,2.197 5.370,2.100 5.570 C 2.022 5.732,2.014 5.768,2.015 6.000 C 2.016 6.215,2.026 6.276,2.084 6.400 C 2.231 6.714,2.518 6.930,2.867 6.987 C 2.961 7.002,3.839 7.013,5.007 7.013 L 6.987 7.013 6.987 8.012 L 6.987 9.011 5.847 9.019 L 4.707 9.027 4.540 9.117 C 4.337 9.227,4.179 9.393,4.084 9.595 C 4.023 9.726,4.013 9.781,4.013 10.000 C 4.013 10.219,4.023 10.274,4.084 10.405 C 4.225 10.705,4.510 10.924,4.838 10.984 C 4.934 11.002,5.390 11.013,5.992 11.013 L 6.987 11.013 6.987 12.008 C 6.987 12.610,6.998 13.066,7.016 13.162 C 7.076 13.491,7.295 13.774,7.600 13.916 C 7.725 13.974,7.784 13.984,8.000 13.984 C 8.216 13.984,8.275 13.974,8.400 13.916 C 8.714 13.769,8.930 13.482,8.987 13.133 C 9.001 13.045,9.013 12.532,9.013 11.993 L 9.013 11.013 10.008 11.013 C 10.610 11.013,11.066 11.002,11.162 10.984 C 11.491 10.924,11.774 10.705,11.916 10.400 C 11.974 10.275,11.984 10.216,11.984 10.000 C 11.984 9.784,11.974 9.725,11.916 9.600 C 11.815 9.384,11.653 9.216,11.446 9.114 L 11.268 9.027 10.141 9.019 L 9.013 9.012 9.013 8.013 L 9.013 7.013 10.993 7.013 C 12.161 7.013,13.039 7.002,13.133 6.987 C 13.368 6.948,13.602 6.823,13.746 6.659 C 13.922 6.458,13.985 6.282,13.985 5.987 C 13.985 5.771,13.976 5.729,13.900 5.570 C 13.803 5.370,13.647 5.213,13.436 5.102 L 13.293 5.027 11.155 5.019 L 9.017 5.012 9.008 3.913 C 8.999 2.845,8.997 2.809,8.938 2.663 C 8.823 2.375,8.609 2.158,8.347 2.066 C 8.169 2.004,7.906 1.993,7.734 2.041 " stroke="none" fill-rule="evenodd"></path></svg>