<svg width="16" height="16" viewBox="0 0 16 16" fill="none" xmlns="http://www.w3.org/2000/svg"><path d="M2.767 2.029 C 2.487 2.095,2.229 2.309,2.096 2.587 C 2.022 2.741,2.013 2.786,2.013 3.000 C 2.013 3.207,2.024 3.262,2.089 3.403 C 2.184 3.609,2.390 3.814,2.600 3.912 L 2.760 3.987 8.000 3.994 C 13.187 4.001,13.242 4.000,13.413 3.947 C 14.207 3.701,14.365 2.649,13.679 2.181 C 13.395 1.987,13.793 2.000,8.041 2.003 C 5.145 2.004,2.823 2.016,2.767 2.029 M5.662 5.061 C 5.402 5.154,5.172 5.382,5.058 5.659 L 5.000 5.800 4.992 9.387 C 4.987 11.933,4.993 13.024,5.014 13.147 C 5.072 13.487,5.289 13.771,5.600 13.916 C 5.725 13.974,5.784 13.984,6.000 13.984 C 6.216 13.984,6.275 13.974,6.400 13.916 C 6.705 13.774,6.924 13.491,6.984 13.162 C 7.022 12.955,7.025 6.085,6.987 5.855 C 6.934 5.532,6.720 5.242,6.429 5.100 C 6.234 5.005,5.872 4.986,5.662 5.061 M9.662 5.061 C 9.402 5.154,9.172 5.382,9.058 5.659 C 9.001 5.797,9.000 5.828,8.992 7.387 C 8.986 8.479,8.993 9.027,9.014 9.147 C 9.073 9.487,9.289 9.771,9.600 9.916 C 9.725 9.974,9.784 9.984,10.000 9.984 C 10.216 9.984,10.275 9.974,10.400 9.916 C 10.705 9.774,10.924 9.491,10.984 9.162 C 11.021 8.960,11.024 6.079,10.987 5.855 C 10.934 5.532,10.720 5.242,10.429 5.100 C 10.234 5.005,9.872 4.986,9.662 5.061 " stroke="none" fill-rule="evenodd"></path></svg>