<svg width="16" height="16" viewBox="0 0 16 16" xmlns="http://www.w3.org/2000/svg"><path d="M3.673 1.045 C 2.648 1.150,1.778 1.747,1.324 2.655 C 1.079 3.148,1.010 3.592,1.004 4.733 C 1.000 5.499,1.003 5.539,1.058 5.675 C 1.224 6.081,1.579 6.326,2.000 6.326 C 2.422 6.326,2.781 6.077,2.940 5.675 C 2.991 5.546,2.997 5.456,3.015 4.653 C 3.029 3.979,3.043 3.743,3.075 3.646 C 3.152 3.403,3.396 3.158,3.646 3.071 C 3.763 3.030,4.126 3.027,8.000 3.027 C 11.874 3.027,12.237 3.030,12.354 3.071 C 12.602 3.157,12.843 3.398,12.929 3.646 C 12.969 3.762,12.974 4.134,12.981 7.840 C 12.986 10.484,12.979 11.985,12.961 12.131 C 12.929 12.401,12.867 12.536,12.702 12.702 C 12.451 12.952,12.317 12.979,11.187 13.007 C 10.390 13.027,10.386 13.028,10.239 13.099 C 9.617 13.404,9.478 14.215,9.965 14.702 C 10.247 14.984,10.445 15.025,11.400 15.002 C 12.159 14.983,12.466 14.956,12.780 14.879 C 13.801 14.629,14.628 13.802,14.879 12.780 C 14.998 12.295,15.000 12.227,15.000 7.973 C 15.000 4.262,14.996 3.907,14.953 3.608 C 14.850 2.891,14.592 2.360,14.116 1.884 C 13.617 1.385,13.036 1.118,12.282 1.043 C 11.923 1.007,4.025 1.008,3.673 1.045 M6.767 4.029 C 6.485 4.096,6.229 4.310,6.096 4.587 C 6.022 4.741,6.013 4.786,6.013 5.000 C 6.013 5.207,6.024 5.262,6.089 5.403 C 6.184 5.609,6.390 5.814,6.600 5.912 L 6.760 5.987 7.660 6.000 L 8.561 6.013 8.003 6.570 L 7.446 7.127 7.210 7.077 C 6.991 7.030,6.830 7.027,5.000 7.027 C 3.190 7.027,3.008 7.031,2.800 7.075 C 2.216 7.201,1.679 7.586,1.348 8.117 C 1.198 8.357,1.112 8.591,1.048 8.935 C 1.006 9.160,1.001 9.376,1.001 11.000 C 1.001 12.972,1.006 13.061,1.158 13.499 C 1.354 14.061,1.939 14.646,2.501 14.842 C 2.939 14.994,3.028 14.999,5.000 14.999 C 6.972 14.999,7.061 14.994,7.499 14.842 C 8.060 14.646,8.646 14.060,8.841 13.500 C 8.981 13.098,8.992 12.951,9.006 11.360 C 9.019 9.797,8.996 9.119,8.917 8.765 L 8.871 8.556 9.429 7.998 L 9.987 7.439 10.000 8.340 L 10.013 9.240 10.088 9.400 C 10.186 9.610,10.391 9.816,10.597 9.911 C 10.738 9.976,10.793 9.987,11.000 9.987 C 11.207 9.987,11.262 9.976,11.403 9.911 C 11.609 9.816,11.814 9.610,11.912 9.400 L 11.987 9.240 11.987 7.000 L 11.987 4.760 11.911 4.597 C 11.816 4.391,11.610 4.186,11.400 4.088 L 11.240 4.013 9.053 4.009 C 7.834 4.007,6.822 4.015,6.767 4.029 M6.899 9.101 L 6.973 9.175 6.973 11.000 L 6.973 12.825 6.902 12.897 C 6.838 12.961,6.802 12.971,6.568 12.990 C 6.228 13.017,3.772 13.017,3.432 12.990 C 3.198 12.971,3.162 12.961,3.098 12.897 L 3.027 12.825 3.027 11.002 L 3.027 9.178 3.090 9.110 C 3.125 9.073,3.179 9.038,3.210 9.031 C 3.241 9.025,4.067 9.021,5.046 9.023 L 6.825 9.027 6.899 9.101 " stroke="none" fill-rule="evenodd" fill="black"></path></svg>