<svg width="16" height="16" viewBox="0 0 16 16" fill="none" xmlns="http://www.w3.org/2000/svg"><path d="M6.227 2.027 C 5.890 2.095,5.571 2.295,5.369 2.567 C 5.301 2.658,5.170 2.889,5.079 3.080 C 4.799 3.663,1.060 12.639,1.021 12.823 C 0.929 13.254,1.175 13.719,1.600 13.915 C 1.803 14.009,2.155 14.013,2.379 13.924 C 2.566 13.850,2.766 13.674,2.859 13.503 C 2.897 13.432,3.237 12.635,3.613 11.733 C 3.990 10.831,4.323 10.036,4.352 9.967 L 4.407 9.840 6.503 9.841 L 8.600 9.841 9.278 11.474 C 9.651 12.372,10.006 13.215,10.067 13.347 C 10.200 13.635,10.343 13.788,10.587 13.904 C 10.741 13.977,10.787 13.987,11.000 13.987 C 11.214 13.987,11.259 13.978,11.413 13.903 C 11.509 13.857,11.639 13.767,11.704 13.703 C 11.933 13.475,12.051 13.082,11.977 12.790 C 11.929 12.600,8.098 3.440,7.888 3.015 C 7.719 2.671,7.676 2.608,7.496 2.427 C 7.365 2.296,7.238 2.199,7.138 2.151 C 6.865 2.020,6.505 1.971,6.227 2.027 M9.734 2.043 C 9.363 2.143,9.088 2.447,9.016 2.840 C 8.937 3.267,9.182 3.718,9.600 3.917 L 9.747 3.987 12.000 3.987 L 14.253 3.987 14.400 3.917 C 15.257 3.510,15.161 2.278,14.254 2.041 C 14.023 1.981,9.959 1.982,9.734 2.043 M7.142 6.360 L 7.754 7.827 6.513 7.834 C 5.830 7.837,5.267 7.835,5.260 7.829 C 5.254 7.823,5.528 7.150,5.869 6.334 C 6.209 5.519,6.498 4.861,6.509 4.872 C 6.520 4.884,6.805 5.553,7.142 6.360 M10.637 5.076 C 10.447 5.154,10.345 5.228,10.229 5.369 C 10.066 5.568,10.017 5.713,10.016 6.000 C 10.016 6.216,10.026 6.275,10.084 6.400 C 10.229 6.711,10.513 6.927,10.853 6.986 C 10.973 7.007,11.521 7.014,12.613 7.008 C 14.172 7.000,14.203 6.999,14.341 6.942 C 14.747 6.776,14.993 6.421,14.993 6.000 C 14.993 5.674,14.857 5.403,14.593 5.200 C 14.346 5.011,14.395 5.015,12.493 5.015 L 10.787 5.015 10.637 5.076 M11.734 8.043 C 11.363 8.143,11.088 8.447,11.016 8.840 C 10.937 9.267,11.182 9.718,11.600 9.917 L 11.747 9.987 13.000 9.987 L 14.253 9.987 14.400 9.917 C 15.257 9.510,15.161 8.278,14.254 8.041 C 14.028 7.982,11.955 7.983,11.734 8.043 " stroke="none" fill-rule="evenodd"></path></svg>