<svg width="16" height="16" viewBox="0 0 16 16" xmlns="http://www.w3.org/2000/svg"><path d="M4.418 3.287 C 4.338 3.437,3.762 4.559,3.137 5.780 L 2.000 7.999 2.000 11.000 L 2.000 14.000 5.000 14.000 L 8.000 14.000 8.000 11.000 L 8.000 8.000 5.973 8.000 C 4.859 8.000,3.947 7.996,3.947 7.991 C 3.947 7.986,4.511 6.881,5.202 5.536 C 5.892 4.190,6.463 3.072,6.471 3.051 C 6.484 3.019,6.343 3.013,5.524 3.013 L 4.563 3.013 4.418 3.287 M11.357 3.340 C 11.267 3.520,10.697 4.646,10.090 5.843 L 8.987 8.020 8.987 11.010 L 8.987 14.000 12.000 14.000 L 15.013 14.000 15.013 11.000 L 15.013 8.000 12.978 7.993 L 10.942 7.987 11.659 6.573 C 12.053 5.796,12.620 4.677,12.918 4.087 L 13.461 3.013 12.491 3.013 L 11.520 3.013 11.357 3.340 " stroke="none" fill-rule="evenodd" fill="black"></path></svg>