<svg width="16" height="16" viewBox="0 0 16 16" xmlns="http://www.w3.org/2000/svg"><path d="M11.662 1.061 C 11.400 1.155,11.169 1.384,11.060 1.659 C 11.010 1.784,11.002 1.869,10.992 2.407 L 10.981 3.013 10.390 3.014 C 9.728 3.015,9.622 3.035,9.407 3.200 C 9.143 3.403,9.007 3.674,9.007 4.000 C 9.007 4.422,9.256 4.781,9.659 4.940 C 9.783 4.989,9.870 4.997,10.390 5.008 L 10.981 5.019 10.992 5.610 C 11.003 6.130,11.011 6.217,11.060 6.341 C 11.219 6.744,11.578 6.993,12.000 6.993 C 12.422 6.993,12.781 6.744,12.940 6.341 C 12.989 6.217,12.997 6.130,13.008 5.610 L 13.019 5.019 13.610 5.008 C 14.130 4.997,14.217 4.989,14.341 4.940 C 14.744 4.781,14.993 4.422,14.993 4.000 C 14.993 3.674,14.857 3.403,14.593 3.200 C 14.377 3.035,14.272 3.015,13.607 3.014 L 13.013 3.013 13.013 2.513 C 13.013 1.945,12.989 1.754,12.895 1.560 C 12.808 1.384,12.612 1.190,12.429 1.100 C 12.234 1.005,11.872 0.986,11.662 1.061 M3.553 2.014 C 3.152 2.066,2.871 2.145,2.600 2.281 C 1.934 2.615,1.398 3.224,1.177 3.894 C 0.996 4.445,0.980 4.875,0.994 8.921 C 1.006 12.476,1.007 12.487,1.147 12.987 C 1.393 13.860,2.198 14.644,3.076 14.866 C 3.602 15.000,3.609 15.000,7.787 15.000 C 10.900 15.000,11.739 14.993,11.917 14.965 C 12.994 14.795,13.885 14.035,14.222 13.000 C 14.348 12.612,14.360 12.479,14.360 11.467 C 14.360 10.654,14.353 10.492,14.313 10.320 C 14.217 9.914,14.013 9.539,13.731 9.253 C 13.542 9.061,11.371 7.321,11.110 7.152 C 10.815 6.961,10.603 6.898,10.253 6.896 C 9.807 6.894,9.491 7.013,9.133 7.319 C 9.058 7.383,7.696 8.618,6.106 10.064 L 3.215 12.692 3.142 12.579 C 3.093 12.503,3.059 12.403,3.041 12.279 C 3.005 12.030,3.005 4.961,3.041 4.712 C 3.073 4.486,3.136 4.361,3.287 4.222 C 3.421 4.099,3.491 4.057,3.626 4.018 C 3.681 4.003,4.437 3.985,5.467 3.976 C 7.213 3.960,7.213 3.960,7.367 3.898 C 7.453 3.863,7.583 3.778,7.666 3.703 C 8.211 3.204,8.063 2.357,7.373 2.036 C 7.273 1.990,7.162 1.986,5.547 1.983 C 4.245 1.979,3.760 1.987,3.553 2.014 M5.187 4.534 C 4.762 4.618,4.348 4.934,4.160 5.315 C 4.044 5.551,4.001 5.738,4.001 6.000 C 4.001 6.425,4.139 6.759,4.440 7.056 C 5.035 7.646,5.959 7.646,6.550 7.056 C 6.851 6.755,6.993 6.417,6.993 6.000 C 6.993 5.583,6.851 5.245,6.550 4.944 C 6.342 4.737,6.078 4.590,5.819 4.536 C 5.659 4.503,5.347 4.502,5.187 4.534 M11.296 9.832 C 12.051 10.436,12.326 10.671,12.346 10.729 C 12.379 10.825,12.381 11.624,12.348 12.070 C 12.322 12.427,12.284 12.535,12.116 12.720 C 11.949 12.905,11.789 12.963,11.367 12.988 C 10.910 13.016,5.866 13.021,5.869 12.993 C 5.871 12.966,10.221 9.016,10.250 9.015 C 10.263 9.014,10.734 9.382,11.296 9.832 " stroke="none" fill-rule="evenodd" fill="black"></path></svg>