<svg width="16" height="16" viewBox="0 0 16 16" xmlns="http://www.w3.org/2000/svg"><path d="M5.691 1.049 C 5.632 1.069,4.640 1.651,3.488 2.342 C 1.192 3.720,1.195 3.718,1.062 4.047 L 1.000 4.200 1.000 9.200 L 1.000 14.200 1.062 14.354 C 1.142 14.553,1.372 14.803,1.555 14.891 C 1.732 14.977,1.972 15.014,2.156 14.985 C 2.378 14.950,4.124 14.131,5.364 13.482 L 6.002 13.147 6.514 13.419 C 7.319 13.845,9.375 14.837,9.693 14.952 C 9.829 15.002,10.137 15.002,10.296 14.952 C 10.363 14.931,11.361 14.349,12.513 13.658 C 14.808 12.280,14.805 12.282,14.938 11.953 L 15.000 11.800 15.000 6.800 L 15.000 1.800 14.938 1.646 C 14.856 1.443,14.637 1.208,14.436 1.105 C 14.292 1.033,14.258 1.027,13.995 1.027 L 13.710 1.027 11.855 1.953 L 10.000 2.879 8.148 1.954 L 6.295 1.029 6.048 1.022 C 5.893 1.017,5.759 1.027,5.691 1.049 M8.987 8.522 L 8.987 12.430 8.000 11.931 L 7.013 11.431 7.013 7.529 L 7.013 3.627 8.000 4.120 L 8.987 4.613 8.987 8.522 M12.953 11.055 C 12.918 11.088,11.044 12.213,11.025 12.213 C 11.018 12.213,11.013 10.503,11.013 8.413 L 11.013 4.613 11.993 4.123 L 12.973 3.633 12.980 7.329 C 12.985 10.264,12.980 11.031,12.953 11.055 M4.987 7.609 L 4.987 11.430 4.000 11.931 L 3.013 12.431 3.020 8.690 L 3.027 4.950 3.987 4.370 C 4.515 4.052,4.956 3.790,4.967 3.789 C 4.978 3.788,4.987 5.507,4.987 7.609 " stroke="none" fill-rule="evenodd" fill="black"></path></svg>