<svg width="16" height="16" viewBox="0 0 16 16" xmlns="http://www.w3.org/2000/svg"><path d="M11.662 1.061 C 11.586 1.088,11.460 1.160,11.382 1.220 C 11.304 1.281,10.777 1.796,10.211 2.365 C 9.102 3.480,9.067 3.524,9.014 3.848 C 8.908 4.500,9.500 5.092,10.152 4.986 C 10.373 4.950,10.547 4.854,10.778 4.641 L 10.982 4.453 10.992 5.326 C 11.001 6.144,11.006 6.209,11.059 6.341 C 11.222 6.746,11.579 6.993,12.000 6.993 C 12.421 6.993,12.778 6.746,12.941 6.341 C 12.994 6.209,12.999 6.144,13.008 5.326 L 13.018 4.453 13.222 4.641 C 13.453 4.854,13.627 4.950,13.848 4.986 C 14.500 5.092,15.092 4.500,14.986 3.848 C 14.932 3.519,14.907 3.487,13.710 2.290 C 12.434 1.015,12.460 1.035,12.041 1.020 C 11.858 1.014,11.767 1.024,11.662 1.061 M3.326 2.042 C 2.353 2.218,1.481 2.969,1.177 3.894 C 0.996 4.445,0.980 4.875,0.994 8.921 C 1.006 12.475,1.007 12.486,1.147 12.987 C 1.410 13.923,2.264 14.707,3.240 14.909 C 3.704 15.006,4.291 15.017,8.120 15.006 C 11.413 14.997,11.823 14.991,12.017 14.952 C 13.201 14.711,14.107 13.793,14.323 12.613 C 14.375 12.332,14.375 10.588,14.324 10.360 C 14.231 9.948,14.008 9.534,13.731 9.256 C 13.550 9.075,11.263 7.243,11.072 7.125 C 10.524 6.790,9.814 6.818,9.296 7.197 C 9.139 7.311,3.902 12.052,3.432 12.505 C 3.264 12.667,3.219 12.698,3.198 12.666 C 3.088 12.497,3.065 12.440,3.041 12.278 C 3.005 12.030,3.005 4.960,3.041 4.712 C 3.074 4.484,3.136 4.361,3.293 4.217 C 3.526 4.002,3.394 4.015,5.427 4.000 C 7.437 3.985,7.348 3.993,7.589 3.805 C 7.743 3.685,7.829 3.577,7.914 3.396 C 7.976 3.262,7.987 3.206,7.987 3.000 C 7.987 2.792,7.976 2.738,7.910 2.594 C 7.780 2.312,7.508 2.094,7.205 2.030 C 6.982 1.983,3.597 1.993,3.326 2.042 M5.108 5.054 C 4.726 5.159,4.332 5.478,4.167 5.815 C 3.820 6.525,4.041 7.331,4.701 7.762 C 5.133 8.044,5.711 8.072,6.192 7.834 C 6.422 7.720,6.737 7.404,6.849 7.173 C 7.140 6.578,7.022 5.892,6.548 5.427 C 6.373 5.255,6.131 5.116,5.893 5.053 C 5.712 5.005,5.286 5.005,5.108 5.054 M11.302 9.840 C 12.035 10.427,12.326 10.675,12.346 10.731 C 12.379 10.824,12.381 11.624,12.348 12.070 C 12.321 12.442,12.263 12.591,12.083 12.754 C 11.892 12.927,11.791 12.962,11.403 12.990 C 11.208 13.004,9.908 13.012,8.453 13.007 L 5.853 13.000 8.040 11.008 C 9.243 9.912,10.240 9.018,10.256 9.021 C 10.272 9.024,10.743 9.393,11.302 9.840 " stroke="none" fill-rule="evenodd" fill="black"></path></svg>