<svg width="16" height="16" xmlns="http://www.w3.org/2000/svg"><path d="M7.253 0.042 C 5.880 0.189,4.667 0.618,3.587 1.338 C 3.088 1.670,2.843 1.873,2.344 2.372 C 1.416 3.299,0.819 4.259,0.413 5.480 C -0.213 7.362,-0.121 9.377,0.677 11.213 C 0.956 11.855,1.397 12.567,1.850 13.107 C 2.123 13.432,2.706 14.004,3.013 14.249 C 4.056 15.080,5.243 15.617,6.627 15.884 C 6.973 15.951,7.061 15.957,7.854 15.967 C 8.962 15.981,9.338 15.934,10.256 15.670 C 12.247 15.095,13.965 13.721,14.993 11.880 C 15.458 11.048,15.811 9.986,15.934 9.047 C 15.987 8.636,15.987 7.353,15.933 6.947 C 15.812 6.034,15.462 4.972,15.011 4.154 C 13.823 1.996,11.723 0.518,9.262 0.107 C 9.000 0.063,7.852 -0.009,7.627 0.004 C 7.605 0.005,7.437 0.022,7.253 0.042 M8.685 2.054 C 9.765 2.152,10.948 2.656,11.832 3.396 C 12.985 4.361,13.756 5.750,13.933 7.181 C 13.985 7.602,13.986 8.438,13.934 8.832 C 13.769 10.081,13.196 11.242,12.281 12.183 C 11.596 12.887,10.884 13.339,9.941 13.668 C 8.443 14.189,6.785 14.083,5.343 13.373 C 4.712 13.062,4.214 12.695,3.693 12.156 C 3.223 11.670,2.903 11.208,2.598 10.577 C 2.190 9.730,2.027 9.003,2.027 8.038 C 2.027 6.968,2.178 6.287,2.613 5.396 C 3.347 3.893,4.589 2.810,6.163 2.298 C 6.602 2.155,6.983 2.079,7.573 2.017 C 7.706 2.004,8.365 2.025,8.685 2.054 M5.154 4.547 C 4.688 4.648,4.240 5.062,4.075 5.542 C 3.995 5.777,3.989 6.205,4.064 6.427 C 4.156 6.699,4.267 6.873,4.479 7.076 C 4.807 7.389,5.139 7.511,5.587 7.485 C 5.995 7.460,6.269 7.335,6.559 7.041 C 6.851 6.745,6.985 6.417,6.986 5.999 C 6.987 5.587,6.840 5.234,6.549 4.947 C 6.181 4.584,5.665 4.436,5.154 4.547 M10.204 4.533 C 9.792 4.608,9.336 4.958,9.145 5.346 C 8.861 5.925,8.972 6.570,9.438 7.043 C 9.793 7.403,10.193 7.537,10.710 7.471 C 11.047 7.427,11.284 7.309,11.533 7.060 C 11.842 6.750,11.984 6.411,11.982 5.987 C 11.980 5.585,11.814 5.195,11.536 4.938 C 11.367 4.782,11.153 4.647,10.977 4.586 C 10.801 4.524,10.404 4.497,10.204 4.533 M4.758 9.036 C 4.507 9.081,4.230 9.316,4.098 9.596 C 4.024 9.753,4.014 9.799,4.016 10.000 C 4.018 10.329,4.132 10.576,4.520 11.089 C 5.292 12.112,6.298 12.768,7.365 12.945 C 7.661 12.995,8.237 13.002,8.532 12.960 C 9.649 12.802,10.664 12.160,11.468 11.106 C 11.850 10.606,12.021 10.213,11.990 9.910 C 11.966 9.667,11.820 9.387,11.647 9.251 C 11.406 9.060,11.345 9.040,11.013 9.040 C 10.745 9.040,10.703 9.047,10.569 9.112 C 10.377 9.206,10.253 9.329,10.059 9.619 C 9.612 10.283,9.194 10.663,8.687 10.863 C 8.200 11.056,7.625 11.028,7.140 10.786 C 6.717 10.575,6.362 10.236,5.995 9.696 C 5.743 9.327,5.621 9.200,5.428 9.108 C 5.274 9.036,4.954 9.001,4.758 9.036 " stroke="none" fill-rule="evenodd"></path></svg>