<svg width="16" height="16" viewBox="0 0 16 16" xmlns="http://www.w3.org/2000/svg"><path d="M4.825 2.036 C 4.550 2.111,4.293 2.334,4.165 2.609 C 4.105 2.737,4.094 2.796,4.094 3.000 C 4.094 3.204,4.105 3.263,4.166 3.393 C 4.265 3.608,4.470 3.816,4.674 3.910 L 4.840 3.987 5.913 3.994 L 6.985 4.002 6.993 7.101 L 7.000 10.200 7.058 10.341 C 7.224 10.747,7.579 10.993,8.000 10.993 C 8.421 10.993,8.776 10.747,8.942 10.341 L 9.000 10.200 9.007 7.101 L 9.015 4.002 10.087 3.994 L 11.160 3.987 11.326 3.910 C 11.530 3.816,11.735 3.608,11.834 3.393 C 11.895 3.263,11.906 3.204,11.906 2.999 C 11.907 2.782,11.898 2.742,11.820 2.583 C 11.716 2.372,11.525 2.185,11.312 2.085 L 11.160 2.013 8.053 2.008 C 5.648 2.004,4.919 2.011,4.825 2.036 M3.436 10.302 C 3.217 10.384,3.066 10.518,2.143 11.445 C 1.112 12.480,1.072 12.530,1.015 12.843 C 0.978 13.047,1.016 13.266,1.124 13.469 C 1.233 13.675,3.128 15.565,3.307 15.646 C 3.830 15.884,4.396 15.686,4.646 15.178 C 4.726 15.016,4.733 14.980,4.733 14.747 C 4.733 14.529,4.723 14.472,4.664 14.345 C 4.626 14.264,4.556 14.153,4.508 14.099 L 4.421 14.000 8.000 14.000 L 11.579 14.000 11.492 14.099 C 11.444 14.153,11.374 14.264,11.336 14.345 C 11.277 14.472,11.267 14.529,11.267 14.747 C 11.267 14.980,11.274 15.016,11.354 15.178 C 11.555 15.587,12.001 15.819,12.421 15.732 C 12.732 15.668,12.757 15.647,13.808 14.602 C 14.651 13.764,14.815 13.589,14.881 13.453 C 15.034 13.143,15.037 12.881,14.892 12.562 C 14.835 12.437,14.671 12.260,13.847 11.434 C 12.677 10.263,12.701 10.280,12.253 10.280 C 11.982 10.280,11.948 10.286,11.806 10.358 C 11.616 10.454,11.433 10.646,11.338 10.848 C 11.276 10.979,11.267 11.034,11.267 11.253 C 11.267 11.471,11.277 11.528,11.336 11.655 C 11.374 11.736,11.444 11.847,11.492 11.901 L 11.579 12.000 8.000 12.000 L 4.421 12.000 4.508 11.901 C 4.556 11.847,4.626 11.736,4.664 11.655 C 4.723 11.528,4.733 11.471,4.733 11.253 C 4.733 11.020,4.726 10.984,4.646 10.821 C 4.547 10.620,4.367 10.441,4.167 10.345 C 4.009 10.269,3.592 10.244,3.436 10.302 " stroke="none" fill-rule="evenodd" fill="black"></path></svg>