<svg width="16" height="16" viewBox="0 0 16 16" xmlns="http://www.w3.org/2000/svg"><path d="M1.533 0.030 C 1.120 0.084,0.846 0.221,0.531 0.533 C 0.353 0.709,0.279 0.805,0.204 0.960 C 0.006 1.368,0.013 1.273,0.013 3.507 C 0.013 5.363,0.017 5.519,0.062 5.680 C 0.205 6.188,0.530 6.581,1.000 6.815 C 1.355 6.991,1.376 6.993,3.240 7.006 C 5.112 7.019,5.475 7.003,5.800 6.894 C 6.307 6.724,6.724 6.307,6.894 5.799 C 6.996 5.496,7.012 5.179,7.012 3.507 C 7.012 1.918,6.993 1.500,6.908 1.225 C 6.782 0.818,6.446 0.419,6.061 0.219 C 5.661 0.011,5.741 0.018,3.613 0.011 C 2.572 0.008,1.636 0.016,1.533 0.030 M10.544 0.028 C 9.939 0.107,9.447 0.459,9.184 1.001 C 9.008 1.363,9.007 1.378,8.994 3.240 C 8.981 5.096,8.997 5.464,9.104 5.800 C 9.261 6.294,9.708 6.740,10.206 6.898 C 10.536 7.003,10.913 7.019,12.760 7.006 C 14.624 6.993,14.645 6.991,15.000 6.815 C 15.470 6.581,15.795 6.188,15.938 5.680 C 15.983 5.519,15.987 5.363,15.987 3.507 C 15.987 1.273,15.994 1.368,15.796 0.960 C 15.723 0.810,15.644 0.706,15.482 0.544 C 15.158 0.220,14.877 0.082,14.427 0.028 C 14.162 -0.005,10.792 -0.004,10.544 0.028 M4.987 3.507 L 4.987 5.013 3.493 5.013 L 2.000 5.013 2.000 3.507 L 2.000 2.000 3.493 2.000 L 4.987 2.000 4.987 3.507 M14.000 3.507 L 14.000 5.013 12.507 5.013 L 11.013 5.013 11.013 3.507 L 11.013 2.000 12.507 2.000 L 14.000 2.000 14.000 3.507 M1.455 8.935 C 0.847 9.037,0.302 9.498,0.108 10.075 C 0.005 10.384,-0.003 10.576,0.006 12.587 C 0.016 14.738,0.008 14.634,0.205 15.040 C 0.340 15.320,0.680 15.659,0.960 15.796 C 1.369 15.994,1.267 15.987,3.560 15.987 C 5.465 15.987,5.626 15.983,5.784 15.938 C 6.179 15.826,6.537 15.581,6.758 15.271 C 6.915 15.051,6.999 14.858,7.059 14.582 C 7.102 14.380,7.107 14.188,7.106 12.427 C 7.106 10.245,7.109 10.285,6.903 9.867 C 6.746 9.550,6.450 9.254,6.133 9.097 C 5.745 8.906,5.746 8.906,3.538 8.910 C 2.465 8.912,1.528 8.923,1.455 8.935 M10.365 8.950 C 10.014 9.026,9.687 9.214,9.443 9.482 C 9.267 9.674,9.166 9.848,9.073 10.120 L 9.000 10.333 9.000 12.427 C 9.000 14.349,9.004 14.534,9.047 14.691 C 9.216 15.302,9.691 15.771,10.307 15.937 C 10.482 15.983,10.620 15.987,12.493 15.987 C 14.727 15.987,14.632 15.994,15.040 15.796 C 15.320 15.659,15.659 15.320,15.796 15.040 C 15.994 14.631,15.987 14.733,15.987 12.440 C 15.987 10.535,15.983 10.374,15.938 10.216 C 15.766 9.607,15.319 9.151,14.717 8.966 C 14.590 8.928,14.340 8.922,12.560 8.916 C 10.862 8.911,10.518 8.916,10.365 8.950 M5.093 12.453 L 5.093 14.000 3.547 14.000 L 2.000 14.000 2.000 12.453 L 2.000 10.907 3.547 10.907 L 5.093 10.907 5.093 12.453 M14.000 12.453 L 14.000 14.000 12.493 14.000 L 10.987 14.000 10.987 12.453 L 10.987 10.907 12.493 10.907 L 14.000 10.907 14.000 12.453 " stroke="none" fill-rule="evenodd" fill="black"></path></svg>