<svg width="16" height="16" viewBox="0 0 16 16" xmlns="http://www.w3.org/2000/svg"><path d="M7.253 1.053 C 5.943 1.224,4.723 1.832,3.772 2.790 C 2.776 3.792,2.172 5.064,2.024 6.467 C 1.987 6.821,2.007 7.464,2.067 7.800 C 2.267 8.934,2.863 10.077,3.882 11.280 C 4.528 12.042,5.048 12.567,7.072 14.498 C 7.289 14.705,7.463 14.847,7.554 14.892 C 7.838 15.031,8.161 15.031,8.444 14.892 C 8.668 14.783,10.874 12.666,11.631 11.834 C 13.631 9.637,14.287 7.912,13.890 5.893 C 13.390 3.355,11.270 1.369,8.721 1.051 C 8.355 1.006,7.607 1.006,7.253 1.053 M8.773 3.080 C 10.360 3.431,11.619 4.708,11.922 6.273 C 12.078 7.075,11.978 7.753,11.590 8.527 C 11.121 9.463,10.237 10.494,8.445 12.197 L 8.000 12.620 7.555 12.197 C 6.910 11.584,6.165 10.837,5.816 10.453 C 4.509 9.015,3.956 7.908,4.009 6.840 C 4.104 4.964,5.514 3.382,7.387 3.051 C 7.662 3.002,8.503 3.020,8.773 3.080 M7.554 5.052 C 6.855 5.211,6.300 5.737,6.076 6.454 C 5.986 6.741,5.986 7.259,6.076 7.546 C 6.423 8.657,7.532 9.243,8.627 8.896 C 9.239 8.701,9.719 8.203,9.924 7.546 C 10.013 7.261,10.012 6.744,9.923 6.453 C 9.718 5.787,9.221 5.287,8.559 5.080 C 8.359 5.017,7.777 5.001,7.554 5.052 " stroke="none" fill-rule="evenodd" fill="black"></path></svg>