<svg width="16" height="16" viewBox="0 0 16 16" fill="none" xmlns="http://www.w3.org/2000/svg"><path d="M1.734 2.043 C 1.363 2.142,1.088 2.447,1.016 2.839 C 0.975 3.060,0.975 12.939,1.016 13.162 C 1.076 13.491,1.295 13.774,1.600 13.916 C 1.725 13.974,1.784 13.984,2.000 13.984 C 2.216 13.984,2.275 13.974,2.400 13.916 C 2.705 13.774,2.924 13.491,2.984 13.162 C 3.025 12.939,3.025 3.060,2.984 2.839 C 2.911 2.441,2.636 2.141,2.254 2.041 C 2.061 1.991,1.926 1.991,1.734 2.043 M13.734 2.043 C 13.363 2.142,13.088 2.447,13.016 2.839 C 12.975 3.060,12.975 12.939,13.016 13.162 C 13.076 13.491,13.295 13.774,13.600 13.916 C 13.725 13.974,13.784 13.984,14.000 13.984 C 14.216 13.984,14.275 13.974,14.400 13.916 C 14.705 13.774,14.924 13.491,14.984 13.162 C 15.025 12.939,15.025 3.060,14.984 2.839 C 14.911 2.441,14.636 2.141,14.254 2.041 C 14.061 1.991,13.926 1.991,13.734 2.043 M4.637 5.075 C 4.369 5.188,4.196 5.353,4.075 5.614 L 4.013 5.747 4.013 8.000 L 4.013 10.253 4.083 10.400 C 4.282 10.818,4.730 11.062,5.159 10.985 C 5.490 10.925,5.772 10.707,5.916 10.400 C 5.983 10.258,5.985 10.235,5.995 9.633 L 6.004 9.013 8.000 9.013 L 9.996 9.013 10.005 9.633 C 10.015 10.235,10.017 10.258,10.084 10.400 C 10.228 10.707,10.510 10.925,10.841 10.985 C 11.270 11.062,11.718 10.818,11.917 10.400 L 11.987 10.253 11.987 8.000 L 11.987 5.747 11.917 5.600 C 11.814 5.382,11.652 5.216,11.446 5.114 C 11.280 5.033,11.249 5.027,11.000 5.027 C 10.751 5.027,10.720 5.033,10.554 5.114 C 10.347 5.216,10.186 5.383,10.084 5.600 C 10.017 5.743,10.015 5.764,10.005 6.380 L 9.996 7.013 8.000 7.013 L 6.004 7.013 5.995 6.380 C 5.985 5.764,5.983 5.743,5.916 5.600 C 5.814 5.383,5.653 5.216,5.446 5.114 C 5.291 5.038,5.237 5.026,5.027 5.019 C 4.824 5.013,4.763 5.022,4.637 5.075 " stroke="none" fill-rule="evenodd"></path></svg>