<svg width="16" height="16" viewBox="0 0 16 16" xmlns="http://www.w3.org/2000/svg"><path d="M6.220 1.042 C 6.114 1.055,5.952 1.084,5.861 1.108 C 5.099 1.305,4.405 2.009,4.158 2.833 L 4.104 3.013 3.686 3.014 C 2.679 3.015,2.057 3.215,1.536 3.705 C 1.213 4.009,1.061 4.354,1.014 4.888 C 0.979 5.284,0.979 10.716,1.014 11.112 C 1.070 11.747,1.291 12.150,1.776 12.496 C 2.249 12.834,2.714 12.955,3.743 13.008 L 4.112 13.027 4.185 13.240 C 4.413 13.912,4.895 14.472,5.483 14.750 C 5.945 14.968,6.361 15.012,8.000 15.012 C 9.639 15.012,10.055 14.968,10.517 14.750 C 11.104 14.473,11.586 13.912,11.814 13.240 L 11.887 13.027 12.257 13.008 C 13.286 12.955,13.751 12.834,14.224 12.496 C 14.709 12.150,14.930 11.747,14.986 11.112 C 15.021 10.716,15.021 5.284,14.986 4.888 C 14.930 4.253,14.707 3.848,14.227 3.507 C 13.748 3.167,13.304 3.046,12.448 3.022 L 11.897 3.006 11.825 2.790 C 11.537 1.917,10.860 1.273,10.025 1.078 C 9.849 1.036,9.635 1.031,8.120 1.025 C 7.181 1.021,6.326 1.029,6.220 1.042 M9.698 3.083 C 9.796 3.156,9.920 3.356,9.955 3.499 C 9.994 3.661,10.013 11.761,9.975 12.223 C 9.951 12.510,9.935 12.587,9.877 12.694 C 9.745 12.937,9.704 12.960,9.344 12.988 C 8.933 13.019,7.067 13.019,6.656 12.988 C 6.367 12.965,6.333 12.957,6.266 12.893 C 6.116 12.749,6.056 12.592,6.027 12.264 C 5.991 11.853,5.991 4.147,6.027 3.736 C 6.049 3.492,6.068 3.407,6.124 3.304 C 6.212 3.142,6.293 3.066,6.405 3.039 C 6.454 3.027,7.197 3.020,8.058 3.022 C 9.602 3.027,9.624 3.027,9.698 3.083 M4.000 8.012 L 4.000 11.010 3.620 10.995 C 3.411 10.986,3.192 10.965,3.133 10.948 L 3.027 10.918 3.020 8.014 C 3.016 6.416,3.023 5.100,3.035 5.088 C 3.078 5.045,3.297 5.019,3.647 5.016 L 4.000 5.013 4.000 8.012 M12.913 5.062 L 12.987 5.092 12.980 8.005 L 12.973 10.918 12.867 10.948 C 12.808 10.965,12.589 10.986,12.380 10.995 L 12.000 11.010 12.000 8.009 L 12.000 5.007 12.420 5.019 C 12.651 5.026,12.873 5.046,12.913 5.062 " stroke="none" fill-rule="evenodd" fill="black"></path></svg>