<svg width="16" height="16" viewBox="0 0 16 16" xmlns="http://www.w3.org/2000/svg"><path d="M7.493 1.044 C 7.095 1.109,6.611 1.314,6.253 1.567 C 5.810 1.882,5.385 2.420,5.213 2.887 L 5.166 3.013 4.454 3.013 L 3.742 3.013 3.660 2.887 C 3.472 2.597,3.101 2.294,2.760 2.153 C 2.502 2.046,2.326 2.014,2.000 2.014 C 1.636 2.014,1.481 2.048,1.160 2.199 C 0.177 2.659,-0.253 3.762,0.156 4.767 C 0.347 5.238,0.762 5.653,1.233 5.844 C 1.859 6.099,2.565 6.030,3.107 5.662 C 3.296 5.534,3.562 5.270,3.654 5.121 L 3.720 5.014 4.449 5.020 L 5.178 5.027 5.242 5.177 C 5.318 5.359,5.474 5.631,5.578 5.764 C 5.619 5.817,5.653 5.872,5.653 5.885 C 5.653 5.898,5.608 5.925,5.553 5.945 C 5.498 5.964,5.321 6.042,5.159 6.119 C 4.212 6.565,3.402 7.278,2.792 8.200 C 2.676 8.376,2.517 8.647,2.439 8.802 L 2.298 9.083 2.129 9.130 C 1.313 9.357,0.533 10.076,0.215 10.893 C 0.052 11.315,0.014 11.524,0.014 12.000 C 0.014 12.306,0.026 12.468,0.063 12.627 C 0.361 13.923,1.413 14.852,2.734 14.987 C 3.247 15.039,3.820 14.932,4.310 14.694 C 5.816 13.961,6.426 12.154,5.676 10.649 C 5.453 10.202,5.072 9.777,4.647 9.500 L 4.424 9.355 4.469 9.284 C 4.726 8.879,5.202 8.410,5.642 8.128 C 6.032 7.879,6.622 7.663,7.160 7.572 C 7.647 7.490,8.353 7.490,8.840 7.572 C 9.378 7.663,9.968 7.879,10.358 8.128 C 10.798 8.410,11.274 8.879,11.531 9.284 L 11.576 9.355 11.353 9.500 C 9.980 10.396,9.589 12.256,10.486 13.633 C 10.986 14.399,11.800 14.890,12.732 14.987 C 13.613 15.078,14.556 14.718,15.185 14.051 C 16.036 13.149,16.242 11.786,15.693 10.684 C 15.324 9.944,14.666 9.378,13.904 9.144 L 13.701 9.082 13.560 8.801 C 12.978 7.640,11.981 6.657,10.841 6.119 C 10.679 6.042,10.502 5.964,10.447 5.945 C 10.392 5.925,10.347 5.898,10.347 5.885 C 10.347 5.872,10.381 5.817,10.424 5.764 C 10.513 5.650,10.682 5.352,10.764 5.161 L 10.822 5.027 11.551 5.020 L 12.280 5.014 12.346 5.122 C 12.437 5.269,12.724 5.553,12.902 5.671 C 13.558 6.106,14.460 6.103,15.107 5.662 C 16.116 4.975,16.297 3.589,15.497 2.680 C 15.258 2.409,14.808 2.137,14.453 2.050 C 14.263 2.003,13.735 2.004,13.547 2.050 C 13.071 2.169,12.590 2.502,12.340 2.887 L 12.258 3.013 11.547 3.013 L 10.836 3.013 10.775 2.860 C 10.402 1.931,9.480 1.200,8.480 1.041 C 8.273 1.008,7.699 1.010,7.493 1.044 M8.431 3.101 C 8.608 3.188,8.833 3.417,8.915 3.593 C 8.963 3.698,8.973 3.768,8.973 4.000 C 8.973 4.251,8.966 4.295,8.901 4.428 C 8.707 4.821,8.268 5.054,7.848 4.986 C 7.533 4.935,7.241 4.717,7.101 4.430 C 7.009 4.243,6.986 3.920,7.050 3.701 C 7.130 3.427,7.385 3.160,7.662 3.061 C 7.873 2.986,8.234 3.005,8.431 3.101 M3.446 11.114 C 4.160 11.466,4.177 12.500,3.475 12.873 C 2.661 13.306,1.763 12.528,2.067 11.653 C 2.156 11.398,2.357 11.192,2.633 11.077 C 2.764 11.022,2.823 11.013,3.027 11.019 C 3.237 11.026,3.291 11.038,3.446 11.114 M13.446 11.114 C 14.160 11.466,14.177 12.500,13.475 12.873 C 12.661 13.306,11.763 12.528,12.067 11.653 C 12.156 11.398,12.357 11.192,12.633 11.077 C 12.764 11.022,12.823 11.013,13.027 11.019 C 13.237 11.026,13.291 11.038,13.446 11.114 " stroke="none" fill-rule="evenodd"></path></svg>