<svg width="16" height="16" viewBox="0 0 16 16" xmlns="http://www.w3.org/2000/svg"><path d="M1.390 5.050 C 1.341 5.068,1.256 5.120,1.201 5.166 C 1.000 5.334,1.013 5.138,1.013 8.000 C 1.013 10.871,0.999 10.662,1.209 10.841 C 1.401 11.006,1.717 11.045,1.934 10.930 C 2.068 10.860,4.819 8.416,4.913 8.285 C 4.994 8.171,5.010 7.911,4.945 7.773 C 4.910 7.701,4.500 7.317,3.476 6.403 C 2.694 5.705,2.004 5.106,1.943 5.073 C 1.816 5.005,1.546 4.993,1.390 5.050 M6.637 7.076 C 6.447 7.154,6.345 7.228,6.229 7.369 C 6.066 7.568,6.017 7.713,6.016 8.000 C 6.016 8.216,6.026 8.275,6.084 8.400 C 6.229 8.711,6.513 8.928,6.853 8.986 C 6.976 9.007,8.067 9.013,10.613 9.008 L 14.200 9.000 14.341 8.942 C 14.747 8.776,14.993 8.421,14.993 8.000 C 14.993 7.674,14.857 7.403,14.593 7.200 C 14.334 7.002,14.632 7.015,10.493 7.015 L 6.787 7.015 6.637 7.076 " stroke="none" fill-rule="evenodd" fill="black"></path></svg>