<svg width="16" height="16" viewBox="0 0 16 16" xmlns="http://www.w3.org/2000/svg"><path d="M1.347 1.068 C 1.184 1.150,1.070 1.276,1.026 1.424 C 0.966 1.624,0.967 6.378,1.027 6.579 C 1.072 6.730,1.218 6.883,1.383 6.953 C 1.531 7.014,1.780 7.008,1.921 6.938 C 2.094 6.854,4.874 4.362,4.941 4.232 C 5.006 4.105,5.008 3.906,4.945 3.773 C 4.910 3.700,4.503 3.320,3.476 2.403 C 2.694 1.705,2.004 1.106,1.943 1.073 C 1.795 0.993,1.503 0.991,1.347 1.068 M6.637 3.076 C 6.446 3.155,6.345 3.228,6.229 3.369 C 6.066 3.568,6.017 3.713,6.016 4.000 C 6.016 4.216,6.026 4.275,6.084 4.400 C 6.226 4.705,6.509 4.924,6.838 4.984 C 7.059 5.025,12.941 5.025,13.162 4.984 C 13.491 4.924,13.774 4.705,13.916 4.400 C 13.974 4.275,13.984 4.216,13.984 4.000 C 13.984 3.784,13.974 3.725,13.916 3.600 C 13.815 3.384,13.653 3.216,13.446 3.114 L 13.268 3.027 10.027 3.020 L 6.787 3.014 6.637 3.076 M2.689 8.027 C 1.940 8.155,1.325 8.678,1.104 9.375 C 0.995 9.718,0.982 9.983,0.993 11.695 C 1.005 13.495,0.999 13.435,1.215 13.880 C 1.410 14.282,1.718 14.590,2.120 14.785 C 2.604 15.020,2.052 15.000,8.000 15.000 C 13.948 15.000,13.396 15.020,13.880 14.785 C 14.282 14.590,14.590 14.282,14.785 13.880 C 15.001 13.435,14.995 13.495,15.007 11.695 C 15.018 9.983,15.005 9.718,14.896 9.375 C 14.701 8.760,14.198 8.277,13.542 8.074 L 13.347 8.014 8.080 8.010 C 5.183 8.008,2.757 8.015,2.689 8.027 M12.987 11.507 L 12.987 13.013 8.000 13.013 L 3.013 13.013 3.013 11.507 L 3.013 10.000 8.000 10.000 L 12.987 10.000 12.987 11.507 " stroke="none" fill-rule="evenodd" fill="black"></path></svg>