<svg width="16" height="16" viewBox="0 0 16 16" xmlns="http://www.w3.org/2000/svg"><path d="M10.733 1.032 C 10.370 1.083,9.825 1.305,9.505 1.533 C 8.719 2.095,8.256 3.078,8.344 4.000 C 8.359 4.157,8.357 4.236,8.336 4.257 C 8.320 4.274,7.703 4.634,6.965 5.056 C 5.836 5.702,5.616 5.819,5.578 5.793 C 4.961 5.358,4.332 5.167,3.660 5.211 C 2.459 5.288,1.438 6.098,1.109 7.234 C 0.769 8.409,1.241 9.659,2.283 10.338 C 3.233 10.957,4.518 10.944,5.429 10.308 C 5.525 10.241,5.611 10.187,5.621 10.187 C 5.632 10.187,6.255 10.538,7.006 10.967 L 8.372 11.747 8.356 11.825 C 8.329 11.960,8.338 12.486,8.371 12.667 C 8.635 14.114,9.980 15.134,11.430 14.986 C 12.634 14.864,13.602 14.044,13.913 12.885 C 13.974 12.658,13.983 12.576,13.983 12.200 C 13.983 11.824,13.974 11.742,13.913 11.515 C 13.627 10.446,12.774 9.656,11.690 9.452 C 11.364 9.391,10.772 9.410,10.453 9.493 C 10.192 9.560,9.765 9.757,9.535 9.915 C 9.421 9.994,9.366 10.017,9.335 10.000 C 9.312 9.987,8.700 9.636,7.975 9.221 L 6.656 8.466 6.656 8.002 L 6.656 7.538 7.975 6.781 C 8.700 6.364,9.313 6.013,9.336 5.999 C 9.367 5.982,9.405 5.995,9.470 6.043 C 10.152 6.553,11.119 6.728,11.941 6.491 C 12.919 6.208,13.650 5.465,13.913 4.485 C 13.974 4.258,13.983 4.176,13.983 3.800 C 13.983 3.424,13.974 3.342,13.913 3.115 C 13.746 2.493,13.399 1.972,12.899 1.591 C 12.541 1.319,12.135 1.136,11.708 1.055 C 11.503 1.016,10.943 1.003,10.733 1.032 M11.541 3.095 C 11.717 3.182,11.832 3.297,11.925 3.474 C 12.010 3.635,12.009 3.966,11.924 4.128 C 11.828 4.311,11.694 4.440,11.515 4.520 C 11.096 4.708,10.603 4.530,10.410 4.120 C 10.321 3.932,10.322 3.664,10.412 3.480 C 10.565 3.166,10.807 3.019,11.176 3.015 C 11.350 3.014,11.401 3.025,11.541 3.095 M4.190 7.286 C 4.359 7.363,4.510 7.511,4.592 7.679 C 4.675 7.849,4.675 8.151,4.592 8.321 C 4.510 8.490,4.360 8.636,4.187 8.718 C 3.972 8.819,3.674 8.816,3.461 8.712 C 2.799 8.387,2.888 7.436,3.599 7.235 C 3.771 7.186,4.020 7.207,4.190 7.286 M11.541 11.495 C 11.717 11.582,11.832 11.697,11.925 11.874 C 12.010 12.035,12.009 12.366,11.924 12.528 C 11.828 12.711,11.694 12.840,11.515 12.920 C 11.092 13.110,10.600 12.929,10.407 12.512 C 10.351 12.391,10.343 12.339,10.351 12.164 C 10.359 11.987,10.372 11.938,10.449 11.812 C 10.546 11.652,10.709 11.514,10.869 11.455 C 10.926 11.434,11.064 11.416,11.176 11.415 C 11.350 11.414,11.401 11.425,11.541 11.495 " stroke="none" fill-rule="evenodd" fill="black"></path></svg>