<svg width="16" height="16" viewBox="0 0 16 16" xmlns="http://www.w3.org/2000/svg"><path d="M7.662 1.061 C 7.400 1.155,7.167 1.386,7.061 1.659 C 7.015 1.775,7.003 1.879,6.993 2.247 C 6.984 2.566,6.971 2.693,6.948 2.693 C 6.878 2.693,6.400 2.956,6.210 3.099 C 5.704 3.482,5.343 3.986,5.148 4.583 C 5.043 4.906,5.005 5.162,5.006 5.533 C 5.010 6.248,5.232 6.835,5.742 7.480 L 5.806 7.560 5.094 8.768 C 4.702 9.432,4.369 9.988,4.354 10.004 C 4.335 10.023,4.212 9.918,3.956 9.665 C 3.662 9.373,3.552 9.282,3.417 9.219 C 2.728 8.894,1.946 9.439,2.007 10.201 C 2.031 10.504,2.135 10.671,2.572 11.106 C 2.779 11.311,3.034 11.546,3.140 11.627 C 3.245 11.707,3.332 11.782,3.332 11.793 C 3.333 11.804,3.055 12.320,2.714 12.940 C 2.373 13.560,2.074 14.127,2.048 14.200 C 1.986 14.378,1.988 14.597,2.053 14.804 C 2.277 15.512,3.176 15.729,3.701 15.202 C 3.798 15.105,3.967 14.821,4.451 13.938 C 4.795 13.312,5.086 12.800,5.098 12.800 C 5.109 12.800,5.278 12.855,5.473 12.922 C 6.886 13.408,8.362 13.480,9.800 13.134 C 10.005 13.084,10.333 12.989,10.527 12.922 C 10.722 12.855,10.891 12.800,10.903 12.800 C 10.915 12.800,11.206 13.312,11.549 13.938 C 12.227 15.174,12.288 15.262,12.574 15.402 C 12.753 15.489,13.042 15.517,13.251 15.467 C 13.435 15.423,13.684 15.257,13.799 15.101 C 13.984 14.850,14.048 14.475,13.952 14.200 C 13.926 14.127,13.627 13.560,13.286 12.940 C 12.945 12.320,12.667 11.804,12.668 11.793 C 12.668 11.782,12.755 11.707,12.860 11.627 C 12.966 11.546,13.221 11.311,13.428 11.106 C 13.865 10.671,13.969 10.504,13.993 10.201 C 14.054 9.439,13.272 8.894,12.583 9.219 C 12.448 9.282,12.338 9.373,12.044 9.665 C 11.788 9.918,11.665 10.023,11.646 10.004 C 11.631 9.988,11.298 9.432,10.906 8.768 L 10.194 7.560 10.258 7.480 C 10.768 6.835,10.990 6.248,10.994 5.533 C 10.995 5.162,10.957 4.906,10.852 4.583 C 10.656 3.982,10.295 3.480,9.779 3.091 C 9.585 2.945,9.121 2.693,9.045 2.693 C 9.022 2.693,9.013 2.601,9.013 2.353 C 9.013 1.773,8.944 1.541,8.702 1.298 C 8.507 1.103,8.333 1.030,8.041 1.020 C 7.858 1.014,7.767 1.024,7.662 1.061 M8.405 4.593 C 8.606 4.685,8.773 4.843,8.883 5.047 C 8.969 5.206,8.973 5.226,8.973 5.493 C 8.973 5.749,8.966 5.787,8.895 5.932 C 8.793 6.141,8.624 6.305,8.405 6.408 C 8.248 6.482,8.199 6.493,8.000 6.493 C 7.801 6.493,7.752 6.482,7.595 6.408 C 7.376 6.305,7.207 6.141,7.105 5.932 C 7.033 5.787,7.027 5.749,7.027 5.493 C 7.027 5.239,7.034 5.200,7.101 5.072 C 7.239 4.810,7.446 4.631,7.714 4.544 C 7.893 4.486,8.222 4.509,8.405 4.593 M9.152 9.730 C 9.552 10.411,9.883 10.982,9.888 10.999 C 9.898 11.040,9.517 11.157,9.103 11.241 C 8.392 11.386,7.608 11.386,6.897 11.241 C 6.483 11.157,6.102 11.040,6.112 10.999 C 6.117 10.982,6.448 10.411,6.848 9.730 L 7.576 8.493 8.000 8.493 L 8.424 8.493 9.152 9.730 " stroke="none" fill-rule="evenodd" fill="black"></path></svg>