<svg width="16" height="16" viewBox="0 0 16 16" xmlns="http://www.w3.org/2000/svg"><path d="M7.662 1.061 C 7.402 1.154,7.172 1.382,7.058 1.659 L 7.000 1.800 6.992 4.407 L 6.985 7.013 4.392 7.014 C 1.501 7.015,1.661 7.005,1.407 7.200 C 1.143 7.403,1.007 7.674,1.007 8.000 C 1.007 8.421,1.253 8.776,1.659 8.942 C 1.800 9.000,1.800 9.000,4.392 9.008 L 6.985 9.015 6.992 11.608 C 7.000 14.200,7.000 14.200,7.058 14.341 C 7.224 14.747,7.579 14.993,8.000 14.993 C 8.421 14.993,8.776 14.747,8.942 14.341 C 9.000 14.200,9.000 14.200,9.008 11.608 L 9.015 9.015 11.608 9.008 C 14.200 9.000,14.200 9.000,14.341 8.942 C 14.747 8.776,14.993 8.421,14.993 8.000 C 14.993 7.674,14.857 7.403,14.593 7.200 C 14.339 7.005,14.499 7.015,11.607 7.014 L 9.013 7.013 9.013 4.513 C 9.013 3.018,9.003 1.950,8.987 1.855 C 8.934 1.532,8.720 1.242,8.429 1.100 C 8.234 1.005,7.872 0.986,7.662 1.061 " stroke="none" fill-rule="evenodd" fill="black"></path></svg>