<svg width="16" height="16" viewBox="0 0 16 16" xmlns="http://www.w3.org/2000/svg"><path d="M1.747 3.051 C 1.469 3.139,1.228 3.334,1.111 3.565 C 0.800 4.178,1.195 4.870,1.920 4.985 C 2.161 5.024,13.839 5.024,14.080 4.985 C 14.805 4.870,15.200 4.178,14.889 3.565 C 14.799 3.387,14.619 3.219,14.406 3.114 L 14.228 3.027 8.041 3.022 C 3.095 3.018,1.832 3.023,1.747 3.051 M3.747 7.051 C 3.469 7.139,3.228 7.334,3.111 7.565 C 2.800 8.178,3.195 8.870,3.920 8.985 C 4.159 9.023,11.841 9.023,12.080 8.985 C 12.805 8.870,13.200 8.178,12.889 7.565 C 12.799 7.387,12.619 7.219,12.406 7.114 L 12.228 7.027 8.041 7.022 C 4.710 7.018,3.832 7.024,3.747 7.051 M1.827 11.051 C 1.643 11.109,1.490 11.200,1.362 11.329 C 1.122 11.569,1.026 11.893,1.102 12.202 C 1.204 12.616,1.542 12.914,1.991 12.988 C 2.213 13.024,13.852 13.022,14.080 12.985 C 14.805 12.870,15.200 12.178,14.889 11.565 C 14.799 11.387,14.619 11.219,14.406 11.114 L 14.228 11.027 8.081 11.022 C 3.167 11.018,1.912 11.023,1.827 11.051 " stroke="none" fill-rule="evenodd" fill="black"></path></svg>