<svg width="16" height="16" viewBox="0 0 16 16" xmlns="http://www.w3.org/2000/svg"><path d="M1.734 2.043 C 1.363 2.143,1.088 2.447,1.016 2.840 C 0.937 3.267,1.182 3.718,1.600 3.917 L 1.747 3.987 8.000 3.987 L 14.253 3.987 14.400 3.917 C 14.818 3.718,15.063 3.267,14.984 2.840 C 14.931 2.552,14.775 2.315,14.539 2.164 C 14.266 1.989,14.719 2.000,7.988 2.002 C 2.703 2.003,1.860 2.009,1.734 2.043 M1.662 7.062 C 1.040 7.278,0.802 8.074,1.203 8.596 C 1.316 8.744,1.482 8.870,1.659 8.942 L 1.800 9.000 6.947 9.013 L 12.093 9.027 12.213 9.111 C 12.380 9.228,12.617 9.479,12.727 9.653 C 12.934 9.985,12.998 10.311,12.981 10.952 C 12.968 11.411,12.949 11.496,12.796 11.750 C 12.654 11.987,12.661 11.985,12.004 11.995 L 11.432 12.004 11.626 11.795 C 11.745 11.668,11.852 11.519,11.903 11.413 C 11.978 11.259,11.987 11.214,11.987 11.000 C 11.987 10.793,11.976 10.738,11.911 10.597 C 11.816 10.391,11.610 10.186,11.400 10.088 C 11.263 10.025,11.206 10.014,11.000 10.014 C 10.783 10.014,10.742 10.022,10.573 10.102 C 10.400 10.184,10.306 10.270,9.288 11.288 C 8.268 12.308,8.183 12.400,8.101 12.573 C 8.022 12.741,8.013 12.784,8.013 13.000 C 8.013 13.216,8.022 13.259,8.101 13.427 C 8.183 13.600,8.268 13.692,9.288 14.712 C 10.306 15.729,10.400 15.817,10.573 15.898 C 10.742 15.978,10.784 15.987,11.000 15.987 C 11.207 15.987,11.262 15.976,11.403 15.911 C 11.609 15.816,11.814 15.610,11.912 15.400 C 11.976 15.262,11.987 15.207,11.987 15.000 C 11.987 14.786,11.978 14.741,11.903 14.587 C 11.853 14.481,11.745 14.333,11.628 14.207 L 11.436 14.000 12.004 14.000 C 12.828 14.000,13.207 13.924,13.667 13.668 C 14.012 13.476,14.414 13.011,14.663 12.514 C 14.930 11.982,15.044 11.266,14.988 10.474 C 14.942 9.828,14.825 9.358,14.596 8.897 C 14.416 8.533,14.230 8.283,13.880 7.930 C 13.453 7.500,13.071 7.249,12.600 7.090 L 12.413 7.027 7.107 7.021 C 2.065 7.015,1.793 7.017,1.662 7.062 M1.734 12.043 C 1.363 12.143,1.088 12.447,1.016 12.840 C 0.937 13.267,1.182 13.718,1.600 13.917 L 1.747 13.987 4.000 13.987 L 6.253 13.987 6.400 13.917 C 7.257 13.510,7.161 12.278,6.254 12.041 C 6.023 11.981,1.959 11.982,1.734 12.043 " stroke="none" fill-rule="evenodd" fill="black"></path></svg>