<svg width="16" height="16" viewBox="0 0 16 16" xmlns="http://www.w3.org/2000/svg"><path d="M5.339 1.058 C 5.222 1.116,5.083 1.282,5.044 1.410 C 4.992 1.583,5.005 1.816,5.073 1.943 C 5.106 2.004,5.705 2.694,6.403 3.476 C 7.320 4.503,7.700 4.910,7.773 4.945 C 7.902 5.006,8.098 5.006,8.227 4.945 C 8.300 4.910,8.680 4.503,9.597 3.476 C 10.295 2.694,10.894 2.004,10.927 1.943 C 11.040 1.733,10.998 1.392,10.837 1.203 C 10.662 1.000,10.865 1.013,7.996 1.014 C 5.678 1.014,5.418 1.019,5.339 1.058 M7.734 6.043 C 7.356 6.144,7.083 6.453,7.014 6.856 C 6.993 6.976,6.987 8.103,6.992 10.613 L 7.000 14.200 7.058 14.341 C 7.224 14.747,7.579 14.993,8.000 14.993 C 8.421 14.993,8.776 14.747,8.942 14.341 L 9.000 14.200 9.008 10.613 C 9.013 8.103,9.007 6.976,8.986 6.856 C 8.916 6.447,8.642 6.142,8.254 6.041 C 8.061 5.991,7.926 5.991,7.734 6.043 " stroke="none" fill-rule="evenodd" fill="black"></path></svg>