<svg width="16" height="16" viewBox="0 0 16 16" fill="none" xmlns="http://www.w3.org/2000/svg"><path d="M3.513 1.045 C 3.226 1.074,2.819 1.175,2.620 1.266 C 2.100 1.505,1.587 2.000,1.322 2.521 C 1.016 3.124,0.976 3.913,0.994 8.973 C 1.007 12.463,1.008 12.480,1.135 12.980 C 1.280 13.555,1.677 14.116,2.200 14.486 C 2.692 14.834,3.078 14.942,4.000 14.987 C 4.677 15.020,11.323 15.020,12.000 14.987 C 12.922 14.942,13.308 14.834,13.800 14.486 C 14.324 14.115,14.720 13.556,14.866 12.977 C 14.990 12.488,14.993 12.427,15.005 8.975 C 15.024 3.923,14.984 3.124,14.678 2.521 C 14.413 2.000,13.900 1.505,13.380 1.266 C 13.167 1.169,12.780 1.077,12.442 1.043 C 12.083 1.007,3.865 1.008,3.513 1.045 M12.489 3.063 C 12.604 3.101,12.811 3.280,12.867 3.387 C 12.961 3.570,12.968 3.854,12.979 8.000 C 12.986 10.860,12.981 12.134,12.960 12.293 C 12.937 12.473,12.914 12.545,12.849 12.640 C 12.667 12.906,12.541 12.955,11.961 12.987 C 11.404 13.019,4.596 13.019,4.039 12.987 C 3.459 12.955,3.333 12.906,3.151 12.640 C 3.086 12.545,3.063 12.473,3.040 12.293 C 2.998 11.967,3.019 4.022,3.063 3.707 C 3.105 3.408,3.108 3.398,3.235 3.261 C 3.372 3.112,3.456 3.068,3.662 3.041 C 3.753 3.029,5.753 3.021,8.107 3.024 C 11.542 3.027,12.407 3.035,12.489 3.063 M10.637 5.075 C 10.369 5.188,10.196 5.353,10.075 5.614 L 10.013 5.747 10.013 8.000 L 10.013 10.253 10.083 10.400 C 10.282 10.818,10.730 11.062,11.159 10.985 C 11.489 10.925,11.771 10.708,11.917 10.400 L 11.987 10.253 11.987 8.000 L 11.987 5.747 11.917 5.600 C 11.814 5.382,11.652 5.216,11.446 5.114 C 11.291 5.038,11.237 5.026,11.027 5.019 C 10.824 5.013,10.763 5.022,10.637 5.075 M7.662 6.661 C 7.402 6.754,7.172 6.982,7.058 7.259 C 7.001 7.398,7.000 7.424,7.000 8.800 C 7.000 10.176,7.001 10.202,7.058 10.341 C 7.224 10.747,7.579 10.993,8.000 10.993 C 8.421 10.993,8.776 10.747,8.942 10.341 C 8.998 10.204,9.000 10.161,9.008 8.924 C 9.013 8.143,9.006 7.580,8.989 7.473 C 8.937 7.136,8.726 6.846,8.429 6.700 C 8.234 6.605,7.872 6.586,7.662 6.661 M4.637 8.275 C 4.369 8.388,4.196 8.553,4.075 8.814 C 4.016 8.941,4.013 8.974,4.013 9.600 C 4.013 10.249,4.014 10.254,4.083 10.400 C 4.282 10.818,4.730 11.062,5.159 10.985 C 5.489 10.925,5.771 10.708,5.917 10.400 C 5.986 10.254,5.987 10.249,5.987 9.600 C 5.987 8.951,5.986 8.946,5.917 8.800 C 5.814 8.582,5.652 8.416,5.446 8.314 C 5.291 8.238,5.237 8.226,5.027 8.219 C 4.824 8.213,4.763 8.222,4.637 8.275 " fill="#000000" stroke="none" fill-rule="evenodd"></path></svg>