<svg width="16" height="16" viewBox="0 0 16 16" xmlns="http://www.w3.org/2000/svg"><path d="M1.662 1.061 C 0.978 1.304,0.782 2.186,1.298 2.702 C 1.795 3.199,2.611 3.049,2.915 2.405 C 2.989 2.248,2.999 2.199,2.999 2.000 C 2.999 1.801,2.989 1.752,2.915 1.595 C 2.812 1.376,2.648 1.207,2.439 1.105 C 2.233 1.004,1.881 0.984,1.662 1.061 M4.637 1.075 C 4.445 1.155,4.344 1.229,4.229 1.369 C 4.066 1.568,4.017 1.713,4.016 2.000 C 4.016 2.216,4.026 2.275,4.084 2.400 C 4.228 2.707,4.510 2.925,4.845 2.985 C 5.048 3.022,5.324 2.972,5.504 2.867 C 5.665 2.773,5.830 2.587,5.916 2.405 C 5.977 2.274,5.987 2.219,5.987 2.000 C 5.987 1.781,5.977 1.726,5.916 1.595 C 5.821 1.392,5.662 1.226,5.460 1.118 C 5.310 1.038,5.268 1.028,5.040 1.020 C 4.822 1.013,4.766 1.020,4.637 1.075 M7.662 1.061 C 6.978 1.304,6.782 2.186,7.298 2.702 C 7.795 3.199,8.611 3.049,8.915 2.405 C 8.989 2.248,8.999 2.199,8.999 2.000 C 8.999 1.801,8.989 1.752,8.915 1.595 C 8.812 1.376,8.648 1.207,8.439 1.105 C 8.233 1.004,7.881 0.984,7.662 1.061 M10.637 1.075 C 10.445 1.155,10.344 1.229,10.229 1.369 C 10.066 1.568,10.017 1.713,10.016 2.000 C 10.016 2.216,10.026 2.275,10.084 2.400 C 10.228 2.707,10.510 2.925,10.845 2.985 C 11.048 3.022,11.324 2.972,11.504 2.867 C 11.665 2.773,11.830 2.587,11.916 2.405 C 11.977 2.274,11.987 2.219,11.987 2.000 C 11.987 1.781,11.977 1.726,11.916 1.595 C 11.821 1.392,11.662 1.226,11.460 1.118 C 11.310 1.038,11.268 1.028,11.040 1.020 C 10.822 1.013,10.766 1.020,10.637 1.075 M13.662 1.061 C 12.978 1.304,12.782 2.186,13.298 2.702 C 13.795 3.199,14.611 3.049,14.915 2.405 C 14.989 2.248,14.999 2.199,14.999 2.000 C 14.999 1.801,14.989 1.752,14.915 1.595 C 14.812 1.376,14.648 1.207,14.439 1.105 C 14.233 1.004,13.881 0.984,13.662 1.061 M1.734 4.041 C 1.360 4.146,1.088 4.448,1.016 4.840 C 0.937 5.267,1.184 5.722,1.600 5.915 C 1.724 5.973,1.786 5.984,2.000 5.985 C 2.235 5.987,2.268 5.980,2.432 5.899 C 2.793 5.721,2.996 5.399,2.996 5.000 C 2.996 4.723,2.923 4.532,2.743 4.334 C 2.487 4.054,2.094 3.940,1.734 4.041 M7.734 4.041 C 7.360 4.146,7.088 4.448,7.016 4.840 C 6.937 5.267,7.184 5.722,7.600 5.915 C 7.724 5.973,7.786 5.984,8.000 5.985 C 8.235 5.987,8.268 5.980,8.432 5.899 C 8.793 5.721,8.996 5.399,8.996 5.000 C 8.996 4.723,8.923 4.532,8.743 4.334 C 8.487 4.054,8.094 3.940,7.734 4.041 M13.734 4.041 C 13.360 4.146,13.088 4.448,13.016 4.840 C 12.937 5.267,13.184 5.722,13.600 5.915 C 13.724 5.973,13.786 5.984,14.000 5.985 C 14.235 5.987,14.268 5.980,14.432 5.899 C 14.793 5.721,14.996 5.399,14.996 5.000 C 14.996 4.723,14.923 4.532,14.743 4.334 C 14.487 4.054,14.094 3.940,13.734 4.041 M1.662 7.061 C 0.978 7.304,0.782 8.186,1.298 8.702 C 1.795 9.199,2.611 9.049,2.915 8.405 C 2.989 8.248,2.999 8.199,2.999 8.000 C 2.999 7.801,2.989 7.752,2.915 7.595 C 2.812 7.376,2.648 7.207,2.439 7.105 C 2.233 7.004,1.881 6.984,1.662 7.061 M4.637 7.075 C 4.445 7.155,4.344 7.229,4.229 7.369 C 4.066 7.568,4.017 7.713,4.016 8.000 C 4.016 8.216,4.026 8.275,4.084 8.400 C 4.228 8.707,4.510 8.925,4.845 8.985 C 5.048 9.022,5.324 8.972,5.504 8.867 C 5.665 8.773,5.830 8.587,5.916 8.405 C 5.977 8.274,5.987 8.219,5.987 8.000 C 5.987 7.781,5.977 7.726,5.916 7.595 C 5.821 7.392,5.662 7.226,5.460 7.118 C 5.310 7.038,5.268 7.028,5.040 7.020 C 4.822 7.013,4.766 7.020,4.637 7.075 M7.662 7.061 C 6.978 7.304,6.782 8.186,7.298 8.702 C 7.795 9.199,8.611 9.049,8.915 8.405 C 8.989 8.248,8.999 8.199,8.999 8.000 C 8.999 7.801,8.989 7.752,8.915 7.595 C 8.812 7.376,8.648 7.207,8.439 7.105 C 8.233 7.004,7.881 6.984,7.662 7.061 M10.637 7.075 C 10.445 7.155,10.344 7.229,10.229 7.369 C 10.066 7.568,10.017 7.713,10.016 8.000 C 10.016 8.216,10.026 8.275,10.084 8.400 C 10.228 8.707,10.510 8.925,10.845 8.985 C 11.048 9.022,11.324 8.972,11.504 8.867 C 11.665 8.773,11.830 8.587,11.916 8.405 C 11.977 8.274,11.987 8.219,11.987 8.000 C 11.987 7.781,11.977 7.726,11.916 7.595 C 11.821 7.392,11.662 7.226,11.460 7.118 C 11.310 7.038,11.268 7.028,11.040 7.020 C 10.822 7.013,10.766 7.020,10.637 7.075 M13.662 7.061 C 12.978 7.304,12.782 8.186,13.298 8.702 C 13.795 9.199,14.611 9.049,14.915 8.405 C 14.989 8.248,14.999 8.199,14.999 8.000 C 14.999 7.801,14.989 7.752,14.915 7.595 C 14.812 7.376,14.648 7.207,14.439 7.105 C 14.233 7.004,13.881 6.984,13.662 7.061 M1.734 10.041 C 1.360 10.146,1.088 10.448,1.016 10.840 C 0.937 11.267,1.184 11.722,1.600 11.915 C 1.724 11.973,1.786 11.984,2.000 11.985 C 2.235 11.987,2.268 11.980,2.432 11.899 C 2.793 11.721,2.996 11.399,2.996 11.000 C 2.996 10.723,2.923 10.532,2.743 10.334 C 2.487 10.054,2.094 9.940,1.734 10.041 M7.734 10.041 C 7.360 10.146,7.088 10.448,7.016 10.840 C 6.937 11.267,7.184 11.722,7.600 11.915 C 7.724 11.973,7.786 11.984,8.000 11.985 C 8.235 11.987,8.268 11.980,8.432 11.899 C 8.793 11.721,8.996 11.399,8.996 11.000 C 8.996 10.723,8.923 10.532,8.743 10.334 C 8.487 10.054,8.094 9.940,7.734 10.041 M13.734 10.041 C 13.360 10.146,13.088 10.448,13.016 10.840 C 12.937 11.267,13.184 11.722,13.600 11.915 C 13.724 11.973,13.786 11.984,14.000 11.985 C 14.235 11.987,14.268 11.980,14.432 11.899 C 14.793 11.721,14.996 11.399,14.996 11.000 C 14.996 10.723,14.923 10.532,14.743 10.334 C 14.487 10.054,14.094 9.940,13.734 10.041 M1.662 13.061 C 0.978 13.304,0.782 14.186,1.298 14.702 C 1.795 15.199,2.611 15.049,2.915 14.405 C 2.989 14.248,2.999 14.199,2.999 14.000 C 2.999 13.801,2.989 13.752,2.915 13.595 C 2.812 13.376,2.648 13.207,2.439 13.105 C 2.233 13.004,1.881 12.984,1.662 13.061 M4.637 13.075 C 4.445 13.155,4.344 13.229,4.229 13.369 C 4.066 13.568,4.017 13.713,4.016 14.000 C 4.016 14.216,4.026 14.275,4.084 14.400 C 4.228 14.707,4.510 14.925,4.845 14.985 C 5.048 15.022,5.324 14.972,5.504 14.867 C 5.665 14.773,5.830 14.587,5.916 14.405 C 5.977 14.274,5.987 14.219,5.987 14.000 C 5.987 13.781,5.977 13.726,5.916 13.595 C 5.821 13.392,5.662 13.226,5.460 13.118 C 5.310 13.038,5.268 13.028,5.040 13.020 C 4.822 13.013,4.766 13.020,4.637 13.075 M7.662 13.061 C 6.978 13.304,6.782 14.186,7.298 14.702 C 7.795 15.199,8.611 15.049,8.915 14.405 C 8.989 14.248,8.999 14.199,8.999 14.000 C 8.999 13.801,8.989 13.752,8.915 13.595 C 8.812 13.376,8.648 13.207,8.439 13.105 C 8.233 13.004,7.881 12.984,7.662 13.061 M10.637 13.075 C 10.445 13.155,10.344 13.229,10.229 13.369 C 10.066 13.568,10.017 13.713,10.016 14.000 C 10.016 14.216,10.026 14.275,10.084 14.400 C 10.228 14.707,10.510 14.925,10.845 14.985 C 11.048 15.022,11.324 14.972,11.504 14.867 C 11.665 14.773,11.830 14.587,11.916 14.405 C 11.977 14.274,11.987 14.219,11.987 14.000 C 11.987 13.781,11.977 13.726,11.916 13.595 C 11.821 13.392,11.662 13.226,11.460 13.118 C 11.310 13.038,11.268 13.028,11.040 13.020 C 10.822 13.013,10.766 13.020,10.637 13.075 M13.662 13.061 C 12.978 13.304,12.782 14.186,13.298 14.702 C 13.795 15.199,14.611 15.049,14.915 14.405 C 14.989 14.248,14.999 14.199,14.999 14.000 C 14.999 13.801,14.989 13.752,14.915 13.595 C 14.812 13.376,14.648 13.207,14.439 13.105 C 14.233 13.004,13.881 12.984,13.662 13.061 " stroke="none" fill-rule="evenodd" fill="black"></path></svg>