<svg width="16" height="16" viewBox="0 0 16 16" xmlns="http://www.w3.org/2000/svg"><path d="M3.820 2.028 C 3.650 2.062,3.401 2.205,3.278 2.339 C 3.145 2.483,3.046 2.691,3.012 2.898 C 2.977 3.111,2.978 12.893,3.013 13.107 C 3.071 13.463,3.285 13.743,3.622 13.902 L 3.800 13.987 6.880 13.987 C 10.268 13.987,10.093 13.994,10.605 13.822 C 11.825 13.413,12.704 12.385,12.949 11.080 C 13.014 10.734,13.008 10.173,12.936 9.822 C 12.863 9.468,12.747 9.141,12.583 8.826 C 12.407 8.488,12.231 8.254,11.913 7.939 L 11.650 7.679 11.728 7.579 C 12.159 7.030,12.440 6.072,12.389 5.321 C 12.330 4.463,11.999 3.699,11.420 3.091 C 10.921 2.566,10.341 2.236,9.638 2.076 C 9.374 2.016,9.371 2.016,6.653 2.010 C 5.157 2.007,3.882 2.015,3.820 2.028 M9.152 4.029 C 9.644 4.132,10.087 4.578,10.224 5.111 C 10.278 5.318,10.279 5.701,10.226 5.908 C 10.083 6.468,9.613 6.911,9.080 6.986 C 8.972 7.001,8.079 7.012,6.953 7.013 L 5.013 7.013 5.013 5.507 L 5.013 4.000 7.012 4.000 C 8.364 4.000,9.056 4.010,9.152 4.029 M10.058 9.139 C 10.982 9.597,11.165 10.848,10.416 11.587 C 10.312 11.690,10.166 11.807,10.091 11.846 C 9.796 12.003,9.853 12.000,7.328 12.000 L 5.013 12.000 5.013 10.506 L 5.013 9.012 7.422 9.019 L 9.831 9.027 10.058 9.139 " stroke="none" fill-rule="evenodd" fill="black"></path></svg>