<svg width="16" height="16" viewBox="0 0 16 16" fill="none" xmlns="http://www.w3.org/2000/svg"><path d="M3.107 3.042 C 2.280 3.144,1.568 3.617,1.228 4.291 C 1.108 4.529,1.043 4.810,1.013 5.226 C 0.979 5.695,0.979 10.305,1.013 10.774 C 1.043 11.190,1.108 11.471,1.228 11.709 C 1.530 12.308,2.162 12.775,2.867 12.920 C 3.183 12.985,3.806 13.011,5.000 13.011 C 6.194 13.011,6.817 12.985,7.133 12.920 C 7.838 12.775,8.470 12.308,8.772 11.709 C 8.892 11.471,8.957 11.190,8.987 10.774 C 9.021 10.305,9.021 5.695,8.987 5.226 C 8.934 4.499,8.758 4.102,8.300 3.679 C 7.994 3.396,7.605 3.191,7.178 3.087 C 6.956 3.033,6.875 3.031,5.120 3.025 C 4.115 3.021,3.209 3.029,3.107 3.042 M12.027 3.043 C 11.217 3.137,10.482 3.578,10.207 4.134 C 10.001 4.551,10.013 4.311,10.013 8.000 C 10.013 11.647,10.004 11.445,10.186 11.824 C 10.467 12.410,11.177 12.851,12.013 12.958 C 12.364 13.003,13.891 13.027,14.117 12.991 C 14.955 12.859,15.290 11.887,14.702 11.298 C 14.632 11.229,14.509 11.139,14.428 11.099 L 14.280 11.027 13.280 11.007 C 12.621 10.994,12.235 10.976,12.147 10.954 L 12.013 10.920 12.007 8.006 L 12.000 5.092 12.073 5.061 C 12.122 5.040,12.485 5.024,13.173 5.013 C 14.135 4.998,14.209 4.993,14.341 4.941 C 14.745 4.779,14.993 4.421,14.993 4.000 C 14.993 3.674,14.857 3.403,14.593 3.200 C 14.359 3.021,14.315 3.015,13.213 3.018 C 12.671 3.019,12.137 3.031,12.027 3.043 M6.842 5.072 C 6.887 5.096,6.938 5.134,6.955 5.154 C 6.979 5.183,6.985 5.875,6.980 8.015 L 6.973 10.838 6.885 10.897 C 6.837 10.930,6.729 10.966,6.645 10.978 C 6.447 11.007,3.553 11.007,3.355 10.978 C 3.271 10.966,3.163 10.930,3.115 10.897 L 3.027 10.838 3.027 8.002 L 3.027 5.166 3.098 5.112 C 3.138 5.083,3.216 5.050,3.272 5.039 C 3.328 5.027,4.135 5.020,5.067 5.023 C 6.599 5.026,6.768 5.031,6.842 5.072 " stroke="none" fill-rule="evenodd"></path></svg>