<svg width="16" height="16" viewBox="0 0 16 16" xmlns="http://www.w3.org/2000/svg"><path d="M2.507 1.067 C 1.942 1.214,1.466 1.601,1.215 2.120 C 0.980 2.604,1.000 2.052,1.000 8.000 C 1.000 13.948,0.980 13.396,1.215 13.880 C 1.410 14.282,1.718 14.590,2.120 14.785 C 2.565 15.001,2.505 14.995,4.305 15.007 C 6.017 15.018,6.282 15.005,6.625 14.896 C 7.239 14.701,7.717 14.204,7.924 13.546 L 7.987 13.347 7.987 8.000 L 7.987 2.653 7.924 2.453 C 7.714 1.784,7.239 1.305,6.559 1.076 C 6.424 1.031,6.274 1.027,4.560 1.022 C 2.798 1.016,2.697 1.018,2.507 1.067 M9.347 1.055 C 9.047 1.211,8.913 1.619,9.063 1.925 C 9.148 2.098,11.640 4.876,11.772 4.943 C 11.907 5.013,12.093 5.013,12.228 4.943 C 12.358 4.876,14.852 2.099,14.936 1.927 C 15.043 1.709,15.002 1.396,14.841 1.209 C 14.662 0.999,14.872 1.013,11.996 1.013 C 9.723 1.014,9.417 1.018,9.347 1.055 M6.000 8.013 L 6.000 13.013 4.507 13.013 L 3.013 13.013 3.013 8.013 L 3.013 3.013 4.507 3.013 L 6.000 3.013 6.000 8.013 M11.734 6.043 C 11.363 6.142,11.088 6.447,11.016 6.839 C 10.975 7.058,10.975 12.941,11.016 13.162 C 11.076 13.491,11.295 13.774,11.600 13.916 C 11.725 13.974,11.784 13.984,12.000 13.984 C 12.216 13.984,12.275 13.974,12.400 13.916 C 12.705 13.774,12.924 13.491,12.984 13.162 C 13.025 12.941,13.025 7.058,12.984 6.839 C 12.911 6.441,12.636 6.141,12.254 6.041 C 12.061 5.991,11.926 5.991,11.734 6.043 " stroke="none" fill-rule="evenodd" fill="black"></path></svg>