<svg width="16" height="16" viewBox="0 0 16 16" xmlns="http://www.w3.org/2000/svg"><path d="M3.893 1.030 C 3.178 1.100,2.756 1.232,2.302 1.526 C 1.552 2.012,1.158 2.640,1.035 3.547 C 0.984 3.916,0.984 12.084,1.035 12.453 C 1.115 13.039,1.280 13.452,1.587 13.834 C 2.099 14.470,2.828 14.854,3.720 14.959 C 4.119 15.005,6.898 15.030,7.134 14.988 C 7.488 14.927,7.769 14.715,7.916 14.400 C 7.974 14.275,7.984 14.216,7.984 14.000 C 7.984 13.784,7.974 13.725,7.916 13.600 C 7.815 13.384,7.653 13.216,7.446 13.114 L 7.268 13.027 5.667 13.009 C 4.703 12.999,3.987 12.980,3.867 12.962 C 3.508 12.908,3.205 12.723,3.089 12.487 L 3.027 12.360 3.027 8.000 L 3.027 3.640 3.089 3.513 C 3.213 3.261,3.517 3.086,3.907 3.041 C 4.235 3.004,11.765 3.004,12.093 3.041 C 12.483 3.086,12.787 3.261,12.911 3.513 L 12.973 3.640 12.987 5.320 C 13.001 6.962,13.002 7.003,13.058 7.141 C 13.223 7.546,13.579 7.793,14.000 7.793 C 14.421 7.793,14.776 7.547,14.942 7.141 C 14.997 7.005,15.000 6.959,15.008 5.773 C 15.024 3.596,14.964 3.062,14.641 2.498 C 14.227 1.775,13.439 1.243,12.533 1.075 C 12.299 1.032,11.964 1.028,8.133 1.025 C 5.853 1.023,3.945 1.025,3.893 1.030 M4.529 4.051 C 4.329 4.115,4.211 4.191,4.082 4.337 C 3.637 4.843,3.789 5.601,4.395 5.899 L 4.572 5.987 7.773 5.987 L 10.974 5.987 11.152 5.899 C 11.513 5.721,11.716 5.399,11.716 5.000 C 11.716 4.601,11.513 4.279,11.152 4.101 L 10.974 4.013 7.827 4.008 C 4.847 4.003,4.672 4.005,4.529 4.051 M4.491 7.062 C 4.093 7.200,3.831 7.571,3.831 8.000 C 3.831 8.423,4.074 8.777,4.476 8.939 L 4.627 9.000 6.413 9.000 C 8.187 9.000,8.201 9.000,8.341 8.942 C 8.747 8.776,8.993 8.421,8.993 8.000 C 8.993 7.674,8.857 7.403,8.593 7.200 C 8.345 7.010,8.405 7.015,6.413 7.015 C 4.778 7.015,4.615 7.019,4.491 7.062 M11.273 8.027 C 11.104 8.070,10.907 8.184,10.784 8.311 C 10.695 8.402,10.582 8.599,10.329 9.103 C 10.144 9.472,9.962 9.813,9.926 9.861 C 9.875 9.928,9.701 10.027,9.190 10.284 C 8.821 10.468,8.459 10.665,8.384 10.721 C 8.019 10.993,7.899 11.516,8.105 11.935 C 8.241 12.211,8.367 12.303,9.115 12.678 C 9.483 12.861,9.823 13.047,9.872 13.090 C 9.935 13.145,10.070 13.381,10.330 13.891 C 10.649 14.516,10.716 14.629,10.828 14.730 C 11.141 15.011,11.549 15.073,11.933 14.897 C 12.195 14.777,12.277 14.665,12.669 13.892 C 12.870 13.496,13.062 13.153,13.108 13.108 C 13.153 13.062,13.496 12.870,13.892 12.669 C 14.665 12.277,14.777 12.195,14.897 11.933 C 15.073 11.548,15.011 11.141,14.728 10.826 C 14.624 10.710,14.521 10.650,13.894 10.334 C 13.361 10.065,13.157 9.949,13.095 9.878 C 13.049 9.826,12.861 9.483,12.678 9.115 C 12.299 8.359,12.210 8.239,11.927 8.104 C 11.739 8.014,11.457 7.981,11.273 8.027 M11.696 11.313 L 11.885 11.507 11.691 11.696 L 11.498 11.886 11.306 11.693 L 11.115 11.500 11.297 11.313 C 11.398 11.210,11.486 11.124,11.494 11.123 C 11.502 11.121,11.593 11.207,11.696 11.313 " stroke="none" fill-rule="evenodd" fill="black"></path></svg>