<svg width="15" height="15" viewBox="0 0 15 15" xmlns="http://www.w3.org/2000/svg"><path d="M1.312 1.045 C 1.181 1.107,1.059 1.248,1.023 1.381 C 0.981 1.536,1.009 3.157,1.060 3.477 C 1.127 3.904,1.279 4.204,1.569 4.480 C 1.883 4.779,2.197 4.922,2.657 4.973 C 2.993 5.011,12.007 5.011,12.343 4.973 C 12.875 4.914,13.249 4.719,13.576 4.332 C 13.933 3.908,14.011 3.488,13.996 2.073 L 13.988 1.334 13.920 1.232 C 13.817 1.076,13.695 1.012,13.500 1.012 C 13.305 1.012,13.183 1.076,13.080 1.232 L 13.013 1.334 12.997 2.261 C 12.979 3.277,12.960 3.460,12.849 3.635 C 12.759 3.778,12.574 3.913,12.413 3.955 C 12.234 4.002,2.738 4.003,2.586 3.957 C 2.427 3.908,2.263 3.786,2.166 3.643 C 2.045 3.464,2.026 3.303,2.007 2.241 C 1.993 1.423,1.989 1.363,1.940 1.266 C 1.829 1.047,1.531 0.942,1.312 1.045 M1.369 7.025 C 1.250 7.061,1.129 7.149,1.070 7.245 C 1.025 7.317,1.013 7.374,1.013 7.504 C 1.013 7.649,1.022 7.685,1.088 7.779 C 1.367 8.180,2.002 7.991,1.999 7.507 C 1.998 7.171,1.684 6.930,1.369 7.025 M4.347 7.033 C 4.052 7.143,3.921 7.439,4.047 7.713 C 4.234 8.118,4.836 8.084,4.976 7.660 C 5.019 7.528,4.994 7.344,4.916 7.226 C 4.801 7.053,4.536 6.963,4.347 7.033 M7.339 7.036 C 7.197 7.088,7.122 7.152,7.057 7.275 C 6.922 7.531,7.037 7.849,7.306 7.961 C 7.659 8.109,8.031 7.831,7.994 7.448 C 7.964 7.139,7.629 6.929,7.339 7.036 M10.339 7.036 C 10.197 7.088,10.122 7.152,10.057 7.275 C 9.922 7.531,10.037 7.849,10.306 7.961 C 10.481 8.035,10.708 7.995,10.847 7.868 C 10.934 7.788,10.999 7.630,10.999 7.498 C 11.001 7.173,10.644 6.923,10.339 7.036 M13.338 7.029 C 12.904 7.189,12.883 7.785,13.306 7.961 C 13.521 8.051,13.776 7.975,13.912 7.779 C 13.976 7.687,13.988 7.647,13.988 7.517 C 13.988 7.316,13.921 7.186,13.771 7.093 C 13.645 7.014,13.453 6.986,13.338 7.029 M2.788 10.016 C 2.221 10.062,1.849 10.224,1.521 10.569 C 1.249 10.853,1.125 11.111,1.060 11.523 C 1.018 11.786,0.980 13.354,1.010 13.554 C 1.060 13.888,1.414 14.089,1.714 13.953 C 1.832 13.899,1.935 13.785,1.971 13.669 C 1.984 13.624,2.002 13.205,2.009 12.738 C 2.026 11.705,2.045 11.535,2.163 11.361 C 2.312 11.142,2.458 11.061,2.766 11.026 C 3.049 10.993,11.923 10.991,12.229 11.024 C 12.654 11.068,12.886 11.274,12.952 11.663 C 12.968 11.759,12.988 12.249,12.997 12.754 L 13.013 13.671 13.088 13.777 C 13.198 13.934,13.350 14.008,13.531 13.992 C 13.705 13.977,13.829 13.906,13.920 13.768 L 13.988 13.666 13.996 12.927 C 14.008 11.822,13.953 11.299,13.791 10.984 C 13.594 10.600,13.174 10.240,12.777 10.115 C 12.669 10.080,12.459 10.042,12.298 10.027 C 12.041 10.003,3.080 9.993,2.788 10.016 " stroke="none" fill-rule="evenodd" fill="black"></path></svg>