<svg width="15" height="15" viewBox="0 0 15 15" xmlns="http://www.w3.org/2000/svg"><path d="M1.342 1.025 C 1.152 1.083,1.000 1.295,1.000 1.504 C 1.000 1.655,1.089 1.818,1.223 1.913 L 1.329 1.988 2.271 2.005 C 2.789 2.014,3.278 2.033,3.359 2.047 C 3.722 2.111,3.927 2.351,3.974 2.767 C 4.009 3.068,4.009 11.932,3.974 12.233 C 3.945 12.488,3.897 12.598,3.747 12.747 C 3.534 12.960,3.445 12.975,2.300 12.991 C 1.812 12.998,1.376 13.015,1.331 13.029 C 1.146 13.086,1.001 13.288,1.001 13.488 C 1.001 13.694,1.170 13.919,1.368 13.973 C 1.487 14.007,2.615 14.008,3.089 13.975 C 3.655 13.937,3.887 13.874,4.178 13.684 C 4.501 13.472,4.791 13.093,4.897 12.744 C 5.000 12.403,5.003 12.241,4.994 7.313 C 4.985 2.171,4.994 2.500,4.850 2.118 C 4.712 1.752,4.314 1.339,3.939 1.173 C 3.775 1.100,3.501 1.051,3.114 1.025 C 2.687 0.996,1.440 0.996,1.342 1.025 M7.286 1.060 C 7.065 1.173,6.961 1.392,7.021 1.618 C 7.085 1.856,7.266 1.998,7.507 1.999 C 7.875 2.001,8.112 1.607,7.944 1.274 C 7.821 1.032,7.530 0.937,7.286 1.060 M11.835 1.025 C 11.199 1.070,10.876 1.200,10.531 1.553 C 10.281 1.810,10.173 2.000,10.067 2.371 L 10.013 2.563 10.005 7.300 C 9.999 10.619,10.005 12.119,10.024 12.308 C 10.074 12.794,10.213 13.109,10.520 13.431 C 10.871 13.798,11.198 13.927,11.911 13.975 C 12.385 14.008,13.513 14.007,13.632 13.973 C 13.830 13.919,13.999 13.694,13.999 13.488 C 13.999 13.288,13.854 13.086,13.669 13.029 C 13.624 13.015,13.188 12.998,12.700 12.991 C 11.555 12.975,11.466 12.960,11.253 12.747 C 11.103 12.598,11.055 12.488,11.026 12.233 C 10.993 11.951,10.991 3.077,11.024 2.771 C 11.067 2.358,11.278 2.111,11.641 2.047 C 11.722 2.033,12.210 2.014,12.727 2.005 L 13.666 1.988 13.768 1.920 C 13.924 1.817,13.988 1.695,13.988 1.500 C 13.988 1.305,13.924 1.183,13.768 1.080 L 13.666 1.012 12.889 1.009 C 12.462 1.008,11.988 1.015,11.835 1.025 M7.330 4.027 C 7.208 4.064,7.065 4.220,7.026 4.358 C 6.893 4.835,7.451 5.198,7.829 4.880 C 8.159 4.602,7.974 4.033,7.545 4.009 C 7.472 4.005,7.376 4.013,7.330 4.027 M7.280 7.053 C 6.915 7.234,6.916 7.770,7.282 7.947 C 7.617 8.110,7.999 7.871,7.999 7.500 C 7.999 7.128,7.613 6.888,7.280 7.053 M7.280 10.053 C 6.915 10.234,6.916 10.770,7.282 10.947 C 7.617 11.110,7.999 10.871,7.999 10.500 C 7.999 10.128,7.613 9.888,7.280 10.053 M7.279 13.054 C 6.883 13.250,6.935 13.855,7.358 13.974 C 7.775 14.091,8.133 13.678,7.953 13.288 C 7.835 13.032,7.533 12.928,7.279 13.054 " stroke="none" fill-rule="evenodd" fill="black"></path></svg>