<svg width="16" height="16" viewBox="0 0 16 16" xmlns="http://www.w3.org/2000/svg"><path d="M2.485 1.044 C 1.882 1.130,1.307 1.605,1.123 2.168 C 0.999 2.546,1.000 2.523,1.000 6.000 C 1.000 8.573,1.008 9.334,1.034 9.480 C 1.133 10.015,1.359 10.382,1.770 10.670 C 2.179 10.958,2.352 10.986,3.817 11.005 L 4.980 11.020 4.995 12.197 C 5.011 13.433,5.023 13.572,5.145 13.897 C 5.214 14.080,5.419 14.377,5.572 14.516 C 5.847 14.764,6.133 14.898,6.533 14.966 C 6.824 15.015,13.176 15.015,13.467 14.966 C 14.016 14.872,14.402 14.631,14.691 14.198 C 14.834 13.984,14.914 13.771,14.966 13.467 C 15.015 13.176,15.015 6.824,14.966 6.533 C 14.914 6.228,14.834 6.015,14.690 5.800 C 14.457 5.452,14.109 5.197,13.719 5.089 C 13.517 5.033,13.446 5.029,12.263 5.020 L 11.019 5.010 11.006 3.805 C 10.990 2.448,10.980 2.354,10.801 1.987 C 10.553 1.478,10.059 1.123,9.480 1.041 C 9.244 1.007,2.722 1.010,2.485 1.044 M9.276 2.026 C 9.611 2.064,9.798 2.195,9.931 2.480 C 9.987 2.600,9.987 2.606,9.987 6.000 C 9.987 9.394,9.987 9.400,9.931 9.520 C 9.809 9.782,9.619 9.925,9.333 9.972 C 9.097 10.010,2.907 10.010,2.667 9.972 C 2.371 9.925,2.128 9.724,2.047 9.459 C 1.998 9.295,1.998 2.705,2.047 2.541 C 2.131 2.266,2.382 2.063,2.684 2.028 C 2.951 1.997,9.008 1.995,9.276 2.026 M13.253 6.028 C 13.453 6.049,13.532 6.070,13.626 6.128 C 13.770 6.217,13.907 6.389,13.953 6.541 C 14.002 6.705,14.002 13.295,13.953 13.459 C 13.872 13.724,13.629 13.925,13.333 13.972 C 13.096 14.010,6.904 14.010,6.667 13.972 C 6.377 13.926,6.132 13.727,6.050 13.473 C 6.028 13.404,6.015 13.004,6.007 12.193 L 5.995 11.013 7.391 11.013 C 8.859 11.012,9.429 10.989,9.693 10.921 C 10.162 10.799,10.586 10.454,10.795 10.026 C 10.992 9.622,10.992 9.614,11.006 7.700 L 11.018 6.000 12.009 6.000 C 12.554 6.001,13.114 6.013,13.253 6.028 " stroke="none" fill-rule="evenodd" fill="black"></path></svg>