<svg width="15" height="15" viewBox="0 0 15 15" xmlns="http://www.w3.org/2000/svg"><path d="M1.342 1.025 C 1.152 1.083,1.000 1.295,1.000 1.504 C 1.000 1.655,1.089 1.818,1.223 1.913 L 1.329 1.988 7.496 1.988 L 13.663 1.988 13.758 1.928 C 13.810 1.896,13.884 1.823,13.920 1.767 C 13.976 1.683,13.988 1.638,13.988 1.500 C 13.988 1.362,13.976 1.317,13.920 1.233 C 13.884 1.177,13.810 1.104,13.758 1.072 L 13.663 1.012 7.538 1.008 C 4.169 1.006,1.381 1.014,1.342 1.025 M7.311 3.047 C 7.175 3.109,5.202 4.428,5.132 4.503 C 4.910 4.746,4.982 5.124,5.280 5.277 C 5.396 5.337,5.599 5.340,5.707 5.284 C 5.751 5.261,6.054 5.064,6.381 4.846 C 6.707 4.628,6.980 4.450,6.987 4.450 C 6.994 4.450,7.000 5.823,7.000 7.500 C 7.000 9.178,6.994 10.550,6.987 10.550 C 6.980 10.550,6.707 10.372,6.381 10.154 C 6.054 9.936,5.751 9.739,5.707 9.716 C 5.539 9.629,5.270 9.682,5.132 9.829 C 5.058 9.909,5.000 10.055,5.000 10.163 C 5.000 10.270,5.058 10.415,5.132 10.497 C 5.163 10.530,5.660 10.872,6.238 11.258 C 7.363 12.010,7.410 12.034,7.615 11.980 C 7.730 11.949,9.762 10.612,9.868 10.497 C 10.090 10.254,10.018 9.876,9.720 9.723 C 9.604 9.663,9.401 9.660,9.293 9.716 C 9.249 9.739,8.946 9.936,8.619 10.154 C 8.293 10.372,8.020 10.550,8.013 10.550 C 8.006 10.550,8.000 9.178,8.000 7.500 C 8.000 5.823,8.006 4.450,8.013 4.450 C 8.020 4.450,8.293 4.628,8.619 4.846 C 8.946 5.064,9.249 5.261,9.293 5.284 C 9.401 5.340,9.604 5.337,9.720 5.277 C 10.018 5.124,10.090 4.746,9.868 4.503 C 9.798 4.428,7.825 3.109,7.689 3.047 C 7.560 2.989,7.440 2.989,7.311 3.047 M1.342 13.025 C 1.152 13.083,1.000 13.295,1.000 13.504 C 1.000 13.655,1.089 13.818,1.223 13.913 L 1.329 13.988 7.496 13.988 L 13.663 13.988 13.758 13.928 C 13.810 13.896,13.884 13.823,13.920 13.767 C 13.976 13.683,13.988 13.638,13.988 13.500 C 13.988 13.362,13.976 13.317,13.920 13.233 C 13.884 13.177,13.810 13.104,13.758 13.072 L 13.663 13.013 7.538 13.008 C 4.169 13.006,1.381 13.014,1.342 13.025 " stroke="none" fill-rule="evenodd" fill="black"></path></svg>