<svg width="16" height="16" viewBox="0 0 16 16" xmlns="http://www.w3.org/2000/svg"><path d="M3.713 6.787 C 3.161 6.907,2.747 7.427,2.747 8.000 C 2.747 8.758,3.451 9.358,4.191 9.231 C 4.735 9.138,5.138 8.735,5.231 8.191 C 5.342 7.544,4.882 6.894,4.228 6.775 C 4.029 6.739,3.923 6.742,3.713 6.787 M7.713 6.787 C 7.490 6.836,7.300 6.943,7.121 7.120 C 6.395 7.839,6.791 9.061,7.807 9.232 C 8.432 9.337,9.050 8.929,9.212 8.306 C 9.323 7.880,9.199 7.437,8.879 7.120 C 8.696 6.939,8.510 6.836,8.274 6.786 C 8.055 6.739,7.932 6.740,7.713 6.787 M11.713 6.787 C 11.161 6.907,10.747 7.427,10.747 8.000 C 10.747 8.758,11.451 9.358,12.191 9.231 C 12.735 9.138,13.138 8.735,13.231 8.191 C 13.342 7.544,12.882 6.894,12.228 6.775 C 12.029 6.739,11.923 6.742,11.713 6.787 " stroke="none" fill-rule="evenodd" fill="black"></path></svg>