<svg width="15" height="15" viewBox="0 0 15 15" xmlns="http://www.w3.org/2000/svg"><path d="M1.832 1.039 C 1.431 1.147,1.141 1.436,1.034 1.838 C 0.984 2.023,0.984 12.977,1.034 13.163 C 1.141 13.561,1.439 13.859,1.838 13.966 C 2.023 14.016,12.977 14.016,13.163 13.966 C 13.561 13.859,13.859 13.561,13.966 13.163 C 14.016 12.977,14.016 2.023,13.966 1.838 C 13.859 1.437,13.562 1.143,13.162 1.038 C 13.031 1.004,12.376 1.000,7.488 1.002 C 2.816 1.003,1.942 1.009,1.832 1.039 M12.970 2.030 C 12.992 2.052,13.000 2.309,13.000 3.030 L 13.000 4.000 7.500 4.000 L 2.000 4.000 2.000 3.030 C 2.000 2.309,2.008 2.052,2.030 2.030 C 2.074 1.986,12.926 1.986,12.970 2.030 M13.000 6.000 L 13.000 7.000 7.500 7.000 L 2.000 7.000 2.000 6.000 L 2.000 5.000 7.500 5.000 L 13.000 5.000 13.000 6.000 M13.000 9.000 L 13.000 10.000 7.500 10.000 L 2.000 10.000 2.000 9.000 L 2.000 8.000 7.500 8.000 L 13.000 8.000 13.000 9.000 M13.000 11.970 C 13.000 12.691,12.992 12.948,12.970 12.970 C 12.926 13.014,2.074 13.014,2.030 12.970 C 2.008 12.948,2.000 12.691,2.000 11.970 L 2.000 11.000 7.500 11.000 L 13.000 11.000 13.000 11.970 " stroke="none" fill-rule="evenodd" fill="black"></path></svg>