<svg width="15" height="15" viewBox="0 0 15 15" xmlns="http://www.w3.org/2000/svg"><path d="M1.832 1.039 C 1.431 1.147,1.141 1.436,1.034 1.838 C 0.984 2.023,0.984 12.977,1.034 13.163 C 1.141 13.561,1.439 13.859,1.838 13.966 C 2.023 14.016,12.977 14.016,13.163 13.966 C 13.561 13.859,13.859 13.561,13.966 13.163 C 14.016 12.977,14.016 2.023,13.966 1.838 C 13.859 1.437,13.562 1.143,13.162 1.038 C 13.031 1.004,12.376 1.000,7.488 1.002 C 2.816 1.003,1.942 1.009,1.832 1.039 M5.000 7.500 L 5.000 13.000 3.530 13.000 C 2.420 13.000,2.053 12.993,2.030 12.970 C 1.986 12.926,1.986 2.074,2.030 2.030 C 2.053 2.007,2.420 2.000,3.530 2.000 L 5.000 2.000 5.000 7.500 M9.000 7.500 L 9.000 13.000 7.500 13.000 L 6.000 13.000 6.000 7.500 L 6.000 2.000 7.500 2.000 L 9.000 2.000 9.000 7.500 M12.970 2.030 C 13.014 2.074,13.014 12.926,12.970 12.970 C 12.947 12.993,12.580 13.000,11.470 13.000 L 10.000 13.000 10.000 7.500 L 10.000 2.000 11.470 2.000 C 12.580 2.000,12.947 2.007,12.970 2.030 " stroke="none" fill-rule="evenodd" fill="black"></path></svg>