<svg width="16" height="16" viewBox="0 0 16 16" xmlns="http://www.w3.org/2000/svg"><path d="M9.373 1.071 C 8.424 1.178,7.399 1.618,6.592 2.263 C 6.302 2.496,6.227 2.635,6.246 2.907 C 6.266 3.181,6.343 3.287,6.576 3.359 C 6.908 3.462,7.108 3.414,7.379 3.166 C 8.051 2.551,8.807 2.213,9.700 2.128 C 10.968 2.007,12.279 2.577,13.111 3.613 C 13.896 4.589,14.171 5.806,13.879 7.012 C 13.728 7.638,13.404 8.225,12.923 8.746 C 12.822 8.855,12.723 8.984,12.703 9.031 C 12.625 9.218,12.681 9.470,12.838 9.636 C 12.909 9.712,12.911 9.713,13.181 9.703 C 13.371 9.695,13.471 9.680,13.513 9.651 C 13.595 9.593,13.883 9.233,14.066 8.960 C 14.149 8.835,14.298 8.570,14.397 8.371 C 15.033 7.094,15.134 5.746,14.690 4.441 C 14.064 2.597,12.390 1.263,10.457 1.068 C 10.136 1.035,9.677 1.037,9.373 1.071 M5.341 4.947 C 2.855 5.326,1.044 7.421,1.041 9.921 C 1.039 11.313,1.584 12.596,2.590 13.560 C 3.135 14.083,3.739 14.452,4.441 14.690 C 4.999 14.880,5.489 14.960,6.079 14.959 C 7.424 14.958,8.679 14.438,9.626 13.492 C 10.198 12.920,10.601 12.265,10.852 11.501 C 11.369 9.926,11.080 8.200,10.078 6.878 C 9.356 5.925,8.282 5.251,7.082 4.997 C 6.806 4.938,6.676 4.927,6.173 4.919 C 5.759 4.912,5.515 4.920,5.341 4.947 M6.907 6.062 C 7.419 6.184,7.791 6.345,8.227 6.634 C 9.127 7.232,9.729 8.121,9.964 9.200 C 10.034 9.523,10.034 10.345,9.963 10.667 C 9.786 11.480,9.398 12.180,8.810 12.748 C 8.227 13.311,7.595 13.651,6.818 13.818 C 6.456 13.896,5.733 13.903,5.379 13.832 C 3.746 13.502,2.487 12.234,2.170 10.600 C 2.106 10.271,2.105 9.598,2.169 9.253 C 2.445 7.754,3.640 6.471,5.111 6.093 C 5.513 5.990,5.655 5.976,6.160 5.986 C 6.540 5.994,6.678 6.008,6.907 6.062 " stroke="none" fill-rule="evenodd" fill="black"></path></svg>