<svg width="16" height="16" viewBox="0 0 16 16" xmlns="http://www.w3.org/2000/svg"><path d="M5.293 1.044 C 5.207 1.092,5.092 1.207,5.044 1.293 C 5.006 1.363,4.999 1.504,4.992 2.409 C 4.986 3.108,4.994 3.492,5.014 3.590 C 5.071 3.862,5.311 4.029,5.587 3.988 C 5.744 3.965,5.932 3.803,5.973 3.657 C 5.989 3.599,6.000 3.127,6.000 2.486 C 6.000 1.351,5.995 1.301,5.872 1.165 C 5.752 1.032,5.435 0.966,5.293 1.044 M11.307 1.052 C 11.285 1.058,11.177 1.076,11.067 1.094 C 10.616 1.167,10.099 1.392,9.696 1.689 C 9.447 1.872,6.920 4.375,6.799 4.557 C 6.756 4.622,6.714 4.713,6.705 4.760 C 6.669 4.952,6.818 5.219,7.005 5.297 C 7.120 5.345,7.285 5.343,7.408 5.292 C 7.475 5.264,7.942 4.817,8.880 3.882 C 9.635 3.130,10.307 2.478,10.373 2.434 C 10.824 2.133,11.358 2.001,11.907 2.056 C 12.986 2.164,13.836 3.014,13.944 4.093 C 13.999 4.642,13.868 5.176,13.566 5.627 C 13.522 5.693,12.870 6.365,12.118 7.120 C 11.183 8.058,10.736 8.525,10.708 8.592 C 10.621 8.801,10.670 9.020,10.836 9.166 C 11.019 9.327,11.236 9.339,11.447 9.199 C 11.626 9.079,14.130 6.550,14.311 6.304 C 15.053 5.298,15.170 3.970,14.612 2.857 C 14.167 1.967,13.331 1.321,12.342 1.104 C 12.165 1.065,11.411 1.027,11.307 1.052 M1.280 5.063 C 1.230 5.090,1.152 5.157,1.107 5.212 C 1.035 5.301,1.027 5.331,1.027 5.491 C 1.027 5.715,1.108 5.857,1.287 5.943 C 1.400 5.998,1.437 6.000,2.489 6.000 C 3.637 6.000,3.686 5.995,3.822 5.872 C 3.960 5.747,4.014 5.479,3.937 5.299 C 3.892 5.195,3.774 5.080,3.672 5.042 C 3.623 5.023,3.205 5.013,2.485 5.013 C 1.452 5.013,1.366 5.017,1.280 5.063 M4.726 6.721 C 4.678 6.731,4.593 6.772,4.538 6.810 C 4.357 6.935,1.858 9.467,1.689 9.696 C 0.936 10.716,0.827 12.061,1.406 13.182 C 1.571 13.503,1.781 13.779,2.069 14.054 C 3.227 15.162,5.005 15.270,6.304 14.311 C 6.550 14.130,9.079 11.626,9.199 11.447 C 9.292 11.306,9.318 11.179,9.280 11.042 C 9.202 10.749,8.874 10.591,8.592 10.708 C 8.525 10.736,8.058 11.183,7.120 12.118 C 6.365 12.870,5.690 13.524,5.620 13.571 C 5.429 13.699,5.132 13.832,4.893 13.897 C 4.726 13.942,4.605 13.955,4.333 13.955 C 4.061 13.955,3.941 13.942,3.773 13.897 C 2.654 13.594,1.930 12.553,2.054 11.426 C 2.097 11.036,2.222 10.691,2.434 10.373 C 2.478 10.307,3.130 9.635,3.882 8.880 C 4.817 7.942,5.264 7.475,5.292 7.408 C 5.422 7.095,5.236 6.760,4.907 6.715 C 4.855 6.707,4.774 6.710,4.726 6.721 M12.304 10.051 C 11.889 10.239,11.947 10.847,12.391 10.976 C 12.507 11.010,12.704 11.015,13.578 11.008 C 14.505 11.001,14.636 10.995,14.709 10.955 C 14.819 10.894,14.955 10.737,14.975 10.646 C 14.984 10.606,14.995 10.560,15.000 10.543 C 15.019 10.481,14.954 10.278,14.888 10.191 C 14.745 10.003,14.729 10.001,13.507 10.001 C 12.496 10.001,12.405 10.005,12.304 10.051 M10.307 12.051 C 10.171 12.113,10.060 12.232,10.026 12.348 C 10.011 12.401,10.000 12.892,10.001 13.520 C 10.001 14.728,10.004 14.745,10.191 14.888 C 10.278 14.954,10.481 15.019,10.543 15.000 C 10.560 14.995,10.606 14.984,10.646 14.975 C 10.737 14.955,10.894 14.819,10.955 14.709 C 10.995 14.636,11.001 14.505,11.008 13.590 C 11.013 12.914,11.006 12.506,10.987 12.418 C 10.916 12.087,10.599 11.915,10.307 12.051 " stroke="none" fill-rule="evenodd" fill="black"></path></svg>