<svg width="169" height="52" viewBox="0 0 169 52" xmlns="http://www.w3.org/2000/svg"><path d="M86.390 3.136 C 82.550 4.841,79.256 6.186,79.070 6.123 C 78.871 6.057,79.151 5.612,79.746 5.047 C 80.859 3.992,81.178 3.366,80.862 2.855 C 80.723 2.629,79.643 3.256,77.516 4.797 C 75.788 6.048,74.289 7.211,74.184 7.381 C 74.078 7.551,73.703 9.224,73.350 11.098 C 72.780 14.118,72.753 14.578,73.114 15.135 C 73.962 16.443,74.558 16.286,80.252 13.258 C 86.995 9.672,92.105 7.263,92.582 7.446 C 93.104 7.646,93.040 8.466,92.347 10.491 C 90.772 15.092,87.307 20.658,81.744 27.527 C 79.929 29.768,78.205 31.916,77.913 32.299 C 77.384 32.992,77.387 33.008,78.438 35.440 C 79.756 38.492,79.837 38.589,81.084 38.587 C 82.734 38.586,83.673 37.754,86.523 33.766 C 91.696 26.531,97.874 19.119,104.053 12.734 C 107.050 9.637,107.896 9.116,108.110 10.231 C 108.284 11.130,101.691 21.466,96.515 28.412 C 93.884 31.941,93.529 32.600,93.325 34.321 C 93.204 35.340,93.318 36.008,93.802 37.133 C 94.385 38.489,95.475 39.715,96.098 39.715 C 96.663 39.715,99.405 36.815,102.622 32.814 C 106.187 28.380,114.656 19.698,118.370 16.669 C 119.571 15.690,120.553 14.961,120.553 15.049 C 120.553 15.137,119.660 16.413,118.568 17.885 C 110.574 28.661,108.503 36.595,112.903 39.584 C 114.199 40.465,115.600 40.474,118.031 39.616 C 122.812 37.928,130.025 32.213,131.846 28.671 C 132.358 27.676,132.586 25.913,132.203 25.913 C 132.104 25.913,131.028 26.865,129.811 28.027 C 127.225 30.498,123.320 33.448,121.248 34.497 C 120.011 35.122,119.683 35.185,119.076 34.908 C 117.049 33.985,117.362 31.303,120.122 25.960 C 121.815 22.682,123.633 20.099,127.900 14.908 C 134.650 6.698,134.655 6.687,133.402 4.127 C 132.567 2.419,131.244 1.491,130.068 1.786 C 129.246 1.992,123.841 6.583,115.120 14.481 C 111.757 17.527,109.005 19.946,109.005 19.857 C 109.005 19.479,110.238 17.332,112.073 14.512 C 114.702 10.473,116.148 6.882,115.978 4.812 C 115.869 3.495,115.712 3.159,114.827 2.348 C 113.642 1.262,112.134 1.091,110.611 1.869 C 109.165 2.607,103.551 7.419,99.358 11.513 C 96.590 14.216,95.485 15.136,95.485 14.738 C 95.485 14.097,96.546 10.932,97.451 8.873 C 98.398 6.717,98.168 4.865,96.617 2.154 C 95.436 0.091,95.342 0.001,94.379 0.018 C 93.737 0.029,90.841 1.159,86.390 3.136 M25.632 1.654 C 18.631 3.956,12.733 8.964,9.510 15.340 C 6.249 21.791,5.180 29.927,7.477 30.808 C 8.937 31.369,9.526 31.044,12.644 27.955 C 14.325 26.290,15.918 24.585,16.184 24.165 C 17.017 22.850,16.435 22.733,14.487 23.822 C 13.490 24.379,12.675 24.720,12.675 24.579 C 12.675 23.960,14.179 19.985,15.095 18.181 C 17.325 13.792,21.093 9.743,25.292 7.224 C 27.980 5.612,28.627 5.462,28.504 6.478 C 27.917 11.330,24.726 18.403,18.839 27.904 C 16.197 32.167,14.893 33.454,9.434 37.180 C 2.671 41.796,0.358 44.642,0.067 48.704 C -0.054 50.397,0.001 50.701,0.528 51.228 C 1.413 52.113,2.119 51.972,4.189 50.495 C 6.863 48.587,9.977 45.338,14.601 39.631 C 16.823 36.889,19.168 34.189,19.812 33.631 C 20.457 33.072,22.786 31.736,24.988 30.662 C 27.190 29.588,29.068 28.586,29.161 28.435 C 29.393 28.059,29.041 27.040,28.679 27.040 C 28.516 27.040,27.242 27.547,25.845 28.167 C 23.241 29.323,22.815 29.451,22.815 29.079 C 22.815 28.961,23.710 27.345,24.804 25.488 C 27.912 20.210,30.766 14.255,32.098 10.268 C 33.990 4.607,33.778 2.574,31.173 1.391 C 29.586 0.670,28.460 0.724,25.632 1.654 M158.197 1.983 C 150.645 4.540,143.769 9.473,138.794 15.903 C 136.497 18.871,136.036 19.717,135.179 22.537 C 133.739 27.269,134.541 32.661,137.109 35.518 C 139.142 37.779,140.126 38.167,143.791 38.157 C 146.529 38.149,147.178 38.046,149.373 37.268 C 153.261 35.892,156.043 34.078,159.445 30.702 C 162.784 27.388,164.654 24.742,166.218 21.115 C 168.684 15.393,168.800 11.573,166.573 9.347 C 165.634 8.408,165.570 8.389,163.645 8.498 C 162.562 8.559,161.677 8.565,161.677 8.511 C 161.677 8.457,162.633 7.972,163.802 7.432 C 166.571 6.152,166.864 5.590,165.730 3.736 C 164.822 2.251,163.009 1.123,161.547 1.132 C 161.076 1.136,159.569 1.518,158.197 1.983 M56.200 1.840 C 47.865 3.186,42.475 6.047,40.448 10.201 C 39.381 12.387,38.991 14.651,39.386 16.362 C 40.061 19.288,41.119 19.980,46.222 20.837 C 50.338 21.528,54.246 22.460,58.253 23.707 C 62.373 24.989,62.673 25.864,59.675 27.866 C 56.294 30.124,49.933 31.574,43.095 31.645 C 39.175 31.686,39.012 31.665,39.043 31.124 C 39.061 30.814,39.170 30.339,39.285 30.068 C 39.463 29.647,39.335 29.576,38.407 29.581 C 36.196 29.594,33.672 31.375,32.637 33.653 C 31.969 35.124,31.978 36.091,32.668 36.968 C 33.657 38.226,35.265 38.669,39.343 38.808 C 46.765 39.060,55.494 37.413,60.379 34.839 C 67.352 31.165,68.353 24.464,62.447 21.003 C 61.787 20.617,60.047 19.988,58.579 19.607 C 57.112 19.225,53.629 18.318,50.841 17.591 C 48.052 16.864,45.549 16.075,45.278 15.837 C 43.398 14.187,46.870 11.613,53.104 10.032 C 56.351 9.209,60.773 8.453,62.347 8.451 L 63.432 8.450 61.995 10.022 C 60.548 11.605,60.218 12.484,60.962 12.770 C 61.184 12.855,63.083 12.030,65.181 10.937 C 69.428 8.724,71.010 7.334,71.545 5.345 C 71.935 3.899,71.671 2.091,71.029 1.808 C 70.078 1.389,58.846 1.413,56.200 1.840 M161.922 11.296 C 163.792 11.948,163.891 14.014,162.217 17.478 C 158.193 25.811,151.356 32.190,144.595 33.920 C 142.084 34.563,140.944 34.500,140.116 33.672 C 138.746 32.301,139.371 28.952,141.892 24.153 C 142.604 22.797,143.534 21.276,143.959 20.773 C 144.644 19.962,144.799 19.898,145.314 20.210 C 146.159 20.721,146.659 20.645,147.158 19.928 C 148.035 18.669,151.147 15.688,152.663 14.654 C 154.676 13.282,156.926 12.143,158.860 11.517 C 160.735 10.910,160.800 10.905,161.922 11.296 " stroke="none" fill-rule="evenodd" fill="black"></path></svg>