<svg width="15" height="15" viewBox="0 0 15 15" xmlns="http://www.w3.org/2000/svg"><path d="M1.342 1.024 C 1.227 1.061,1.109 1.166,1.053 1.282 L 1.000 1.391 1.000 7.504 L 1.000 13.617 1.058 13.727 C 1.090 13.788,1.164 13.871,1.223 13.913 C 1.315 13.978,1.351 13.988,1.496 13.988 C 1.695 13.988,1.816 13.925,1.920 13.767 L 1.988 13.666 1.988 7.502 L 1.988 1.338 1.928 1.242 C 1.843 1.106,1.708 1.024,1.546 1.012 C 1.473 1.006,1.381 1.012,1.342 1.024 M13.342 1.024 C 13.227 1.061,13.109 1.166,13.053 1.282 L 13.000 1.391 13.000 7.504 L 13.000 13.617 13.058 13.727 C 13.090 13.788,13.164 13.871,13.223 13.913 C 13.315 13.978,13.351 13.988,13.496 13.988 C 13.695 13.988,13.816 13.925,13.920 13.767 L 13.988 13.666 13.988 7.502 L 13.988 1.338 13.928 1.242 C 13.843 1.106,13.708 1.024,13.546 1.012 C 13.473 1.006,13.381 1.012,13.342 1.024 M4.650 5.040 C 4.602 5.061,4.533 5.106,4.496 5.141 C 4.460 5.176,4.111 5.683,3.721 6.268 L 3.013 7.332 3.013 7.500 L 3.013 7.668 3.721 8.732 C 4.111 9.317,4.460 9.824,4.496 9.859 C 4.742 10.094,5.136 10.020,5.278 9.713 C 5.333 9.593,5.338 9.430,5.290 9.316 C 5.271 9.270,5.075 8.962,4.853 8.629 C 4.631 8.297,4.450 8.020,4.450 8.013 C 4.450 8.006,5.823 8.000,7.500 8.000 C 9.178 8.000,10.550 8.006,10.550 8.013 C 10.550 8.020,10.369 8.297,10.147 8.629 C 9.925 8.962,9.729 9.270,9.710 9.316 C 9.637 9.489,9.691 9.742,9.828 9.868 C 10.014 10.038,10.311 10.038,10.497 9.868 C 10.612 9.762,11.949 7.730,11.980 7.615 C 12.034 7.410,12.010 7.363,11.258 6.238 C 10.872 5.660,10.530 5.163,10.497 5.132 C 10.254 4.909,9.858 4.988,9.722 5.286 C 9.667 5.407,9.662 5.571,9.710 5.684 C 9.729 5.730,9.925 6.038,10.147 6.371 C 10.369 6.703,10.550 6.980,10.550 6.987 C 10.550 6.994,9.178 7.000,7.500 7.000 C 5.823 7.000,4.450 6.994,4.450 6.987 C 4.450 6.980,4.631 6.703,4.853 6.371 C 5.075 6.038,5.271 5.730,5.290 5.684 C 5.338 5.571,5.333 5.407,5.278 5.286 C 5.171 5.051,4.884 4.938,4.650 5.040 " stroke="none" fill-rule="evenodd" fill="black"></path></svg>