<svg width="16" height="16" viewBox="0 0 16 16" xmlns="http://www.w3.org/2000/svg"><path d="M4.000 2.507 L 4.000 4.000 2.493 4.000 L 0.985 4.000 0.993 4.500 L 1.000 5.000 2.500 5.007 L 4.000 5.014 4.000 8.014 L 4.000 11.013 2.493 11.013 L 0.987 11.013 0.987 11.507 L 0.987 12.000 2.493 12.000 L 4.000 12.000 4.000 13.507 L 4.000 15.015 4.500 15.007 L 5.000 15.000 5.007 13.500 L 5.014 12.000 8.000 12.000 L 10.986 12.000 10.993 13.500 L 11.000 15.000 11.500 15.007 L 12.000 15.015 12.000 13.507 L 12.000 12.000 13.507 12.000 L 15.013 12.000 15.013 11.507 L 15.013 11.013 13.507 11.013 L 12.000 11.013 12.000 8.014 L 12.000 5.014 13.500 5.007 L 15.000 5.000 15.007 4.500 L 15.015 4.000 13.507 4.000 L 12.000 4.000 12.000 2.507 L 12.000 1.013 11.493 1.013 L 10.987 1.013 10.987 2.507 L 10.987 4.000 8.000 4.000 L 5.013 4.000 5.013 2.507 L 5.013 1.013 4.507 1.013 L 4.000 1.013 4.000 2.507 M10.987 8.013 L 10.987 11.013 8.000 11.013 L 5.013 11.013 5.013 8.013 L 5.013 5.013 8.000 5.013 L 10.987 5.013 10.987 8.013 " stroke="none" fill-rule="evenodd" fill="black"></path></svg>