<svg width="12" height="12" viewBox="0 0 12 12" xmlns="http://www.w3.org/2000/svg"><path d="M4.420 0.522 C 3.982 0.551,3.667 0.652,3.356 0.862 C 3.085 1.045,2.787 1.409,2.668 1.701 C 2.599 1.871,2.543 2.120,2.527 2.325 L 2.514 2.500 2.282 2.500 C 1.987 2.500,1.644 2.531,1.490 2.570 C 1.326 2.612,1.075 2.736,0.930 2.845 C 0.805 2.940,0.657 3.120,0.605 3.240 C 0.507 3.466,0.512 3.347,0.505 5.910 C 0.499 8.379,0.501 8.470,0.578 8.690 C 0.677 8.970,0.955 9.232,1.293 9.364 C 1.534 9.457,1.698 9.483,2.122 9.495 L 2.515 9.505 2.528 9.678 C 2.554 10.031,2.648 10.313,2.831 10.594 C 3.035 10.907,3.385 11.203,3.701 11.332 C 4.085 11.488,4.351 11.505,6.190 11.495 C 7.812 11.486,7.863 11.483,8.215 11.362 C 8.706 11.192,9.192 10.706,9.362 10.215 C 9.421 10.043,9.480 9.730,9.480 9.588 L 9.480 9.505 9.875 9.495 C 10.376 9.481,10.623 9.429,10.880 9.283 C 11.193 9.106,11.383 8.869,11.462 8.560 C 11.504 8.396,11.504 3.604,11.462 3.440 C 11.375 3.097,11.163 2.857,10.790 2.678 C 10.702 2.635,10.576 2.587,10.510 2.571 C 10.350 2.531,10.003 2.500,9.715 2.500 L 9.480 2.500 9.480 2.415 C 9.480 2.270,9.421 1.958,9.362 1.785 C 9.248 1.456,8.941 1.061,8.644 0.862 C 8.319 0.644,8.026 0.554,7.535 0.520 C 7.202 0.497,4.757 0.498,4.420 0.522 M7.730 1.538 C 7.908 1.572,8.054 1.653,8.200 1.800 C 8.355 1.954,8.430 2.095,8.464 2.300 C 8.485 2.418,8.490 3.208,8.490 6.000 C 8.490 9.830,8.492 9.743,8.384 9.959 C 8.314 10.100,8.153 10.272,8.016 10.355 C 7.792 10.490,7.792 10.490,6.000 10.490 C 4.208 10.490,4.208 10.490,3.984 10.355 C 3.847 10.272,3.686 10.100,3.616 9.959 C 3.508 9.743,3.510 9.830,3.510 6.000 C 3.510 2.170,3.508 2.257,3.616 2.041 C 3.723 1.826,3.968 1.616,4.177 1.561 C 4.224 1.548,4.350 1.530,4.457 1.521 C 4.751 1.495,7.584 1.511,7.730 1.538 M2.500 6.003 L 2.500 8.505 2.145 8.495 C 1.776 8.484,1.667 8.462,1.560 8.381 L 1.510 8.342 1.505 6.033 C 1.502 4.626,1.507 3.705,1.518 3.674 C 1.562 3.560,1.783 3.507,2.245 3.503 L 2.500 3.500 2.500 6.003 M10.290 3.549 C 10.345 3.566,10.412 3.598,10.440 3.619 L 10.490 3.658 10.490 6.000 L 10.490 8.342 10.440 8.381 C 10.333 8.462,10.224 8.484,9.855 8.495 L 9.500 8.505 9.500 6.000 L 9.500 3.494 9.845 3.506 C 10.071 3.514,10.225 3.528,10.290 3.549 " stroke="none" fill-rule="evenodd" fill="black"></path></svg>