<svg width="16" height="16" viewBox="0 0 16 16" xmlns="http://www.w3.org/2000/svg"><path d="M4.203 1.018 C 3.466 1.092,2.844 1.463,2.429 2.076 C 2.183 2.440,2.073 2.793,2.025 3.373 C 2.006 3.607,2.000 5.184,2.007 8.227 C 2.018 13.152,2.009 12.866,2.172 13.355 C 2.349 13.888,2.829 14.425,3.373 14.700 C 3.577 14.803,3.851 14.880,4.160 14.921 C 4.613 14.981,5.946 15.018,7.333 15.009 C 8.490 15.001,8.635 14.995,8.709 14.955 C 8.819 14.894,8.955 14.737,8.975 14.646 C 8.984 14.606,8.995 14.560,9.000 14.543 C 9.019 14.481,8.954 14.278,8.888 14.191 C 8.850 14.141,8.770 14.078,8.710 14.051 C 8.606 14.004,8.504 14.001,6.943 14.001 C 5.268 14.000,4.494 13.974,4.139 13.906 C 3.885 13.858,3.653 13.731,3.452 13.533 C 3.256 13.340,3.137 13.138,3.074 12.891 C 3.030 12.718,3.027 12.421,3.027 7.987 C 3.027 3.568,3.030 3.254,3.074 3.067 C 3.134 2.811,3.247 2.615,3.451 2.412 C 3.631 2.233,3.800 2.129,4.024 2.060 C 4.163 2.017,4.440 2.013,7.893 2.013 C 12.029 2.013,11.868 2.007,12.220 2.191 C 12.419 2.295,12.704 2.573,12.806 2.763 C 12.974 3.076,12.969 2.977,12.985 5.933 C 12.999 8.400,13.004 8.634,13.045 8.709 C 13.106 8.819,13.263 8.955,13.354 8.975 C 13.394 8.984,13.440 8.995,13.457 9.000 C 13.519 9.019,13.722 8.954,13.809 8.888 C 13.859 8.850,13.923 8.767,13.951 8.702 C 14.002 8.589,14.003 8.511,13.992 5.913 C 13.981 3.005,13.983 3.053,13.827 2.604 C 13.684 2.192,13.327 1.731,12.948 1.470 C 12.557 1.199,12.237 1.089,11.705 1.042 C 11.356 1.011,4.492 0.989,4.203 1.018 M5.293 5.050 C 5.190 5.095,5.046 5.259,5.025 5.354 C 5.016 5.394,5.005 5.440,5.000 5.457 C 4.981 5.519,5.046 5.722,5.112 5.809 C 5.150 5.859,5.230 5.922,5.290 5.949 C 5.395 5.997,5.518 5.999,8.000 5.999 C 10.482 5.999,10.605 5.997,10.710 5.949 C 10.960 5.836,11.070 5.507,10.940 5.266 C 10.896 5.186,10.769 5.073,10.685 5.042 C 10.565 4.996,5.398 5.005,5.293 5.050 M5.290 8.051 C 5.230 8.078,5.150 8.141,5.112 8.191 C 5.046 8.278,4.981 8.481,5.000 8.543 C 5.005 8.560,5.016 8.606,5.025 8.646 C 5.045 8.737,5.181 8.894,5.291 8.955 C 5.366 8.996,5.553 9.001,7.412 9.007 C 8.829 9.013,9.494 9.006,9.593 8.985 C 10.072 8.886,10.140 8.253,9.694 8.050 C 9.593 8.004,9.461 8.001,7.493 8.001 C 5.506 8.001,5.394 8.004,5.290 8.051 M13.787 10.549 C 13.728 10.574,13.192 11.090,12.347 11.934 L 11.000 13.278 10.493 12.776 C 10.215 12.500,9.945 12.252,9.894 12.226 C 9.778 12.167,9.559 12.165,9.450 12.221 C 9.179 12.362,9.091 12.707,9.264 12.956 C 9.301 13.010,9.636 13.357,10.007 13.726 C 10.696 14.412,10.816 14.505,11.000 14.505 C 11.203 14.505,11.272 14.445,12.821 12.899 C 13.647 12.074,14.358 11.347,14.401 11.283 C 14.544 11.069,14.532 10.865,14.366 10.676 C 14.221 10.510,13.992 10.460,13.787 10.549 " stroke="none" fill-rule="evenodd" fill="black"></path></svg>