<svg width="16" height="16" viewBox="0 0 16 16" xmlns="http://www.w3.org/2000/svg"><path d="M3.627 1.507 L 3.627 2.000 4.507 2.000 L 5.387 2.000 5.387 1.507 L 5.387 1.013 4.507 1.013 L 3.627 1.013 3.627 1.507 M7.120 1.507 L 7.120 2.000 8.000 2.000 L 8.880 2.000 8.880 1.507 L 8.880 1.013 8.000 1.013 L 7.120 1.013 7.120 1.507 M10.613 1.507 L 10.613 2.000 11.493 2.000 L 12.373 2.000 12.373 1.507 L 12.373 1.013 11.493 1.013 L 10.613 1.013 10.613 1.507 M0.993 4.500 L 1.000 5.373 1.500 5.381 L 2.000 5.388 2.000 4.507 L 2.000 3.627 1.493 3.627 L 0.986 3.627 0.993 4.500 M14.000 4.507 L 14.000 5.388 14.500 5.381 L 15.000 5.373 15.007 4.500 L 15.014 3.627 14.507 3.627 L 14.000 3.627 14.000 4.507 M0.999 7.154 C 0.992 7.172,0.989 7.565,0.993 8.027 L 1.000 8.867 1.500 8.874 L 2.000 8.881 2.000 8.001 L 2.000 7.120 1.506 7.120 C 1.133 7.120,1.008 7.128,0.999 7.154 M14.000 8.000 L 14.000 8.881 14.500 8.874 L 15.000 8.867 15.000 8.000 L 15.000 7.133 14.500 7.126 L 14.000 7.119 14.000 8.000 M0.987 11.507 L 0.987 12.373 1.493 12.373 L 2.000 12.373 2.000 11.507 L 2.000 10.640 1.493 10.640 L 0.987 10.640 0.987 11.507 M14.000 11.507 L 14.000 12.373 14.507 12.373 L 15.013 12.373 15.013 11.507 L 15.013 10.640 14.507 10.640 L 14.000 10.640 14.000 11.507 M3.627 14.507 L 3.627 15.014 4.500 15.007 L 5.373 15.000 5.381 14.500 L 5.388 14.000 4.507 14.000 L 3.627 14.000 3.627 14.507 M7.126 14.500 L 7.133 15.000 8.000 15.000 L 8.867 15.000 8.874 14.500 L 8.881 14.000 8.000 14.000 L 7.119 14.000 7.126 14.500 M10.619 14.500 L 10.627 15.000 11.500 15.007 L 12.373 15.014 12.373 14.507 L 12.373 14.000 11.493 14.000 L 10.612 14.000 10.619 14.500 " stroke="none" fill-rule="evenodd" fill="black"></path></svg>