<svg width="12" height="12" viewBox="0 0 12 12" xmlns="http://www.w3.org/2000/svg"><path d="M1.740 0.020 C 1.417 0.047,1.221 0.103,0.964 0.241 C 0.491 0.495,0.163 0.925,0.050 1.440 C 0.028 1.544,0.014 1.738,0.006 2.072 C -0.007 2.624,0.006 2.699,0.137 2.835 C 0.391 3.096,0.825 3.030,0.983 2.705 C 1.025 2.617,1.030 2.576,1.042 2.120 C 1.049 1.851,1.065 1.600,1.077 1.563 C 1.136 1.379,1.322 1.173,1.507 1.089 C 1.575 1.058,1.680 1.033,1.801 1.021 C 1.911 1.009,2.722 1.001,3.735 1.000 L 5.480 1.000 5.480 5.595 C 5.480 8.122,5.474 10.372,5.467 10.595 L 5.454 11.000 4.660 11.000 C 3.783 11.000,3.734 11.006,3.592 11.123 C 3.367 11.310,3.366 11.690,3.592 11.876 C 3.751 12.007,3.629 12.001,6.021 11.995 L 8.190 11.990 8.273 11.946 C 8.438 11.857,8.560 11.669,8.560 11.500 C 8.560 11.331,8.438 11.143,8.273 11.054 C 8.192 11.011,8.173 11.010,7.345 11.004 L 6.500 10.998 6.500 9.584 C 6.500 8.806,6.506 6.557,6.513 4.585 L 6.527 1.000 8.268 1.000 C 9.279 1.001,10.089 1.009,10.199 1.021 C 10.320 1.033,10.425 1.058,10.493 1.089 C 10.678 1.173,10.864 1.379,10.923 1.563 C 10.935 1.600,10.951 1.851,10.958 2.120 C 10.970 2.576,10.975 2.617,11.017 2.705 C 11.175 3.030,11.609 3.096,11.863 2.835 C 11.994 2.699,12.007 2.624,11.994 2.072 C 11.986 1.738,11.972 1.544,11.950 1.440 C 11.795 0.734,11.243 0.203,10.500 0.046 C 10.340 0.013,10.085 0.010,6.120 0.008 C 3.804 0.006,1.833 0.012,1.740 0.020 " stroke="none" fill-rule="evenodd" fill="black"></path></svg>