<svg width="16" height="16" viewBox="0 0 16 16" xmlns="http://www.w3.org/2000/svg"><path d="M1.662 1.063 C 1.404 1.152,1.172 1.381,1.058 1.659 C 1.000 1.800,1.000 1.802,1.000 4.000 C 1.000 6.198,1.000 6.200,1.058 6.341 C 1.170 6.615,1.385 6.830,1.659 6.942 L 1.800 7.000 8.000 7.000 L 14.200 7.000 14.341 6.942 C 14.615 6.830,14.830 6.615,14.942 6.341 C 15.000 6.200,15.000 6.198,15.000 4.000 C 15.000 1.802,15.000 1.800,14.942 1.659 C 14.828 1.381,14.596 1.152,14.338 1.063 C 14.207 1.018,13.881 1.015,8.000 1.015 C 2.119 1.015,1.793 1.018,1.662 1.063 M14.000 4.000 L 14.000 6.000 8.000 6.000 L 2.000 6.000 2.000 4.000 L 2.000 2.000 8.000 2.000 L 14.000 2.000 14.000 4.000 M1.662 9.063 C 1.404 9.152,1.172 9.381,1.058 9.659 C 1.000 9.800,1.000 9.802,1.000 12.000 C 1.000 14.198,1.000 14.200,1.058 14.341 C 1.170 14.615,1.385 14.830,1.659 14.942 L 1.800 15.000 8.000 15.000 L 14.200 15.000 14.341 14.942 C 14.615 14.830,14.830 14.615,14.942 14.341 C 15.000 14.200,15.000 14.198,15.000 12.000 C 15.000 9.802,15.000 9.800,14.942 9.659 C 14.828 9.381,14.596 9.152,14.338 9.063 C 14.207 9.018,13.881 9.015,8.000 9.015 C 2.119 9.015,1.793 9.018,1.662 9.063 M14.000 12.000 L 14.000 14.000 8.000 14.000 L 2.000 14.000 2.000 12.000 L 2.000 10.000 8.000 10.000 L 14.000 10.000 14.000 12.000 " stroke="none" fill-rule="evenodd" fill="black"></path></svg>