<svg width="16" height="16" viewBox="0 0 16 16" xmlns="http://www.w3.org/2000/svg"><path d="M1.293 1.044 C 1.218 1.086,1.094 1.204,1.060 1.266 C 0.930 1.507,1.042 1.840,1.290 1.947 C 1.378 1.984,1.503 1.997,1.909 2.007 C 2.340 2.019,2.437 2.029,2.536 2.073 C 2.683 2.139,2.834 2.291,2.913 2.451 L 2.973 2.573 2.973 8.000 L 2.973 13.427 2.913 13.550 C 2.832 13.714,2.685 13.862,2.535 13.928 C 2.431 13.975,2.336 13.985,1.880 13.999 C 1.291 14.016,1.234 14.031,1.110 14.194 C 1.045 14.278,0.981 14.482,1.000 14.543 C 1.005 14.560,1.016 14.606,1.025 14.646 C 1.045 14.737,1.182 14.896,1.287 14.950 C 1.331 14.973,1.452 14.998,1.556 15.005 C 1.811 15.024,2.535 14.970,2.732 14.918 C 3.313 14.763,3.790 14.247,3.937 13.613 C 3.985 13.409,3.987 13.164,3.987 8.000 C 3.987 2.836,3.985 2.591,3.937 2.387 C 3.775 1.687,3.248 1.170,2.577 1.054 C 2.292 1.005,1.377 0.998,1.293 1.044 M6.487 1.042 C 6.116 1.106,5.834 1.260,5.533 1.560 C 5.365 1.727,5.294 1.823,5.205 2.002 C 4.989 2.440,5.005 2.005,4.994 7.707 C 4.984 12.868,4.992 13.406,5.082 13.707 C 5.188 14.063,5.430 14.414,5.714 14.628 C 5.922 14.785,6.077 14.863,6.324 14.937 C 6.513 14.994,6.568 14.997,7.926 15.007 C 9.541 15.019,9.611 15.012,9.998 14.822 C 10.321 14.663,10.637 14.347,10.793 14.027 C 11.016 13.571,11.000 14.029,11.000 8.000 C 11.000 3.012,10.997 2.640,10.954 2.454 C 10.799 1.790,10.303 1.264,9.665 1.089 C 9.461 1.033,9.399 1.030,8.040 1.024 C 7.263 1.020,6.564 1.028,6.487 1.042 M13.400 1.056 C 12.749 1.173,12.220 1.700,12.062 2.387 C 12.016 2.590,12.013 2.858,12.013 8.000 C 12.013 13.157,12.016 13.410,12.063 13.613 C 12.209 14.248,12.685 14.763,13.268 14.918 C 13.465 14.970,14.189 15.024,14.444 15.005 C 14.548 14.998,14.669 14.973,14.713 14.950 C 14.818 14.896,14.955 14.737,14.975 14.646 C 14.984 14.606,14.995 14.560,15.000 14.543 C 15.019 14.482,14.955 14.278,14.890 14.194 C 14.766 14.031,14.709 14.016,14.120 13.999 C 13.664 13.985,13.569 13.975,13.465 13.928 C 13.315 13.862,13.168 13.714,13.087 13.550 L 13.027 13.427 13.027 8.000 L 13.027 2.573 13.087 2.450 C 13.168 2.286,13.315 2.138,13.462 2.073 C 13.563 2.029,13.660 2.019,14.091 2.007 C 14.664 1.992,14.768 1.966,14.888 1.809 C 15.089 1.545,14.986 1.155,14.685 1.042 C 14.574 1.000,13.658 1.010,13.400 1.056 M8.920 2.024 C 9.330 2.040,9.445 2.053,9.520 2.092 C 9.705 2.188,9.811 2.295,9.899 2.474 L 9.987 2.652 9.987 8.026 L 9.987 13.400 9.930 13.523 C 9.848 13.700,9.698 13.854,9.524 13.939 L 9.373 14.013 8.271 14.022 C 6.929 14.032,6.618 14.011,6.420 13.900 C 6.255 13.807,6.099 13.616,6.049 13.443 C 6.020 13.342,6.013 12.359,6.013 7.973 L 6.013 2.627 6.069 2.505 C 6.191 2.242,6.426 2.060,6.689 2.026 C 6.890 2.001,8.285 1.999,8.920 2.024 " stroke="none" fill-rule="evenodd" fill="black"></path></svg>