<svg width="12" height="12" viewBox="0 0 12 12" xmlns="http://www.w3.org/2000/svg"><path d="M3.332 0.031 C 3.218 0.073,3.128 0.149,3.065 0.256 L 3.010 0.350 3.004 1.675 L 2.999 3.000 1.712 3.000 C 0.315 3.000,0.334 2.999,0.187 3.111 C 0.151 3.139,0.096 3.204,0.065 3.256 C 0.018 3.336,0.010 3.372,0.010 3.500 C 0.010 3.628,0.018 3.664,0.065 3.744 C 0.096 3.796,0.151 3.861,0.187 3.889 C 0.334 4.001,0.315 4.000,1.713 4.000 L 3.000 4.000 3.000 6.000 L 3.000 8.000 1.713 8.000 C 0.315 8.000,0.334 7.999,0.187 8.111 C 0.151 8.139,0.096 8.204,0.065 8.256 C 0.018 8.336,0.010 8.372,0.010 8.500 C 0.010 8.628,0.018 8.664,0.065 8.744 C 0.096 8.796,0.151 8.861,0.187 8.889 C 0.334 9.001,0.315 9.000,1.713 9.000 L 3.000 9.000 3.000 10.285 C 3.000 11.109,3.008 11.597,3.021 11.644 C 3.051 11.755,3.158 11.881,3.266 11.937 C 3.466 12.040,3.695 12.006,3.850 11.851 C 4.004 11.697,4.000 11.739,4.000 10.286 L 4.000 9.000 6.000 9.000 L 8.000 9.000 8.000 10.285 C 8.000 11.109,8.008 11.597,8.021 11.644 C 8.051 11.755,8.158 11.881,8.266 11.937 C 8.466 12.040,8.695 12.006,8.850 11.851 C 9.004 11.697,9.000 11.739,9.000 10.286 L 9.000 9.000 10.286 9.000 C 11.739 9.000,11.697 9.004,11.851 8.851 C 12.046 8.655,12.046 8.345,11.851 8.149 C 11.697 7.996,11.739 8.000,10.286 8.000 L 9.000 8.000 9.000 6.000 L 9.000 4.000 10.286 4.000 C 11.739 4.000,11.697 4.004,11.851 3.851 C 12.046 3.655,12.046 3.345,11.851 3.149 C 11.697 2.996,11.739 3.000,10.286 3.000 L 9.000 3.000 9.000 1.714 C 9.000 0.261,9.004 0.303,8.850 0.149 C 8.695 -0.006,8.466 -0.040,8.266 0.063 C 8.158 0.119,8.051 0.245,8.021 0.356 C 8.008 0.403,8.000 0.891,8.000 1.715 L 8.000 3.000 6.000 3.000 L 4.000 3.000 4.000 1.714 C 4.000 0.261,4.004 0.303,3.851 0.149 C 3.714 0.013,3.509 -0.033,3.332 0.031 M8.000 6.000 L 8.000 8.000 6.000 8.000 L 4.000 8.000 4.000 6.000 L 4.000 4.000 6.000 4.000 L 8.000 4.000 8.000 6.000 " stroke="none" fill-rule="evenodd" fill="black"></path></svg>