<svg width="15" height="15" viewBox="0 0 15 15" xmlns="http://www.w3.org/2000/svg"><path d="M2.666 1.027 C 2.418 1.054,2.236 1.106,2.024 1.213 C 1.555 1.449,1.183 1.909,1.087 2.370 C 1.035 2.620,1.000 3.260,1.000 3.990 C 1.000 4.598,1.002 4.620,1.058 4.727 C 1.090 4.788,1.164 4.871,1.223 4.913 C 1.315 4.978,1.351 4.988,1.496 4.988 C 1.695 4.988,1.816 4.925,1.920 4.768 L 1.988 4.666 2.004 3.852 C 2.026 2.773,2.038 2.619,2.115 2.458 C 2.230 2.218,2.457 2.064,2.757 2.025 C 2.856 2.012,3.852 2.001,4.969 2.001 L 7.000 2.000 7.000 7.500 L 7.000 13.000 6.174 13.000 C 5.264 13.000,5.239 13.004,5.080 13.157 C 5.029 13.207,4.984 13.286,4.960 13.368 C 4.925 13.487,4.925 13.513,4.960 13.632 C 4.984 13.714,5.029 13.793,5.080 13.843 C 5.251 14.008,5.127 14.000,7.500 14.000 C 9.873 14.000,9.749 14.008,9.920 13.843 C 9.971 13.793,10.016 13.714,10.040 13.632 C 10.075 13.513,10.075 13.487,10.040 13.368 C 10.016 13.286,9.971 13.207,9.920 13.157 C 9.761 13.004,9.736 13.000,8.826 13.000 L 8.000 13.000 8.000 7.500 L 8.000 2.000 10.031 2.001 C 11.148 2.001,12.144 2.012,12.243 2.025 C 12.524 2.061,12.736 2.194,12.864 2.413 C 12.952 2.563,12.971 2.767,12.991 3.773 C 13.007 4.588,13.011 4.638,13.062 4.735 C 13.092 4.791,13.164 4.871,13.223 4.913 C 13.315 4.978,13.351 4.988,13.496 4.988 C 13.695 4.988,13.816 4.925,13.920 4.768 L 13.988 4.666 13.996 4.077 C 14.005 3.415,13.967 2.624,13.912 2.366 C 13.813 1.892,13.431 1.433,12.938 1.196 C 12.530 1.000,12.955 1.015,7.625 1.010 C 5.006 1.008,2.774 1.015,2.666 1.027 " stroke="none" fill-rule="evenodd" fill="black"></path></svg>