<svg width="12" height="12" viewBox="0 0 12 12" xmlns="http://www.w3.org/2000/svg"><path d="M0.790 0.024 C 0.430 0.092,0.100 0.424,0.022 0.796 C -0.009 0.944,-0.009 4.556,0.022 4.704 C 0.100 5.079,0.421 5.400,0.796 5.478 C 0.946 5.509,11.054 5.509,11.204 5.478 C 11.579 5.400,11.900 5.079,11.978 4.704 C 12.009 4.556,12.009 0.944,11.978 0.796 C 11.898 0.415,11.569 0.091,11.191 0.022 C 11.037 -0.006,0.938 -0.005,0.790 0.024 M11.000 2.750 L 11.000 4.500 6.000 4.500 L 1.000 4.500 1.000 2.750 L 1.000 1.000 6.000 1.000 L 11.000 1.000 11.000 2.750 M0.790 6.524 C 0.430 6.592,0.100 6.924,0.022 7.296 C -0.009 7.444,-0.009 11.056,0.022 11.204 C 0.100 11.579,0.421 11.900,0.796 11.978 C 0.946 12.009,11.054 12.009,11.204 11.978 C 11.579 11.900,11.900 11.579,11.978 11.204 C 12.009 11.056,12.009 7.444,11.978 7.296 C 11.898 6.915,11.569 6.591,11.191 6.522 C 11.037 6.494,0.938 6.495,0.790 6.524 M11.000 9.250 L 11.000 11.000 6.000 11.000 L 1.000 11.000 1.000 9.250 L 1.000 7.500 6.000 7.500 L 11.000 7.500 11.000 9.250 " stroke="none" fill-rule="evenodd" fill="black"></path></svg>