<svg width="12" height="12" viewBox="0 0 12 12" xmlns="http://www.w3.org/2000/svg"><path d="M1.716 0.021 C 1.429 0.064,1.112 0.189,0.866 0.356 C 0.478 0.620,0.198 1.017,0.065 1.495 L 0.010 1.690 0.010 6.000 L 0.010 10.310 0.065 10.509 C 0.276 11.263,0.854 11.804,1.613 11.959 C 1.815 12.000,1.849 12.000,6.000 12.000 C 10.151 12.000,10.185 12.000,10.387 11.959 C 11.145 11.804,11.729 11.257,11.936 10.506 L 11.990 10.310 11.990 6.000 L 11.990 1.690 11.937 1.498 C 11.805 1.023,11.522 0.619,11.134 0.356 C 10.965 0.241,10.677 0.109,10.479 0.056 L 10.310 0.011 6.070 0.008 C 3.738 0.006,1.779 0.012,1.716 0.021 M10.191 1.022 C 10.575 1.092,10.908 1.425,10.978 1.809 C 11.009 1.976,11.009 10.024,10.978 10.191 C 10.909 10.569,10.585 10.898,10.204 10.978 C 10.054 11.009,1.946 11.009,1.796 10.978 C 1.415 10.898,1.091 10.569,1.022 10.191 C 0.991 10.024,0.991 1.976,1.022 1.809 C 1.090 1.434,1.423 1.093,1.790 1.024 C 1.938 0.995,10.038 0.994,10.191 1.022 " stroke="none" fill-rule="evenodd" fill="black"></path></svg>