<svg width="15" height="15" viewBox="0 0 15 15" xmlns="http://www.w3.org/2000/svg"><path d="M7.342 1.024 C 7.227 1.061,7.109 1.166,7.053 1.282 L 7.000 1.391 7.000 7.504 L 7.000 13.617 7.058 13.727 C 7.090 13.788,7.164 13.871,7.223 13.913 C 7.316 13.978,7.351 13.987,7.496 13.987 C 7.695 13.987,7.817 13.924,7.920 13.767 L 7.988 13.666 7.988 7.498 L 7.988 1.329 7.913 1.223 C 7.871 1.165,7.794 1.094,7.741 1.067 C 7.632 1.011,7.447 0.991,7.342 1.024 M2.650 5.040 C 2.602 5.061,2.533 5.106,2.496 5.141 C 2.460 5.176,2.111 5.683,1.721 6.268 L 1.012 7.332 1.012 7.500 L 1.012 7.668 1.721 8.732 C 2.111 9.317,2.460 9.824,2.496 9.859 C 2.742 10.094,3.136 10.020,3.278 9.713 C 3.333 9.593,3.338 9.430,3.290 9.316 C 3.271 9.270,3.075 8.962,2.853 8.629 C 2.631 8.297,2.450 8.020,2.450 8.013 C 2.450 8.006,3.249 8.000,4.225 8.000 L 6.000 8.000 6.000 7.500 L 6.000 7.000 4.225 7.000 C 3.249 7.000,2.450 6.994,2.450 6.987 C 2.450 6.980,2.631 6.703,2.853 6.371 C 3.075 6.038,3.271 5.730,3.290 5.684 C 3.338 5.571,3.333 5.407,3.278 5.286 C 3.171 5.051,2.884 4.938,2.650 5.040 M11.991 5.036 C 11.740 5.126,11.605 5.435,11.710 5.684 C 11.729 5.730,11.925 6.038,12.147 6.371 C 12.369 6.703,12.550 6.980,12.550 6.987 C 12.550 6.994,11.751 7.000,10.775 7.000 L 9.000 7.000 9.000 7.500 L 9.000 8.000 10.775 8.000 C 11.751 8.000,12.550 8.006,12.550 8.013 C 12.550 8.020,12.369 8.297,12.147 8.629 C 11.925 8.962,11.729 9.270,11.710 9.316 C 11.637 9.489,11.691 9.742,11.828 9.868 C 12.014 10.038,12.311 10.038,12.497 9.868 C 12.612 9.762,13.949 7.730,13.980 7.615 C 14.034 7.410,14.010 7.363,13.258 6.238 C 12.872 5.660,12.530 5.163,12.497 5.132 C 12.361 5.008,12.172 4.972,11.991 5.036 " stroke="none" fill-rule="evenodd" fill="black"></path></svg>