<svg width="16" height="16" viewBox="0 0 16 16" xmlns="http://www.w3.org/2000/svg"><path d="M0.993 8.007 L 1.000 15.000 8.000 15.000 L 15.000 15.000 15.007 8.007 L 15.013 1.013 8.000 1.013 L 0.987 1.013 0.993 8.007 M14.000 8.000 L 14.000 14.000 8.000 14.000 L 2.000 14.000 2.000 8.000 L 2.000 2.000 8.000 2.000 L 14.000 2.000 14.000 8.000 M7.659 4.336 C 7.110 4.609,7.118 5.399,7.672 5.671 C 8.068 5.864,8.567 5.665,8.705 5.259 C 8.829 4.894,8.675 4.502,8.341 4.336 C 8.229 4.280,8.165 4.267,8.000 4.267 C 7.835 4.267,7.771 4.280,7.659 4.336 M4.765 7.290 C 4.397 7.428,4.191 7.780,4.266 8.143 C 4.382 8.703,5.060 8.938,5.491 8.569 C 5.666 8.420,5.745 8.241,5.745 8.000 C 5.745 7.690,5.610 7.471,5.333 7.332 C 5.183 7.257,4.909 7.237,4.765 7.290 M7.742 7.297 C 7.599 7.348,7.401 7.522,7.326 7.663 C 7.279 7.752,7.267 7.818,7.267 8.000 C 7.267 8.256,7.301 8.345,7.463 8.516 C 7.741 8.808,8.204 8.824,8.500 8.551 C 8.685 8.380,8.733 8.268,8.733 8.000 C 8.733 7.729,8.682 7.611,8.493 7.445 C 8.286 7.263,7.998 7.206,7.742 7.297 M10.800 7.277 C 10.572 7.352,10.423 7.476,10.317 7.680 C 10.224 7.858,10.228 8.150,10.326 8.337 C 10.471 8.613,10.743 8.765,11.051 8.740 C 11.458 8.708,11.744 8.402,11.744 8.000 C 11.744 7.591,11.451 7.284,11.040 7.263 C 10.945 7.259,10.837 7.265,10.800 7.277 M7.659 10.336 C 7.110 10.609,7.118 11.399,7.672 11.671 C 8.068 11.864,8.567 11.665,8.705 11.259 C 8.829 10.894,8.675 10.502,8.341 10.336 C 8.229 10.280,8.165 10.267,8.000 10.267 C 7.835 10.267,7.771 10.280,7.659 10.336 " stroke="none" fill-rule="evenodd" fill="black"></path></svg>