<svg width="15" height="15" viewBox="0 0 15 15" xmlns="http://www.w3.org/2000/svg"><path d="M3.587 1.026 C 2.797 1.104,2.221 1.573,2.058 2.270 C 2.015 2.452,2.013 2.728,2.013 7.500 C 2.013 12.272,2.015 12.548,2.058 12.730 C 2.197 13.322,2.657 13.769,3.294 13.932 L 3.513 13.988 7.500 13.988 L 11.488 13.988 11.706 13.932 C 12.323 13.775,12.769 13.357,12.932 12.783 L 12.987 12.588 12.995 7.663 C 13.000 4.346,12.994 2.663,12.976 2.509 C 12.940 2.190,12.869 1.983,12.721 1.762 C 12.566 1.529,12.335 1.332,12.063 1.199 C 11.661 1.003,11.953 1.016,7.638 1.011 C 5.520 1.008,3.697 1.015,3.587 1.026 M11.388 2.022 C 11.672 2.086,11.929 2.350,11.967 2.619 C 11.994 2.806,11.994 12.194,11.967 12.381 C 11.929 12.644,11.713 12.881,11.430 12.969 C 11.297 13.010,11.044 13.013,7.500 13.013 C 3.985 13.013,3.702 13.009,3.573 12.969 C 3.331 12.894,3.120 12.698,3.045 12.478 C 3.002 12.355,2.983 3.083,3.025 2.726 C 3.055 2.457,3.116 2.328,3.269 2.201 C 3.461 2.043,3.550 2.017,3.974 1.998 C 4.642 1.969,11.245 1.990,11.388 2.022 M7.281 10.035 C 7.076 10.102,6.928 10.225,6.829 10.413 C 6.773 10.519,6.763 10.568,6.763 10.750 C 6.763 10.932,6.773 10.981,6.830 11.090 C 7.056 11.520,7.622 11.630,7.990 11.315 C 8.045 11.269,8.122 11.170,8.163 11.096 C 8.229 10.977,8.237 10.939,8.237 10.750 C 8.237 10.517,8.197 10.409,8.048 10.239 C 7.882 10.050,7.526 9.955,7.281 10.035 " stroke="none" fill-rule="evenodd" fill="black"></path></svg>