<svg width="16" height="16" viewBox="0 0 16 16" xmlns="http://www.w3.org/2000/svg"><path d="M10.267 1.066 C 10.215 1.094,9.133 2.158,7.862 3.432 C 5.769 5.528,5.548 5.758,5.520 5.863 C 5.420 6.244,5.756 6.580,6.137 6.480 C 6.242 6.452,6.436 6.267,8.127 4.578 L 10.000 2.707 10.000 6.254 C 9.999 10.516,9.979 11.123,9.814 11.724 C 9.699 12.142,9.465 12.532,9.102 12.909 C 8.573 13.457,7.993 13.765,7.248 13.892 C 6.751 13.976,6.035 14.000,3.920 14.001 C 2.024 14.001,1.900 14.004,1.799 14.050 C 1.579 14.150,1.457 14.387,1.515 14.604 C 1.560 14.770,1.615 14.844,1.757 14.928 L 1.880 15.000 3.413 15.008 C 4.954 15.016,6.618 14.982,7.040 14.933 C 8.208 14.797,8.987 14.432,9.761 13.655 C 10.504 12.911,10.807 12.258,10.933 11.133 C 10.991 10.610,11.012 9.273,11.013 6.027 L 11.013 2.734 12.847 4.566 C 14.742 6.460,14.793 6.505,15.000 6.505 C 15.197 6.505,15.447 6.304,15.482 6.119 C 15.509 5.975,15.479 5.821,15.403 5.711 C 15.365 5.657,14.317 4.597,13.074 3.354 C 11.490 1.772,10.784 1.083,10.714 1.054 C 10.581 0.999,10.381 1.004,10.267 1.066 " stroke="none" fill-rule="evenodd" fill="black"></path></svg>