<svg width="15" height="15" viewBox="0 0 15 15" xmlns="http://www.w3.org/2000/svg"><path d="M1.342 1.024 C 1.227 1.061,1.109 1.166,1.053 1.282 L 1.000 1.391 1.000 7.504 L 1.000 13.617 1.058 13.727 C 1.090 13.788,1.164 13.871,1.223 13.913 C 1.315 13.978,1.351 13.988,1.496 13.988 C 1.695 13.988,1.816 13.925,1.920 13.767 L 1.988 13.666 1.988 7.502 L 1.988 1.338 1.928 1.242 C 1.843 1.106,1.708 1.024,1.546 1.012 C 1.473 1.006,1.381 1.012,1.342 1.024 M13.342 1.024 C 13.227 1.061,13.109 1.166,13.053 1.282 L 13.000 1.391 13.000 7.504 L 13.000 13.617 13.058 13.727 C 13.090 13.788,13.164 13.871,13.223 13.913 C 13.315 13.978,13.351 13.988,13.496 13.988 C 13.695 13.988,13.816 13.925,13.920 13.767 L 13.988 13.666 13.988 7.502 L 13.988 1.338 13.928 1.242 C 13.843 1.106,13.708 1.024,13.546 1.012 C 13.473 1.006,13.381 1.012,13.342 1.024 M3.342 5.024 C 3.227 5.061,3.109 5.166,3.053 5.282 C 3.000 5.390,3.000 5.408,3.000 7.504 L 3.000 9.617 3.058 9.727 C 3.090 9.788,3.164 9.871,3.223 9.913 C 3.316 9.978,3.351 9.988,3.498 9.988 C 3.639 9.988,3.683 9.977,3.767 9.920 C 3.823 9.884,3.896 9.810,3.928 9.758 C 3.987 9.663,3.988 9.656,3.995 8.831 L 4.003 8.000 7.501 8.000 L 11.000 8.000 11.000 8.809 C 11.000 9.607,11.001 9.619,11.058 9.727 C 11.090 9.788,11.164 9.871,11.223 9.913 C 11.316 9.978,11.351 9.988,11.498 9.988 C 11.639 9.988,11.683 9.977,11.767 9.920 C 11.823 9.884,11.896 9.810,11.928 9.758 L 11.988 9.663 11.988 7.498 L 11.988 5.334 11.920 5.233 C 11.816 5.075,11.695 5.013,11.496 5.013 C 11.351 5.013,11.315 5.022,11.223 5.088 C 11.164 5.129,11.090 5.212,11.058 5.273 C 11.001 5.381,11.000 5.393,11.000 6.191 L 11.000 7.000 7.501 7.000 L 4.003 7.000 3.995 6.169 C 3.988 5.344,3.987 5.337,3.928 5.242 C 3.843 5.106,3.708 5.024,3.546 5.012 C 3.473 5.006,3.381 5.012,3.342 5.024 " stroke="none" fill-rule="evenodd" fill="black"></path></svg>