<svg width="15" height="15" viewBox="0 0 15 15" xmlns="http://www.w3.org/2000/svg"><path d="M1.342 1.025 C 1.152 1.083,1.000 1.295,1.000 1.504 C 1.000 1.655,1.089 1.818,1.223 1.913 L 1.329 1.988 7.496 1.988 L 13.663 1.988 13.758 1.928 C 13.810 1.896,13.884 1.823,13.920 1.767 C 13.976 1.683,13.988 1.638,13.988 1.500 C 13.988 1.362,13.976 1.317,13.920 1.233 C 13.884 1.177,13.810 1.104,13.758 1.072 L 13.663 1.012 7.538 1.008 C 4.169 1.006,1.381 1.014,1.342 1.025 M5.342 3.025 C 5.151 3.083,5.000 3.295,5.000 3.504 C 5.000 3.655,5.089 3.818,5.223 3.913 L 5.329 3.988 6.165 3.995 L 7.000 4.003 7.000 7.500 L 7.000 10.997 6.165 11.005 L 5.329 11.013 5.223 11.088 C 4.929 11.294,4.929 11.706,5.223 11.913 L 5.329 11.988 7.498 11.988 L 9.666 11.988 9.767 11.920 C 9.924 11.817,9.988 11.695,9.988 11.500 C 9.988 11.305,9.924 11.183,9.768 11.080 L 9.666 11.013 8.833 11.005 L 8.000 10.997 8.000 7.500 L 8.000 4.003 8.833 3.995 L 9.666 3.988 9.768 3.920 C 9.924 3.817,9.988 3.695,9.988 3.500 C 9.988 3.305,9.924 3.183,9.768 3.080 L 9.666 3.013 7.539 3.008 C 6.370 3.006,5.381 3.013,5.342 3.025 M1.342 13.025 C 1.152 13.083,1.000 13.295,1.000 13.504 C 1.000 13.655,1.089 13.818,1.223 13.913 L 1.329 13.988 7.496 13.988 L 13.663 13.988 13.758 13.928 C 13.810 13.896,13.884 13.823,13.920 13.767 C 13.976 13.683,13.988 13.638,13.988 13.500 C 13.988 13.362,13.976 13.317,13.920 13.233 C 13.884 13.177,13.810 13.104,13.758 13.072 L 13.663 13.013 7.538 13.008 C 4.169 13.006,1.381 13.014,1.342 13.025 " stroke="none" fill-rule="evenodd" fill="black"></path></svg>