<svg width="16" height="16" viewBox="0 0 16 16" xmlns="http://www.w3.org/2000/svg"><path d="M3.331 3.075 C 3.074 3.211,2.947 3.509,3.028 3.787 C 3.070 3.930,3.121 3.984,5.102 5.967 L 7.133 8.000 5.102 10.033 C 3.100 12.037,3.070 12.069,3.028 12.217 C 2.928 12.565,3.139 12.905,3.503 12.986 C 3.608 13.009,3.663 13.007,3.783 12.972 C 3.931 12.930,3.963 12.900,5.967 10.898 L 8.000 8.867 10.033 10.898 C 12.037 12.900,12.069 12.930,12.217 12.972 C 12.565 13.072,12.905 12.861,12.986 12.497 C 13.009 12.392,13.007 12.337,12.972 12.217 C 12.930 12.069,12.900 12.037,10.898 10.033 L 8.867 8.000 10.898 5.967 C 12.879 3.984,12.930 3.930,12.972 3.787 C 13.053 3.509,12.926 3.211,12.669 3.075 C 12.529 3.001,12.291 2.992,12.139 3.054 C 12.070 3.083,11.436 3.699,10.020 5.114 L 8.000 7.133 5.980 5.114 C 4.564 3.699,3.930 3.083,3.861 3.054 C 3.709 2.992,3.471 3.001,3.331 3.075 " stroke="none" fill-rule="evenodd" fill="black"></path></svg>