<svg width="16" height="16" viewBox="0 0 16 16" xmlns="http://www.w3.org/2000/svg"><path d="M4.440 1.506 C 4.425 1.511,4.377 1.523,4.333 1.533 C 4.273 1.546,3.853 1.950,2.659 3.142 C 1.205 4.594,1.062 4.744,1.027 4.860 C 0.996 4.966,0.995 5.008,1.025 5.121 C 1.103 5.424,1.409 5.573,1.701 5.452 C 1.768 5.424,2.152 5.059,2.900 4.313 L 4.000 3.214 4.001 8.654 C 4.001 13.873,4.003 14.098,4.050 14.201 C 4.150 14.421,4.387 14.543,4.604 14.485 C 4.770 14.440,4.844 14.385,4.928 14.243 L 5.000 14.120 5.013 8.673 L 5.027 3.226 6.120 4.323 C 6.733 4.937,7.251 5.435,7.299 5.456 C 7.596 5.585,7.957 5.377,7.993 5.057 C 8.021 4.808,8.055 4.848,6.404 3.191 C 5.558 2.343,4.819 1.622,4.760 1.588 C 4.658 1.529,4.497 1.488,4.440 1.506 M11.396 1.519 C 11.259 1.551,11.135 1.644,11.066 1.765 L 11.000 1.880 10.987 7.327 L 10.973 12.774 9.893 11.692 C 9.299 11.097,8.769 10.587,8.714 10.558 C 8.313 10.349,7.852 10.797,8.049 11.205 C 8.089 11.286,8.570 11.783,9.673 12.882 C 11.317 14.522,11.302 14.508,11.523 14.506 C 11.690 14.505,11.811 14.394,13.379 12.823 C 14.834 11.364,14.959 11.232,14.975 11.133 C 14.984 11.075,14.991 11.015,14.991 11.000 C 14.991 10.644,14.632 10.410,14.299 10.548 C 14.232 10.576,13.848 10.941,13.100 11.687 L 12.000 12.786 12.000 7.352 C 12.000 1.442,12.009 1.819,11.859 1.658 C 11.746 1.537,11.557 1.481,11.396 1.519 " stroke="none" fill-rule="evenodd" fill="black"></path></svg>