<svg width="16" height="16" viewBox="0 0 16 16" xmlns="http://www.w3.org/2000/svg"><path d="M1.293 1.044 C 1.218 1.086,1.094 1.204,1.060 1.266 C 0.930 1.507,1.040 1.836,1.290 1.949 C 1.396 1.997,1.611 1.999,8.000 1.999 C 14.389 1.999,14.604 1.997,14.710 1.949 C 14.960 1.836,15.070 1.507,14.940 1.266 C 14.896 1.186,14.769 1.073,14.685 1.042 C 14.577 1.001,1.368 1.003,1.293 1.044 M3.302 4.028 C 2.831 4.070,2.498 4.177,2.160 4.395 C 1.756 4.655,1.460 4.987,1.265 5.400 C 1.024 5.911,1.002 6.135,1.002 8.000 C 1.002 9.865,1.024 10.089,1.265 10.600 C 1.589 11.286,2.213 11.771,2.987 11.938 C 3.201 11.984,3.464 11.987,8.000 11.987 C 12.536 11.987,12.799 11.984,13.013 11.938 C 13.904 11.746,14.616 11.106,14.874 10.267 C 14.989 9.888,15.000 9.700,15.000 8.000 C 15.000 6.300,14.989 6.112,14.874 5.733 C 14.616 4.893,13.889 4.242,13.009 4.062 C 12.805 4.021,12.394 4.016,8.160 4.012 C 5.615 4.009,3.429 4.016,3.302 4.028 M12.782 5.042 C 13.331 5.125,13.826 5.592,13.951 6.147 C 14.003 6.379,14.003 9.621,13.951 9.853 C 13.826 10.405,13.333 10.872,12.773 10.966 C 12.482 11.015,3.518 11.015,3.227 10.966 C 2.806 10.895,2.386 10.593,2.191 10.221 C 2.021 9.895,2.015 9.825,2.015 8.000 C 2.015 6.175,2.021 6.105,2.191 5.779 C 2.302 5.567,2.578 5.293,2.796 5.177 C 2.892 5.126,3.048 5.072,3.156 5.053 C 3.409 5.007,12.481 4.997,12.782 5.042 " stroke="none" fill-rule="evenodd" fill="black"></path></svg>