<svg width="16" height="16" viewBox="0 0 16 16" xmlns="http://www.w3.org/2000/svg"><path d="M7.717 5.064 C 7.656 5.092,7.554 5.167,7.488 5.230 C 7.193 5.520,3.180 9.752,3.126 9.830 C 3.093 9.878,3.047 9.991,3.024 10.080 C 2.955 10.351,3.040 10.614,3.260 10.818 C 3.463 11.005,3.729 11.048,3.992 10.934 C 4.115 10.882,4.348 10.646,6.057 8.851 C 7.117 7.737,7.991 6.827,8.000 6.827 C 8.009 6.827,8.883 7.737,9.943 8.851 C 12.064 11.079,11.972 10.995,12.293 10.995 C 12.473 10.994,12.600 10.943,12.746 10.811 C 12.959 10.618,13.044 10.348,12.976 10.080 C 12.953 9.991,12.907 9.878,12.874 9.830 C 12.820 9.752,8.807 5.520,8.512 5.230 C 8.350 5.072,8.213 5.015,8.000 5.015 C 7.888 5.015,7.788 5.032,7.717 5.064 " stroke="none" fill-rule="evenodd" fill="black"></path></svg>