<svg width="15" height="15" viewBox="0 0 15 15" xmlns="http://www.w3.org/2000/svg"><path d="M7.286 1.062 C 7.190 1.110,6.485 1.802,4.108 4.181 C 1.295 6.996,1.051 7.246,1.024 7.350 C 0.920 7.748,1.252 8.080,1.650 7.976 C 1.753 7.949,1.974 7.735,4.381 5.330 L 7.000 2.713 7.000 8.165 L 7.000 13.617 7.058 13.727 C 7.090 13.788,7.164 13.871,7.223 13.913 C 7.315 13.978,7.351 13.988,7.496 13.988 C 7.695 13.988,7.816 13.925,7.920 13.767 L 7.988 13.666 7.994 8.190 L 8.000 2.714 10.619 5.330 C 13.026 7.735,13.247 7.949,13.350 7.976 C 13.746 8.080,14.080 7.746,13.976 7.350 C 13.949 7.246,13.705 6.996,10.892 4.181 C 8.515 1.802,7.810 1.110,7.714 1.062 C 7.557 0.984,7.443 0.984,7.286 1.062 " stroke="none" fill-rule="evenodd" fill="black"></path></svg>