<svg width="16" height="16" viewBox="0 0 16 16" xmlns="http://www.w3.org/2000/svg"><path d="M3.320 1.032 C 2.822 1.079,2.468 1.194,2.128 1.421 C 1.633 1.751,1.286 2.207,1.137 2.723 C 0.999 3.199,1.000 3.172,1.000 8.000 C 1.000 12.828,0.999 12.801,1.137 13.277 C 1.348 14.010,1.990 14.652,2.723 14.863 C 3.199 15.001,3.172 15.000,8.000 15.000 C 12.828 15.000,12.801 15.001,13.277 14.863 C 14.010 14.652,14.652 14.010,14.863 13.277 C 15.001 12.801,15.000 12.828,15.000 8.000 C 15.000 3.172,15.001 3.199,14.863 2.723 C 14.629 1.911,13.898 1.252,13.036 1.075 C 12.831 1.033,12.435 1.029,8.120 1.026 C 5.539 1.023,3.379 1.026,3.320 1.032 M12.515 2.027 C 13.038 2.070,13.265 2.161,13.553 2.443 C 13.834 2.720,13.932 2.966,13.973 3.502 C 14.009 3.974,14.009 12.025,13.973 12.498 C 13.928 13.095,13.805 13.357,13.427 13.670 C 13.245 13.821,13.115 13.881,12.851 13.938 C 12.639 13.984,12.368 13.987,8.000 13.987 C 3.619 13.987,3.361 13.984,3.147 13.938 C 2.860 13.876,2.660 13.770,2.469 13.578 C 2.160 13.267,2.071 13.052,2.027 12.515 C 1.990 12.059,1.990 3.941,2.027 3.485 C 2.069 2.969,2.159 2.741,2.432 2.457 C 2.693 2.186,2.970 2.067,3.434 2.029 C 3.830 1.996,12.114 1.995,12.515 2.027 M3.290 4.051 C 3.039 4.165,2.930 4.492,3.061 4.737 C 3.106 4.819,3.270 4.956,3.354 4.980 C 3.449 5.006,12.551 5.006,12.646 4.980 C 12.730 4.956,12.894 4.819,12.939 4.737 C 13.070 4.492,12.961 4.165,12.710 4.051 C 12.604 4.003,12.436 4.001,8.000 4.001 C 3.564 4.001,3.396 4.003,3.290 4.051 " stroke="none" fill-rule="evenodd" fill="black"></path></svg>