<svg width="16" height="16" viewBox="0 0 16 16" xmlns="http://www.w3.org/2000/svg"><path d="M6.515 1.043 C 6.038 1.122,5.560 1.454,5.298 1.887 C 5.098 2.216,5.046 2.500,5.021 3.407 L 5.005 4.000 3.203 4.001 C 1.500 4.001,1.394 4.004,1.290 4.051 C 1.230 4.078,1.150 4.141,1.112 4.191 C 1.046 4.278,0.981 4.481,1.000 4.543 C 1.005 4.560,1.016 4.606,1.025 4.646 C 1.045 4.737,1.181 4.894,1.291 4.955 C 1.362 4.994,1.482 5.001,2.178 5.008 L 2.983 5.017 2.994 8.808 C 3.006 12.820,3.006 12.806,3.135 13.267 C 3.343 14.005,3.985 14.650,4.723 14.863 C 5.176 14.994,5.322 15.000,8.000 15.000 C 10.678 15.000,10.824 14.994,11.277 14.863 C 12.015 14.650,12.657 14.005,12.865 13.267 C 12.994 12.807,12.994 12.819,13.006 8.808 L 13.017 5.017 13.822 5.008 C 14.518 5.001,14.638 4.994,14.709 4.955 C 14.819 4.894,14.955 4.737,14.975 4.646 C 14.984 4.606,14.995 4.560,15.000 4.543 C 15.019 4.481,14.954 4.278,14.888 4.191 C 14.850 4.141,14.770 4.078,14.710 4.051 C 14.606 4.004,14.501 4.001,12.807 4.001 L 11.013 4.000 11.013 3.379 C 11.013 2.691,10.986 2.391,10.901 2.165 C 10.757 1.777,10.401 1.389,10.017 1.199 C 9.654 1.021,9.570 1.013,8.018 1.016 C 7.267 1.018,6.591 1.030,6.515 1.043 M9.533 2.075 C 9.692 2.148,9.849 2.293,9.929 2.440 C 9.983 2.541,9.987 2.587,9.995 3.273 L 10.003 4.000 8.005 4.000 L 6.007 4.000 6.016 3.887 C 6.021 3.824,6.031 3.527,6.038 3.227 C 6.045 2.926,6.064 2.638,6.079 2.586 C 6.158 2.313,6.430 2.067,6.698 2.026 C 6.776 2.015,7.416 2.007,8.120 2.009 C 9.395 2.013,9.401 2.014,9.533 2.075 M12.000 8.580 C 12.000 10.717,11.989 12.287,11.973 12.498 C 11.931 13.049,11.843 13.263,11.531 13.578 C 11.340 13.770,11.140 13.876,10.853 13.938 C 10.642 13.983,10.444 13.987,8.000 13.987 C 5.556 13.987,5.358 13.983,5.147 13.938 C 4.860 13.876,4.660 13.770,4.469 13.578 C 4.160 13.267,4.071 13.052,4.027 12.515 C 4.010 12.308,4.000 10.806,4.000 8.596 L 4.000 5.013 8.000 5.013 L 12.000 5.013 12.000 8.580 M6.280 7.058 C 6.156 7.123,6.103 7.177,6.050 7.293 C 6.004 7.394,6.001 7.519,6.001 9.480 C 6.000 10.800,6.010 11.595,6.027 11.657 C 6.068 11.803,6.256 11.965,6.413 11.988 C 6.688 12.029,6.929 11.862,6.985 11.593 C 7.006 11.494,7.013 10.829,7.007 9.412 C 7.001 7.571,6.996 7.366,6.956 7.293 C 6.897 7.188,6.778 7.077,6.685 7.042 C 6.576 7.001,6.373 7.009,6.280 7.058 M9.307 7.043 C 9.220 7.077,9.100 7.192,9.044 7.293 C 9.004 7.366,8.999 7.571,8.993 9.412 C 8.987 10.829,8.994 11.494,9.015 11.593 C 9.071 11.862,9.312 12.029,9.587 11.988 C 9.744 11.965,9.932 11.803,9.973 11.657 C 9.990 11.596,10.000 10.800,10.000 9.486 C 10.000 7.272,10.002 7.308,9.872 7.165 C 9.753 7.033,9.480 6.974,9.307 7.043 " stroke="none" fill-rule="evenodd" fill="black"></path></svg>