<svg width="16" height="16" viewBox="0 0 16 16" xmlns="http://www.w3.org/2000/svg"><path d="M3.730 1.090 C 3.397 1.301,3.436 1.785,3.799 1.950 C 3.902 1.997,4.086 1.999,8.000 1.999 C 11.914 1.999,12.098 1.997,12.201 1.950 C 12.564 1.785,12.603 1.301,12.270 1.090 L 12.150 1.013 8.000 1.013 L 3.850 1.013 3.730 1.090 M1.396 3.519 C 1.259 3.551,1.135 3.644,1.066 3.765 L 1.000 3.880 1.000 8.000 L 1.000 12.120 1.072 12.243 C 1.156 12.385,1.230 12.440,1.396 12.485 C 1.613 12.543,1.850 12.421,1.950 12.201 C 1.997 12.098,1.999 11.914,1.999 8.006 C 2.000 3.565,2.008 3.818,1.859 3.658 C 1.746 3.537,1.557 3.481,1.396 3.519 M14.440 3.506 C 14.425 3.511,14.381 3.522,14.342 3.531 C 14.239 3.554,14.106 3.675,14.050 3.799 C 14.003 3.902,14.001 4.086,14.001 8.000 C 14.001 11.914,14.003 12.098,14.050 12.201 C 14.150 12.421,14.387 12.543,14.604 12.485 C 14.770 12.440,14.844 12.385,14.928 12.243 L 15.000 12.120 15.000 8.000 L 15.000 3.880 14.929 3.760 C 14.888 3.689,14.816 3.616,14.756 3.583 C 14.656 3.528,14.494 3.489,14.440 3.506 M5.912 4.029 C 5.648 4.055,5.422 4.109,5.237 4.188 C 4.793 4.378,4.323 4.865,4.159 5.302 C 4.013 5.693,4.013 5.681,4.013 8.000 C 4.013 10.319,4.013 10.307,4.159 10.698 C 4.334 11.166,4.824 11.653,5.303 11.836 C 5.692 11.985,5.723 11.987,8.000 11.987 C 9.649 11.987,10.136 11.979,10.293 11.950 C 11.139 11.797,11.797 11.139,11.950 10.293 C 12.003 10.002,12.003 5.998,11.950 5.707 C 11.870 5.262,11.662 4.884,11.325 4.568 C 11.033 4.295,10.708 4.131,10.304 4.051 C 10.110 4.013,6.265 3.994,5.912 4.029 M10.333 5.091 C 10.554 5.180,10.820 5.446,10.909 5.667 L 10.973 5.827 10.973 8.000 L 10.973 10.173 10.909 10.333 C 10.819 10.559,10.553 10.823,10.334 10.904 C 10.098 10.992,9.682 11.011,8.000 11.011 C 6.318 11.011,5.902 10.992,5.666 10.904 C 5.447 10.823,5.181 10.559,5.091 10.333 L 5.027 10.173 5.027 8.000 L 5.027 5.827 5.089 5.672 C 5.213 5.365,5.542 5.095,5.857 5.041 C 5.928 5.029,6.929 5.020,8.080 5.023 L 10.173 5.027 10.333 5.091 M3.799 14.050 C 3.579 14.150,3.457 14.387,3.515 14.604 C 3.560 14.770,3.615 14.844,3.757 14.928 L 3.880 15.000 8.000 15.000 L 12.120 15.000 12.243 14.928 C 12.385 14.844,12.440 14.770,12.485 14.604 C 12.543 14.387,12.421 14.150,12.201 14.050 C 12.098 14.003,11.914 14.001,8.000 14.001 C 4.086 14.001,3.902 14.003,3.799 14.050 " stroke="none" fill-rule="evenodd" fill="black"></path></svg>