<svg width="12" height="12" viewBox="0 0 12 12" xmlns="http://www.w3.org/2000/svg"><path d="M4.483 0.022 C 4.083 0.058,3.785 0.185,3.522 0.432 C 3.157 0.775,3.030 1.089,3.006 1.705 L 2.994 2.000 1.709 2.000 C 0.316 2.000,0.334 1.999,0.187 2.111 C 0.151 2.139,0.096 2.204,0.065 2.256 C 0.018 2.336,0.010 2.372,0.010 2.500 C 0.010 2.628,0.018 2.664,0.065 2.744 C 0.096 2.796,0.151 2.861,0.187 2.889 C 0.321 2.991,0.382 3.000,0.962 3.000 L 1.499 3.000 1.506 6.515 C 1.514 10.395,1.507 10.187,1.641 10.585 C 1.744 10.893,1.913 11.153,2.167 11.395 C 2.509 11.719,2.834 11.876,3.325 11.954 C 3.532 11.987,3.745 11.990,6.000 11.990 C 8.255 11.990,8.468 11.987,8.675 11.954 C 9.158 11.878,9.489 11.719,9.822 11.406 C 10.077 11.165,10.257 10.889,10.359 10.585 C 10.493 10.187,10.486 10.395,10.494 6.515 L 10.501 3.000 11.037 3.000 C 11.654 3.000,11.712 2.989,11.851 2.851 C 12.046 2.655,12.046 2.345,11.851 2.149 C 11.697 1.996,11.738 2.000,10.289 2.000 L 9.006 2.000 8.994 1.705 C 8.982 1.384,8.943 1.155,8.869 0.975 C 8.743 0.662,8.441 0.341,8.133 0.190 C 7.911 0.081,7.780 0.047,7.480 0.021 C 7.207 -0.003,4.755 -0.002,4.483 0.022 M7.590 1.039 C 7.706 1.076,7.832 1.174,7.899 1.279 C 7.964 1.380,8.000 1.586,8.000 1.854 L 8.000 2.000 6.000 2.000 L 4.000 2.000 4.000 1.854 C 4.000 1.581,4.036 1.380,4.104 1.274 C 4.165 1.178,4.286 1.080,4.380 1.049 C 4.499 1.011,4.768 1.005,6.100 1.009 C 7.191 1.012,7.528 1.019,7.590 1.039 M9.494 6.475 C 9.488 9.572,9.483 9.967,9.455 10.107 C 9.417 10.293,9.351 10.434,9.242 10.566 C 9.066 10.778,8.870 10.898,8.610 10.955 C 8.463 10.987,8.251 10.990,6.000 10.990 C 3.743 10.990,3.537 10.987,3.390 10.955 C 3.130 10.898,2.934 10.777,2.758 10.566 C 2.649 10.434,2.583 10.293,2.545 10.107 C 2.517 9.967,2.512 9.572,2.506 6.475 L 2.498 3.000 6.000 3.000 L 9.502 3.000 9.494 6.475 M4.332 5.031 C 4.218 5.073,4.128 5.149,4.065 5.256 L 4.010 5.350 4.005 6.949 C 3.999 8.685,3.996 8.639,4.109 8.786 C 4.137 8.823,4.207 8.880,4.265 8.911 C 4.532 9.059,4.868 8.928,4.971 8.638 C 4.995 8.568,5.000 8.312,5.000 6.991 C 5.000 5.229,5.006 5.305,4.851 5.149 C 4.714 5.013,4.509 4.967,4.332 5.031 M7.332 5.031 C 7.218 5.073,7.128 5.149,7.065 5.256 L 7.010 5.350 7.005 6.949 C 6.999 8.685,6.996 8.639,7.109 8.786 C 7.137 8.823,7.207 8.880,7.265 8.911 C 7.532 9.059,7.868 8.928,7.971 8.638 C 7.995 8.568,8.000 8.312,8.000 6.991 C 8.000 5.229,8.006 5.305,7.851 5.149 C 7.714 5.013,7.509 4.967,7.332 5.031 " stroke="none" fill-rule="evenodd" fill="black"></path></svg>