<svg width="16" height="16" viewBox="0 0 16 16" xmlns="http://www.w3.org/2000/svg"><path d="M3.320 1.032 C 3.055 1.057,2.726 1.127,2.546 1.197 C 2.004 1.407,1.438 1.952,1.232 2.463 C 1.152 2.660,1.080 3.009,1.038 3.400 C 1.016 3.606,1.003 4.808,0.994 7.424 C 0.979 12.138,1.001 12.822,1.183 13.395 C 1.335 13.876,1.746 14.366,2.239 14.656 C 2.623 14.881,2.930 14.950,3.720 14.989 C 4.547 15.028,12.519 15.006,12.813 14.963 C 13.445 14.871,13.868 14.663,14.289 14.237 C 14.721 13.800,14.885 13.393,14.965 12.560 C 15.016 12.035,15.016 3.988,14.965 3.462 C 14.922 3.020,14.855 2.679,14.768 2.462 C 14.562 1.952,13.996 1.407,13.455 1.197 C 13.000 1.020,13.303 1.030,8.120 1.026 C 5.539 1.023,3.379 1.026,3.320 1.032 M12.515 2.027 C 13.038 2.070,13.265 2.161,13.553 2.443 C 13.819 2.705,13.892 2.882,13.952 3.410 C 14.003 3.862,14.003 12.138,13.952 12.590 C 13.896 13.089,13.825 13.275,13.602 13.510 C 13.369 13.757,13.171 13.869,12.851 13.938 C 12.639 13.984,12.368 13.987,8.000 13.987 C 3.619 13.987,3.361 13.984,3.147 13.938 C 2.859 13.876,2.663 13.771,2.464 13.573 C 2.128 13.238,2.074 13.067,2.026 12.173 C 1.985 11.431,2.006 3.678,2.050 3.360 C 2.117 2.866,2.198 2.681,2.457 2.432 C 2.730 2.170,2.980 2.066,3.429 2.029 C 3.829 1.996,12.112 1.995,12.515 2.027 M5.799 4.050 C 5.579 4.150,5.457 4.387,5.515 4.604 C 5.560 4.770,5.615 4.844,5.757 4.928 L 5.880 5.000 8.000 5.000 L 10.120 5.000 10.243 4.928 C 10.385 4.844,10.440 4.770,10.485 4.604 C 10.543 4.387,10.421 4.150,10.201 4.050 C 10.099 4.004,9.974 4.001,8.000 4.001 C 6.026 4.001,5.901 4.004,5.799 4.050 M4.440 5.506 C 4.425 5.511,4.381 5.522,4.342 5.531 C 4.239 5.554,4.106 5.675,4.050 5.799 C 4.004 5.901,4.001 6.026,4.001 8.000 C 4.001 9.974,4.004 10.099,4.050 10.201 C 4.150 10.421,4.387 10.543,4.604 10.485 C 4.770 10.440,4.844 10.385,4.928 10.243 L 5.000 10.120 5.000 8.000 L 5.000 5.880 4.929 5.760 C 4.888 5.689,4.816 5.616,4.756 5.583 C 4.656 5.528,4.494 5.489,4.440 5.506 M11.396 5.519 C 11.259 5.551,11.135 5.644,11.066 5.765 L 11.000 5.880 11.000 8.000 L 11.000 10.120 11.072 10.243 C 11.156 10.385,11.230 10.440,11.396 10.485 C 11.613 10.543,11.850 10.421,11.950 10.201 C 11.996 10.100,11.999 9.973,11.999 8.006 C 12.000 5.748,12.004 5.813,11.859 5.658 C 11.746 5.537,11.557 5.481,11.396 5.519 M5.730 11.090 C 5.397 11.301,5.436 11.785,5.799 11.950 C 5.901 11.996,6.026 11.999,8.000 11.999 C 9.974 11.999,10.099 11.996,10.201 11.950 C 10.564 11.785,10.603 11.301,10.270 11.090 L 10.150 11.013 8.000 11.013 L 5.850 11.013 5.730 11.090 " stroke="none" fill-rule="evenodd" fill="black"></path></svg>