<svg width="16" height="16" viewBox="0 0 16 16" xmlns="http://www.w3.org/2000/svg"><path d="M7.594 1.055 C 7.302 1.125,6.978 1.326,6.760 1.570 C 6.522 1.837,6.379 2.202,6.356 2.600 C 6.333 3.004,6.262 3.131,6.011 3.225 C 5.738 3.327,5.589 3.290,5.325 3.053 C 4.996 2.757,4.538 2.594,4.113 2.623 C 3.381 2.672,2.797 3.161,2.613 3.882 C 2.480 4.402,2.621 4.954,2.997 5.381 C 3.224 5.639,3.265 5.779,3.184 6.017 C 3.088 6.300,2.946 6.394,2.565 6.428 C 2.088 6.470,1.787 6.606,1.480 6.918 C 1.171 7.231,1.011 7.609,1.007 8.040 C 1.004 8.340,1.043 8.512,1.179 8.800 C 1.267 8.985,1.327 9.066,1.503 9.240 C 1.831 9.562,2.139 9.694,2.635 9.725 C 2.873 9.739,2.925 9.751,3.026 9.816 C 3.211 9.933,3.297 10.155,3.248 10.385 C 3.230 10.472,3.179 10.553,3.050 10.698 C 2.720 11.070,2.587 11.408,2.587 11.871 C 2.587 12.611,3.066 13.236,3.801 13.456 C 4.016 13.521,4.437 13.521,4.653 13.456 C 4.895 13.384,5.153 13.238,5.339 13.068 C 5.554 12.872,5.643 12.827,5.819 12.827 C 6.154 12.829,6.398 13.070,6.399 13.402 C 6.400 13.601,6.491 13.925,6.606 14.139 C 6.789 14.480,7.149 14.788,7.502 14.905 C 8.122 15.111,8.739 14.967,9.203 14.508 C 9.501 14.212,9.652 13.878,9.692 13.427 C 9.720 13.116,9.733 13.069,9.819 12.971 C 9.930 12.845,10.077 12.773,10.227 12.773 C 10.382 12.773,10.467 12.818,10.718 13.032 C 11.272 13.504,11.948 13.592,12.587 13.274 C 12.811 13.162,13.154 12.824,13.274 12.595 C 13.462 12.240,13.514 11.793,13.414 11.403 C 13.346 11.136,13.232 10.926,13.034 10.701 C 12.765 10.394,12.721 10.234,12.838 9.982 C 12.935 9.774,13.057 9.704,13.368 9.678 C 13.688 9.651,13.838 9.614,14.067 9.505 C 14.963 9.079,15.272 7.938,14.716 7.106 C 14.643 6.997,14.522 6.854,14.446 6.788 C 14.162 6.539,13.725 6.374,13.349 6.373 C 12.957 6.372,12.739 6.157,12.739 5.773 C 12.739 5.607,12.763 5.560,12.976 5.316 C 13.279 4.969,13.412 4.618,13.413 4.173 C 13.413 3.802,13.299 3.467,13.073 3.177 C 12.479 2.411,11.393 2.320,10.665 2.976 C 10.556 3.074,10.428 3.170,10.381 3.190 C 10.188 3.272,9.917 3.206,9.781 3.044 C 9.691 2.937,9.661 2.836,9.644 2.572 C 9.625 2.299,9.523 1.974,9.391 1.771 C 9.171 1.432,8.768 1.142,8.393 1.053 C 8.187 1.005,7.797 1.005,7.594 1.055 M8.295 1.986 C 8.592 2.137,8.689 2.292,8.722 2.670 C 8.734 2.819,8.765 3.008,8.788 3.090 C 8.939 3.613,9.367 4.007,9.907 4.120 C 10.140 4.169,10.233 4.169,10.460 4.121 C 10.715 4.067,10.948 3.947,11.156 3.764 C 11.384 3.563,11.490 3.512,11.711 3.498 C 12.131 3.473,12.463 3.788,12.463 4.213 C 12.463 4.435,12.402 4.574,12.203 4.800 C 11.851 5.202,11.741 5.654,11.869 6.183 C 11.941 6.482,12.027 6.639,12.240 6.856 C 12.516 7.137,12.764 7.244,13.236 7.283 C 13.604 7.313,13.750 7.371,13.902 7.549 C 14.098 7.777,14.133 8.071,13.998 8.341 C 13.856 8.626,13.678 8.731,13.280 8.761 C 12.964 8.784,12.749 8.849,12.542 8.983 C 12.239 9.179,12.060 9.406,11.942 9.745 C 11.767 10.249,11.884 10.784,12.262 11.207 C 12.455 11.424,12.505 11.540,12.506 11.773 C 12.507 12.189,12.207 12.505,11.811 12.506 C 11.587 12.507,11.442 12.444,11.226 12.254 C 10.905 11.972,10.622 11.860,10.227 11.860 C 9.854 11.860,9.529 11.984,9.254 12.231 C 8.953 12.501,8.813 12.820,8.776 13.321 C 8.750 13.668,8.703 13.780,8.517 13.944 C 8.286 14.147,8.005 14.180,7.715 14.038 C 7.453 13.911,7.350 13.724,7.311 13.307 C 7.296 13.142,7.260 12.961,7.225 12.867 C 7.097 12.521,6.834 12.232,6.499 12.067 C 5.918 11.781,5.333 11.859,4.833 12.290 C 4.603 12.487,4.509 12.536,4.319 12.553 C 4.120 12.571,3.933 12.509,3.779 12.372 C 3.609 12.223,3.537 12.059,3.538 11.827 C 3.539 11.602,3.584 11.490,3.744 11.310 C 4.033 10.984,4.158 10.707,4.179 10.347 C 4.203 9.923,4.054 9.528,3.758 9.236 C 3.474 8.955,3.198 8.839,2.731 8.803 C 2.571 8.790,2.410 8.768,2.373 8.753 C 2.235 8.696,2.091 8.564,2.013 8.425 C 1.943 8.297,1.933 8.254,1.934 8.067 C 1.934 7.810,1.988 7.688,2.176 7.523 C 2.320 7.396,2.500 7.333,2.719 7.333 C 3.073 7.333,3.451 7.161,3.717 6.879 C 4.096 6.477,4.234 5.895,4.067 5.398 C 3.988 5.162,3.906 5.025,3.725 4.827 C 3.540 4.624,3.467 4.457,3.467 4.240 C 3.467 3.826,3.772 3.521,4.187 3.521 C 4.408 3.521,4.545 3.582,4.752 3.774 C 5.165 4.157,5.652 4.277,6.200 4.132 C 6.482 4.058,6.643 3.967,6.839 3.771 C 7.120 3.490,7.237 3.206,7.277 2.698 C 7.298 2.436,7.312 2.379,7.378 2.271 C 7.458 2.142,7.651 1.992,7.796 1.947 C 7.916 1.911,8.187 1.932,8.295 1.986 M7.493 5.652 C 6.764 5.806,6.135 6.308,5.815 6.991 C 5.643 7.358,5.589 7.607,5.590 8.027 C 5.592 8.410,5.633 8.622,5.769 8.961 C 6.041 9.632,6.668 10.177,7.400 10.377 C 7.706 10.460,8.294 10.460,8.600 10.377 C 9.069 10.249,9.557 9.941,9.846 9.590 C 10.101 9.279,10.240 9.006,10.352 8.593 C 10.433 8.294,10.433 7.781,10.352 7.457 C 10.076 6.352,9.111 5.596,7.987 5.602 C 7.838 5.603,7.620 5.625,7.493 5.652 M8.413 6.575 C 9.047 6.756,9.493 7.348,9.493 8.009 C 9.493 8.416,9.360 8.764,9.095 9.047 C 8.798 9.365,8.434 9.523,8.000 9.523 C 7.566 9.523,7.202 9.365,6.905 9.047 C 6.404 8.512,6.369 7.665,6.823 7.092 C 7.206 6.610,7.827 6.408,8.413 6.575 " stroke="none" fill-rule="evenodd" fill="black"></path></svg>