<svg width="16" height="16" viewBox="0 0 16 16" xmlns="http://www.w3.org/2000/svg"><path d="M3.387 1.044 C 2.855 1.100,2.446 1.254,2.061 1.544 C 1.587 1.901,1.260 2.382,1.124 2.920 C 1.001 3.408,1.000 3.443,1.000 8.000 C 1.000 12.557,1.001 12.592,1.124 13.080 C 1.339 13.932,2.069 14.662,2.920 14.876 C 3.409 14.999,3.444 15.000,8.000 15.000 C 12.552 15.000,12.588 14.999,13.080 14.877 C 13.912 14.670,14.670 13.912,14.877 13.080 C 14.999 12.588,15.000 12.552,15.000 8.000 C 15.000 3.443,14.999 3.408,14.876 2.920 C 14.740 2.382,14.413 1.901,13.939 1.544 C 13.540 1.244,13.147 1.100,12.564 1.041 C 12.222 1.007,3.719 1.009,3.387 1.044 M12.320 2.027 C 12.934 2.073,13.184 2.172,13.506 2.494 C 13.831 2.819,13.928 3.069,13.973 3.693 C 14.009 4.193,14.009 11.807,13.973 12.307 C 13.958 12.512,13.928 12.751,13.906 12.837 C 13.808 13.221,13.483 13.617,13.119 13.796 C 12.710 13.997,13.001 13.987,8.000 13.987 C 2.999 13.987,3.290 13.997,2.881 13.796 C 2.613 13.664,2.335 13.385,2.201 13.114 C 2.004 12.715,2.014 12.992,2.014 8.000 C 2.014 3.903,2.018 3.515,2.059 3.307 C 2.125 2.979,2.258 2.730,2.490 2.498 C 2.805 2.183,3.074 2.071,3.616 2.030 C 4.047 1.997,11.885 1.994,12.320 2.027 M3.282 3.060 C 3.232 3.086,3.154 3.153,3.109 3.209 L 3.027 3.312 3.019 4.659 C 3.012 5.991,3.013 6.008,3.069 6.125 C 3.154 6.300,3.299 6.387,3.507 6.387 C 3.714 6.387,3.860 6.300,3.943 6.127 C 3.998 6.014,4.000 5.974,4.000 5.005 L 4.000 4.000 5.005 4.000 C 5.974 4.000,6.014 3.998,6.127 3.943 C 6.408 3.807,6.490 3.415,6.286 3.182 C 6.135 3.010,6.166 3.013,4.701 3.013 C 3.490 3.013,3.365 3.018,3.282 3.060 M12.271 9.656 C 12.205 9.689,12.125 9.760,12.084 9.822 L 12.013 9.929 12.006 10.965 L 11.998 12.000 10.994 12.000 C 10.026 12.000,9.986 12.002,9.873 12.057 C 9.700 12.140,9.613 12.286,9.613 12.493 C 9.613 12.701,9.700 12.846,9.875 12.931 C 9.992 12.987,10.009 12.988,11.341 12.981 L 12.688 12.973 12.791 12.892 C 12.847 12.847,12.917 12.763,12.947 12.705 C 12.998 12.604,13.000 12.547,13.000 11.293 C 13.000 10.039,12.998 9.982,12.947 9.882 C 12.818 9.629,12.520 9.529,12.271 9.656 " stroke="none" fill-rule="evenodd" fill="black"></path></svg>