<svg width="17" height="17" viewBox="0 0 17 17" xmlns="http://www.w3.org/2000/svg"><path d="M7.990 3.513 L 7.990 5.015 5.497 5.015 L 3.003 5.015 3.003 6.007 L 3.003 6.998 5.497 6.998 L 7.990 6.998 7.990 8.500 L 7.990 10.002 6.488 10.002 L 4.986 10.002 4.993 11.000 L 5.001 11.999 6.495 12.007 L 7.989 12.014 7.997 13.508 L 8.004 15.002 8.500 15.002 L 8.996 15.002 9.003 13.508 L 9.011 12.014 10.505 12.007 L 11.999 11.999 12.007 11.000 L 12.014 10.002 10.512 10.002 L 9.010 10.002 9.010 8.500 L 9.010 6.998 11.503 6.998 L 13.997 6.998 13.997 6.007 L 13.997 5.015 11.503 5.015 L 9.010 5.015 9.010 3.513 L 9.010 2.012 8.500 2.012 L 7.990 2.012 7.990 3.513 " stroke="none" fill-rule="evenodd" fill="black"></path></svg>