<svg width="16" height="16" viewBox="0 0 16 16" xmlns="http://www.w3.org/2000/svg"><path d="M10.347 1.051 C 9.647 1.176,9.014 1.455,8.489 1.871 C 8.167 2.127,7.103 3.195,7.054 3.312 C 6.881 3.730,7.260 4.142,7.674 3.986 C 7.777 3.947,7.924 3.816,8.467 3.281 C 8.861 2.892,9.204 2.577,9.307 2.510 C 10.042 2.030,10.929 1.886,11.773 2.107 C 12.025 2.173,12.460 2.375,12.694 2.533 C 12.911 2.681,13.223 2.979,13.389 3.198 C 13.564 3.428,13.824 3.958,13.892 4.225 C 14.096 5.016,13.987 5.850,13.594 6.520 C 13.424 6.810,13.366 6.877,12.678 7.574 C 12.115 8.144,12.028 8.243,12.000 8.347 C 11.911 8.678,12.136 8.987,12.466 8.987 C 12.534 8.987,12.627 8.970,12.674 8.950 C 12.722 8.929,13.069 8.600,13.455 8.210 C 13.990 7.669,14.189 7.449,14.317 7.256 C 15.009 6.212,15.182 4.955,14.796 3.760 C 14.363 2.418,13.212 1.393,11.787 1.080 C 11.514 1.020,10.622 1.002,10.347 1.051 M10.253 5.090 C 10.182 5.124,9.316 5.974,7.623 7.671 C 5.567 9.731,5.093 10.219,5.066 10.303 C 4.941 10.701,5.327 11.072,5.714 10.924 C 5.805 10.889,6.311 10.395,8.364 8.340 C 11.093 5.607,10.982 5.731,10.953 5.477 C 10.917 5.153,10.546 4.948,10.253 5.090 M3.307 7.055 C 3.181 7.108,2.037 8.265,1.810 8.568 C 1.275 9.283,1.007 10.090,1.006 10.987 C 1.006 12.232,1.564 13.376,2.549 14.148 C 3.910 15.216,5.799 15.283,7.256 14.317 C 7.449 14.189,7.669 13.990,8.210 13.455 C 8.600 13.069,8.929 12.722,8.950 12.674 C 9.077 12.377,8.887 12.036,8.565 11.984 C 8.336 11.948,8.264 11.999,7.520 12.733 C 6.794 13.449,6.620 13.583,6.191 13.762 C 5.789 13.929,5.526 13.981,5.053 13.984 C 4.554 13.987,4.320 13.947,3.907 13.785 C 3.426 13.597,2.929 13.220,2.611 12.802 C 2.436 12.573,2.177 12.043,2.107 11.773 C 1.886 10.925,2.030 10.043,2.510 9.307 C 2.578 9.203,2.884 8.869,3.270 8.479 C 3.939 7.803,4.025 7.691,4.026 7.495 C 4.028 7.244,3.791 7.012,3.535 7.014 C 3.461 7.015,3.358 7.033,3.307 7.055 " stroke="none" fill-rule="evenodd" fill="black"></path></svg>