<svg width="15" height="15" viewBox="0 0 15 15" xmlns="http://www.w3.org/2000/svg"><path d="M2.842 1.024 C 2.727 1.061,2.609 1.166,2.553 1.282 C 2.504 1.383,2.500 1.433,2.500 1.944 L 2.500 2.497 1.915 2.505 L 1.329 2.513 1.223 2.588 C 0.929 2.794,0.929 3.206,1.223 3.413 L 1.329 3.488 1.915 3.495 L 2.500 3.503 2.500 4.060 C 2.500 4.595,2.502 4.622,2.558 4.727 C 2.590 4.788,2.664 4.871,2.723 4.913 C 2.815 4.978,2.851 4.988,2.996 4.988 C 3.195 4.988,3.316 4.925,3.420 4.768 L 3.488 4.666 3.495 4.085 L 3.503 3.503 4.085 3.495 L 4.666 3.488 4.768 3.420 C 4.924 3.317,4.988 3.195,4.988 3.000 C 4.988 2.805,4.924 2.683,4.768 2.580 L 4.666 2.513 4.085 2.505 L 3.503 2.497 3.495 1.917 C 3.488 1.357,3.485 1.334,3.428 1.242 C 3.343 1.106,3.208 1.024,3.046 1.012 C 2.973 1.006,2.881 1.012,2.842 1.024 M7.926 1.633 C 7.717 1.699,7.712 1.710,7.054 3.426 C 6.719 4.298,6.405 5.093,6.357 5.192 C 6.241 5.432,6.023 5.651,5.788 5.762 C 5.691 5.808,4.904 6.118,4.038 6.451 C 3.171 6.784,2.432 7.078,2.396 7.104 C 2.272 7.191,2.212 7.320,2.212 7.500 C 2.212 7.680,2.272 7.809,2.396 7.897 C 2.432 7.923,3.171 8.217,4.038 8.550 C 4.904 8.883,5.693 9.195,5.792 9.243 C 6.031 9.359,6.241 9.569,6.357 9.808 C 6.405 9.907,6.717 10.696,7.050 11.563 C 7.383 12.429,7.677 13.168,7.703 13.204 C 7.791 13.328,7.920 13.388,8.100 13.388 C 8.280 13.388,8.409 13.328,8.497 13.204 C 8.523 13.168,8.817 12.429,9.150 11.563 C 9.483 10.696,9.795 9.907,9.843 9.808 C 9.959 9.569,10.169 9.359,10.408 9.243 C 10.507 9.195,11.296 8.883,12.163 8.550 C 13.029 8.217,13.768 7.923,13.804 7.897 C 13.928 7.809,13.988 7.680,13.988 7.500 C 13.988 7.320,13.928 7.191,13.804 7.104 C 13.768 7.078,13.029 6.784,12.163 6.451 C 11.296 6.118,10.509 5.808,10.412 5.762 C 10.177 5.651,9.959 5.432,9.843 5.192 C 9.795 5.093,9.483 4.304,9.150 3.438 C 8.817 2.571,8.521 1.830,8.493 1.791 C 8.430 1.702,8.217 1.600,8.100 1.603 C 8.052 1.604,7.974 1.617,7.926 1.633 M8.474 4.469 C 8.673 4.988,8.889 5.520,8.954 5.651 C 9.165 6.077,9.523 6.435,9.949 6.646 C 10.080 6.711,10.612 6.927,11.131 7.126 C 11.650 7.324,12.075 7.493,12.075 7.500 C 12.075 7.507,11.667 7.669,11.169 7.859 C 9.809 8.379,9.581 8.505,9.218 8.938 C 9.014 9.180,8.889 9.448,8.474 10.531 C 8.276 11.050,8.107 11.475,8.100 11.475 C 8.093 11.475,7.924 11.050,7.726 10.531 C 7.311 9.448,7.186 9.180,6.982 8.938 C 6.619 8.505,6.391 8.379,5.031 7.859 C 4.533 7.669,4.125 7.507,4.125 7.500 C 4.125 7.493,4.550 7.324,5.069 7.126 C 5.588 6.927,6.120 6.711,6.251 6.646 C 6.677 6.435,7.035 6.077,7.246 5.651 C 7.311 5.520,7.527 4.988,7.726 4.469 C 7.924 3.950,8.093 3.525,8.100 3.525 C 8.107 3.525,8.276 3.950,8.474 4.469 M2.842 10.024 C 2.727 10.061,2.609 10.166,2.553 10.282 C 2.504 10.383,2.500 10.433,2.500 10.944 L 2.500 11.497 1.915 11.505 L 1.329 11.513 1.223 11.588 C 0.929 11.794,0.929 12.206,1.223 12.413 L 1.329 12.488 1.915 12.495 L 2.500 12.503 2.500 13.060 C 2.500 13.595,2.502 13.622,2.558 13.727 C 2.590 13.788,2.664 13.871,2.723 13.913 C 2.815 13.978,2.851 13.988,2.996 13.988 C 3.195 13.988,3.316 13.925,3.420 13.768 L 3.488 13.666 3.495 13.085 L 3.503 12.503 4.085 12.495 L 4.666 12.488 4.768 12.420 C 4.924 12.317,4.988 12.195,4.988 12.000 C 4.988 11.805,4.924 11.683,4.768 11.580 L 4.666 11.513 4.085 11.505 L 3.503 11.497 3.495 10.917 C 3.488 10.357,3.485 10.334,3.428 10.242 C 3.343 10.106,3.208 10.024,3.046 10.012 C 2.973 10.006,2.881 10.012,2.842 10.024 " stroke="none" fill-rule="evenodd" fill="black"></path></svg>