<svg width="16" height="16" viewBox="0 0 16 16" xmlns="http://www.w3.org/2000/svg"><path d="M2.933 1.032 C 2.246 1.113,1.616 1.551,1.272 2.189 C 1.063 2.576,1.049 2.699,1.010 4.500 C 0.978 6.038,0.985 6.194,1.104 6.437 C 1.190 6.613,1.386 6.809,1.560 6.895 C 2.163 7.190,2.877 6.814,2.987 6.145 C 3.001 6.058,3.014 5.507,3.015 4.920 C 3.016 4.333,3.026 3.681,3.036 3.471 C 3.052 3.137,3.061 3.083,3.106 3.051 C 3.148 3.019,3.472 3.013,5.072 3.013 L 6.987 3.013 6.987 8.013 L 6.987 13.012 5.859 13.019 L 4.732 13.027 4.554 13.114 C 4.347 13.216,4.185 13.384,4.084 13.600 C 4.026 13.725,4.016 13.784,4.016 14.000 C 4.016 14.216,4.026 14.275,4.084 14.400 C 4.226 14.705,4.509 14.924,4.838 14.984 C 5.059 15.025,10.941 15.025,11.162 14.984 C 11.491 14.924,11.774 14.705,11.916 14.400 C 11.974 14.275,11.984 14.216,11.984 14.000 C 11.984 13.784,11.974 13.725,11.916 13.600 C 11.815 13.384,11.653 13.216,11.446 13.114 L 11.268 13.027 10.141 13.019 L 9.013 13.012 9.013 8.013 L 9.013 3.013 10.928 3.013 C 12.528 3.013,12.852 3.019,12.894 3.051 C 12.939 3.083,12.948 3.137,12.964 3.471 C 12.974 3.681,12.984 4.333,12.985 4.920 C 12.986 5.507,12.999 6.058,13.013 6.145 C 13.123 6.814,13.837 7.190,14.440 6.895 C 14.614 6.809,14.810 6.613,14.896 6.437 C 15.014 6.195,15.022 6.040,14.989 4.501 C 14.951 2.699,14.937 2.576,14.728 2.189 C 14.433 1.642,13.925 1.237,13.326 1.074 C 13.172 1.032,12.782 1.028,8.093 1.025 C 5.307 1.023,2.985 1.026,2.933 1.032 " stroke="none" fill-rule="evenodd" fill="black"></path></svg>