<svg width="15" height="15" viewBox="0 0 15 15" xmlns="http://www.w3.org/2000/svg"><path d="M7.342 2.024 C 7.227 2.061,7.109 2.166,7.053 2.282 C 7.000 2.390,7.000 2.404,7.000 4.695 L 7.000 6.999 4.665 7.006 L 2.329 7.013 2.223 7.088 C 1.929 7.294,1.929 7.706,2.223 7.913 L 2.329 7.988 4.665 7.994 L 7.000 8.001 7.000 10.309 L 7.000 12.617 7.058 12.727 C 7.090 12.788,7.164 12.871,7.223 12.913 C 7.316 12.978,7.351 12.988,7.498 12.988 C 7.639 12.988,7.683 12.977,7.767 12.920 C 7.823 12.884,7.896 12.810,7.928 12.758 L 7.988 12.663 7.994 10.332 L 8.001 8.001 10.334 7.994 L 12.666 7.988 12.768 7.920 C 12.924 7.817,12.988 7.695,12.988 7.498 C 12.988 7.362,12.976 7.317,12.920 7.233 C 12.884 7.177,12.810 7.104,12.758 7.072 L 12.663 7.013 10.332 7.006 L 8.001 6.999 7.994 4.668 L 7.988 2.337 7.928 2.242 C 7.843 2.106,7.708 2.024,7.546 2.012 C 7.473 2.006,7.381 2.012,7.342 2.024 " stroke="none" fill-rule="evenodd" fill="black"></path></svg>