<svg width="16" height="16" viewBox="0 0 16 16" xmlns="http://www.w3.org/2000/svg"><path d="M3.320 1.032 C 2.828 1.077,2.468 1.194,2.128 1.421 C 1.493 1.844,1.142 2.414,1.041 3.187 C 0.994 3.542,0.970 6.048,1.012 6.248 C 1.071 6.530,1.307 6.697,1.587 6.655 C 1.744 6.631,1.932 6.469,1.973 6.324 C 1.989 6.265,2.000 5.752,2.000 5.024 C 2.000 3.079,2.041 2.842,2.447 2.443 C 2.860 2.038,3.078 2.000,5.024 2.000 C 5.752 2.000,6.265 1.989,6.324 1.973 C 6.469 1.932,6.631 1.744,6.655 1.587 C 6.689 1.361,6.592 1.165,6.399 1.066 C 6.299 1.015,6.241 1.014,4.861 1.018 C 4.072 1.020,3.379 1.027,3.320 1.032 M10.262 1.067 C 10.074 1.167,9.979 1.364,10.012 1.587 C 10.035 1.744,10.197 1.932,10.343 1.973 C 10.403 1.989,10.988 2.000,11.866 2.000 L 13.292 2.000 12.169 3.127 C 11.094 4.205,11.044 4.259,11.019 4.381 C 10.992 4.510,11.007 4.636,11.061 4.737 C 11.107 4.823,11.273 4.957,11.354 4.975 C 11.394 4.984,11.440 4.995,11.456 5.000 C 11.472 5.005,11.544 4.996,11.616 4.981 C 11.742 4.955,11.786 4.915,12.873 3.831 L 14.000 2.708 14.000 4.134 C 14.000 5.012,14.011 5.597,14.027 5.657 C 14.068 5.803,14.256 5.965,14.413 5.988 C 14.688 6.029,14.929 5.862,14.985 5.593 C 15.006 5.494,15.013 4.829,15.007 3.412 C 15.001 1.571,14.996 1.366,14.956 1.293 C 14.897 1.188,14.778 1.077,14.685 1.042 C 14.634 1.022,13.924 1.014,12.485 1.015 C 10.437 1.016,10.356 1.018,10.262 1.067 M14.307 9.384 C 14.171 9.447,14.060 9.565,14.026 9.682 C 14.011 9.735,14.000 10.264,14.000 10.960 C 14.000 12.849,13.964 13.090,13.627 13.482 C 13.527 13.599,13.307 13.774,13.185 13.835 C 12.916 13.970,12.757 13.983,11.173 13.998 C 9.849 14.012,9.685 14.018,9.611 14.059 C 9.186 14.291,9.277 14.889,9.752 14.988 C 9.951 15.030,12.456 15.006,12.813 14.959 C 13.419 14.880,13.858 14.669,14.264 14.264 C 14.669 13.858,14.880 13.419,14.959 12.813 C 15.005 12.464,15.030 9.950,14.989 9.761 C 14.916 9.420,14.603 9.247,14.307 9.384 M1.290 10.051 C 1.150 10.115,1.049 10.247,1.013 10.415 C 0.994 10.503,0.988 11.220,0.993 12.587 C 1.001 14.831,0.991 14.696,1.164 14.857 C 1.327 15.007,1.213 14.999,3.412 15.007 C 4.829 15.013,5.494 15.006,5.593 14.985 C 5.960 14.909,6.124 14.467,5.885 14.195 C 5.710 13.996,5.759 14.001,4.147 14.001 L 2.708 14.000 3.831 12.873 C 4.915 11.786,4.955 11.742,4.981 11.616 C 4.996 11.544,5.005 11.472,5.000 11.456 C 4.995 11.440,4.984 11.394,4.975 11.354 C 4.956 11.265,4.819 11.104,4.717 11.052 C 4.618 11.001,4.392 11.003,4.285 11.056 C 4.238 11.079,3.705 11.592,3.100 12.196 L 2.000 13.293 2.000 11.867 C 2.000 11.013,1.989 10.402,1.973 10.345 C 1.925 10.170,1.684 9.999,1.488 10.001 C 1.439 10.001,1.351 10.024,1.290 10.051 " stroke="none" fill-rule="evenodd" fill="black"></path></svg>