<svg width="16" height="16" viewBox="0 0 16 16" xmlns="http://www.w3.org/2000/svg"><path d="M11.013 2.130 C 10.619 2.218,10.313 2.365,9.979 2.626 C 9.617 2.909,9.277 3.426,9.152 3.880 L 9.101 4.067 5.704 4.080 L 2.307 4.093 2.209 4.154 C 2.039 4.260,1.955 4.518,2.028 4.712 C 2.067 4.814,2.182 4.932,2.286 4.977 C 2.357 5.007,2.940 5.013,5.743 5.013 L 9.115 5.013 9.134 5.127 C 9.144 5.189,9.194 5.341,9.245 5.465 C 9.542 6.189,10.158 6.729,10.925 6.938 C 11.202 7.014,11.814 7.021,12.089 6.952 C 12.526 6.843,12.887 6.648,13.206 6.349 C 13.553 6.024,13.769 5.675,13.910 5.211 C 13.975 4.998,13.983 4.931,13.984 4.560 C 13.985 4.070,13.935 3.835,13.751 3.467 C 13.423 2.810,12.883 2.360,12.182 2.158 C 11.896 2.076,11.321 2.062,11.013 2.130 M12.027 3.103 C 12.481 3.261,12.821 3.604,12.971 4.057 C 13.161 4.625,13.028 5.192,12.606 5.613 C 12.298 5.921,11.959 6.063,11.533 6.063 C 11.101 6.063,10.767 5.921,10.453 5.603 C 10.229 5.377,10.133 5.206,10.052 4.888 C 9.991 4.649,9.987 4.478,10.038 4.240 C 10.230 3.336,11.163 2.803,12.027 3.103 M4.167 9.014 C 3.153 9.153,2.363 9.844,2.075 10.843 C 2.022 11.024,2.014 11.112,2.016 11.480 C 2.017 11.864,2.025 11.930,2.089 12.141 C 2.359 13.028,3.061 13.685,3.951 13.883 C 4.213 13.942,4.749 13.941,4.999 13.881 C 5.415 13.781,5.814 13.576,6.118 13.304 C 6.436 13.021,6.742 12.527,6.843 12.137 L 6.892 11.947 10.213 11.946 C 12.110 11.946,13.578 11.935,13.638 11.921 C 14.115 11.811,14.115 11.123,13.638 11.012 C 13.578 10.998,12.110 10.988,10.213 10.987 L 6.892 10.987 6.844 10.803 C 6.628 9.964,5.855 9.233,4.996 9.056 C 4.750 9.005,4.370 8.986,4.167 9.014 M4.834 9.989 C 5.405 10.137,5.840 10.589,5.960 11.160 C 6.033 11.506,5.990 11.820,5.823 12.159 C 5.518 12.778,4.772 13.118,4.097 12.945 C 3.530 12.799,3.093 12.344,2.973 11.773 C 2.924 11.538,2.924 11.395,2.973 11.160 C 3.091 10.600,3.504 10.161,4.067 9.997 C 4.270 9.938,4.623 9.934,4.834 9.989 " stroke="none" fill-rule="evenodd" fill="black"></path></svg>