<svg width="14" height="14" viewBox="0 0 14 14" fill="none" xmlns="http://www.w3.org/2000/svg"><path d="M4.130 2.512 C 3.683 2.547,3.156 2.697,2.761 2.903 C 1.681 3.467,0.885 4.594,0.609 5.951 C 0.533 6.326,0.507 6.599,0.508 7.012 C 0.509 7.599,0.582 8.064,0.760 8.606 C 1.203 9.958,2.113 10.933,3.290 11.317 C 3.853 11.501,3.661 11.492,7.000 11.492 C 10.339 11.492,10.147 11.501,10.710 11.317 C 11.236 11.145,11.685 10.873,12.094 10.478 C 12.843 9.755,13.306 8.784,13.465 7.607 C 13.480 7.498,13.492 7.225,13.492 7.000 C 13.492 6.775,13.480 6.502,13.465 6.393 C 13.307 5.224,12.842 4.245,12.107 3.535 C 11.680 3.123,11.206 2.837,10.679 2.672 C 10.137 2.503,10.342 2.512,7.128 2.508 C 5.537 2.506,4.188 2.507,4.130 2.512 M9.870 3.524 C 10.820 3.624,11.606 4.218,12.088 5.202 C 12.610 6.267,12.626 7.629,12.128 8.715 C 11.679 9.696,10.922 10.315,9.987 10.464 C 9.797 10.495,9.361 10.500,7.000 10.500 C 3.993 10.500,4.014 10.501,3.605 10.369 C 2.281 9.941,1.403 8.397,1.519 6.703 C 1.585 5.757,1.960 4.879,2.550 4.291 C 3.020 3.824,3.544 3.578,4.200 3.515 C 4.414 3.495,9.670 3.503,9.870 3.524 M4.565 4.541 C 3.659 4.704,2.899 5.366,2.628 6.226 C 2.457 6.767,2.457 7.233,2.628 7.774 C 3.043 9.090,4.505 9.814,5.826 9.357 C 6.453 9.139,6.986 8.653,7.269 8.042 C 7.832 6.823,7.312 5.359,6.105 4.764 C 5.632 4.531,5.070 4.449,4.565 4.541 M5.340 5.540 C 5.746 5.627,6.151 5.949,6.344 6.339 C 6.447 6.545,6.487 6.730,6.487 7.000 C 6.487 7.142,6.472 7.296,6.450 7.381 C 6.340 7.806,6.025 8.177,5.618 8.364 C 5.403 8.462,5.253 8.493,4.996 8.493 C 4.574 8.493,4.242 8.354,3.941 8.050 C 3.657 7.764,3.501 7.391,3.501 7.000 C 3.501 6.316,3.999 5.686,4.655 5.541 C 4.838 5.501,5.154 5.500,5.340 5.540 " stroke="none" fill-rule="evenodd" fill="black"></path></svg>