<svg width="16" height="16" viewBox="0 0 16 16" fill="none" xmlns="http://www.w3.org/2000/svg"><path d="M4.516 2.027 C 2.503 2.239,0.881 3.794,0.252 6.115 C -0.352 8.340,0.172 10.829,1.579 12.426 C 2.263 13.202,3.158 13.722,4.165 13.925 L 4.467 13.987 8.000 13.987 L 11.533 13.987 11.835 13.925 C 13.568 13.574,14.924 12.298,15.590 10.392 C 16.134 8.838,16.134 7.162,15.590 5.608 C 14.871 3.550,13.343 2.225,11.460 2.027 C 11.171 1.996,4.806 1.997,4.516 2.027 M11.604 4.072 C 12.452 4.312,13.050 4.855,13.507 5.800 C 14.153 7.139,14.154 8.859,13.507 10.200 C 13.020 11.210,12.318 11.805,11.427 11.962 C 11.111 12.018,4.889 12.018,4.573 11.962 C 3.682 11.805,2.980 11.210,2.493 10.200 C 1.684 8.523,1.904 6.331,3.018 4.967 C 3.444 4.446,4.048 4.101,4.662 4.027 C 4.760 4.016,6.316 4.008,8.120 4.010 C 11.395 4.014,11.400 4.015,11.604 4.072 M5.518 5.039 C 4.544 5.216,3.740 5.813,3.315 6.673 C 3.104 7.099,3.008 7.514,3.008 8.000 C 3.008 9.760,4.502 11.132,6.256 10.984 C 7.900 10.845,9.123 9.393,8.984 7.744 C 8.923 7.024,8.611 6.367,8.089 5.859 C 7.827 5.604,7.652 5.481,7.320 5.318 C 6.868 5.097,6.613 5.037,6.080 5.026 C 5.838 5.021,5.585 5.026,5.518 5.039 M6.435 7.105 C 6.616 7.197,6.818 7.402,6.908 7.587 C 6.965 7.702,6.973 7.757,6.973 8.000 C 6.973 8.256,6.967 8.293,6.896 8.432 C 6.743 8.734,6.460 8.942,6.146 8.985 C 5.709 9.044,5.305 8.830,5.104 8.432 C 5.033 8.293,5.027 8.256,5.027 8.000 C 5.027 7.756,5.035 7.703,5.092 7.587 C 5.208 7.352,5.435 7.144,5.677 7.051 C 5.741 7.027,5.860 7.016,6.028 7.021 C 6.248 7.027,6.303 7.039,6.435 7.105 " stroke="none" fill-rule="evenodd" fill="black"></path></svg>