<svg width="16" height="16" viewBox="0 0 16 16" xmlns="http://www.w3.org/2000/svg"><path d="M7.800 0.544 C 7.695 0.591,7.586 0.709,7.535 0.832 C 7.501 0.914,7.493 1.064,7.493 1.686 C 7.494 2.122,7.505 2.482,7.521 2.539 C 7.593 2.799,7.868 2.952,8.135 2.880 C 8.281 2.840,8.438 2.688,8.477 2.546 C 8.495 2.480,8.506 2.154,8.506 1.680 C 8.505 0.842,8.497 0.791,8.330 0.635 C 8.192 0.506,7.971 0.468,7.800 0.544 M2.804 2.591 C 2.583 2.700,2.480 2.972,2.570 3.209 C 2.604 3.297,2.749 3.457,3.194 3.898 C 3.733 4.434,3.782 4.475,3.901 4.500 C 4.030 4.528,4.155 4.513,4.257 4.459 C 4.343 4.413,4.477 4.247,4.495 4.166 C 4.504 4.126,4.515 4.080,4.520 4.064 C 4.525 4.048,4.516 3.976,4.501 3.904 C 4.475 3.782,4.438 3.738,3.910 3.203 C 3.552 2.841,3.308 2.616,3.240 2.584 C 3.099 2.518,2.946 2.521,2.804 2.591 M12.760 2.584 C 12.692 2.616,12.448 2.841,12.090 3.203 C 11.567 3.733,11.525 3.782,11.500 3.901 C 11.472 4.030,11.487 4.155,11.541 4.257 C 11.587 4.343,11.753 4.477,11.834 4.495 C 11.874 4.504,11.920 4.515,11.936 4.520 C 11.952 4.525,12.024 4.516,12.096 4.501 C 12.219 4.475,12.262 4.439,12.806 3.898 C 13.438 3.272,13.486 3.204,13.460 2.973 C 13.422 2.639,13.067 2.441,12.760 2.584 M7.467 4.038 C 6.989 4.108,6.622 4.221,6.213 4.427 C 5.105 4.984,4.351 5.968,4.074 7.220 C 3.990 7.597,3.990 8.403,4.074 8.780 C 4.434 10.406,5.595 11.567,7.218 11.925 C 7.598 12.009,8.402 12.009,8.782 11.925 C 10.404 11.567,11.567 10.404,11.925 8.782 C 12.009 8.402,12.009 7.598,11.925 7.218 C 11.561 5.567,10.316 4.353,8.694 4.064 C 8.368 4.007,7.773 3.994,7.467 4.038 M8.537 5.052 C 9.742 5.264,10.736 6.258,10.948 7.463 C 11.028 7.922,10.985 8.535,10.845 8.947 C 10.424 10.179,9.294 10.992,8.000 10.995 C 6.713 10.997,5.576 10.178,5.155 8.947 C 4.964 8.387,4.965 7.612,5.157 7.049 C 5.300 6.630,5.574 6.187,5.881 5.881 C 6.292 5.469,6.888 5.155,7.449 5.053 C 7.711 5.005,8.266 5.005,8.537 5.052 M0.947 7.506 C 0.932 7.511,0.887 7.523,0.847 7.531 C 0.807 7.540,0.730 7.586,0.677 7.633 C 0.397 7.879,0.466 8.295,0.813 8.456 C 0.909 8.500,0.997 8.506,1.680 8.506 C 2.154 8.506,2.480 8.495,2.546 8.477 C 2.687 8.438,2.840 8.281,2.879 8.136 C 2.939 7.915,2.859 7.711,2.663 7.581 L 2.551 7.507 1.762 7.501 C 1.328 7.498,0.961 7.500,0.947 7.506 M13.474 7.518 C 13.290 7.564,13.144 7.725,13.107 7.923 C 13.065 8.147,13.233 8.416,13.454 8.477 C 13.520 8.495,13.846 8.506,14.320 8.506 C 15.003 8.506,15.091 8.500,15.187 8.456 C 15.384 8.365,15.493 8.202,15.493 8.000 C 15.493 7.866,15.454 7.765,15.365 7.671 C 15.211 7.508,15.206 7.507,14.347 7.502 C 13.914 7.499,13.521 7.507,13.474 7.518 M3.787 11.546 C 3.735 11.573,3.446 11.846,3.143 12.151 C 2.552 12.748,2.515 12.803,2.540 13.030 C 2.578 13.364,2.953 13.568,3.248 13.415 C 3.302 13.387,3.601 13.108,3.912 12.795 C 4.491 12.213,4.503 12.197,4.512 11.993 C 4.521 11.813,4.386 11.598,4.221 11.529 C 4.100 11.479,3.897 11.486,3.787 11.546 M11.787 11.523 C 11.580 11.605,11.450 11.863,11.499 12.096 C 11.524 12.219,11.560 12.262,12.090 12.795 C 12.400 13.108,12.698 13.387,12.752 13.415 C 13.047 13.568,13.422 13.364,13.460 13.030 C 13.485 12.803,13.448 12.748,12.857 12.151 C 12.554 11.846,12.262 11.573,12.208 11.545 C 12.101 11.489,11.898 11.479,11.787 11.523 M7.874 13.119 C 7.760 13.147,7.611 13.262,7.553 13.368 C 7.512 13.443,7.506 13.552,7.498 14.240 C 7.492 14.765,7.500 15.060,7.519 15.127 C 7.557 15.253,7.693 15.410,7.805 15.457 C 8.001 15.539,8.224 15.486,8.366 15.324 C 8.503 15.168,8.511 15.103,8.502 14.240 C 8.494 13.504,8.490 13.447,8.439 13.360 C 8.329 13.174,8.081 13.068,7.874 13.119 " stroke="none" fill-rule="evenodd" fill="black"></path></svg>