<svg width="15" height="15" viewBox="0 0 15 15" xmlns="http://www.w3.org/2000/svg"><path d="M3.342 2.025 C 3.152 2.083,3.000 2.295,3.000 2.504 C 3.000 2.655,3.089 2.818,3.223 2.913 L 3.329 2.988 7.496 2.988 L 11.663 2.988 11.758 2.928 C 11.810 2.896,11.884 2.823,11.920 2.767 C 11.976 2.683,11.988 2.638,11.988 2.500 C 11.988 2.362,11.976 2.317,11.920 2.233 C 11.884 2.177,11.810 2.104,11.758 2.072 L 11.663 2.013 7.538 2.008 C 5.269 2.006,3.381 2.014,3.342 2.025 M3.342 7.025 C 3.152 7.083,3.000 7.295,3.000 7.504 C 3.000 7.655,3.089 7.818,3.223 7.913 L 3.329 7.988 7.496 7.988 L 11.663 7.988 11.758 7.928 C 11.810 7.896,11.884 7.823,11.920 7.767 C 11.976 7.683,11.988 7.638,11.988 7.500 C 11.988 7.362,11.976 7.317,11.920 7.233 C 11.884 7.177,11.810 7.104,11.758 7.072 L 11.663 7.013 7.538 7.008 C 5.269 7.006,3.381 7.014,3.342 7.025 M3.342 12.025 C 3.152 12.083,3.000 12.295,3.000 12.504 C 3.000 12.655,3.089 12.818,3.223 12.913 L 3.329 12.988 7.496 12.988 L 11.663 12.988 11.758 12.928 C 11.810 12.896,11.884 12.823,11.920 12.767 C 11.976 12.683,11.988 12.638,11.988 12.500 C 11.988 12.362,11.976 12.317,11.920 12.233 C 11.884 12.177,11.810 12.104,11.758 12.072 L 11.663 12.013 7.538 12.008 C 5.269 12.006,3.381 12.014,3.342 12.025 " stroke="none" fill-rule="evenodd" fill="black"></path></svg>