<svg width="15" height="15" viewBox="0 0 15 15" xmlns="http://www.w3.org/2000/svg"><path d="M3.414 1.027 C 2.650 1.079,2.210 1.266,1.738 1.738 C 1.271 2.205,1.093 2.612,1.027 3.363 C 0.991 3.769,0.991 11.225,1.026 11.638 C 1.084 12.306,1.250 12.720,1.642 13.168 C 1.911 13.475,2.379 13.772,2.755 13.874 C 3.178 13.988,3.161 13.988,7.513 13.988 C 10.773 13.988,11.682 13.981,11.850 13.955 C 12.461 13.861,12.885 13.650,13.288 13.237 C 13.643 12.873,13.845 12.476,13.942 11.950 C 13.982 11.731,13.986 11.394,13.994 7.725 C 14.003 3.700,13.996 3.298,13.913 2.903 C 13.817 2.447,13.623 2.099,13.262 1.738 C 12.778 1.253,12.364 1.082,11.536 1.026 C 11.091 0.996,3.864 0.997,3.414 1.027 M11.830 2.056 C 12.276 2.147,12.631 2.415,12.830 2.809 C 12.988 3.122,12.983 3.041,12.993 5.788 L 13.002 8.287 11.920 7.210 C 10.717 6.012,10.699 5.998,10.338 5.953 C 9.939 5.904,9.663 6.005,9.295 6.336 C 8.843 6.742,3.034 12.585,2.950 12.718 L 2.867 12.849 2.742 12.781 C 2.487 12.643,2.231 12.347,2.119 12.061 C 2.014 11.794,2.012 11.727,2.013 7.463 C 2.013 3.739,2.017 3.369,2.055 3.177 C 2.117 2.868,2.222 2.673,2.448 2.449 C 2.743 2.157,2.961 2.065,3.458 2.026 C 3.598 2.015,5.496 2.008,7.675 2.011 C 11.183 2.016,11.660 2.021,11.830 2.056 M4.923 3.348 C 4.195 3.449,3.602 3.969,3.396 4.689 C 3.324 4.941,3.317 5.355,3.382 5.600 C 3.519 6.117,3.882 6.570,4.340 6.797 C 4.801 7.025,5.297 7.056,5.778 6.888 C 6.056 6.791,6.222 6.683,6.463 6.440 C 6.646 6.256,6.709 6.172,6.793 6.000 C 6.946 5.687,6.986 5.516,6.986 5.163 C 6.986 4.809,6.946 4.639,6.793 4.325 C 6.709 4.153,6.647 4.069,6.464 3.885 C 6.272 3.693,6.201 3.640,6.000 3.542 C 5.869 3.478,5.700 3.410,5.624 3.390 C 5.443 3.345,5.099 3.324,4.923 3.348 M5.530 4.420 C 5.693 4.501,5.843 4.654,5.921 4.821 C 5.976 4.939,5.986 4.997,5.986 5.175 C 5.986 5.357,5.976 5.406,5.917 5.520 C 5.819 5.707,5.692 5.838,5.529 5.918 C 5.406 5.978,5.358 5.988,5.163 5.988 C 4.974 5.988,4.917 5.977,4.813 5.926 C 4.411 5.729,4.226 5.239,4.404 4.849 C 4.509 4.619,4.670 4.467,4.897 4.383 C 5.041 4.330,5.387 4.350,5.530 4.420 M11.620 8.331 L 13.004 9.713 12.991 10.675 C 12.977 11.747,12.957 11.923,12.822 12.197 C 12.713 12.420,12.418 12.715,12.200 12.821 C 11.844 12.994,12.101 12.984,7.863 12.993 L 4.038 13.001 7.063 9.975 C 9.712 7.328,10.098 6.950,10.163 6.950 C 10.227 6.950,10.419 7.132,11.620 8.331 " stroke="none" fill-rule="evenodd" fill="black"></path></svg>