<svg width="16" height="16" viewBox="0 0 16 16" xmlns="http://www.w3.org/2000/svg"><path d="M3.407 1.043 C 2.521 1.130,1.849 1.552,1.376 2.319 C 1.134 2.711,1.052 3.076,1.012 3.947 C 0.972 4.805,0.994 12.293,1.037 12.613 C 1.129 13.299,1.371 13.798,1.821 14.231 C 2.288 14.682,2.737 14.884,3.455 14.964 C 3.912 15.016,12.144 15.017,12.560 14.966 C 13.260 14.879,13.721 14.672,14.169 14.242 C 14.632 13.798,14.854 13.349,14.953 12.657 C 14.996 12.360,15.000 11.982,15.000 8.027 C 15.000 3.502,14.998 3.405,14.881 2.953 C 14.801 2.641,14.729 2.476,14.563 2.224 C 14.156 1.607,13.589 1.224,12.859 1.073 C 12.676 1.035,12.158 1.030,8.147 1.025 C 5.668 1.022,3.535 1.030,3.407 1.043 M12.373 2.107 C 12.542 2.122,12.758 2.157,12.854 2.186 C 13.196 2.288,13.567 2.604,13.733 2.932 C 13.908 3.280,13.903 3.174,13.913 6.147 L 13.922 8.840 12.768 7.690 C 11.662 6.589,11.604 6.536,11.401 6.437 C 11.192 6.335,11.185 6.333,10.880 6.333 C 10.574 6.333,10.568 6.334,10.359 6.438 C 10.150 6.541,10.090 6.598,6.883 9.785 C 3.697 12.951,3.224 13.431,3.078 13.652 L 3.007 13.760 2.870 13.686 C 2.653 13.570,2.399 13.298,2.274 13.049 C 2.086 12.672,2.093 12.887,2.094 7.960 C 2.094 3.929,2.098 3.541,2.139 3.335 C 2.202 3.023,2.321 2.800,2.547 2.571 C 2.850 2.265,3.107 2.152,3.597 2.108 C 3.949 2.077,12.012 2.076,12.373 2.107 M5.047 3.559 C 4.386 3.709,3.839 4.206,3.609 4.867 C 3.540 5.064,3.534 5.110,3.535 5.480 C 3.535 5.843,3.542 5.900,3.607 6.093 C 3.846 6.804,4.435 7.303,5.185 7.430 C 5.504 7.484,5.787 7.458,6.132 7.344 C 7.027 7.048,7.606 6.073,7.432 5.156 C 7.291 4.413,6.788 3.835,6.084 3.607 C 5.827 3.523,5.309 3.499,5.047 3.559 M5.885 4.696 C 6.087 4.793,6.244 4.963,6.322 5.169 C 6.367 5.291,6.376 5.362,6.368 5.535 C 6.358 5.720,6.343 5.775,6.263 5.922 C 5.972 6.454,5.253 6.546,4.840 6.103 C 4.660 5.912,4.604 5.767,4.603 5.493 C 4.602 5.219,4.656 5.080,4.841 4.882 C 5.116 4.588,5.514 4.517,5.885 4.696 M12.449 8.899 L 13.924 10.387 13.911 11.427 C 13.896 12.589,13.876 12.772,13.728 13.065 C 13.609 13.303,13.297 13.615,13.066 13.729 C 12.688 13.914,12.968 13.903,8.400 13.913 L 4.280 13.921 7.534 10.667 C 10.600 7.600,10.793 7.413,10.880 7.413 C 10.968 7.412,11.058 7.497,12.449 8.899 " stroke="none" fill-rule="evenodd" fill="black"></path></svg>