<svg width="24" height="24" viewBox="0 0 24 24" xmlns="http://www.w3.org/2000/svg"><path d="M9.051 0.060 C 8.914 0.090,8.671 0.182,8.511 0.264 C 8.243 0.402,8.020 0.613,5.667 2.957 C 4.263 4.356,2.958 5.677,2.767 5.893 C 1.607 7.207,0.801 8.706,0.365 10.362 C -0.676 14.310,0.563 18.464,3.600 21.214 C 5.184 22.648,7.149 23.562,9.388 23.908 C 10.013 24.005,11.651 24.004,12.280 23.907 C 13.673 23.692,15.003 23.248,16.095 22.634 C 16.603 22.349,17.306 21.866,17.780 21.479 C 18.321 21.037,23.440 15.889,23.644 15.583 C 23.950 15.122,24.071 14.445,23.943 13.903 C 23.840 13.464,23.658 13.137,23.337 12.815 C 22.897 12.372,22.385 12.160,21.760 12.160 C 21.382 12.160,21.114 12.222,20.760 12.390 C 20.469 12.527,20.367 12.624,17.520 15.465 C 15.903 17.079,14.535 18.432,14.480 18.474 C 13.692 19.065,12.795 19.471,11.800 19.686 C 11.438 19.765,11.267 19.777,10.560 19.776 C 9.869 19.774,9.678 19.760,9.344 19.687 C 8.459 19.492,7.650 19.148,6.942 18.667 C 6.468 18.346,5.655 17.532,5.334 17.060 C 4.848 16.344,4.497 15.525,4.313 14.680 C 4.190 14.113,4.179 12.735,4.293 12.200 C 4.513 11.169,4.892 10.319,5.478 9.540 C 5.614 9.360,6.956 7.971,8.550 6.360 C 10.637 4.251,11.409 3.446,11.491 3.293 C 11.552 3.179,11.637 2.947,11.681 2.777 C 12.090 1.175,10.670 -0.291,9.051 0.060 M18.440 2.823 C 18.319 2.855,18.103 2.937,17.960 3.005 C 17.720 3.120,17.368 3.462,13.294 7.547 C 9.350 11.501,8.873 11.993,8.748 12.232 C 8.546 12.619,8.478 12.885,8.477 13.301 C 8.474 14.153,8.931 14.900,9.688 15.279 C 10.084 15.477,10.367 15.535,10.820 15.510 C 11.258 15.485,11.622 15.358,11.975 15.104 C 12.110 15.008,14.156 12.978,16.523 10.594 C 20.446 6.642,20.837 6.237,20.952 6.000 C 21.396 5.087,21.241 4.109,20.544 3.419 C 20.224 3.102,19.896 2.911,19.516 2.822 C 19.197 2.746,18.729 2.747,18.440 2.823 " stroke="none" fill-rule="evenodd" fill="black"></path></svg>