<svg width="16" height="16" viewBox="0 0 16 16" xmlns="http://www.w3.org/2000/svg"><path d="M7.440 2.029 C 6.770 2.104,6.140 2.364,5.539 2.816 C 5.262 3.024,4.772 3.529,4.606 3.780 C 4.252 4.311,4.048 4.925,4.008 5.576 C 3.988 5.899,4.023 6.038,4.164 6.199 C 4.468 6.543,5.051 6.476,5.257 6.072 C 5.295 5.999,5.320 5.876,5.336 5.685 C 5.367 5.338,5.416 5.121,5.523 4.863 C 5.859 4.056,6.646 3.451,7.547 3.308 C 7.822 3.264,8.277 3.275,8.547 3.330 C 9.185 3.463,9.769 3.827,10.149 4.328 C 10.296 4.521,10.511 4.957,10.573 5.187 C 10.642 5.442,10.656 5.971,10.602 6.240 C 10.432 7.075,9.813 7.798,9.000 8.110 C 8.398 8.340,8.107 8.506,7.846 8.767 C 7.524 9.090,7.362 9.472,7.340 9.966 C 7.322 10.353,7.355 10.478,7.519 10.641 C 7.799 10.922,8.236 10.904,8.502 10.601 C 8.605 10.484,8.634 10.389,8.662 10.076 C 8.701 9.648,8.771 9.576,9.405 9.318 C 9.893 9.119,10.158 8.973,10.493 8.720 C 11.329 8.088,11.849 7.182,11.976 6.137 C 12.002 5.919,12.002 5.802,11.976 5.565 C 11.876 4.657,11.520 3.846,10.955 3.239 C 10.153 2.379,8.722 1.886,7.440 2.029 M7.491 12.167 C 7.335 12.273,7.332 12.288,7.340 13.086 L 7.347 13.812 7.434 13.900 L 7.521 13.987 8.000 13.987 L 8.479 13.987 8.566 13.900 L 8.653 13.812 8.660 13.086 C 8.668 12.288,8.665 12.273,8.509 12.167 C 8.425 12.111,8.392 12.107,8.000 12.107 C 7.608 12.107,7.575 12.111,7.491 12.167 " stroke="none" fill-rule="evenodd" fill="black"></path></svg>