<svg width="16" height="16" viewBox="0 0 16 16" xmlns="http://www.w3.org/2000/svg"><path d="M3.449 5.052 C 3.330 5.104,3.152 5.273,3.091 5.391 C 2.999 5.573,2.978 5.737,3.024 5.920 C 3.047 6.009,3.093 6.122,3.126 6.170 C 3.160 6.218,4.168 7.289,5.367 8.549 C 7.770 11.074,7.686 10.996,8.000 10.996 C 8.314 10.996,8.230 11.074,10.633 8.549 C 11.832 7.289,12.840 6.218,12.874 6.170 C 12.907 6.122,12.953 6.009,12.976 5.920 C 13.044 5.652,12.959 5.382,12.746 5.189 C 12.597 5.055,12.489 5.013,12.286 5.013 C 11.966 5.013,12.046 4.940,9.933 7.160 C 8.879 8.267,8.009 9.173,8.000 9.173 C 7.991 9.173,7.121 8.267,6.067 7.160 C 3.948 4.933,4.035 5.012,3.708 5.014 C 3.612 5.015,3.496 5.032,3.449 5.052 " stroke="none" fill-rule="evenodd" fill="black"></path></svg>