<svg width="16" height="16" viewBox="0 0 16 16" xmlns="http://www.w3.org/2000/svg"><path d="M7.757 1.038 C 7.597 1.089,1.234 4.306,1.164 4.370 C 0.957 4.561,0.950 4.891,1.148 5.081 C 1.194 5.126,1.756 5.424,2.435 5.763 L 3.639 6.367 2.453 6.960 C 1.800 7.286,1.233 7.577,1.193 7.605 C 1.089 7.679,1.007 7.852,1.007 8.000 C 1.007 8.148,1.089 8.321,1.193 8.395 C 1.233 8.423,1.800 8.713,2.451 9.039 L 3.635 9.631 2.424 10.244 C 1.758 10.582,1.180 10.889,1.139 10.928 C 1.099 10.966,1.048 11.056,1.027 11.127 C 0.967 11.330,1.018 11.503,1.181 11.643 C 1.230 11.685,2.740 12.457,4.535 13.358 L 7.800 14.996 8.000 14.996 L 8.200 14.996 11.465 13.358 C 13.260 12.457,14.770 11.685,14.819 11.643 C 14.982 11.503,15.033 11.330,14.973 11.127 C 14.952 11.056,14.901 10.966,14.861 10.928 C 14.820 10.889,14.242 10.582,13.576 10.244 L 12.365 9.631 13.549 9.039 C 14.200 8.713,14.767 8.423,14.807 8.395 C 14.911 8.321,14.993 8.148,14.993 8.000 C 14.993 7.852,14.911 7.679,14.807 7.605 C 14.767 7.577,14.200 7.286,13.547 6.960 L 12.361 6.367 13.565 5.763 C 14.244 5.424,14.806 5.126,14.852 5.081 C 15.050 4.891,15.043 4.561,14.836 4.370 C 14.794 4.332,13.296 3.565,11.507 2.665 L 8.253 1.030 8.040 1.022 C 7.923 1.018,7.795 1.025,7.757 1.038 M10.696 3.379 C 12.174 4.123,13.381 4.733,13.379 4.735 C 13.376 4.737,12.164 5.348,10.687 6.091 L 8.000 7.444 5.308 6.089 L 2.617 4.733 2.768 4.656 C 3.404 4.333,7.989 2.028,7.998 2.027 C 8.004 2.027,9.218 2.635,10.696 3.379 M6.258 7.686 L 7.756 8.440 8.000 8.440 L 8.245 8.440 9.745 7.685 L 11.245 6.929 12.303 7.458 C 12.884 7.749,13.360 7.993,13.360 8.001 C 13.360 8.008,12.154 8.620,10.680 9.361 L 8.000 10.707 5.320 9.361 C 3.846 8.620,2.640 8.008,2.640 8.001 C 2.640 7.988,4.713 6.939,4.747 6.935 C 4.754 6.934,5.434 7.272,6.258 7.686 M6.281 10.967 L 7.789 11.720 8.000 11.720 L 8.211 11.720 9.732 10.960 L 11.254 10.201 12.313 10.730 C 13.259 11.203,13.366 11.263,13.323 11.295 C 13.234 11.360,8.041 13.960,8.000 13.960 C 7.959 13.960,2.765 11.359,2.677 11.294 C 2.634 11.263,2.744 11.201,3.668 10.738 C 4.239 10.451,4.721 10.216,4.739 10.215 C 4.758 10.214,5.451 10.552,6.281 10.967 " stroke="none" fill-rule="evenodd" fill="black"></path></svg>