<svg width="15" height="15" viewBox="0 0 15 15" xmlns="http://www.w3.org/2000/svg"><path d="M7.342 1.024 C 7.227 1.061,7.109 1.166,7.053 1.282 L 7.000 1.391 7.000 6.839 L 7.000 12.287 4.406 9.695 C 1.689 6.978,1.714 7.002,1.499 7.001 C 1.364 7.000,1.158 7.114,1.080 7.232 C 0.989 7.369,0.984 7.617,1.068 7.750 C 1.098 7.798,2.498 9.212,4.180 10.892 C 6.996 13.705,7.246 13.949,7.350 13.976 C 7.487 14.012,7.655 13.991,7.759 13.926 C 7.802 13.899,9.212 12.502,10.892 10.820 C 13.704 8.005,13.948 7.754,13.976 7.650 C 14.014 7.505,13.990 7.337,13.914 7.223 C 13.842 7.114,13.630 7.000,13.501 7.001 C 13.286 7.002,13.311 6.978,10.594 9.694 L 8.000 12.287 7.994 6.812 L 7.988 1.338 7.928 1.242 C 7.843 1.106,7.708 1.024,7.546 1.012 C 7.473 1.006,7.381 1.012,7.342 1.024 " stroke="none" fill-rule="evenodd" fill="black"></path></svg>