<svg width="16" height="16" viewBox="0 0 16 16" xmlns="http://www.w3.org/2000/svg"><path d="M4.844 2.028 C 4.773 2.040,4.647 2.083,4.564 2.123 C 4.250 2.276,4.241 2.290,2.611 5.027 C 1.781 6.420,1.081 7.614,1.055 7.680 C 0.989 7.847,0.991 8.158,1.060 8.337 C 1.109 8.465,3.862 13.116,4.081 13.440 C 4.200 13.617,4.383 13.790,4.530 13.865 C 4.801 14.003,4.715 14.000,8.000 14.000 C 11.334 14.000,11.209 14.005,11.499 13.848 C 11.774 13.698,11.805 13.651,13.384 10.998 C 14.212 9.608,14.912 8.410,14.941 8.335 C 15.008 8.159,15.011 7.847,14.946 7.680 C 14.920 7.614,14.220 6.416,13.390 5.019 C 12.230 3.066,11.849 2.447,11.747 2.344 C 11.589 2.185,11.352 2.062,11.133 2.026 C 10.939 1.995,5.034 1.996,4.844 2.028 M10.986 2.968 C 11.033 2.991,11.412 3.603,12.261 5.027 C 13.882 7.747,14.000 7.950,14.000 8.008 C 14.000 8.069,11.116 12.919,11.024 13.013 L 10.959 13.080 8.015 13.080 C 5.111 13.080,5.070 13.079,5.002 13.027 C 4.931 12.971,2.036 8.141,2.009 8.031 C 2.000 7.997,2.006 7.943,2.021 7.911 C 2.077 7.796,4.842 3.173,4.926 3.055 L 5.012 2.933 7.966 2.934 C 10.289 2.934,10.934 2.941,10.986 2.968 " stroke="none" fill-rule="evenodd" fill="black"></path></svg>