<svg width="16" height="16" viewBox="0 0 16 16" xmlns="http://www.w3.org/2000/svg"><path d="M7.373 1.029 C 7.329 1.035,7.149 1.059,6.973 1.083 C 5.545 1.272,4.112 1.995,3.041 3.068 C 1.942 4.167,1.265 5.551,1.053 7.134 C 1.001 7.518,0.994 8.347,1.038 8.747 C 1.375 11.769,3.590 14.216,6.563 14.850 C 7.452 15.040,8.548 15.040,9.437 14.850 C 11.333 14.446,12.963 13.293,13.980 11.637 C 14.996 9.982,15.264 7.936,14.715 6.027 C 14.042 3.683,12.081 1.800,9.707 1.216 C 9.096 1.066,8.836 1.036,8.107 1.026 C 7.747 1.022,7.417 1.023,7.373 1.029 M8.880 2.067 C 9.513 2.163,10.044 2.329,10.629 2.615 C 12.418 3.489,13.632 5.151,13.937 7.147 C 14.002 7.569,14.002 8.431,13.937 8.853 C 13.671 10.594,12.720 12.078,11.253 13.040 C 10.714 13.394,9.916 13.726,9.272 13.865 C 6.574 14.446,3.815 13.104,2.613 10.627 C 2.187 9.747,2.016 8.996,2.016 8.000 C 2.016 7.004,2.187 6.253,2.613 5.373 C 3.196 4.171,4.165 3.202,5.373 2.612 C 6.060 2.276,6.684 2.107,7.560 2.016 C 7.775 1.994,8.608 2.026,8.880 2.067 M7.731 4.035 C 7.073 4.222,6.793 4.989,7.187 5.527 C 7.584 6.067,8.416 6.067,8.813 5.527 C 9.164 5.047,8.988 4.375,8.441 4.105 C 8.242 4.007,7.936 3.977,7.731 4.035 M7.687 7.077 C 7.434 7.160,7.223 7.344,7.098 7.589 C 6.992 7.799,6.984 7.965,6.992 9.627 L 7.000 11.213 7.064 11.373 C 7.152 11.591,7.364 11.811,7.580 11.907 C 8.020 12.105,8.547 11.959,8.818 11.564 C 8.991 11.311,8.989 11.336,8.981 9.463 L 8.973 7.772 8.887 7.596 C 8.717 7.251,8.419 7.062,8.027 7.048 C 7.885 7.043,7.757 7.054,7.687 7.077 " stroke="none" fill-rule="evenodd" fill="black"></path></svg>