<svg width="16" height="16" viewBox="0 0 16 16" xmlns="http://www.w3.org/2000/svg"><path d="M1.741 1.296 C 1.679 1.319,1.568 1.391,1.495 1.456 C 0.972 1.927,1.357 2.797,2.064 2.740 C 2.814 2.680,3.005 1.674,2.333 1.327 C 2.193 1.254,1.896 1.239,1.741 1.296 M4.765 1.290 C 4.397 1.428,4.191 1.780,4.266 2.143 C 4.382 2.703,5.060 2.938,5.491 2.569 C 5.666 2.420,5.745 2.241,5.745 2.000 C 5.745 1.690,5.610 1.471,5.333 1.332 C 5.183 1.257,4.909 1.237,4.765 1.290 M7.741 1.296 C 7.679 1.319,7.568 1.391,7.495 1.456 C 6.972 1.927,7.357 2.797,8.064 2.740 C 8.814 2.680,9.005 1.674,8.333 1.327 C 8.193 1.254,7.896 1.239,7.741 1.296 M10.765 1.290 C 10.397 1.428,10.191 1.780,10.266 2.143 C 10.382 2.703,11.060 2.938,11.491 2.569 C 11.666 2.420,11.745 2.241,11.745 2.000 C 11.745 1.690,11.610 1.471,11.333 1.332 C 11.183 1.257,10.909 1.237,10.765 1.290 M13.741 1.296 C 13.679 1.319,13.568 1.391,13.495 1.456 C 12.972 1.927,13.357 2.797,14.064 2.740 C 14.814 2.680,15.005 1.674,14.333 1.327 C 14.193 1.254,13.896 1.239,13.741 1.296 M1.711 4.308 C 1.337 4.470,1.150 4.930,1.312 5.284 C 1.405 5.485,1.499 5.586,1.673 5.671 C 2.029 5.845,2.455 5.713,2.661 5.364 C 2.725 5.254,2.733 5.213,2.733 5.000 C 2.733 4.787,2.725 4.746,2.661 4.636 C 2.576 4.492,2.457 4.385,2.307 4.316 C 2.174 4.256,1.841 4.251,1.711 4.308 M7.711 4.308 C 7.337 4.470,7.150 4.930,7.312 5.284 C 7.405 5.485,7.499 5.586,7.673 5.671 C 8.029 5.845,8.455 5.713,8.661 5.364 C 8.725 5.254,8.733 5.213,8.733 5.000 C 8.733 4.787,8.725 4.746,8.661 4.636 C 8.576 4.492,8.457 4.385,8.307 4.316 C 8.174 4.256,7.841 4.251,7.711 4.308 M13.711 4.308 C 13.337 4.470,13.150 4.930,13.312 5.284 C 13.405 5.485,13.499 5.586,13.673 5.671 C 14.029 5.845,14.455 5.713,14.661 5.364 C 14.725 5.254,14.733 5.213,14.733 5.000 C 14.733 4.787,14.725 4.746,14.661 4.636 C 14.576 4.492,14.457 4.385,14.307 4.316 C 14.174 4.256,13.841 4.251,13.711 4.308 M1.741 7.296 C 1.679 7.319,1.568 7.391,1.495 7.456 C 0.972 7.927,1.357 8.797,2.064 8.740 C 2.814 8.680,3.005 7.674,2.333 7.327 C 2.193 7.254,1.896 7.239,1.741 7.296 M4.765 7.290 C 4.397 7.428,4.191 7.780,4.266 8.143 C 4.382 8.703,5.060 8.938,5.491 8.569 C 5.666 8.420,5.745 8.241,5.745 8.000 C 5.745 7.690,5.610 7.471,5.333 7.332 C 5.183 7.257,4.909 7.237,4.765 7.290 M7.741 7.296 C 7.679 7.319,7.568 7.391,7.495 7.456 C 6.972 7.927,7.357 8.797,8.064 8.740 C 8.814 8.680,9.005 7.674,8.333 7.327 C 8.193 7.254,7.896 7.239,7.741 7.296 M10.765 7.290 C 10.397 7.428,10.191 7.780,10.266 8.143 C 10.382 8.703,11.060 8.938,11.491 8.569 C 11.666 8.420,11.745 8.241,11.745 8.000 C 11.745 7.690,11.610 7.471,11.333 7.332 C 11.183 7.257,10.909 7.237,10.765 7.290 M13.741 7.296 C 13.679 7.319,13.568 7.391,13.495 7.456 C 12.972 7.927,13.357 8.797,14.064 8.740 C 14.814 8.680,15.005 7.674,14.333 7.327 C 14.193 7.254,13.896 7.239,13.741 7.296 M1.711 10.308 C 1.337 10.470,1.150 10.930,1.312 11.284 C 1.405 11.485,1.499 11.586,1.673 11.671 C 2.029 11.845,2.455 11.713,2.661 11.364 C 2.725 11.254,2.733 11.213,2.733 11.000 C 2.733 10.787,2.725 10.746,2.661 10.636 C 2.576 10.492,2.457 10.385,2.307 10.316 C 2.174 10.256,1.841 10.251,1.711 10.308 M7.711 10.308 C 7.337 10.470,7.150 10.930,7.312 11.284 C 7.405 11.485,7.499 11.586,7.673 11.671 C 8.029 11.845,8.455 11.713,8.661 11.364 C 8.725 11.254,8.733 11.213,8.733 11.000 C 8.733 10.787,8.725 10.746,8.661 10.636 C 8.576 10.492,8.457 10.385,8.307 10.316 C 8.174 10.256,7.841 10.251,7.711 10.308 M13.711 10.308 C 13.337 10.470,13.150 10.930,13.312 11.284 C 13.405 11.485,13.499 11.586,13.673 11.671 C 14.029 11.845,14.455 11.713,14.661 11.364 C 14.725 11.254,14.733 11.213,14.733 11.000 C 14.733 10.787,14.725 10.746,14.661 10.636 C 14.576 10.492,14.457 10.385,14.307 10.316 C 14.174 10.256,13.841 10.251,13.711 10.308 M1.741 13.296 C 1.679 13.319,1.568 13.391,1.495 13.456 C 0.972 13.927,1.357 14.797,2.064 14.740 C 2.814 14.680,3.005 13.674,2.333 13.327 C 2.193 13.254,1.896 13.239,1.741 13.296 M4.765 13.290 C 4.397 13.428,4.191 13.780,4.266 14.143 C 4.382 14.703,5.060 14.938,5.491 14.569 C 5.666 14.420,5.745 14.241,5.745 14.000 C 5.745 13.690,5.610 13.471,5.333 13.332 C 5.183 13.257,4.909 13.237,4.765 13.290 M7.741 13.296 C 7.679 13.319,7.568 13.391,7.495 13.456 C 6.972 13.927,7.357 14.797,8.064 14.740 C 8.814 14.680,9.005 13.674,8.333 13.327 C 8.193 13.254,7.896 13.239,7.741 13.296 M10.765 13.290 C 10.397 13.428,10.191 13.780,10.266 14.143 C 10.382 14.703,11.060 14.938,11.491 14.569 C 11.666 14.420,11.745 14.241,11.745 14.000 C 11.745 13.690,11.610 13.471,11.333 13.332 C 11.183 13.257,10.909 13.237,10.765 13.290 M13.741 13.296 C 13.679 13.319,13.568 13.391,13.495 13.456 C 12.972 13.927,13.357 14.797,14.064 14.740 C 14.814 14.680,15.005 13.674,14.333 13.327 C 14.193 13.254,13.896 13.239,13.741 13.296 " stroke="none" fill-rule="evenodd" fill="black"></path></svg>