<svg width="16" height="16" viewBox="0 0 16 16" xmlns="http://www.w3.org/2000/svg"><path d="M7.320 1.070 C 6.710 1.128,5.952 1.312,5.406 1.535 C 3.789 2.195,2.513 3.378,1.759 4.920 C 1.502 5.443,1.386 5.757,1.254 6.278 C 1.087 6.935,1.054 7.221,1.054 8.000 C 1.054 8.779,1.087 9.065,1.254 9.722 C 1.386 10.243,1.502 10.556,1.760 11.084 C 2.436 12.465,3.534 13.563,4.920 14.241 C 5.443 14.498,5.757 14.614,6.278 14.746 C 6.898 14.903,7.231 14.944,7.880 14.945 C 8.378 14.945,8.463 14.938,8.653 14.885 C 9.442 14.665,10.063 14.089,10.325 13.333 C 10.432 13.025,10.457 12.826,10.472 12.173 C 10.484 11.638,10.495 11.508,10.538 11.376 C 10.668 10.981,10.981 10.668,11.376 10.538 C 11.508 10.495,11.638 10.484,12.173 10.472 C 12.977 10.454,13.215 10.407,13.670 10.179 C 14.241 9.891,14.709 9.302,14.882 8.653 C 14.955 8.383,14.978 7.813,14.936 7.371 C 14.684 4.741,13.042 2.534,10.594 1.535 C 9.626 1.139,8.409 0.967,7.320 1.070 M8.522 2.135 C 9.900 2.269,11.160 2.866,12.147 3.853 C 13.170 4.877,13.761 6.159,13.871 7.601 C 13.911 8.115,13.886 8.297,13.736 8.600 C 13.578 8.920,13.295 9.179,12.960 9.312 C 12.828 9.364,12.745 9.371,12.120 9.387 C 11.463 9.404,11.416 9.408,11.219 9.476 C 10.362 9.769,9.715 10.390,9.466 11.160 C 9.411 11.328,9.403 11.420,9.388 12.067 C 9.372 12.715,9.364 12.803,9.312 12.946 C 9.166 13.343,8.832 13.675,8.438 13.816 C 8.215 13.895,7.836 13.910,7.370 13.856 C 5.346 13.622,3.589 12.366,2.690 10.513 C 2.237 9.579,2.037 8.486,2.135 7.478 C 2.336 5.411,3.601 3.605,5.487 2.690 C 6.421 2.237,7.515 2.037,8.522 2.135 M6.507 3.629 C 6.213 3.678,5.865 3.919,5.703 4.187 C 5.482 4.551,5.494 5.079,5.732 5.424 C 5.997 5.810,6.464 6.024,6.879 5.951 C 7.363 5.866,7.759 5.499,7.865 5.037 C 8.049 4.241,7.328 3.494,6.507 3.629 M10.192 4.316 C 9.783 4.461,9.489 4.813,9.407 5.254 C 9.295 5.858,9.763 6.483,10.411 6.594 C 11.148 6.720,11.877 5.979,11.735 5.249 C 11.660 4.863,11.419 4.543,11.075 4.372 C 10.909 4.289,10.870 4.281,10.613 4.274 C 10.392 4.267,10.304 4.276,10.192 4.316 M4.448 6.878 C 4.229 6.948,4.079 7.044,3.925 7.212 C 3.499 7.679,3.502 8.330,3.934 8.796 C 4.348 9.243,5.040 9.299,5.502 8.922 C 6.169 8.379,6.096 7.411,5.357 6.978 C 5.103 6.829,4.730 6.788,4.448 6.878 " stroke="none" fill-rule="evenodd" fill="black"></path></svg>