<svg width="16" height="16" viewBox="0 0 16 16" xmlns="http://www.w3.org/2000/svg"><path d="M6.227 1.043 C 5.598 1.108,5.076 1.363,4.671 1.803 C 4.340 2.162,4.157 2.535,4.061 3.041 C 4.016 3.277,4.013 3.595,4.013 8.000 C 4.013 12.405,4.016 12.723,4.061 12.959 C 4.125 13.300,4.213 13.541,4.364 13.791 C 4.616 14.208,4.974 14.534,5.400 14.735 C 5.911 14.976,6.135 14.998,8.000 14.998 C 9.865 14.998,10.089 14.976,10.600 14.735 C 11.026 14.534,11.384 14.208,11.636 13.791 C 11.787 13.541,11.875 13.300,11.939 12.959 C 11.984 12.723,11.987 12.405,11.987 8.000 C 11.987 3.595,11.984 3.277,11.939 3.041 C 11.913 2.903,11.863 2.706,11.827 2.604 C 11.684 2.192,11.327 1.731,10.948 1.470 C 10.571 1.209,10.241 1.092,9.733 1.040 C 9.429 1.009,6.530 1.011,6.227 1.043 M14.280 1.058 C 14.156 1.123,14.103 1.177,14.050 1.293 C 14.003 1.396,14.001 1.652,14.001 8.000 C 14.001 14.389,14.003 14.604,14.051 14.710 C 14.165 14.961,14.492 15.070,14.737 14.939 C 14.819 14.894,14.956 14.730,14.980 14.646 C 15.006 14.551,15.006 1.449,14.980 1.354 C 14.951 1.253,14.805 1.093,14.701 1.049 C 14.586 1.001,14.379 1.005,14.280 1.058 M9.861 2.063 C 10.121 2.118,10.353 2.245,10.549 2.439 C 10.753 2.641,10.866 2.837,10.926 3.093 C 10.970 3.281,10.973 3.594,10.973 8.000 C 10.973 12.406,10.970 12.719,10.926 12.907 C 10.864 13.169,10.752 13.361,10.536 13.573 C 10.332 13.773,10.147 13.875,9.866 13.940 C 9.688 13.982,9.489 13.987,8.000 13.987 C 6.511 13.987,6.312 13.982,6.134 13.940 C 5.853 13.875,5.668 13.773,5.464 13.573 C 5.248 13.361,5.136 13.169,5.074 12.907 C 5.030 12.719,5.027 12.406,5.027 8.000 C 5.027 3.594,5.030 3.281,5.074 3.093 C 5.100 2.983,5.159 2.827,5.205 2.747 C 5.380 2.440,5.753 2.152,6.068 2.079 C 6.332 2.018,6.735 2.005,8.187 2.013 C 9.403 2.020,9.701 2.029,9.861 2.063 " stroke="none" fill-rule="evenodd" fill="black"></path></svg>