<svg width="16" height="16" viewBox="0 0 16 16" xmlns="http://www.w3.org/2000/svg"><path d="M5.427 3.076 C 5.266 3.151,5.087 3.339,5.039 3.482 C 4.987 3.636,4.997 3.833,5.066 3.992 C 5.118 4.115,5.354 4.348,7.149 6.057 C 8.263 7.117,9.173 7.991,9.173 8.000 C 9.173 8.009,8.263 8.883,7.149 9.943 C 5.365 11.641,5.118 11.886,5.065 12.008 C 4.951 12.267,4.994 12.536,5.182 12.740 C 5.386 12.960,5.649 13.045,5.920 12.976 C 6.009 12.953,6.122 12.907,6.170 12.874 C 6.218 12.840,7.289 11.832,8.549 10.633 C 11.074 8.230,10.996 8.314,10.996 8.000 C 10.996 7.686,11.073 7.769,8.551 5.367 C 6.010 2.946,6.090 3.013,5.751 3.014 C 5.607 3.014,5.527 3.029,5.427 3.076 " stroke="none" fill-rule="evenodd" fill="black"></path></svg>