<svg width="16" height="16" viewBox="0 0 16 16" xmlns="http://www.w3.org/2000/svg"><path d="M3.387 1.044 C 2.855 1.100,2.446 1.254,2.061 1.544 C 1.587 1.901,1.260 2.382,1.124 2.920 C 1.001 3.408,1.000 3.443,1.000 8.000 C 1.000 12.557,1.001 12.592,1.124 13.080 C 1.339 13.932,2.069 14.662,2.920 14.876 C 3.409 14.999,3.444 15.000,8.000 15.000 C 12.552 15.000,12.588 14.999,13.080 14.877 C 13.912 14.670,14.670 13.912,14.877 13.080 C 14.999 12.588,15.000 12.552,15.000 8.000 C 15.000 3.443,14.999 3.408,14.876 2.920 C 14.740 2.382,14.413 1.901,13.939 1.544 C 13.540 1.244,13.147 1.100,12.564 1.041 C 12.222 1.007,3.719 1.009,3.387 1.044 M12.320 2.027 C 12.934 2.073,13.184 2.172,13.506 2.494 C 13.831 2.819,13.928 3.069,13.973 3.693 C 14.009 4.193,14.009 11.807,13.973 12.307 C 13.958 12.512,13.928 12.751,13.906 12.837 C 13.808 13.221,13.483 13.617,13.119 13.796 C 12.710 13.997,13.001 13.987,8.000 13.987 C 2.999 13.987,3.290 13.997,2.881 13.796 C 2.613 13.664,2.335 13.385,2.201 13.114 C 2.004 12.715,2.014 12.992,2.014 8.000 C 2.014 3.903,2.018 3.515,2.059 3.307 C 2.125 2.979,2.258 2.730,2.490 2.498 C 2.805 2.183,3.074 2.071,3.616 2.030 C 4.047 1.997,11.885 1.994,12.320 2.027 M4.993 8.007 L 5.000 11.000 8.000 11.000 L 11.000 11.000 11.007 8.007 L 11.014 5.013 8.000 5.013 L 4.986 5.013 4.993 8.007 M10.000 8.000 L 10.000 10.000 8.000 10.000 L 6.000 10.000 6.000 8.000 L 6.000 6.000 8.000 6.000 L 10.000 6.000 10.000 8.000 " stroke="none" fill-rule="evenodd" fill="black"></path></svg>