<svg width="16" height="16" viewBox="0 0 16 16" xmlns="http://www.w3.org/2000/svg"><path d="M9.898 3.100 C 9.772 3.168,9.234 3.666,7.449 5.367 C 4.927 7.769,5.004 7.686,5.004 8.000 C 5.004 8.314,4.926 8.230,7.451 10.633 C 8.711 11.832,9.782 12.840,9.830 12.874 C 9.878 12.907,9.991 12.953,10.080 12.976 C 10.351 13.045,10.614 12.960,10.818 12.740 C 11.005 12.537,11.048 12.271,10.934 12.008 C 10.882 11.885,10.646 11.652,8.851 9.943 C 7.737 8.883,6.827 8.009,6.827 8.000 C 6.827 7.991,7.737 7.117,8.851 6.057 C 10.646 4.348,10.882 4.115,10.934 3.992 C 11.048 3.729,11.005 3.464,10.816 3.258 C 10.661 3.089,10.488 3.014,10.249 3.014 C 10.084 3.013,10.036 3.025,9.898 3.100 " stroke="none" fill-rule="evenodd" fill="black"></path></svg>