<svg width="16" height="16" viewBox="0 0 16 16" xmlns="http://www.w3.org/2000/svg"><path d="M3.476 1.044 C 2.568 1.130,1.825 1.598,1.374 2.369 C 1.138 2.771,1.051 3.155,1.013 3.960 C 0.981 4.649,0.980 11.490,1.013 12.120 C 1.041 12.660,1.089 12.954,1.199 13.254 C 1.450 13.942,2.060 14.551,2.751 14.803 C 3.283 14.997,3.651 15.012,8.000 15.012 C 11.515 15.012,12.383 14.996,12.806 14.921 C 13.870 14.734,14.714 13.895,14.920 12.823 C 14.997 12.416,15.012 11.671,15.012 8.080 C 15.012 4.488,14.996 3.619,14.921 3.194 C 14.776 2.371,14.252 1.686,13.466 1.291 C 13.223 1.169,12.862 1.078,12.477 1.042 C 12.106 1.007,3.843 1.009,3.476 1.044 M12.560 2.051 C 12.840 2.098,13.011 2.163,13.223 2.304 C 13.629 2.574,13.866 2.944,13.949 3.440 C 13.994 3.706,14.017 11.557,13.975 12.200 C 13.936 12.800,13.867 13.017,13.610 13.343 C 13.367 13.654,13.033 13.856,12.627 13.938 C 12.400 13.984,12.140 13.987,8.000 13.987 C 3.860 13.987,3.600 13.984,3.373 13.938 C 2.842 13.830,2.426 13.509,2.185 13.019 C 2.011 12.666,2.019 12.861,2.007 8.333 C 1.997 4.305,2.007 3.638,2.082 3.277 C 2.196 2.729,2.738 2.192,3.289 2.080 C 3.616 2.014,4.131 2.007,8.187 2.012 C 11.411 2.016,12.405 2.025,12.560 2.051 M4.280 3.058 C 4.156 3.123,4.103 3.177,4.050 3.293 C 4.003 3.396,4.001 3.593,4.001 8.000 C 4.001 12.436,4.003 12.604,4.051 12.710 C 4.165 12.961,4.492 13.070,4.737 12.939 C 4.819 12.894,4.956 12.730,4.980 12.646 C 5.006 12.551,5.006 3.449,4.980 3.354 C 4.951 3.253,4.805 3.093,4.701 3.049 C 4.586 3.001,4.379 3.005,4.280 3.058 M11.293 3.050 C 11.193 3.094,11.048 3.256,11.020 3.354 C 10.994 3.449,10.994 12.551,11.020 12.646 C 11.044 12.730,11.181 12.894,11.263 12.939 C 11.508 13.070,11.835 12.961,11.949 12.710 C 11.997 12.604,11.999 12.435,11.999 8.006 C 12.000 3.065,12.007 3.313,11.872 3.165 C 11.748 3.027,11.472 2.973,11.293 3.050 " stroke="none" fill-rule="evenodd" fill="black"></path></svg>