<svg width="24" height="24" viewBox="0 0 24 24" fill="none" xmlns="http://www.w3.org/2000/svg">
<path fill-rule="evenodd" clip-rule="evenodd" d="M12.0058 6.86423C9.16826 6.86423 6.86614 9.16546 6.86614 12.0019C6.86614 14.8385 9.16826 17.1396 12.0058 17.1396C14.8435 17.1396 17.1456 14.8385 17.1456 12.0019C17.1456 9.16546 14.8435 6.86423 12.0058 6.86423ZM12.0058 15.3346C10.1649 15.3346 8.67188 13.8422 8.67188 12.0019C8.67188 10.1618 10.1649 8.66927 12.0058 8.66927C13.8468 8.66927 15.3398 10.1618 15.3398 12.0019C15.3398 13.8422 13.8468 15.3346 12.0058 15.3346Z" fill="black"/>
<path d="M17.3488 7.86058C18.0094 7.86058 18.5487 7.32532 18.5487 6.66113C18.5487 6.00085 18.0094 5.46167 17.3488 5.46167C16.6883 5.46167 16.1489 5.99694 16.1489 6.66113C16.1489 7.32142 16.6844 7.86058 17.3488 7.86058Z" fill="black"/>
<path fill-rule="evenodd" clip-rule="evenodd" d="M12.0058 2C9.28943 2 8.94938 2.01172 7.88235 2.05861C6.81923 2.10549 6.08834 2.2774 5.45515 2.52354C4.79461 2.7814 4.23568 3.12131 3.68067 3.68002C3.12175 4.23481 2.78171 4.79352 2.52375 5.44989C2.27751 6.08674 2.10553 6.81344 2.05863 7.87615C2.01173 8.94667 2 9.28658 2 12.0019C2 14.7174 2.01173 15.0573 2.05863 16.1238C2.10553 17.1865 2.27751 17.9172 2.52375 18.5501C2.78171 19.2104 3.12175 19.7691 3.68067 20.3239C4.23568 20.8787 4.79461 21.2225 5.45125 21.4765C6.08834 21.7226 6.81532 21.8945 7.87845 21.9414C8.94547 21.9883 9.28552 22 12.0019 22C14.7184 22 15.0585 21.9883 16.1255 21.9414C17.1885 21.8945 17.9195 21.7226 18.5526 21.4765C19.2093 21.2225 19.7682 20.8787 20.3233 20.3239C20.8783 19.7691 21.2222 19.2104 21.4763 18.554C21.7225 17.9172 21.8945 17.1905 21.9414 16.1277C21.9883 15.0612 22 14.7213 22 12.0058C22 9.29049 21.9883 8.95057 21.9414 7.88396C21.8945 6.82125 21.7225 6.09065 21.4763 5.45771C21.23 4.79352 20.89 4.23481 20.3311 3.68002C19.776 3.12522 19.2171 2.7814 18.5605 2.52745C17.9234 2.28131 17.1964 2.1094 16.1333 2.06251C15.0624 2.01172 14.7223 2 12.0058 2ZM12.0058 3.80114C14.6793 3.80114 14.9959 3.81285 16.0473 3.85974C17.0245 3.90272 17.5521 4.06681 17.9038 4.20355C18.369 4.38328 18.7051 4.60207 19.053 4.94979C19.4047 5.30143 19.6197 5.63352 19.7995 6.09845C19.9363 6.45009 20.1005 6.98145 20.1435 7.95429C20.1904 9.00918 20.2021 9.32565 20.2021 11.9942C20.2021 14.6665 20.1904 14.983 20.1435 16.034C20.1005 17.0107 19.9363 17.5382 19.7995 17.8898C19.6197 18.3547 19.4008 18.6907 19.053 19.0385C18.7012 19.3901 18.369 19.605 17.9038 19.7847C17.5521 19.9215 17.0205 20.0855 16.0473 20.1285C14.992 20.1755 14.6754 20.1872 12.0058 20.1872C9.33242 20.1872 9.01583 20.1755 7.96444 20.1285C6.9873 20.0855 6.45965 19.9215 6.10787 19.7847C5.64276 19.605 5.30663 19.3862 4.95876 19.0385C4.607 18.6868 4.39203 18.3547 4.21224 17.8898C4.07544 17.5382 3.91127 17.0068 3.86828 16.034C3.82138 14.9791 3.80965 14.6626 3.80965 11.9942C3.80965 9.32175 3.82138 9.00527 3.86828 7.95429C3.91127 6.97754 4.07544 6.45009 4.21224 6.09845C4.39203 5.63352 4.61091 5.29752 4.95876 4.94979C5.31054 4.59816 5.64276 4.38328 6.10787 4.20355C6.45965 4.06681 6.99121 3.90272 7.96444 3.85974C9.01583 3.81285 9.33242 3.80114 12.0058 3.80114Z" fill="black"/>
</svg>
