<svg xmlns="http://www.w3.org/2000/svg" xmlns:xlink="http://www.w3.org/1999/xlink" width="0" height="0" style="display:none;"><symbol id="ue-share-behance"><path d="M1 12.362v7.361l3.69-.013c3.318-.012 3.722-.02 4.01-.083.835-.181 1.356-.382 1.894-.733 1.137-.741 1.726-1.919 1.726-3.454 0-1.154-.326-2.1-.954-2.767a3.56 3.56 0 0 0-1.423-.929c-.063-.022-.03-.054.179-.175.543-.317 1.11-.969 1.329-1.529.197-.505.24-.817.218-1.572-.024-.802-.093-1.121-.368-1.688-.486-1.006-1.505-1.578-3.095-1.738C7.954 5.016 6.463 5 4.396 5H1zM15.329 6.71l.011.71h5.48l.011-.71.011-.71h-5.524zM7.6 7.607c.318.084.705.302.863.487.248.29.314.531.316 1.146.001.504-.006.555-.106.769-.141.3-.418.591-.689.724-.445.218-.54.227-2.352.227H3.96V7.513l1.71.018c1.328.013 1.759.03 1.93.076m10.12 1.174c-.033.007-.195.034-.36.06-1.509.243-2.87 1.29-3.559 2.739-.375.788-.557 1.602-.588 2.62-.039 1.28.161 2.244.678 3.255.873 1.709 2.475 2.601 4.549 2.532.482-.016.705-.042 1.003-.12.896-.232 1.482-.55 2.038-1.106a4.5 4.5 0 0 0 .915-1.266c.152-.308.364-.889.364-1 0-.046-.2-.055-1.173-.055h-1.173l-.097.209c-.21.455-.841.939-1.419 1.09-.305.079-1.008.08-1.31.001-.86-.224-1.4-.84-1.605-1.833a3 3 0 0 1-.063-.545v-.242l3.53-.01 3.53-.01-.004-.7c-.012-2.398-1.026-4.321-2.732-5.178a4 4 0 0 0-1.284-.404c-.33-.05-1.062-.072-1.24-.037m1.083 2.283c.29.085.58.254.786.458.299.297.624 1.065.658 1.558l.013.18-2.17.01-2.17.011v-.134c0-.212.147-.73.289-1.021.241-.492.819-.96 1.334-1.081.269-.063 1.019-.052 1.26.019M7.82 13.22c.37.078.811.299 1.017.51.203.208.421.629.485.939.07.337.027 1.087-.079 1.391-.159.455-.504.796-.993.982-.452.172-.842.2-2.618.188l-1.652-.01-.01-2.03-.011-2.03 1.791.001c1.419 0 1.848.013 2.07.059"></path></symbol><symbol id="ue-share-bilibili"><path d="M5.545 2.063c-.135.043-.262.129-.408.275-.345.345-.422.779-.214 1.208q.082.17 1.139 1.21c.582.572 1.058 1.05 1.058 1.062s-.607.022-1.35.022c-.752 0-1.465.019-1.61.043-1.199.194-2.298 1.04-2.821 2.17a5 5 0 0 0-.226.608l-.092.319-.012 4.789c-.011 4.572-.008 4.805.065 5.16.3 1.469 1.355 2.562 2.861 2.964l.325.087h15.48l.325-.087c1.506-.402 2.561-1.495 2.861-2.964.073-.355.076-.588.065-5.16l-.012-4.789-.092-.319a5 5 0 0 0-.226-.608c-.523-1.13-1.622-1.976-2.821-2.17-.145-.024-.858-.043-1.61-.043-.742 0-1.35-.01-1.35-.023s.476-.491 1.057-1.062c.708-.695 1.085-1.095 1.14-1.209.207-.427.131-.864-.21-1.203-.366-.365-.882-.44-1.314-.192-.111.064-.936.845-2.008 1.899l-1.819 1.79h-3.452L8.455 4.05C7.313 2.926 6.562 2.217 6.436 2.145a1.17 1.17 0 0 0-.891-.082M19.38 8.002c.56.079.997.397 1.249.909l.151.305v4.662c0 4.385-.004 4.674-.072 4.868a1.67 1.67 0 0 1-1.065 1.016c-.244.076-.431.078-7.643.078s-7.399-.002-7.643-.078a1.67 1.67 0 0 1-1.065-1.016c-.068-.194-.072-.483-.072-4.866V9.22l.127-.269c.246-.518.704-.87 1.233-.946.346-.051 14.45-.053 14.8-.003M7.312 11.254a1.09 1.09 0 0 0-.793.85c-.066.318-.031 2.504.043 2.716.08.228.413.55.655.633a1.114 1.114 0 0 0 1.387-.581c.095-.21.096-.227.096-1.512 0-1.235-.004-1.309-.084-1.48-.122-.264-.273-.423-.508-.536a1.15 1.15 0 0 0-.796-.09m8.8 0a1.09 1.09 0 0 0-.793.85c-.066.318-.031 2.504.043 2.716.08.228.413.55.655.633a1.114 1.114 0 0 0 1.387-.581c.095-.21.096-.227.096-1.512 0-1.235-.004-1.309-.084-1.48-.122-.264-.273-.423-.508-.536a1.15 1.15 0 0 0-.796-.09"></path></symbol><symbol id="ue-share-call"><path d="M5.64 2.025c-.394.076-1.02.376-1.46.701-.394.291-1.32 1.235-1.571 1.603-.407.594-.562 1.037-.596 1.711-.075 1.442.884 3.586 2.676 5.983 1.592 2.129 3.873 4.497 6.036 6.263 2.518 2.057 4.876 3.389 6.473 3.656 1.274.213 2.166-.136 3.322-1.299.904-.91 1.409-1.771 1.467-2.503.04-.506-.191-.98-.733-1.505-.844-.816-2.434-2.001-2.965-2.208-.193-.076-.613-.087-.889-.024-.26.06-.673.268-1.2.605-.882.563-1.187.697-1.502.662-.442-.05-2.095-1.003-3.01-1.735a16 16 0 0 1-1.754-1.715 12.4 12.4 0 0 1-1.403-2.132c-.257-.519-.271-.563-.271-.828 0-.339.102-.576.542-1.264.747-1.168.902-1.767.617-2.39-.283-.617-1.524-2.275-2.225-2.972-.4-.398-.768-.59-1.175-.613a2.4 2.4 0 0 0-.379.004"></path></symbol><symbol id="ue-share-discord"><path d="M7.957 2.758a20.6 20.6 0 0 0-3.696 1.146l-.606.257-.224.35C1.471 7.565.415 10.529.074 13.94c-.056.563-.069 2.752-.02 3.432.029.406.046.484.12.554.13.123 1.392.954 1.846 1.216.571.33 1.632.854 2.252 1.114.543.228 1.772.664 1.87.664.146 0 1.364-1.993 1.271-2.081a8 8 0 0 0-.633-.296c-.642-.283-1.265-.615-1.288-.687-.008-.024.085-.121.206-.214l.22-.17.591.24c1.354.55 2.663.883 4.131 1.053.633.073 2.186.062 2.88-.02a15.5 15.5 0 0 0 4.246-1.147l.306-.13.202.156c.112.086.203.184.204.219.003.101-1.015.629-1.728.897-.119.044-.19.095-.19.135 0 .182 1.171 2.044 1.285 2.045.085 0 1.01-.317 1.595-.547.712-.281 2.152-1.001 2.855-1.427.861-.523 1.581-1.028 1.604-1.126.044-.183.101-1.36.101-2.093-.001-3.654-1.005-7.222-2.93-10.407-.721-1.193-.664-1.128-1.17-1.344a20 20 0 0 0-3.077-1.038c-.673-.166-1.413-.309-1.457-.282-.018.011-.166.302-.329.645l-.297.625-.173-.023c-.99-.13-1.464-.158-2.607-.157-1.007 0-1.349.016-1.959.089-.548.066-.744.077-.755.043a24 24 0 0 0-.313-.643c-.211-.421-.318-.594-.366-.593-.037.002-.311.054-.61.116m.514 7.582c.628.148 1.128.566 1.446 1.208.343.691.324 1.68-.045 2.385-.187.357-.674.837-.998.983-.831.374-1.622.224-2.276-.433a2.37 2.37 0 0 1-.66-1.183c-.088-.376-.061-1.056.056-1.42.366-1.134 1.419-1.789 2.477-1.54m7.894-.019c.779.146 1.47.83 1.698 1.679.092.344.094 1.01.004 1.36-.239.925-.952 1.609-1.804 1.732-1.333.192-2.514-1.069-2.409-2.572.046-.657.278-1.176.724-1.621.512-.51 1.114-.705 1.787-.578"></path></symbol><symbol id="ue-share-download"><path fill-rule="evenodd" d="M11.615 2.056c-.277.068-.52.217-.748.46-.22.235-.33.468-.386.816-.025.154-.041 1.702-.041 4.078v3.83l-1.61.001c-1.486.001-1.623.007-1.775.076a.774.774 0 0 0-.413.88c.045.168.251.386 2.493 2.634 2.335 2.342 2.454 2.454 2.655 2.513.189.055.231.055.42 0 .201-.058.319-.17 2.655-2.513 2.318-2.324 2.447-2.461 2.491-2.643a.765.765 0 0 0-.411-.871c-.152-.069-.289-.075-1.775-.076l-1.61-.001V7.41c0-2.481-.015-3.921-.043-4.089a1.537 1.537 0 0 0-1.902-1.265M3.189 18.963a1.67 1.67 0 0 0-.916.627 1.538 1.538 0 0 0 .801 2.33c.251.079.359.08 8.926.08s8.675-.001 8.926-.08a1.535 1.535 0 0 0 .827-2.289c-.16-.252-.355-.417-.671-.567l-.262-.124-8.74-.006c-5.012-.004-8.804.009-8.891.029"></path></symbol><symbol id="ue-share-dribbble"><path d="M11.28 2.024c-.099.009-.387.044-.64.078a9.99 9.99 0 0 0-8.455 8.001 9.99 9.99 0 0 0 3.575 9.704 9.97 9.97 0 0 0 13.262-.707c.266-.264.606-.633.756-.819a9.99 9.99 0 0 0-2.715-14.893c-1.497-.886-3.073-1.33-4.843-1.365a16 16 0 0 0-.94.001m1.526 1.497a8.73 8.73 0 0 1 4.518 1.822c.149.119.283.235.297.258.038.063-.146.29-.603.742-.865.859-2.195 1.71-3.434 2.199-.336.132-.402.147-.432.097l-.396-.693a50 50 0 0 0-2.438-3.797 6 6 0 0 1-.308-.452c.018-.017 1.047-.176 1.23-.19.417-.031 1.18-.024 1.566.014M8.854 4.964c.261.375.708 1.041.992 1.48.508.783 1.674 2.703 1.674 2.756 0 .03-.078.05-1.18.298a31 31 0 0 1-5.775.73c-.906.024-.934.022-.912-.052a10 10 0 0 0 .085-.323c.49-1.939 1.79-3.77 3.498-4.93.238-.162 1.082-.644 1.123-.642.012.001.235.308.495.683m9.937 1.886a8.6 8.6 0 0 1 1.665 4.064c.059.455.085 1.006.048 1.006-.008 0-.157-.026-.33-.059a24 24 0 0 0-2.142-.263c-.596-.046-2.738-.029-3.252.025l-.2.022-.116-.293c-.064-.16-.228-.538-.365-.838l-.249-.546.265-.11c1.548-.644 3.353-1.896 4.225-2.931.132-.157.251-.286.265-.286.014-.001.098.094.186.209m-6.405 4c.08.16.233.478.338.709l.192.419-.528.183a11.8 11.8 0 0 0-3.286 1.771c-1.128.85-2.384 2.172-3.163 3.328-.148.22-.284.406-.302.413-.039.015-.451-.499-.715-.89-.918-1.365-1.372-2.778-1.462-4.553l-.023-.47h.471c2.311 0 5.533-.441 7.712-1.056.264-.074.511-.137.549-.14.048-.003.115.086.217.286m6.294 2.144c.567.085 1.157.205 1.51.307.149.043.21.081.21.13a8.452 8.452 0 0 1-2.502 4.724c-.358.341-1.095.942-1.123.914a24 24 0 0 1-.154-.728 39 39 0 0 0-1.26-4.597c-.134-.393-.234-.725-.222-.736.011-.011.205-.044.431-.072.628-.079 2.42-.046 3.11.058m-4.888 1.129c.347.952.728 2.196 1.009 3.297.227.887.519 2.226.519 2.38 0 .056-.077.104-.31.193a8.4 8.4 0 0 1-3.581.533 8.6 8.6 0 0 1-4.381-1.565l-.293-.206.128-.228c.927-1.651 2.728-3.29 4.749-4.32.647-.331 1.793-.818 1.867-.794.021.007.153.326.293.71"></path></symbol><symbol id="ue-share-eewu"><path d="m.175 4.549-.126.015-.029.62c-.026.561-.022.628.042.698.066.073.13.078 1.106.078h1.036l.098-.098c.095-.095.098-.116.098-.672 0-.393-.015-.589-.048-.622-.035-.035-.317-.046-1.05-.042-.551.004-1.058.014-1.127.023m3.505.01c-.052.033-.061.456-.071 3.334-.01 3.205-.008 3.299.067 3.392l.077.095h3.679c3.562 0 3.682-.002 3.764-.076l.084-.076V7.937c0-2.939-.007-3.298-.063-3.354s-.453-.063-3.77-.062c-2.266 0-3.73.015-3.767.038m11.281.038c-.022.043-.041.295-.041.56v.483h-1.201l.023-.15c.042-.266-.001-.285-.658-.296-.557-.008-.578-.006-.65.083-.071.088-.074.26-.074 4.367 0 4.223.001 4.277.08 4.356.072.072.133.08.591.08.398 0 .531-.014.6-.062l.089-.063V7.12h1.2l-.01 4.11-.01 4.11-1.236.007c-1.006.007-1.247.018-1.293.065-.043.043-.057.194-.06.642-.004.513.005.595.069.665.07.078.121.081 1.305.081h1.232l.011 1.298c.008.855.027 1.313.055 1.341.048.048 1.065.07 1.203.026.048-.016.098-.058.112-.095s.025-.629.023-1.316l-.003-1.249.17-.013c.243-.017.267-.088.259-.754-.006-.479-.017-.561-.083-.634a.28.28 0 0 0-.19-.084h-.114v-4.077c0-3.984.002-4.078.077-4.102a.7.7 0 0 0 .18-.106l.103-.081v-.636c0-.707.022-.653-.28-.687l-.1-.011-.011-.497c-.007-.283-.03-.521-.055-.55-.033-.04-.199-.053-.657-.053-.566 0-.617.006-.656.077m2.559-.038c-.053.034-.06.753-.06 6.083 0 5.937.001 6.045.078 6.101.057.043.213.057.61.057.479 0 .54-.008.612-.08.079-.079.08-.133.08-4.84V7.12H20v4.76c0 4.707.001 4.761.08 4.84.072.072.133.08.616.08.468 0 .547-.01.63-.077l.094-.076-.016-4.764-.016-4.763H22.6v5.397c0 4.853-.006 5.404-.063 5.46-.054.054-.225.063-1.257.063-1.299 0-1.32-.004-1.32-.225 0-.076-.034-.113-.145-.159-.119-.05-.326-.059-1.178-.048-1.111.013-1.168.024-1.071.201.097.176 1.654 1.53 1.859 1.616.107.044.534.055 2.231.055h2.1l.112-.097.112-.096.01-6.743c.011-6.71.011-6.743-.07-6.824-.078-.078-.129-.08-2.58-.08h-2.5v-.497c0-.399-.012-.51-.063-.56s-.167-.063-.63-.062c-.312 0-.594.017-.627.038M9.88 6.6v.6H5.04V6h4.84zm-9.775.683L0 7.366V8.64h1v5.302c0 4.674.007 5.316.061 5.42l.061.118H2.4v-6.077c0-5.471-.006-6.084-.063-6.14-.054-.054-.21-.063-1.094-.063-.984 0-1.037.004-1.138.083M9.88 9.3v.62H5.04V8.68h4.84zm-6.239 3.417c-.023.043-.041.329-.041.64 0 .51.008.571.08.643.078.078.133.08 2.92.08h2.84v1.288l-2.81-.009a470 470 0 0 0-2.859-.004c-.121.012-.171.235-.171.763 0 .469.008.53.08.602.079.079.133.08 2.933.08h2.854l-.004.554c-.002.406-.018.571-.058.62-.049.059-.212.066-1.607.066-1.684 0-1.678.001-1.678-.218 0-.178-.051-.187-1.318-.211-.661-.013-1.202-.013-1.202 0 0 .136.582.703 1.546 1.505.466.387.258.362 3.002.363l2.408.001.112-.096.112-.097.012-1.243.011-1.244h.139a.32.32 0 0 0 .218-.08c.073-.073.08-.133.08-.66s-.007-.587-.08-.66a.32.32 0 0 0-.2-.08h-.12v-1.24h.138c.23 0 .262-.09.262-.729 0-.498-.008-.559-.08-.631-.079-.079-.133-.08-3.779-.08-3.615 0-3.699.002-3.74.077"></path></symbol><symbol id="ue-share-facebook"><path d="M14.32 2.042c-.711.08-1.446.313-1.987.632a3.4 3.4 0 0 0-.828.637 3.6 3.6 0 0 0-.802 1.135c-.392.834-.461 1.338-.462 3.364l-.001 1.51H7v3.56h3.24V22h3.92v-9.12h3.221l.236-1.71c.13-.941.245-1.742.254-1.78.017-.066-.09-.07-1.849-.07h-1.867l.013-1.45c.012-1.386.016-1.459.1-1.665.186-.453.387-.64.852-.788.186-.059.426-.073 1.55-.087L18 5.313V3.735c0-1.226-.011-1.581-.05-1.594-.271-.09-3.034-.165-3.63-.099"></path></symbol><symbol id="ue-share-github"><path d="M11.12 2.042a9.93 9.93 0 0 0-6.249 3.034C3.342 6.672 2.398 8.658 2.074 10.96c-.069.496-.071 2.1-.002 2.58.102.706.254 1.36.467 2.007.95 2.878 3.122 5.197 5.875 6.273.625.245.819.234 1.015-.056.089-.133.091-.16.091-1.154v-1.019l-.13.022c-.827.138-1.367.122-1.93-.058-.255-.081-.269-.092-.16-.112.088-.017.124-.049.134-.121.017-.123-.085-.202-.263-.202-.156 0-.21.088-.132.213.052.083.051.083-.064.009a5 5 0 0 1-.265-.191c-.132-.104-.143-.124-.09-.177.085-.085.076-.124-.061-.261-.091-.091-.145-.115-.215-.098-.083.021-.105 0-.179-.173a1.2 1.2 0 0 1-.085-.244c0-.088-.416-.738-.598-.933a4 4 0 0 0-.473-.412c-.429-.317-.478-.49-.165-.574.217-.058.574.001.867.144.311.153.666.503.955.943.14.213.346.469.458.57a1.92 1.92 0 0 0 1.56.466c.322-.05.754-.184.82-.255.024-.026.066-.155.093-.287a2.3 2.3 0 0 1 .402-.883l.155-.206-.234-.025a7 7 0 0 1-.541-.088c-2.079-.429-3.232-1.519-3.62-3.423-.1-.491-.153-1.399-.113-1.938.055-.722.337-1.47.776-2.052l.222-.296-.064-.184a4 4 0 0 1-.109-.625 4.1 4.1 0 0 1 .176-1.602l.093-.278.34.002c.527.003 1.186.258 2.014.779l.394.248.475-.105a9.6 9.6 0 0 1 4.158.018l.38.086.36-.227c.43-.271 1.061-.584 1.419-.702.143-.047.417-.096.609-.108l.349-.022.044.116c.273.718.328 1.666.139 2.387l-.061.232.204.268c.258.341.57.975.681 1.388.108.402.148 1.469.077 2.052-.211 1.747-.969 2.91-2.297 3.53a6.8 6.8 0 0 1-1.955.542c-.126.015-.23.036-.23.046s.054.081.12.156c.153.174.333.531.424.837.06.205.073.488.093 2.086l.023 1.85.125.125c.205.205.385.201.95-.019a9.8 9.8 0 0 0 3.45-2.288c1.689-1.707 2.712-3.939 2.939-6.417.055-.593.025-1.724-.061-2.3-.443-2.985-2.017-5.513-4.456-7.155-.915-.616-2.272-1.202-3.287-1.419-.95-.203-2.189-.286-3.04-.204M8.781 19.239c-.039.043-.06.105-.048.138.054.14.396.111.453-.037.064-.167-.27-.251-.405-.101m-.823.075c-.11.089-.084.19.061.246.122.046.291-.008.329-.106.029-.077-.116-.214-.228-.214a.33.33 0 0 0-.162.074"></path></symbol><symbol id="ue-share-google"><path d="M11.32 2.043c-4.092.34-7.609 3.103-8.84 6.944-.157.489-.292 1.06-.386 1.633-.099.606-.101 2.133-.003 2.749.353 2.221 1.304 4.109 2.839 5.637a10.3 10.3 0 0 0 5.234 2.792c1.362.277 3.004.261 4.436-.044 1.48-.314 2.843-.942 3.94-1.814a11.5 11.5 0 0 0 1.351-1.34c1.7-2.104 2.418-5.034 1.984-8.09l-.044-.31H12.2v3.839l2.756.011 2.756.01-.089.34c-.599 2.288-2.864 3.739-5.663 3.627-1.553-.062-2.867-.648-4.003-1.784-.908-.909-1.461-1.941-1.705-3.183-.098-.5-.098-1.621 0-2.12.484-2.459 2.361-4.367 4.782-4.859a6.35 6.35 0 0 1 2.68.063c.731.19 1.512.583 2.105 1.061l.303.243 1.42-1.39a99 99 0 0 0 1.446-1.43c.049-.08-.819-.761-1.494-1.171-1.833-1.115-3.949-1.599-6.174-1.414"></path></symbol><symbol id="ue-share-instagram"><path d="M8.365 2.043c-1.231.047-1.839.134-2.565.365a4.95 4.95 0 0 0-2.029 1.203c-.77.742-1.18 1.452-1.467 2.541-.252.957-.304 1.95-.303 5.868.001 4.461.066 5.3.505 6.48a5.12 5.12 0 0 0 3.067 3.016c1.267.445 2.132.502 7.134.472 3.308-.02 3.815-.038 4.593-.169 1.033-.174 1.955-.581 2.675-1.184 1.172-.979 1.755-2.216 1.949-4.135.026-.265.052-1.781.064-3.803.03-4.989-.028-5.865-.473-7.124-.522-1.479-1.642-2.588-3.139-3.106-.81-.281-1.406-.368-2.916-.427-1.139-.044-5.929-.043-7.095.003m7.075 1.799c.561.022 1.207.068 1.436.102 1.828.27 2.906 1.348 3.181 3.18.114.757.153 2.457.13 5.676-.012 1.729-.041 3.269-.066 3.54-.117 1.27-.417 2.025-1.064 2.681-.67.678-1.47.988-2.837 1.101-.801.066-5.91.095-7.36.042-1.625-.06-2.198-.145-2.87-.428a3.4 3.4 0 0 1-1.598-1.481c-.522-1.021-.568-1.529-.567-6.275.001-3.425.028-4.313.152-5.02.268-1.52 1.183-2.541 2.6-2.9.517-.132.963-.183 1.903-.218 1.204-.045 5.82-.046 6.96 0m1.416 1.734c-.241.112-.46.32-.585.555-.074.139-.09.233-.091.529 0 .324.012.381.118.573.371.67 1.264.827 1.837.323.5-.44.545-1.189.101-1.694-.318-.362-.94-.491-1.38-.286M11.137 6.94a5.14 5.14 0 0 0-3.993 3.42A4.8 4.8 0 0 0 6.88 12c0 1.333.473 2.536 1.38 3.51 1.713 1.84 4.517 2.154 6.629.742.65-.435 1.34-1.215 1.687-1.908a5.13 5.13 0 0 0 .186-4.287c-.578-1.45-1.924-2.622-3.473-3.025-.415-.108-.547-.123-1.149-.135-.465-.009-.782.004-1.003.043m1.776 1.857c.59.171 1.085.479 1.534.957.332.352.598.814.753 1.306.124.39.155 1.164.065 1.605-.237 1.173-1.061 2.099-2.225 2.503-.368.128-.4.132-1.02.132-.56 0-.677-.012-.939-.094-1.136-.357-1.997-1.235-2.299-2.346-.111-.408-.124-1.095-.029-1.551.269-1.296 1.356-2.356 2.652-2.586.355-.063 1.171-.023 1.508.074"></path></symbol><symbol id="ue-share-instagram1"><path d="M3.848 2.061c-1.246.271-2.059 1.557-1.789 2.832.146.688.662 1.359 1.265 1.646 1.242.589 2.646.09 3.211-1.143.167-.365.225-.628.225-1.029a2.381 2.381 0 0 0-2.912-2.306M2.6 15.2V22h3.64V8.4H2.6zm6.52 0V22h3.64v-3.861c0-4.406-.036-3.946.379-4.801q.81-1.67 2.121-1.822c.633-.074 1.121.007 1.621.268a2.74 2.74 0 0 1 1.359 1.715c.077.304.08.442.08 4.407V22H22v-4.97c0-4.139-.01-5.034-.058-5.35-.241-1.576-1.238-2.61-2.949-3.058C18.361 8.456 18 8.42 17 8.42c-.856.001-.97.009-1.28.093-1.195.325-2.241 1.183-2.816 2.309l-.141.278-.002-1.35-.001-1.35H9.12z"></path></symbol><symbol id="ue-share-linkedin"><path d="M2.209 1.062c-.56.151-.97.536-1.135 1.068-.071.228-.074.613-.074 9.866 0 8.68.006 9.651.064 9.847a1.6 1.6 0 0 0 1.216 1.114c.166.036 2.588.044 9.84.035l9.62-.012.23-.093a1.61 1.61 0 0 0 .947-.999c.083-.245.083-.247.083-9.886 0-9.627 0-9.641-.082-9.891-.151-.458-.483-.805-.958-1l-.22-.091-9.66-.008c-8.249-.006-9.691.001-9.871.05m4.17 3.04c.52.135.96.503 1.212 1.012.148.3.149.305.149.804 0 .466-.008.519-.112.741C7.286 7.39 6.656 7.8 5.875 7.8c-1.145 0-2.032-1.044-1.843-2.17a1.89 1.89 0 0 1 2.347-1.528m10.281 4.94c.492.07.79.16 1.217.365.357.172.465.249.746.53.287.287.358.388.552.786.122.251.26.608.308.793.213.834.208.732.225 4.614l.016 3.63H16.48v-2.97c0-3.234-.014-3.485-.222-4.004a1.35 1.35 0 0 0-.687-.753c-.233-.115-.313-.133-.66-.147-1.085-.043-1.677.374-1.961 1.381-.087.308-.088.36-.101 3.403l-.012 3.09H9.56V9.24h3.12v.72c0 .403.016.72.036.72s.084-.081.142-.181c.384-.654 1.259-1.235 2.142-1.422.388-.081 1.214-.099 1.66-.035M7.52 14.5v5.26H4.28V9.24h3.24z"></path></symbol><symbol id="ue-share-mini-app"><path d="M15.54 3.043a5.3 5.3 0 0 0-2.043.738c-1.298.779-2.053 1.817-2.401 3.299-.065.275-.073.708-.094 5.14-.022 4.56-.028 4.853-.097 5.06-.44 1.314-1.671 2.163-3.135 2.163-.471 0-.735-.04-1.13-.169a3.19 3.19 0 0 1-1.756-1.385c-.254-.431-.334-.717-.355-1.27-.022-.576.033-.838.277-1.337.388-.792 1.424-1.529 2.28-1.622a1.07 1.07 0 0 0 .773-.477c.11-.179.121-.227.121-.543s-.011-.364-.121-.542c-.18-.291-.433-.433-.804-.452-.893-.045-2.248.586-3.111 1.449-1.318 1.317-1.778 3.261-1.179 4.976.261.748.659 1.354 1.279 1.951 1.001.962 2.29 1.471 3.716 1.467 1.441-.004 2.735-.521 3.743-1.496.718-.694 1.121-1.404 1.404-2.473.063-.237.071-.698.093-5.14.026-5.416.005-5.013.297-5.6.384-.77 1.162-1.377 2.083-1.625.456-.123 1.305-.123 1.758 0 1.149.311 2.018 1.149 2.285 2.204.094.367.063 1.123-.059 1.481a3.14 3.14 0 0 1-1.17 1.504c-.363.241-.897.456-1.239.499-.336.042-.544.144-.724.355-.32.374-.314.966.015 1.339.35.398.835.44 1.709.148.56-.187.862-.333 1.325-.638.412-.272 1.109-.96 1.365-1.347.801-1.212 1.044-2.576.696-3.912-.478-1.838-2.037-3.271-3.992-3.67-.473-.097-1.379-.134-1.809-.075"></path></symbol><symbol id="ue-share-pinterest-1"><path d="M11.28 2.024c-1.823.16-3.376.698-4.84 1.677-2.409 1.61-3.944 4.083-4.367 7.039-.079.553-.068 2.093.02 2.66.165 1.068.466 2.037.927 2.98a9.9 9.9 0 0 0 3.458 3.947c.514.341 1.533.878 1.778.937.111.026.114.023.089-.088-.053-.235-.075-1.873-.031-2.233.025-.197.315-1.503.645-2.904l.601-2.547-.083-.236a3.8 3.8 0 0 1-.197-1.241c0-1.085.423-1.925 1.152-2.285.28-.138.331-.15.646-.15.561 0 .889.206 1.116.7.206.447.166 1.06-.137 2.1l-.378 1.3c-.159.548-.203.761-.203.983 0 .883.777 1.536 1.715 1.44 1.196-.122 2.15-1.032 2.627-2.503.238-.734.281-1.041.282-1.98 0-.796-.006-.861-.111-1.24-.384-1.386-1.402-2.388-2.809-2.768-.375-.101-.452-.108-1.24-.107-.777.001-.869.009-1.227.105-1.092.293-1.967.91-2.552 1.798a4.3 4.3 0 0 0-.592 1.349c-.088.33-.103.47-.105 1.003-.002.557.008.66.106 1.011.125.451.33.916.522 1.183.073.103.144.217.159.255.03.08-.271 1.338-.34 1.422-.148.178-.84-.291-1.288-.871-.722-.935-1.074-2.194-.977-3.492.114-1.53.723-2.829 1.812-3.859C8.624 6.305 10.269 5.72 12.2 5.721c1.163.001 2.08.213 3.049.706 1.57.8 2.624 2.153 3.015 3.873.1.44.121 1.69.038 2.26-.242 1.666-.927 3.015-2.014 3.97-1.137.999-2.796 1.423-4.015 1.025-.544-.177-1.1-.561-1.315-.908-.054-.086-.081-.003-.393 1.2-.185.711-.399 1.455-.476 1.653-.158.408-.548 1.194-.842 1.7q-.197.339-.152.366c.025.015.27.081.545.148a10.04 10.04 0 0 0 5.225-.136 9.76 9.76 0 0 0 4.196-2.517 9.5 9.5 0 0 0 1.802-2.438A9.985 9.985 0 0 0 17.72 3.806c-1.268-.888-2.651-1.44-4.227-1.687-.495-.078-1.782-.133-2.213-.095"></path></symbol><symbol id="ue-share-pinterest"><path d="M11.28 2.024c-1.823.16-3.376.698-4.84 1.677-2.409 1.61-3.944 4.083-4.367 7.039-.079.553-.068 2.093.02 2.66.165 1.068.466 2.037.927 2.98a9.9 9.9 0 0 0 3.458 3.947c.514.341 1.533.878 1.778.937.111.026.114.023.089-.088-.053-.235-.075-1.873-.031-2.233.025-.197.315-1.503.645-2.904l.601-2.547-.083-.236a3.8 3.8 0 0 1-.197-1.241c0-1.085.423-1.925 1.152-2.285.28-.138.331-.15.646-.15.561 0 .889.206 1.116.7.206.447.166 1.06-.137 2.1l-.378 1.3c-.159.548-.203.761-.203.983 0 .883.777 1.536 1.715 1.44 1.196-.122 2.15-1.032 2.627-2.503.238-.734.281-1.041.282-1.98 0-.796-.006-.861-.111-1.24-.384-1.386-1.402-2.388-2.809-2.768-.375-.101-.452-.108-1.24-.107-.777.001-.869.009-1.227.105-1.092.293-1.967.91-2.552 1.798a4.3 4.3 0 0 0-.592 1.349c-.088.33-.103.47-.105 1.003-.002.557.008.66.106 1.011.125.451.33.916.522 1.183.073.103.144.217.159.255.03.08-.271 1.338-.34 1.422-.148.178-.84-.291-1.288-.871-.722-.935-1.074-2.194-.977-3.492.114-1.53.723-2.829 1.812-3.859C8.624 6.305 10.269 5.72 12.2 5.721c1.163.001 2.08.213 3.049.706 1.57.8 2.624 2.153 3.015 3.873.1.44.121 1.69.038 2.26-.242 1.666-.927 3.015-2.014 3.97-1.137.999-2.796 1.423-4.015 1.025-.544-.177-1.1-.561-1.315-.908-.054-.086-.081-.003-.393 1.2-.185.711-.399 1.455-.476 1.653-.158.408-.548 1.194-.842 1.7q-.197.339-.152.366c.025.015.27.081.545.148a10.04 10.04 0 0 0 5.225-.136 9.76 9.76 0 0 0 4.196-2.517 9.5 9.5 0 0 0 1.802-2.438A9.985 9.985 0 0 0 17.72 3.806c-1.268-.888-2.651-1.44-4.227-1.687-.495-.078-1.782-.133-2.213-.095"></path></symbol><symbol id="ue-share-qq"><path d="M11.224 1.041c-3.72.426-5.943 3.655-5.944 8.632v.614l-.464 1.186c-1.025 2.626-1.455 3.989-1.698 5.387-.163.942-.144 1.92.041 2.149.063.077.081.081.192.035.257-.107.897-.885 1.482-1.803l.267-.419.026.341c.1 1.308.796 2.72 1.85 3.755l.262.258-.369.131c-.762.269-1.382.648-1.53.936-.082.158-.074.342.019.435.101.101.403.187.882.251.553.074 3.544.068 4.6-.009 1.023-.075 1.297-.075 2.32 0 1.056.077 4.047.083 4.6.009.479-.064.781-.15.882-.251.148-.148.063-.48-.175-.685-.196-.169-.716-.446-1.167-.62a12 12 0 0 1-.498-.201c-.01-.008.127-.162.303-.343.392-.401.589-.643.825-1.009.523-.813.88-1.818.944-2.657l.026-.341.295.459c.795 1.238 1.447 1.934 1.636 1.745.166-.166.214-.957.108-1.774-.183-1.403-.627-2.875-1.702-5.64l-.517-1.329v-.635c0-4.742-2.068-7.943-5.52-8.545-.452-.079-1.532-.113-1.976-.062"></path></symbol><symbol id="ue-share-qrcode"><path d="M11.72 2.035c-.317.104-.605.373-.677.632-.028.102-.043 1.168-.043 3.175v3.022l.104.209c.304.611 1.141.726 1.626.225.282-.292.273-.174.261-3.561L12.98 2.7l-.088-.165a1.12 1.12 0 0 0-.465-.442c-.141-.073-.558-.107-.707-.058m-8.099.968c-.615.103-1.168.508-1.421 1.043-.188.398-.206.627-.192 2.417.013 1.616.014 1.64.109 1.877.243.612.715 1.029 1.374 1.211.218.06.466.069 2.009.069 1.947 0 2.021-.008 2.504-.265.283-.151.629-.505.774-.792.199-.392.221-.61.221-2.243 0-.844-.018-1.614-.041-1.76-.126-.788-.783-1.429-1.598-1.558-.308-.049-3.446-.048-3.739.001m12.901.019a1.8 1.8 0 0 0-.965.535c-.281.282-.398.484-.495.861-.09.347-.09 3.358 0 3.739.157.669.69 1.19 1.423 1.392.227.063.452.071 2.035.068 1.672-.002 1.796-.007 2.049-.084.685-.208 1.191-.72 1.356-1.373.042-.17.055-.6.055-1.9 0-1.629-.003-1.689-.09-1.965-.209-.666-.816-1.179-1.53-1.293-.41-.065-3.518-.049-3.838.02M6.991 6.29 6.98 7.7H4.02l-.011-1.41-.01-1.41h3.002zm13-.07c.006.726.001 1.36-.011 1.41l-.022.09H17V4.879l1.49.011 1.49.01zM2.666 11.583a1 1 0 0 0-.382.249c-.304.307-.365.673-.174 1.051.351.692 1.321.733 1.757.074.128-.194.17-.545.093-.778-.063-.189-.289-.442-.487-.542-.21-.108-.566-.131-.807-.054m4 .002c-.248.076-.548.368-.617.6a.953.953 0 0 0 .648 1.196c.163.049.559.059 2.25.059H11v1.965c0 1.432.013 2.01.049 2.13.074.251.369.525.653.607.542.158 1.119-.146 1.258-.662q.043-.158.031-2.709c-.011-2.549-.011-2.551-.1-2.717a1.02 1.02 0 0 0-.588-.475c-.295-.088-5.349-.082-5.637.006m8.529-.011c-.386.141-.599.369-.679.727-.09.402.122.808.536 1.029.161.086.215.091 1.338.103 1.342.014 1.494-.008 1.778-.265a.88.88 0 0 0 .311-.679c.002-.367-.19-.674-.539-.863-.153-.082-.215-.086-1.38-.096-.934-.007-1.254.003-1.365.044m5.545-.017c-.302.074-.609.346-.7.622-.077.233-.035.584.093.778.436.659 1.406.618 1.757-.074.191-.378.13-.744-.174-1.05a1.01 1.01 0 0 0-.976-.276m-3.88 3.802c-.4.036-.712.132-.979.3-.417.263-.754.751-.841 1.216-.053.285-.052 3.288.001 3.569.125.659.605 1.2 1.281 1.442.252.091.297.093 2.018.106 1.475.011 1.809.003 2.06-.049.73-.152 1.246-.592 1.487-1.27.086-.242.091-.318.105-1.789.017-1.776-.008-2.066-.216-2.481a2.05 2.05 0 0 0-.807-.819c-.435-.22-.543-.232-2.209-.245-.847-.007-1.702.002-1.9.02m-14.194.985c-.248.078-.549.371-.617.601a.953.953 0 0 0 .648 1.196c.147.044.415.059 1.043.059.977 0 1.167-.036 1.429-.272.509-.459.398-1.206-.228-1.542-.15-.08-.225-.087-1.121-.095-.77-.007-.999.004-1.154.053m5 .001c-.248.076-.548.368-.617.6-.109.366-.032.674.235.942.188.189.472.313.716.313.523 0 1.001-.461 1-.965a.96.96 0 0 0-.677-.891c-.263-.077-.402-.077-.657.001m12.31.958c.038.099.027 2.67-.012 2.731-.043.069-1.592.112-2.414.067l-.55-.029V17.24h1.476c1.308 0 1.478.007 1.5.063M2.481 20.249c-.652.391-.623 1.281.053 1.642l.166.089h5.6l.164-.088c.211-.113.388-.316.477-.548.147-.386-.024-.851-.399-1.083l-.196-.121-2.823-.011-2.824-.011zm9.059-.043c-.233.121-.339.229-.445.454-.218.463-.032.981.442 1.232.23.121.696.121.926 0 .463-.246.657-.763.454-1.212a.84.84 0 0 0-.446-.464c-.252-.128-.693-.133-.931-.01"></path></symbol><symbol id="ue-share-tiktok"><path d="M12.92 8.17c0 4.131-.016 7.306-.038 7.49-.14 1.216-.941 2.227-2.062 2.603a3 3 0 0 1-1.541.063c-1.098-.274-1.949-1.141-2.243-2.286-.034-.135-.056-.422-.055-.74 0-.609.083-.964.342-1.461.472-.906 1.295-1.479 2.327-1.618l.19-.026v-3.6l-.17.021c-.094.011-.3.032-.459.045-.585.048-1.348.272-1.995.585-2.416 1.167-3.904 3.803-3.695 6.543.156 2.049 1.16 3.875 2.761 5.021.442.317 1.279.741 1.747.886.735.228 1.093.28 1.931.28.86 0 1.261-.061 1.98-.301 2.068-.689 3.687-2.448 4.261-4.627.218-.828.213-.73.237-5.036l.022-4.008.36.242c.752.505 1.875.97 2.78 1.15.398.079 1.049.162 1.29.163l.11.001V5.976l-.37-.047a4.62 4.62 0 0 1-2.793-1.367c-.84-.839-1.317-1.865-1.442-3.105L16.348 1H12.92z"></path></symbol><symbol id="ue-share-twitter_icon"><path d="m4.563 5.87 3.559 4.257 1.994 2.386-3.338 3.724a470 470 0 0 0-3.338 3.744c0 .031 3.056.02 3.102-.012.024-.016 1.129-1.244 2.456-2.729a756 756 0 0 1 2.52-2.812l.108-.112 2.376 2.842L16.378 20h5.623l-2.447-2.93c-4.64-5.554-5.001-5.99-4.987-6.027.007-.021 1.355-1.537 2.996-3.37s3.042-3.401 3.114-3.483l.131-.15-1.554.002-1.554.001-2.32 2.597c-1.276 1.428-2.33 2.597-2.343 2.598S12.03 8.061 10.826 6.62L8.638 4h-5.64zm8.605 6.114c2.933 3.511 5.338 6.4 5.345 6.42.008.02-.268.036-.643.036h-.657l-3.437-4.11-5.367-6.42L6.478 5.6h1.358z"></path></symbol><symbol id="ue-share-twitter_icon2"><path d="M16.12 3.025c-.704.09-1.245.252-1.806.544-1.322.686-2.216 1.859-2.537 3.331-.084.388-.096 1.318-.022 1.694.027.14.039.265.026.279-.044.044-1.388-.112-1.989-.231-3.059-.605-5.703-2.095-7.798-4.395l-.34-.372-.184.392c-.696 1.48-.603 3.142.253 4.513.251.403.837 1.042 1.195 1.301.298.217.26.234-.315.143a5.4 5.4 0 0 1-1.353-.406l-.29-.133v.208c.001.556.217 1.385.515 1.975A4.92 4.92 0 0 0 4.38 14.3c.198.059.387.118.42.13.034.012-.035.047-.16.081-.238.064-1.59.094-1.829.04l-.129-.029.082.209c.266.673.563 1.123 1.092 1.653.701.701 1.403 1.097 2.362 1.333.196.048.506.098.689.111s.333.036.333.051c0 .042-.947.655-1.32.854q-1.515.808-3.388 1.094c-.467.072-2.169.1-2.392.04-.182-.049-.095.014.435.316 2.693 1.534 5.981 2.122 9.245 1.653 4.976-.715 9-3.952 10.832-8.716.566-1.471.851-2.914.896-4.529l.024-.869.444-.356c.532-.426 1.306-1.213 1.676-1.703.148-.196.262-.362.255-.37-.008-.007-.205.058-.438.145-.608.229-1.453.442-2.149.543l-.18.027.318-.221c.375-.26.858-.725 1.142-1.099.188-.248.602-1.025.662-1.241.024-.088.01-.085-.268.068-.649.356-1.579.706-2.407.906l-.394.096-.299-.261A5.03 5.03 0 0 0 17.599 3.1c-.305-.061-1.225-.107-1.479-.075"></path></symbol><symbol id="ue-share-weibo"><path d="M14.283 2.12c-.652.09-.923.157-1.119.273-.347.206-.497.441-.497.779 0 .188.136.468.28.578.267.204.509.219 1.045.063.808-.234 2.158.099 3.026.746.3.223.704.636.891.91.164.239.307.595.417 1.031.077.305.088.416.086.867-.001.435-.013.556-.076.766-.136.456-.202.749-.202.893-.001.389.275.608.762.607.358-.002.584-.147.698-.45.065-.174.268-1.02.324-1.35.074-.444.099-1.218.052-1.583-.21-1.597-1.102-2.811-2.62-3.564a6 6 0 0 0-1.341-.491c-.232-.054-.43-.07-.959-.078a13 13 0 0 0-.767.003m-6.8 2.462c-1.756.321-3.685 1.68-5.53 3.896C.923 9.716.363 10.768.094 11.97c-.063.283-.076.438-.074.847.002.446.013.541.105.888.24.912.607 1.559 1.242 2.19 1.268 1.258 3.417 2.025 6.283 2.241 2.324.174 5.067-.499 6.9-1.693 1.412-.92 2.272-2.103 2.503-3.443.162-.941-.192-1.827-.97-2.425a4.2 4.2 0 0 0-1.261-.612c-.493-.122-.583-.26-.392-.605.192-.348.253-.601.253-1.043 0-.396-.001-.405-.124-.653-.226-.457-.596-.736-1.126-.849-.19-.041-.356-.049-.7-.034-.668.028-1.281.171-2.111.493-.503.195-.832.247-.932.146-.078-.077-.073-.31.014-.71.054-.249.066-.384.05-.577-.071-.85-.445-1.375-1.105-1.547-.239-.062-.832-.063-1.166-.002m6.424.553c-.505.1-.621.731-.181.989.148.086.155.087.422.049.72-.104 1.156.004 1.464.363.241.283.345.762.287 1.324-.032.305-.029.33.043.471.106.205.323.32.543.287a.56.56 0 0 0 .442-.393c.093-.366.073-1.089-.043-1.542-.205-.798-.812-1.355-1.671-1.533-.265-.054-1.058-.063-1.306-.015M9.733 9.381c.846.134 1.519.341 2.144.659.476.243.826.498 1.144.834 1.535 1.623.598 4.106-2.034 5.39-1.07.522-2.07.76-3.337.792-1.346.035-2.476-.187-3.5-.689-.514-.252-.86-.485-1.206-.812-.687-.65-1.01-1.342-1.01-2.165-.001-.828.328-1.553 1.009-2.224.428-.422.815-.689 1.474-1.015.923-.459 1.844-.713 3-.83.35-.035 1.98.007 2.316.06M7.35 10.72l-.364.049c-1.434.195-2.432 1.123-2.669 2.486-.065.37-.064 1.031 0 1.306.125.529.443.918.967 1.181.898.451 1.911.575 2.799.344.45-.118 1.057-.421 1.4-.7.65-.529.955-1.066 1.011-1.783a2.7 2.7 0 0 0-.275-1.487c-.428-.873-1.257-1.362-2.369-1.398a5 5 0 0 0-.5.002m1.053 2.011c.222.222.055.669-.286.764-.441.122-.626-.505-.229-.775.183-.124.384-.12.515.011m-1.549.485c.201.06.422.242.521.429.103.194.1.547-.005.75-.111.215-.345.43-.596.548-.303.142-.698.165-.981.058-.384-.144-.6-.513-.527-.899.076-.401.332-.7.749-.875.172-.072.614-.078.839-.011"></path></symbol><symbol id="ue-share-weixin"><path d="M8.64 4.028c-3.316.25-5.973 2.252-6.547 4.932-.102.476-.101 1.456.002 1.9.323 1.389 1.073 2.447 2.475 3.489.192.143.349.272.348.286s-.161.475-.355 1.025-.348 1.005-.343 1.012c.006.006.58-.26 1.278-.591l1.267-.602.628.118c.345.066.771.141.947.168.329.05 1.594.074 1.637.031.014-.013-.013-.175-.058-.36-.119-.482-.148-1.368-.062-1.894.318-1.934 1.787-3.582 3.845-4.314.726-.258 1.804-.415 2.569-.372l.451.024-.027-.11a7 7 0 0 0-.377-1.013c-.413-.819-1.253-1.737-2.115-2.312-1.579-1.053-3.592-1.566-5.563-1.417M7.245 7.001c.39.108.593.385.594.811.002.56-.316.868-.896.868-.479 0-.887-.239-1.041-.609a.57.57 0 0 1 0-.502c.188-.451.814-.715 1.343-.568m5.17.008c.243.073.482.33.543.583.109.452-.084.858-.487 1.026-.191.08-.605.08-.839 0-.21-.072-.487-.294-.573-.46-.083-.161-.075-.509.015-.678.213-.396.847-.619 1.341-.471m3.565 2.237c-.59.032-.912.083-1.48.233-2.171.575-3.74 2.058-4.169 3.94-.087.381-.087 1.301 0 1.682.285 1.249 1.035 2.29 2.209 3.069.642.425 1.23.682 2.04.889.68.174 1.155.235 1.84.236.608.001.916-.038 1.734-.218l.533-.118.987.516c.542.284.991.511.997.506s-.106-.379-.25-.83a19 19 0 0 1-.261-.859c0-.021.148-.154.33-.293.395-.305 1.02-.922 1.285-1.27 1.184-1.553 1.236-3.223.152-4.869a6 6 0 0 0-.626-.72c-.627-.626-1.258-1.04-2.129-1.397-.982-.402-2.005-.561-3.192-.497m-1.215 2.795c.462.128.718.565.536.916-.142.275-.58.476-.925.424a.82.82 0 0 1-.592-.471c-.067-.161-.071-.209-.03-.347.128-.425.559-.648 1.011-.522m4.04 0a.95.95 0 0 1 .508.36c.193.284.04.699-.324.875-.496.24-.997.079-1.171-.376-.086-.225-.055-.397.106-.592.226-.274.527-.366.881-.267"></path></symbol><symbol id="ue-share-whatsapp"><path d="M11.147 2.042c-1.465.153-2.761.551-3.919 1.202-2.772 1.56-4.576 4.171-5.054 7.316-.088.573-.1 2.043-.022 2.58.175 1.207.523 2.318 1.036 3.308l.222.427-.703 2.552a168 168 0 0 0-.694 2.56c.005.005 1.177-.296 2.603-.669s2.617-.678 2.645-.678c.027 0 .272.107.544.239 1.293.623 2.701.935 4.235.936 1.557.002 2.922-.307 4.3-.971a9.4 9.4 0 0 0 2.635-1.843c1.748-1.7 2.75-3.792 2.987-6.241.058-.6.029-1.678-.063-2.28a9.97 9.97 0 0 0-3.639-6.306 10.1 10.1 0 0 0-4.84-2.077c-.499-.073-1.803-.104-2.273-.055M13.02 3.74a8.26 8.26 0 0 1 5.676 3.28c2.478 3.327 2.063 7.99-.966 10.865-2.634 2.5-6.58 2.98-9.785 1.19l-.435-.243-1.543.403a48 48 0 0 1-1.555.391c-.006-.007.174-.688.401-1.515l.413-1.502-.218-.355c-.924-1.502-1.355-3.276-1.21-4.983A8.27 8.27 0 0 1 13.02 3.74M8.36 7.356c-.219.046-.365.139-.582.37-.984 1.045-1.051 2.46-.185 3.93.792 1.345 2.175 2.832 3.408 3.664.84.567 2.178 1.135 3.071 1.304.41.078 1.023.057 1.368-.046.503-.15 1.113-.561 1.345-.906.253-.376.394-1.29.223-1.445-.091-.082-1.876-.953-2.15-1.049-.311-.109-.364-.079-.798.462-.572.712-.622.76-.8.76-.212 0-1.259-.523-1.733-.866a7.2 7.2 0 0 1-1.786-1.936c-.099-.162-.181-.342-.181-.401 0-.075.098-.225.326-.502.294-.355.513-.714.514-.842 0-.079-.885-2.185-.968-2.303a.6.6 0 0 0-.145-.145c-.094-.049-.759-.084-.927-.049"></path></symbol><symbol id="ue-share-xiaohongshu"><path d="M9.483 7.81c-.019.05-.264.594-.544 1.21-.653 1.438-.791 1.793-.758 1.945.069.313.391.475.946.475.172 0 .313.011.313.024s-.169.404-.376.87-.398.921-.425 1.012c-.094.319.043.584.357.689.086.028.478.045 1.064.045h.927l.264-.59c.146-.325.276-.621.291-.659.023-.062-.02-.07-.468-.08-.465-.01-.495-.016-.506-.094-.006-.045.243-.648.554-1.34.311-.691.575-1.288.586-1.326.019-.063-.038-.07-.689-.08-.608-.009-.716-.02-.752-.077-.032-.051.057-.284.406-1.06.246-.547.447-1.008.447-1.024s-.36-.03-.801-.03c-.794 0-.801.001-.836.09m8.424-.063c-.015.014-.027.149-.027.3v.273h-1.04v1.6h1.04v1.398l-.79.011-.79.011-.011.735c-.007.508.003.752.035.79.036.043.208.055.801.055h.755v3.36h1.6v-3.36h1.282c1.408 0 1.458.008 1.577.239.048.092.061.272.061.841 0 .973.051.92-.878.92-.376 0-.682.016-.682.036s.129.327.286.684l.286.647.744-.016c.653-.014.772-.027.972-.105.301-.119.597-.401.74-.706l.112-.24.012-1.271c.014-1.415-.009-1.601-.237-1.957-.239-.373-.726-.629-1.258-.662l-.325-.021-.023-.764c-.018-.609-.04-.817-.104-1.022-.143-.453-.415-.765-.865-.993-.276-.14-.502-.183-1.1-.207L19.5 8.3l-.012-.29-.012-.29h-.771c-.424 0-.784.012-.798.027m-14.841.459c-.014.202-.026 1.774-.026 3.495 0 2.859-.006 3.134-.066 3.184-.045.037-.211.059-.52.068-.25.008-.454.026-.453.04 0 .015.124.306.274.647l.274.62h.556c.45 0 .592-.014.753-.076.274-.106.509-.337.647-.634l.115-.25.011-3.73.011-3.73h-1.55zm9.134.914v.8h1v4.76h-.695c-.509 0-.706.013-.734.05-.022.028-.194.387-.382.8l-.343.75H16.4v-1.6h-1.52V9.922l.49-.011.49-.011V8.34l-1.83-.01-1.83-.011zm10.66-.736c-.374.204-.467.422-.452 1.056l.012.46.356.012c.474.015.751-.046.933-.205.393-.346.375-.913-.041-1.244-.13-.103-.192-.122-.42-.132-.191-.009-.303.007-.388.053M.398 9.93l-.137 1.73c-.09 1.151-.155 1.777-.197 1.893l-.062.172.334.748c.427.954.472 1.047.509 1.047.055 0 .389-.578.513-.887.149-.373.302-.948.36-1.353.024-.165.087-.894.142-1.62s.109-1.415.122-1.53l.024-.21h-.803c-.442 0-.804.005-.805.01m5.322.1c0 .391.254 3.223.319 3.55.141.716.451 1.503.716 1.821l.114.137.081-.159c.156-.307.73-1.609.73-1.656a1.5 1.5 0 0 0-.058-.235c-.047-.152-.304-3.109-.302-3.478v-.09h-1.6zm14.767-.044c.065.059.073.137.073.701v.635l-.53-.011-.53-.011-.011-.69-.011-.69h.468c.379 0 .482.013.541.066m-12.42 5.341c-.193.421-.343.787-.333.813.044.113.366.143 1.424.132l1.058-.012.35-.76c.193-.418.351-.773.352-.79.001-.016-.452-.03-1.008-.031-.881-.001-1.167-.021-1.431-.1-.045-.014-.149.174-.412.748"></path></symbol><symbol id="ue-share-youtube"><path d="M8.78 4.044c-2.404.052-4.36.154-4.996.259a2.84 2.84 0 0 0-1.65.868c-.846.905-1.133 2.641-1.133 6.849 0 2.923.141 4.586.477 5.613.194.595.375.91.717 1.249.782.774 1.526.921 5.245 1.038 4.722.149 11.234.035 12.776-.222.887-.149 1.653-.677 2.03-1.399.421-.806.593-1.744.714-3.899.051-.909.05-3.947 0-4.82-.126-2.161-.296-3.085-.71-3.874-.383-.729-1.147-1.256-2.034-1.403-1.35-.224-7.101-.354-11.436-.259m4.06 6.196c1.485.799 2.723 1.473 2.751 1.498.039.036-.614.402-2.854 1.604-1.598.857-2.93 1.564-2.961 1.571-.048.011-.056-.463-.056-3.174V8.552l.21.117c.116.065 1.425.771 2.91 1.571"></path></symbol><symbol id="ue-share-zcool-fill"><path d="M14.769 2.05a4 4 0 0 0-.184.354c-.512 1.087-1.41 1.956-2.597 2.516-.561.265-.999.407-1.728.561-1.571.331-2.553.621-3.38.995-1.86.843-3.297 2.188-4.112 3.847-.797 1.624-.984 3.679-.507 5.562a8.17 8.17 0 0 0 2.224 3.856c.711.691 1.298 1.104 2.126 1.498 2.425 1.154 5.214.978 7.409-.468 1.797-1.183 2.934-2.79 3.518-4.972.055-.205.116-.389.135-.408.02-.02.207-.113.415-.207 1.407-.633 2.625-1.788 3.373-3.196.229-.43.546-1.222.531-1.326-.019-.129-.182-.121-.67.034-.642.203-1.926.473-1.983.417-.01-.01.099-.196.241-.412 1.26-1.91 1.938-4 2.058-6.34.049-.962.012-1.321-.138-1.321-.027 0-.29.239-.585.53-1.346 1.333-2.754 2.21-4.415 2.749-.532.173-1.531.412-1.584.379-.016-.01.034-.176.112-.368a7 7 0 0 0 .245-.79c.095-.4.105-.514.104-1.26 0-.864-.039-1.153-.253-1.868-.111-.372-.24-.504-.355-.362M13.16 13.506c0 .084-.282.68-.466.986-.782 1.303-1.785 1.932-2.956 1.855-.704-.046-1.253-.297-1.712-.782-.275-.291-.264-.34.084-.381 1.085-.127 2.236-.51 4.048-1.346.516-.238.952-.424.97-.413s.032.048.032.081m-9.994.627c.748.604 1.364.921 1.961 1.008.108.016.197.052.21.086.038.098-.249.485-.444.599-.609.357-1.298-.05-1.775-1.051-.198-.413-.297-.815-.202-.815.02 0 .133.078.25.173"></path></symbol><symbol id="ue-share-zhihu"><path d="M6.064 2.042c-2.201.26-3.686 1.693-4.003 3.861-.057.388-.062 1.093-.05 6.297.015 6.43-.001 6.003.254 6.779.121.368.394.922.596 1.206.211.296.728.8 1.019.993.529.351 1.1.583 1.8.73.318.067.723.072 6.3.072 6.484 0 6.186.01 6.94-.229 1.41-.447 2.384-1.421 2.831-2.831.239-.754.229-.456.229-6.94 0-5.577-.005-5.982-.072-6.3-.41-1.943-1.57-3.127-3.496-3.567l-.392-.09-5.84-.007c-3.212-.004-5.964.008-6.116.026M8.386 5.45a52 52 0 0 0-.522 1.6l-.026.11h1.944c1.315 0 1.969.014 2.024.043.116.062.191.273.22.616l.026.3-1.116.01-1.116.011-.028 1.3a184 184 0 0 1-.04 1.58l-.012.28 1.157.011c.777.007 1.174.025 1.21.055.072.06.161.393.193.724l.026.27H9.653l-.052.41a9 9 0 0 1-.162.85c-.06.242-.106.444-.102.448.003.005.14-.1.304-.231l.299-.24.215.231c.578.625 1.379 1.592 1.457 1.761.073.16.087.262.086.631-.001.443-.075.919-.137.88a62 62 0 0 1-1.139-1.359 71 71 0 0 0-1.138-1.359c-.018-.011-.1.19-.182.446-.385 1.201-1.045 2.302-1.59 2.654a2.5 2.5 0 0 1-1.64.354c-.172-.025-.312-.058-.312-.074s.094-.108.21-.204c1.135-.944 1.98-2.129 2.423-3.401.143-.408.313-1.15.351-1.527l.027-.27H5.75l.021-.13c.041-.248.199-.601.338-.755l.139-.154 1.206-.01L8.66 11.3l.024-.4c.014-.22.032-.931.04-1.58l.016-1.18-.62-.011-.62-.011-.116.331c-.239.682-.613 1.035-1.285 1.21-.445.116-.442.12-.219-.349.26-.545.532-1.236.876-2.221.156-.447.318-.879.361-.96.104-.202.34-.419.593-.545.318-.159.719-.239.676-.134m9.814 6.27v4.72h-2.126l-.891.56c-.49.308-.902.56-.916.56-.013 0-.062-.13-.109-.29-.046-.16-.121-.412-.165-.56l-.081-.27h-.992V7h5.28zm-4.2 0v3.68h.509l.104.365a4 4 0 0 0 .122.384c.01.01.287-.155.616-.366l.596-.383h1.213V8.04H14z"></path></symbol></svg>