<svg width="16" height="16" xmlns="http://www.w3.org/2000/svg"><path d="M3.449 1.053a2.82 2.82 0 0 0-.813.285c-.851.433-1.423 1.214-1.6 2.182-.053.292-.053 4.668 0 4.96a3.03 3.03 0 0 0 2.484 2.484c.296.053 8.664.053 8.96 0a3.03 3.03 0 0 0 2.484-2.484C14.993 8.321 15 7.811 15 6c0-2.446 0-2.446-.139-2.893a3.02 3.02 0 0 0-2.324-2.055c-.313-.054-8.786-.054-9.088.001m9.055 1.006c.594.184 1.046.567 1.299 1.101.199.42.197.398.197 2.84 0 2.442.002 2.42-.197 2.84a1.97 1.97 0 0 1-1.415 1.119c-.292.06-8.488.061-8.771.001a1.953 1.953 0 0 1-1.418-1.12c-.195-.414-.186-.277-.186-2.84 0-2.563-.009-2.426.186-2.84a2.015 2.015 0 0 1 1.47-1.132c.072-.012 2.057-.02 4.411-.018 3.921.004 4.292.008 4.424.049M3.182 12.04c-1.152.252-1.574 1.676-.742 2.507.199.199.405.324.667.404.152.047.374.049 4.893.049s4.741-.002 4.893-.049a1.548 1.548 0 0 0 1.07-1.131 1.633 1.633 0 0 0-.044-.799 1.571 1.571 0 0 0-.957-.948l-.175-.06-4.72-.004c-3.881-.004-4.75.001-4.885.031m9.519 1.01a.534.534 0 0 1 .257.265c.067.177.009.438-.123.557-.148.135.099.128-4.835.128s-4.687.007-4.835-.128c-.139-.125-.197-.427-.114-.587a.743.743 0 0 1 .242-.241c.039-.021 1.36-.029 4.688-.03 3.877-.001 4.648.005 4.72.036" fill-rule="evenodd"/></svg>