<svg width="14" height="14" xmlns="http://www.w3.org/2000/svg"><path d="M6.734 1.033c-.137.028-1.323.612-1.435.707a.488.488 0 0 0-.165.372c0 .286.222.501.517.501.064 0 .244-.079.695-.303.335-.167.629-.303.654-.303.025 0 .319.136.654.303.451.224.631.303.695.303.294 0 .518-.214.517-.495a.491.491 0 0 0-.165-.378c-.128-.108-1.295-.677-1.454-.709a1.342 1.342 0 0 0-.513.002M2.248 3.255c-.791.399-1.054.538-1.103.582a.554.554 0 0 0-.092.14c-.044.094-.047.15-.049.898-.002.899.002.92.173 1.071a.396.396 0 0 0 .319.121c.203 0 .353-.09.448-.269.043-.08.051-.141.059-.437.004-.189.012-.344.018-.344.005 0 .164.077.353.172.19.094.379.179.421.188.229.05.51-.142.565-.386a.467.467 0 0 0-.09-.41c-.052-.072-.131-.125-.36-.242l-.293-.151.277-.141c.308-.157.359-.195.419-.314a.485.485 0 0 0-.05-.545.466.466 0 0 0-.39-.178c-.13 0-.17.016-.625.245m8.66-.206a.507.507 0 0 0-.228.673c.068.131.113.165.426.325l.277.141-.294.152c-.226.117-.308.172-.36.243a.464.464 0 0 0-.089.408c.055.244.336.436.565.386.042-.009.231-.094.421-.188.189-.095.348-.172.353-.172.006 0 .014.155.018.344.008.296.016.357.059.437a.475.475 0 0 0 .448.269.396.396 0 0 0 .319-.121c.171-.151.175-.172.173-1.071-.003-1.029.018-.974-.449-1.216-.144-.074-.491-.251-.771-.392-.487-.246-.516-.257-.654-.256a.536.536 0 0 0-.214.038M5.507 5.784c-.246.08-.374.248-.374.493 0 .134.056.26.156.353.036.034.32.189.63.344l.564.283.009.6c.005.375.019.625.035.663a.66.66 0 0 0 .274.28.498.498 0 0 0 .565-.123c.126-.134.132-.169.142-.819l.009-.6.564-.283c.31-.156.594-.312.63-.345a.48.48 0 0 0 .156-.353.477.477 0 0 0-.496-.5c-.128-.001-.168.016-.753.313L7 6.405l-.612-.31c-.624-.316-.74-.357-.881-.311m-4.16 2.088a.531.531 0 0 0-.295.255c-.046.095-.049.138-.048.753.001.682.012.787.105.972.146.291.27.382 1.057.774.665.331.706.341.931.237a.476.476 0 0 0 .253-.581c-.055-.189-.147-.257-.783-.575l-.56-.281v-.568c0-.453-.008-.59-.036-.671a.594.594 0 0 0-.247-.289.563.563 0 0 0-.377-.026m11.031-.012a.44.44 0 0 0-.238.147c-.133.139-.147.217-.147.851v.568l-.56.281c-.326.163-.599.315-.653.364a.485.485 0 0 0 .123.792c.225.104.266.094.931-.237.788-.392.911-.483 1.058-.775.096-.192.107-.304.1-1.011l-.007-.665-.064-.096a.538.538 0 0 0-.543-.219m-5.577 2.8a.645.645 0 0 0-.272.28 2.202 2.202 0 0 0-.037.394 3.659 3.659 0 0 1-.019.333c-.004 0-.168-.08-.364-.177-.353-.175-.359-.177-.514-.169a.456.456 0 0 0-.409.252.534.534 0 0 0 .03.518c.064.093.128.13.871.503.7.351.817.403.913.403.096 0 .213-.052.913-.403.743-.373.807-.41.871-.503a.534.534 0 0 0 .03-.518.456.456 0 0 0-.409-.252c-.155-.008-.161-.006-.514.169-.196.097-.36.177-.364.177-.004 0-.013-.15-.019-.333-.013-.363-.031-.433-.142-.551a.498.498 0 0 0-.565-.123" fill-rule="evenodd"/></svg>