<svg width="14" height="14" xmlns="http://www.w3.org/2000/svg"><path d="M11.34.59C10.849.765 1.21 4.537 1.012 4.632c-.355.171-.511.398-.507.736.004.305.17.545.485.699.078.038 1.07.431 2.205.872l2.064.802.83 2.133c.485 1.247.863 2.184.908 2.255a.726.726 0 0 0 .668.364c.308-.001.547-.167.699-.486.085-.177 3.99-10.174 4.078-10.438.109-.327.048-.626-.17-.84-.155-.152-.278-.203-.512-.211-.176-.006-.223.002-.42.072M7.839 4.446 5.517 6.768l-1.813-.705a70.902 70.902 0 0 1-1.803-.715c.01-.01 8.229-3.222 8.249-3.224.006 0-1.033 1.044-2.311 2.322m1.432 2.52a638.202 638.202 0 0 1-1.615 4.122c-.008.009-.332-.799-.72-1.796L6.23 7.478l2.315-2.315a276.648 276.648 0 0 1 2.321-2.308c.003.003-.714 1.853-1.595 4.111" fill-rule="evenodd"/></svg>