<svg width="14" height="14" xmlns="http://www.w3.org/2000/svg"><path d="M4.538 2.051c-.131.062-2.446 2.384-2.496 2.504a.555.555 0 0 0 .009.403c.064.137 2.385 2.447 2.509 2.498A.504.504 0 0 0 5.25 7c0-.189-.02-.215-.801-.997l-.75-.753h2.287c1.439 0 2.36.009 2.485.024a3.065 3.065 0 0 1 1.364.541c.362.271.694.676.886 1.079.379.8.36 1.782-.051 2.561-.407.771-1.098 1.291-1.984 1.492-.227.052-.23.052-3.289.06l-3.062.009-.11.074c-.16.108-.224.241-.214.439.009.172.064.267.222.388l.085.065h6.327l.237-.053a4.19 4.19 0 0 0 .932-.321c1.087-.525 1.848-1.506 2.114-2.726.045-.206.052-.306.052-.762-.001-.586-.026-.754-.186-1.234-.191-.572-.483-1.036-.943-1.497A3.771 3.771 0 0 0 8.482 4.27c-.132-.012-1.223-.022-2.496-.023H3.723l.716-.718c.742-.745.81-.829.81-1.009a.496.496 0 0 0-.501-.512.595.595 0 0 0-.21.043" fill-rule="evenodd"/></svg>