<svg width="16" height="16" xmlns="http://www.w3.org/2000/svg"><path d="M3.449 1.053a2.82 2.82 0 0 0-.813.285c-.851.433-1.423 1.214-1.6 2.182-.053.296-.053 8.664 0 8.96a3.03 3.03 0 0 0 2.484 2.484c.296.053 8.664.053 8.96 0a3.03 3.03 0 0 0 2.484-2.484c.053-.296.053-8.664 0-8.96-.231-1.27-1.198-2.252-2.427-2.468-.313-.054-8.786-.054-9.088.001m9.055 1.006c.594.184 1.046.567 1.299 1.101.208.44.197.169.197 4.84 0 4.648.01 4.399-.189 4.825a1.98 1.98 0 0 1-1.426 1.135c-.276.058-8.492.059-8.768 0a1.943 1.943 0 0 1-1.175-.717 2.607 2.607 0 0 1-.392-.79c-.054-.217-.054-8.689 0-8.906.056-.227.247-.609.397-.796a2.082 2.082 0 0 1 1.222-.723c.072-.012 2.057-.02 4.411-.018 3.921.004 4.292.008 4.424.049m-1.835 3.466A2.555 2.555 0 0 0 8.85 6.724a2.918 2.918 0 0 0-.317.883c-.041.253-.021.771.038.986.125.457.332.832.627 1.134a2.488 2.488 0 0 0 3.603-.002c.306-.318.503-.674.633-1.147.064-.232.064-.924 0-1.156-.134-.488-.344-.86-.666-1.182a2.477 2.477 0 0 0-1.475-.717 1.922 1.922 0 0 0-.624.002m.785 1.045c.528.165.956.678 1.026 1.23A1.491 1.491 0 0 1 11 9.493a1.503 1.503 0 0 1-1.427-1.04 1.626 1.626 0 0 1 .008-.927 1.52 1.52 0 0 1 1.053-.979c.19-.049.631-.036.82.023" fill-rule="evenodd"/></svg>