<svg width="16" height="16" xmlns="http://www.w3.org/2000/svg"><path d="M7.811.061a.723.723 0 0 0-.162.168c-.04.06-.543 1.109-1.118 2.333-.575 1.224-1.074 2.264-1.11 2.311A.493.493 0 0 1 5.279 5c-.044.023-1.035.187-2.338.387-1.244.19-2.349.363-2.456.385-.347.069-.472.185-.472.439 0 .139.011.167.112.298.061.079.875.924 1.809 1.878.933.953 1.715 1.768 1.738 1.81a.528.528 0 0 1 .039.201c-.001.068-.178 1.197-.394 2.51-.419 2.55-.445 2.774-.344 2.91.087.117.242.191.364.174.14-.019.258-.081 2.556-1.349C7.692 13.65 7.89 13.547 8 13.547c.11 0 .308.103 2.107 1.096 2.298 1.268 2.416 1.33 2.556 1.349.122.017.277-.057.364-.174.102-.136.075-.36-.345-2.911a98.284 98.284 0 0 1-.396-2.507.501.501 0 0 1 .04-.2c.024-.044.807-.86 1.74-1.813.934-.954 1.748-1.799 1.809-1.878.101-.131.112-.159.112-.298 0-.113-.015-.174-.055-.229-.124-.171-.129-.172-2.717-.57C11.839 5.2 10.764 5.023 10.72 5a.49.49 0 0 1-.141-.127c-.036-.047-.535-1.087-1.11-2.311C8.894 1.338 8.391.289 8.351.229 8.202.006 7.99-.06 7.811.061" fill-rule="evenodd"/></svg>