<svg width="16" height="16" xmlns="http://www.w3.org/2000/svg"><path d="M3.449 1.053a2.82 2.82 0 0 0-.813.285c-.851.433-1.423 1.214-1.6 2.182-.053.296-.053 8.664 0 8.96a3.03 3.03 0 0 0 2.484 2.484c.296.053 8.664.053 8.96 0a3.03 3.03 0 0 0 2.484-2.484c.053-.296.053-8.664 0-8.96-.231-1.27-1.198-2.252-2.427-2.468-.313-.054-8.786-.054-9.088.001m9.055 1.006c.594.184 1.046.567 1.299 1.101.208.44.197.169.197 4.84 0 4.648.01 4.399-.189 4.825a1.98 1.98 0 0 1-1.426 1.135c-.276.058-8.492.059-8.768 0a1.943 1.943 0 0 1-1.175-.717 2.607 2.607 0 0 1-.392-.79c-.054-.217-.054-8.689 0-8.906.056-.227.247-.609.397-.796a2.082 2.082 0 0 1 1.222-.723c.072-.012 2.057-.02 4.411-.018 3.921.004 4.292.008 4.424.049m-7.726.982c-.449.06-.703.189-1.045.532-.503.505-.673.957-.72 1.92-.032.64-.032 4.374 0 5.014.047.963.217 1.415.72 1.92.401.402.677.514 1.387.56.213.014 1.509.025 2.88.025s2.667-.011 2.88-.025c.701-.046.984-.158 1.376-.547.262-.259.419-.495.544-.819.188-.485.211-.885.211-3.621 0-2.121-.021-2.872-.092-3.213a2.306 2.306 0 0 0-.65-1.216c-.263-.263-.481-.396-.792-.484l-.21-.059-3.16-.005c-1.738-.002-3.236.006-3.329.018m6.471 1.022c.261.087.538.413.645.757.089.292.106.781.106 3.18s-.017 2.888-.106 3.18c-.11.356-.387.675-.659.759-.145.045-.344.048-3.235.048s-3.09-.003-3.235-.048c-.186-.058-.355-.202-.503-.43-.143-.221-.204-.44-.235-.851-.035-.46-.035-4.856 0-5.316.031-.412.092-.631.236-.851.207-.316.379-.428.71-.465.103-.011 1.525-.018 3.16-.016 2.779.005 2.983.008 3.116.053" fill-rule="evenodd"/></svg>