<svg width="14" height="14" xmlns="http://www.w3.org/2000/svg"><path d="M7.362 1.028a1.504 1.504 0 0 0-.961.469 1.55 1.55 0 0 0-.426.929c-.015.12-.025.753-.025 1.604v1.407l-1.173.001c-1.309.001-1.846.022-2.07.08-.26.067-.457.186-.677.407-.316.318-.426.579-.466 1.106a62.495 62.495 0 0 0-.024 2.145v1.837h-.086a.493.493 0 0 0-.34.171.501.501 0 0 0 .174.765c.085.043.222.044 5.705.044 5.419-.001 5.622-.002 5.712-.044a.497.497 0 0 0 .181-.765.493.493 0 0 0-.34-.171h-.086l-.001-4.065c0-2.237-.01-4.192-.021-4.346a3.205 3.205 0 0 0-.059-.432 1.55 1.55 0 0 0-1.102-1.102c-.179-.05-.212-.051-1.967-.055-.982-.003-1.858.004-1.948.015m3.756 1.041c.098.053.189.14.256.246.075.118.084.661.077 4.72l-.006 3.967-2.246.006-2.246.006.001-4.183c0-2.747.008-4.233.024-4.33.04-.247.199-.425.421-.47.056-.011.895-.018 1.864-.016 1.757.003 1.762.003 1.855.054M8.202 3.254a.567.567 0 0 0-.313.361.505.505 0 0 0 .289.564c.086.04.167.043 1.001.044.652 0 .934-.008 1.003-.028a.553.553 0 0 0 .319-.325.505.505 0 0 0-.235-.58l-.104-.058-.934-.006c-.758-.004-.95.001-1.026.028m.081 2.204a.49.49 0 0 0-.384.628.51.51 0 0 0 .31.327c.063.019.372.027 1.01.026.845 0 .927-.004 1.013-.043a.496.496 0 0 0 .035-.886l-.105-.062-.899-.004c-.494-.002-.935.004-.98.014M5.95 8.727v2.287l-1.697-.006-1.698-.006-.006-1.774c-.004-.975.003-1.912.014-2.083.019-.282.027-.32.089-.419.099-.161.242-.241.468-.262.1-.01.778-.019 1.506-.021L5.95 6.44v2.287m2.197-1a.497.497 0 0 0 .013.886c.111.055.114.055 1.01.055.494 0 .936-.008.982-.018.11-.023.273-.165.327-.284a.494.494 0 0 0-.241-.645c-.081-.041-.147-.044-1.038-.044-.928 0-.954.001-1.053.05" fill-rule="evenodd"/></svg>