<svg width="14" height="14" xmlns="http://www.w3.org/2000/svg"><path d="M4.281 2.053c-.07.035-.363.349-1.132 1.214-.571.641-1.061 1.21-1.09 1.263-.21.388.212.854.619.684.117-.049.141-.073.76-.768l.54-.605.012 3.895.012 3.896.065.111a.463.463 0 0 0 .4.246c.16.01.253-.023.371-.132.156-.145.142.206.155-4.119l.012-3.917.591.666c.392.442.619.679.674.706A.505.505 0 0 0 7 4.731a.543.543 0 0 0-.064-.201c-.036-.067-.461-.565-.962-1.129-1.103-1.241-1.156-1.297-1.272-1.35a.53.53 0 0 0-.421.002m5.029-.01a.582.582 0 0 0-.241.209l-.051.07-.011 3.928-.012 3.929-.583-.657c-.626-.706-.704-.772-.909-.772a.598.598 0 0 0-.392.19.464.464 0 0 0-.047.53c.056.104 1.593 1.859 2.012 2.298.172.18.258.225.428.225.226 0 .229-.002 1.347-1.259.57-.642 1.061-1.211 1.09-1.264a.496.496 0 0 0-.125-.6.478.478 0 0 0-.631.002c-.046.041-.326.347-.623.681l-.54.606-.012-3.895-.012-3.896-.065-.111a.455.455 0 0 0-.398-.244.502.502 0 0 0-.225.03" fill-rule="evenodd"/></svg>