<svg width="15" height="15" xmlns="http://www.w3.org/2000/svg"><path d="M1.965 1.027a1.145 1.145 0 0 0-.928.891c-.053.25-.053 3.59 0 3.839.091.431.428.77.867.874.203.048 3.68.045 3.871-.003a1.19 1.19 0 0 0 .845-.812c.034-.11.041-.376.049-1.841.009-1.794 0-2.011-.097-2.257a1.167 1.167 0 0 0-.693-.649c-.166-.056-.172-.056-1.966-.06-.991-.002-1.867.006-1.948.018m7.354-.001c-.416.07-.747.327-.891.692-.097.245-.106.464-.097 2.257.008 1.469.015 1.731.049 1.841.123.404.442.71.845.812.191.048 3.668.051 3.871.003.456-.108.807-.48.878-.931.016-.099.026-.836.025-1.887 0-1.403-.007-1.757-.036-1.895a1.133 1.133 0 0 0-.95-.892c-.208-.03-3.517-.03-3.694 0M5.618 2.057c.042.042.045.148.045 1.781 0 1.632-.003 1.738-.045 1.78-.042.042-.148.045-1.78.045-1.633 0-1.739-.003-1.781-.045-.042-.042-.045-.151-.051-1.741-.005-1.093.002-1.72.018-1.762a.171.171 0 0 1 .082-.089c.033-.014.768-.021 1.762-.018 1.6.004 1.708.007 1.75.049m7.325 0c.042.042.045.148.045 1.78 0 1.633-.003 1.739-.045 1.781-.042.042-.148.045-1.781.045-1.632 0-1.738-.003-1.78-.045-.042-.042-.045-.146-.052-1.613-.003-.862.002-1.652.013-1.754.017-.165.027-.191.082-.219.049-.025.426-.031 1.768-.026 1.599.006 1.708.009 1.75.051M3.71 3.354c-.228.051-.414.321-.373.54.048.254.216.408.464.426a.488.488 0 0 0 .423-.8.51.51 0 0 0-.514-.166m7.346-.004a.5.5 0 0 0-.381.481c0 .149.034.236.133.341a.459.459 0 0 0 .367.153c.442 0 .66-.513.355-.833a.5.5 0 0 0-.474-.142M7.342 7.025a.521.521 0 0 0-.289.257.495.495 0 0 0 .387.709A.486.486 0 0 0 8 7.5a.5.5 0 0 0-.658-.475M2.1 8.35a1.586 1.586 0 0 0-.35.064 1.145 1.145 0 0 0-.714.832c-.052.244-.052 3.589 0 3.832.096.453.432.79.882.885.25.053 3.59.053 3.839 0 .431-.091.77-.428.874-.867.048-.203.045-3.68-.003-3.871a1.186 1.186 0 0 0-.812-.844c-.109-.032-.387-.039-1.803-.045A55.727 55.727 0 0 0 2.1 8.35m8.338-.009-.106.023c-.085.018-.234.161-.285.273a.485.485 0 0 0 .233.64c.089.046.17.048 1.72.048s1.631-.002 1.72-.048a.488.488 0 0 0 .135-.785c-.154-.162-.061-.154-1.792-.158a59.277 59.277 0 0 0-1.625.007m-4.82 1.041c.042.042.045.148.045 1.784v1.738l-.06.048c-.056.046-.122.048-1.765.048-1.644 0-1.71-.002-1.766-.048l-.059-.048-.007-1.708c-.004-1.341.001-1.722.026-1.771.026-.051.056-.065.169-.078.075-.008.865-.014 1.754-.012 1.518.002 1.621.005 1.663.047m3.019.665a.566.566 0 0 0-.285.321c-.036.13-.036 3.134 0 3.264a.58.58 0 0 0 .105.185.488.488 0 0 0 .82-.097c.046-.089.048-.17.048-1.72s-.002-1.631-.048-1.72a.485.485 0 0 0-.64-.233m4.801.296c-.139.025-.169.039-.254.113-.185.163-.183.144-.183 1.413L13 13l-1.131.001c-1.04 0-1.14.004-1.232.046-.169.077-.312.284-.312.453a.56.56 0 0 0 .141.325c.164.182.121.178 1.747.17l1.45-.007.095-.06a.631.631 0 0 0 .162-.16l.068-.102.007-1.439c.005-.996-.001-1.469-.02-1.534a.603.603 0 0 0-.247-.303.573.573 0 0 0-.29-.047m-9.784.359a.5.5 0 0 0-.292.623.494.494 0 0 0 .825.189.486.486 0 0 0-.351-.837.624.624 0 0 0-.182.025m7.309.012a.594.594 0 0 0-.265.281.67.67 0 0 0-.018.219.49.49 0 0 0 .812.329.489.489 0 0 0-.322-.868.557.557 0 0 0-.207.039" fill-rule="evenodd"/></svg>