<svg width="15" height="15" xmlns="http://www.w3.org/2000/svg"><path d="M7.342 2.024a.528.528 0 0 0-.289.258L7 2.391v10.226l.058.11a.634.634 0 0 0 .165.186c.093.065.128.075.275.075.141 0 .185-.011.269-.068a.62.62 0 0 0 .161-.162l.06-.095V2.337l-.06-.095a.481.481 0 0 0-.382-.23.69.69 0 0 0-.204.012m-4.15 3.001a.5.5 0 0 0-.286.696c.031.057.301.368.6.69l.544.587-1.36.007-1.361.008-.106.075a.496.496 0 0 0 0 .825l.106.075 1.361.007 1.36.007-.544.587c-.299.322-.569.633-.6.69-.245.452.319.925.734.616.113-.085 1.954-2.087 2.003-2.179a.586.586 0 0 0 0-.432c-.041-.078-1.875-2.08-1.984-2.166a.513.513 0 0 0-.467-.093m8.288.011a.85.85 0 0 0-.139.082c-.109.086-1.943 2.088-1.984 2.166a.586.586 0 0 0 0 .432c.049.092 1.89 2.094 2.003 2.179.415.309.979-.164.734-.616-.031-.057-.301-.368-.6-.69l-.544-.587 1.356-.007 1.357-.007.095-.06a.62.62 0 0 0 .162-.161c.056-.084.068-.129.068-.267s-.012-.183-.068-.267a.62.62 0 0 0-.162-.161l-.095-.059-1.357-.008-1.356-.007.544-.587c.299-.322.569-.633.6-.69a.495.495 0 0 0-.158-.628.52.52 0 0 0-.456-.057"/></svg>