<svg width="16" height="16" xmlns="http://www.w3.org/2000/svg"><path d="M2.28 1.058a.456.456 0 0 0-.24.259c-.037.098-.041.616-.033 4.95.01 5.241.002 4.95.149 5.369.129.365.472.787.826 1.016.227.147.4.217.711.289.234.054.321.056 3.557.071l3.316.015.058.16c.1.275.23.471.481.722.205.206.28.262.495.367.433.212.816.272 1.232.193 1.181-.223 1.909-1.359 1.594-2.491a1.976 1.976 0 0 0-1.813-1.464A1.99 1.99 0 0 0 10.6 11.88l-.033.107-3.183.007c-2.264.006-3.246-.001-3.397-.022a1.039 1.039 0 0 1-.64-.306 1.035 1.035 0 0 1-.306-.613c-.016-.11-.027-.974-.027-2.113l-.001-1.927 3.777.007 3.776.007.058.16c.1.275.23.471.481.722.205.206.28.262.495.367.433.212.816.272 1.232.193 1.181-.223 1.909-1.359 1.594-2.491a1.976 1.976 0 0 0-1.813-1.464A1.99 1.99 0 0 0 10.6 5.88l-.033.107-3.776.006L3.015 6l-.008-2.313c-.006-2.098-.011-2.321-.051-2.394a.624.624 0 0 0-.271-.251.621.621 0 0 0-.405.016m10.593 4.52c.189.071.416.282.521.486.078.15.084.183.085.429.001.234-.008.285-.069.414a1.017 1.017 0 0 1-.467.484 1.009 1.009 0 0 1-1.034-.088.973.973 0 0 1-.397-.813c0-.186.012-.242.081-.39a.94.94 0 0 1 .435-.472c.27-.144.55-.16.845-.05m0 6c.189.071.416.282.521.486.078.15.084.183.085.429.001.234-.008.285-.069.414a1.017 1.017 0 0 1-.467.484 1.009 1.009 0 0 1-1.034-.088.973.973 0 0 1-.397-.813c0-.186.012-.242.081-.39a.94.94 0 0 1 .435-.472c.27-.144.55-.16.845-.05" fill-rule="evenodd"/></svg>