<svg width="15" height="15" xmlns="http://www.w3.org/2000/svg"><path d="M7.252 1.038a1.08 1.08 0 0 0-.218.089c-.121.075-.283.266-.402.475-.087.154-3.502 7.486-3.606 7.743-.043.107-.019.307.051.421a.5.5 0 0 0 .766.089c.071-.072.248-.432.805-1.637l.715-1.544h4.274l.715 1.544c.557 1.203.735 1.565.805 1.637a.497.497 0 0 0 .757-.078.52.52 0 0 0 .06-.418c-.05-.151-3.488-7.548-3.606-7.759-.141-.25-.367-.478-.53-.535a1.1 1.1 0 0 0-.586-.027m.458 1.493c.106.224.477 1.02.825 1.769l.631 1.363-.833.006c-.458.004-1.208.004-1.666 0l-.833-.006.631-1.363C7.289 2.523 7.478 2.125 7.5 2.125c.01 0 .105.183.21.406m-5.822 8.55c-.019.045-.225.492-.459.994-.233.502-.421.915-.418.919.006.006 8.958-.952 9.183-.983l.106-.014V11H1.922l-.034.081m7.462 1.42-3.681.498c-.011.001-.019.226-.019.501v.5H13.997l-.047-.106c-.3-.676-.879-1.882-.905-1.886-.018-.002-1.681.22-3.695.493" fill-rule="evenodd"/></svg>