<svg width="14" height="14" xmlns="http://www.w3.org/2000/svg"><path d="M6.44 1.027a6.707 6.707 0 0 0-1.505.338 6.946 6.946 0 0 0-1.241.634 5.933 5.933 0 0 0-2.071 2.35 5.236 5.236 0 0 0-.433 1.168c-.144.571-.174.828-.174 1.483 0 .438.01.637.042.852.055.353.196.913.307 1.215.2.543.579 1.214.955 1.69.178.225.698.745.923.923a6.78 6.78 0 0 0 1.69.955c.302.111.862.252 1.215.307.215.032.414.042.852.042.655 0 .912-.03 1.483-.174a5.236 5.236 0 0 0 1.168-.433 5.988 5.988 0 0 0 2.726-2.726c.216-.439.319-.719.433-1.168.144-.571.174-.828.174-1.483 0-.655-.03-.912-.174-1.483a5.236 5.236 0 0 0-.433-1.168c-.87-1.777-2.553-2.995-4.542-3.289a9.178 9.178 0 0 0-1.395-.033m1.077 1.004a5.048 5.048 0 0 1 2.633 1.09c.211.171.583.544.75.752 1.574 1.967 1.434 4.821-.325 6.612a4.997 4.997 0 0 1-3.014 1.484 6.78 6.78 0 0 1-1.122 0c-.964-.116-1.919-.523-2.624-1.118C2.653 9.87 2.007 8.495 2.007 7c0-1.363.539-2.636 1.52-3.589a5.03 5.03 0 0 1 2.925-1.379 6.761 6.761 0 0 1 1.065-.001m-.663 1.197a.547.547 0 0 0-.303.256l-.053.098-.006 1.675c-.005 1.089.001 1.723.017 1.809.05.273.02.252 1.296.896.629.317 1.199.594 1.267.614a.36.36 0 0 0 .244.009c.238-.057.427-.338.378-.563a.547.547 0 0 0-.18-.307 22.852 22.852 0 0 0-1.037-.537l-.962-.481-.007-1.557-.006-1.558-.052-.097a.545.545 0 0 0-.323-.263.383.383 0 0 0-.273.006" fill-rule="evenodd"/></svg>