<svg width="14" height="14" xmlns="http://www.w3.org/2000/svg"><path d="M6.44 1.027a6.707 6.707 0 0 0-1.505.338 6.946 6.946 0 0 0-1.241.634 5.933 5.933 0 0 0-2.071 2.35 5.236 5.236 0 0 0-.433 1.168c-.144.571-.174.828-.174 1.483 0 .438.01.637.042.852.055.353.196.913.307 1.215.2.543.579 1.214.955 1.69.178.225.698.745.923.923a6.78 6.78 0 0 0 1.69.955c.302.111.862.252 1.215.307.215.032.414.042.852.042.655 0 .912-.03 1.483-.174a5.236 5.236 0 0 0 1.168-.433 5.988 5.988 0 0 0 2.726-2.726c.216-.439.319-.719.433-1.168.144-.571.174-.828.174-1.483 0-.655-.03-.912-.174-1.483a5.236 5.236 0 0 0-.433-1.168c-.87-1.777-2.553-2.995-4.542-3.289a9.178 9.178 0 0 0-1.395-.033m1.077 1.004a5.048 5.048 0 0 1 2.633 1.09c.211.171.583.544.75.752 1.574 1.967 1.434 4.821-.325 6.612a4.997 4.997 0 0 1-3.014 1.484 6.78 6.78 0 0 1-1.122 0c-.964-.116-1.919-.523-2.624-1.118C2.653 9.87 2.007 8.495 2.007 7c0-1.363.539-2.636 1.52-3.589a5.03 5.03 0 0 1 2.925-1.379 6.761 6.761 0 0 1 1.065-.001m-.984 1.76a2.18 2.18 0 0 0-1.56 1.281c-.091.218-.094.337-.011.503a.482.482 0 0 0 .783.124c.046-.048.119-.166.163-.262a1.14 1.14 0 0 1 .547-.565c.186-.092.209-.097.446-.107.213-.008.274-.002.402.041.306.102.532.301.681.599a.78.78 0 0 1 .107.401c.011.197.008.219-.058.36-.149.317-.571.641-1.135.87-.226.091-.333.173-.39.299a.505.505 0 0 0 .469.715c.092 0 .502-.162.739-.291.572-.313 1.028-.741 1.223-1.148.105-.22.161-.472.161-.721 0-.641-.277-1.225-.782-1.651a2.684 2.684 0 0 0-.828-.424c-.207-.054-.754-.068-.957-.024m.245 5.511a.506.506 0 0 0-.061.859c.091.064.118.071.281.071.158 0 .192-.008.279-.065a.507.507 0 0 0 .216-.309c.054-.199-.064-.448-.261-.549-.112-.057-.351-.061-.454-.007" fill-rule="evenodd"/></svg>