<svg width="14" height="14" xmlns="http://www.w3.org/2000/svg"><path d="M3.202 1.028c-.651.05-1.071.231-1.488.64-.396.389-.583.756-.667 1.307-.047.31-.047 7.74 0 8.05.077.507.254.877.591 1.237.36.386.79.608 1.337.691.31.047 7.74.047 8.05 0 .547-.083.977-.305 1.337-.691.337-.36.514-.73.591-1.237.047-.31.047-7.74 0-8.05-.084-.551-.271-.918-.667-1.307-.43-.422-.825-.587-1.535-.641-.366-.028-7.184-.027-7.549.001m7.815 1.031c.463.113.841.504.932.963.02.1.03.772.037 2.368l.009 2.228-.916-.913c-.544-.542-.97-.946-1.046-.995a1.07 1.07 0 0 0-1.073-.06c-.14.067-.381.302-3.121 3.039-1.634 1.631-2.998 3.008-3.033 3.059a5.285 5.285 0 0 1-.068.102.343.343 0 0 1-.106-.05c-.226-.133-.476-.446-.544-.681a2.44 2.44 0 0 1-.057-.351C2 10.456 2 3.544 2.031 3.232c.029-.3.069-.436.182-.61.116-.179.23-.293.409-.409.168-.109.319-.156.58-.182.106-.01 1.873-.017 3.926-.015 3.36.004 3.749.008 3.889.043M4.436 3.198a1.718 1.718 0 0 0-.662 2.998 1.732 1.732 0 0 0 2.182-.012 1.705 1.705 0 0 0 .45-2.066 1.706 1.706 0 0 0-.863-.832 1.825 1.825 0 0 0-1.107-.088m.68.992a.784.784 0 0 1 .386.345c.054.105.063.147.063.33 0 .173-.01.227-.053.309a.7.7 0 0 1-.602.398.648.648 0 0 1-.51-.162c-.175-.154-.231-.273-.242-.512-.009-.179-.003-.218.048-.33a.677.677 0 0 1 .637-.414 1.01 1.01 0 0 1 .273.036m5.623 3.597 1.254 1.255v.738c0 .758-.023 1.133-.081 1.339-.072.251-.343.575-.594.709-.303.161-.056.151-3.91.159l-3.476.007 2.73-2.73c1.786-1.786 2.746-2.731 2.777-2.731.03 0 .488.443 1.3 1.254" fill-rule="evenodd"/></svg>