<svg width="14" height="14" xmlns="http://www.w3.org/2000/svg"><path d="M3.488 1.029c-.624.052-1.06.219-1.505.575-.562.45-.883 1.076-.956 1.861-.032.347-.032 6.723 0 7.07.064.688.3 1.217.746 1.669.397.402.832.627 1.432.741.196.037.497.04 3.795.04 3.941 0 3.729.007 4.203-.142a2.594 2.594 0 0 0 1.64-1.64c.149-.474.142-.262.142-4.203 0-3.941.007-3.729-.142-4.203a2.581 2.581 0 0 0-1.016-1.332 2.107 2.107 0 0 0-.627-.309c-.45-.142-.298-.136-4.048-.142-1.887-.003-3.535.004-3.664.015m7.129 2.041a.66.66 0 0 1 .313.313l.048.105v7.024l-.048.105a.646.646 0 0 1-.31.309c-.163.072-.728.085-3.62.085-2.892 0-3.457-.013-3.62-.085a.646.646 0 0 1-.31-.309l-.048-.105V3.488l.048-.105a.586.586 0 0 1 .477-.351c.07-.009 1.666-.015 3.546-.013 3.414.003 3.419.003 3.524.051M5.361 4.364c-.386.097-.688.448-.741.863-.029.228-.029 3.318 0 3.546.046.359.255.647.583.803.141.067.17.072.409.072.24 0 .266-.004.414-.075.208-.098.392-.282.491-.49l.075-.158v-3.85l-.075-.158a1.059 1.059 0 0 0-.48-.483c-.137-.067-.184-.078-.373-.085a1.53 1.53 0 0 0-.303.015m2.755.007a1.043 1.043 0 0 0-.635.552l-.073.152v3.85l.075.158c.099.208.283.392.491.49.148.071.174.075.414.075.239 0 .268-.005.409-.072a1.01 1.01 0 0 0 .583-.803c.029-.228.029-3.318 0-3.546a1.009 1.009 0 0 0-.58-.801.753.753 0 0 0-.362-.078 1.2 1.2 0 0 0-.322.023" fill-rule="evenodd"/></svg>