<svg width="15" height="15" xmlns="http://www.w3.org/2000/svg"><path d="M7.286 1.062c-.095.047-.594.533-2.178 2.119C3.226 5.065 3.051 5.247 3.024 5.35a.501.501 0 0 0 .626.626c.103-.027.255-.173 1.731-1.646L7 2.713v6.904l.058.11a.634.634 0 0 0 .165.186c.093.065.128.075.275.075.141 0 .185-.011.269-.068a.62.62 0 0 0 .161-.162l.06-.095.006-3.475.007-3.474L9.619 4.33c1.476 1.473 1.628 1.619 1.731 1.646.396.104.73-.23.626-.626-.027-.103-.202-.285-2.084-2.169C7.739 1.025 7.712 1 7.5 1a.599.599 0 0 0-.214.062M1.342 9.024a.526.526 0 0 0-.292.264c-.055.113-.055.117-.043 1.269.013 1.263.028 1.437.166 1.837.211.614.819 1.221 1.433 1.433.488.168.258.161 4.894.161s4.406.007 4.894-.161c.614-.212 1.221-.819 1.433-1.433.143-.416.158-.588.159-1.883l.002-1.177-.068-.101c-.103-.157-.225-.22-.42-.22-.195 0-.317.063-.42.219l-.067.102-.016 1.139c-.018 1.263-.036 1.442-.173 1.719a1.618 1.618 0 0 1-.51.563c-.193.125-.41.188-.751.22-.373.034-7.753.034-8.125 0-.342-.032-.559-.095-.752-.22a1.618 1.618 0 0 1-.51-.563c-.137-.277-.155-.456-.173-1.717l-.015-1.137-.06-.096a.481.481 0 0 0-.382-.23.69.69 0 0 0-.204.012" fill-rule="evenodd"/></svg>