<svg width="14" height="14" xmlns="http://www.w3.org/2000/svg"><path d="M8.572 2.043a3.118 3.118 0 0 0-1.195.492c-.086.06-.378.33-.651.6-.554.549-.583.592-.559.824.034.327.41.541.693.394.045-.023.281-.238.525-.478.255-.25.514-.482.611-.545a1.933 1.933 0 0 1 2.855.873 1.988 1.988 0 0 1-.001 1.467c-.116.282-.268.478-.749.969-.424.433-.459.476-.486.586a.494.494 0 0 0 .432.609c.226.023.272-.009.83-.572.53-.536.688-.738.846-1.083.184-.406.27-.801.27-1.244 0-.779-.279-1.472-.816-2.027a2.899 2.899 0 0 0-1.639-.866 3.633 3.633 0 0 0-.966.001m-.079 2.799c-.087.039-3.537 3.467-3.616 3.594a.5.5 0 0 0 .198.711.545.545 0 0 0 .423.012c.124-.052 3.582-3.504 3.651-3.645a.507.507 0 0 0-.162-.625c-.082-.057-.126-.07-.256-.076a.548.548 0 0 0-.238.029M3.698 6.203c-.145.07-1.046.995-1.209 1.243a2.87 2.87 0 0 0-.482 1.619c0 .805.287 1.495.86 2.068a2.82 2.82 0 0 0 2.068.86 2.87 2.87 0 0 0 1.619-.482c.278-.183 1.198-1.091 1.254-1.237a.505.505 0 0 0-.286-.639.612.612 0 0 0-.386.015c-.043.022-.279.237-.524.479-.283.277-.512.481-.624.554a1.952 1.952 0 0 1-1.998.069c-.97-.541-1.277-1.806-.666-2.75.066-.102.279-.34.547-.614.242-.245.459-.483.482-.528.105-.203.019-.491-.185-.617a.514.514 0 0 0-.47-.04" fill-rule="evenodd"/></svg>