<svg width="15" height="15" xmlns="http://www.w3.org/2000/svg"><path d="M6.927 1.026a6.622 6.622 0 0 0-3.502 1.41c-.256.202-.828.78-1.029 1.039C1.483 4.655 1 6.046 1 7.5c0 1.455.481 2.841 1.396 4.025.212.273.806.867 1.079 1.079C4.659 13.519 6.045 14 7.5 14c1.453 0 2.843-.482 4.025-1.396a9.013 9.013 0 0 0 1.079-1.079c.962-1.245 1.44-2.7 1.388-4.225a6.444 6.444 0 0 0-1.389-3.825 8.93 8.93 0 0 0-1.028-1.039 7.478 7.478 0 0 0-1.859-1.048 7.109 7.109 0 0 0-1.257-.313 8.456 8.456 0 0 0-1.532-.049m1.073 1a5.497 5.497 0 0 1 3.384 9.361A5.497 5.497 0 0 1 7.5 13 5.498 5.498 0 1 1 8 2.026m-2.809 2.85a.968.968 0 0 0-.686.544.994.994 0 0 0-.008.711c.145.368.598.641.962.58.493-.082.819-.449.819-.923a.923.923 0 0 0-1.087-.912m4.284-.001c-.481.083-.837.573-.757 1.041.015.087.052.209.081.269.176.364.616.592.991.515a.937.937 0 0 0 .76-.764c.119-.609-.45-1.17-1.075-1.061M4.689 8.78a.669.669 0 0 0-.175.166c-.065.092-.076.131-.076.263 0 .136.012.176.109.346a4.165 4.165 0 0 0 1.427 1.454 3.017 3.017 0 0 0 2.429.276c.802-.251 1.601-.931 2.067-1.76.078-.138.092-.186.092-.317s-.011-.17-.076-.262a.479.479 0 0 0-.403-.221c-.232 0-.344.075-.502.338-.418.697-1.048 1.191-1.686 1.322-.933.192-1.868-.314-2.498-1.353-.132-.219-.239-.291-.444-.301-.136-.007-.183.002-.264.049" fill-rule="evenodd"/></svg>