<svg width="15" height="15" xmlns="http://www.w3.org/2000/svg"><path d="M7.342 1.024a.528.528 0 0 0-.289.258L7 1.391v6.896L5.406 6.695C3.741 5.031 3.708 5.002 3.499 5.001a.615.615 0 0 0-.413.222.55.55 0 0 0-.062.427c.027.103.203.286 2.084 2.17 1.13 1.132 2.094 2.082 2.142 2.112a.567.567 0 0 0 .5.001c.048-.031 1.012-.981 2.142-2.113 1.88-1.883 2.056-2.067 2.084-2.17a.55.55 0 0 0-.062-.427.615.615 0 0 0-.413-.222c-.209.001-.242.03-1.907 1.693L8.001 8.286l-.007-3.474-.006-3.474-.06-.096a.481.481 0 0 0-.382-.23.69.69 0 0 0-.204.012m-6 8a.53.53 0 0 0-.292.263c-.054.113-.054.117-.042 1.319.007.745.023 1.264.041 1.357.05.267.189.628.328.853.274.444.773.854 1.229 1.011.488.168.258.161 4.894.161s4.406.007 4.894-.161c.605-.209 1.208-.806 1.429-1.417.156-.431.164-.523.164-1.862l.001-1.214-.068-.101c-.103-.157-.225-.22-.42-.22-.195 0-.317.063-.42.219l-.067.102-.017 1.189c-.013.94-.024 1.225-.055 1.359-.105.457-.502.888-.94 1.019-.09.026-.287.06-.438.074-.373.034-7.753.034-8.125 0a2.959 2.959 0 0 1-.439-.074c-.438-.131-.836-.562-.94-1.019-.031-.134-.042-.421-.055-1.357l-.016-1.187-.06-.096a.481.481 0 0 0-.382-.23.69.69 0 0 0-.204.012" fill-rule="evenodd"/></svg>