<svg width="14" height="14" xmlns="http://www.w3.org/2000/svg"><path d="M6.743 2.083a.425.425 0 0 0-.185.191l-.06.116-.011 3.956-.012 3.956-.677-.654-1.335-1.29c-.439-.423-.693-.652-.759-.682a.492.492 0 0 0-.698.441c-.001.232-.051.178 1.864 2.025.983.948 1.823 1.749 1.868 1.781.07.051.106.059.262.059.156 0 .192-.008.262-.059.044-.032.885-.834 1.868-1.782 1.914-1.846 1.865-1.793 1.864-2.024a.492.492 0 0 0-.7-.44c-.061.028-.219.16-.397.334-.162.158-.763.738-1.334 1.289l-1.038 1.002-.012-3.956-.011-3.956-.06-.116A.503.503 0 0 0 7 2.007a.408.408 0 0 0-.257.076" fill-rule="evenodd"/></svg>