<svg width="16" height="16" xmlns="http://www.w3.org/2000/svg"><path d="M7.52 2.028c-.963.12-1.822.509-2.456 1.112a3.265 3.265 0 0 0-.89 1.372C4.025 4.957 4 5.197 4 6.181c0 .666-.008.863-.033.87a6.875 6.875 0 0 1-.205.041c-.659.123-1.324.691-1.579 1.348-.147.38-.161.527-.175 1.885-.017 1.581.012 1.879.221 2.337.122.267.29.494.526.714.323.3.616.45 1.084.554.253.056.273.057 4.161.057 3.888 0 3.908-.001 4.161-.057.468-.104.761-.254 1.084-.554.449-.417.657-.853.73-1.531.047-.431.017-2.699-.039-2.988a2.21 2.21 0 0 0-.613-1.16 2.196 2.196 0 0 0-1.096-.613c-.236-.054-.307-.055-3.729-.064L5.01 7.011l.01-.939c.011-1.059.014-1.083.218-1.499.367-.748 1.059-1.261 2.015-1.494.24-.058.947-.082 1.227-.041a2.934 2.934 0 0 1 1.674.826c.431.431.698.955.846 1.664.037.171.061.225.142.31a.477.477 0 0 0 .675.036c.192-.174.218-.313.13-.708-.354-1.601-1.55-2.778-3.137-3.086a5.415 5.415 0 0 0-1.29-.052m4.484 6.032c.326.079.565.244.751.517.212.314.214.323.225 1.795.007.832 0 1.369-.018 1.506-.078.578-.494.994-1.086 1.086-.348.053-7.404.053-7.752 0-.592-.092-1.008-.508-1.086-1.086-.018-.137-.025-.674-.018-1.506.009-1.124.016-1.313.056-1.45.081-.278.258-.518.504-.682.195-.13.377-.186.697-.213.134-.011 1.887-.018 3.896-.016 3.265.005 3.673.01 3.831.049"/></svg>