<svg width="15" height="15" xmlns="http://www.w3.org/2000/svg"><path d="M7.292 1.035c-.173.064-.283.164-1.097.987-1.947 1.967-3.187 3.463-3.68 4.439a5.305 5.305 0 0 0-.489 1.719c-.179 1.678.545 3.422 1.88 4.526.8.662 1.693 1.062 2.757 1.236.386.063 1.288.063 1.675 0 1.841-.301 3.336-1.377 4.122-2.967a5.148 5.148 0 0 0 .126-4.304c-.418-.977-1.724-2.577-3.823-4.688-.588-.591-.885-.871-.962-.909a.758.758 0 0 0-.509-.039m.862 1.971c1.599 1.654 2.47 2.679 3.016 3.55.627 1.001.776 2.278.401 3.432a4.283 4.283 0 0 1-2.252 2.523 4.115 4.115 0 0 1-1.819.396 4.115 4.115 0 0 1-1.819-.396c-1.197-.558-2.084-1.653-2.357-2.909a4.237 4.237 0 0 1 .193-2.437c.267-.668.977-1.625 2.231-3.002.564-.619 1.72-1.813 1.755-1.813.01 0 .303.295.651.656" fill-rule="evenodd"/></svg>