<svg width="16" height="16" xmlns="http://www.w3.org/2000/svg"><path d="M3.108 1.054a1.525 1.525 0 0 0-.668.399c-.784.783-.465 2.106.595 2.472l.178.062h9.574l.178-.062c1.06-.366 1.378-1.688.595-2.472a1.49 1.49 0 0 0-.68-.4c-.211-.056-9.567-.055-9.772.001m9.579.987c.054.023.12.062.148.087.138.124.192.391.116.573a.625.625 0 0 1-.305.279c-.095.026-9.197.026-9.292 0a.673.673 0 0 1-.302-.263c-.084-.162-.027-.463.113-.589.146-.132-.099-.126 4.829-.127 4.076-.001 4.605.004 4.693.04M3.449 5.053a2.82 2.82 0 0 0-.813.285c-.851.433-1.423 1.214-1.6 2.182-.053.292-.053 4.668 0 4.96a3.03 3.03 0 0 0 2.484 2.484c.296.053 8.664.053 8.96 0a3.03 3.03 0 0 0 2.484-2.484c.029-.159.036-.669.036-2.48 0-2.446 0-2.446-.139-2.893a3.02 3.02 0 0 0-2.324-2.055c-.313-.054-8.786-.054-9.088.001m9.055 1.006c.594.184 1.046.567 1.299 1.101.199.42.197.398.197 2.84 0 2.424 0 2.419-.189 2.825a1.98 1.98 0 0 1-1.426 1.135c-.276.058-8.492.059-8.768 0a1.953 1.953 0 0 1-1.418-1.12c-.195-.414-.186-.277-.186-2.84 0-2.563-.009-2.426.186-2.84a2.015 2.015 0 0 1 1.47-1.132c.072-.012 2.057-.02 4.411-.018 3.921.004 4.292.008 4.424.049" fill-rule="evenodd"/></svg>