<svg width="14" height="14" xmlns="http://www.w3.org/2000/svg"><path d="M3.78 2.033a1.927 1.927 0 0 0-1.318.69c-.241.292-.379.631-.431 1.056-.033.271-.033 6.171 0 6.442.068.557.296.99.693 1.318.291.24.63.378 1.055.43.271.033 6.171.033 6.442 0 .696-.085 1.235-.444 1.537-1.025.208-.4.235-.63.235-1.997V7.871l-.053-.103a.56.56 0 0 0-.166-.179c-.098-.066-.132-.076-.263-.076a.472.472 0 0 0-.466.28c-.04.076-.044.169-.057 1.249-.014 1.26-.014 1.264-.147 1.49a1.08 1.08 0 0 1-.398.361c-.227.107-.269.109-3.443.109-3.177 0-3.216-.002-3.445-.109a1.092 1.092 0 0 1-.423-.409.957.957 0 0 1-.097-.318C3 9.913 3 4.087 3.035 3.836a1.12 1.12 0 0 1 .084-.297c.113-.224.354-.424.588-.489.048-.013.591-.029 1.251-.037 1.136-.014 1.169-.016 1.26-.065a.49.49 0 0 0 .276-.454.495.495 0 0 0-.223-.412l-.096-.064-1.098-.003a27.296 27.296 0 0 0-1.297.018m4.515.018a.494.494 0 0 0-.149.796c.152.156.205.163 1.232.163h.9L8.42 4.871C6.916 6.377 6.556 6.749 6.533 6.822a.584.584 0 0 0 .06.462.521.521 0 0 0 .612.17c.061-.025.64-.589 1.936-1.884l1.849-1.848v.9c0 1.027.007 1.08.163 1.232a.495.495 0 0 0 .804-.166c.032-.075.036-.294.036-1.696 0-.939-.009-1.633-.021-1.666a.647.647 0 0 0-.27-.276c-.088-.04-.196-.042-1.704-.042-1.518 0-1.615.002-1.703.043" fill-rule="evenodd"/></svg>