<svg width="15" height="15" xmlns="http://www.w3.org/2000/svg"><path d="M7.342 2.025A.522.522 0 0 0 7 2.504c0 .151.089.314.223.409l.106.075.836.007.835.008v8.994l-.835.008-.836.008-.106.075a.496.496 0 0 0 0 .825l.106.075h4.337l.101-.068c.157-.103.221-.225.221-.42 0-.195-.064-.317-.22-.42l-.102-.067-.833-.008-.833-.008v-.993l1.294-.01c1.234-.009 1.303-.012 1.489-.064.3-.083.477-.189.719-.429.246-.245.366-.454.44-.77.042-.179.046-.349.046-2.243 0-2.285.005-2.201-.175-2.577-.149-.308-.486-.622-.825-.769-.261-.112-.389-.122-1.719-.135L10 3.995V3l.781-.001c.702 0 .792-.005.882-.046.169-.077.312-.284.312-.453 0-.169-.143-.376-.312-.453-.095-.043-.22-.046-2.175-.044-1.142.001-2.107.011-2.146.022m-4.779 2a1.68 1.68 0 0 0-.55.119c-.334.139-.677.458-.826.767-.18.376-.175.292-.175 2.577 0 1.894.004 2.064.046 2.243.074.316.194.525.44.77.241.24.418.345.719.43.193.054.222.055 2.296.063l2.1.008.112-.059a.647.647 0 0 0 .188-.166c.065-.092.075-.128.075-.273 0-.199-.063-.32-.22-.424l-.102-.067-2.077-.015c-1.142-.008-2.105-.023-2.139-.033a.695.695 0 0 1-.333-.27.702.702 0 0 1-.096-.314c-.014-.116-.021-.965-.016-2.033.007-1.8.008-1.838.06-1.948a.728.728 0 0 1 .29-.315c.138-.071.5-.084 2.383-.085h1.876l.112-.056a.573.573 0 0 0 .186-.165c.064-.092.076-.132.076-.262 0-.205-.066-.33-.226-.429l-.121-.075-1.927-.003a74.39 74.39 0 0 0-2.151.015m9.778.998a1.2 1.2 0 0 1 .303.062.725.725 0 0 1 .291.315c.052.11.053.148.06 1.948.005 1.068-.002 1.917-.016 2.033-.042.342-.214.539-.519.592-.093.017-.599.027-1.306.027H10V5l1.056.001c.581 0 1.159.01 1.285.022" fill-rule="evenodd"/></svg>