<svg width="14" height="14" xmlns="http://www.w3.org/2000/svg"><path d="M3.558 1.019c-.102.022-.234.138-.299.265-.055.106-.064.148-.054.248.015.156.056.232.227.414l.14.151-.112.014c-.394.05-.687.135-.98.284a2.751 2.751 0 0 0-1.188 1.182c-.239.472-.36 1.176-.245 1.428a.497.497 0 0 0 .879.047c.05-.085.066-.151.083-.349.012-.137.046-.322.079-.426a1.7 1.7 0 0 1 1.29-1.141c.095-.018.178-.033.185-.033.007 0-.052.069-.13.152-.172.184-.213.26-.229.417-.01.101-.001.14.056.248.115.219.346.32.584.256.1-.027.172-.09.725-.639.338-.335.635-.643.661-.684a.572.572 0 0 0 .06-.204c.024-.235.004-.262-.699-.962-.527-.524-.652-.637-.729-.658a.71.71 0 0 0-.304-.01m5.122.018a3.716 3.716 0 0 0-1.168.364 3.791 3.791 0 0 0-1.925 2.227c-.105.321-.104.471.004.624.18.257.517.295.745.085.086-.08.112-.127.176-.32.164-.499.377-.856.707-1.184.251-.249.438-.386.729-.532a2.795 2.795 0 0 1 3.229.522c.561.561.847 1.305.81 2.107a2.665 2.665 0 0 1-.81 1.839c-.345.348-.664.542-1.169.71-.218.073-.264.097-.345.185a.465.465 0 0 0-.042.611c.088.13.21.2.375.213.092.007.178-.01.376-.075 1.311-.43 2.264-1.501 2.555-2.871.071-.334.088-.918.037-1.264a3.813 3.813 0 0 0-3.04-3.205 4.728 4.728 0 0 0-1.244-.036M4.328 5.429a3.816 3.816 0 0 0-3.127 2.56 3.392 3.392 0 0 0-.19 1.088c-.015.444.02.75.132 1.151a3.822 3.822 0 0 0 2.629 2.629c.4.112.707.147 1.151.132a3.427 3.427 0 0 0 1.095-.192c1.816-.606 2.902-2.518 2.496-4.393A3.81 3.81 0 0 0 6.002 5.6a3.411 3.411 0 0 0-1.215-.183c-.214.002-.42.007-.459.012m1.046 1.037a2.793 2.793 0 0 1 1.669 1.061c.175.23.388.672.459.953.257 1.018-.037 2.05-.787 2.755-.531.5-1.181.758-1.908.758a2.793 2.793 0 1 1 .567-5.527m6.898 2.302c-.191.096-.253.212-.28.526-.026.29-.102.55-.225.763a2.253 2.253 0 0 1-.597.603 2.196 2.196 0 0 1-.634.225l-.115.016.144-.154c.174-.186.215-.261.231-.419.025-.249-.191-.497-.455-.522-.22-.021-.283.025-.967.713-.66.663-.671.679-.67.903.001.177.064.256.714.901.687.681.701.691.938.666a.462.462 0 0 0 .385-.272c.055-.107.064-.149.054-.249-.015-.156-.056-.232-.225-.412l-.139-.149.197-.028a2.737 2.737 0 0 0 2.098-1.49c.223-.444.338-1.154.226-1.394-.123-.266-.413-.363-.68-.227" fill-rule="evenodd"/></svg>