<svg width="14" height="14" xmlns="http://www.w3.org/2000/svg"><path d="M6.758 1.028c-.05.012-.15.054-.223.093-.194.103-5.416 4.29-5.473 4.388-.034.059-.046.122-.047.244 0 .142.009.179.064.263a.5.5 0 0 0 .373.23c.159.016.273-.031.485-.202l.151-.122.012 2.82c.013 3.164.002 2.972.187 3.356.203.42.569.722 1.026.846.142.038.386.041 3.687.041h3.535l.186-.054c.567-.164.976-.598 1.124-1.194.041-.165.044-.345.055-2.995l.012-2.82.151.122c.212.171.326.218.485.202a.498.498 0 0 0 .373-.23c.054-.082.064-.123.064-.251a.537.537 0 0 0-.045-.244c-.037-.074-.553-.498-2.695-2.212-1.989-1.591-2.692-2.142-2.818-2.204a.687.687 0 0 0-.373-.092 1.42 1.42 0 0 0-.296.015m.529 1.216c.067.043.906.705 1.865 1.472l1.745 1.394-.001 3.086c0 1.942-.009 3.146-.024 3.248-.04.278-.201.477-.424.525a7.012 7.012 0 0 1-.707.024h-.594V9.845c0-2.385.002-2.34-.154-2.604a1.032 1.032 0 0 0-.733-.496C8.171 6.73 7.652 6.72 7 6.72s-1.171.01-1.26.025c-.31.049-.575.229-.733.496-.156.264-.154.219-.154 2.604v2.148h-.594c-.326 0-.645-.011-.707-.024-.223-.048-.384-.247-.424-.525-.015-.102-.024-1.306-.024-3.248L3.103 5.11l1.745-1.394c1.736-1.388 1.896-1.511 2.01-1.549.118-.038.3-.005.429.077m.851 7.62.006 2.129H5.857V9.874c0-1.166.007-2.127.015-2.135.009-.009.521-.013 1.138-.01l1.122.006.006 2.129" fill-rule="evenodd"/></svg>