<svg width="16" height="16" xmlns="http://www.w3.org/2000/svg"><path d="M3.449 1.053a2.82 2.82 0 0 0-.813.285c-.851.433-1.423 1.214-1.6 2.182-.053.296-.053 8.664 0 8.96a3.03 3.03 0 0 0 2.484 2.484c.296.053 8.664.053 8.96 0a3.03 3.03 0 0 0 2.484-2.484c.053-.296.053-8.664 0-8.96-.231-1.27-1.198-2.252-2.427-2.468-.313-.054-8.786-.054-9.088.001m9.055 1.006c.594.184 1.046.567 1.299 1.101.208.44.197.169.197 4.84 0 4.648.01 4.399-.189 4.825a1.98 1.98 0 0 1-1.426 1.135c-.276.058-8.492.059-8.768 0a1.943 1.943 0 0 1-1.175-.717 2.607 2.607 0 0 1-.392-.79c-.054-.217-.054-8.689 0-8.906.056-.227.247-.609.397-.796a2.082 2.082 0 0 1 1.222-.723c.072-.012 2.057-.02 4.411-.018 3.921.004 4.292.008 4.424.049m-1.396.995c-.52.143-.943.582-1.067 1.107-.061.26-.061 7.418 0 7.678.066.279.19.499.399.708.31.31.639.447 1.066.446.653-.002 1.194-.397 1.42-1.038l.074-.208V4.253l-.074-.208c-.177-.501-.561-.864-1.047-.991a2 2 0 0 0-.771 0m.566.987a.494.494 0 0 1 .276.266c.047.102.049.262.049 3.693 0 3.412-.003 3.592-.049 3.694-.175.384-.696.407-.884.038-.052-.101-.053-.173-.053-3.732 0-3.508.002-3.632.051-3.728a.469.469 0 0 1 .61-.231" fill-rule="evenodd"/></svg>