<svg width="14" height="14" xmlns="http://www.w3.org/2000/svg"><path d="M3.888 1.04c-.21.051-.444.187-.62.358-.197.194-.686.79-.864 1.055-.246.367-.37.777-.39 1.292-.014.368.004.502.156 1.108A13.163 13.163 0 0 0 3.324 7.89c1.335 2.486 3.362 4.264 5.718 5.013.452.144.889.114 1.31-.091.355-.172.498-.311 1.102-1.063.403-.501.513-.762.532-1.261.023-.565-.089-.849-.576-1.463-.625-.788-.917-.972-1.503-.946-.39.016-.692.166-.961.475l-.196.224-.058.067-.225-.149c-1.205-.802-2.127-1.941-2.765-3.42-.17-.393-.169-.402.06-.688.208-.259.324-.476.402-.75a2.06 2.06 0 0 0-.013-.999 1.618 1.618 0 0 0-.284-.576c-.207-.28-.639-.788-.78-.916a1.35 1.35 0 0 0-1.199-.307m.478 1.007c.067.039.598.663.727.852.087.129.12.254.12.461.001.252-.047.367-.28.665a3.601 3.601 0 0 0-.246.343 1.37 1.37 0 0 0-.076.86c.098.337.455 1.09.756 1.597a8.854 8.854 0 0 0 1.866 2.199c.323.271.87.644 1.101.752.272.128.539.118.818-.028.13-.069.205-.14.503-.48.179-.203.275-.243.442-.179.088.034.15.097.43.439.41.501.445.567.458.844.014.307-.024.39-.385.842-.42.526-.564.666-.752.729-.22.074-.339.066-.665-.046-2.591-.888-4.726-3.223-5.753-6.295-.239-.715-.4-1.373-.414-1.694-.013-.292.04-.572.146-.783.102-.199.758-.997.885-1.075a.337.337 0 0 1 .319-.003" fill-rule="evenodd"/></svg>