<svg width="14" height="14" xmlns="http://www.w3.org/2000/svg"><path d="M2.304 1.028c-.341.04-.609.17-.86.419a1.219 1.219 0 0 0-.274.374c-.173.354-.169.268-.161 3.28.006 2.465.01 2.667.048 2.797.093.314.244.548.483.749.17.144.338.229.579.294.166.046.256.05 1.186.06l1.006.01.015.132c.091.808.457 1.659.985 2.293.654.786 1.574 1.314 2.622 1.507.28.052 1.111.058 1.377.011.974-.174 1.751-.571 2.412-1.232s1.058-1.438 1.232-2.412c.047-.266.041-1.097-.011-1.377-.347-1.887-1.787-3.301-3.645-3.581a5.216 5.216 0 0 0-.262-.035c-.023 0-.029-.185-.03-.846-.001-.958-.019-1.225-.104-1.478-.179-.532-.633-.893-1.214-.964-.244-.03-5.128-.031-5.384-.001m5.47 1.06a.518.518 0 0 1 .159.187l.059.117v1.955l-.222.044A4.375 4.375 0 0 0 4.391 7.77l-.044.222h-.989c-.958 0-.993-.002-1.083-.049a.475.475 0 0 1-.256-.388c-.008-.081-.012-1.286-.008-2.678.007-2.33.01-2.538.047-2.604.05-.091.189-.215.258-.23l.099-.021c.026-.006 1.219-.009 2.652-.007l2.606.003.101.07m1.508 3.277a3.363 3.363 0 0 1 2.642 2.586c.068.318.086.874.038 1.184a3.299 3.299 0 0 1-.971 1.902 3.368 3.368 0 0 1-1.634.89c-.283.066-.914.084-1.214.034a3.293 3.293 0 0 1-1.864-.955 3.298 3.298 0 0 1-.911-1.708 4.818 4.818 0 0 1-.048-.267c0-.011.533-.025 1.184-.031 1.322-.011 1.369-.016 1.686-.172.243-.12.518-.395.638-.638.156-.317.161-.364.172-1.686.006-.657.02-1.184.031-1.184s.125.02.251.045m-1.28.999c0 .549-.01 1.074-.02 1.168-.025.21-.1.33-.255.406-.108.053-.116.054-1.234.061-.7.004-1.126-.001-1.126-.015 0-.049.122-.447.189-.616.147-.369.472-.844.77-1.127a3.628 3.628 0 0 1 1.02-.677 4.88 4.88 0 0 1 .628-.196c.023-.001.029.213.028.996" fill-rule="evenodd"/></svg>