<svg width="14" height="14" xmlns="http://www.w3.org/2000/svg"><path d="M6.65 1.018a3.364 3.364 0 0 0-1.815.784c-.544.456-.918 1.086-1.085 1.826-.041.184-.048.315-.057 1.051l-.01.841-.132.031c-.318.072-.768.354-1.001.626a1.92 1.92 0 0 0-.436.782c-.097.335-.112.623-.101 1.943.009 1.114.014 1.23.057 1.423.09.397.256.704.541 1 .367.382.787.581 1.351.642.333.036 5.743.036 6.076 0 .564-.061.984-.26 1.351-.642.285-.296.451-.603.541-1 .043-.193.048-.309.057-1.423.011-1.32-.004-1.608-.101-1.943a1.92 1.92 0 0 0-.436-.782 2.219 2.219 0 0 0-1.02-.632c-.371-.09-.522-.095-3.167-.096L4.69 5.448v-.679c0-.881.035-1.093.247-1.51a1.94 1.94 0 0 1 .368-.522c.199-.213.406-.365.68-.498.369-.179.556-.219 1.015-.219.331 0 .413.008.583.055a2.317 2.317 0 0 1 1.656 1.639c.038.132.089.266.113.298a.527.527 0 0 0 .554.188.558.558 0 0 0 .328-.342c.042-.146.026-.258-.089-.603a3.304 3.304 0 0 0-2.464-2.183 5.037 5.037 0 0 0-1.031-.054m3.407 5.466c.416.072.78.402.884.803.032.124.037.325.037 1.44 0 1.16-.004 1.31-.04 1.442-.102.367-.4.668-.757.764-.227.06-.976.079-3.181.079s-2.954-.019-3.181-.079a1.147 1.147 0 0 1-.652-.507c-.142-.245-.145-.279-.145-1.688 0-1.38.004-1.446.122-1.679.075-.149.313-.386.462-.462.172-.087.291-.113.616-.133.459-.029 5.653-.011 5.835.02" fill-rule="evenodd"/></svg>