<svg width="15" height="15" xmlns="http://www.w3.org/2000/svg"><path d="M3.425 1.027c-.76.052-1.251.262-1.712.736-.36.368-.56.765-.656 1.3-.042.233-.045.523-.045 4.437 0 4.636-.007 4.406.161 4.894.212.614.819 1.221 1.433 1.433.488.168.258.161 4.894.161s4.406.007 4.894-.161c.614-.212 1.221-.819 1.433-1.433.168-.488.161-.258.161-4.894s.007-4.406-.161-4.894c-.142-.411-.526-.905-.897-1.154-.411-.276-.765-.383-1.41-.427-.424-.029-7.667-.027-8.095.002m8.41 1.03c.297.06.495.169.717.391.372.371.418.553.44 1.733l.015.819H1.993l.015-.819c.022-1.18.068-1.363.44-1.732.295-.292.513-.384 1.01-.423.14-.011 2.038-.018 4.217-.015 3.541.005 3.984.01 4.16.046M5 9.5V13h-.644c-1.032 0-1.368-.049-1.67-.245a1.631 1.631 0 0 1-.511-.563c-.16-.325-.157-.264-.168-3.373L1.997 6H5v3.5m7.993-.681c-.011 3.109-.008 3.048-.168 3.373-.156.316-.5.612-.824.709-.299.089-.639.099-3.357.099H6V6h7.003l-.01 2.819" fill-rule="evenodd"/></svg>