<svg width="14" height="14" xmlns="http://www.w3.org/2000/svg"><path d="M6.51 1.042a3.07 3.07 0 0 0-2.127 1.446 2.983 2.983 0 0 0 .168 3.276 3.085 3.085 0 0 0 1.866 1.182c.276.058.89.058 1.166 0 1.228-.26 2.138-1.163 2.393-2.373.057-.269.069-.716.026-.993a3.007 3.007 0 0 0-2.058-2.426 3.19 3.19 0 0 0-1.434-.112m.925 1.009a2.05 2.05 0 0 1 1.061.605c.613.665.703 1.609.227 2.4-.342.568-1.025.941-1.723.941-1.115 0-2.03-.9-2.03-1.995 0-.768.458-1.474 1.17-1.807.184-.086.386-.15.545-.172.192-.026.551-.013.75.028M4.352 7.983a2.72 2.72 0 0 0-1.524.744 2.659 2.659 0 0 0-.757 1.341c-.037.17-.048.331-.058.846a9.94 9.94 0 0 0 .003.713c.019.102.156.261.277.323.074.038.126.046.24.039a.463.463 0 0 0 .4-.246l.065-.111.014-.654c.014-.629.017-.66.078-.84a1.738 1.738 0 0 1 1.345-1.16c.251-.043 4.879-.043 5.13 0 .348.061.671.229.925.483.194.194.333.418.42.677.061.18.064.211.078.84l.014.654.065.111a.463.463 0 0 0 .4.246c.217.014.386-.089.491-.297.036-.071.039-.147.029-.747-.013-.74-.039-.922-.179-1.274a2.724 2.724 0 0 0-1.386-1.459 2.345 2.345 0 0 0-.797-.229c-.255-.032-5.024-.031-5.273 0" fill-rule="evenodd"/></svg>