<svg width="16" height="16" xmlns="http://www.w3.org/2000/svg"><path d="M3.449 1.053a2.82 2.82 0 0 0-.813.285c-.851.433-1.423 1.214-1.6 2.182-.053.296-.053 8.664 0 8.96a3.03 3.03 0 0 0 2.484 2.484c.296.053 8.664.053 8.96 0a3.03 3.03 0 0 0 2.484-2.484c.053-.296.053-8.664 0-8.96-.231-1.27-1.198-2.252-2.427-2.468-.313-.054-8.786-.054-9.088.001m9.055 1.006c.594.184 1.046.567 1.299 1.101.208.44.197.169.197 4.84 0 4.648.01 4.399-.189 4.825a1.98 1.98 0 0 1-1.426 1.135c-.276.058-8.492.059-8.768 0a1.943 1.943 0 0 1-1.175-.717 2.607 2.607 0 0 1-.392-.79c-.054-.217-.054-8.689 0-8.906.056-.227.247-.609.397-.796a2.082 2.082 0 0 1 1.222-.723c.072-.012 2.057-.02 4.411-.018 3.921.004 4.292.008 4.424.049M7.591 8.533c-.782.142-1.472.648-1.817 1.334-.498.988-.3 2.155.499 2.935.304.298.675.502 1.149.632.232.064.924.064 1.156 0 .473-.13.829-.327 1.147-.633a2.49 2.49 0 0 0-.62-4.037 2.213 2.213 0 0 0-1.025-.245 3.554 3.554 0 0 0-.489.014m.876 1.046c.439.144.831.542.967.981.063.201.063.679 0 .88a1.744 1.744 0 0 1-.367.604 1.485 1.485 0 0 1-2.134 0 1.744 1.744 0 0 1-.367-.604c-.063-.201-.063-.679 0-.88.128-.415.488-.797.906-.962.283-.112.689-.12.995-.019" fill-rule="evenodd"/></svg>