<svg width="16" height="16" xmlns="http://www.w3.org/2000/svg"><path d="M3.449 1.053a2.82 2.82 0 0 0-.813.285c-.851.433-1.423 1.214-1.6 2.182-.053.296-.053 8.664 0 8.96a3.03 3.03 0 0 0 2.484 2.484c.296.053 8.664.053 8.96 0a3.03 3.03 0 0 0 2.484-2.484c.053-.296.053-8.664 0-8.96-.231-1.27-1.198-2.252-2.427-2.468-.313-.054-8.786-.054-9.088.001m9.055 1.006c.594.184 1.046.567 1.299 1.101.208.44.197.169.197 4.84 0 4.648.01 4.399-.189 4.825a1.98 1.98 0 0 1-1.426 1.135c-.276.058-8.492.059-8.768 0a1.943 1.943 0 0 1-1.175-.717 2.607 2.607 0 0 1-.392-.79c-.054-.217-.054-8.689 0-8.906.056-.227.247-.609.397-.796a2.082 2.082 0 0 1 1.222-.723c.072-.012 2.057-.02 4.411-.018 3.921.004 4.292.008 4.424.049M4.689 6.027c-1.062.182-1.79 1.134-1.673 2.186.092.817.63 1.457 1.438 1.711l.199.063h6.694l.199-.063c.658-.206 1.155-.685 1.35-1.297.348-1.095-.244-2.21-1.354-2.552l-.195-.061L8.08 6.01c-1.797-.002-3.323.005-3.391.017m6.757 1.087a.995.995 0 0 1 .447 1.326 1.031 1.031 0 0 1-.731.544c-.221.041-6.104.041-6.323 0a1 1 0 0 1-.772-1.331.978.978 0 0 1 .566-.575l.154-.064 3.24.006 3.241.007.178.087" fill-rule="evenodd"/></svg>