<svg width="12" height="14" xmlns="http://www.w3.org/2000/svg"><path d="M5.22.017a.56.56 0 0 0-.333.296.648.648 0 0 0 .005.38c.019.045.124.17.253.301l.22.223-.067.011c-.632.097-.827.14-1.238.275C2.039 2.167.52 3.853.114 5.88c-.089.442-.104.605-.103 1.13 0 .37.01.563.036.74a5.738 5.738 0 0 0 1.601 3.247c.287.294.733.663.907.751.158.08.386.051.528-.067a.529.529 0 0 0 .177-.372c0-.216-.058-.303-.355-.531C1.313 9.552.646 7.576 1.19 5.69c.359-1.245 1.291-2.348 2.492-2.951a5.268 5.268 0 0 1 1.65-.507l.102-.013-.246.244c-.151.149-.263.277-.287.33a.6.6 0 0 0-.014.394c.04.094.146.208.241.258a.588.588 0 0 0 .44.006c.123-.061 1.45-1.351 1.517-1.474a.475.475 0 0 0 0-.454C7.016 1.397 5.707.125 5.577.059A.616.616 0 0 0 5.22.017M9.08 2.23a.502.502 0 0 0-.248.763c.026.035.144.138.263.229a4.802 4.802 0 0 1 1.868 3.198 6.22 6.22 0 0 1-.01 1.227 4.694 4.694 0 0 1-1.303 2.63 4.91 4.91 0 0 1-2.217 1.332 5.642 5.642 0 0 1-.765.161l-.101.013.263-.267c.284-.288.31-.332.31-.534a.422.422 0 0 0-.121-.31.435.435 0 0 0-.369-.161.43.43 0 0 0-.226.045c-.048.026-.382.331-.77.706-.764.737-.794.775-.794.988 0 .214.029.251.801.995.406.391.724.683.77.705.322.154.709-.083.709-.435 0-.192-.03-.247-.276-.499l-.228-.233.097-.012c2.587-.327 4.662-2.2 5.153-4.651.089-.442.103-.604.102-1.14 0-.425-.008-.558-.045-.797a5.759 5.759 0 0 0-1.728-3.315c-.242-.232-.595-.517-.739-.598a.54.54 0 0 0-.396-.04" fill-rule="evenodd"/></svg>