<svg width="15" height="15" xmlns="http://www.w3.org/2000/svg"><path d="M3.425 1.027c-.76.052-1.251.262-1.712.736-.36.368-.56.765-.656 1.3-.042.233-.045.523-.045 4.437 0 4.636-.007 4.406.161 4.894.212.614.819 1.221 1.433 1.433.488.168.258.161 4.894.161s4.406.007 4.894-.161c.614-.212 1.221-.819 1.433-1.433.168-.488.161-.258.161-4.894s.007-4.406-.161-4.894c-.142-.411-.526-.905-.897-1.154-.411-.276-.765-.383-1.41-.427-.424-.029-7.667-.027-8.095.002m8.41 1.03c.297.06.495.169.717.391.225.225.331.421.393.729.038.193.042.56.042 4.323 0 3.763-.004 4.13-.042 4.323-.055.272-.164.49-.341.682-.279.303-.549.424-1.041.47-.373.034-7.753.034-8.125 0-.493-.046-.763-.167-1.042-.47a1.364 1.364 0 0 1-.341-.682c-.039-.193-.042-.559-.042-4.323 0-3.764.003-4.13.042-4.323.062-.309.168-.504.393-.728.295-.292.513-.384 1.01-.423.14-.011 2.038-.018 4.217-.015 3.541.005 3.984.01 4.16.046M9.65 4.017c-.764.079-1.403.443-1.783 1.016-.345.519-.513 1.023-.78 2.337-.259 1.276-.396 1.685-.693 2.068-.312.401-.897.611-1.706.612-.238.001-.321.011-.4.047-.331.153-.384.575-.105.821.137.12.248.14.692.124 1.486-.053 2.365-.661 2.812-1.944.132-.38.219-.726.376-1.498.223-1.098.307-1.394.507-1.787.138-.272.391-.54.605-.642.306-.147.687-.196 1.123-.146l.276.032.133-.066a.595.595 0 0 0 .184-.134.497.497 0 0 0-.166-.748c-.173-.087-.695-.131-1.075-.092" fill-rule="evenodd"/></svg>