<svg width="14" height="14" xmlns="http://www.w3.org/2000/svg"><path d="M4.352 1.048a.58.58 0 0 0-.157.11c-.115.123-.135.209-.135.588v.347l-.461.016c-.708.025-1.035.085-1.37.253a2.189 2.189 0 0 0-.646.481 1.837 1.837 0 0 0-.517.971c-.048.208-.049.263-.057 3.559-.009 3.406-.004 3.674.078 4.002.126.505.423.909.905 1.232.305.205.67.321 1.146.366.351.032 7.373.032 7.724 0 .729-.069 1.207-.304 1.651-.814.156-.179.344-.545.399-.774.082-.345.087-.625.079-4.023-.008-3.285-.009-3.34-.057-3.548a1.837 1.837 0 0 0-.517-.971 2.189 2.189 0 0 0-.646-.481c-.335-.168-.662-.228-1.37-.253l-.461-.016v-.347c0-.379-.02-.465-.135-.588a.503.503 0 0 0-.787.088c-.069.113-.07.121-.078.485l-.007.369H5.067l-.007-.369c-.008-.364-.009-.371-.079-.484a.506.506 0 0 0-.629-.199m-.291 2.411c0 .405.023.489.17.618a.503.503 0 0 0 .756-.128c.062-.106.065-.125.073-.478l.007-.368h3.866l.007.368c.008.353.011.372.073.478a.503.503 0 0 0 .756.128c.147-.129.17-.213.17-.618l.001-.356.274.001c.35 0 .748.035.928.082.181.047.36.154.525.314.27.262.304.393.32 1.254l.012.659H2.001l.012-.659c.013-.677.03-.821.121-.997.12-.234.423-.481.688-.562.183-.055.482-.084.917-.088l.321-.004.001.356m7.926 5.238c-.009 2.488-.005 2.418-.133 2.666-.081.157-.318.377-.509.473-.304.152-.119.146-4.345.146-3.126 0-3.87-.006-4.009-.032a1.274 1.274 0 0 1-.649-.342c-.198-.194-.278-.366-.311-.67-.015-.142-.024-1.029-.024-2.385v-2.16h9.988l-.008 2.304M6.86 7.075a6.463 6.463 0 0 0-.606.342c-.553.335-.605.381-.656.572-.056.205.062.45.267.556.146.076.304.069.48-.022l.142-.073V9.8h-.158c-.203 0-.3.028-.411.12a.501.501 0 0 0 .17.857c.123.036 1.701.036 1.824 0a.501.501 0 0 0 .17-.857c-.111-.091-.208-.12-.41-.12h-.156l-.007-1.184c-.007-1.172-.008-1.185-.059-1.281a.545.545 0 0 0-.323-.263.4.4 0 0 0-.267.003" fill-rule="evenodd"/></svg>