<svg width="15" height="15" xmlns="http://www.w3.org/2000/svg"><path d="M3.638 2.017c-.276.024-.44.068-.663.175-.421.203-.78.628-.887 1.049C2.033 3.458 2 3.963 2 4.575c0 .519.002.547.058.652a.634.634 0 0 0 .165.186c.092.065.128.075.273.075.199 0 .32-.063.424-.22l.067-.101.017-.69c.01-.379.025-.765.034-.857.026-.26.167-.446.426-.563.091-.041.232-.045 1.817-.052L7 2.997V11.998l-1.085.007-1.086.008-.106.075a.496.496 0 0 0 0 .825l.106.075h5.337l.101-.068c.157-.103.221-.225.221-.42 0-.195-.064-.317-.22-.42l-.102-.067-1.083-.008L8 11.998V2.997l1.719.008c1.683.007 1.721.009 1.831.06.151.07.263.168.339.297.055.095.065.151.086.491.013.212.024.582.024.824.001.412.005.447.059.55a.634.634 0 0 0 .165.186c.092.065.128.075.273.075.199 0 .32-.063.424-.22.067-.101.068-.107.076-.604.01-.569-.028-1.211-.085-1.426-.106-.409-.464-.838-.865-1.037-.402-.199-.069-.185-4.421-.189-2.138-.003-3.933 0-3.987.005" fill-rule="evenodd"/></svg>