<svg width="14" height="14" xmlns="http://www.w3.org/2000/svg"><path d="M2.866 1.04c-.782.141-1.481.773-1.73 1.562-.124.394-.121.293-.121 4.398 0 3.071.006 3.854.031 4.013.146.926.784 1.661 1.662 1.915.224.064.685.084 1.089.047.665-.061 1.732-.193 1.899-.234a2.348 2.348 0 0 0 1.516-1.198c.19-.364.281-.739.286-1.182.003-.288-.024-.395-.132-.51a.523.523 0 0 0-.732 0c-.097.103-.13.226-.148.556-.021.361-.039.433-.167.681a1.362 1.362 0 0 1-.775.659c-.063.021-.473.081-.91.134-.645.078-.877.096-1.227.098l-.432.003-.187-.091a1.393 1.393 0 0 1-.738-.952c-.047-.252-.047-7.626 0-7.878.072-.391.367-.771.738-.952l.187-.091.408.003c.322.001.584.023 1.233.1.453.053.873.114.933.134.323.107.614.355.77.658.128.246.146.319.167.68.024.426.078.548.292.66a.519.519 0 0 0 .588-.104c.108-.115.135-.222.132-.51-.012-1.016-.556-1.874-1.431-2.255-.257-.112-.514-.162-1.307-.252C3.505.99 3.221.976 2.866 1.04M9.22 3.375a.479.479 0 0 0-.251.573c.034.118.101.193 1.198 1.338l1.161 1.212-3.161.012c-2.89.011-3.168.015-3.232.05a.501.501 0 0 0-.225.639.675.675 0 0 0 .28.275c.046.021.842.029 3.183.034 1.716.003 3.12.012 3.12.018 0 .007-.515.55-1.144 1.206-1.08 1.128-1.146 1.201-1.18 1.32a.488.488 0 0 0 .42.628c.265.027.177.106 1.931-1.725 1.078-1.125 1.602-1.688 1.632-1.754a.502.502 0 0 0 0-.402c-.03-.066-.554-.629-1.631-1.753-1.266-1.321-1.606-1.664-1.682-1.694a.484.484 0 0 0-.419.023" fill-rule="evenodd"/></svg>