<svg width="14" height="14" xmlns="http://www.w3.org/2000/svg"><path d="M6.778.031C6.602.089.251 3.296.169 3.369a.48.48 0 0 0-.041.688c.062.068.327.212 1.281.692.662.333 1.203.611 1.203.618 0 .006-.532.279-1.183.606-.65.328-1.219.627-1.263.665a.483.483 0 0 0 .007.731c.049.043.604.335 1.264.664a44.86 44.86 0 0 1 1.176.6c0 .007-.545.288-1.212.626-1.284.65-1.325.675-1.376.861a.479.479 0 0 0 .154.52c.06.053 1.254.664 3.349 1.715l3.255 1.633h.433l3.256-1.633c2.094-1.05 3.289-1.662 3.349-1.715a.479.479 0 0 0 .154-.52c-.051-.185-.092-.211-1.376-.861a43.03 43.03 0 0 1-1.212-.626c0-.006.529-.276 1.176-.6.66-.329 1.215-.621 1.264-.664a.483.483 0 0 0 .007-.731c-.045-.038-.613-.337-1.264-.665-.65-.327-1.182-.6-1.182-.606 0-.007.541-.285 1.203-.618 1.284-.646 1.331-.676 1.384-.868a.475.475 0 0 0-.158-.522c-.056-.047-1.446-.758-3.345-1.712L7.222.016 7.047.008a.924.924 0 0 0-.269.023m2.909 2.343a220.17 220.17 0 0 1 2.679 1.359c0 .007-1.208.619-2.683 1.361L7 6.443 4.317 5.094a212.702 212.702 0 0 1-2.683-1.361c0-.01 5.341-2.705 5.364-2.706.005 0 1.215.606 2.689 1.347M5.255 6.681c1.072.539 1.513.75 1.611.769.248.049.281.035 1.89-.774l1.488-.749 1.061.531c.584.291 1.062.535 1.062.542 0 .006-1.208.619-2.684 1.361L7 9.71 4.317 8.361A225.956 225.956 0 0 1 1.633 7c0-.016 2.108-1.072 2.128-1.066.009.002.681.339 1.494.747m.025 3.283 1.512.758h.417l1.523-.762 1.523-.761 1.056.528c.58.29 1.056.534 1.056.541 0 .02-5.327 2.694-5.367 2.694-.04 0-5.367-2.674-5.367-2.694 0-.016 2.107-1.074 2.124-1.067l1.523.763" fill-rule="evenodd"/></svg>