<svg width="16" height="16" xmlns="http://www.w3.org/2000/svg"><path d="M3.449 1.053a2.82 2.82 0 0 0-.813.285c-.851.433-1.423 1.214-1.6 2.182-.053.296-.053 8.664 0 8.96a3.03 3.03 0 0 0 2.484 2.484c.296.053 8.664.053 8.96 0a3.03 3.03 0 0 0 2.484-2.484c.053-.296.053-8.664 0-8.96-.231-1.27-1.198-2.252-2.427-2.468-.313-.054-8.786-.054-9.088.001m9.055 1.006c.594.184 1.046.567 1.299 1.101.208.44.197.169.197 4.84 0 4.648.01 4.399-.189 4.825a1.98 1.98 0 0 1-1.426 1.135c-.276.058-8.492.059-8.768 0a1.943 1.943 0 0 1-1.175-.717 2.607 2.607 0 0 1-.392-.79c-.054-.217-.054-8.689 0-8.906.056-.227.247-.609.397-.796a2.082 2.082 0 0 1 1.222-.723c.072-.012 2.057-.02 4.411-.018 3.921.004 4.292.008 4.424.049m-8.394.996c-.645.174-1.1.768-1.103 1.439-.001.427.136.756.446 1.066.207.207.434.334.714.4.25.059 7.416.059 7.666 0 .28-.066.507-.193.714-.4.31-.31.447-.639.446-1.066a1.499 1.499 0 0 0-1.114-1.44c-.229-.06-7.547-.058-7.769.001m7.564.986a.493.493 0 0 1-.075.944c-.165.038-7.033.038-7.198 0a.491.491 0 0 1-.094-.935c.102-.047.263-.049 3.687-.049 3.173-.001 3.592.004 3.68.04" fill-rule="evenodd"/></svg>