<svg width="14" height="14" xmlns="http://www.w3.org/2000/svg"><path d="M3.202 1.028c-.653.051-1.071.231-1.488.64-.308.303-.464.549-.577.91-.124.399-.122.311-.122 4.422s-.002 4.023.122 4.422a2.25 2.25 0 0 0 1.441 1.441c.4.124.313.122 4.422.122s4.022.002 4.422-.122a2.266 2.266 0 0 0 1.433-1.412c.129-.39.125-.302.135-3.541.008-2.685.005-3.018-.029-3.184a1.775 1.775 0 0 0-.225-.582c-.086-.138-2.575-2.648-2.779-2.802a1.891 1.891 0 0 0-.568-.284c-.128-.039-.327-.042-3.042-.045-1.598-.002-3.013.005-3.145.015m.234 2.023c.014 1.133.02 1.195.152 1.436.134.247.417.461.705.533.19.047 5.224.047 5.414 0 .188-.047.391-.162.525-.298.218-.222.312-.47.318-.836.001-.116.009-.288.017-.382l.015-.172.655.662c.596.601.66.673.706.796l.05.135v2.797c0 2.788-.008 3.14-.081 3.397-.072.251-.343.575-.595.709a1.585 1.585 0 0 1-.587.152l-.156.014-.01-1.954c-.009-1.623-.017-1.977-.045-2.085a1.084 1.084 0 0 0-.829-.804c-.235-.05-5.145-.05-5.38 0a1.084 1.084 0 0 0-.829.804c-.029.108-.036.458-.045 2.085l-.01 1.954-.155-.014c-.503-.047-.813-.222-1.056-.598-.115-.178-.155-.313-.184-.614-.031-.312-.031-7.224 0-7.536.029-.3.069-.436.182-.61.116-.179.23-.293.409-.409.167-.108.307-.152.575-.18l.212-.023c.008-.002.02.467.027 1.041M9.191 2.05a.975.975 0 0 1 .234.144l.118.1v.859c0 .825-.001.86-.045.883-.063.033-4.933.033-4.996 0-.044-.023-.045-.06-.045-1.027V2.007h2.309c2.202 0 2.316.002 2.425.043m.324 6.098c.022.021.028.483.028 1.937v1.908H4.457v-1.908c0-1.454.006-1.916.028-1.937.04-.041 4.99-.041 5.03 0" fill-rule="evenodd"/></svg>