<svg width="14" height="14" xmlns="http://www.w3.org/2000/svg"><path d="M2.298 1.519a.971.971 0 0 0-.535.278c-.402.431-.335 1.204.133 1.524.2.138.298.164.601.165.302 0 .455-.043.636-.181.301-.23.435-.668.332-1.088-.095-.388-.381-.64-.794-.699-.183-.027-.18-.027-.373.001m2.497.532a.493.493 0 0 0-.148.796c.17.176-.146.164 4.408.157l4.07-.006.093-.05a.49.49 0 0 0 .276-.454.495.495 0 0 0-.223-.412l-.096-.064-4.143-.005c-3.994-.005-4.147-.004-4.237.038M2.193 5.539c-.383.111-.617.383-.68.791-.065.418.097.812.419 1.016.3.191.802.198 1.113.016.36-.211.537-.693.419-1.143a.897.897 0 0 0-.518-.625c-.138-.064-.182-.073-.401-.079a1.342 1.342 0 0 0-.352.024m2.655.491c-.207.074-.323.218-.34.424-.02.236.128.463.338.521.061.017 1.364.025 4.172.024 3.9 0 4.088-.002 4.177-.043a.66.66 0 0 0 .178-.136.472.472 0 0 0-.035-.678.614.614 0 0 0-.193-.12c-.062-.017-1.334-.025-4.15-.024-3.325.001-4.076.006-4.147.032M2.28 9.519a1.109 1.109 0 0 0-.504.261c-.207.206-.315.565-.266.883.083.536.508.872 1.057.834.421-.029.725-.238.866-.594.045-.113.053-.179.053-.403 0-.224-.008-.29-.053-.403a.924.924 0 0 0-.568-.539 1.59 1.59 0 0 0-.585-.039m2.515.53c-.25.132-.357.411-.248.649.056.124.212.261.322.285.049.01 1.916.019 4.149.019 3.328 0 4.076-.006 4.148-.032a.497.497 0 0 0 .114-.877l-.101-.071-4.157-.005c-3.753-.005-4.164-.002-4.227.032" fill-rule="evenodd"/></svg>