<svg width="16" height="16" xmlns="http://www.w3.org/2000/svg"><path d="M7.449 1.053a2.82 2.82 0 0 0-.813.285c-.851.433-1.423 1.214-1.6 2.182-.053.296-.053 8.664 0 8.96a3.03 3.03 0 0 0 2.484 2.484c.292.053 4.668.053 4.96 0a3.03 3.03 0 0 0 2.484-2.484c.053-.296.053-8.664 0-8.96-.231-1.27-1.198-2.252-2.427-2.468-.309-.054-4.79-.053-5.088.001m-5.282.986c-.515.117-.956.538-1.118 1.068C1.002 3.259 1 3.481 1 8s.002 4.741.049 4.893c.166.543.589.942 1.131 1.07.228.054.569.035.799-.044.431-.148.794-.513.946-.954l.062-.178V3.213l-.062-.178a1.548 1.548 0 0 0-.963-.957 1.778 1.778 0 0 0-.795-.039m10.337.021a2.071 2.071 0 0 1 1.299 1.1c.208.44.197.169.197 4.84 0 4.648.01 4.399-.189 4.825a1.98 1.98 0 0 1-1.426 1.135c-.273.058-4.495.058-4.768 0a1.943 1.943 0 0 1-1.175-.717 2.607 2.607 0 0 1-.392-.79c-.054-.217-.054-8.689 0-8.906.056-.227.247-.609.397-.796a2.08 2.08 0 0 1 1.222-.723c.072-.013 1.157-.02 2.411-.018 2.038.005 2.295.01 2.424.05m-9.803.99a.534.534 0 0 1 .257.265c.04.106.04 9.264 0 9.37a.62.62 0 0 1-.224.255.507.507 0 0 1-.683-.23c-.048-.106-.05-.274-.05-4.71 0-4.407.002-4.604.049-4.707a.433.433 0 0 1 .23-.235.597.597 0 0 1 .421-.008" fill-rule="evenodd"/></svg>