<svg width="16" height="16" xmlns="http://www.w3.org/2000/svg"><path d="M3.449 1.053a2.82 2.82 0 0 0-.813.285c-.851.433-1.423 1.214-1.6 2.182-.053.296-.053 8.664 0 8.96a3.03 3.03 0 0 0 2.484 2.484c.296.053 8.664.053 8.96 0a3.03 3.03 0 0 0 2.484-2.484c.053-.296.053-8.664 0-8.96-.231-1.27-1.198-2.252-2.427-2.468-.313-.054-8.786-.054-9.088.001m9.055 1.006c.594.184 1.046.567 1.299 1.101.208.44.197.169.197 4.84 0 4.648.01 4.399-.189 4.825a1.98 1.98 0 0 1-1.426 1.135c-.276.058-8.492.059-8.768 0a1.943 1.943 0 0 1-1.175-.717 2.607 2.607 0 0 1-.392-.79c-.054-.217-.054-8.689 0-8.906.056-.227.247-.609.397-.796a2.082 2.082 0 0 1 1.222-.723c.072-.012 2.057-.02 4.411-.018 3.921.004 4.292.008 4.424.049M7.703 5.52c-.382.047-.81.21-1.141.433-.205.138-.565.527-.705.762-.173.288-.301.67-.342 1.013a2.537 2.537 0 0 0 .342 1.558c.174.294.563.683.857.857a2.5 2.5 0 0 0 2.092.22c.379-.13.652-.303.953-.604.301-.301.474-.574.604-.953a2.458 2.458 0 0 0-.576-2.54 2.117 2.117 0 0 0-.69-.506 2.652 2.652 0 0 0-1.394-.24m.807 1.075c.433.164.725.454.896.891.064.161.071.216.071.514 0 .298-.007.353-.071.514-.238.606-.774.979-1.406.979-.632 0-1.168-.373-1.406-.979-.064-.161-.071-.216-.071-.514 0-.296.008-.353.069-.51.198-.504.594-.848 1.101-.958.201-.043.622-.011.817.063" fill-rule="evenodd"/></svg>