<svg width="14" height="14" xmlns="http://www.w3.org/2000/svg"><path d="M5.028 1.019c-.025.006-.907.528-1.959 1.159-1.698 1.018-1.921 1.158-1.984 1.248l-.07.101-.007 4.519c-.005 3.242.001 4.544.019 4.608a.543.543 0 0 0 .292.309c.217.083.285.058 1.742-.643a54.222 54.222 0 0 0 2.014-1.027l.093-.051.35.191c.418.227 1.918.973 2.637 1.31.499.234.518.241.679.241l.165.001 1.923-1.155c1.706-1.025 1.93-1.166 1.993-1.256l.07-.101.007-4.519c.005-3.242-.001-4.544-.019-4.608a.543.543 0 0 0-.292-.309c-.218-.083-.19-.095-2.099.859l-1.75.874-1.752-.875c-1.583-.791-1.765-.876-1.879-.882a.842.842 0 0 0-.173.006M8.33 7.676c0 3.833-.002 4.035-.041 4.022-.078-.027-2.002-.986-2.31-1.151l-.309-.166V2.31L7 2.975l1.33.665v4.036m3.663-1.51v3.856l-1.33.798-1.33.798V3.64l1.325-.664a343.19 343.19 0 0 1 1.33-.665c.003 0 .005 1.734.005 3.855m-7.326.213v3.999l-.333.179a82.592 82.592 0 0 1-2.24 1.118l-.087.036V3.978l1.324-.797 1.33-.799c.003-.001.006 1.797.006 3.997" fill-rule="evenodd"/></svg>