<svg width="16" height="16" xmlns="http://www.w3.org/2000/svg"><path d="M3.449 1.053a2.82 2.82 0 0 0-.813.285c-.851.433-1.423 1.214-1.6 2.182-.053.296-.053 8.664 0 8.96a3.03 3.03 0 0 0 2.484 2.484c.296.053 8.664.053 8.96 0a3.03 3.03 0 0 0 2.484-2.484c.053-.296.053-8.664 0-8.96-.231-1.27-1.198-2.252-2.427-2.468-.313-.054-8.786-.054-9.088.001m9.055 1.006c.594.184 1.046.567 1.299 1.101.208.44.197.169.197 4.84 0 4.648.01 4.399-.189 4.825a1.98 1.98 0 0 1-1.426 1.135c-.276.058-8.492.059-8.768 0a1.943 1.943 0 0 1-1.175-.717 2.607 2.607 0 0 1-.392-.79c-.054-.217-.054-8.689 0-8.906.056-.227.247-.609.397-.796a2.082 2.082 0 0 1 1.222-.723c.072-.012 2.057-.02 4.411-.018 3.921.004 4.292.008 4.424.049M4.48 8.558a2.523 2.523 0 0 0-1.883 1.749c-.067.219-.074.278-.075.68-.002.382.006.467.059.65.212.731.671 1.287 1.326 1.604.406.197.597.239 1.093.239s.687-.042 1.093-.239c.655-.318 1.114-.873 1.326-1.604.052-.18.061-.272.061-.637s-.009-.457-.061-.637c-.326-1.126-1.289-1.86-2.432-1.854a2.997 2.997 0 0 0-.507.049m.933 1.007c.48.131.885.539 1.028 1.034a1.78 1.78 0 0 1 0 .802 1.52 1.52 0 0 1-1.148 1.066 1.186 1.186 0 0 1-.586 0A1.523 1.523 0 0 1 3.558 11.4a1.743 1.743 0 0 1 .013-.84 1.493 1.493 0 0 1 1.842-.995" fill-rule="evenodd"/></svg>