<svg width="14" height="14" xmlns="http://www.w3.org/2000/svg"><path d="m6.545 2.02-.257.035c-1.6.211-3.174 1.235-4.462 2.903-.275.356-.673.961-.748 1.137-.055.13-.062.176-.062.403 0 .329.031.407.34.878 1.362 2.068 3.132 3.341 4.979 3.579a6.29 6.29 0 0 0 1.33 0 5.479 5.479 0 0 0 1.765-.553c1.198-.599 2.298-1.635 3.214-3.026.309-.471.34-.549.34-.878 0-.318-.034-.408-.326-.854a9.716 9.716 0 0 0-1.363-1.677c-.921-.915-1.944-1.53-2.988-1.797a4.647 4.647 0 0 0-1.214-.152 9.229 9.229 0 0 0-.548.002m1.04 1.026c.492.069.864.186 1.363.431 1.042.509 2.028 1.437 2.845 2.676.11.167.2.324.2.349 0 .066-.422.691-.715 1.058-.291.366-.81.905-1.128 1.172-.809.68-1.618 1.07-2.532 1.222a4.916 4.916 0 0 1-1.236 0c-.923-.153-1.72-.54-2.544-1.233A9.997 9.997 0 0 1 2.722 7.56c-.297-.372-.715-.991-.715-1.057 0-.054.325-.554.578-.888a9.112 9.112 0 0 1 1.382-1.446c.761-.611 1.61-1.004 2.426-1.122a5.398 5.398 0 0 1 1.192-.001M6.58 4.329c-.87.178-1.546.87-1.717 1.757a2.807 2.807 0 0 0-.008.787c.084.476.29.867.638 1.213.417.414.922.623 1.507.623.585 0 1.09-.209 1.507-.623.283-.281.437-.529.554-.888.083-.258.109-.424.109-.702A2.191 2.191 0 0 0 7.4 4.327a2.716 2.716 0 0 0-.82.002m.715 1c.282.075.565.296.72.56.207.354.201.884-.014 1.241a1.465 1.465 0 0 1-.494.464 1.583 1.583 0 0 1-.317.099.7.7 0 0 1-.38 0 1.567 1.567 0 0 1-.32-.101c-.16-.077-.434-.346-.522-.512-.186-.349-.178-.856.017-1.191.151-.259.436-.483.71-.559.144-.039.453-.04.6-.001" fill-rule="evenodd"/></svg>