<svg width="15" height="15" xmlns="http://www.w3.org/2000/svg"><path d="M4.268 1.027c-.695.049-1.159.245-1.589.669-.408.402-.596.827-.653 1.473-.035.4-.035 8.262 0 8.662.056.635.243 1.064.634 1.455.428.428.876.625 1.565.688.391.035 6.159.035 6.55 0 .587-.054.984-.202 1.366-.509.406-.327.672-.745.774-1.215.079-.365.088-.782.08-3.775l-.008-2.987-.055-.2a2.444 2.444 0 0 0-.501-.921 26.12 26.12 0 0 0-.945-.936l-1.325-1.269a17.136 17.136 0 0 0-.725-.666 2.357 2.357 0 0 0-1.166-.469c-.28-.031-3.575-.031-4.002 0m3.866.989.116.016V3.3c0 .747.01 1.323.025 1.401.083.437.443.791.886.872.094.017.631.027 1.479.027h1.331l.016.131c.009.072.012 1.476.007 3.119-.011 3.269-.005 3.151-.158 3.453-.086.171-.359.439-.537.528-.325.163-.171.157-3.799.157-3.038 0-3.302-.004-3.474-.044a1.166 1.166 0 0 1-.637-.354 1.05 1.05 0 0 1-.334-.595c-.039-.168-.042-.516-.042-4.495s.003-4.327.042-4.495c.061-.261.135-.395.32-.583.26-.263.491-.361.935-.395.307-.024 3.661-.033 3.824-.011m2.341 1.833.724.692.062.059h-.966c-.845 0-.971-.005-1.006-.039-.034-.035-.039-.157-.039-.969v-.929l.281.277c.155.152.58.561.944.909M5.342 7.025A.52.52 0 0 0 5 7.504c0 .151.089.314.223.409l.106.075h4.337l.101-.068c.157-.103.221-.225.221-.42 0-.195-.064-.317-.22-.42l-.102-.067-2.127-.005c-1.169-.002-2.158.005-2.197.017m0 3a.52.52 0 0 0-.342.479c0 .151.089.314.223.409l.106.075h4.337l.101-.068c.157-.103.221-.225.221-.42 0-.195-.064-.317-.22-.42l-.102-.067-2.127-.005c-1.169-.002-2.158.005-2.197.017" fill-rule="evenodd"/></svg>