<svg width="14" height="14" xmlns="http://www.w3.org/2000/svg"><path d="M2.185 1.04c-.47.114-.943.553-1.116 1.037l-.054.151v2.544l.055.151c.14.392.508.799.85.942l.087.036V8.28c0 2.452.007 2.693.096 3.06.159.662.689 1.279 1.285 1.496.421.154.3.149 3.612.149 3.312 0 3.191.005 3.612-.149.54-.197 1.028-.716 1.231-1.312.138-.406.134-.32.144-3.082l.008-2.537.117-.059c.37-.186.679-.534.818-.923l.055-.151V2.228l-.054-.151c-.177-.494-.665-.938-1.142-1.04-.234-.049-9.398-.047-9.604.003m9.553 1.05c.055.04.132.117.172.172l.072.099v2.278l-.073.101a.899.899 0 0 1-.171.172l-.099.07H2.361l-.099-.07a.899.899 0 0 1-.171-.172l-.073-.101-.007-1.089c-.005-.727.001-1.117.018-1.174.03-.101.203-.288.311-.335.064-.028.762-.032 4.687-.028l4.612.005.099.072m-.754 6.363c-.009 2.719-.004 2.619-.162 2.915-.157.295-.401.499-.684.572-.152.039-.358.042-3.138.042s-2.986-.003-3.138-.042c-.283-.073-.527-.277-.684-.572-.158-.296-.153-.196-.162-2.915l-.008-2.456h7.984l-.008 2.456m-5.705-.392a.487.487 0 0 0-.128.789c.165.161.116.157 1.849.157 1.733 0 1.684.004 1.849-.157a.487.487 0 0 0-.128-.789l-.123-.057H5.402l-.123.057" fill-rule="evenodd"/></svg>