<svg width="21" height="21" xmlns="http://www.w3.org/2000/svg"><path d="M10.291 2.054a.661.661 0 0 0-.202.182l-.079.119v9.947l-2.109-2.105C6.741 9.04 5.758 8.075 5.716 8.054c-.122-.062-.358-.046-.484.032-.193.118-.285.415-.188.605.055.109 5.139 5.198 5.253 5.259.052.027.143.05.203.05.06 0 .151-.023.203-.05.114-.061 5.198-5.15 5.253-5.259.097-.19.005-.487-.188-.605-.126-.078-.362-.094-.484-.032-.042.021-1.025.986-2.185 2.143l-2.109 2.105v-4.97c0-4.864-.002-4.972-.068-5.081a.481.481 0 0 0-.631-.197M2.23 13.082a.593.593 0 0 0-.17.211c-.071.146-.072.186-.055 1.54.018 1.5.047 1.763.238 2.213.358.846 1.089 1.521 1.922 1.776.545.166.513.166 6.335.166 5.823 0 5.791 0 6.335-.166.832-.255 1.564-.932 1.922-1.776.191-.45.22-.713.238-2.213.017-1.356.016-1.394-.055-1.541-.093-.191-.228-.272-.454-.272a.489.489 0 0 0-.436.258c-.031.054-.048.469-.063 1.492-.022 1.546-.034 1.649-.228 2.035-.241.482-.713.906-1.163 1.046-.428.133-.685.139-6.096.139s-5.668-.006-6.096-.139c-.45-.14-.922-.564-1.163-1.046-.194-.386-.206-.489-.228-2.035-.015-1.023-.032-1.438-.063-1.492a.796.796 0 0 0-.152-.167c-.087-.073-.145-.091-.289-.09a.595.595 0 0 0-.279.061" fill-rule="evenodd"/></svg>