<svg width="16" height="16" xmlns="http://www.w3.org/2000/svg"><path d="M3.449 1.053a2.82 2.82 0 0 0-.813.285c-.851.433-1.423 1.214-1.6 2.182-.053.296-.053 8.664 0 8.96a3.03 3.03 0 0 0 2.484 2.484c.296.053 8.664.053 8.96 0a3.03 3.03 0 0 0 2.484-2.484c.053-.296.053-8.664 0-8.96-.231-1.27-1.198-2.252-2.427-2.468-.313-.054-8.786-.054-9.088.001m9.055 1.006c.594.184 1.046.567 1.299 1.101.208.44.197.169.197 4.84 0 4.648.01 4.399-.189 4.825a1.98 1.98 0 0 1-1.426 1.135c-.276.058-8.492.059-8.768 0a1.943 1.943 0 0 1-1.175-.717 2.607 2.607 0 0 1-.392-.79c-.054-.217-.054-8.689 0-8.906.056-.227.247-.609.397-.796a2.082 2.082 0 0 1 1.222-.723c.072-.012 2.057-.02 4.411-.018 3.921.004 4.292.008 4.424.049M7.387 5.522c-2.409.117-4.042 1.028-3.87 2.158.056.371.26.676.639.957.594.44 1.734.789 2.852.872l.249.018-.079.083c-.312.329-.17.817.257.886.216.034.287-.016.931-.663.529-.53.593-.604.608-.7l.019-.12a.983.983 0 0 0-.017-.133c-.018-.112-.055-.157-.597-.702-.319-.32-.615-.601-.659-.624a.58.58 0 0 0-.227-.043.478.478 0 0 0-.486.489c0 .144.051.254.188.406l.098.109L7 8.499c-.963-.053-2.14-.455-2.423-.825-.104-.136-.092-.197.072-.355.337-.327 1.176-.617 2.167-.75.489-.066 1.879-.066 2.368 0 .99.132 1.813.416 2.161.746.171.162.187.235.078.364-.105.125-.361.289-.634.406-.276.118-.397.226-.443.396a.499.499 0 0 0 .308.594c.195.073.346.035.799-.201.749-.388 1.136-.96 1.032-1.519-.189-1.018-1.714-1.726-3.951-1.836a7.994 7.994 0 0 0-1.147.003" fill-rule="evenodd"/></svg>