<svg width="15" height="15" xmlns="http://www.w3.org/2000/svg"><path d="M7.226 2.04c-.121.032-4.482 2.223-4.738 2.38a.984.984 0 0 0-.45.596c-.034.134-.038.445-.032 2.549.006 2.219.01 2.406.051 2.51.059.153.208.345.348.449.161.119 4.595 2.365 4.791 2.426.202.063.406.063.608 0 .196-.061 4.63-2.307 4.791-2.426.14-.104.289-.296.348-.449.041-.104.045-.291.051-2.51.006-2.104.002-2.415-.032-2.549a.986.986 0 0 0-.449-.596c-.286-.175-4.618-2.347-4.75-2.381a1.02 1.02 0 0 0-.537.001m2.217 1.934c1.056.536 1.918.982 1.916.992-.006.026-3.814 1.958-3.859 1.958-.045 0-3.853-1.932-3.859-1.958-.004-.02 3.803-1.961 3.852-1.964.016-.001.894.436 1.95.972M5.256 6.925 7 7.808v1.971c0 1.084-.008 1.97-.019 1.969-.01-.001-.907-.454-1.993-1.006L3.013 9.738l-.007-1.984L3 5.771l.256.136c.141.075 1.041.533 2 1.018m6.722 2.807c-.021.021-3.947 2.018-3.968 2.018-.005 0-.01-.887-.01-1.971V7.808l1.994-1.011 1.994-1.011.006 1.962c.004 1.112-.003 1.971-.016 1.984" fill-rule="evenodd"/></svg>