<svg width="14" height="14" xmlns="http://www.w3.org/2000/svg"><path d="M5.779 1.027a.506.506 0 0 0-.286.265c-.093.199-.064.376.087.54.132.143.241.175.607.175h.3v.672l-.204.028a5.357 5.357 0 0 0-1.085.292 4.797 4.797 0 0 0-1.722 1.169c-.42.431-.669.786-.934 1.327a5.1 5.1 0 0 0-.535 2.322c0 1.399.506 2.669 1.458 3.66a4.87 4.87 0 0 0 7.07 0c.81-.841 1.301-1.901 1.437-3.098.034-.304.015-1.105-.033-1.379-.167-.952-.542-1.798-1.106-2.498a6.699 6.699 0 0 0-.958-.909c-.665-.47-1.371-.764-2.104-.877l-.258-.039v-.67h.3c.366 0 .475-.032.607-.175a.511.511 0 0 0 .143-.352c0-.117-.115-.316-.229-.395l-.101-.07-1.194-.004c-.657-.003-1.224.005-1.26.016M3.232 2.173c-.078.021-.171.104-.566.507-.287.292-.492.521-.522.582a.53.53 0 0 0 .032.486.448.448 0 0 0 .388.214c.127.007.172-.001.254-.046.124-.068.98-.958 1.026-1.067a.579.579 0 0 0-.013-.414.52.52 0 0 0-.599-.262m7.268-.006c-.242.079-.377.251-.377.48a.64.64 0 0 0 .033.202c.046.109.902.999 1.026 1.067a.54.54 0 0 0 .493-.02.525.525 0 0 0 .201-.595c-.036-.109-.913-1.035-1.035-1.093a.58.58 0 0 0-.341-.041M7.828 3.743c.647.149 1.2.427 1.712.861a4.223 4.223 0 0 1 1.318 2.128c.106.427.12.558.12 1.108 0 .455-.008.561-.054.793-.265 1.315-1.07 2.393-2.209 2.96a3.963 3.963 0 0 1-.912.322c-.262.062-.309.065-.803.065-.494 0-.541-.003-.803-.065a4.01 4.01 0 0 1-.912-.322c-1.142-.569-1.944-1.642-2.209-2.96-.046-.232-.054-.338-.054-.793 0-.55.014-.681.12-1.108.368-1.478 1.567-2.663 3.018-2.984.366-.08.368-.08.91-.074.427.004.508.012.758.069M6.77 5.182a.522.522 0 0 0-.26.358c-.017.083-.023.496-.019 1.253.007 1.027.011 1.137.049 1.222a.62.62 0 0 0 .094.147c.052.057 1.398.905 1.516.956.167.073.414.009.545-.141a.475.475 0 0 0 .12-.382c-.018-.22-.073-.272-.718-.674l-.572-.357-.012-1.024-.011-1.023-.06-.116a.445.445 0 0 0-.414-.262c-.126-.007-.176.002-.258.043" fill-rule="evenodd"/></svg>