<svg width="15" height="15" xmlns="http://www.w3.org/2000/svg"><path d="M7.286 1.062c-.096.048-.801.74-3.178 3.119C1.295 6.996 1.051 7.246 1.024 7.35a.562.562 0 0 0 .05.409c.027.043 1.424 1.453 3.106 3.133 2.816 2.813 3.066 3.057 3.17 3.084.396.104.73-.23.626-.626-.027-.103-.241-.324-2.646-2.731L2.714 8l5.474-.006 5.475-.006.095-.06a.62.62 0 0 0 .162-.161c.056-.084.068-.129.068-.267s-.012-.183-.068-.267a.62.62 0 0 0-.162-.161l-.095-.059-5.475-.007L2.714 7 5.33 4.381C7.734 1.975 7.948 1.753 7.976 1.65c.065-.249-.032-.474-.254-.584-.165-.082-.278-.083-.436-.004" fill-rule="evenodd"/></svg>