<svg width="21" height="21" xmlns="http://www.w3.org/2000/svg"><path d="M10.308 2.045c-.163.074-5.259 5.197-5.288 5.316a.634.634 0 0 0 .074.433.573.573 0 0 0 .211.156c.321.142.184.256 2.561-2.117l2.143-2.139.009 5.01.01 5.01.087.094a.81.81 0 0 0 .182.143c.191.099.412.045.588-.143l.088-.094.009-5.01.009-5.01 2.143 2.139c2.377 2.373 2.24 2.259 2.561 2.117a.573.573 0 0 0 .211-.156.634.634 0 0 0 .074-.433c-.031-.125-5.129-5.245-5.295-5.317a.411.411 0 0 0-.377.001M2.23 13.082a.61.61 0 0 0-.171.212c-.071.148-.072.183-.054 1.47.019 1.374.051 1.726.194 2.142a3.084 3.084 0 0 0 1.966 1.916c.545.166.513.166 6.335.166 5.82 0 5.788 0 6.335-.166.877-.266 1.66-1.027 1.963-1.908.146-.425.178-.77.197-2.15.018-1.288.017-1.322-.055-1.471-.093-.193-.227-.273-.455-.273-.149 0-.198.018-.301.108a.578.578 0 0 0-.158.236c-.019.071-.041.719-.05 1.441-.016 1.447-.039 1.649-.227 2.023-.233.46-.712.886-1.153 1.023-.428.133-.685.139-6.096.139s-5.668-.006-6.096-.139c-.441-.137-.92-.563-1.153-1.023-.188-.374-.211-.576-.227-2.023-.009-.722-.031-1.37-.05-1.441a.578.578 0 0 0-.158-.236c-.105-.092-.151-.108-.306-.107a.596.596 0 0 0-.28.061" fill-rule="evenodd"/></svg>