<svg width="16" height="16" xmlns="http://www.w3.org/2000/svg"><path d="M7.056 3.042a1.281 1.281 0 0 0-.562.348 1.01 1.01 0 0 0-.271.596 4.065 4.065 0 0 1-.026.221l-.013.086H3.185l-.05-.093c-.079-.147-.318-.355-.515-.448-.169-.08-.199-.085-.473-.085-.274 0-.306.005-.47.083-.427.203-.669.577-.669 1.037 0 .46.243.836.669 1.035a1.18 1.18 0 0 0 1.108-.088c.13-.089.324-.294.367-.387l.03-.067h.788c.433 0 .776.01.762.022-.014.012-.133.105-.265.206-.677.517-1.335 1.351-1.67 2.116a6.255 6.255 0 0 0-.463 1.659l-.017.149-.24.016a.95.95 0 0 0-.41.095 1.146 1.146 0 0 0-.618.71c-.043.14-.049.261-.049.96 0 .702.006.82.049.96.126.408.433.696.847.793.099.023.383.034.904.034.815 0 .941-.014 1.184-.136.158-.079.365-.271.455-.424.147-.252.161-.359.16-1.24-.001-.778-.004-.821-.062-.984a1.13 1.13 0 0 0-1.085-.776c-.142 0-.141.01-.064-.389a4.644 4.644 0 0 1 1.994-2.973c.241-.159.698-.405.8-.429.023-.006.053.045.083.14.116.369.439.659.836.751.191.044 1.607.044 1.798 0 .397-.092.72-.382.836-.751.03-.095.06-.146.083-.14.103.025.56.27.8.431a4.629 4.629 0 0 1 1.994 2.971c.079.41.092.378-.163.398a1.12 1.12 0 0 0-1 .804c-.043.14-.049.261-.049.96 0 .702.006.82.049.96.126.408.433.696.847.793.197.046 1.608.047 1.803.001.3-.071.594-.279.736-.521.152-.259.165-.361.164-1.246-.001-.778-.004-.821-.062-.984-.173-.488-.585-.776-1.109-.776h-.143l-.017-.14a5.617 5.617 0 0 0-1.601-3.314 6.705 6.705 0 0 0-.534-.478 15.534 15.534 0 0 1-.265-.206c-.014-.012.329-.022.762-.022h.788l.03.067c.043.093.237.298.367.387.305.21.769.247 1.108.088.426-.199.667-.573.668-1.035.001-.459-.24-.834-.668-1.037-.164-.078-.196-.083-.47-.083-.274 0-.304.005-.473.085-.197.093-.436.301-.515.448l-.05.093H9.82l-.017-.06a.892.892 0 0 1-.016-.168c-.001-.381-.27-.768-.661-.953l-.179-.085-.894-.005c-.491-.003-.94.006-.997.02m1.691 1.011c.05.051.053.089.053.734 0 .644-.003.682-.053.733-.051.051-.089.053-.747.053s-.696-.002-.747-.053c-.05-.051-.053-.089-.053-.733 0-.645.003-.683.053-.734C7.304 4.003 7.342 4 8 4s.696.003.747.053m-5.185 6.439c.059.08.055 1.365-.004 1.449-.041.058-.047.059-.758.059s-.717-.001-.758-.059c-.035-.05-.042-.166-.042-.729 0-.684.006-.73.107-.767.022-.009.35-.013.729-.01.647.005.691.008.726.057m10.4 0c.059.08.055 1.365-.004 1.449-.041.058-.047.059-.758.059s-.717-.001-.758-.059c-.035-.05-.042-.166-.042-.729 0-.684.006-.73.107-.767.022-.009.35-.013.729-.01.647.005.691.008.726.057" fill-rule="evenodd"/></svg>