<svg width="16" height="16" xmlns="http://www.w3.org/2000/svg"><path d="M7.324 1.054c-.9.146-1.69.536-2.343 1.157a4.394 4.394 0 0 0-1.319 2.437c-.073.385-.066 1.168.013 1.562.034.166.057.306.053.31-.004.004-.129.067-.276.141a4.388 4.388 0 0 0-2.208 5.377 4.403 4.403 0 0 0 5.594 2.718c.317-.11.702-.298.97-.474L8 14.155l.192.127a4.4 4.4 0 0 0 6.563-5.12 4.378 4.378 0 0 0-2.207-2.501 10.026 10.026 0 0 1-.276-.141 2.74 2.74 0 0 1 .053-.31c.079-.394.086-1.177.013-1.562-.337-1.796-1.673-3.175-3.445-3.555-.351-.076-1.213-.097-1.569-.039m1.383 1.023a3.392 3.392 0 0 1 2.304 1.762c.266.516.376.974.376 1.561 0 .937-.333 1.737-.998 2.402a3.33 3.33 0 0 1-1.722.934c-.318.069-1.016.069-1.334 0-1.031-.224-1.876-.863-2.344-1.775A3.174 3.174 0 0 1 4.613 5.4c0-.908.313-1.692.937-2.346a3.381 3.381 0 0 1 2.026-1.027c.256-.036.853-.009 1.131.05M4.208 7.628c.349.635 1.112 1.351 1.816 1.704a4.55 4.55 0 0 0 2.336.452c.172-.015.319-.02.327-.012.029.028.084.38.102.642a3.6 3.6 0 0 1-.112 1.078c-.08.312-.351.872-.548 1.135a3.4 3.4 0 0 1-4.615.798 3.422 3.422 0 0 1-1.437-2.119 4.01 4.01 0 0 1-.016-1.338 3.414 3.414 0 0 1 2.032-2.5c.015 0 .067.072.115.16m7.933-.052c1.629.821 2.316 2.829 1.528 4.468A3.241 3.241 0 0 1 13 13c-1.064 1.073-2.752 1.31-4.059.568l-.191-.109.114-.15a4.314 4.314 0 0 0 .927-2.709c-.001-.385-.061-.915-.123-1.081-.011-.028.048-.067.218-.145.423-.193.836-.49 1.221-.878.323-.325.632-.727.735-.956.018-.04.044-.073.058-.073.014 0 .122.049.241.109" fill-rule="evenodd"/></svg>