<svg width="14" height="14" xmlns="http://www.w3.org/2000/svg"><path d="M2.298 2.051a.51.51 0 0 0-.255.651c.025.061.66.711 2.14 2.192L6.288 7 4.183 9.106c-1.48 1.481-2.115 2.131-2.14 2.192a.528.528 0 0 0 .118.56c.14.131.365.172.541.099.06-.025.714-.663 2.192-2.14L7 7.712l2.106 2.105c1.481 1.48 2.131 2.115 2.192 2.14a.528.528 0 0 0 .56-.118.526.526 0 0 0 .099-.541c-.025-.06-.663-.714-2.14-2.192L7.712 7l2.105-2.106c1.477-1.478 2.115-2.132 2.14-2.192a.526.526 0 0 0-.099-.541.523.523 0 0 0-.561-.116c-.055.025-.834.786-2.191 2.141L7 6.288 4.894 4.186C3.537 2.831 2.758 2.07 2.703 2.045a.546.546 0 0 0-.405.006" fill-rule="evenodd"/></svg>