<svg width="15" height="15" xmlns="http://www.w3.org/2000/svg"><path d="M9.326 1.033a.553.553 0 0 0-.178.119c-.088.088-.168.321-2.123 6.186-1.902 5.706-2.03 6.102-2.016 6.219a.494.494 0 0 0 .839.295c.094-.094.143-.238 2.124-6.181C9.087 4.325 10 1.555 10 1.515a.506.506 0 0 0-.674-.482m-5.04 2.029c-.095.047-.594.533-2.178 2.119C.226 7.065.051 7.247.024 7.35a.562.562 0 0 0 .05.409c.027.043.974 1.003 2.106 2.133 1.884 1.881 2.067 2.057 2.17 2.084a.501.501 0 0 0 .626-.626c-.027-.103-.19-.272-1.896-1.981L1.213 7.5 3.08 5.631C4.786 3.922 4.949 3.753 4.976 3.65c.065-.249-.032-.474-.254-.584-.165-.082-.278-.083-.436-.004m5.992.004c-.222.11-.319.335-.254.584.027.103.19.272 1.896 1.981L13.787 7.5 11.92 9.369c-1.706 1.709-1.869 1.878-1.896 1.981a.501.501 0 0 0 .626.626c.103-.027.286-.203 2.17-2.084 1.132-1.13 2.079-2.09 2.106-2.133a.562.562 0 0 0 .05-.409c-.027-.103-.202-.285-2.084-2.169C10.739 3.025 10.712 3 10.5 3c-.05 0-.149.03-.222.066" fill-rule="evenodd"/></svg>