<svg width="15" height="15" xmlns="http://www.w3.org/2000/svg"><path d="M7.228 1.04c-.075.02-.198.075-.275.122-.077.047-1.423 1.113-2.99 2.368C.886 5.994 1 5.894 1 6.131c0 .219.154.422.368.484.195.057.335.008.607-.213l.213-.172.014 3.129c.009 2.01.024 3.164.04 3.229.093.362.161.512.344.755.221.294.561.512.938.6.176.042.438.045 3.976.045s3.8-.003 3.976-.045c.377-.088.717-.306.938-.6.183-.243.251-.393.344-.755.016-.065.031-1.219.04-3.229l.015-3.129.212.172c.272.221.412.27.607.213A.514.514 0 0 0 14 6.131c0-.237.114-.137-2.962-2.601-1.568-1.255-2.913-2.321-2.99-2.368a1.041 1.041 0 0 0-.82-.122m.622 1.24c.076.05.995.776 2.043 1.612l1.905 1.521.001 3.337c0 1.969-.009 3.423-.023 3.545a1.128 1.128 0 0 1-.081.322.777.777 0 0 1-.367.337c-.057.018-.355.033-.809.04l-.718.01-.007-2.433-.006-2.433-.057-.15a1.15 1.15 0 0 0-.631-.667l-.137-.058H6.038l-.138.058a1.141 1.141 0 0 0-.631.667l-.056.15-.007 2.433-.007 2.433-.718-.01c-.454-.007-.752-.022-.809-.04a.777.777 0 0 1-.367-.337 1.128 1.128 0 0 1-.081-.322c-.014-.122-.023-1.575-.023-3.545l.002-3.337 1.855-1.481C7.117 2.289 7.1 2.303 7.239 2.226c.081-.044.131-.052.286-.046.168.007.202.017.325.1m.926 6.034c.015.04.024.934.024 2.375V13H6.2v-2.311c0-1.441.009-2.335.024-2.375l.025-.064h2.502l.025.064" fill-rule="evenodd"/></svg>