<svg width="21" height="21" xmlns="http://www.w3.org/2000/svg"><path d="M13.276 2.066a.44.44 0 0 0-.217.221c-.038.08-1.419 3.744-3.068 8.143-3.208 8.558-3.055 8.12-2.906 8.348a.497.497 0 0 0 .856-.064C8.087 18.408 14 2.586 14 2.501a.496.496 0 0 0-.724-.435M5.26 5.074c-.1.061-4.106 5.021-4.206 5.208a.652.652 0 0 0 0 .436c.1.187 4.106 5.147 4.206 5.208a.5.5 0 0 0 .659-.156.551.551 0 0 0-.016-.551c-.045-.067-.904-1.148-1.908-2.402C2.991 11.562 2.17 10.52 2.17 10.5c0-.02.821-1.062 1.825-2.317a213.907 213.907 0 0 0 1.908-2.402.551.551 0 0 0 .016-.551.5.5 0 0 0-.659-.156m10.004-.009c-.248.122-.33.475-.167.716.045.067.904 1.148 1.908 2.402 1.004 1.255 1.825 2.297 1.825 2.317 0 .02-.821 1.062-1.825 2.317a213.907 213.907 0 0 0-1.908 2.402.551.551 0 0 0-.016.551.5.5 0 0 0 .659.156c.1-.061 4.106-5.021 4.206-5.208a.587.587 0 0 0 .039-.218.587.587 0 0 0-.039-.218c-.1-.187-4.106-5.147-4.206-5.208a.495.495 0 0 0-.476-.009" fill-rule="evenodd"/></svg>