<svg width="16" height="16" xmlns="http://www.w3.org/2000/svg"><path d="M7.874 1.519a.591.591 0 0 0-.321.249c-.042.077-.047.206-.054 1.372-.005.897.002 1.321.023 1.399a.536.536 0 0 0 .128.211c.271.271.731.15.83-.218.019-.069.026-.543.021-1.392-.007-1.241-.01-1.29-.062-1.38a.54.54 0 0 0-.565-.241m-4.35 1.845a.489.489 0 0 0-.221.641c.038.079.346.404.97 1.026.951.948.978.97 1.194.968.106 0 .273-.089.365-.194.099-.112.128-.233.102-.412-.018-.123-.04-.148-.943-1.055-.508-.511-.969-.952-1.023-.98a.502.502 0 0 0-.444.006m8.503-.005c-.052.028-.51.468-1.018.979-.903.907-.925.932-.943 1.055-.026.179.003.3.102.412.092.105.259.194.365.194.216.002.243-.02 1.194-.968.992-.988 1.036-1.043 1.014-1.272-.034-.345-.417-.56-.714-.4M1.874 7.519a.509.509 0 0 0-.367.404.518.518 0 0 0 .347.554c.07.019.523.029 1.346.029.823 0 1.276-.01 1.346-.029a.543.543 0 0 0 .333-.341.486.486 0 0 0-.216-.555l-.112-.074-1.296-.005c-.712-.002-1.334.005-1.381.017m9.6 0a.509.509 0 0 0-.367.404.518.518 0 0 0 .347.554c.07.019.523.029 1.346.029.823 0 1.276-.01 1.346-.029a.543.543 0 0 0 .333-.341.486.486 0 0 0-.216-.555l-.112-.074-1.296-.005c-.712-.002-1.334.005-1.381.017M5.24 10.104c-.07.033-.416.362-1.017.966-.983.99-.993 1.002-.959 1.245a.5.5 0 0 0 .646.405c.151-.048 1.937-1.828 2-1.993a.493.493 0 0 0-.67-.623m5.084.007a.495.495 0 0 0-.234.616c.063.165 1.849 1.945 2 1.993a.5.5 0 0 0 .646-.405c.034-.243.024-.255-.959-1.245-.601-.604-.947-.933-1.017-.966a.492.492 0 0 0-.436.007m-2.45 1.008a.591.591 0 0 0-.321.249c-.042.077-.047.206-.054 1.372-.005.897.002 1.321.023 1.399a.536.536 0 0 0 .128.211c.271.271.731.15.83-.218.019-.069.026-.543.021-1.392-.007-1.241-.01-1.29-.062-1.38a.54.54 0 0 0-.565-.241" fill-rule="evenodd"/></svg>