<svg width="14" height="14" xmlns="http://www.w3.org/2000/svg"><path d="M1.295 1.048a.492.492 0 0 0-.074.858.622.622 0 0 0 .215.09l.104.016v2.546c0 2.636.016 3.263.091 3.62.156.749.693 1.398 1.342 1.621.334.115.452.125 1.63.139l1.115.014-1.132 1.047a86.944 86.944 0 0 0-1.235 1.157c-.167.178-.195.356-.09.562a.456.456 0 0 0 .401.274.397.397 0 0 0 .239-.039c.061-.03.587-.5 1.337-1.195l1.237-1.145.012.999c.013 1.082.013 1.076.147 1.218a.49.49 0 0 0 .732 0c.134-.142.134-.136.147-1.218l.012-.999 1.237 1.145c.75.695 1.276 1.165 1.337 1.195a.397.397 0 0 0 .239.039.456.456 0 0 0 .401-.274c.105-.206.077-.384-.09-.562-.057-.06-.613-.581-1.235-1.157L8.282 9.952l1.115-.014c1.178-.014 1.296-.024 1.63-.139.649-.223 1.186-.872 1.342-1.621.075-.357.091-.984.091-3.62V2.012l.102-.015a.593.593 0 0 0 .363-.232.604.604 0 0 0 .049-.422.552.552 0 0 0-.269-.296c-.089-.041-.327-.043-5.705-.043-5.413 0-5.615.002-5.705.044m10.161 3.438c-.002 3.314-.014 3.548-.2 3.859-.104.173-.311.384-.45.458-.236.126-.096.122-3.806.122s-3.57.004-3.806-.122c-.139-.074-.346-.285-.45-.458-.186-.311-.198-.545-.2-3.847l-.001-2.491h8.914l-.001 2.479m-2.461-.994a.564.564 0 0 0-.247.253c-.041.088-.044.186-.044 1.727 0 1.824-.008 1.73.166 1.894a.493.493 0 0 0 .814-.26c.018-.08.023-.618.018-1.704-.007-1.573-.007-1.588-.057-1.68a.474.474 0 0 0-.247-.233.598.598 0 0 0-.403.003M6.828 4.701a.585.585 0 0 0-.288.267c-.038.077-.042.171-.042 1.11v1.027l.055.111a.498.498 0 0 0 .894 0l.055-.111V6.078c0-1.153.004-1.118-.176-1.281a.48.48 0 0 0-.498-.096M4.573 5.948a.518.518 0 0 0-.244.279c-.043.123-.05.741-.01.9.069.276.376.434.66.341.104-.035.26-.204.294-.32.018-.057.024-.237.02-.498-.009-.47-.031-.543-.204-.665-.084-.059-.124-.07-.266-.076-.131-.005-.186.004-.25.039" fill-rule="evenodd"/></svg>