<svg width="16" height="16" xmlns="http://www.w3.org/2000/svg"><path d="M3.136 1.054c-.396.109-.807.442-.971.788-.175.369-.164-.05-.164 6.158s-.011 5.789.164 6.158c.12.253.423.55.688.675.257.121.442.164.707.162.418-.003.212.113 5.233-2.923 3.207-1.939 4.635-2.816 4.728-2.905.62-.591.638-1.571.04-2.167-.171-.17-.596-.439-4.681-2.96a709.017 709.017 0 0 0-4.655-2.859 1.795 1.795 0 0 0-.319-.127 2.015 2.015 0 0 0-.77 0m.553.998c.141.053 9.076 5.585 9.156 5.668a.495.495 0 0 1-.036.71c-.082.076-8.999 5.472-9.115 5.517-.255.097-.578-.072-.653-.341-.038-.138-.038-11.074 0-11.212.073-.264.4-.437.648-.342" fill-rule="evenodd"/></svg>