<svg width="16" height="16" xmlns="http://www.w3.org/2000/svg"><path d="M3.449 1.053a2.82 2.82 0 0 0-.813.285c-.851.433-1.423 1.214-1.6 2.182-.053.296-.053 8.664 0 8.96a3.03 3.03 0 0 0 2.484 2.484c.292.053 4.668.053 4.96 0a3.03 3.03 0 0 0 2.484-2.484c.053-.296.053-8.664 0-8.96-.231-1.27-1.198-2.252-2.427-2.468-.309-.054-4.79-.053-5.088.001M8.504 2.06a2.071 2.071 0 0 1 1.299 1.1c.208.44.197.169.197 4.84 0 4.648.01 4.399-.189 4.825a1.98 1.98 0 0 1-1.426 1.135c-.273.058-4.495.058-4.768 0a1.943 1.943 0 0 1-1.175-.717 2.607 2.607 0 0 1-.392-.79c-.054-.217-.054-8.689 0-8.906.056-.227.247-.609.397-.796a2.08 2.08 0 0 1 1.222-.723c.072-.013 1.157-.02 2.411-.018 2.038.005 2.295.01 2.424.05m4.678-.02a1.515 1.515 0 0 0-1.107.995l-.062.178v9.574l.062.178c.366 1.06 1.688 1.378 2.472.595.199-.199.324-.405.404-.667.047-.152.049-.374.049-4.893s-.002-4.741-.049-4.893a1.55 1.55 0 0 0-.391-.655 1.476 1.476 0 0 0-1.378-.412m.546 1.024a.426.426 0 0 1 .231.249c.036.088.041.618.04 4.693 0 4.429-.002 4.598-.05 4.704a.546.546 0 0 1-.14.178c-.087.066-.29.131-.352.112a2.37 2.37 0 0 0-.103-.025c-.089-.019-.25-.156-.302-.258-.057-.111-.058-9.322-.001-9.432a.743.743 0 0 1 .242-.241c.087-.047.324-.037.435.02" fill-rule="evenodd"/></svg>