<svg width="16" height="16" xmlns="http://www.w3.org/2000/svg"><path d="M3.449 1.053a2.82 2.82 0 0 0-.813.285c-.851.433-1.423 1.214-1.6 2.182-.053.296-.053 8.664 0 8.96a3.03 3.03 0 0 0 2.484 2.484c.296.053 8.664.053 8.96 0a3.03 3.03 0 0 0 2.484-2.484c.053-.296.053-8.664 0-8.96-.231-1.27-1.198-2.252-2.427-2.468-.313-.054-8.786-.054-9.088.001m9.055 1.006c.594.184 1.046.567 1.299 1.101.208.44.197.169.197 4.84 0 4.648.01 4.399-.189 4.825a1.98 1.98 0 0 1-1.426 1.135c-.276.058-8.492.059-8.768 0a1.943 1.943 0 0 1-1.175-.717 2.607 2.607 0 0 1-.392-.79c-.054-.217-.054-8.689 0-8.906.056-.227.247-.609.397-.796a2.082 2.082 0 0 1 1.222-.723c.072-.012 2.057-.02 4.411-.018 3.921.004 4.292.008 4.424.049m-8.394.996a1.61 1.61 0 0 0-.872.638c-.049.074-.122.23-.163.347L3 4.253v7.494l.074.208c.226.641.767 1.036 1.42 1.038.427.001.756-.136 1.066-.446.207-.207.334-.434.4-.714.059-.25.059-7.416 0-7.666a1.526 1.526 0 0 0-1.08-1.114 2.015 2.015 0 0 0-.77.002m.577.986a.426.426 0 0 1 .249.231c.049.096.051.22.051 3.728 0 3.559-.001 3.631-.053 3.732-.188.369-.709.346-.884-.038-.046-.102-.049-.282-.049-3.688-.001-3.173.004-3.592.04-3.68a.494.494 0 0 1 .266-.276c.13-.06.25-.063.38-.009" fill-rule="evenodd"/></svg>