<svg width="15" height="15" xmlns="http://www.w3.org/2000/svg"><path d="M6.927 1.026a6.622 6.622 0 0 0-3.502 1.41c-.256.202-.828.78-1.029 1.039C1.483 4.655 1 6.046 1 7.5c0 1.455.481 2.841 1.396 4.025.212.273.806.867 1.079 1.079 1.247.963 2.697 1.44 4.225 1.388 1.422-.049 2.686-.508 3.825-1.388a9.013 9.013 0 0 0 1.079-1.079c.727-.941 1.153-1.94 1.338-3.142.059-.378.059-1.388 0-1.766-.185-1.202-.612-2.204-1.339-3.142a8.93 8.93 0 0 0-1.028-1.039 7.478 7.478 0 0 0-1.859-1.048 7.109 7.109 0 0 0-1.257-.313 8.456 8.456 0 0 0-1.532-.049m-.592 1.13-.161.244c-.812 1.216-1.366 2.778-1.526 4.306L4.617 7H2.021l.017-.144c.034-.301.144-.781.251-1.106.575-1.73 1.997-3.068 3.786-3.563.251-.069.284-.073.26-.031m2.539.019c1.942.496 3.52 2.099 3.972 4.038.045.195.129.688.129.762 0 .016-.443.025-1.296.025h-1.296l-.031-.294c-.16-1.527-.714-3.091-1.526-4.306-.175-.262-.183-.275-.163-.275.009 0 .104.022.211.05m-1.158.382a8.663 8.663 0 0 1 1.593 3.906l.053.406.015.131H5.623l.015-.131.053-.406A8.663 8.663 0 0 1 7.5 2.276c.007 0 .104.126.216.281M4.648 8.294c.162 1.541.713 3.089 1.541 4.328.088.131.156.242.151.247a1.109 1.109 0 0 1-.209-.042A5.528 5.528 0 0 1 2.289 9.25a6.516 6.516 0 0 1-.251-1.106L2.021 8h2.596l.031.294m4.714-.163-.053.406A8.663 8.663 0 0 1 7.5 12.724a8.663 8.663 0 0 1-1.809-4.187l-.053-.406L5.623 8h3.754l-.015.131m3.613-.106c0 .014-.017.141-.038.281a5.498 5.498 0 0 1-1.558 3.088 5.572 5.572 0 0 1-2.51 1.433c-.11.028-.204.047-.209.042a1.719 1.719 0 0 1 .151-.247c.827-1.238 1.379-2.788 1.541-4.328L10.383 8h1.296c.853 0 1.296.009 1.296.025" fill-rule="evenodd"/></svg>