<svg width="14" height="14" xmlns="http://www.w3.org/2000/svg"><path d="M3.898 1.029c-.41.037-.701.134-1.008.338-.45.299-.744.744-.84 1.27-.047.259-.047 8.467 0 8.726a1.958 1.958 0 0 0 1.433 1.539c.317.081.608.095 2.009.094 1.261 0 1.363-.003 1.45-.043a.492.492 0 0 0 .286-.493.497.497 0 0 0-.381-.444c-.051-.012-.692-.022-1.426-.022-.805 0-1.407-.01-1.517-.025-.475-.065-.807-.379-.869-.823-.035-.255-.035-8.037 0-8.292a.909.909 0 0 1 .475-.696c.243-.142.125-.136 3.047-.146 2.939-.009 3.082-.005 3.331.111.174.081.371.261.455.415.112.205.116.284.131 2.399l.014 1.985.065.098c.073.11.17.178.309.216.245.067.537-.118.594-.378.021-.095.026-.607.018-2.051-.011-2.059-.015-2.14-.133-2.484-.156-.453-.543-.871-1.012-1.097-.248-.118-.442-.166-.812-.199-.321-.028-5.296-.026-5.619.002m.55 2.505a.507.507 0 0 0-.317.577c.036.152.199.329.337.367.065.017.772.025 2.29.025h2.197l.124-.065a.463.463 0 0 0 .266-.436.462.462 0 0 0-.266-.437L8.955 3.5l-2.208.001c-1.82.001-2.225.007-2.299.033m-.057 2.022a.5.5 0 0 0-.252.316c-.067.224.037.457.259.576.093.05.098.05 1.809.05 1.711 0 1.715 0 1.808-.05.352-.19.372-.663.035-.865l-.126-.076H6.208c-1.703 0-1.717 0-1.817.049m.007 1.996a.501.501 0 0 0-.061.859l.1.071h1.411l.099-.065a.494.494 0 0 0 .117-.725c-.144-.174-.168-.179-.924-.178-.566.001-.683.007-.742.038M11.27 9.31c-.045.024-.548.485-1.118 1.024l-1.036.98-.38-.361c-.388-.368-.51-.452-.66-.452a.51.51 0 0 0-.516.512c.001.186.074.276.7.866.538.506.607.563.718.596a.444.444 0 0 0 .384-.046c.083-.05 2.263-2.096 2.471-2.318.128-.138.169-.249.155-.419a.462.462 0 0 0-.249-.374.565.565 0 0 0-.469-.008" fill-rule="evenodd"/></svg>