<svg width="14" height="14" xmlns="http://www.w3.org/2000/svg"><path d="M6.09 1.019c-1.341.129-2.474.638-3.392 1.524a5.209 5.209 0 0 0-1.123 1.529 5.43 5.43 0 0 0-.518 1.625c-.065.409-.058 1.282.013 1.684.275 1.552 1.12 2.85 2.418 3.713.69.459 1.624.789 2.481.878.38.039 1.11.016 1.463-.047 2.2-.39 3.925-1.975 4.447-4.085.043-.173.081-.319.085-.325a.99.99 0 0 1 .152.131c.218.209.409.243.637.111a.492.492 0 0 0 .237-.371c.024-.23.01-.248-.667-.93-.353-.355-.662-.647-.715-.675a.534.534 0 0 0-.436-.004c-.118.061-1.308 1.243-1.358 1.349a.54.54 0 0 0 .086.547c.138.147.406.199.577.111.045-.023.173-.133.286-.243.112-.111.204-.191.204-.179-.001.068-.152.582-.225.766a4.525 4.525 0 0 1-3.598 2.829 5.518 5.518 0 0 1-1.252-.002 4.502 4.502 0 0 1-3.42-2.473 3.998 3.998 0 0 1-.357-.994 4.591 4.591 0 0 1-.011-1.935c.193-.901.71-1.79 1.392-2.394a4.546 4.546 0 0 1 5.009-.699c.78.381 1.383.919 1.86 1.658.123.191.185.253.304.303a.498.498 0 0 0 .673-.562c-.05-.222-.473-.803-.889-1.221A5.52 5.52 0 0 0 7.05 1.027a7.548 7.548 0 0 0-.96-.008m.298 2.223a.527.527 0 0 0-.292.231l-.064.109v3.056l.065.112c.06.101.148.166.969.71 1.01.67 1.053.691 1.269.628a.432.432 0 0 0 .223-.14.477.477 0 0 0 .046-.629c-.026-.036-.391-.296-.813-.577l-.766-.511-.007-1.34-.006-1.34-.071-.102a.61.61 0 0 0-.168-.154.583.583 0 0 0-.385-.053" fill-rule="evenodd"/></svg>