<svg width="14" height="14" xmlns="http://www.w3.org/2000/svg"><path d="M1.801 1.029c-.174.053-.332.287-.33.49.001.18.062.253.95 1.132l.857.849-.151.132c-.305.266-.999.984-1.227 1.268-.4.5-.748 1.014-.837 1.237a1.156 1.156 0 0 0-.053.315c-.018.334.061.517.48 1.104 1.252 1.752 2.791 2.879 4.386 3.21a4.52 4.52 0 0 0 1.147.115c.918-.003 1.706-.203 2.566-.652l.29-.151.211.205c.117.113.537.528.935.922.48.475.753.729.81.752a.56.56 0 0 0 .387 0 .506.506 0 0 0 .25-.686C12.428 11.185 2.325 1.136 2.217 1.07a.638.638 0 0 0-.416-.041m4.557 1.122c-.314.035-.466.144-.539.384a.458.458 0 0 0 .032.347c.108.219.314.308.611.264a6.029 6.029 0 0 1 1.168.014c1.418.213 2.797 1.152 3.925 2.673.244.329.438.626.438.668 0 .047-.387.613-.615.899-.25.315-.281.373-.281.533a.485.485 0 0 0 .502.494c.232-.002.324-.082.744-.645.306-.41.533-.764.597-.934.034-.088.045-.176.045-.361 0-.219-.007-.26-.065-.384-.301-.644-1.28-1.818-2.07-2.481a8.793 8.793 0 0 0-1.237-.84 5.676 5.676 0 0 0-1.959-.625 7.896 7.896 0 0 0-1.296-.006M5.044 5.556c-.166.343-.202.513-.202.942 0 .435.036.603.209.957.518 1.062 1.827 1.509 2.9.99l.199-.096.487.486c.267.267.486.493.486.501 0 .028-.483.238-.75.326a4.2 4.2 0 0 1-1.865.197c-.904-.106-1.771-.492-2.623-1.17a9.517 9.517 0 0 1-1.209-1.222c-.27-.338-.669-.914-.669-.967 0-.074.47-.735.814-1.145.24-.285.69-.735.957-.955l.219-.181.571.57.57.571-.094.196m1.848 1.533.51.512-.125.031a1.2 1.2 0 0 1-1.31-.579 1.3 1.3 0 0 1-.108-.836l.027-.104.248.232c.136.128.477.462.758.744" fill-rule="evenodd"/></svg>