<svg width="14" height="14" xmlns="http://www.w3.org/2000/svg"><path d="M9.73 1.018a1.993 1.993 0 0 0-1.021.509 2.119 2.119 0 0 0-.627 1.028c-.058.191-.064.245-.065.595-.001.331.007.413.053.582.178.658.554 1.131 1.112 1.402.47.228.944.256 1.446.087.494-.166 1-.665 1.199-1.179.135-.352.153-.453.154-.869.001-.332-.007-.412-.053-.583-.207-.757-.736-1.318-1.432-1.518-.168-.048-.628-.081-.766-.054m-5.92.571c-.595.069-1.02.311-1.365.776-.244.329-.366.658-.415 1.115-.03.294-.031 6.307 0 6.588.064.58.249.986.618 1.354.282.281.562.435.945.517.186.04.381.043 3.139.043 3.162 0 3.106.002 3.449-.122a1.68 1.68 0 0 0 .637-.409c.228-.219.403-.473.502-.729.162-.421.182-.688.183-2.415V6.965l-.055-.117c-.065-.139-.108-.18-.259-.247a.492.492 0 0 0-.613.193l-.064.098-.014 1.541c-.01 1.013-.024 1.594-.042 1.694-.055.306-.296.648-.539.764-.227.109-.288.111-3.162.111-2.904 0-2.936-.002-3.177-.119-.148-.071-.354-.287-.437-.458-.122-.249-.119-.168-.119-3.647 0-2.517.006-3.274.029-3.383.042-.198.13-.366.278-.525a.829.829 0 0 1 .533-.279c.092-.013.707-.024 1.413-.024 1.405 0 1.415-.001 1.567-.157.255-.262.189-.653-.134-.802-.087-.041-.174-.043-1.411-.041-.725.001-1.394.011-1.487.022m6.562.499c.268.128.498.424.583.752.044.169.044.494 0 .66-.059.224-.171.41-.34.57-.203.192-.356.255-.617.255-.275 0-.422-.064-.63-.274a1.173 1.173 0 0 1-.361-.877c.001-.53.283-.97.724-1.13.166-.06.464-.04.641.044M4.305 6.6a.488.488 0 0 0-.173.782c.165.187.041.178 2.365.178 1.388 0 2.084-.008 2.145-.025a.592.592 0 0 0 .191-.119.481.481 0 0 0-.108-.798l-.124-.061H6.5c-1.985.001-2.107.003-2.195.043m.048 2.202c-.139.037-.302.212-.338.361a.49.49 0 0 0 .262.555l.119.059h1.59c1.127 0 1.613-.008 1.67-.027a.502.502 0 0 0 .339-.515.514.514 0 0 0-.243-.385l-.11-.065-1.599-.004c-1.059-.002-1.629.005-1.69.021" fill-rule="evenodd"/></svg>