<svg width="16" height="16" xmlns="http://www.w3.org/2000/svg"><path d="M2.306 2.05a.492.492 0 0 0 .094.934c.192.041 11.008.041 11.2 0a.492.492 0 0 0 .094-.934c-.103-.047-.347-.049-5.694-.049-5.347 0-5.591.002-5.694.049m5.481 2.444c-.102.046-4.349 4.269-4.474 4.45-.062.089-.073.132-.073.285 0 .161.008.19.083.282a.763.763 0 0 0 .169.153c.1.059.33.068.429.017.036-.018.855-.821 1.819-1.784l1.753-1.75v3.714c0 3.292.005 3.725.042 3.813a.498.498 0 0 0 .93 0c.037-.088.042-.521.042-3.813V6.147l1.753 1.75c.964.963 1.783 1.766 1.819 1.784a.58.58 0 0 0 .429-.017.523.523 0 0 0 .239-.614c-.027-.084-.444-.514-2.197-2.271C9.36 5.587 8.341 4.58 8.285 4.541a.575.575 0 0 0-.498-.047" fill-rule="evenodd"/></svg>