<svg width="15" height="15" xmlns="http://www.w3.org/2000/svg"><path d="M7.278 1.066c-.222.11-.319.335-.254.584.027.103.241.324 2.646 2.731L12.286 7l-5.478.006-5.479.007-.106.075a.496.496 0 0 0 0 .825l.106.075 5.479.006L12.286 8 9.67 10.619c-2.405 2.407-2.619 2.628-2.646 2.731a.501.501 0 0 0 .626.626c.104-.027.353-.27 3.157-3.072 1.674-1.673 3.072-3.081 3.106-3.13a.536.536 0 0 0 .063-.424c-.027-.104-.271-.354-3.084-3.169C8.515 1.802 7.81 1.11 7.714 1.062c-.158-.079-.271-.078-.436.004" fill-rule="evenodd"/></svg>