<svg width="16" height="16" xmlns="http://www.w3.org/2000/svg"><path d="M3.449 1.053a2.82 2.82 0 0 0-.813.285c-.851.433-1.423 1.214-1.6 2.182-.053.296-.053 8.664 0 8.96a3.03 3.03 0 0 0 2.484 2.484c.296.053 8.664.053 8.96 0a3.03 3.03 0 0 0 2.484-2.484c.053-.296.053-8.664 0-8.96-.231-1.27-1.198-2.252-2.427-2.468-.313-.054-8.786-.054-9.088.001m9.055 1.006c.594.184 1.046.567 1.299 1.101.208.44.197.169.197 4.84 0 4.648.01 4.399-.189 4.825a1.98 1.98 0 0 1-1.426 1.135c-.276.058-8.492.059-8.768 0a1.943 1.943 0 0 1-1.175-.717 2.607 2.607 0 0 1-.392-.79c-.054-.217-.054-8.689 0-8.906.056-.227.247-.609.397-.796a2.082 2.082 0 0 1 1.222-.723c.072-.012 2.057-.02 4.411-.018 3.921.004 4.292.008 4.424.049M7.338 3.52c-.324.048-.695.319-.958.7-.625.907-.962 2.598-.865 4.333.047.832.126 1.337.311 1.979.328 1.138.849 1.813 1.506 1.951.322.067.742-.066 1.026-.325.593-.543 1.051-1.801 1.151-3.164l.019-.246.089.079c.136.119.245.166.387.166a.503.503 0 0 0 .491-.425c.034-.214-.005-.271-.625-.898-.317-.32-.615-.599-.662-.62A.649.649 0 0 0 9 7.013a.649.649 0 0 0-.208.037c-.047.021-.345.3-.662.62-.62.627-.659.684-.625.898a.503.503 0 0 0 .491.425c.148 0 .257-.05.41-.188l.109-.098-.016.28a7.429 7.429 0 0 1-.22 1.253c-.175.651-.537 1.253-.751 1.253-.187 0-.499-.484-.688-1.069C6.597 9.67 6.523 9.106 6.523 8c0-1.106.074-1.67.317-2.424.192-.594.501-1.069.693-1.069.131 0 .313.224.51.628.094.192.198.375.231.406a.57.57 0 0 0 .413.126.52.52 0 0 0 .388-.321c.058-.157.048-.258-.049-.482-.432-.995-.997-1.445-1.688-1.344" fill-rule="evenodd"/></svg>