<svg width="14" height="14" xmlns="http://www.w3.org/2000/svg"><path d="M4.047 1.027c-.649.055-1.047.238-1.461.671a1.982 1.982 0 0 0-.538 1.086c-.043.244-.043 8.188 0 8.432.076.438.244.778.538 1.086.401.419.797.607 1.415.669.35.035 5.648.035 5.998 0 .618-.062 1.014-.25 1.415-.669.294-.308.462-.648.538-1.086.043-.244.043-8.188 0-8.432a1.982 1.982 0 0 0-.538-1.086c-.349-.365-.668-.54-1.171-.64-.179-.035-.481-.04-3.091-.044a146.27 146.27 0 0 0-3.105.013m6.08 1.024c.281.065.592.3.727.551.128.241.124.097.124 4.398 0 4.301.004 4.157-.124 4.398a1.343 1.343 0 0 1-.471.459c-.263.127-.194.125-3.383.125s-3.12.002-3.383-.125a1.343 1.343 0 0 1-.471-.459c-.128-.241-.124-.097-.124-4.398 0-4.301-.004-4.158.124-4.397.034-.064.12-.175.191-.246.206-.209.408-.294.793-.335.045-.005 1.384-.007 2.975-.004 2.223.003 2.923.011 3.022.033m-5.59 1.75a.534.534 0 0 0-.29.448.53.53 0 0 0 .357.476c.177.053 4.615.053 4.792 0a.53.53 0 0 0 .357-.476.534.534 0 0 0-.29-.448c-.09-.041-.209-.043-2.463-.043s-2.373.002-2.463.043m.041 2.184a.486.486 0 0 0-.279.263.48.48 0 0 0 .225.64l.125.065h1.764c1.219 0 1.794-.008 1.859-.026a.56.56 0 0 0 .337-.363.502.502 0 0 0-.291-.57c-.087-.04-.198-.043-1.878-.043-1.502.001-1.797.006-1.862.034m.018 2.193a.558.558 0 0 0-.292.247.503.503 0 0 0 .23.673c.095.046.138.049.776.048.757 0 .793-.007.935-.169a.492.492 0 0 0-.125-.757l-.112-.065-.653-.005c-.513-.004-.676.002-.759.028" fill-rule="evenodd"/></svg>