<svg width="16" height="16" xmlns="http://www.w3.org/2000/svg"><path d="M11.107 2.107a2.66 2.66 0 0 0-1.146.532c-.35.278-.687.796-.809 1.241l-.051.187-3.397.013-3.397.013-.098.061a.492.492 0 0 0-.181.558c.039.102.154.22.258.265.071.03.654.036 3.457.036h3.372l.019.114a2.518 2.518 0 0 0 1.791 1.811c.277.076.889.083 1.164.014a2.448 2.448 0 0 0 1.117-.603 2.45 2.45 0 0 0 .704-1.138c.065-.213.073-.28.074-.651.001-.49-.049-.725-.233-1.093a2.476 2.476 0 0 0-1.569-1.309c-.221-.063-.842-.093-1.075-.051m.92.996c.582.203.973.713 1.029 1.345.036.404-.137.852-.45 1.165a1.43 1.43 0 0 1-1.073.45c-.432 0-.766-.142-1.08-.46a1.352 1.352 0 0 1-.401-.715 1.272 1.272 0 0 1-.014-.648 1.527 1.527 0 0 1 1.989-1.137m-7.86 5.911c-1.014.139-1.805.831-2.092 1.829-.051.178-.061.274-.061.624s.01.445.061.624c.263.915.969 1.59 1.876 1.792.255.057.77.057 1.029 0 .412-.09.827-.302 1.138-.579.318-.283.624-.777.725-1.167l.049-.19 3.321-.001c1.897 0 3.365-.011 3.425-.025.477-.11.477-.798 0-.909-.06-.014-1.528-.024-3.425-.025H6.892l-.048-.184c-.216-.839-.989-1.57-1.848-1.747a3.003 3.003 0 0 0-.829-.042m.669.975c.567.145 1.004.6 1.124 1.171.073.346.03.66-.137.999-.305.619-1.051.959-1.726.786a1.54 1.54 0 0 1-1.124-1.172 1.297 1.297 0 0 1 0-.613c.118-.56.531-.999 1.094-1.163a1.75 1.75 0 0 1 .769-.008" fill-rule="evenodd"/></svg>