<svg width="14" height="14" xmlns="http://www.w3.org/2000/svg"><path d="M6.802 1.017a4.725 4.725 0 0 0-.162.048c-.116.036-4.884 2.445-5.125 2.589a1.17 1.17 0 0 0-.39.397c-.126.247-.122.133-.122 2.949 0 2.814-.004 2.702.121 2.948.058.113.211.28.334.365.125.086 4.997 2.558 5.165 2.622.187.069.567.07.753 0 .17-.064 5.041-2.536 5.166-2.622.123-.085.276-.252.334-.365.125-.246.121-.134.121-2.948 0-2.816.004-2.702-.122-2.949a1.17 1.17 0 0 0-.39-.397c-.215-.129-4.997-2.548-5.123-2.592-.114-.039-.467-.068-.56-.045m2.417 2.09 2.169 1.1-.205.109c-.113.06-1.1.563-2.194 1.117L7 6.441 4.807 5.328a119.632 119.632 0 0 1-2.184-1.122c.04-.04 4.331-2.198 4.373-2.198.029-.001 1.03.494 2.223 1.099M4.258 6.17l2.217 1.126.006 2.234.006 2.234-.683-.348c-.375-.192-1.383-.704-2.24-1.139l-1.557-.789V7.264c0-1.223.008-2.223.017-2.223.01.001 1.015.509 2.234 1.129m7.735 1.094v2.224l-1.557.789c-.857.435-1.865.947-2.24 1.139l-.683.348.006-2.234.006-2.233L9.742 6.17c1.219-.62 2.224-1.128 2.234-1.129.009 0 .017 1 .017 2.223" fill-rule="evenodd"/></svg>