<svg width="14" height="14" xmlns="http://www.w3.org/2000/svg"><path d="m5.343 1.016-.21.035c-.523.085-1.071.385-1.465.802a2.733 2.733 0 0 0-.326 3.323c.146.236.541.649.762.797.502.336 1.02.483 1.624.46a2.573 2.573 0 0 0 1.821-.813c.325-.337.514-.654.652-1.093a2.695 2.695 0 0 0-.337-2.315 3.006 3.006 0 0 0-.721-.74 2.88 2.88 0 0 0-1.158-.445 3.708 3.708 0 0 0-.642-.011m3.37.195a.501.501 0 0 0-.246.644c.061.132.151.213.34.305.465.228.788.61.927 1.096.074.261.074.669.001.928a1.738 1.738 0 0 1-.903 1.092c-.219.11-.305.184-.364.312-.146.315.098.687.452.688.236.001.704-.265 1.039-.592.405-.394.639-.807.776-1.367.076-.315.077-.873.002-1.179-.13-.53-.337-.919-.68-1.281a2.757 2.757 0 0 0-.78-.577c-.262-.128-.397-.145-.564-.069m-2.728.831c.347.072.755.334.981.628.24.313.345.634.345 1.052 0 .319-.036.489-.16.749a1.792 1.792 0 0 1-.79.802 1.763 1.763 0 0 1-1.272.081c-.545-.184-.957-.638-1.112-1.224a2.119 2.119 0 0 1 0-.817c.181-.685.67-1.144 1.378-1.291.111-.023.48-.012.63.02m-2.55 5.659c-.377.038-.651.111-.924.248a2.719 2.719 0 0 0-1.365 1.573c-.101.315-.124.537-.137 1.307-.013.808-.008.851.117.993a.45.45 0 0 0 .406.167.477.477 0 0 0 .405-.253c.057-.103.058-.112.073-.839.016-.768.039-.976.133-1.194.209-.484.697-.892 1.173-.98.137-.025.607-.031 2.307-.031 2.411 0 2.343-.005 2.692.169.177.088.249.141.424.318.166.168.231.254.31.411.152.305.169.417.187 1.283l.016.759.065.111a.463.463 0 0 0 .4.246.45.45 0 0 0 .39-.151c.133-.144.136-.162.136-.843 0-.704-.026-1.037-.105-1.351-.208-.818-.894-1.551-1.71-1.826-.37-.125-.413-.127-2.688-.132-1.161-.002-2.199.004-2.305.015m7.186.095a.503.503 0 0 0-.188.714c.064.104.153.162.346.228.3.102.487.218.701.432.227.227.325.381.428.671l.072.204.013.793c.012.793.012.794.07.898a.497.497 0 0 0 .802.094c.132-.146.137-.183.126-1.073-.009-.782-.011-.812-.071-1.034a2.726 2.726 0 0 0-1.378-1.744c-.427-.224-.719-.282-.921-.183" fill-rule="evenodd"/></svg>