<svg width="21" height="21" xmlns="http://www.w3.org/2000/svg"><path d="M5.18 2.031c-.701.042-1.043.119-1.473.334a3.096 3.096 0 0 0-1.529 1.8c-.166.545-.165.513-.165 6.335s-.001 5.79.165 6.335a3.07 3.07 0 0 0 1.987 1.987c.545.166.513.166 6.335.166 5.82 0 5.788 0 6.335-.166.905-.275 1.712-1.082 1.987-1.987.164-.538.166-.595.166-5.215V7.263l-.099-.28c-.19-.538-.217-.568-2.278-2.628-1.85-1.849-1.94-1.934-2.212-2.073-.563-.288-.2-.267-4.739-.273-2.223-.002-4.239.007-4.48.022m.814 2.388c.017 1.55.026 1.624.238 1.954.202.314.527.526.912.592.155.026 1.232.035 3.496.028l3.273-.01.201-.082c.4-.161.688-.473.814-.881.046-.149.064-.378.078-1.01l.018-.818 1.375 1.375c1.097 1.096 1.395 1.414 1.474 1.57l.1.196v4.357c0 4.821.006 4.682-.224 5.137-.233.461-.712.887-1.153 1.024-.268.083-.749.139-1.203.139h-.375l-.011-2.914c-.011-2.695-.016-2.928-.075-3.103a1.364 1.364 0 0 0-.919-.902c-.192-.059-.418-.063-3.513-.063-3.095 0-3.321.004-3.513.063-.454.14-.768.448-.919.902-.059.175-.064.408-.075 3.103l-.011 2.914h-.375c-.454 0-.935-.056-1.203-.139-.441-.137-.92-.563-1.153-1.024-.233-.462-.223-.186-.223-6.327 0-6.218-.014-5.873.25-6.376.253-.481.791-.909 1.272-1.012a5.517 5.517 0 0 1 1.056-.097l.373-.005.015 1.409m7.841-1.308.168.083-.01 1.29-.01 1.289-.096.096c-.076.076-.141.1-.332.121-.31.034-5.8.034-6.11 0-.191-.021-.256-.045-.332-.121l-.095-.096-.011-1.382-.01-1.382 3.335.009 3.336.01.167.083m-.067 8.927a.378.378 0 0 1 .151.13c.06.091.064.269.073 2.959l.01 2.863H6.998l.01-2.863c.009-2.693.013-2.868.073-2.959a.387.387 0 0 1 .14-.128c.106-.042 6.435-.044 6.547-.002" fill-rule="evenodd"/></svg>