<svg width="16" height="16" xmlns="http://www.w3.org/2000/svg"><path d="M3.449 1.053a2.82 2.82 0 0 0-.813.285c-.851.433-1.423 1.214-1.6 2.182-.053.296-.053 8.664 0 8.96a3.03 3.03 0 0 0 2.484 2.484c.296.053 8.664.053 8.96 0a3.03 3.03 0 0 0 2.484-2.484c.053-.296.053-8.664 0-8.96-.231-1.27-1.198-2.252-2.427-2.468-.313-.054-8.786-.054-9.088.001m9.055 1.006c.594.184 1.046.567 1.299 1.101.208.44.197.169.197 4.84 0 4.648.01 4.399-.189 4.825a1.98 1.98 0 0 1-1.426 1.135c-.276.058-8.492.059-8.768 0a1.943 1.943 0 0 1-1.175-.717 2.607 2.607 0 0 1-.392-.79c-.054-.217-.054-8.689 0-8.906.056-.227.247-.609.397-.796a2.082 2.082 0 0 1 1.222-.723c.072-.012 2.057-.02 4.411-.018 3.921.004 4.292.008 4.424.049m-4.95.993c-.699.159-1.253.684-1.478 1.402l-.063.199v6.694l.063.199c.206.658.685 1.155 1.297 1.35 1.095.347 2.202-.238 2.551-1.35l.063-.199V4.653l-.063-.2A2.052 2.052 0 0 0 8.559 3.08c-.2-.063-.782-.079-1.005-.028m.793 1.014a1 1 0 0 1 .586.592c.054.144.054.179.047 3.378l-.007 3.232-.087.178a1.01 1.01 0 0 1-.486.47c-.125.058-.184.068-.4.068-.216 0-.275-.01-.4-.068a1.01 1.01 0 0 1-.486-.47l-.087-.178-.007-3.232c-.007-3.225-.007-3.233.049-3.382a.981.981 0 0 1 .984-.642c.096.006.228.031.294.054" fill-rule="evenodd"/></svg>