<svg width="15" height="15" xmlns="http://www.w3.org/2000/svg"><path d="M3.425 1.027c-.76.052-1.251.262-1.712.736-.36.368-.56.765-.656 1.3-.042.233-.045.523-.045 4.437 0 4.636-.007 4.406.161 4.894.212.614.819 1.221 1.433 1.433.488.168.258.161 4.894.161s4.406.007 4.894-.161c.614-.212 1.222-.819 1.433-1.433.162-.472.157-.352.167-3.918.007-2.907.004-3.258-.032-3.438a1.796 1.796 0 0 0-.295-.693c-.062-.087-.752-.794-1.534-1.573-1.181-1.177-1.45-1.433-1.595-1.517a1.78 1.78 0 0 0-.656-.229c-.202-.03-6.025-.029-6.457.001M4 2.956c.001 1.062.014 1.185.152 1.444.15.282.47.513.795.574.184.035 4.922.035 5.106 0a1.19 1.19 0 0 0 .795-.574c.118-.222.151-.422.152-.925v-.437l.924.925c.798.8.933.945.993 1.075l.071.15-.001 3.212c-.001 3.559.003 3.456-.163 3.792-.155.316-.499.612-.823.709a4.15 4.15 0 0 1-.857.099H11v-1.995c0-1.711-.005-2.015-.038-2.142a1.163 1.163 0 0 0-.937-.837c-.222-.035-4.828-.035-5.05 0a1.165 1.165 0 0 0-.949.921C4.01 9.032 4 9.813 4 11.041V13h-.144a4.15 4.15 0 0 1-.857-.099c-.324-.097-.668-.393-.823-.709-.171-.345-.163-.13-.163-4.692 0-4.568-.008-4.345.165-4.698.096-.197.395-.506.587-.608.223-.119.549-.175 1.104-.19L4 2v.956m5.956-.876c.079.037.144.08.144.094a.27.27 0 0 1-.044.094c-.038.059-.045.16-.056.847-.012.722-.016.784-.06.832L9.892 4H5.108l-.048-.053c-.045-.049-.048-.109-.055-1l-.007-.948 2.407.007 2.408.007.143.067m.009 6.981c.029.041.035.353.035 1.994V13H5V9.104l.066-.053.067-.052 2.398.007c2.341.006 2.399.008 2.434.055" fill-rule="evenodd"/></svg>