<svg width="15" height="15" xmlns="http://www.w3.org/2000/svg"><path d="M7.808 1.031a.546.546 0 0 0-.156.091c-.096.084-4.459 6.71-4.561 6.927-.219.469.002.99.473 1.113.124.032.394.038 1.767.038h1.621l-.013.081c-.007.045-.105 1.018-.217 2.162-.229 2.338-.227 2.227-.044 2.41a.5.5 0 0 0 .619.065c.077-.051.526-.717 2.316-3.434 1.221-1.855 2.255-3.445 2.297-3.534a.829.829 0 0 0-.138-.923.946.946 0 0 0-.222-.15l-.137-.064-1.682-.008-1.681-.007.013-.093c.007-.051.104-1.021.215-2.155.22-2.227.218-2.18.092-2.357a.557.557 0 0 0-.18-.133.483.483 0 0 0-.382-.029M7.131 4.93c-.157 1.59-.157 1.544.019 1.72a.54.54 0 0 0 .192.123c.063.018.675.027 1.791.027.933 0 1.692.01 1.688.021-.016.042-3.078 4.68-3.085 4.673-.004-.003.056-.642.132-1.419.155-1.583.156-1.551-.014-1.721a.569.569 0 0 0-.195-.123c-.076-.023-.531-.031-1.795-.031-.947 0-1.689-.01-1.685-.022.016-.041 3.078-4.679 3.085-4.672.004.003-.056.644-.133 1.424" fill-rule="evenodd"/></svg>