<svg width="15" height="15" xmlns="http://www.w3.org/2000/svg"><path d="M5.826 3.033a.528.528 0 0 0-.174.116c-.079.079-.168.299-.791 1.964l-.703 1.875L3.243 7l-.914.013-.106.075a.496.496 0 0 0 0 .825l.106.075 1.104.007c1.23.008 1.268.005 1.415-.144.079-.079.15-.25.615-1.495.288-.773.53-1.405.537-1.405.007 0 .586 1.532 1.288 3.405 1.173 3.135 1.282 3.413 1.367 3.499.205.205.577.179.739-.053.035-.049.374-.922.755-1.939l.693-1.85.912-.013.912-.012.102-.068c.156-.103.22-.225.22-.422 0-.136-.012-.181-.068-.265a.62.62 0 0 0-.162-.161l-.095-.059-1.1-.008c-1.226-.008-1.264-.004-1.411.144-.079.079-.15.25-.615 1.495-.288.773-.53 1.405-.537 1.405-.007 0-.579-1.516-1.272-3.368-.693-1.853-1.287-3.412-1.32-3.464-.11-.172-.366-.253-.582-.184" fill-rule="evenodd"/></svg>