<svg width="15" height="15" xmlns="http://www.w3.org/2000/svg"><path d="M6.825 1.036c-1.049.135-1.957.608-2.75 1.43a3.652 3.652 0 0 0-1.04 2.144c-.07.529-.028.766.169.963a.819.819 0 0 0 .864.155.843.843 0 0 0 .373-.369c.02-.048.047-.214.061-.367.035-.403.104-.663.259-.979.23-.47.531-.813.971-1.107 1.094-.728 2.582-.698 3.621.073.759.563 1.157 1.367 1.116 2.255a2.307 2.307 0 0 1-.244.957c-.336.692-.902 1.177-1.718 1.473-.535.193-.892.395-1.167.658a1.835 1.835 0 0 0-.493.775c-.067.205-.08.289-.091.572-.015.387.014.497.173.67.146.158.312.222.571.223.182 0 .231-.01.338-.066.27-.144.372-.325.399-.708.02-.283.047-.365.163-.497.112-.127.237-.195.627-.343.761-.287 1.219-.562 1.711-1.028a4.051 4.051 0 0 0 1.252-2.583c.019-.229-.039-.759-.117-1.067-.248-.983-.811-1.835-1.573-2.376-.423-.301-1.027-.573-1.598-.718-.589-.151-1.354-.208-1.877-.14m.125 10.958a.459.459 0 0 0-.143.128c-.056.084-.057.097-.057.853s.001.769.057.853c.103.155.173.172.693.172s.59-.017.693-.172c.056-.084.057-.097.057-.853s-.001-.769-.057-.853c-.103-.155-.173-.172-.693-.172-.39 0-.476.007-.55.044" fill-rule="evenodd"/></svg>