<svg width="14" height="14" xmlns="http://www.w3.org/2000/svg"><path d="M4.463 2.042c-.407.088-.72.436-.748.829-.016.224.035.373.429 1.248l.336.747V5.905l-.508.565c-.781.868-.843.947-.928 1.184a.937.937 0 0 0 .011.544c.112.322.363.536.722.612.122.026.424.033 1.431.033h1.277l.007 1.383.006 1.384.06.115a.545.545 0 0 0 .159.186c.091.064.118.071.283.071.165 0 .192-.007.283-.071a.545.545 0 0 0 .159-.186l.06-.115.007-1.384.006-1.383h1.277c1.007 0 1.309-.007 1.431-.033.359-.076.61-.29.722-.612a.937.937 0 0 0 .011-.544c-.085-.237-.147-.316-.928-1.184l-.508-.565V4.864l.3-.664c.453-1.006.486-1.104.464-1.356-.025-.268-.23-.569-.483-.706-.241-.132-.223-.131-2.813-.129-1.913.001-2.408.008-2.525.033m4.777.987c0 .01-.151.354-.335.764-.185.41-.348.801-.362.869-.035.164-.035 1.292 0 1.456.04.191.123.332.332.564l.611.68.418.466-.128.016c-.167.019-5.385.019-5.552 0l-.128-.016.219-.245.595-.66c.576-.639.573-.632.573-1.525 0-.369-.01-.662-.026-.736-.015-.068-.177-.459-.362-.87a24.82 24.82 0 0 1-.335-.764c0-.01 1.008-.018 2.24-.018 1.232 0 2.24.008 2.24.019" fill-rule="evenodd"/></svg>