<svg width="16" height="16" xmlns="http://www.w3.org/2000/svg"><path d="M3.449 1.053a2.82 2.82 0 0 0-.813.285c-.851.433-1.423 1.214-1.6 2.182-.053.296-.053 8.664 0 8.96a3.03 3.03 0 0 0 2.484 2.484c.296.053 8.664.053 8.96 0a3.03 3.03 0 0 0 2.484-2.484c.053-.296.053-8.664 0-8.96-.231-1.27-1.198-2.252-2.427-2.468-.313-.054-8.786-.054-9.088.001m9.055 1.006c.594.184 1.046.567 1.299 1.101.208.44.197.169.197 4.84 0 4.648.01 4.399-.189 4.825a1.98 1.98 0 0 1-1.426 1.135c-.276.058-8.492.059-8.768 0a1.943 1.943 0 0 1-1.175-.717 2.607 2.607 0 0 1-.392-.79c-.054-.217-.054-8.689 0-8.906.056-.227.247-.609.397-.796a2.082 2.082 0 0 1 1.222-.723c.072-.012 2.057-.02 4.411-.018 3.921.004 4.292.008 4.424.049M7.467 4.524c-.461.074-.704.149-1.067.331a3.113 3.113 0 0 0-.886.644c-1.162 1.188-1.342 3.075-.427 4.475.626.959 1.642 1.519 2.755 1.519.887 0 1.654-.323 2.307-.972.398-.397.663-.823.841-1.355.104-.31.099-.477-.021-.626a.474.474 0 0 0-.387-.193c-.27 0-.414.121-.518.438-.305.923-1.013 1.553-1.904 1.694-.628.099-1.328-.123-1.846-.583-.296-.264-.6-.766-.713-1.181a2.933 2.933 0 0 1 0-1.43c.113-.415.417-.917.713-1.181.311-.276.731-.49 1.099-.558a2.91 2.91 0 0 1 .854 0c.364.067.741.256 1.065.53.08.068.263.262.407.431l.262.306-.514.014c-.474.012-.522.018-.621.074-.171.099-.239.222-.239.432 0 .223.072.344.265.441l.132.066 1.028-.001c.944 0 1.037-.004 1.135-.05a.563.563 0 0 0 .278-.277c.039-.103.039-2.254 0-2.357A.501.501 0 0 0 11 4.846a.463.463 0 0 0-.365.158c-.108.115-.128.198-.128.537v.312l-.203-.22c-.687-.747-1.538-1.132-2.477-1.122a5.341 5.341 0 0 0-.36.013" fill-rule="evenodd"/></svg>