<svg width="15" height="15" xmlns="http://www.w3.org/2000/svg"><path d="M10.913 1.026a2.264 2.264 0 0 0-1.826 1.612 2.332 2.332 0 0 0-.041 1.05c.027.123.04.233.03.244-.009.011-.73.435-1.601.943l-1.584.924-.127-.12a2.212 2.212 0 0 0-1.733-.576c-.29.027-.475.078-.729.199-.66.314-1.11.882-1.255 1.585A2.257 2.257 0 0 0 3.35 9.392c.335.144.472.171.9.171.428 0 .565-.027.9-.171.225-.097.432-.231.613-.397l.133-.122 1.596.929c.878.511 1.599.932 1.602.935a.814.814 0 0 1-.032.153 2.7 2.7 0 0 0-.054.435c-.03.645.203 1.233.672 1.691.316.31.647.492 1.089.601.25.062.759.055 1.012-.013a2.193 2.193 0 0 0 1.089-.64 2.23 2.23 0 0 0 .008-3.095 2.476 2.476 0 0 0-.801-.541c-.806-.311-1.737-.138-2.352.437l-.121.113-1.596-.93-1.603-.936a.705.705 0 0 1 .032-.153c.083-.307.072-.827-.025-1.147-.013-.044.175-.16 1.568-.973l1.6-.932c.01-.005.104.064.21.152.234.196.547.365.848.456.203.062.261.069.612.069s.409-.007.611-.068a2.284 2.284 0 0 0 1.555-1.555c.061-.202.068-.26.068-.611s-.007-.409-.069-.612c-.237-.782-.837-1.367-1.602-1.564a2.917 2.917 0 0 0-.9-.048m.576 1.001c.502.092.91.518.99 1.033.063.4-.062.777-.352 1.067a1.234 1.234 0 0 1-2.04-.437 1.22 1.22 0 0 1 .286-1.317 1.207 1.207 0 0 1 1.116-.346M4.644 6.154c.302.097.549.305.703.593.304.572.13 1.257-.417 1.633-.174.12-.364.177-.63.189a.896.896 0 0 1-.434-.055 1.223 1.223 0 0 1-.73-.626 1.245 1.245 0 0 1 .365-1.549 1.245 1.245 0 0 1 1.143-.185m6.917 4.059c.441.115.797.477.9.913a1.255 1.255 0 0 1-1.03 1.526c-.515.086-1.053-.198-1.292-.681a1.21 1.21 0 0 1 .213-1.406c.308-.33.774-.465 1.209-.352" fill-rule="evenodd"/></svg>