<svg width="16" height="16" xmlns="http://www.w3.org/2000/svg"><path d="M3.027 3.044a2.166 2.166 0 0 0-1.479.818c-.256.323-.409.66-.481 1.058-.057.318-.079 1.156-.079 3.093 0 2.494.022 2.958.163 3.4.204.639.754 1.219 1.356 1.429.433.151.456.152 3.583.164 3.526.014 3.989-.004 4.443-.177.456-.173.897-.572 1.158-1.046.227-.413.285-.743.306-1.749l.016-.753.747.802c.411.442.807.857.88.924.267.242.546.306.849.192a.874.874 0 0 0 .431-.415c.085-.205.097-.607.087-3-.01-2.717.007-2.531-.259-2.799-.324-.326-.744-.322-1.108.008a35.71 35.71 0 0 0-.88.924l-.747.802-.016-.753c-.021-1.006-.079-1.336-.306-1.749-.296-.538-.796-.953-1.318-1.095a3.561 3.561 0 0 0-.44-.081c-.299-.034-6.638-.031-6.906.003m6.957 1.005c.357.084.677.342.84.675.159.324.162.383.162 3.276s-.003 2.952-.162 3.276c-.099.203-.351.473-.525.561a1.83 1.83 0 0 1-.279.104c-.154.042-.424.046-3.513.046-3.128 0-3.359-.003-3.533-.048a1.05 1.05 0 0 1-.548-.318 1.392 1.392 0 0 1-.366-.678c-.042-.19-.046-.464-.046-2.943s.004-2.753.046-2.943c.077-.355.282-.656.58-.851.172-.112.303-.15.613-.179.376-.035 6.577-.014 6.731.022m4.01 4.916-.007.964-.902-.964L12.184 8l.901-.965.902-.964.007.964c.004.531.004 1.399 0 1.93" fill-rule="evenodd"/></svg>