<svg width="15" height="15" xmlns="http://www.w3.org/2000/svg"><path d="M4.15 1.016c-.607.037-1.014.186-1.408.516a2.146 2.146 0 0 0-.651 1.043C2.005 2.933 2 3.227 2 7.5c0 4.281.005 4.57.091 4.925.116.477.425.907.86 1.198.248.166.413.235.737.308.208.048.328.052 1.634.062 1.584.013 1.546.016 1.712-.168a.56.56 0 0 0 .141-.325.567.567 0 0 0-.13-.314c-.159-.181-.077-.172-1.645-.188-1.195-.013-1.437-.022-1.569-.056a1.106 1.106 0 0 1-.774-.78c-.042-.164-.044-.435-.044-4.662s.002-4.498.044-4.662c.104-.406.436-.713.858-.793.137-.026.885-.032 3.585-.032 3.669 0 3.626-.002 3.882.128.155.078.341.251.443.408.159.248.157.224.173 2.79l.015 2.327.067.102c.103.156.225.22.422.22.136 0 .181-.012.265-.068a.62.62 0 0 0 .161-.162l.06-.095.007-2.175c.009-2.69 0-2.816-.233-3.3-.224-.465-.679-.876-1.15-1.038-.397-.137-.272-.133-3.937-.138-1.863-.002-3.449 0-3.525.004m4.762 6.885c-.903.139-1.685.799-1.957 1.649a2.145 2.145 0 0 0-.115.75c0 .298.027.473.115.75a2.442 2.442 0 0 0 3.474 1.382l.184-.098.812.806c.723.717.825.809.925.835a.5.5 0 0 0 .625-.625c-.026-.1-.117-.2-.84-.926-.513-.516-.802-.822-.787-.838.051-.051.225-.433.273-.598a2.473 2.473 0 0 0-.109-1.675 2.67 2.67 0 0 0-.87-1.022 2.741 2.741 0 0 0-.77-.341 3.323 3.323 0 0 0-.96-.049m.818 1.048c.217.068.516.269.657.441.204.251.337.611.337.91 0 .341-.165.737-.412.988-.78.791-2.115.45-2.424-.619a1.671 1.671 0 0 1 0-.738c.087-.3.317-.63.555-.794.12-.084.371-.193.516-.226.205-.047.555-.03.771.038" fill-rule="evenodd"/></svg>