<svg width="15" height="15" xmlns="http://www.w3.org/2000/svg"><path d="M6.3 1.025c-1.639.171-3.026.926-4.059 2.211-.514.638-.939 1.55-1.115 2.389a6.321 6.321 0 0 0-.065 2.063 5.902 5.902 0 0 0 1.094 2.624c.235.318.697.799 1.006 1.05 1.146.929 2.66 1.406 4.089 1.289a5.876 5.876 0 0 0 3.175-1.221l.163-.128 1.325 1.322c1.202 1.199 1.335 1.325 1.437 1.352.396.104.73-.23.626-.626-.027-.102-.153-.235-1.352-1.437l-1.322-1.325.128-.163a5.862 5.862 0 0 0 1.181-4.4 5.872 5.872 0 0 0-2.573-4.061 5.981 5.981 0 0 0-2.363-.901A8.163 8.163 0 0 0 6.3 1.025m.989 1.002a4.816 4.816 0 0 1 3.576 2.148c.535.819.788 1.673.788 2.663a4.58 4.58 0 0 1-.519 2.191 4.915 4.915 0 0 1-1.675 1.861 4.826 4.826 0 0 1-7.21-2.539 4.835 4.835 0 0 1 2.424-5.838c.556-.278 1.033-.411 1.79-.497.17-.019.571-.014.826.011" fill-rule="evenodd"/></svg>