<svg width="14" height="14" xmlns="http://www.w3.org/2000/svg"><path d="M6.673 1.04a1.495 1.495 0 0 0-.735.416c-.276.279-.395.544-.432.966-.025.285-.077.381-.231.427-.147.044-.241.011-.415-.143a1.562 1.562 0 0 0-1.103-.389c-.795.062-1.4.709-1.4 1.498 0 .373.119.683.385 1.003.175.21.195.282.129.459-.065.175-.133.21-.438.232-.414.03-.708.161-.987.44-.596.596-.591 1.514.011 2.113.278.276.549.397.963.431.267.021.347.059.412.196.075.159.048.25-.136.46a1.497 1.497 0 0 0 2.107 2.121c.194-.163.277-.197.399-.164.187.051.258.161.258.402a1.513 1.513 0 0 0 1.134 1.443c.376.096.816.045 1.16-.134.46-.24.784-.78.786-1.309 0-.241.071-.351.258-.402.121-.032.205.001.392.158a1.497 1.497 0 0 0 2.114-2.115c-.184-.21-.211-.301-.136-.46.065-.137.145-.175.412-.196.414-.034.685-.155.963-.431.602-.599.607-1.517.011-2.113a1.483 1.483 0 0 0-1.024-.442.55.55 0 0 1-.252-.049c-.085-.041-.106-.067-.147-.177-.069-.182-.049-.251.132-.468a1.498 1.498 0 0 0-1.015-2.494 1.544 1.544 0 0 0-1.108.387c-.104.092-.185.144-.24.154a.338.338 0 0 1-.327-.119c-.052-.069-.064-.114-.08-.32-.034-.416-.154-.686-.431-.965a1.24 1.24 0 0 0-.386-.286 1.51 1.51 0 0 0-1.003-.13m.562 1.028c.181.099.234.198.26.481.036.399.16.69.395.925.5.501 1.283.527 1.817.06.083-.073.193-.153.245-.176.318-.148.688.097.688.457 0 .148-.048.248-.2.416a1.36 1.36 0 0 0-.283 1.317c.07.233.173.409.33.564.25.245.532.362.951.395.216.016.263.027.341.082a.526.526 0 0 1 .214.415.413.413 0 0 1-.075.253c-.105.174-.212.225-.534.255-.371.034-.613.14-.849.372a1.314 1.314 0 0 0-.069 1.823c.073.083.153.193.176.245a.491.491 0 0 1-.445.688.522.522 0 0 1-.386-.162 1.6 1.6 0 0 0-.49-.309 1.79 1.79 0 0 0-.743-.043 1.4 1.4 0 0 0-.632.347c-.267.271-.377.523-.407.939-.019.259-.048.342-.158.446a.525.525 0 0 1-.381.135c-.332 0-.535-.202-.537-.536-.003-.519-.286-.992-.725-1.212-.236-.118-.393-.149-.685-.136-.348.015-.593.12-.864.369a.522.522 0 0 1-.386.162.491.491 0 0 1-.445-.688c.023-.052.103-.162.176-.245a1.3 1.3 0 0 0-.036-1.784c-.252-.265-.489-.375-.884-.41-.317-.029-.426-.081-.531-.256a.457.457 0 0 1-.007-.505c.102-.179.189-.223.488-.246.417-.032.699-.149.949-.394.157-.155.26-.331.33-.564a1.36 1.36 0 0 0-.283-1.317c-.152-.168-.2-.268-.2-.416 0-.36.37-.605.688-.457.052.023.162.103.245.176a1.306 1.306 0 0 0 1.771-.022c.275-.257.403-.534.441-.96.026-.287.072-.376.247-.476a.468.468 0 0 1 .483-.008M6.597 4.89A2.18 2.18 0 0 0 5.05 6.101c-.149.321-.184.495-.184.899 0 .306.008.39.053.546.22.765.77 1.315 1.535 1.535.156.045.24.053.546.053.306 0 .39-.008.546-.053a2.183 2.183 0 0 0 1.535-1.535c.045-.156.053-.24.053-.546 0-.306-.008-.39-.053-.546A2.167 2.167 0 0 0 6.597 4.89m.694 1.002c.2.053.355.144.514.303.228.227.338.491.338.805 0 .314-.11.576-.338.808A1.083 1.083 0 0 1 7 8.143c-.318 0-.582-.11-.805-.335a1.098 1.098 0 0 1-.303-.517 1.21 1.21 0 0 1 .099-.838c.082-.152.311-.381.463-.462.246-.131.567-.169.837-.099" fill-rule="evenodd"/></svg>