<svg width="14" height="14" xmlns="http://www.w3.org/2000/svg"><path d="M6.44 1.027a6.707 6.707 0 0 0-1.505.338 6.946 6.946 0 0 0-1.241.634 5.933 5.933 0 0 0-2.071 2.35 5.236 5.236 0 0 0-.433 1.168c-.144.571-.174.828-.174 1.483 0 .438.01.637.042.852.055.353.196.913.307 1.215.2.543.579 1.214.955 1.69.178.225.698.745.923.923a6.78 6.78 0 0 0 1.69.955c.302.111.862.252 1.215.307.215.032.414.042.852.042.655 0 .912-.03 1.483-.174a5.236 5.236 0 0 0 1.168-.433 5.988 5.988 0 0 0 2.726-2.726c.216-.439.319-.719.433-1.168.144-.571.174-.828.174-1.483 0-.655-.03-.912-.174-1.483a5.236 5.236 0 0 0-.433-1.168c-.87-1.777-2.553-2.995-4.542-3.289a9.178 9.178 0 0 0-1.395-.033m1.077 1.004a5.048 5.048 0 0 1 2.633 1.09c.211.171.583.544.75.752 1.574 1.967 1.434 4.821-.325 6.612a4.997 4.997 0 0 1-3.014 1.484 6.78 6.78 0 0 1-1.122 0c-.964-.116-1.919-.523-2.624-1.118C2.653 9.87 2.007 8.495 2.007 7c0-1.363.539-2.636 1.52-3.589a5.03 5.03 0 0 1 2.925-1.379 6.761 6.761 0 0 1 1.065-.001M5.155 4.604a.755.755 0 0 0-.51.436.834.834 0 0 0-.005.623c.062.138.262.341.389.394a.782.782 0 0 0 .996-.333.79.79 0 0 0 .017-.722.963.963 0 0 0-.384-.361.883.883 0 0 0-.503-.037m3.291 0a.766.766 0 0 0-.372.239.723.723 0 0 0-.185.634.777.777 0 0 0 1.082.58c.127-.053.327-.256.389-.394a.832.832 0 0 0-.006-.624.71.71 0 0 0-.355-.372.83.83 0 0 0-.553-.063M4.621 7.633a.514.514 0 0 0-.27.685c.024.052.166.215.314.363A3.413 3.413 0 0 0 6.4 9.64c.336.071.864.071 1.2 0a3.413 3.413 0 0 0 1.735-.959c.148-.148.29-.311.314-.363a.498.498 0 0 0-.399-.707c-.188-.015-.307.039-.467.213-.425.461-.867.725-1.398.835a1.817 1.817 0 0 1-.77 0c-.523-.108-.983-.38-1.376-.812a.952.952 0 0 0-.233-.196.602.602 0 0 0-.385-.018" fill-rule="evenodd"/></svg>