<svg width="16" height="16" xmlns="http://www.w3.org/2000/svg"><path d="M6.191 1.065a2.599 2.599 0 0 0-.85.428 2.28 2.28 0 0 0-.702 1.054c-.046.146-.063.279-.076.613l-.016.427-.734.017c-.501.012-.788.03-.908.058a2.454 2.454 0 0 0-1.734 1.512c-.119.328-.16.667-.166 1.373-.005.586-.002.618.054.723.073.137.193.24.322.275.054.016.364.028.687.028.635 0 .766.02.989.151.157.092.348.306.432.484.063.135.071.184.071.432 0 .249-.008.297-.073.436a1.047 1.047 0 0 1-.4.473c-.239.154-.42.184-1.1.184-.636 0-.686.01-.834.162-.152.156-.166.256-.166 1.183.002 1.401.048 1.967.192 2.36.206.562.742 1.112 1.323 1.358.37.157.976.215 2.26.217.772 0 .873-.017 1.03-.179a.643.643 0 0 0 .126-.176c.017-.045.029-.328.029-.709 0-.349.011-.696.025-.77a.945.945 0 0 1 .495-.668c.118-.063.163-.071.4-.071.253 0 .275.005.435.091.19.103.293.214.399.429l.072.147.014.76c.014.819.014.816.169.98.132.14.271.166.856.166 1.105-.002 1.683-.059 2.066-.203.418-.157.907-.569 1.16-.978.294-.474.357-.823.38-2.102l.017-.923.402-.014c.357-.011.432-.022.657-.096a2.17 2.17 0 0 0 1.442-1.537c.076-.292.077-.746.002-1.029a2.174 2.174 0 0 0-1.412-1.526c-.214-.075-.268-.082-.666-.093-.298-.008-.434-.021-.434-.042a8.638 8.638 0 0 0-.093-.996 2.433 2.433 0 0 0-1.822-1.811c-.149-.033-.399-.049-.924-.06l-.72-.016-.016-.427c-.018-.461-.058-.64-.215-.958A2.161 2.161 0 0 0 7.22 1.066a2.62 2.62 0 0 0-1.029-.001m.961 1.115c.213.102.359.229.467.41.143.24.168.39.168 1.038 0 .736.031.837.303.972l.134.067h.828c1.019 0 1.239.022 1.504.147.265.125.505.365.63.63.115.244.147.49.147 1.156.001.535.019.639.139.775.158.18.174.184.943.198l.695.014.201.099c.864.427.786 1.652-.126 1.983-.109.04-.25.05-.816.063l-.685.015-.113.08a.656.656 0 0 0-.169.186c-.053.103-.056.158-.072 1.4-.018 1.409-.029 1.521-.175 1.794-.165.308-.537.59-.875.661a8.601 8.601 0 0 1-.78.044l-.647.015v-.418c0-.491-.038-.701-.185-1.016a2.006 2.006 0 0 0-1.206-1.063c-.321-.107-.815-.108-1.169-.002a2.057 2.057 0 0 0-1.335 1.332c-.05.157-.061.266-.072.676l-.012.49-.804-.013c-.872-.015-1.022-.035-1.281-.173a1.656 1.656 0 0 1-.53-.533c-.138-.256-.156-.413-.171-1.454l-.014-.953h.324c.7 0 1.207-.204 1.655-.666.375-.385.568-.825.604-1.374.057-.854-.452-1.694-1.254-2.069-.289-.136-.542-.184-.954-.184H2.08v-.158a5.7 5.7 0 0 1 .027-.433c.023-.23.044-.309.125-.476a1.37 1.37 0 0 1 .621-.622c.268-.13.471-.151 1.508-.151h.829l.14-.07a.555.555 0 0 0 .212-.178l.071-.108.015-.696c.014-.614.022-.711.07-.831.109-.273.282-.466.535-.594.17-.087.292-.109.533-.099a.842.842 0 0 1 .386.089" fill-rule="evenodd"/></svg>