<svg width="16" height="16" xmlns="http://www.w3.org/2000/svg"><path d="M9.743 1.08a.563.563 0 0 0-.151.129c-.023.035-.253.614-.512 1.287-.258.673-.51 1.308-.56 1.411a1.464 1.464 0 0 1-.568.594c-.084.044-.704.292-1.379.551-.674.26-1.274.498-1.333.53-.283.156-.31.625-.047.813.04.029.626.265 1.3.524.675.259 1.311.511 1.414.561.251.12.493.362.613.613.05.103.302.739.561 1.414.259.674.495 1.26.524 1.3a.529.529 0 0 0 .395.186.529.529 0 0 0 .395-.186c.029-.04.265-.626.524-1.3.259-.675.511-1.311.561-1.414.12-.251.362-.493.613-.613.103-.05.739-.302 1.414-.561.674-.259 1.26-.495 1.3-.524.263-.188.236-.657-.047-.813-.059-.032-.659-.27-1.333-.53a33.671 33.671 0 0 1-1.379-.551 1.464 1.464 0 0 1-.568-.594c-.05-.103-.302-.738-.56-1.411a33.405 33.405 0 0 0-.512-1.287c-.125-.191-.455-.255-.665-.129m.469 2.367c.375.982.489 1.193.818 1.523.33.329.541.443 1.523.818.283.107.514.203.514.212 0 .009-.261.116-.58.238-.896.343-1.156.485-1.474.808-.314.318-.433.542-.801 1.507a4.99 4.99 0 0 1-.212.514 4.99 4.99 0 0 1-.212-.514c-.366-.959-.485-1.184-.787-1.493-.328-.336-.581-.475-1.488-.822A6.622 6.622 0 0 1 6.933 6c0-.009.231-.105.514-.212.982-.375 1.193-.489 1.523-.818.329-.33.443-.541.818-1.523A4.99 4.99 0 0 1 10 2.933c.009 0 .105.231.212.514M3.728 9.091c-.117.074-.14.111-.487.8-.473.939-.42.885-1.303 1.327a15.89 15.89 0 0 0-.745.387.529.529 0 0 0-.186.395c0 .148.082.321.186.394.04.029.374.203.742.388.88.442.841.403 1.283 1.283.185.368.359.702.388.742a.525.525 0 0 0 .394.186.525.525 0 0 0 .394-.186c.029-.04.204-.376.39-.746.441-.879.398-.836 1.281-1.279.368-.185.702-.359.742-.388A.525.525 0 0 0 6.993 12a.529.529 0 0 0-.186-.395c-.04-.028-.375-.203-.744-.387-.882-.441-.832-.39-1.306-1.331-.345-.685-.368-.722-.485-.796A.42.42 0 0 0 4 9.013a.42.42 0 0 0-.272.078" fill-rule="evenodd"/></svg>