<svg width="14" height="14" xmlns="http://www.w3.org/2000/svg"><path d="M2.884 3.035c-.624.068-1.135.347-1.489.814-.214.283-.319.566-.367.993-.032.281-.032 4.035 0 4.316.056.503.191.813.496 1.147.342.374.79.592 1.372.666.344.044 4.166.044 4.531 0 .569-.068.964-.25 1.326-.61.29-.289.465-.628.536-1.041.015-.089.034-.441.042-.782l.014-.62 1.167.744a37.46 37.46 0 0 0 1.345.833c.493.248.98.068 1.104-.409.053-.204.053-3.968 0-4.172-.092-.354-.404-.561-.78-.518-.183.021-.389.126-.935.476l-1.189.759-.712.453-.014-.621a9.4 9.4 0 0 0-.042-.783 1.844 1.844 0 0 0-.553-1.055 2.062 2.062 0 0 0-1.024-.552c-.204-.047-.279-.049-2.427-.053-1.219-.003-2.3.004-2.401.015m4.694 1.03c.242.074.478.252.609.458.132.208.131.201.131 2.477 0 1.664-.006 2.117-.031 2.228-.072.322-.363.608-.715.704-.241.066-.882.082-2.717.071-1.969-.012-2.035-.016-2.288-.145-.168-.085-.384-.294-.455-.441a1.13 1.13 0 0 1-.081-.316c-.033-.267-.033-3.935 0-4.202.031-.255.102-.4.278-.568.17-.162.376-.262.596-.291.091-.012 1.13-.02 2.357-.017 1.943.004 2.207.009 2.316.042m4.415 2.934V8.42l-1.108-.704A44.57 44.57 0 0 1 9.778 7c0-.008 2.17-1.404 2.21-1.421.003-.001.005.637.005 1.42" fill-rule="evenodd"/></svg>