<svg width="21" height="21" xmlns="http://www.w3.org/2000/svg"><path d="M6.878 2.033a6.168 6.168 0 0 0-.683.083c-.889.188-1.741.957-2.014 1.816-.175.551-.173.488-.173 6.568s-.002 6.017.173 6.568c.227.715.922 1.438 1.642 1.709.552.208.445.203 4.835.218 4.2.015 4.69.003 5.22-.13.933-.234 1.754-1.039 1.987-1.946.119-.468.128-.855.117-5.036-.011-3.832-.016-4.146-.074-4.34a3.475 3.475 0 0 0-.574-1.076c-.296-.345-3.7-3.682-3.946-3.867a2.863 2.863 0 0 0-1.453-.569c-.389-.041-4.437-.039-5.057.002m5.07.999.162.023.001 1.666c.001 1.767.02 2.069.145 2.338.112.242.433.546.683.646.203.082.205.082 2.099.093l1.895.011.027.077c.043.119.059 7.072.019 7.897-.039.797-.088 1.026-.283 1.331a2.18 2.18 0 0 1-.763.675c-.423.199-.472.201-4.925.2-2.397-.001-4.168-.015-4.323-.035-.392-.05-.613-.132-.888-.33-.291-.208-.587-.593-.67-.87-.116-.393-.126-.929-.113-6.551.011-5.057.017-5.587.07-5.806.102-.415.377-.799.749-1.047.281-.186.491-.26.852-.301.305-.035 5.022-.05 5.263-.017m3.959 3.405.349.353h-1.463c-.887 0-1.488-.013-1.527-.034-.129-.069-.141-.214-.141-1.655V3.702l1.216 1.191c.669.656 1.374 1.351 1.566 1.544m-7.743 3.631c-.339.167-.335.704.006.866.105.05.413.056 2.846.056h2.729l.119-.079a.483.483 0 0 0-.015-.833c-.108-.066-.197-.068-2.841-.067-2.431.001-2.743.007-2.844.057m.009 3.997c-.181.112-.239.203-.253.399-.018.238.072.389.287.484.15.067.239.068 2.842.059 2.608-.009 2.692-.012 2.803-.079a.592.592 0 0 0 .188-.221.464.464 0 0 0-.217-.646c-.112-.056-.32-.061-2.833-.061-2.58 0-2.718.003-2.817.065" fill-rule="evenodd"/></svg>