<svg width="15" height="15" xmlns="http://www.w3.org/2000/svg"><path d="M2.541 2.027c-.427.045-.732.187-1.016.473-.303.305-.443.599-.497 1.039-.038.306-.039 7.565-.001 7.902.046.416.178.717.443 1.01.269.298.629.473 1.082.525.163.018 1.736.024 5.111.019l4.875-.008.192-.055c.252-.071.437-.164.613-.305.299-.241.51-.582.598-.964.044-.19.047-.404.047-4.163 0-3.785-.003-3.971-.047-4.162-.121-.516-.432-.919-.878-1.14-.339-.167-.422-.178-1.565-.191-2.009-.024-2.564.063-3.21.502-.193.13-.548.472-.676.651a.888.888 0 0 1-.112.139.888.888 0 0 1-.112-.139 3.667 3.667 0 0 0-.676-.651c-.466-.317-.876-.436-1.674-.484-.475-.029-2.216-.027-2.497.002M5.35 3.048c.303.044.476.097.674.209.331.187.667.577.811.943.15.379.165.777.165 4.545v3.257l-2.231-.007c-2.498-.008-2.326.005-2.527-.19-.137-.132-.191-.253-.218-.488-.031-.272-.031-7.363 0-7.635.027-.232.067-.328.198-.465.119-.126.2-.166.386-.192.212-.03 2.509-.01 2.742.023m7.184 0c.119.038.304.205.369.334.027.053.06.188.073.301.014.119.024 1.719.024 3.817s-.01 3.698-.024 3.817c-.027.235-.081.356-.218.488-.201.195-.029.182-2.528.19l-2.233.007.01-3.545c.01-3.616.013-3.719.107-4.093.116-.46.498-.925.944-1.149.359-.18.714-.212 2.28-.204.791.004 1.127.015 1.196.037" fill-rule="evenodd"/></svg>