<svg width="14" height="14" xmlns="http://www.w3.org/2000/svg"><path d="M6.755 2.023c-1.669.145-3.214 1.088-4.051 2.472a4.989 4.989 0 0 0-.673 1.953 6.564 6.564 0 0 0 0 1.104 4.991 4.991 0 0 0 1.051 2.493c.782.973 1.947 1.647 3.253 1.882.268.048.374.054.91.054.671-.001.821-.019 1.385-.165 1.605-.416 2.93-1.573 3.51-3.066.151-.389.169-.482.124-.637-.067-.23-.311-.392-.534-.356a.574.574 0 0 0-.325.172 1.319 1.319 0 0 0-.133.287 4.139 4.139 0 0 1-1.496 1.987 5.073 5.073 0 0 1-1.156.575c-1.175.383-2.522.253-3.553-.343a4.53 4.53 0 0 1-1.34-1.195 5.028 5.028 0 0 1-.54-1.067C3.05 7.729 3.023 7.54 3.023 7c0-.432.008-.535.053-.741.076-.351.156-.591.298-.891.551-1.162 1.644-1.999 2.973-2.277a4.974 4.974 0 0 1 1.792.003c.595.123 1.17.374 1.671.729.257.182.787.702 1.242 1.217.21.237.381.44.381.449 0 .01-.494.018-1.097.018-1.196 0-1.193-.001-1.338.135-.282.265-.152.74.23.843.063.016.624.025 1.694.025 1.804 0 1.771.003 1.933-.164a.525.525 0 0 0 .116-.191c.02-.073.026-.532.021-1.714l-.007-1.614-.071-.101a.484.484 0 0 0-.419-.216.428.428 0 0 0-.347.142c-.144.144-.142.128-.155 1.067l-.011.861-.222-.254c-.32-.368-.96-1.003-1.19-1.18A5.356 5.356 0 0 0 7.773 2.03a8.446 8.446 0 0 0-1.018-.007" fill-rule="evenodd"/></svg>