<svg width="14" height="14" xmlns="http://www.w3.org/2000/svg"><path d="M2.395 1.03c-.385.045-.637.171-.926.461a1.476 1.476 0 0 0-.41.702c-.041.144-.044.35-.051 3.827-.008 3.83-.003 4.065.09 4.422.175.667.711 1.23 1.364 1.434.376.116.373.116 4.538.116s4.162 0 4.538-.116c.312-.098.573-.259.825-.511.372-.372.552-.77.61-1.352.032-.326.032-4.501-.001-4.805-.064-.602-.259-1.019-.647-1.385-.349-.33-.654-.476-1.16-.559-.105-.017-.722-.03-1.733-.037l-1.57-.012-.371-.738c-.245-.486-.41-.786-.484-.878a1.665 1.665 0 0 0-.815-.542c-.124-.036-.303-.041-1.875-.044-.956-.003-1.821.005-1.922.017m3.628 1.03c.156.078.227.178.476.673l.245.487H2.007v-.297c0-.37.028-.548.104-.663a.556.556 0 0 1 .341-.228c.057-.011.864-.019 1.795-.017 1.576.003 1.697.006 1.776.045m5.107 2.208c.396.091.73.428.82.83.025.113.032.604.032 2.509 0 2.544 0 2.525-.121 2.776a1.247 1.247 0 0 1-.502.49c-.281.13-.23.129-4.359.129s-4.078.001-4.359-.129a1.15 1.15 0 0 1-.591-.735c-.021-.085-.03-.886-.037-3.016l-.008-2.9 4.498.008c3.51.007 4.527.015 4.627.038" fill-rule="evenodd"/></svg>