<svg width="14" height="14" xmlns="http://www.w3.org/2000/svg"><path d="M3.202 1.028c-.651.05-1.071.231-1.488.64-.396.389-.583.756-.667 1.307-.047.31-.047 7.74 0 8.05.077.507.254.877.591 1.237.36.386.79.608 1.337.691.31.047 7.74.047 8.05 0 .547-.083.977-.305 1.337-.691.337-.36.514-.73.591-1.237.047-.31.047-7.74 0-8.05-.084-.551-.271-.918-.667-1.307-.43-.422-.825-.587-1.535-.641-.366-.028-7.184-.027-7.549.001m7.815 1.031c.462.113.839.502.932.963.04.195.059 7.291.022 7.705-.032.347-.067.47-.183.65a1.273 1.273 0 0 1-.765.563c-.151.039-.405.042-4.023.042-3.618 0-3.872-.003-4.023-.042a1.262 1.262 0 0 1-.762-.558c-.115-.178-.155-.313-.184-.614-.031-.312-.031-7.224 0-7.536.029-.3.069-.436.182-.61.116-.179.23-.293.409-.409.168-.109.319-.156.58-.182.106-.01 1.873-.017 3.926-.015 3.36.004 3.749.008 3.889.043M5.553 4.034a.813.813 0 0 0-.559.631c-.015.079-.024.939-.024 2.339 0 2.456-.001 2.431.147 2.639a.738.738 0 0 0 .613.339c.16.009.209.002.327-.046.13-.053 3.293-2.068 3.584-2.283.25-.186.36-.413.34-.706a.71.71 0 0 0-.229-.503C9.636 6.33 6.39 4.23 6.129 4.099a.65.65 0 0 0-.33-.078 1.093 1.093 0 0 0-.246.013m1.696 1.954 1.416.911.16.103-1.414.909c-.778.5-1.42.909-1.426.909-.006 0-.012-.819-.012-1.82 0-1.001.005-1.82.01-1.82s.575.364 1.266.808" fill-rule="evenodd"/></svg>