<svg width="14" height="14" xmlns="http://www.w3.org/2000/svg"><path d="M6.65 1.018c-1.237.156-2.253.88-2.818 2.004-.298.594-.393 1.024-.426 1.921-.032.861-.09 1.309-.247 1.914-.147.567-.318.963-.685 1.59-.117.199-.267.471-.334.604-.12.239-.122.246-.122.455 0 .192.007.224.07.337.088.16.239.293.393.347.115.04.34.042 4.519.042s4.404-.002 4.519-.042a.766.766 0 0 0 .393-.347c.063-.112.07-.146.07-.335 0-.256-.018-.296-.455-1.061-.328-.571-.494-.933-.617-1.338-.196-.649-.283-1.242-.316-2.148a8.066 8.066 0 0 0-.059-.819c-.282-1.589-1.413-2.788-2.905-3.08a5.544 5.544 0 0 0-.98-.044m.933 1.055c.732.193 1.318.674 1.675 1.373.247.485.303.747.332 1.552.06 1.629.326 2.654.99 3.811.136.237.247.436.247.442 0 .007-1.722.012-3.827.012s-3.827-.005-3.827-.012c0-.006.111-.205.247-.442a6.451 6.451 0 0 0 .722-1.751c.163-.621.236-1.181.268-2.06.029-.805.085-1.067.332-1.552.195-.382.454-.694.778-.938.35-.264.66-.395 1.153-.487.145-.027.739.007.91.052m-2.122 9.41a.531.531 0 0 0-.272.263c-.104.224-.056.411.158.608a2.47 2.47 0 0 0 1.038.566c.208.058.267.064.615.064s.407-.006.615-.064a2.47 2.47 0 0 0 1.038-.566c.219-.202.265-.392.15-.619a.46.46 0 0 0-.388-.273c-.171-.014-.263.021-.451.172-.303.243-.615.359-.964.359-.346 0-.666-.118-.951-.35a1.4 1.4 0 0 0-.227-.153.61.61 0 0 0-.361-.007" fill-rule="evenodd"/></svg>