<svg width="16" height="16" xmlns="http://www.w3.org/2000/svg"><path d="M7.547 2.028a4.03 4.03 0 0 0-1.876.712 4.762 4.762 0 0 0-.903.902A4.192 4.192 0 0 0 4.133 5C4.023 5.415 4 5.657 4 6.386v.641l-.232.046c-.645.128-1.251.623-1.541 1.256-.204.445-.237.806-.219 2.388.014 1.29.031 1.464.17 1.812.238.595.756 1.098 1.332 1.294.413.141.292.137 4.49.137s4.077.004 4.49-.137c.574-.195 1.095-.701 1.332-1.294.139-.348.156-.522.17-1.812.018-1.586-.015-1.943-.221-2.393-.288-.629-.901-1.127-1.539-1.25L12 7.029V6.37c0-.708-.02-.931-.121-1.334a3.984 3.984 0 0 0-1.012-1.831A3.543 3.543 0 0 0 9.8 2.413c-.547-.271-1.008-.382-1.667-.4a5.217 5.217 0 0 0-.586.015m1.085 1.036a2.914 2.914 0 0 1 2.18 1.9c.15.42.175.611.175 1.359v.664H5.013v-.65c0-.908.057-1.19.35-1.751a2.928 2.928 0 0 1 2.085-1.533 4.124 4.124 0 0 1 1.184.011m3.288 4.96c.257.043.521.184.703.374.197.207.299.426.336.721.036.294.036 2.466 0 2.739a1.257 1.257 0 0 1-1.026 1.081c-.272.05-7.594.05-7.866 0-.545-.1-.953-.53-1.026-1.081-.036-.273-.036-2.445 0-2.739.018-.146.056-.285.106-.393.143-.308.47-.584.8-.674a4.24 4.24 0 0 1 .56-.053c.696-.031 7.208-.009 7.413.025"/></svg>