<svg width="16" height="16" xmlns="http://www.w3.org/2000/svg"><path d="M3.116 1.369c-.269.1-.49.295-.59.521-.034.076-.059.2-.066.323-.01.182.03.383.43 2.197.268 1.211.465 2.044.501 2.12.033.068.122.185.2.261.253.248.09.224 3.235.491 2.751.235 2.786.238 2.849.301a.211.211 0 0 1 .064.157c0 .135-.046.201-.159.23-.055.014-1.33.128-2.833.255l-2.734.229-.192.094a.876.876 0 0 0-.435.428c-.031.062-.252 1.004-.496 2.108-.401 1.82-.439 2.014-.43 2.2a.85.85 0 0 0 .301.633c.274.25.657.321.988.183.087-.036 2.48-1.296 5.318-2.799 4.171-2.21 5.187-2.759 5.304-2.864.483-.435.385-1.2-.195-1.528-.179-.101-9.99-5.295-10.283-5.444-.205-.103-.248-.115-.453-.123a.93.93 0 0 0-.324.027" fill-rule="evenodd"/></svg>