<svg width="15" height="15" xmlns="http://www.w3.org/2000/svg"><path d="M7.313 1.022a.883.883 0 0 0-.505.387c-.034.053-.409.835-.834 1.738-.624 1.326-.783 1.644-.829 1.66-.032.011-.822.137-1.757.28-.935.143-1.74.272-1.788.286a.82.82 0 0 0-.515 1.137c.083.168.266.365 1.7 1.825l.997 1.016-.278 1.706-.307 1.892c-.053.359.021.616.237.821a.748.748 0 0 0 .787.183c.084-.026.832-.422 1.698-.9.851-.469 1.562-.853 1.581-.853.019 0 .73.384 1.581.853.866.478 1.614.874 1.698.9.083.026.2.047.26.047.271 0 .597-.22.714-.482.103-.234.088-.385-.239-2.374l-.296-1.794.997-1.015c1.376-1.4 1.62-1.662 1.699-1.822a.82.82 0 0 0-.514-1.14 80.8 80.8 0 0 0-1.787-.286 77.105 77.105 0 0 1-1.758-.28c-.046-.016-.205-.334-.829-1.66-.425-.903-.8-1.685-.834-1.738-.159-.248-.373-.381-.638-.397a.994.994 0 0 0-.241.01m.624 2.16c.955 2.041 1.058 2.249 1.167 2.359.194.198.22.205 2.046.484.914.141 1.664.257 1.666.259.002.002-.547.566-1.22 1.254-1.395 1.425-1.385 1.412-1.38 1.761.002.148.483 3.197.548 3.473.011.049.006.056-.031.042a95.536 95.536 0 0 1-1.432-.782 90.244 90.244 0 0 0-1.5-.816.707.707 0 0 0-.304-.052c-.236-.001-.173-.032-1.934.944-.729.403-1.328.732-1.33.731-.003-.001.125-.79.282-1.752.223-1.357.284-1.779.272-1.88-.033-.283-.07-.327-1.383-1.669a155.431 155.431 0 0 1-1.22-1.254c.002-.002.752-.118 1.666-.259 1.826-.279 1.852-.286 2.046-.484.109-.11.212-.318 1.167-2.359.234-.498.43-.906.437-.906.007 0 .203.408.437.906" fill-rule="evenodd"/></svg>