<svg width="12" height="12" xmlns="http://www.w3.org/2000/svg"><path d="M9.59.021c-.31.048-.609.166-.9.354-.109.07-.913.864-3.582 3.533C1.485 7.531 1.56 7.452 1.403 7.786c-.129.272-1.39 3.587-1.399 3.677a.503.503 0 0 0 .533.533c.104-.011 3.453-1.29 3.711-1.418a2.7 2.7 0 0 0 .29-.171c.084-.059 1.366-1.327 3.564-3.525 3.565-3.565 3.512-3.51 3.676-3.836.597-1.193-.07-2.645-1.368-2.977a2.52 2.52 0 0 0-.82-.048m.535 1.008c.321.068.604.291.752.591.161.329.161.651.001.98-.08.163-.107.194-.686.776l-.604.607-.754-.805a40.01 40.01 0 0 1-.754-.817c0-.007.259-.269.575-.583.504-.5.593-.58.721-.646.242-.125.486-.158.749-.103M8.131 3.89l.749.8-2.425 2.426C4.84 8.731 3.99 9.567 3.91 9.62c-.083.054-.491.221-1.318.54-.658.254-1.201.458-1.205.454-.016-.016.917-2.408.977-2.503.066-.106 4.972-5.036 5.002-5.026.009.003.353.366.765.805m-1.799 7.141a.508.508 0 0 0-.267.225c-.047.08-.055.116-.055.244s.008.164.055.244a.622.622 0 0 0 .122.145c.153.117.008.111 2.812.111 2.892 0 2.692.011 2.852-.149a.494.494 0 0 0 0-.702c-.161-.16.042-.149-2.86-.148-2.188.002-2.593.006-2.659.03" fill-rule="evenodd"/></svg>