<svg width="16" height="16" xmlns="http://www.w3.org/2000/svg"><path d="M11.969 1.332a2.46 2.46 0 0 0-.982.423c-.154.108-2.473 2.394-7.688 7.578-1.908 1.896-1.821 1.764-2.003 3.027-.244 1.687-.309 2.21-.286 2.307a.39.39 0 0 0 .19.275c.127.079.37.073 1.187-.033 1.223-.159 2.143-.345 2.433-.493.1-.05.946-.888 3.679-3.647a520.697 520.697 0 0 1 4.172-4.18c1.506-1.445 1.642-1.593 1.824-1.988.161-.347.207-.564.206-.974 0-.312-.01-.392-.071-.595a2.304 2.304 0 0 0-.647-1.06 3.034 3.034 0 0 0-.312-.263 3.109 3.109 0 0 0-.724-.335c-.185-.05-.79-.076-.978-.042m.684.975c.273.057.507.182.696.371.421.421.524 1.083.254 1.629-.116.233-.216.339-1.27 1.342l-.506.482-.994-.992a46.056 46.056 0 0 1-.993-1.008c0-.01.375-.373.833-.809.759-.722.853-.802 1.047-.897.312-.154.595-.189.933-.118m-2.48 3.506.987.987-3.387 3.388c-1.862 1.864-3.428 3.411-3.48 3.438-.21.109-.484.163-1.371.268-.497.058-.907.103-.911.099-.019-.019.237-1.766.284-1.938a2.51 2.51 0 0 1 .166-.413c.107-.209.21-.315 3.392-3.515 1.804-1.815 3.292-3.3 3.307-3.3.015 0 .471.444 1.013.986m-1.866 8.225a.667.667 0 0 0-.279.29.522.522 0 0 0 .339.657c.066.019 1.123.028 3.115.028 3.321 0 3.186.007 3.363-.164a.505.505 0 0 0 .14-.454.599.599 0 0 0-.305-.345c-.101-.046-.264-.049-3.2-.048-2.531 0-3.108.007-3.173.036" fill-rule="evenodd"/></svg>