<svg width="16" height="16" xmlns="http://www.w3.org/2000/svg"><path d="M3.587 1.031c-.789.069-1.274.283-1.773.782-.456.456-.665.879-.764 1.552-.04.268-.046.729-.056 4.141-.014 4.768 0 5.175.202 5.744.124.35.302.621.618.936.315.316.586.494.936.618.313.111.606.155 1.223.183.768.035 2.312.033 2.481-.003.44-.094.539-.65.162-.905l-.096-.066-1.467-.016c-.848-.009-1.53-.028-1.616-.045-.432-.081-.628-.182-.917-.472-.353-.352-.444-.585-.493-1.256-.036-.496-.036-7.952 0-8.448.049-.671.14-.904.493-1.256.352-.353.585-.444 1.256-.493.494-.035 8.006-.036 8.499 0 .203.015.45.045.55.068.337.076.698.342.922.678.262.394.283.56.304 2.349l.016 1.402.071.108a.498.498 0 0 0 .602.18.444.444 0 0 0 .256-.239c.057-.105.057-.121.051-1.44-.007-1.419-.028-1.772-.129-2.17-.2-.791-.859-1.504-1.638-1.774-.485-.167-.215-.159-5.12-.163-2.457-.003-4.515 0-4.573.005m3.317 5.271a.883.883 0 0 0-.53.517.87.87 0 0 0-.013.555c.062.241 2.301 6.987 2.373 7.149.24.544.905.711 1.325.334.075-.068.18-.19.232-.272.053-.082.419-.75.815-1.486l.72-1.337 1.2-.645c.66-.355 1.319-.712 1.464-.794.334-.19.529-.39.593-.609.087-.3-.008-.674-.219-.859-.2-.176-.15-.158-6.211-2.163-1.085-.359-1.251-.407-1.44-.416a.838.838 0 0 0-.309.026m3.769 2.113c1.771.585 3.22 1.072 3.22 1.081 0 .01-.59.334-1.313.721-1.154.618-1.33.721-1.46.851-.128.129-.236.314-.85 1.462-.387.722-.713 1.304-.723 1.292-.018-.02-1.074-3.195-1.855-5.577-.165-.504-.287-.911-.27-.905l3.251 1.075" fill-rule="evenodd"/></svg>