<svg width="16" height="16" xmlns="http://www.w3.org/2000/svg"><path d="M3.387 1.044c-.532.056-.941.21-1.326.5a2.494 2.494 0 0 0-.937 1.376C1.001 3.408 1 3.443 1 8s.001 4.592.124 5.08c.215.852.945 1.582 1.796 1.796.489.123.524.124 5.08.124 4.552 0 4.588-.001 5.08-.123.832-.207 1.59-.965 1.797-1.797.122-.492.123-.528.123-5.08 0-4.557-.001-4.592-.124-5.08a2.494 2.494 0 0 0-.937-1.376c-.399-.3-.792-.444-1.375-.503-.342-.034-8.845-.032-9.177.003m4.106 6.958v6.002l-2.006-.012c-2.239-.012-2.232-.012-2.606-.196a1.638 1.638 0 0 1-.68-.682c-.197-.399-.187-.122-.187-5.114 0-4.994-.01-4.714.187-5.115.12-.242.408-.54.643-.665.371-.197.56-.211 2.856-.216L7.493 2v6.002m4.827-5.975c.425.032.616.076.836.193.209.111.513.415.624.624.196.37.219.68.22 2.936v1.713H8.507V2h1.726c.95 0 1.889.012 2.087.027M14 10.22c0 1.738-.022 2.334-.094 2.617-.098.384-.423.78-.787.959-.374.184-.367.184-2.606.196l-2.006.012V8.507H14v1.713" fill-rule="evenodd"/></svg>