<svg width="15" height="15" xmlns="http://www.w3.org/2000/svg"><path d="M3.378 1.028c-.661.047-1.048.191-1.498.554-.3.243-.598.669-.715 1.02-.154.462-.153.423-.153 3.398s-.001 2.936.153 3.398c.207.622.814 1.23 1.437 1.437.431.144.498.148 2.529.159L7 11.003v1.995l-1.331.007-1.331.008-.111.062c-.259.146-.303.571-.082.782.155.15 0 .143 3.364.142 2.928 0 3.083-.002 3.179-.046a.5.5 0 0 0 .303-.537.407.407 0 0 0-.217-.341l-.111-.062-1.332-.008L8 12.998v-1.995l1.869-.009c1.619-.009 1.9-.016 2.102-.053.63-.114 1.108-.394 1.492-.875.313-.39.462-.804.513-1.423.018-.22.024-1.174.018-2.855-.01-2.756-.009-2.737-.159-3.186-.16-.482-.553-.954-1.037-1.247-.339-.205-.65-.288-1.235-.33-.422-.03-7.766-.028-8.185.003m8.432 1.029a1.436 1.436 0 0 1 1.134 1.145c.038.189.042.476.042 2.798 0 2.853.002 2.823-.155 3.157-.155.329-.503.644-.82.742-.327.101-.485.104-4.673.095-3.622-.009-4.044-.014-4.207-.051-.322-.072-.566-.224-.846-.526-.245-.262-.25-.281-.286-.954-.044-.813.004-4.978.061-5.273.062-.33.234-.616.504-.839.255-.211.49-.292.933-.325.146-.011 2.032-.018 4.191-.015 3.502.005 3.946.01 4.122.046" fill-rule="evenodd"/></svg>