<svg width="16" height="16" xmlns="http://www.w3.org/2000/svg"><path d="M11.36 1.069c-.139.083-1.992 1.938-2.074 2.076-.218.368.086.8.518.736.125-.018.148-.037.709-.596l.58-.577v1.295c0 1.451.005 1.499.172 1.645a.5.5 0 0 0 .764-.097l.064-.094.008-1.373.008-1.374.565.562c.608.604.661.64.889.614a.493.493 0 0 0 .427-.424c.033-.245.031-.248-1.053-1.337-.552-.555-1.048-1.032-1.103-1.06a.547.547 0 0 0-.474.004m-7.963.586c-.534.03-.784.09-1.136.271-.528.271-.985.824-1.138 1.376C1.002 3.737 1 3.827 1 7.813c0 3.981.003 4.077.122 4.508.181.653.744 1.261 1.392 1.505.445.167.27.161 4.726.161 3.856 0 4.064-.003 4.265-.05.927-.217 1.65-.967 1.817-1.884.026-.142.036-.456.037-1.082.001-.793-.004-.903-.052-1.088a1.836 1.836 0 0 0-.371-.717c-.17-.189-2.54-2.079-2.714-2.165-.437-.214-.89-.13-1.318.245-.097.085-1.459 1.321-3.027 2.747-1.785 1.624-2.889 2.647-2.955 2.738l-.104.145-.102-.051c-.182-.093-.44-.361-.539-.559-.169-.337-.164-.187-.164-4.453 0-4.224-.004-4.102.152-4.426.1-.208.373-.489.568-.585.297-.146.254-.143 2.667-.16 2.016-.014 2.248-.02 2.32-.059a.548.548 0 0 0 .279-.455.53.53 0 0 0-.366-.473c-.115-.032-3.676-.032-4.236 0m1.29 2.211a1.73 1.73 0 0 0-.955.505c-.219.22-.336.403-.423.662a1.742 1.742 0 0 0 .417 1.807c.194.198.409.335.679.434.177.065.23.071.568.071.339 0 .392-.006.568-.071A1.8 1.8 0 0 0 6.657 6.12c.056-.173.07-.266.071-.493.001-.512-.151-.889-.501-1.243a1.672 1.672 0 0 0-.747-.463 2.15 2.15 0 0 0-.793-.055m.614 1.056a.765.765 0 0 1-.019 1.381.866.866 0 0 1-.618 0A.765.765 0 0 1 4.518 5a.78.78 0 0 1 .783-.078m4.54 3.017c.13.09 2.307 1.841 2.351 1.891.025.029.073.112.107.184.059.129.061.155.059.906-.001.477-.014.845-.034.96a1.367 1.367 0 0 1-1.057 1.083c-.205.039-7.198.067-7.183.028.007-.018 4.749-4.34 5.484-4.998.125-.111.176-.121.273-.054" fill-rule="evenodd"/></svg>