<svg width="15" height="15" xmlns="http://www.w3.org/2000/svg"><path d="M6.95 2.029c-1.235.116-2.45.698-3.35 1.601a5.485 5.485 0 0 0-.388 7.308A5.513 5.513 0 0 0 7.5 13a5.514 5.514 0 0 0 4.939-3.087 5.455 5.455 0 0 0 0-4.825C11.438 3.029 9.254 1.812 6.95 2.029m.995.997c.565.062 1.01.188 1.504.426a4.403 4.403 0 0 1 2.091 2.082 4.46 4.46 0 0 1 .012 3.906c-.149.31-.258.494-.433.73l-.1.136-3.158-3.158C5.345 4.633 4.708 3.983 4.73 3.956c.065-.078.53-.364.82-.503a4.42 4.42 0 0 1 2.395-.427m2.324 8.019c-.056.067-.55.378-.777.49a4.355 4.355 0 0 1-1.829.457 4.49 4.49 0 0 1-4.626-3.965 4.453 4.453 0 0 1 .192-1.939c.131-.404.44-.994.678-1.297l.076-.096L7.14 7.853c2.56 2.559 3.152 3.164 3.129 3.192" fill-rule="evenodd"/></svg>