<svg width="16" height="16" xmlns="http://www.w3.org/2000/svg"><path d="M12.187 1a2.582 2.582 0 0 0-.947.422c-.059.044-.812.783-1.673 1.642L8 4.626l-.353-.35c-.195-.193-.392-.37-.439-.393-.279-.14-.66.062-.695.369-.028.249-.006.287.401.701l.377.382-2.268 2.272c-1.247 1.25-2.34 2.363-2.427 2.473-.766.963-1.311 2.246-1.651 3.886-.054.261-.1.56-.102.665-.003.172.005.202.077.305.18.257.355.276 1.107.121 1.634-.336 2.93-.887 3.893-1.653.11-.087 1.223-1.18 2.473-2.428l2.274-2.269.353.351c.194.192.392.369.439.393.279.139.66-.063.694-.37.028-.249.007-.287-.401-.7l-.376-.382 1.587-1.593c.943-.945 1.626-1.652 1.682-1.739.586-.909.526-2.045-.151-2.861a2.494 2.494 0 0 0-1.187-.768c-.263-.075-.864-.096-1.12-.038m.78.986c.394.083.756.367.935.734.194.396.194.827.001 1.227-.092.191-.165.269-1.666 1.773l-1.57 1.573-.98-.98-.98-.98 1.573-1.568c1.706-1.701 1.701-1.697 2.074-1.778.219-.048.393-.048.613-.001m-3.98 5.041.973.974-2.28 2.275c-1.59 1.587-2.351 2.328-2.516 2.45-.657.486-1.478.863-2.515 1.156-.323.091-.682.174-.695.161-.016-.016.237-.959.334-1.244.271-.799.637-1.511 1.054-2.052.12-.155 4.623-4.694 4.658-4.694.007 0 .452.438.987.974" fill-rule="evenodd"/></svg>