<svg width="16" height="16" xmlns="http://www.w3.org/2000/svg"><path d="M3.387 1.044c-.532.056-.941.21-1.326.5a2.492 2.492 0 0 0-.937 1.376c-.081.322-.107.621-.127 1.427-.016.631-.012.753.025.88.07.241.243.373.487.373a.482.482 0 0 0 .461-.328c.014-.047.032-.463.041-.925.017-.962.043-1.163.19-1.461.181-.367.58-.695.962-.792C3.39 2.037 3.954 2 4.621 2c.714 0 .803-.026.929-.272a.512.512 0 0 0-.078-.565c-.136-.145-.172-.15-1.051-.146-.444.002-.909.014-1.034.027m7.293.007a.556.556 0 0 0-.252.264c-.066.177-.009.438.123.557.125.113.222.128.828.128.667 0 1.231.037 1.458.094.242.062.463.194.669.4.206.206.338.427.4.669.056.22.093.805.094 1.471 0 .7.027.79.272.916.284.144.614-.007.706-.323.037-.127.041-.249.025-.88-.02-.808-.047-1.107-.127-1.427-.174-.692-.692-1.314-1.364-1.639-.436-.211-.865-.268-1.988-.267-.579.001-.783.01-.844.037M1.307 10.43a.541.541 0 0 0-.285.343c-.037.127-.041.249-.025.88.02.805.046 1.105.127 1.427.213.85.945 1.582 1.796 1.796.32.08.619.107 1.427.127.631.016.753.012.88-.025.241-.07.373-.243.373-.487a.488.488 0 0 0-.218-.404l-.111-.074-.882-.017c-1.002-.019-1.191-.044-1.508-.2a1.638 1.638 0 0 1-.68-.682c-.147-.298-.173-.499-.19-1.461-.009-.462-.027-.878-.041-.925a.475.475 0 0 0-.469-.326.678.678 0 0 0-.194.028m12.973.014a.438.438 0 0 0-.23.236c-.042.093-.049.181-.05.68-.001.674-.038 1.257-.094 1.477-.098.384-.423.78-.787.959-.317.156-.506.181-1.508.2l-.882.017-.111.074a.488.488 0 0 0-.218.404c0 .244.132.417.373.487.127.037.249.041.88.025.805-.02 1.104-.047 1.427-.126.831-.206 1.591-.966 1.797-1.797.079-.319.106-.619.125-1.4.021-.814.004-.959-.13-1.112a.584.584 0 0 0-.171-.132.608.608 0 0 0-.421.008" fill-rule="evenodd"/></svg>