<svg width="16" height="16" xmlns="http://www.w3.org/2000/svg"><path d="M4 1.507V2h8v-.987H4v.494M.987 8v4H2V4H.987v4M14 8v4h1.013V4H14v4M7.659 4.336c-.549.273-.541 1.063.013 1.335.396.193.895-.006 1.033-.412a.751.751 0 0 0-.364-.923c-.112-.056-.176-.069-.341-.069-.165 0-.229.013-.341.069M4.765 7.29c-.368.138-.574.49-.499.853a.756.756 0 0 0 1.225.426A.693.693 0 0 0 5.745 8a.692.692 0 0 0-.412-.668c-.15-.075-.424-.095-.568-.042m2.977.007a.93.93 0 0 0-.416.366c-.047.089-.059.155-.059.337 0 .256.034.345.196.516a.74.74 0 0 0 1.037.035c.185-.171.233-.283.233-.551 0-.271-.051-.389-.24-.555a.756.756 0 0 0-.751-.148m3.058-.02a.777.777 0 0 0-.483.403.79.79 0 0 0 .009.657.734.734 0 0 0 .725.403.726.726 0 0 0 .693-.74.719.719 0 0 0-.704-.737.968.968 0 0 0-.24.014m-3.141 3.059c-.549.273-.541 1.063.013 1.335.396.193.895-.006 1.033-.412a.751.751 0 0 0-.364-.923c-.112-.056-.176-.069-.341-.069-.165 0-.229.013-.341.069M4 14.507v.506h8V14H4v.507" fill-rule="evenodd"/></svg>