<svg width="16" height="16" xmlns="http://www.w3.org/2000/svg"><path d="M11.662 1.061a1.06 1.06 0 0 0-.602.598c-.05.125-.058.21-.068.748l-.011.606-.591.001c-.662.001-.768.021-.983.186a.97.97 0 0 0-.4.8c0 .422.249.781.652.94.124.049.211.057.731.068l.591.011.011.591c.011.52.019.607.068.731a.997.997 0 0 0 .94.652.997.997 0 0 0 .94-.652c.049-.124.057-.211.068-.731l.011-.591.591-.011c.52-.011.607-.019.731-.068a.997.997 0 0 0 .652-.94.97.97 0 0 0-.4-.8c-.216-.165-.321-.185-.986-.186l-.594-.001v-.5c0-.568-.024-.759-.118-.953a1.135 1.135 0 0 0-.466-.46 1.185 1.185 0 0 0-.767-.039m-8.109.953c-.401.052-.682.131-.953.267-.666.334-1.202.943-1.423 1.613-.181.551-.197.981-.183 5.027.012 3.555.013 3.566.153 4.066.246.873 1.051 1.657 1.929 1.879.526.134.533.134 4.711.134 3.113 0 3.952-.007 4.13-.035A2.9 2.9 0 0 0 14.222 13c.126-.388.138-.521.138-1.533 0-.813-.007-.975-.047-1.147a2.272 2.272 0 0 0-.582-1.067c-.189-.192-2.36-1.932-2.621-2.101a1.392 1.392 0 0 0-.857-.256c-.446-.002-.762.117-1.12.423-.075.064-1.437 1.299-3.027 2.745l-2.891 2.628-.073-.113a.75.75 0 0 1-.101-.3c-.036-.249-.036-7.318 0-7.567.032-.226.095-.351.246-.49.134-.123.204-.165.339-.204.055-.015.811-.033 1.841-.042 1.746-.016 1.746-.016 1.9-.078.086-.035.216-.12.299-.195.545-.499.397-1.346-.293-1.667-.1-.046-.211-.05-1.826-.053-1.302-.004-1.787.004-1.994.031m1.634 2.52c-.425.084-.839.4-1.027.781A1.409 1.409 0 0 0 4.001 6c0 .425.138.759.439 1.056.595.59 1.519.59 2.11 0 .301-.301.443-.639.443-1.056 0-.417-.142-.755-.443-1.056a1.503 1.503 0 0 0-.731-.408 2.06 2.06 0 0 0-.632-.002m6.109 5.298c.755.604 1.03.839 1.05.897.033.096.035.895.002 1.341-.026.357-.064.465-.232.65-.167.185-.327.243-.749.268-.457.028-5.501.033-5.498.005.002-.027 4.352-3.977 4.381-3.978.013-.001.484.367 1.046.817" fill-rule="evenodd"/></svg>