<svg width="16" height="16" xmlns="http://www.w3.org/2000/svg"><path d="M1.662 7.061a1.01 1.01 0 0 0-.648 1.091c.131.805 1.113 1.125 1.688.55A.995.995 0 0 0 2.429 7.1a1.185 1.185 0 0 0-.767-.039m2.975.014a.908.908 0 0 0-.408.294c-.163.199-.212.344-.213.631 0 .216.01.275.068.4.194.416.646.662 1.075.585.331-.06.614-.279.757-.585.058-.125.068-.184.068-.4 0-.216-.01-.275-.068-.4a1.01 1.01 0 0 0-.47-.486c-.155-.076-.209-.088-.419-.095-.203-.006-.264.003-.39.056m3.025-.014a1.01 1.01 0 0 0-.648 1.091c.131.805 1.113 1.125 1.688.55A.995.995 0 0 0 8.429 7.1a1.185 1.185 0 0 0-.767-.039m2.975.014a.908.908 0 0 0-.408.294c-.163.199-.212.344-.213.631 0 .216.01.275.068.4.194.416.646.662 1.075.585.331-.06.614-.279.757-.585.058-.125.068-.184.068-.4 0-.216-.01-.275-.068-.4a1.01 1.01 0 0 0-.47-.486c-.155-.076-.209-.088-.419-.095-.203-.006-.264.003-.39.056m3.025-.014a1.01 1.01 0 0 0-.648 1.091c.131.805 1.113 1.125 1.688.55a.995.995 0 0 0-.273-1.602 1.185 1.185 0 0 0-.767-.039" fill-rule="evenodd"/></svg>