<svg width="16" height="16" xmlns="http://www.w3.org/2000/svg"><path d="M3.673 1.045a2.929 2.929 0 0 0-2.349 1.61c-.245.493-.314.937-.32 2.078-.004.766-.001.806.054.942.166.406.521.651.942.651a.997.997 0 0 0 .94-.651c.051-.129.057-.219.075-1.022.014-.674.028-.91.06-1.007a.984.984 0 0 1 .571-.575c.117-.041.48-.044 4.354-.044s4.237.003 4.354.044c.248.086.489.327.575.575.04.116.045.488.052 4.194.005 2.644-.002 4.145-.02 4.291-.032.27-.094.405-.259.571-.251.25-.385.277-1.515.305-.797.02-.801.021-.948.092a.995.995 0 0 0-.274 1.603c.282.282.48.323 1.435.3.759-.019 1.066-.046 1.38-.123a2.898 2.898 0 0 0 2.099-2.099c.119-.485.121-.553.121-4.807 0-3.711-.004-4.066-.047-4.365-.103-.717-.361-1.248-.837-1.724-.499-.499-1.08-.766-1.834-.841-.359-.036-8.257-.035-8.609.002m3.094 2.984a1.037 1.037 0 0 0-.671.558c-.074.154-.083.199-.083.413 0 .207.011.262.076.403.095.206.301.411.511.509l.16.075.9.013.901.013-.558.557-.557.557-.236-.05c-.219-.047-.38-.05-2.21-.05-1.81 0-1.992.004-2.2.048a2.323 2.323 0 0 0-1.452 1.042c-.15.24-.236.474-.3.818-.042.225-.047.441-.047 2.065 0 1.972.005 2.061.157 2.499.196.562.781 1.147 1.343 1.343.438.152.527.157 2.499.157s2.061-.005 2.499-.157c.561-.196 1.147-.782 1.342-1.342.14-.402.151-.549.165-2.14.013-1.563-.01-2.241-.089-2.595l-.046-.209.558-.558.558-.559.013.901.013.9.075.16c.098.21.303.416.509.511.141.065.196.076.403.076.207 0 .262-.011.403-.076a1.13 1.13 0 0 0 .509-.511l.075-.16V4.76l-.076-.163a1.13 1.13 0 0 0-.511-.509l-.16-.075-2.187-.004c-1.219-.002-2.231.006-2.286.02m.132 5.072.074.074v3.65l-.071.072c-.064.064-.1.074-.334.093-.34.027-2.796.027-3.136 0-.234-.019-.27-.029-.334-.093l-.071-.072V9.178l.063-.068a.302.302 0 0 1 .12-.079c.031-.006.857-.01 1.836-.008l1.779.004.074.074" fill-rule="evenodd"/></svg>