<svg width="16" height="16" xmlns="http://www.w3.org/2000/svg"><path d="M1.347 1.068a.601.601 0 0 0-.321.356c-.06.2-.059 4.954.001 5.155a.649.649 0 0 0 .356.374.76.76 0 0 0 .538-.015c.173-.084 2.953-2.576 3.02-2.706a.572.572 0 0 0 .004-.459c-.035-.073-.442-.453-1.469-1.37-.782-.698-1.472-1.297-1.533-1.33-.148-.08-.44-.082-.596-.005m5.29 2.008a.91.91 0 0 0-.408.293c-.163.199-.212.344-.213.631 0 .216.01.275.068.4.142.305.425.524.754.584.221.041 6.103.041 6.324 0 .329-.06.612-.279.754-.584.058-.125.068-.184.068-.4 0-.216-.01-.275-.068-.4a1.01 1.01 0 0 0-.47-.486l-.178-.087-3.241-.007-3.24-.006-.15.062M2.689 8.027c-.749.128-1.364.651-1.585 1.348-.109.343-.122.608-.111 2.32.012 1.8.006 1.74.222 2.185.195.402.503.71.905.905.484.235-.068.215 5.88.215 5.948 0 5.396.02 5.88-.215a1.92 1.92 0 0 0 .905-.905c.216-.445.21-.385.222-2.185.011-1.712-.002-1.977-.111-2.32-.195-.615-.698-1.098-1.354-1.301l-.195-.06L8.08 8.01c-2.897-.002-5.323.005-5.391.017m10.298 3.48v1.506H3.013V10h9.974v1.507" fill-rule="evenodd"/></svg>