<svg width="16" height="16" xmlns="http://www.w3.org/2000/svg"><path d="M5.734 2.043a.995.995 0 0 0-.718.797c-.079.427.166.878.584 1.077l.147.07 1.086.008c.598.004 1.087.016 1.088.026 0 .011-.639 1.809-1.42 3.998l-1.42 3.978-1.161.008-1.16.008-.173.084c-.221.106-.386.27-.491.49-.074.154-.083.199-.083.413 0 .213.01.259.083.413.105.221.27.386.491.491l.173.083h6.48l.163-.076a1.13 1.13 0 0 0 .509-.511c.064-.138.075-.193.075-.4 0-.207-.011-.262-.075-.4a1.13 1.13 0 0 0-.509-.511l-.163-.076L8.225 12l-1.015-.013 1.426-3.992 1.426-3.992 1.096-.008 1.095-.008.147-.07c.417-.198.662-.648.585-1.074a.991.991 0 0 0-.731-.802c-.232-.06-6.294-.059-6.52.002" fill-rule="evenodd"/></svg>