<svg width="16" height="16" xmlns="http://www.w3.org/2000/svg"><path d="M3.56 3.031c-.651.064-1.153.267-1.61.651-.387.326-.714.834-.83 1.289-.115.452-.12.585-.12 3.042 0 2.591.006 2.696.171 3.18.247.72.878 1.354 1.604 1.611.506.179.96.208 3.225.208s2.719-.029 3.225-.208c.725-.257 1.374-.912 1.609-1.624.088-.265.153-.703.153-1.03 0-.159.01-.257.027-.257.015 0 .444.279.954.62 1.031.691 1.274.827 1.558.875.678.114 1.236-.242 1.425-.91.046-.16.049-.326.049-2.478s-.003-2.318-.049-2.478c-.109-.384-.306-.637-.617-.791a1.309 1.309 0 0 0-1.176-.001c-.109.052-.63.383-1.157.735-.528.353-.972.642-.987.642-.017 0-.027-.098-.027-.257 0-.327-.065-.765-.153-1.03-.234-.711-.87-1.352-1.605-1.621-.468-.171-.41-.167-3.109-.173-1.349-.003-2.501 0-2.56.005m5 2.051c.171.08.28.181.351.325l.062.126.008 2.347c.005 1.482-.002 2.41-.019 2.519-.047.303-.246.498-.575.567-.231.049-4.543.049-4.774 0-.323-.067-.526-.264-.573-.553-.035-.214-.035-4.612 0-4.826a.657.657 0 0 1 .565-.547c.078-.012 1.198-.019 2.488-.017 2.321.004 2.348.004 2.467.059m4.427 2.92c0 .44-.011.772-.024.767A29.29 29.29 0 0 1 11.815 8c0-.016 1.124-.769 1.152-.772.011-.001.02.348.02.774" fill-rule="evenodd"/></svg>