<svg width="16" height="16" xmlns="http://www.w3.org/2000/svg"><path d="M7.662 1.061c-.26.093-.49.321-.604.598L7 1.8l-.008 2.607-.007 2.606-2.593.001c-2.891.001-2.731-.009-2.985.186a.97.97 0 0 0-.4.8c0 .421.246.776.652.942C1.8 9 1.8 9 4.392 9.008l2.593.007.007 2.593C7 14.2 7 14.2 7.058 14.341c.166.406.521.652.942.652.421 0 .776-.246.942-.652C9 14.2 9 14.2 9.008 11.608l.007-2.593 2.593-.007C14.2 9 14.2 9 14.341 8.942c.406-.166.652-.521.652-.942a.97.97 0 0 0-.4-.8c-.254-.195-.094-.185-2.986-.186l-2.594-.001v-2.5c0-1.495-.01-2.563-.026-2.658a1.039 1.039 0 0 0-.558-.755 1.185 1.185 0 0 0-.767-.039" fill-rule="evenodd"/></svg>