<svg width="16" height="16" xmlns="http://www.w3.org/2000/svg"><path d="M6.12 1.05a1.46 1.46 0 0 0-.825.554c-.308.409-.405.654-2.315 5.836-2.02 5.484-1.933 5.244-1.968 5.425-.079.405.21.905.609 1.056.464.176.978.011 1.219-.39.044-.074.361-.898.705-1.832L4.17 10h4.439l.219.66c.25.755.329.923.511 1.087.187.168.38.237.661.237s.461-.065.659-.238c.24-.21.384-.596.33-.881-.014-.073-.638-1.962-1.387-4.199-1.207-3.604-1.383-4.109-1.548-4.447a6.183 6.183 0 0 0-.29-.533 1.543 1.543 0 0 0-.876-.633 2.13 2.13 0 0 0-.768-.003m1.102 4.812L7.936 8H4.907l.062-.167c.035-.091.39-1.058.791-2.147.4-1.089.732-1.976.737-1.971.005.005.331.971.725 2.147m5.579 2.687a.43.43 0 0 0-.244.23.523.523 0 0 0 .079.564c.105.119.184.136.68.15l.475.014-2.149 2.129-2.149 2.129v-.436c-.001-.561-.045-.675-.3-.781a.488.488 0 0 0-.386 0 .428.428 0 0 0-.25.231c-.047.092-.05.171-.05 1.2.001 1.011.005 1.11.05 1.208.059.128.117.183.257.242.091.038.259.046 1.174.058 1.124.015 1.186.01 1.331-.104a.509.509 0 0 0 .133-.576c-.104-.249-.224-.3-.701-.3-.204 0-.411-.008-.46-.018l-.089-.018 2.145-2.126 2.146-2.126.014.47c.01.368.023.488.057.551a.5.5 0 0 0 .649.203.406.406 0 0 0 .239-.25c.061-.146.061-2.24 0-2.386a.406.406 0 0 0-.239-.25c-.098-.045-.195-.049-1.213-.049-.926.001-1.122.007-1.199.041" fill-rule="evenodd"/></svg>