<svg width="16" height="16" xmlns="http://www.w3.org/2000/svg"><path d="M7.734 2.041a1.002 1.002 0 0 0-.718.798c-.018.096-.029.552-.029 1.165v1.008l-2.14.007-2.14.008-.143.075a1.035 1.035 0 0 0-.464.468c-.078.162-.086.198-.085.43.001.215.011.276.069.4.147.314.434.53.783.587.094.015.972.026 2.14.026h1.98v1.998l-1.14.008-1.14.008-.167.09c-.203.11-.361.276-.456.478-.061.131-.071.186-.071.405 0 .219.01.274.071.405.141.3.426.519.754.579.096.018.552.029 1.154.029h.995v.995c0 .602.011 1.058.029 1.154.06.329.279.612.584.754.125.058.184.068.4.068.216 0 .275-.01.4-.068.314-.147.53-.434.587-.783.014-.088.026-.601.026-1.14v-.98h.995c.602 0 1.058-.011 1.154-.029.329-.06.612-.279.754-.584.058-.125.068-.184.068-.4 0-.216-.01-.275-.068-.4a1.01 1.01 0 0 0-.47-.486l-.178-.087-1.127-.008-1.128-.007V7.013h1.98c1.168 0 2.046-.011 2.14-.026a1.08 1.08 0 0 0 .613-.328c.176-.201.239-.377.239-.672 0-.216-.009-.258-.085-.417a1.035 1.035 0 0 0-.464-.468l-.143-.075-2.138-.008-2.138-.007-.009-1.099c-.009-1.068-.011-1.104-.07-1.25a1.015 1.015 0 0 0-.591-.597 1.164 1.164 0 0 0-.613-.025"/></svg>