<svg width="16" height="16" xmlns="http://www.w3.org/2000/svg"><path d="M7.734.043a.994.994 0 0 0-.718.796c-.042.224-.036.846.01 1.06a.994.994 0 0 0 .569.71c.131.061.186.071.405.071.219 0 .274-.01.405-.071a.994.994 0 0 0 .569-.71c.046-.214.052-.836.01-1.06a.989.989 0 0 0-.73-.798.903.903 0 0 0-.52.002m-4.96 2.026a1.019 1.019 0 0 0-.661.566c-.058.127-.07.191-.071.392-.002.361.076.509.489.922.408.407.562.49.909.489.315 0 .493-.073.709-.289.216-.216.289-.394.289-.709.001-.342-.082-.5-.47-.889-.328-.33-.48-.434-.711-.488a.845.845 0 0 0-.483.006m9.956-.006c-.219.056-.377.166-.698.488-.393.394-.472.546-.471.902 0 .216.009.258.086.418.108.221.318.421.533.506a.915.915 0 0 0 .38.061c.347.001.501-.082.909-.489.412-.413.491-.561.49-.922 0-.216-.009-.258-.086-.418a1.015 1.015 0 0 0-1.143-.546m-5.263.767a5.21 5.21 0 0 0-4.508 3.903 5.212 5.212 0 0 0 2.432 5.765l.204.12.011.697c.011.667.015.709.084.937a2.432 2.432 0 0 0 1.658 1.658c.216.066.278.073.652.073s.436-.007.652-.073a2.432 2.432 0 0 0 1.658-1.658c.069-.228.073-.27.084-.937l.011-.697.204-.12a5.64 5.64 0 0 0 1.423-1.215A5.198 5.198 0 0 0 7.467 2.83m1.169 2.036a3.236 3.236 0 0 1 2.227 1.713c.234.464.318.842.318 1.421 0 .468-.027.65-.155 1.03-.552 1.646-2.38 2.558-4.023 2.008-1.094-.366-1.877-1.245-2.141-2.402-.061-.269-.061-.998.001-1.272a3.196 3.196 0 0 1 .881-1.62c.538-.537 1.122-.816 1.949-.929.159-.022.751.01.943.051M.637 7.075a.914.914 0 0 0-.408.294C.066 7.568.017 7.713.016 8c0 .216.01.275.068.4.142.305.425.524.754.584.226.042.847.036 1.061-.01a.994.994 0 0 0 .71-.569c.061-.131.071-.186.071-.405 0-.219-.01-.274-.071-.405a1.053 1.053 0 0 0-.456-.478l-.166-.09-.6-.007c-.577-.007-.606-.005-.75.055m13.359-.025c-.275.1-.486.29-.606.547-.06.129-.07.185-.07.403 0 .219.01.274.071.405a.994.994 0 0 0 .71.569c.214.046.835.052 1.061.01.329-.06.612-.279.754-.584.058-.125.068-.184.068-.4 0-.216-.01-.275-.068-.4a1.01 1.01 0 0 0-.47-.486l-.178-.087-.587-.007c-.436-.004-.613.003-.685.03M8.4 13.444c0 .212-.009.26-.066.357A.391.391 0 0 1 8 14a.391.391 0 0 1-.334-.199c-.057-.097-.066-.145-.066-.357V13.2h.8v.244" fill-rule="evenodd"/></svg>