<svg width="16" height="16" xmlns="http://www.w3.org/2000/svg"><path d="M1.347 1.055a.678.678 0 0 0-.284.87c.085.173 2.577 2.951 2.709 3.018.135.07.321.07.456 0 .13-.067 2.624-2.844 2.708-3.016a.699.699 0 0 0-.095-.718c-.179-.21.031-.196-2.845-.196-2.273.001-2.579.005-2.649.042m8.207-.001c-.691.15-1.253.682-1.478 1.4l-.063.199v10.694l.063.199c.207.658.685 1.155 1.299 1.35.343.109.608.122 2.32.111 1.8-.012 1.74-.006 2.185-.222a1.92 1.92 0 0 0 .905-.905c.235-.484.215.068.215-5.88 0-5.948.02-5.396-.215-5.88a1.985 1.985 0 0 0-1.303-1.054c-.2-.05-.299-.053-1.986-.051-1.386.002-1.812.01-1.942.039m3.433 6.959v5H10v-10h2.987v5m-9.253-1.97a.994.994 0 0 0-.718.796c-.041.219-.041 6.102 0 6.323.06.329.279.612.584.754.125.058.184.068.4.068.216 0 .275-.01.4-.068.305-.142.524-.425.584-.754.041-.221.041-6.104 0-6.323a.989.989 0 0 0-.73-.798.903.903 0 0 0-.52.002" fill-rule="evenodd"/></svg>