<svg width="16" height="16" xmlns="http://www.w3.org/2000/svg"><path d="M3.82 2.028c-.17.034-.419.177-.542.311a1.118 1.118 0 0 0-.266.559c-.035.213-.034 9.995.001 10.209.058.356.272.636.609.795l.178.085h3.08c3.388 0 3.213.007 3.725-.165 1.22-.409 2.099-1.437 2.344-2.742a3.878 3.878 0 0 0-.013-1.258 3.786 3.786 0 0 0-.353-.996 3.256 3.256 0 0 0-.67-.887l-.263-.26.078-.1c.431-.549.712-1.507.661-2.258a3.526 3.526 0 0 0-.969-2.23 3.431 3.431 0 0 0-1.782-1.015c-.264-.06-.267-.06-2.985-.066-1.496-.003-2.771.005-2.833.018m5.332 2.001c.492.103.935.549 1.072 1.082.054.207.055.59.002.797-.143.56-.613 1.003-1.146 1.078-.108.015-1.001.026-2.127.027h-1.94V4h1.999c1.352 0 2.044.01 2.14.029m.906 5.11c.924.458 1.107 1.709.358 2.448-.104.103-.25.22-.325.259-.295.157-.238.154-2.763.154H5.013V9.012l2.409.007 2.409.008.227.112" fill-rule="evenodd"/></svg>