<svg width="16" height="16" xmlns="http://www.w3.org/2000/svg"><path d="M3.689 1.05c-.225.073-.279.124-1.691 1.577-.897.923-.924.958-.983 1.283-.117.647.498 1.257 1.148 1.136.239-.045.384-.126.616-.348l.208-.198v7.002l-.198-.191c-.278-.27-.48-.362-.794-.362-.218 0-.245.006-.439.105a.958.958 0 0 0-.49.537c-.11.289-.067.649.108.902.101.146 2.086 2.19 2.244 2.311a.981.981 0 0 0 1.195-.023c.17-.141 2.148-2.188 2.224-2.302.164-.244.203-.604.096-.888a.953.953 0 0 0-.489-.537c-.194-.099-.221-.105-.439-.105-.314 0-.516.092-.794.362l-.198.191V4.5l.208.198c.114.109.263.225.331.258.852.413 1.749-.471 1.346-1.328-.072-.154-.393-.497-1.831-1.956-.59-.599-.653-.639-1.026-.651a1.207 1.207 0 0 0-.352.029m4.948 2.026a.908.908 0 0 0-.408.293c-.163.199-.212.344-.213.631 0 .216.01.275.068.4.145.311.429.527.769.586.122.021.941.027 2.76.022C14.199 5 14.2 5 14.341 4.942c.406-.166.652-.521.652-.942a.97.97 0 0 0-.4-.8c-.255-.195-.08-.185-3.1-.185H8.787l-.15.061m0 4a.908.908 0 0 0-.408.293c-.163.199-.212.344-.213.631 0 .216.01.275.068.4.145.311.429.527.769.586.122.021.941.027 2.76.022C14.199 9 14.2 9 14.341 8.942c.406-.166.652-.521.652-.942a.97.97 0 0 0-.4-.8c-.255-.195-.08-.185-3.1-.185H8.787l-.15.061m0 4a.908.908 0 0 0-.408.293c-.163.199-.212.344-.213.631 0 .216.01.275.068.4.145.311.429.527.769.586.122.021.941.027 2.76.022C14.199 13 14.2 13 14.341 12.942c.406-.166.652-.521.652-.942a.97.97 0 0 0-.4-.8c-.255-.195-.08-.185-3.1-.185H8.787l-.15.061" fill-rule="evenodd"/></svg>