<svg width="16" height="16" xmlns="http://www.w3.org/2000/svg"><path d="M3.606 2.029c-.297.038-.599.13-.899.275A2.979 2.979 0 0 0 1.014 4.72c-.035.34-.035 6.22 0 6.56a3.029 3.029 0 0 0 2.359 2.657c.203.047.43.05 4.627.05s4.424-.003 4.627-.05a3.029 3.029 0 0 0 2.359-2.657c.035-.34.035-6.22 0-6.56a3.007 3.007 0 0 0-2.613-2.692c-.244-.032-8.523-.031-8.767.001m8.648 2.012a.998.998 0 0 1 .677.613c.056.149.056.157.049 3.382l-.007 3.232-.087.178a1.016 1.016 0 0 1-.486.471l-.147.07H3.747l-.147-.07a1.016 1.016 0 0 1-.486-.471l-.087-.178-.007-3.232c-.007-3.225-.007-3.233.049-3.382.11-.295.37-.534.664-.612.227-.06 8.288-.061 8.521-.001M5.662 7.063c-.621.215-.86 1.011-.459 1.533.113.148.279.274.456.346C5.8 9 5.802 9 8 9c2.198 0 2.2 0 2.341-.058.406-.166.652-.521.652-.942a.97.97 0 0 0-.4-.8c-.252-.193-.14-.185-2.593-.185-2.042 0-2.21.003-2.338.048" fill-rule="evenodd"/></svg>