<svg width="16" height="16" xmlns="http://www.w3.org/2000/svg"><path d="M1.747 3.051a1.088 1.088 0 0 0-.636.514c-.311.613.084 1.305.809 1.42.241.039 11.919.039 12.16 0 .725-.115 1.12-.807.809-1.42a1.084 1.084 0 0 0-.483-.451l-.178-.087-6.187-.005c-4.946-.004-6.209.001-6.294.029m2 4a1.088 1.088 0 0 0-.636.514c-.311.613.084 1.305.809 1.42.239.038 7.921.038 8.16 0 .725-.115 1.12-.807.809-1.42a1.084 1.084 0 0 0-.483-.451l-.178-.087-4.187-.005c-3.331-.004-4.209.002-4.294.029m-1.92 4a1.108 1.108 0 0 0-.465.278.918.918 0 0 0-.26.873c.102.414.44.712.889.786.222.036 11.861.034 12.089-.003.725-.115 1.12-.807.809-1.42a1.084 1.084 0 0 0-.483-.451l-.178-.087-6.147-.005c-4.914-.004-6.169.001-6.254.029" fill-rule="evenodd"/></svg>