<svg width="16" height="16" xmlns="http://www.w3.org/2000/svg"><path d="M2.507 1.068A1.989 1.989 0 0 0 1.215 2.12c-.216.445-.21.385-.222 2.185-.011 1.712.002 1.977.111 2.32.195.614.692 1.092 1.35 1.299l.199.063h10.694l.199-.063c.658-.207 1.155-.685 1.35-1.299.109-.343.122-.608.111-2.32-.012-1.8-.006-1.74-.222-2.185a1.983 1.983 0 0 0-1.303-1.054c-.207-.052-.309-.053-5.493-.051-5.128.001-5.288.003-5.482.053m10.48 3.439V6H3.013V3.013h9.974v1.494M1.347 9.068a.601.601 0 0 0-.321.356c-.06.2-.059 4.954.001 5.155a.649.649 0 0 0 .356.374.76.76 0 0 0 .538-.015c.173-.084 2.953-2.576 3.02-2.706a.572.572 0 0 0 .004-.459c-.035-.073-.442-.453-1.469-1.37-.782-.698-1.472-1.297-1.533-1.33-.148-.08-.44-.082-.596-.005m5.29 2.008a.91.91 0 0 0-.408.293c-.163.199-.212.344-.213.631 0 .216.01.275.068.4.142.305.425.524.754.584.221.041 6.103.041 6.324 0 .329-.06.612-.279.754-.584.058-.125.068-.184.068-.4 0-.216-.01-.275-.068-.4a1.01 1.01 0 0 0-.47-.486l-.178-.087-3.241-.007-3.24-.006-.15.062" fill-rule="evenodd"/></svg>