<svg width="16" height="16" xmlns="http://www.w3.org/2000/svg"><path d="M5.734 2.043c-.08.021-.2.074-.266.117-.067.043-1.059 1.017-2.205 2.166C1.032 6.56 1.075 6.511 1.015 6.843c-.077.427.17.879.585 1.073.125.058.184.068.4.068.44 0 .384.042 1.78-1.351l1.207-1.205v.933c.002 2.687.114 3.819.47 4.746.44 1.143 1.458 2.159 2.563 2.556.805.289 1.541.345 4.367.332l1.866-.008.147-.07c.418-.199.663-.65.584-1.077a1 1 0 0 0-.445-.676C14.284 12 14.285 12 12.214 12c-2.677-.001-3.178-.041-3.694-.299a2.71 2.71 0 0 1-.962-.865c-.447-.695-.544-1.41-.544-4.009l-.001-1.399L8.22 6.633C9.616 8.026 9.56 7.984 10 7.984c.216 0 .275-.01.4-.068.405-.189.664-.654.588-1.057-.068-.355.026-.25-2.239-2.52-1.153-1.156-2.15-2.136-2.216-2.179a1.168 1.168 0 0 0-.545-.158c-.06.001-.174.019-.254.041" fill-rule="evenodd"/></svg>