<svg width="16" height="16" xmlns="http://www.w3.org/2000/svg"><path d="M5.662 1.063c-.621.215-.86 1.011-.459 1.533.113.148.279.274.456.346C5.8 3 5.802 3 8 3c2.198 0 2.2 0 2.341-.058.406-.166.652-.521.652-.942a.97.97 0 0 0-.4-.8c-.252-.193-.14-.185-2.593-.185-2.042 0-2.21.003-2.338.048m-3.928 2.98a.995.995 0 0 0-.718.797c-.079.427.167.88.584 1.076.142.067.166.069.766.079l.619.009.009 3.178c.011 3.446.004 3.285.156 3.751a3.03 3.03 0 0 0 1.957 1.928C5.554 15 5.554 15 8 15c2.446 0 2.446 0 2.893-.139a3.03 3.03 0 0 0 1.957-1.928c.152-.465.145-.306.156-3.751l.01-3.178.618-.009c.6-.01.624-.012.766-.079.417-.196.663-.649.584-1.076a1 1 0 0 0-.445-.676c-.273-.175.18-.164-6.551-.162-5.285.001-6.128.007-6.254.041M10.986 9.1c-.001 2.905-.004 3.109-.049 3.238-.089.258-.318.49-.596.604C10.2 13 10.198 13 8 13c-2.198 0-2.2 0-2.341-.058a1.062 1.062 0 0 1-.596-.604c-.045-.129-.048-.333-.049-3.238L5.013 6h5.974l-.001 3.1" fill-rule="evenodd"/></svg>