<svg width="16" height="16" xmlns="http://www.w3.org/2000/svg"><path d="M7.662 1.061a1.056 1.056 0 0 0-.601.598c-.046.116-.058.22-.068.588-.009.319-.022.446-.045.446-.07 0-.548.263-.738.406a3.012 3.012 0 0 0-1.062 1.484 2.767 2.767 0 0 0-.142.95c.004.715.226 1.302.736 1.947l.064.08-.712 1.208c-.392.664-.725 1.22-.74 1.236-.019.019-.142-.086-.398-.339-.294-.292-.404-.383-.539-.446a.993.993 0 0 0-1.41.982c.024.303.128.47.565.905.207.205.462.44.568.521.105.08.192.155.192.166.001.011-.277.527-.618 1.147-.341.62-.64 1.187-.666 1.26a.982.982 0 0 0 .005.604.992.992 0 0 0 1.648.398c.097-.097.266-.381.75-1.264.344-.626.635-1.138.647-1.138.011 0 .18.055.375.122a7.673 7.673 0 0 0 5.054 0c.195-.067.364-.122.376-.122.012 0 .303.512.646 1.138.678 1.236.739 1.324 1.025 1.464.179.087.468.115.677.065.184-.044.433-.21.548-.366.185-.251.249-.626.153-.901-.026-.073-.325-.64-.666-1.26a38.848 38.848 0 0 1-.618-1.147c0-.011.087-.086.192-.166a8.37 8.37 0 0 0 .568-.521c.437-.435.541-.602.565-.905a.993.993 0 0 0-1.41-.982c-.135.063-.245.154-.539.446-.256.253-.379.358-.398.339a62.356 62.356 0 0 1-.74-1.236l-.712-1.208.064-.08c.51-.645.732-1.232.736-1.947a2.767 2.767 0 0 0-.142-.95 3.007 3.007 0 0 0-1.073-1.492c-.194-.146-.658-.398-.734-.398-.023 0-.032-.092-.032-.34 0-.58-.069-.812-.311-1.055-.195-.195-.369-.268-.661-.278-.183-.006-.274.004-.379.041m.743 3.532c.201.092.368.25.478.454.086.159.09.179.09.446 0 .256-.007.294-.078.439a1.017 1.017 0 0 1-.49.476c-.157.074-.206.085-.405.085-.199 0-.248-.011-.405-.085a1.017 1.017 0 0 1-.49-.476c-.072-.145-.078-.183-.078-.439 0-.254.007-.293.074-.421.138-.262.345-.441.613-.528.179-.058.508-.035.691.049m.747 5.137c.4.681.731 1.252.736 1.269.01.041-.371.158-.785.242a5.648 5.648 0 0 1-2.206 0c-.414-.084-.795-.201-.785-.242.005-.017.336-.588.736-1.269l.728-1.237h.848l.728 1.237" fill-rule="evenodd"/></svg>