<svg width="16" height="16" xmlns="http://www.w3.org/2000/svg"><path d="M2.767 2.027a1.042 1.042 0 0 0-.671.56l-.083.173v10.48l.083.173c.105.221.27.386.491.491.154.073.2.083.413.083.207 0 .262-.011.403-.076a1.13 1.13 0 0 0 .509-.511l.075-.16V2.76l-.076-.163a1.11 1.11 0 0 0-.505-.504 1.156 1.156 0 0 0-.639-.066m2.882 3.037a1.064 1.064 0 0 0-.598.616 1.12 1.12 0 0 0 .01.661c.108.277.356.519.629.612.127.043.391.047 3.697.054 2.276.005 3.622-.002 3.732-.019.245-.037.48-.161.627-.329.176-.201.239-.377.239-.672 0-.216-.009-.258-.085-.417a1.035 1.035 0 0 0-.464-.468l-.143-.075-3.76-.006c-3.584-.005-3.765-.003-3.884.043m.013 3.998a.999.999 0 0 0-.459 1.534c.113.148.279.274.456.346.138.057.169.058 1.728.066 1.092.006 1.64-.001 1.76-.022.34-.059.624-.275.769-.586.058-.125.068-.184.068-.4 0-.216-.01-.275-.068-.4a1.01 1.01 0 0 0-.47-.486l-.178-.087-1.734-.006c-1.609-.006-1.744-.003-1.872.041"/></svg>