<svg width="16" height="16" xmlns="http://www.w3.org/2000/svg"><path d="M1.662 3.063c-.622.215-.86 1.011-.459 1.533.113.148.279.274.456.346L1.8 5l5.587.008c4.001.005 5.635-.001 5.76-.022.34-.058.624-.275.769-.586.058-.125.068-.184.068-.4 0-.216-.01-.275-.068-.4a1.01 1.01 0 0 0-.47-.486l-.178-.087-5.734-.006c-5.447-.006-5.741-.004-5.872.042m0 4c-.622.215-.86 1.011-.459 1.533.113.148.279.274.456.346L1.8 9l4.587.008c3.274.005 4.636-.001 4.76-.022.34-.058.624-.275.769-.586.058-.125.068-.184.068-.4 0-.216-.01-.275-.068-.4a1.01 1.01 0 0 0-.47-.486l-.178-.087-4.734-.006c-4.487-.006-4.741-.004-4.872.042m0 4c-.622.215-.86 1.011-.459 1.533.113.148.279.274.456.346L1.8 13l3.587.008c2.546.005 3.637-.001 3.76-.022.34-.058.624-.275.769-.586.058-.125.068-.184.068-.4 0-.216-.01-.275-.068-.4a1.01 1.01 0 0 0-.47-.486l-.178-.087-3.734-.006c-3.528-.006-3.742-.004-3.872.042" fill-rule="evenodd"/></svg>