<svg width="16" height="16" xmlns="http://www.w3.org/2000/svg"><path d="M7.253.042C5.88.189 4.667.618 3.587 1.338c-.499.332-.744.535-1.243 1.034C1.416 3.299.819 4.259.413 5.48a7.974 7.974 0 0 0 .264 5.733c.279.642.72 1.354 1.173 1.894.273.325.856.897 1.163 1.142 1.043.831 2.23 1.368 3.614 1.635.346.067.434.073 1.227.083 1.108.014 1.484-.033 2.402-.297 1.991-.575 3.709-1.949 4.737-3.79a8.358 8.358 0 0 0 .941-2.833c.053-.411.053-1.694-.001-2.1a8.468 8.468 0 0 0-.922-2.793C13.823 1.996 11.723.518 9.262.107 9 .063 7.852-.009 7.627.004c-.022.001-.19.018-.374.038m1.432 2.012c1.08.098 2.263.602 3.147 1.342 1.153.965 1.924 2.354 2.101 3.785.052.421.053 1.257.001 1.651-.165 1.249-.738 2.41-1.653 3.351a5.714 5.714 0 0 1-2.34 1.485 5.974 5.974 0 0 1-4.598-.295 5.677 5.677 0 0 1-1.65-1.217 5.68 5.68 0 0 1-1.095-1.579c-.408-.847-.571-1.574-.571-2.539 0-1.07.151-1.751.586-2.642.734-1.503 1.976-2.586 3.55-3.098.439-.143.82-.219 1.41-.281.133-.013.792.008 1.112.037M5.154 4.547c-.466.101-.914.515-1.079.995-.08.235-.086.663-.011.885.092.272.203.446.415.649.328.313.66.435 1.108.409.408-.025.682-.15.972-.444.292-.296.426-.624.427-1.042a1.421 1.421 0 0 0-.437-1.052 1.51 1.51 0 0 0-1.395-.4m5.05-.014c-.412.075-.868.425-1.059.813-.284.579-.173 1.224.293 1.697.355.36.755.494 1.272.428.337-.044.574-.162.823-.411.309-.31.451-.649.449-1.073a1.452 1.452 0 0 0-.446-1.049 1.74 1.74 0 0 0-.559-.352 2.031 2.031 0 0 0-.773-.053M4.758 9.036c-.251.045-.528.28-.66.56-.074.157-.084.203-.082.404.002.329.116.576.504 1.089.772 1.023 1.778 1.679 2.845 1.856.296.05.872.057 1.167.015 1.117-.158 2.132-.8 2.936-1.854.382-.5.553-.893.522-1.196-.024-.243-.17-.523-.343-.659-.241-.191-.302-.211-.634-.211-.268 0-.31.007-.444.072-.192.094-.316.217-.51.507-.447.664-.865 1.044-1.372 1.244a1.922 1.922 0 0 1-1.547-.077c-.423-.211-.778-.55-1.145-1.09-.252-.369-.374-.496-.567-.588-.154-.072-.474-.107-.67-.072" fill-rule="evenodd"/></svg>