<svg width="16" height="16" xmlns="http://www.w3.org/2000/svg"><path d="M1.39 5.05a.791.791 0 0 0-.189.116C1 5.334 1.013 5.138 1.013 8c0 2.871-.014 2.662.196 2.841a.686.686 0 0 0 .725.089c.134-.07 2.885-2.514 2.979-2.645.081-.114.097-.374.032-.512-.035-.072-.445-.456-1.469-1.37-.782-.698-1.472-1.297-1.533-1.33-.127-.068-.397-.08-.553-.023m5.247 2.026a.908.908 0 0 0-.408.293c-.163.199-.212.344-.213.631 0 .216.01.275.068.4.145.311.429.528.769.586.123.021 1.214.027 3.76.022L14.2 9l.141-.058c.406-.166.652-.521.652-.942a.97.97 0 0 0-.4-.8c-.259-.198.039-.185-4.1-.185H6.787l-.15.061" fill-rule="evenodd"/></svg>