<svg width="16" height="16" xmlns="http://www.w3.org/2000/svg"><path d="M5.691 1.049c-.059.02-1.051.602-2.203 1.293C1.192 3.72 1.195 3.718 1.062 4.047L1 4.2v10l.062.154c.08.199.31.449.493.537.177.086.417.123.601.094.222-.035 1.968-.854 3.208-1.503l.638-.335.512.272c.805.426 2.861 1.418 3.179 1.533.136.05.444.05.603 0 .067-.021 1.065-.603 2.217-1.294 2.295-1.378 2.292-1.376 2.425-1.705L15 11.8v-10l-.062-.154a1.199 1.199 0 0 0-.502-.541c-.144-.072-.178-.078-.441-.078h-.285l-1.855.926L10 2.879l-1.852-.925-1.853-.925-.247-.007a1.243 1.243 0 0 0-.357.027m3.296 7.473v3.908L8 11.931l-.987-.5V3.627L8 4.12l.987.493v3.909m3.966 2.533a84.082 84.082 0 0 1-1.928 1.158c-.007 0-.012-1.71-.012-3.8v-3.8l.98-.49.98-.49.007 3.696c.005 2.935 0 3.702-.027 3.726M4.987 7.609v3.821L4 11.931l-.987.5.007-3.741.007-3.74.96-.58c.528-.318.969-.58.98-.581.011-.001.02 1.718.02 3.82" fill-rule="evenodd"/></svg>