<svg width="16" height="16" xmlns="http://www.w3.org/2000/svg"><path d="M2.507 1.068A1.989 1.989 0 0 0 1.215 2.12C.98 2.604 1 2.052 1 8c0 5.948-.02 5.396.215 5.88.195.402.503.71.905.905C2.562 15 2.564 15 4 15s1.438 0 1.88-.215a1.92 1.92 0 0 0 .905-.905c.206-.425.208-.441.221-1.727l.012-1.14H4.987v2H3.013v-4H4V10l1.493-.993A80.7 80.7 0 0 0 6.985 8c0-.007-.672-.46-1.492-1.007L4 6v1.013h-.987v-4H4.986l.007.994L5 5h2l-.001-1.133c-.001-1.287-.004-1.315-.214-1.747a1.985 1.985 0 0 0-1.303-1.054c-.196-.049-.299-.053-1.493-.051-1.177.001-1.299.006-1.482.053m8 0A1.989 1.989 0 0 0 9.215 2.12c-.21.432-.213.46-.214 1.747L9 5h2l.007-.993.007-.994H12.987v4H12V6l-1.493.993A80.7 80.7 0 0 0 9.015 8c0 .007.672.46 1.492 1.007L12 10v-.987h.987v4h-1.974v-2H8.982l.012 1.14c.013 1.286.015 1.302.221 1.727.195.402.503.71.905.905.442.215.444.215 1.88.215s1.438 0 1.88-.215a1.92 1.92 0 0 0 .905-.905c.235-.484.215.068.215-5.88 0-5.948.02-5.396-.215-5.88a1.985 1.985 0 0 0-1.303-1.054c-.196-.049-.299-.053-1.493-.051-1.177.001-1.299.006-1.482.053" fill-rule="evenodd"/></svg>