<svg width="16" height="16" xmlns="http://www.w3.org/2000/svg"><path d="M10.637 1.075a1.497 1.497 0 0 0-.227.118c-.042.031-.565.546-1.162 1.145C7.988 3.602 8.016 3.564 8.016 4c0 .437-.031.395 1.259 1.688 1.2 1.203 1.242 1.237 1.58 1.299.411.075.871-.179 1.061-.587.058-.125.068-.184.068-.4 0-.335-.063-.476-.345-.771l-.206-.216h.533a7.3 7.3 0 0 1 .617.017c.065.013.105.051.185.18.184.294.2.356.213.848.018.661-.053.986-.292 1.343-.145.217-.403.464-.571.546-.107.052-.174.053-5.161.053-5.566 0-5.225-.01-5.496.164-.666.427-.588 1.407.139 1.753l.147.07 5.2.007c3.672.006 5.25-.001 5.371-.021.922-.157 1.915-1.015 2.354-2.032.223-.517.32-1.051.322-1.768.002-.766-.08-1.158-.354-1.706-.304-.609-.636-.97-1.107-1.202-.414-.204-.559-.23-1.38-.244a8.905 8.905 0 0 1-.713-.027c0-.008.091-.11.202-.227.279-.291.342-.433.342-.767 0-.216-.01-.275-.068-.4a1.01 1.01 0 0 0-.47-.486c-.155-.076-.209-.088-.419-.095-.203-.006-.264.003-.39.056M1.662 3.063c-.621.215-.86 1.011-.459 1.533.113.148.279.274.456.346C1.8 5 1.802 5 4 5c2.198 0 2.2 0 2.341-.058.406-.166.652-.521.652-.942a.97.97 0 0 0-.4-.8c-.252-.193-.14-.185-2.593-.185-2.042 0-2.21.003-2.338.048m0 10c-.621.215-.86 1.011-.459 1.533.113.148.279.274.456.346L1.8 15h12.4l.141-.058c.406-.166.652-.521.652-.942a.989.989 0 0 0-.655-.937c-.131-.045-.457-.048-6.338-.048s-6.207.003-6.338.048" fill-rule="evenodd"/></svg>