<svg width="16" height="16" xmlns="http://www.w3.org/2000/svg"><path d="M3.893 1.03c-.715.07-1.137.202-1.591.496-.75.486-1.144 1.114-1.267 2.021-.051.369-.051 8.537 0 8.906.08.586.245.999.552 1.381.512.636 1.241 1.02 2.133 1.125.399.046 3.178.071 3.414.029.354-.061.635-.273.782-.588.058-.125.068-.184.068-.4 0-.216-.01-.275-.068-.4a1.01 1.01 0 0 0-.47-.486l-.178-.087-1.601-.018c-.964-.01-1.68-.029-1.8-.047-.359-.054-.662-.239-.778-.475l-.062-.127V3.64l.062-.127c.124-.252.428-.427.818-.472.328-.037 7.858-.037 8.186 0 .39.045.694.22.818.472l.062.127.014 1.68c.014 1.642.015 1.683.071 1.821.165.405.521.652.942.652.421 0 .776-.246.942-.652.055-.136.058-.182.066-1.368.016-2.177-.044-2.711-.367-3.275-.414-.723-1.202-1.255-2.108-1.423-.234-.043-.569-.047-4.4-.05-2.28-.002-4.188 0-4.24.005m.636 3.021a.894.894 0 0 0-.447.286.99.99 0 0 0 .313 1.562l.177.088h6.402l.178-.088A.966.966 0 0 0 11.716 5a.966.966 0 0 0-.564-.899l-.178-.088-3.147-.005c-2.98-.005-3.155-.003-3.298.043m-.038 3.011a.982.982 0 0 0-.66.938c0 .423.243.777.645.939L4.627 9h1.786c1.774 0 1.788 0 1.928-.058.406-.166.652-.521.652-.942a.97.97 0 0 0-.4-.8c-.248-.19-.188-.185-2.18-.185-1.635 0-1.798.004-1.922.047m7.243.981a.994.994 0 0 0-.718.796 5.702 5.702 0 0 0-.029.659V10h-.541c-.607 0-.773.027-.985.164-.666.427-.588 1.411.139 1.752.142.067.165.069.767.079l.62.009v.5c0 .275.013.571.029.658.06.329.279.612.584.754.125.058.184.068.4.068.216 0 .275-.01.4-.068.305-.142.524-.425.584-.754.016-.087.029-.383.029-.658v-.5l.62-.009c.602-.01.625-.012.767-.079.417-.196.663-.649.584-1.076a1 1 0 0 0-.445-.676c-.212-.137-.378-.164-.985-.164h-.541v-.502c0-.276-.013-.572-.029-.659a.989.989 0 0 0-.73-.798.903.903 0 0 0-.52.002" fill-rule="evenodd"/></svg>