<svg width="16" height="16" xmlns="http://www.w3.org/2000/svg"><path d="M9.227 1.037a1.097 1.097 0 0 0-.609.5c-.028.057-.253.625-.498 1.263-.527 1.369-.563 1.452-.693 1.596-.133.147-.218.185-1.654.737-.674.259-1.264.494-1.31.523a1.19 1.19 0 0 0-.376.443c-.193.422-.038.967.346 1.219.081.053.558.252 1.127.47 1.413.541 1.64.634 1.755.719.217.159.22.166.897 1.933.218.569.417 1.046.47 1.127.252.384.797.539 1.219.346.163-.075.362-.244.445-.379.03-.048.268-.644.53-1.324.262-.681.509-1.306.548-1.388a.88.88 0 0 1 .453-.423c.09-.04.685-.274 1.323-.519.638-.245 1.207-.47 1.264-.499.364-.185.596-.646.523-1.034-.059-.31-.257-.593-.503-.718a45.61 45.61 0 0 0-1.329-.525 48.067 48.067 0 0 1-1.342-.531.956.956 0 0 1-.386-.386c-.033-.066-.272-.67-.531-1.342a45.61 45.61 0 0 0-.525-1.329 1.031 1.031 0 0 0-.439-.411c-.135-.067-.194-.079-.399-.084a1.485 1.485 0 0 0-.306.016m.633 4.416c.28.394.68.729 1.111.933l.238.113-.26.127A2.798 2.798 0 0 0 9.616 7.97l-.115.238-.149-.297a2.795 2.795 0 0 0-1.34-1.303l-.223-.107.239-.117a2.816 2.816 0 0 0 1.351-1.339l.123-.252.112.237c.062.13.172.321.246.423M3.44 9.008c-.149.024-.206.105-.533.751-.403.798-.374.769-1.181 1.176a9.841 9.841 0 0 0-.639.339c-.07.061-.107.225-.072.317.053.139.142.2.729.494.792.397.783.388 1.175 1.167.166.331.333.63.37.664.042.04.111.068.183.075.212.022.248-.021.598-.716.411-.817.388-.794 1.205-1.205.695-.35.738-.386.716-.598a.318.318 0 0 0-.075-.183c-.034-.037-.333-.204-.664-.37-.779-.392-.77-.383-1.167-1.175-.161-.321-.322-.611-.358-.645a.365.365 0 0 0-.287-.091" fill-rule="evenodd"/></svg>