<svg width="16" height="16" xmlns="http://www.w3.org/2000/svg"><path d="M1.734 2.043a.994.994 0 0 0-.718.796c-.041.221-.041 10.1 0 10.323.06.329.279.612.584.754.125.058.184.068.4.068.216 0 .275-.01.4-.068.305-.142.524-.425.584-.754.041-.223.041-10.102 0-10.323a.989.989 0 0 0-.73-.798.903.903 0 0 0-.52.002m12 0a.994.994 0 0 0-.718.796c-.041.221-.041 10.1 0 10.323.06.329.279.612.584.754.125.058.184.068.4.068.216 0 .275-.01.4-.068.305-.142.524-.425.584-.754.041-.223.041-10.102 0-10.323a.989.989 0 0 0-.73-.798.903.903 0 0 0-.52.002M4.637 5.075a1.008 1.008 0 0 0-.562.539l-.062.133v4.506l.07.147c.199.418.647.662 1.076.585.331-.06.613-.278.757-.585.067-.142.069-.165.079-.767l.009-.62h3.992l.009.62c.01.602.012.625.079.767.144.307.426.525.757.585.429.077.877-.167 1.076-.585l.07-.147V5.747l-.07-.147a1.016 1.016 0 0 0-.471-.486c-.166-.081-.197-.087-.446-.087s-.28.006-.446.087a1.01 1.01 0 0 0-.47.486c-.067.143-.069.164-.079.78l-.009.633H6.004l-.009-.633c-.01-.616-.012-.637-.079-.78a1.01 1.01 0 0 0-.47-.486c-.155-.076-.209-.088-.419-.095-.203-.006-.264.003-.39.056"/></svg>