<svg width="16" height="16" xmlns="http://www.w3.org/2000/svg"><path d="M3.449 1.053a2.82 2.82 0 0 0-.813.285c-.851.433-1.423 1.214-1.6 2.182-.053.296-.053 8.664 0 8.96a3.03 3.03 0 0 0 2.484 2.484c.296.053 8.664.053 8.96 0a3.03 3.03 0 0 0 2.484-2.484c.053-.296.053-8.664 0-8.96-.231-1.27-1.198-2.252-2.427-2.468-.313-.054-8.786-.054-9.088.001M12.43 3.1c.178.088.403.316.485.493.054.118.059.174.067.774l.008.646H3.013l.001-.606c.001-.512.009-.629.049-.745.091-.263.336-.508.599-.6.131-.045.363-.047 4.378-.041l4.24.006.15.073M6.987 8.013v1H3.013v-2h3.974v1m6 0v1H9.013v-2h3.974v1m-6 4v1H5.5c-.838 0-1.556-.011-1.645-.026a1.043 1.043 0 0 1-.756-.559c-.072-.147-.072-.154-.081-.781l-.008-.634H6.987v1m5.995-.366c-.009.627-.009.634-.081.781a1.043 1.043 0 0 1-.756.559c-.089.015-.807.026-1.645.026H9.013v-2H12.99l-.008.634" fill-rule="evenodd"/></svg>