<svg width="16" height="16" xmlns="http://www.w3.org/2000/svg"><path d="M7.253 1.053A5.998 5.998 0 0 0 3.772 2.79a6.066 6.066 0 0 0-1.748 3.677c-.037.354-.017.997.043 1.333.2 1.134.796 2.277 1.815 3.48.646.762 1.166 1.287 3.19 3.218.217.207.391.349.482.394.284.139.607.139.89 0 .224-.109 2.43-2.226 3.187-3.058 2-2.197 2.656-3.922 2.259-5.941-.5-2.538-2.62-4.524-5.169-4.842a7.824 7.824 0 0 0-1.468.002m1.52 2.027c1.587.351 2.846 1.628 3.149 3.193.156.802.056 1.48-.332 2.254-.469.936-1.353 1.967-3.145 3.67L8 12.62l-.445-.423a41.673 41.673 0 0 1-1.739-1.744C4.509 9.015 3.956 7.908 4.009 6.84c.095-1.876 1.505-3.458 3.378-3.789.275-.049 1.116-.031 1.386.029M7.554 5.052c-.699.159-1.254.685-1.478 1.402-.09.287-.09.805 0 1.092.347 1.111 1.456 1.697 2.551 1.35.612-.195 1.092-.693 1.297-1.35.089-.285.088-.802-.001-1.093A2.05 2.05 0 0 0 8.559 5.08c-.2-.063-.782-.079-1.005-.028" fill-rule="evenodd"/></svg>