<svg width="16" height="16" xmlns="http://www.w3.org/2000/svg"><path d="M3.128 2.028a2.06 2.06 0 0 0-.821.238A2.316 2.316 0 0 0 1.252 3.32c-.16.322-.211.564-.245 1.143-.044.756.008 1.001.271 1.279.074.078.204.177.288.22.141.071.177.078.434.078.255 0 .293-.007.427-.075a1.19 1.19 0 0 0 .443-.409c.101-.171.142-.426.143-.884 0-.446.018-.517.152-.608.072-.048.16-.051 1.948-.059l1.874-.007V11.997l-1.114.008-1.113.008-.173.084c-.221.106-.386.27-.491.49-.074.154-.083.199-.083.413 0 .213.01.259.083.413.105.221.27.386.491.491l.173.083H11.213l.166-.077c.204-.094.409-.302.509-.517.06-.13.071-.189.072-.394 0-.217-.008-.257-.086-.416a1.118 1.118 0 0 0-.508-.498l-.153-.072-1.1-.008-1.1-.008V3.998l1.874.007c2.064.009 1.934-.002 2.05.174.043.064.049.131.05.488.001.463.042.718.143.889.092.156.272.321.443.409.134.068.172.075.427.075.257 0 .293-.007.434-.078.084-.043.214-.142.288-.22.263-.278.315-.523.271-1.279-.034-.579-.085-.821-.245-1.143a2.307 2.307 0 0 0-1.055-1.054c-.312-.156-.482-.203-.865-.239-.337-.032-9.369-.031-9.7.001" fill-rule="evenodd"/></svg>