<svg width="16" height="16" xmlns="http://www.w3.org/2000/svg"><path d="M4.987 1.053c-.473.095-.961.4-1.278.798C3.51 2.101.327 6.939.208 7.173a1.773 1.773 0 0 0 0 1.654c.133.261 3.324 5.104 3.522 5.346.084.103.23.25.325.327.199.162.582.36.812.42.343.09.709.098 3.99.086 2.834-.01 3.274-.017 3.536-.056.715-.105 1.208-.358 1.696-.869.513-.536.782-1.154.875-2.001.053-.487.053-7.673 0-8.16-.092-.839-.36-1.458-.862-1.989-.508-.537-1.061-.805-1.83-.888-.422-.046-7.054-.036-7.285.01m7.154 1.988a.73.73 0 0 1 .504.26c.158.169.25.35.294.582.051.271.05 7.965-.001 8.237a1.146 1.146 0 0 1-.353.637c-.194.18-.262.198-.865.232-.723.04-6.303.021-6.378-.022-.062-.036-.088-.074-2.004-2.986C2.631 8.908 2.053 8.016 2.053 8c0-.016.578-.908 1.285-1.981 1.886-2.866 1.941-2.949 1.99-2.978.061-.035 6.567-.036 6.813 0m-6.479 2.02a1 1 0 0 0-.457 1.537c.048.064.445.401.882.751.436.349.793.642.793.651 0 .009-.357.302-.793.651-.437.35-.834.687-.882.751a.99.99 0 0 0-.002 1.194c.272.354.745.494 1.147.34.133-.051.867-.615 2.04-1.567l.109-.089.971.776c.533.427 1.024.804 1.091.838.391.198.894.097 1.188-.239a1.02 1.02 0 0 0 .065-1.236c-.046-.063-.433-.392-.893-.759a29.078 29.078 0 0 1-.812-.66c0-.007.355-.295.789-.64.434-.345.836-.685.892-.756.376-.47.217-1.19-.328-1.486-.163-.088-.178-.091-.462-.091-.266 0-.306.006-.427.07-.073.039-.57.42-1.104.847-.855.685-.975.773-1.013.74-.354-.305-1.965-1.559-2.054-1.599-.174-.079-.553-.091-.74-.024" fill-rule="evenodd"/></svg>