<svg width="16" height="16" xmlns="http://www.w3.org/2000/svg"><path d="M7.56 2.016c-.876.091-1.5.26-2.187.596A5.992 5.992 0 0 0 2.04 7.328c-.262 2.24.786 4.452 2.707 5.712a6.471 6.471 0 0 0 1.981.825 6.007 6.007 0 0 0 6.661-3.238 5.964 5.964 0 0 0 0-5.254 5.952 5.952 0 0 0-2.76-2.758 5.76 5.76 0 0 0-1.749-.548c-.272-.041-1.105-.073-1.32-.051m1.134 2.048a4.054 4.054 0 0 1 2.31 1.299c.482.556.8 1.221.936 1.957.068.371.06 1.091-.017 1.453-.08.376-.164.624-.329.968l-.138.288-2.741-2.741-2.741-2.741.229-.115c.413-.208.87-.347 1.323-.404.26-.033.887-.013 1.168.036m1.325 7.393c-.037.036-.542.262-.726.325-.471.16-.744.203-1.306.201-.418-.001-.553-.011-.769-.058-1.285-.283-2.273-1.06-2.833-2.228-.269-.561-.371-1.038-.369-1.724.003-.674.103-1.113.39-1.714l.138-.288 2.74 2.74a487.72 487.72 0 0 1 2.735 2.746" fill-rule="evenodd"/></svg>