<svg width="16" height="16" xmlns="http://www.w3.org/2000/svg"><path d="M3.673 1.045a2.877 2.877 0 0 0-1.789.839c-.476.476-.734 1.007-.837 1.724C1.004 3.907 1 4.263 1 8s.004 4.093.047 4.392c.103.717.361 1.248.837 1.724s1.007.734 1.724.837c.299.043.654.047 4.365.047 4.254 0 4.322-.002 4.807-.121a2.898 2.898 0 0 0 2.099-2.099c.119-.485.121-.553.121-4.807 0-3.711-.004-4.066-.047-4.365-.103-.717-.361-1.248-.837-1.724-.499-.499-1.08-.766-1.834-.841-.359-.036-8.257-.035-8.609.002m8.681 2.026c.248.086.489.327.575.575.04.116.045.488.052 4.194.005 2.644-.002 4.145-.02 4.291-.032.27-.094.405-.259.571-.157.156-.287.22-.542.264-.292.05-8.028.05-8.32 0-.255-.044-.385-.108-.542-.264-.16-.161-.225-.298-.257-.544-.035-.266-.035-8.05 0-8.316.032-.246.097-.383.257-.544a.821.821 0 0 1 .52-.256c.093-.013 2.023-.021 4.289-.019 3.762.004 4.131.008 4.247.048m-2.012 1.984a4.029 4.029 0 0 0-1.338.53c-.435.279-.938.754-1.71 1.615-.614.685-1.132 1.195-1.388 1.363-.358.238-.74.403-1.044.451-.345.055-.631.27-.778.586-.058.125-.068.184-.068.4 0 .216.01.275.068.4.199.426.628.65 1.116.583.523-.072 1.259-.38 1.825-.764.493-.334.903-.726 1.751-1.673.643-.717 1.003-1.07 1.287-1.26.251-.168.559-.273.804-.273.482 0 .846-.203 1.029-.575.265-.538-.026-1.215-.597-1.384-.17-.051-.673-.05-.957.001" fill-rule="evenodd"/></svg>