<svg width="16" height="16" xmlns="http://www.w3.org/2000/svg"><path d="M7.599 1.064c-.369.118-.666.379-.87.766-.133.251-3.625 7.71-3.681 7.863-.061.166-.053.478.017.661.076.198.303.447.492.539a.981.981 0 0 0 1.168-.222c.128-.139.199-.278.728-1.413L6.04 8h3.92l.587 1.258c.528 1.134.6 1.273.728 1.412a.98.98 0 0 0 1.168.223c.19-.093.416-.341.491-.539.07-.184.078-.497.018-.661A891.314 891.314 0 0 0 9.271 1.83c-.209-.395-.519-.664-.896-.774a1.695 1.695 0 0 0-.776.008m.908 3.831c.271.58.497 1.066.502 1.08C9.014 5.99 8.619 6 8 6c-.619 0-1.014-.01-1.009-.025C7.025 5.88 7.989 3.84 8 3.84c.008 0 .236.475.507 1.055M1.505 12.99c-.272.544-.49.994-.485.999.005.005 2.253-.215 4.995-.49L11 13l.007-.5.008-.5H2l-.495.99m8.442.518c-2.134.269-3.895.49-3.914.491C6.008 14 6 14.12 6 14.507v.506h4.493c2.967 0 4.494-.009 4.494-.026 0-.015-.219-.465-.487-1l-.486-.974-.094.003c-.051.002-1.839.223-3.973.492" fill-rule="evenodd"/></svg>