<svg width="16" height="16" xmlns="http://www.w3.org/2000/svg"><path d="M6.227 2.027a1.447 1.447 0 0 0-.858.54 3.91 3.91 0 0 0-.29.513c-.28.583-4.019 9.559-4.058 9.743-.092.431.154.896.579 1.092.203.094.555.098.779.009.187-.074.387-.25.48-.421.038-.071.378-.868.754-1.77l.739-1.766.055-.127 2.096.001H8.6l.678 1.633c.373.898.728 1.741.789 1.873.133.288.276.441.52.557.154.073.2.083.413.083.214 0 .259-.009.413-.084.096-.046.226-.136.291-.2.229-.228.347-.621.273-.913-.048-.19-3.879-9.35-4.089-9.775-.169-.344-.212-.407-.392-.588a1.442 1.442 0 0 0-.358-.276 1.55 1.55 0 0 0-.911-.124m3.507.016a.995.995 0 0 0-.718.797c-.079.427.166.878.584 1.077l.147.07h4.506l.147-.07c.857-.407.761-1.639-.146-1.876-.231-.06-4.295-.059-4.52.002M7.142 6.36l.612 1.467-1.241.007a37.42 37.42 0 0 1-1.253-.005c-.006-.006.268-.679.609-1.495.34-.815.629-1.473.64-1.462.011.012.296.681.633 1.488m3.495-1.284a.908.908 0 0 0-.408.293c-.163.199-.212.344-.213.631 0 .216.01.275.068.4.145.311.429.527.769.586.12.021.668.028 1.76.022 1.559-.008 1.59-.009 1.728-.066.406-.166.652-.521.652-.942a.97.97 0 0 0-.4-.8c-.247-.189-.198-.185-2.1-.185h-1.706l-.15.061m1.097 2.967a.995.995 0 0 0-.718.797c-.079.427.166.878.584 1.077l.147.07h2.506l.147-.07c.857-.407.761-1.639-.146-1.876-.226-.059-2.299-.058-2.52.002"/></svg>