<svg width="16" height="16" xmlns="http://www.w3.org/2000/svg"><path d="M1.662 1.061a.996.996 0 0 0-.364 1.641c.497.497 1.313.347 1.617-.297.074-.157.084-.206.084-.405 0-.199-.01-.248-.084-.405a1.017 1.017 0 0 0-.476-.49 1.165 1.165 0 0 0-.777-.044m2.975.014a.916.916 0 0 0-.408.294c-.163.199-.212.344-.213.631 0 .216.01.275.068.4.144.307.426.525.761.585.203.037.479-.013.659-.118.161-.094.326-.28.412-.462.061-.131.071-.186.071-.405 0-.219-.01-.274-.071-.405a1.042 1.042 0 0 0-.456-.477c-.15-.08-.192-.09-.42-.098-.218-.007-.274 0-.403.055m3.025-.014a.996.996 0 0 0-.364 1.641c.497.497 1.313.347 1.617-.297.074-.157.084-.206.084-.405 0-.199-.01-.248-.084-.405a1.017 1.017 0 0 0-.476-.49 1.165 1.165 0 0 0-.777-.044m2.975.014a.916.916 0 0 0-.408.294c-.163.199-.212.344-.213.631 0 .216.01.275.068.4.144.307.426.525.761.585.203.037.479-.013.659-.118.161-.094.326-.28.412-.462.061-.131.071-.186.071-.405 0-.219-.01-.274-.071-.405a1.042 1.042 0 0 0-.456-.477c-.15-.08-.192-.09-.42-.098-.218-.007-.274 0-.403.055m3.025-.014a.996.996 0 0 0-.364 1.641c.497.497 1.313.347 1.617-.297.074-.157.084-.206.084-.405 0-.199-.01-.248-.084-.405a1.017 1.017 0 0 0-.476-.49 1.165 1.165 0 0 0-.777-.044M1.734 4.041a1.002 1.002 0 0 0-.718.799c-.079.427.168.882.584 1.075.124.058.186.069.4.07.235.002.268-.005.432-.086A.966.966 0 0 0 2.996 5a.899.899 0 0 0-.253-.666 1.006 1.006 0 0 0-1.009-.293m6 0a1.002 1.002 0 0 0-.718.799c-.079.427.168.882.584 1.075.124.058.186.069.4.07.235.002.268-.005.432-.086A.966.966 0 0 0 8.996 5a.899.899 0 0 0-.253-.666 1.006 1.006 0 0 0-1.009-.293m6 0a1.002 1.002 0 0 0-.718.799c-.079.427.168.882.584 1.075.124.058.186.069.4.07.235.002.268-.005.432-.086A.966.966 0 0 0 14.996 5a.899.899 0 0 0-.253-.666 1.006 1.006 0 0 0-1.009-.293M1.662 7.061a.996.996 0 0 0-.364 1.641c.497.497 1.313.347 1.617-.297.074-.157.084-.206.084-.405 0-.199-.01-.248-.084-.405a1.017 1.017 0 0 0-.476-.49 1.165 1.165 0 0 0-.777-.044m2.975.014a.916.916 0 0 0-.408.294c-.163.199-.212.344-.213.631 0 .216.01.275.068.4.144.307.426.525.761.585.203.037.479-.013.659-.118.161-.094.326-.28.412-.462.061-.131.071-.186.071-.405 0-.219-.01-.274-.071-.405a1.042 1.042 0 0 0-.456-.477c-.15-.08-.192-.09-.42-.098-.218-.007-.274 0-.403.055m3.025-.014a.996.996 0 0 0-.364 1.641c.497.497 1.313.347 1.617-.297.074-.157.084-.206.084-.405 0-.199-.01-.248-.084-.405a1.017 1.017 0 0 0-.476-.49 1.165 1.165 0 0 0-.777-.044m2.975.014a.916.916 0 0 0-.408.294c-.163.199-.212.344-.213.631 0 .216.01.275.068.4.144.307.426.525.761.585.203.037.479-.013.659-.118.161-.094.326-.28.412-.462.061-.131.071-.186.071-.405 0-.219-.01-.274-.071-.405a1.042 1.042 0 0 0-.456-.477c-.15-.08-.192-.09-.42-.098-.218-.007-.274 0-.403.055m3.025-.014a.996.996 0 0 0-.364 1.641c.497.497 1.313.347 1.617-.297.074-.157.084-.206.084-.405 0-.199-.01-.248-.084-.405a1.017 1.017 0 0 0-.476-.49 1.165 1.165 0 0 0-.777-.044m-11.928 2.98a1.002 1.002 0 0 0-.718.799c-.079.427.168.882.584 1.075.124.058.186.069.4.07.235.002.268-.005.432-.086A.966.966 0 0 0 2.996 11a.899.899 0 0 0-.253-.666 1.006 1.006 0 0 0-1.009-.293m6 0a1.002 1.002 0 0 0-.718.799c-.079.427.168.882.584 1.075.124.058.186.069.4.07.235.002.268-.005.432-.086A.966.966 0 0 0 8.996 11a.899.899 0 0 0-.253-.666 1.006 1.006 0 0 0-1.009-.293m6 0a1.002 1.002 0 0 0-.718.799c-.079.427.168.882.584 1.075.124.058.186.069.4.07.235.002.268-.005.432-.086a.966.966 0 0 0 .564-.899.899.899 0 0 0-.253-.666 1.006 1.006 0 0 0-1.009-.293m-12.072 3.02a.996.996 0 0 0-.364 1.641c.497.497 1.313.347 1.617-.297.074-.157.084-.206.084-.405 0-.199-.01-.248-.084-.405a1.017 1.017 0 0 0-.476-.49 1.165 1.165 0 0 0-.777-.044m2.975.014a.916.916 0 0 0-.408.294c-.163.199-.212.344-.213.631 0 .216.01.275.068.4.144.307.426.525.761.585.203.037.479-.013.659-.118.161-.094.326-.28.412-.462.061-.131.071-.186.071-.405 0-.219-.01-.274-.071-.405a1.042 1.042 0 0 0-.456-.477c-.15-.08-.192-.09-.42-.098-.218-.007-.274 0-.403.055m3.025-.014a.996.996 0 0 0-.364 1.641c.497.497 1.313.347 1.617-.297.074-.157.084-.206.084-.405 0-.199-.01-.248-.084-.405a1.017 1.017 0 0 0-.476-.49 1.165 1.165 0 0 0-.777-.044m2.975.014a.916.916 0 0 0-.408.294c-.163.199-.212.344-.213.631 0 .216.01.275.068.4.144.307.426.525.761.585.203.037.479-.013.659-.118.161-.094.326-.28.412-.462.061-.131.071-.186.071-.405 0-.219-.01-.274-.071-.405a1.042 1.042 0 0 0-.456-.477c-.15-.08-.192-.09-.42-.098-.218-.007-.274 0-.403.055m3.025-.014a.996.996 0 0 0-.364 1.641c.497.497 1.313.347 1.617-.297.074-.157.084-.206.084-.405 0-.199-.01-.248-.084-.405a1.017 1.017 0 0 0-.476-.49 1.165 1.165 0 0 0-.777-.044" fill-rule="evenodd"/></svg>