<svg width="16" height="16" xmlns="http://www.w3.org/2000/svg"><path d="M2.767 2.029c-.28.066-.538.28-.671.558-.074.154-.083.199-.083.413 0 .207.011.262.076.403.095.206.301.411.511.509l.16.075L8 3.994c5.187.007 5.242.006 5.413-.047a.991.991 0 0 0 .266-1.766c-.284-.194.114-.181-5.638-.178-2.896.001-5.218.013-5.274.026m2.895 3.032c-.26.093-.49.321-.604.598L5 5.8l-.008 3.587c-.005 2.546.001 3.637.022 3.76.058.34.275.624.586.769.125.058.184.068.4.068.216 0 .275-.01.4-.068.305-.142.524-.425.584-.754.038-.207.041-7.077.003-7.307a1.039 1.039 0 0 0-.558-.755 1.185 1.185 0 0 0-.767-.039m4 0c-.26.093-.49.321-.604.598-.057.138-.058.169-.066 1.728-.006 1.092.001 1.64.022 1.76.059.34.275.624.586.769.125.058.184.068.4.068.216 0 .275-.01.4-.068.305-.142.524-.425.584-.754.037-.202.04-3.083.003-3.307a1.039 1.039 0 0 0-.558-.755 1.185 1.185 0 0 0-.767-.039"/></svg>