<svg width="16" height="16" xmlns="http://www.w3.org/2000/svg"><path d="M12.767 2.027a1.042 1.042 0 0 0-.671.56l-.083.173v10.48l.083.173c.105.221.27.386.491.491.154.073.2.083.413.083.207 0 .262-.011.403-.076a1.13 1.13 0 0 0 .509-.511l.075-.16V2.76l-.076-.163a1.11 1.11 0 0 0-.505-.504 1.156 1.156 0 0 0-.639-.066M2.689 5.05a1.042 1.042 0 0 0-.604.547c-.059.128-.069.187-.069.403 0 .216.01.275.068.4.147.314.434.53.783.587.223.036 7.035.035 7.266-.002a.96.96 0 0 0 .596-.318.893.893 0 0 0 .264-.667.993.993 0 0 0-.645-.935c-.131-.05-.247-.052-3.848-.05-2.986 0-3.732.007-3.811.035m2.973 4.013c-.623.215-.861 1.01-.459 1.533.113.148.279.274.456.346C5.8 11 5.802 11 8 11c2.198 0 2.2 0 2.341-.058.406-.166.652-.521.652-.942a.97.97 0 0 0-.4-.8c-.252-.193-.14-.185-2.593-.185-2.042 0-2.21.003-2.338.048"/></svg>