<svg width="16" height="16" xmlns="http://www.w3.org/2000/svg"><path d="M4.9.989c-.882.06-1.445.296-1.998.839-.466.458-.719.948-.842 1.632-.043.24-.047.579-.047 4.5 0 4.667-.007 4.437.163 4.977a2.922 2.922 0 0 0 1.847 1.847c.466.147.627.16 1.977.161l1.24.002.173-.083a1.01 1.01 0 0 0 .491-.491c.073-.154.083-.2.083-.413 0-.208-.011-.262-.077-.406a1.143 1.143 0 0 0-.517-.509l-.153-.072-1.2-.017c-1.426-.02-1.479-.029-1.746-.294-.177-.177-.236-.331-.267-.704-.035-.423-.035-7.571 0-7.994.017-.205.044-.357.078-.432.071-.162.275-.372.438-.451.239-.117.587-.126 4.27-.114 3.462.012 3.528.014 3.729.117.116.061.307.246.378.368.114.193.127.385.144 2.121l.016 1.64.071.152c.084.178.256.373.408.463.175.102.448.154.635.121.357-.062.604-.243.759-.556l.1-.203.009-1.402c.011-1.829-.024-2.355-.187-2.841a2.765 2.765 0 0 0-.698-1.096 2.767 2.767 0 0 0-.787-.572c-.362-.179-.673-.25-1.283-.292C11.649.956 5.365.957 4.9.989m.952 2.957a1.02 1.02 0 0 0-.749.568c-.067.146-.076.197-.076.42 0 .233.007.269.086.43.103.209.271.372.482.472l.152.071h5.573l.147-.075c.507-.26.705-.824.47-1.339a1 1 0 0 0-.771-.548c-.197-.028-5.119-.027-5.314.001m-.145 3.056a1.02 1.02 0 0 0-.67.593 1.12 1.12 0 0 0 0 .732c.083.213.282.423.505.532l.177.088h4.561l.173-.083a1.01 1.01 0 0 0 .491-.491c.073-.154.083-.2.083-.413 0-.208-.011-.262-.077-.406a1.143 1.143 0 0 0-.517-.509l-.153-.072-2.213-.005c-1.887-.004-2.235.001-2.36.034m8.053 2.035c-.241.079-.349.175-1.52 1.348-.652.654-1.198 1.188-1.211 1.188-.014 0-.2-.172-.414-.382-.33-.325-.411-.391-.539-.439a.977.977 0 0 0-.571-.058.92.92 0 0 0-.506.27 1.003 1.003 0 0 0-.165 1.223c.069.116 1.427 1.49 1.597 1.616.352.26.84.26 1.191 0 .069-.051.823-.793 1.676-1.648 1.685-1.688 1.658-1.656 1.716-2.011a1.15 1.15 0 0 0-.095-.599 1.224 1.224 0 0 0-.452-.433c-.138-.07-.194-.083-.4-.089a1.404 1.404 0 0 0-.307.014" fill-rule="evenodd"/></svg>