<svg width="16" height="16" xmlns="http://www.w3.org/2000/svg"><path d="m7.373 1.029-.4.054c-1.428.189-2.861.912-3.932 1.985-1.099 1.099-1.776 2.483-1.988 4.066a9.039 9.039 0 0 0-.015 1.613 7.018 7.018 0 0 0 5.525 6.103c.889.19 1.985.19 2.874 0a7.034 7.034 0 0 0 4.543-3.213c1.016-1.655 1.284-3.701.735-5.61-.673-2.344-2.634-4.227-5.008-4.811-.611-.15-.871-.18-1.6-.19a14.25 14.25 0 0 0-.734.003m1.574 2.063c2.022.406 3.554 1.941 3.964 3.975.054.269.062.383.062.933s-.008.664-.062.933c-.318 1.575-1.302 2.861-2.724 3.559a4.993 4.993 0 0 1-5.719-.96 5.053 5.053 0 0 1-1.379-2.599c-.054-.269-.062-.383-.062-.933s.008-.664.062-.933C3.527 4.896 5.25 3.298 7.44 3.03c.051-.006.345-.008.653-.004.45.006.618.019.854.066" fill-rule="evenodd"/></svg>