<svg width="16" height="16" xmlns="http://www.w3.org/2000/svg"><path d="M4.825 2.036a1.075 1.075 0 0 0-.66.573c-.06.128-.071.187-.071.391 0 .204.011.263.072.393.099.215.304.423.508.517l.166.077 1.073.007 1.072.008.008 3.099L7 10.2l.058.141c.166.406.521.652.942.652.421 0 .776-.246.942-.652L9 10.2l.007-3.099.008-3.099 1.072-.008 1.073-.007.166-.077c.204-.094.409-.302.508-.517.061-.13.072-.189.072-.394.001-.217-.008-.257-.086-.416a1.114 1.114 0 0 0-.508-.498l-.152-.072-3.107-.005c-2.405-.004-3.134.003-3.228.028m-1.389 8.266c-.219.082-.37.216-1.293 1.143-1.031 1.035-1.071 1.085-1.128 1.398a.967.967 0 0 0 .109.626c.109.206 2.004 2.096 2.183 2.177.523.238 1.089.04 1.339-.468.08-.162.087-.198.087-.431 0-.218-.01-.275-.069-.402a1.237 1.237 0 0 0-.156-.246L4.421 14h7.158l-.087.099a1.237 1.237 0 0 0-.156.246c-.059.127-.069.184-.069.402 0 .233.007.269.087.431.201.409.647.641 1.067.554.311-.064.336-.085 1.387-1.13.843-.838 1.007-1.013 1.073-1.149.153-.31.156-.572.011-.891-.057-.125-.221-.302-1.045-1.128-1.17-1.171-1.146-1.154-1.594-1.154-.271 0-.305.006-.447.078-.19.096-.373.288-.468.49-.062.131-.071.186-.071.405 0 .218.01.275.069.402.038.081.108.192.156.246l.087.099H4.421l.087-.099c.048-.054.118-.165.156-.246.059-.127.069-.184.069-.402 0-.233-.007-.269-.087-.432a1.07 1.07 0 0 0-.479-.476c-.158-.076-.575-.101-.731-.043" fill-rule="evenodd"/></svg>