<svg width="16" height="16" xmlns="http://www.w3.org/2000/svg"><path d="M11.662 1.061a1.06 1.06 0 0 0-.602.598c-.05.125-.058.21-.068.748l-.011.606-.591.001c-.662.001-.768.021-.983.186a.97.97 0 0 0-.4.8c0 .422.249.781.652.94.124.049.211.057.731.068l.591.011.011.591c.011.52.019.607.068.731a.997.997 0 0 0 .94.652.997.997 0 0 0 .94-.652c.049-.124.057-.211.068-.731l.011-.591.591-.011c.52-.011.607-.019.731-.068a.997.997 0 0 0 .652-.94.97.97 0 0 0-.4-.8c-.216-.165-.321-.185-.986-.186l-.594-.001v-.5c0-.568-.024-.759-.118-.953a1.135 1.135 0 0 0-.466-.46 1.185 1.185 0 0 0-.767-.039m-8.056.967c-.299.04-.6.132-.899.276A2.979 2.979 0 0 0 1.014 4.72c-.035.34-.035 6.22 0 6.56a3.029 3.029 0 0 0 2.359 2.657c.203.047.43.05 4.627.05s4.424-.003 4.627-.05a3.029 3.029 0 0 0 2.359-2.657c.036-.347.035-2.241-.002-2.442a1 1 0 0 0-1.656-.573 1.213 1.213 0 0 0-.295.462c-.019.056-.035.524-.045 1.314l-.015 1.227-.087.178a1.016 1.016 0 0 1-.486.471l-.147.07H3.747l-.147-.07a1.016 1.016 0 0 1-.486-.471l-.087-.178-.007-3.232c-.007-3.199-.007-3.234.047-3.378a.97.97 0 0 1 .34-.457c.264-.193.174-.185 2.1-.2l1.733-.014.163-.076a1.13 1.13 0 0 0 .509-.511c.064-.138.075-.193.075-.4 0-.207-.011-.262-.075-.4a1.13 1.13 0 0 0-.509-.511l-.163-.076-1.733-.003c-.954-.002-1.809.006-1.901.018m2.056 5.035c-.621.215-.86 1.011-.459 1.533.113.148.279.274.456.346C5.8 9 5.802 9 8 9c2.198 0 2.2 0 2.341-.058.406-.166.652-.521.652-.942a.97.97 0 0 0-.4-.8c-.252-.193-.14-.185-2.593-.185-2.042 0-2.21.003-2.338.048" fill-rule="evenodd"/></svg>