<svg width="16" height="16" xmlns="http://www.w3.org/2000/svg"><path d="M2.933 1.053a2.26 2.26 0 0 0-1.585 1.064c-.15.239-.235.473-.3.818C1.004 3.166 1 3.412 1 6c0 3.076-.002 3.039.158 3.499.196.561.782 1.147 1.342 1.342.349.122.6.148 1.57.165l.909.015.018.75c.034 1.396.095 1.726.404 2.191.257.387.699.74 1.1.88.46.16.423.158 3.499.158s3.039.002 3.499-.158c.562-.196 1.147-.781 1.343-1.343.16-.46.158-.423.158-3.499s.002-3.039-.158-3.499c-.129-.369-.464-.807-.803-1.049-.496-.354-.946-.439-2.332-.439h-.686l-.015-.926c-.021-1.229-.073-1.52-.354-1.97a2.298 2.298 0 0 0-1.003-.889c-.447-.208-.265-.198-3.556-.205-2.349-.004-2.978.002-3.16.03m5.966 2.048.074.074v5.65l-.071.072c-.064.064-.1.074-.334.093-.341.027-4.795.027-5.136 0-.234-.019-.27-.029-.334-.093l-.071-.072V3.178l.063-.068a.302.302 0 0 1 .12-.079 201.35 201.35 0 0 1 2.836-.008l2.779.004.074.074m3.736 3.937c.175.017.235.034.28.079l.058.058v5.65l-.071.072c-.065.065-.097.073-.373.095-.166.013-1.418.02-2.782.016-2.722-.009-2.597-.001-2.679-.168-.03-.063-.041-.262-.05-.949l-.011-.869.916-.016c.977-.017 1.227-.043 1.577-.165.56-.195 1.146-.781 1.341-1.341.122-.349.148-.6.165-1.573l.015-.914.696.002c.383.001.796.011.918.023" fill-rule="evenodd"/></svg>