<svg width="16" height="16" xmlns="http://www.w3.org/2000/svg"><path d="M12.147 1.058a2.504 2.504 0 0 0-1.135.613l-3.319 3.07c-1.73 1.6-3.192 2.968-3.247 3.038-.135.17-.318.539-.378.757l-.047.177-.21.017c-.487.041-1.148.298-1.548.602-.587.446-.904.995-1.01 1.748-.025.176-.029.45-.016 1.027.021.887.002 1.111-.118 1.392a1.915 1.915 0 0 0-.103.326.987.987 0 0 0 .408.961c.25.17.3.179 1.136.203 1.538.044 2.366-.066 3.047-.405.895-.445 1.492-1.295 1.639-2.335l.043-.298.095-.018c.161-.029.477-.167.666-.289.098-.064.275-.211.393-.327.234-.231 5.871-6.306 6.031-6.5a2.366 2.366 0 0 0 .461-2.004 2.792 2.792 0 0 0-.455-.94 2.421 2.421 0 0 0-1.35-.82 3.147 3.147 0 0 0-.983.005m.681 1.996c.14.073.206.313.124.456-.017.031-1.015 1.115-2.216 2.409L8.552 8.271l-.409-.408a7.977 7.977 0 0 1-.41-.426c0-.024 4.688-4.351 4.756-4.389.08-.045.245-.042.339.006M7.173 9.743a.607.607 0 0 1-.116.141c-.194.193-.226.182-.651-.237-.197-.195-.374-.388-.392-.429-.049-.113-.021-.191.112-.314l.12-.111.464.463c.255.255.463.474.463.487m-2.551 1.079c.343.169.572.478.634.855.057.342-.06.704-.309.952-.148.149-.314.225-.634.292-.16.034-.774.091-.982.092h-.069l-.018-.793c-.025-1.071-.014-1.121.265-1.314.197-.137.392-.188.68-.179.226.007.276.018.433.095" fill-rule="evenodd"/></svg>