<svg width="16" height="16" xmlns="http://www.w3.org/2000/svg"><path d="M3.513 1.045c-.287.029-.694.13-.893.221a2.93 2.93 0 0 0-1.298 1.255c-.306.603-.346 1.392-.328 6.452.013 3.49.014 3.507.141 4.007.145.575.542 1.136 1.065 1.506.492.348.878.456 1.8.501.677.033 7.323.033 8 0 .922-.045 1.308-.153 1.8-.501.524-.371.92-.93 1.066-1.509.124-.489.127-.55.139-4.002.019-5.052-.021-5.851-.327-6.454a2.93 2.93 0 0 0-1.298-1.255c-.213-.097-.6-.189-.938-.223-.359-.036-8.577-.035-8.929.002m8.976 2.018a.927.927 0 0 1 .378.324c.094.183.101.467.112 4.613.007 2.86.002 4.134-.019 4.293-.023.18-.046.252-.111.347-.182.266-.308.315-.888.347-.557.032-7.365.032-7.922 0-.58-.032-.706-.081-.888-.347-.065-.095-.088-.167-.111-.347-.042-.326-.021-8.271.023-8.586.042-.299.045-.309.172-.446.137-.149.221-.193.427-.22.091-.012 2.091-.02 4.445-.017 3.435.003 4.3.011 4.382.039m-1.852 2.012a1.008 1.008 0 0 0-.562.539l-.062.133v4.506l.07.147c.199.418.647.662 1.076.585.33-.06.612-.277.758-.585l.07-.147V5.747l-.07-.147a1.016 1.016 0 0 0-.471-.486c-.155-.076-.209-.088-.419-.095-.203-.006-.264.003-.39.056M7.662 6.661c-.26.093-.49.321-.604.598C7.001 7.398 7 7.424 7 8.8s.001 1.402.058 1.541c.166.406.521.652.942.652.421 0 .776-.246.942-.652.056-.137.058-.18.066-1.417.005-.781-.002-1.344-.019-1.451a1.036 1.036 0 0 0-.56-.773 1.185 1.185 0 0 0-.767-.039M4.637 8.275a1.008 1.008 0 0 0-.562.539c-.059.127-.062.16-.062.786 0 .649.001.654.07.8.199.418.647.662 1.076.585.33-.06.612-.277.758-.585.069-.146.07-.151.07-.8s-.001-.654-.07-.8a1.016 1.016 0 0 0-.471-.486c-.155-.076-.209-.088-.419-.095-.203-.006-.264.003-.39.056" fill-rule="evenodd"/></svg>