<svg width="16" height="16" xmlns="http://www.w3.org/2000/svg"><path d="M3.673 1.045a2.877 2.877 0 0 0-1.789.839c-.476.476-.734 1.007-.837 1.724C1.004 3.907 1 4.263 1 8s.004 4.093.047 4.392c.103.717.361 1.248.837 1.724s1.007.734 1.724.837c.299.043.654.047 4.365.047 4.254 0 4.322-.002 4.807-.121a2.898 2.898 0 0 0 2.099-2.099c.119-.485.121-.553.121-4.807 0-3.711-.004-4.066-.047-4.365-.103-.717-.361-1.248-.837-1.724-.499-.499-1.08-.766-1.834-.841-.359-.036-8.257-.035-8.609.002m3.314 3.968v2H3.013l.001-1.486c.001-.818.013-1.576.027-1.685.032-.246.097-.383.257-.544a.821.821 0 0 1 .52-.256 39.52 39.52 0 0 1 1.669-.025l1.5-.004v2m5.367-1.941c.247.084.49.327.574.574.037.11.044.342.052 1.747l.01 1.62H9.013V3.01l1.607.01c1.393.008 1.624.015 1.734.052m-5.367 7.945v2.003l-1.5-.014c-1.543-.015-1.748-.028-1.955-.127a1.11 1.11 0 0 1-.412-.413c-.091-.187-.105-.454-.106-1.979l-.001-1.474h3.974v2.004m5.999-.53c-.001 1.525-.015 1.792-.106 1.979a1.11 1.11 0 0 1-.412.413c-.207.099-.412.112-1.955.127l-1.5.014V9.013h3.974l-.001 1.474" fill-rule="evenodd"/></svg>