<svg width="16" height="16" xmlns="http://www.w3.org/2000/svg"><path d="M2.637 3.076a.908.908 0 0 0-.408.293c-.163.199-.212.344-.213.631 0 .216.01.275.068.4.145.311.429.528.769.586.125.021 1.759.027 5.76.022L14.2 5l.141-.058c.406-.166.652-.521.652-.942a.989.989 0 0 0-.655-.937c-.131-.045-.437-.048-5.845-.048H2.787l-.15.061m2 4a.908.908 0 0 0-.408.293c-.163.199-.212.344-.213.631 0 .216.01.275.068.4.145.311.429.528.769.586.124.021 1.486.027 4.76.022L14.2 9l.141-.058c.406-.166.652-.521.652-.942a.989.989 0 0 0-.655-.937c-.13-.045-.397-.048-4.845-.048H4.787l-.15.061m2 4a.908.908 0 0 0-.408.293c-.163.199-.212.344-.213.631 0 .216.01.275.068.4.145.311.429.528.769.586.123.021 1.214.027 3.76.022L14.2 13l.141-.058c.406-.166.652-.521.652-.942a.97.97 0 0 0-.4-.8c-.259-.198.039-.185-4.1-.185H6.787l-.15.061" fill-rule="evenodd"/></svg>