<svg width="16" height="16" xmlns="http://www.w3.org/2000/svg"><path d="M10.667 2.016c-.878.105-1.577.399-2.214.932-.11.092-.424.394-.699.672-.539.545-.608.644-.663.959-.033.187.019.46.121.635.09.153.285.325.463.408.131.062.186.071.405.071.397 0 .459-.037 1.106-.676.586-.578.665-.646.921-.786.281-.154.545-.216.92-.215.375.001.564.043.88.199.507.25.926.781 1.039 1.318a2.55 2.55 0 0 1 0 .88 2.274 2.274 0 0 1-.31.7c-.048.07-.34.385-.65.7-.653.664-.688.721-.688 1.107 0 .277.072.468.253.666a.993.993 0 0 0 1.279.171c.178-.113 1.235-1.199 1.418-1.456a3.977 3.977 0 0 0-2.459-6.223c-.247-.049-.919-.087-1.122-.062m-.32 3.432a1.968 1.968 0 0 0-.227.084c-.128.06-4.425 4.333-4.546 4.521a1.292 1.292 0 0 0-.122.279c-.126.438.118.958.543 1.157.133.062.185.071.418.071.464 0 .255.177 2.768-2.331 2.538-2.532 2.379-2.343 2.379-2.815 0-.234-.009-.286-.071-.419-.194-.413-.725-.667-1.142-.547M4.342 7.155c-.208.088-.28.15-.877.756-.539.545-.727.775-.941 1.142a4.011 4.011 0 0 0-.309 3.259 4.034 4.034 0 0 0 1.917 2.232 3.961 3.961 0 0 0 3.676.003c.151-.079.373-.213.493-.299.257-.183 1.343-1.24 1.456-1.418.461-.725-.149-1.661-.994-1.524-.28.046-.368.108-.936.667-.621.609-.707.682-.967.812a1.971 1.971 0 0 1-2.645-.878c-.156-.316-.198-.505-.199-.88-.001-.375.061-.639.215-.92.14-.256.208-.335.786-.921.639-.648.676-.709.676-1.106 0-.233-.007-.269-.087-.432a1.07 1.07 0 0 0-.479-.476c-.098-.048-.184-.064-.38-.071-.221-.008-.273-.001-.405.054" fill-rule="evenodd"/></svg>