<svg width="16" height="16" xmlns="http://www.w3.org/2000/svg"><path d="M3.513 1.045c-.287.029-.694.13-.893.221a2.93 2.93 0 0 0-1.298 1.255c-.306.603-.346 1.392-.328 6.452.013 3.49.014 3.507.141 4.007.145.575.542 1.136 1.065 1.506.492.348.878.456 1.8.501.677.033 7.323.033 8 0 .922-.045 1.308-.153 1.8-.501.524-.371.92-.93 1.066-1.509.124-.489.127-.55.139-4.002.019-5.052-.021-5.851-.327-6.454a2.93 2.93 0 0 0-1.298-1.255c-.213-.097-.6-.189-.938-.223-.359-.036-8.577-.035-8.929.002m1.474 2.968v1H3.005l.017-.513c.019-.599.061-1.016.111-1.112.043-.081.215-.249.302-.293.104-.054.367-.075.972-.078l.58-.004v1m4 0v1H7.013v-2h1.974v1m3.502-.947a.888.888 0 0 1 .378.321c.05.098.092.514.111 1.113l.017.513h-1.982V3.007l.687.014c.414.008.727.026.789.045m.498 6.492c0 1.64-.01 2.619-.029 2.753-.041.308-.205.527-.459.615-.207.071-.967.085-4.499.085-3.532 0-4.292-.014-4.499-.085-.254-.088-.418-.307-.459-.615-.019-.134-.029-1.113-.029-2.753V7.013h9.974v2.545" fill-rule="evenodd"/></svg>