<svg width="16" height="16" xmlns="http://www.w3.org/2000/svg"><path d="M10.733 1.032c-.363.051-.908.273-1.228.501C8.719 2.095 8.256 3.078 8.344 4c.015.157.013.236-.008.257-.016.017-.633.377-1.371.799-1.129.646-1.349.763-1.387.737-.617-.435-1.246-.626-1.918-.582a2.833 2.833 0 0 0-2.551 2.023 2.776 2.776 0 0 0 1.174 3.104c.95.619 2.235.606 3.146-.03.096-.067.182-.121.192-.121.011 0 .634.351 1.385.78l1.366.78-.016.078c-.027.135-.018.661.015.842.264 1.447 1.609 2.467 3.059 2.319a2.834 2.834 0 0 0 2.483-2.101c.061-.227.07-.309.07-.685 0-.376-.009-.458-.07-.685a2.826 2.826 0 0 0-2.223-2.063 3.57 3.57 0 0 0-1.237.041 3.576 3.576 0 0 0-.918.422c-.114.079-.169.102-.2.085l-1.36-.779-1.319-.755v-.928l1.319-.757 1.361-.782c.031-.017.069-.004.134.044.682.51 1.649.685 2.471.448a2.829 2.829 0 0 0 1.972-2.006c.061-.227.07-.309.07-.685 0-.376-.009-.458-.07-.685a2.796 2.796 0 0 0-1.014-1.524 2.846 2.846 0 0 0-1.191-.536 4.668 4.668 0 0 0-.975-.023m.808 2.063a.816.816 0 0 1 .384.379c.085.161.084.492-.001.654a.836.836 0 0 1-.409.392.84.84 0 0 1-1.105-.4.796.796 0 0 1 .002-.64c.153-.314.395-.461.764-.465a.62.62 0 0 1 .365.08M4.19 7.286a.86.86 0 0 1 .402.393.859.859 0 0 1 0 .642.876.876 0 0 1-.405.397.895.895 0 0 1-.726-.006.79.79 0 0 1 .138-1.477.942.942 0 0 1 .591.051m7.351 4.209a.816.816 0 0 1 .384.379c.085.161.084.492-.001.654a.836.836 0 0 1-.409.392.838.838 0 0 1-1.108-.408c-.056-.121-.064-.173-.056-.348.008-.177.021-.226.098-.352a.882.882 0 0 1 .42-.357c.057-.021.195-.039.307-.04a.62.62 0 0 1 .365.08" fill-rule="evenodd"/></svg>