<svg width="16" height="16" xmlns="http://www.w3.org/2000/svg"><path d="M6.22 1.042a3.283 3.283 0 0 0-.359.066c-.762.197-1.456.901-1.703 1.725l-.054.18-.418.001c-1.007.001-1.629.201-2.15.691-.323.304-.475.649-.522 1.183-.035.396-.035 5.828 0 6.224.056.635.277 1.038.762 1.384.473.338.938.459 1.967.512l.369.019.073.213c.228.672.71 1.232 1.298 1.51.462.218.878.262 2.517.262 1.639 0 2.055-.044 2.517-.262.587-.277 1.069-.838 1.297-1.51l.073-.213.37-.019c1.029-.053 1.494-.174 1.967-.512.485-.346.706-.749.762-1.384.035-.396.035-5.828 0-6.224-.056-.635-.279-1.04-.759-1.381-.479-.34-.923-.461-1.779-.485l-.551-.016-.072-.216c-.288-.873-.965-1.517-1.8-1.712-.176-.042-.39-.047-1.905-.053-.939-.004-1.794.004-1.9.017m3.478 2.041a.897.897 0 0 1 .257.416c.039.162.058 8.262.02 8.724-.024.287-.04.364-.098.471-.132.243-.173.266-.533.294-.411.031-2.277.031-2.688 0-.289-.023-.323-.031-.39-.095-.15-.144-.21-.301-.239-.629-.036-.411-.036-8.117 0-8.528.022-.244.041-.329.097-.432.088-.162.169-.238.281-.265.049-.012.792-.019 1.653-.017 1.544.005 1.566.005 1.64.061M4 8.012v2.998l-.38-.015a3.386 3.386 0 0 1-.487-.047l-.106-.03-.007-2.904c-.004-1.598.003-2.914.015-2.926.043-.043.262-.069.612-.072L4 5.013v2.999m8.913-2.95.074.03-.007 2.913-.007 2.913-.106.03a3.386 3.386 0 0 1-.487.047l-.38.015V5.007l.42.012c.231.007.453.027.493.043" fill-rule="evenodd"/></svg>