<svg width="16" height="16" xmlns="http://www.w3.org/2000/svg"><path d="M2.507 1.067A1.994 1.994 0 0 0 1.215 2.12C.98 2.604 1 2.052 1 8c0 5.948-.02 5.396.215 5.88.195.402.503.71.905.905.445.216.385.21 2.185.222 1.712.011 1.977-.002 2.32-.111.614-.195 1.092-.692 1.299-1.35l.063-.199V2.653l-.063-.2c-.21-.669-.685-1.148-1.365-1.377-.135-.045-.285-.049-1.999-.054-1.762-.006-1.863-.004-2.053.045m6.84-.012a.678.678 0 0 0-.284.87c.085.173 2.577 2.951 2.709 3.018.135.07.321.07.456 0 .13-.067 2.624-2.844 2.708-3.016a.699.699 0 0 0-.095-.718c-.179-.21.031-.196-2.845-.196-2.273.001-2.579.005-2.649.042M6 8.013v5H3.013v-10H6v5m5.734-1.97a.994.994 0 0 0-.718.796c-.041.219-.041 6.102 0 6.323.06.329.279.612.584.754.125.058.184.068.4.068.216 0 .275-.01.4-.068.305-.142.524-.425.584-.754.041-.221.041-6.104 0-6.323a.989.989 0 0 0-.73-.798.903.903 0 0 0-.52.002" fill-rule="evenodd"/></svg>