<svg width="16" height="16" xmlns="http://www.w3.org/2000/svg"><path d="M3.673 1.045a2.877 2.877 0 0 0-1.789.839c-.476.476-.734 1.007-.837 1.724C1.004 3.907 1 4.263 1 8s.004 4.093.047 4.392c.103.717.361 1.248.837 1.724s1.007.734 1.724.837c.299.043.654.047 4.365.047 4.254 0 4.322-.002 4.807-.121a2.898 2.898 0 0 0 2.099-2.099c.119-.485.121-.553.121-4.807 0-3.711-.004-4.066-.047-4.365-.103-.717-.361-1.248-.837-1.724-.499-.499-1.08-.766-1.834-.841-.359-.036-8.257-.035-8.609.002m8.681 2.026c.248.086.489.327.575.575.04.116.045.488.052 4.194.005 2.644-.002 4.145-.02 4.291-.032.27-.094.405-.259.571-.157.156-.287.22-.542.264-.292.05-8.028.05-8.32 0-.255-.044-.385-.108-.542-.264-.16-.161-.225-.298-.257-.544-.035-.266-.035-8.05 0-8.316.032-.246.097-.383.257-.544a.821.821 0 0 1 .52-.256c.093-.013 2.023-.021 4.289-.019 3.762.004 4.131.008 4.247.048M5.662 5.063c-.621.215-.86 1.011-.459 1.533a1.1 1.1 0 0 0 .456.344c.124.049.211.057.733.068l.592.011.008 1.591c.008 1.562.009 1.592.066 1.731.166.406.521.652.942.652.421 0 .776-.246.942-.652.057-.139.058-.169.066-1.731l.008-1.591.592-.011c.522-.011.609-.019.733-.068a.997.997 0 0 0 .652-.94.97.97 0 0 0-.4-.8c-.252-.193-.14-.185-2.593-.185-2.042 0-2.21.003-2.338.048" fill-rule="evenodd"/></svg>