<svg width="16" height="16" xmlns="http://www.w3.org/2000/svg"><path d="M1.533.03C1.12.084.846.221.531.533.353.709.279.805.204.96c-.198.408-.191.313-.191 2.547 0 1.856.004 2.012.049 2.173.143.508.468.901.938 1.135.355.176.376.178 2.24.191 1.872.013 2.235-.003 2.56-.112.507-.17.924-.587 1.094-1.095.102-.303.118-.62.118-2.292 0-1.589-.019-2.007-.104-2.282A1.801 1.801 0 0 0 6.061.219c-.4-.208-.32-.201-2.448-.208C2.572.008 1.636.016 1.533.03m9.011-.002a1.727 1.727 0 0 0-1.36.973c-.176.362-.177.377-.19 2.239-.013 1.856.003 2.224.11 2.56.157.494.604.94 1.102 1.098.33.105.707.121 2.554.108 1.864-.013 1.885-.015 2.24-.191.47-.234.795-.627.938-1.135.045-.161.049-.317.049-2.173 0-2.234.007-2.139-.191-2.547a1.42 1.42 0 0 0-.314-.416c-.324-.324-.605-.462-1.055-.516-.265-.033-3.635-.032-3.883 0M4.987 3.507v1.506H2V2h2.987v1.507m9.013 0v1.506h-2.987V2H14v1.507M1.455 8.935a1.766 1.766 0 0 0-1.347 1.14c-.103.309-.111.501-.102 2.512.01 2.151.002 2.047.199 2.453.135.28.475.619.755.756.409.198.307.191 2.6.191 1.905 0 2.066-.004 2.224-.049.395-.112.753-.357.974-.667.157-.22.241-.413.301-.689.043-.202.048-.394.047-2.155 0-2.182.003-2.142-.203-2.56a1.79 1.79 0 0 0-.77-.77c-.388-.191-.387-.191-2.595-.187-1.073.002-2.01.013-2.083.025m8.91.015a1.76 1.76 0 0 0-.922.532 1.64 1.64 0 0 0-.37.638L9 10.333v2.094c0 1.922.004 2.107.047 2.264.169.611.644 1.08 1.26 1.246.175.046.313.05 2.186.05 2.234 0 2.139.007 2.547-.191.28-.137.619-.476.756-.756.198-.409.191-.307.191-2.6 0-1.905-.004-2.066-.049-2.224a1.799 1.799 0 0 0-1.221-1.25c-.127-.038-.377-.044-2.157-.05-1.698-.005-2.042 0-2.195.034m-5.272 3.503V14H2v-3.093h3.093v1.546m8.907 0V14h-3.013v-3.093H14v1.546" fill-rule="evenodd"/></svg>