<svg width="16" height="16" xmlns="http://www.w3.org/2000/svg"><path d="M1.662 1.063c-.258.089-.49.318-.604.596-.056.136-.058.174-.055 1.048.004.913.029 1.294.108 1.613.163.664.707 1.262 1.376 1.513.464.175.252.169 5.64.16 5.354-.009 4.977.003 5.41-.168.513-.202 1.047-.717 1.251-1.206.158-.377.204-.858.194-1.992l-.009-.88-.071-.152a1.051 1.051 0 0 0-.455-.478c-.16-.086-.179-.09-.447-.09-.255 0-.294.007-.439.078-.209.102-.373.27-.476.49L13 1.773l-.015 1c-.01.648-.025 1.019-.044 1.054a.546.546 0 0 1-.088.107c-.058.052-.11.053-4.792.06-3.243.004-4.766-.002-4.837-.021-.197-.053-.195-.044-.212-1.172-.015-.935-.019-1.01-.072-1.142a1.048 1.048 0 0 0-.602-.596 1.233 1.233 0 0 0-.676 0m.496 6.001c-.275.107-.447.273-.579.556-.059.128-.071.191-.071.38-.001.199.009.248.084.405.151.321.422.525.773.583.209.034 11.061.034 11.27 0 .351-.058.622-.262.773-.583.074-.157.085-.206.085-.405 0-.199-.011-.248-.085-.405a1.017 1.017 0 0 0-.476-.49l-.159-.078-5.746-.006c-5.479-.005-5.753-.003-5.869.043m.922 2.964a2.27 2.27 0 0 0-1.691 1.02c-.311.457-.381.863-.386 2.245-.003.874-.001.912.055 1.048.166.406.521.652.942.652.421 0 .78-.249.94-.652.053-.132.057-.208.072-1.141.011-.669.027-1.018.047-1.054.078-.14-.197-.133 4.956-.133 4.733 0 4.78.001 4.838.053.032.03.072.078.088.107.019.035.036.399.046 1.04.016.918.021.997.073 1.128a.997.997 0 0 0 .94.652.996.996 0 0 0 .939-.652c.046-.116.058-.22.068-.581.015-.526-.034-1.614-.085-1.893a2.037 2.037 0 0 0-.558-1.113c-.419-.441-.856-.657-1.471-.726-.283-.032-9.522-.032-9.813 0" fill-rule="evenodd"/></svg>