<svg width="16" height="16" xmlns="http://www.w3.org/2000/svg"><path d="M3.449 1.053a2.82 2.82 0 0 0-.813.285c-.851.433-1.423 1.214-1.6 2.182-.053.296-.053 8.664 0 8.96.231 1.266 1.147 2.207 2.405 2.469.272.056 1.441.083 1.695.039.352-.061.633-.273.78-.588.058-.125.068-.184.068-.4 0-.216-.01-.275-.068-.4a1.01 1.01 0 0 0-.47-.486l-.178-.087-.734-.016c-.662-.013-.748-.02-.875-.071a1.05 1.05 0 0 1-.596-.602c-.04-.116-.048-.233-.049-.731l-.001-.594h.995c.602 0 1.058-.011 1.154-.029.329-.06.612-.279.754-.584.058-.125.068-.184.068-.4 0-.216-.01-.275-.068-.4a1.01 1.01 0 0 0-.47-.486l-.178-.087-1.127-.008-1.128-.007V7.015l5.567-.008c5.084-.008 5.579-.013 5.71-.053a.994.994 0 0 0 .674-.714c.052-.211.052-2.433 0-2.72-.231-1.27-1.198-2.252-2.427-2.468-.313-.054-8.786-.054-9.088.001M12.43 3.1c.178.088.403.316.485.493.054.118.059.174.067.774l.008.646H3.013l.001-.606c.001-.512.009-.629.049-.745.091-.263.336-.508.599-.6.131-.045.363-.047 4.378-.041l4.24.006.15.073m1.259 5.95c-.062.02-.158.064-.214.098-.056.033-.86.817-1.788 1.742l-1.686 1.681-.7-.694c-.845-.837-.865-.85-1.301-.85-.251 0-.295.007-.428.072a1.019 1.019 0 0 0-.558 1.053c.054.329.079.361 1.276 1.558.918.917 1.136 1.122 1.258 1.18.194.093.41.127.604.096.346-.057.275.006 2.558-2.276 2.282-2.283 2.219-2.212 2.276-2.558.068-.42-.165-.86-.557-1.052-.12-.059-.189-.073-.388-.079a1.207 1.207 0 0 0-.352.029" fill-rule="evenodd"/></svg>