<svg width="16" height="16" xmlns="http://www.w3.org/2000/svg"><path d="M7.493 1.044c-.398.065-.882.27-1.24.523-.443.315-.868.853-1.04 1.32l-.047.126H3.742l-.082-.126a2.158 2.158 0 0 0-.9-.734c-.258-.107-.434-.139-.76-.139-.364 0-.519.034-.84.185A1.976 1.976 0 0 0 .156 4.767c.191.471.606.886 1.077 1.077a1.999 1.999 0 0 0 1.874-.182c.189-.128.455-.392.547-.541l.066-.107.729.006.729.007.064.15c.076.182.232.454.336.587a.451.451 0 0 1 .075.121c0 .013-.045.04-.1.06a6.012 6.012 0 0 0-.394.174c-.947.446-1.757 1.159-2.367 2.081a7.319 7.319 0 0 0-.353.602l-.141.281-.169.047c-.816.227-1.596.946-1.914 1.763-.163.422-.201.631-.201 1.107 0 .306.012.468.049.627a3.027 3.027 0 0 0 2.671 2.36 3.014 3.014 0 0 0 1.576-.293 2.995 2.995 0 0 0 1.366-4.045A3.055 3.055 0 0 0 4.647 9.5l-.223-.145.045-.071c.257-.405.733-.874 1.173-1.156.39-.249.98-.465 1.518-.556a5.767 5.767 0 0 1 1.68 0c.538.091 1.128.307 1.518.556.44.282.916.751 1.173 1.156l.045.071-.223.145a2.997 2.997 0 0 0-.867 4.133 3.03 3.03 0 0 0 2.246 1.354c.881.091 1.824-.269 2.453-.936a2.998 2.998 0 0 0 .508-3.367 3.022 3.022 0 0 0-1.789-1.54l-.203-.062-.141-.281c-.582-1.161-1.579-2.144-2.719-2.682a6.012 6.012 0 0 0-.394-.174c-.055-.02-.1-.047-.1-.06 0-.013.034-.068.077-.121.089-.114.258-.412.34-.603l.058-.134.729-.007.729-.006.066.108c.091.147.378.431.556.549a2.014 2.014 0 0 0 2.205-.009 1.996 1.996 0 0 0 .39-2.982 2.32 2.32 0 0 0-1.044-.63c-.19-.047-.718-.046-.906 0-.476.119-.957.452-1.207.837l-.082.126h-1.422l-.061-.153C10.402 1.931 9.48 1.2 8.48 1.041a4.859 4.859 0 0 0-.987.003m.938 2.057c.177.087.402.316.484.492.048.105.058.175.058.407 0 .251-.007.295-.072.428a1.019 1.019 0 0 1-1.053.558 1.039 1.039 0 0 1-.747-.556 1.157 1.157 0 0 1-.051-.729c.08-.274.335-.541.612-.64.211-.075.572-.056.769.04m-4.985 8.013c.714.352.731 1.386.029 1.759-.814.433-1.712-.345-1.408-1.22a.982.982 0 0 1 .566-.576c.131-.055.19-.064.394-.058.21.007.264.019.419.095m10 0c.714.352.731 1.386.029 1.759-.814.433-1.712-.345-1.408-1.22a.982.982 0 0 1 .566-.576c.131-.055.19-.064.394-.058.21.007.264.019.419.095" fill-rule="evenodd"/></svg>