<svg width="16" height="16" xmlns="http://www.w3.org/2000/svg"><path d="M5.196 1.05c-.275.1-.486.29-.606.547-.06.129-.07.185-.07.403 0 .218.01.274.07.403.129.275.35.469.637.559.142.045.096.047-1.64.05-1.991.003-1.932-.002-2.18.188a.97.97 0 0 0-.4.8c0 .422.249.781.652.94.124.049.211.057.733.068.656.012.599-.006.635.204.03.178.104.292.736 1.137.336.449.61.827.61.84 0 .013-.719.744-1.597 1.624-1.709 1.712-1.702 1.703-1.761 2.03-.077.427.17.879.585 1.073.125.058.184.068.4.068.447 0 .347.079 2.086-1.658 1.309-1.307 1.519-1.506 1.55-1.472.02.022.164.209.319.417.342.457.409.524.632.632.155.075.198.084.413.084.207 0 .262-.011.403-.076a1.13 1.13 0 0 0 .509-.511c.064-.138.075-.193.075-.4 0-.324-.045-.412-.547-1.08l-.406-.54.894-.897c.541-.543.914-.938.946-1.003.051-.101.092-.233.125-.39l.014-.071.593-.011c.524-.011.611-.018.735-.068a.997.997 0 0 0 .652-.94.97.97 0 0 0-.4-.8c-.248-.19-.189-.185-2.18-.188-1.736-.003-1.782-.005-1.64-.05a1.03 1.03 0 0 0 .637-.559c.06-.129.07-.185.07-.403 0-.219-.01-.274-.071-.405a1.053 1.053 0 0 0-.456-.478l-.166-.09-.747-.007c-.569-.004-.77.003-.844.03M6.56 5.02c0 .004-.166.173-.369.375l-.369.368-.271-.361a6.38 6.38 0 0 1-.271-.375c0-.007.288-.014.64-.014.352 0 .64.003.64.007m4.542 1.178a1.351 1.351 0 0 0-.831.647c-.187.317-3.36 6.792-3.393 6.924-.051.203-.019.469.079.669a.995.995 0 0 0 1.597.264c.11-.111.202-.278.645-1.175l.517-1.047H13.137l.508 1.033c.562 1.143.619 1.23.897 1.367a.988.988 0 0 0 .933-.006c.396-.211.609-.703.488-1.122-.051-.174-3.251-6.694-3.408-6.944-.199-.316-.519-.55-.843-.618a1.546 1.546 0 0 0-.61.008m1.031 4.262c0 .011-.318.02-.706.02-.451 0-.707-.01-.707-.027 0-.014.159-.345.353-.735l.354-.708.353.715c.194.393.353.724.353.735" fill-rule="evenodd"/></svg>