<svg width="16" height="16" xmlns="http://www.w3.org/2000/svg"><path d="M7.734 2.043a.994.994 0 0 0-.718.796c-.041.221-.041 10.1 0 10.323.06.329.279.612.584.754.125.058.184.068.4.068.216 0 .275-.01.4-.068.305-.142.524-.425.584-.754.041-.223.041-10.102 0-10.323a.989.989 0 0 0-.73-.798.903.903 0 0 0-.52.002M1.97 4.408a.93.93 0 0 0-.408.294c-.163.2-.212.344-.212.631-.001.401.034.458.677 1.106.293.296.533.545.533.555 0 .009-.411.021-.914.025l-.914.008-.178.087a1.01 1.01 0 0 0-.47.486c-.058.125-.068.184-.068.4 0 .216.01.275.068.4.142.305.425.524.754.584.091.017.494.029.945.029h.787l-.538.542c-.648.654-.683.71-.683 1.112 0 .216.011.275.069.4.19.408.652.663 1.063.587.345-.065.351-.07 1.911-1.633C6.055 8.355 5.984 8.446 5.984 8c0-.446.071-.355-1.592-2.021-1.66-1.663-1.598-1.613-2.031-1.626-.204-.006-.264.002-.391.055m11.334 0a1.49 1.49 0 0 0-.227.119c-.042.031-.715.696-1.496 1.478C9.948 7.642 10.016 7.555 10.016 8c0 .446-.071.355 1.592 2.021 1.562 1.565 1.567 1.569 1.913 1.633.412.075.871-.18 1.061-.587.058-.125.069-.184.069-.4 0-.402-.035-.458-.683-1.112l-.538-.542h.787c.451 0 .854-.012.945-.029.329-.06.612-.279.754-.584.058-.125.068-.184.068-.4 0-.216-.01-.275-.068-.4a1.01 1.01 0 0 0-.47-.486l-.178-.087-.914-.008c-.503-.004-.914-.016-.914-.025 0-.01.24-.259.533-.555.643-.647.678-.705.678-1.106 0-.216-.011-.275-.069-.4a1 1 0 0 0-.469-.485c-.156-.077-.209-.089-.419-.095-.203-.006-.264.002-.39.055"/></svg>