<svg width="16" height="16" xmlns="http://www.w3.org/2000/svg"><path d="M5.339 1.058a.69.69 0 0 0-.295.352c-.052.173-.039.406.029.533.033.061.632.751 1.33 1.533C7.32 4.503 7.7 4.91 7.773 4.945a.586.586 0 0 0 .454 0c.073-.035.453-.442 1.37-1.469.698-.782 1.297-1.472 1.33-1.533.113-.21.071-.551-.09-.74-.175-.203.028-.19-2.841-.189-2.318 0-2.578.005-2.657.044m2.395 4.985a.992.992 0 0 0-.72.813c-.021.12-.027 1.247-.022 3.757L7 14.2l.058.141c.166.406.521.652.942.652.421 0 .776-.246.942-.652L9 14.2l.008-3.587c.005-2.51-.001-3.637-.022-3.757a.987.987 0 0 0-.732-.815.903.903 0 0 0-.52.002" fill-rule="evenodd"/></svg>