<svg width="16" height="16" xmlns="http://www.w3.org/2000/svg"><path d="M1.734 2.043a.995.995 0 0 0-.718.797c-.079.427.166.878.584 1.077l.147.07h12.506l.147-.07c.418-.199.663-.65.584-1.077a1 1 0 0 0-.445-.676c-.273-.175.18-.164-6.551-.162-5.285.001-6.128.007-6.254.041m-.072 5.019c-.622.216-.86 1.012-.459 1.534.113.148.279.274.456.346L1.8 9l5.147.013 5.146.014.12.084c.167.117.404.368.514.542.207.332.271.658.254 1.299-.013.459-.032.544-.185.798-.142.237-.135.235-.792.245l-.572.009.194-.209c.119-.127.226-.276.277-.382.075-.154.084-.199.084-.413 0-.207-.011-.262-.076-.403a1.13 1.13 0 0 0-.511-.509c-.137-.063-.194-.074-.4-.074-.217 0-.258.008-.427.088-.173.082-.267.168-1.285 1.186-1.02 1.02-1.105 1.112-1.187 1.285-.079.168-.088.211-.088.427s.009.259.088.427c.082.173.167.265 1.187 1.285 1.018 1.017 1.112 1.105 1.285 1.186.169.08.211.089.427.089.207 0 .262-.011.403-.076a1.13 1.13 0 0 0 .509-.511c.064-.138.075-.193.075-.4 0-.214-.009-.259-.084-.413a1.718 1.718 0 0 0-.275-.38L11.436 14h.568c.824 0 1.203-.076 1.663-.332.345-.192.747-.657.996-1.154.267-.532.381-1.248.325-2.04-.046-.646-.163-1.116-.392-1.577-.18-.364-.366-.614-.716-.967-.427-.43-.809-.681-1.28-.84l-.187-.063-5.306-.006c-5.042-.006-5.314-.004-5.445.041m.072 4.981a.995.995 0 0 0-.718.797c-.079.427.166.878.584 1.077l.147.07h4.506l.147-.07c.857-.407.761-1.639-.146-1.876-.231-.06-4.295-.059-4.52.002" fill-rule="evenodd"/></svg>