<svg width="16" height="16" xmlns="http://www.w3.org/2000/svg"><path d="M7.691 2.04c-.199.043-.44.162-.59.292-.14.121-.36.451-.537.804-.242.486-4.465 9.594-4.518 9.744-.135.387.054.829.442 1.033.12.063.169.073.365.072.279-.001.425-.06.608-.244.115-.116.206-.301 1.031-2.081l.905-1.953h5.205l.906 1.953c.826 1.782.916 1.965 1.031 2.081.179.18.33.242.594.244.177.001.239-.01.363-.068.394-.185.596-.642.458-1.037-.053-.15-4.278-9.261-4.519-9.745-.184-.368-.397-.683-.548-.809a1.388 1.388 0 0 0-1.196-.286m1.218 4.02.894 1.927-.902.007c-.495.004-1.307.004-1.803 0l-.901-.007.894-1.927c.491-1.06.9-1.927.909-1.927.009 0 .418.867.909 1.927" fill-rule="evenodd"/></svg>