<svg width="15" height="15" xmlns="http://www.w3.org/2000/svg"><path d="M1.312 1.045a.575.575 0 0 0-.289.336c-.042.155-.014 1.776.037 2.096.067.427.219.727.509 1.003.314.299.628.442 1.088.493.336.038 9.35.038 9.686 0 .532-.059.906-.254 1.233-.641.357-.424.435-.844.42-2.259l-.008-.739-.068-.102c-.103-.156-.225-.22-.42-.22-.195 0-.317.064-.42.22l-.067.102-.016.927c-.018 1.016-.037 1.199-.148 1.374a.813.813 0 0 1-.436.32c-.179.047-9.675.048-9.827.002a.836.836 0 0 1-.42-.314c-.121-.179-.14-.34-.159-1.402-.014-.818-.018-.878-.067-.975a.499.499 0 0 0-.628-.221m.057 5.98a.563.563 0 0 0-.299.22c-.045.072-.057.129-.057.259 0 .145.009.181.075.275.279.401.914.212.911-.272a.493.493 0 0 0-.63-.482m2.978.008c-.295.11-.426.406-.3.68.187.405.789.371.929-.053a.548.548 0 0 0-.06-.434.522.522 0 0 0-.569-.193m2.992.003a.457.457 0 0 0-.282.239.494.494 0 0 0 .249.686.496.496 0 1 0 .033-.925m3 0a.457.457 0 0 0-.282.239.494.494 0 0 0 .249.686.53.53 0 0 0 .541-.093.55.55 0 0 0 .152-.37.505.505 0 0 0-.66-.462m2.999-.007c-.434.16-.455.756-.032.932.215.09.47.014.606-.182.064-.092.076-.132.076-.262 0-.201-.067-.331-.217-.424-.126-.079-.318-.107-.433-.064m-10.55 2.987c-.567.046-.939.208-1.267.553-.272.284-.396.542-.461.954-.042.263-.08 1.831-.05 2.031a.51.51 0 0 0 .704.399.497.497 0 0 0 .257-.284c.013-.045.031-.464.038-.931.017-1.033.036-1.203.154-1.377.149-.219.295-.3.603-.335.283-.033 9.157-.035 9.463-.002.425.044.657.25.723.639.016.096.036.586.045 1.091l.016.917.075.106c.11.157.262.231.443.215a.481.481 0 0 0 .389-.224l.068-.102.008-.739c.012-1.105-.043-1.628-.205-1.943-.197-.384-.617-.744-1.014-.869a2.694 2.694 0 0 0-.479-.088c-.257-.024-9.218-.034-9.51-.011" fill-rule="evenodd"/></svg>