<svg width="15" height="15" xmlns="http://www.w3.org/2000/svg"><path d="M1.342 1.025A.522.522 0 0 0 1 1.504c0 .151.089.314.223.409l.106.075.942.017c.518.009 1.007.028 1.088.042.363.064.568.304.615.72.035.301.035 9.165 0 9.466-.029.255-.077.365-.227.514-.213.213-.302.228-1.447.244-.488.007-.924.024-.969.038a.5.5 0 0 0-.33.459.54.54 0 0 0 .367.485c.119.034 1.247.035 1.721.002.566-.038.798-.101 1.089-.291.323-.212.613-.591.719-.94.103-.341.106-.503.097-5.431-.009-5.142 0-4.813-.144-5.195-.138-.366-.536-.779-.911-.945-.164-.073-.438-.122-.825-.148-.427-.029-1.674-.029-1.772 0m5.944.035c-.221.113-.325.332-.265.558.064.238.245.38.486.381a.496.496 0 0 0 .437-.725.487.487 0 0 0-.658-.214m4.549-.035c-.636.045-.959.175-1.304.528-.25.257-.358.447-.464.818l-.054.192-.008 4.737c-.006 3.319 0 4.819.019 5.008.05.486.189.801.496 1.123.351.367.678.496 1.391.544.474.033 1.602.032 1.721-.002a.54.54 0 0 0 .367-.485.5.5 0 0 0-.33-.459c-.045-.014-.481-.031-.969-.038-1.145-.016-1.234-.031-1.447-.244-.15-.149-.198-.259-.227-.514-.033-.282-.035-9.156-.002-9.462.043-.413.254-.66.617-.724a16.4 16.4 0 0 1 1.086-.042l.939-.017.102-.068c.156-.103.22-.225.22-.42 0-.195-.064-.317-.22-.42l-.102-.068-.777-.003c-.427-.001-.901.006-1.054.016M7.33 4.027c-.122.037-.265.193-.304.331-.133.477.425.84.803.522.33-.278.145-.847-.284-.871a.766.766 0 0 0-.215.018m-.05 3.026a.502.502 0 0 0 .002.894.496.496 0 0 0 .717-.447.497.497 0 0 0-.719-.447m0 3a.502.502 0 0 0 .002.894.496.496 0 0 0 .717-.447.497.497 0 0 0-.719-.447m-.001 3.001c-.396.196-.344.801.079.92a.498.498 0 1 0-.079-.92" fill-rule="evenodd"/></svg>