<svg width="16" height="16" xmlns="http://www.w3.org/2000/svg"><path d="M2.485 1.044c-.603.086-1.178.561-1.362 1.124C.999 2.546 1 2.523 1 6c0 2.573.008 3.334.034 3.48.099.535.325.902.736 1.19.409.288.582.316 2.047.335l1.163.015.015 1.177c.016 1.236.028 1.375.15 1.7.069.183.274.48.427.619.275.248.561.382.961.45.291.049 6.643.049 6.934 0 .549-.094.935-.335 1.224-.768.143-.214.223-.427.275-.731.049-.291.049-6.643 0-6.934a1.74 1.74 0 0 0-1.247-1.444c-.202-.056-.273-.06-1.456-.069l-1.244-.01-.013-1.205c-.016-1.357-.026-1.451-.205-1.818a1.731 1.731 0 0 0-1.321-.946c-.236-.034-6.758-.031-6.995.003m6.791.982c.335.038.522.169.655.454.056.12.056.126.056 3.52s0 3.4-.056 3.52a.743.743 0 0 1-.598.452c-.236.038-6.426.038-6.666 0a.764.764 0 0 1-.62-.513c-.049-.164-.049-6.754 0-6.918a.75.75 0 0 1 .637-.513c.267-.031 6.324-.033 6.592-.002m3.977 4.002c.2.021.279.042.373.1a.82.82 0 0 1 .327.413c.049.164.049 6.754 0 6.918a.764.764 0 0 1-.62.513c-.237.038-6.429.038-6.666 0-.29-.046-.535-.245-.617-.499-.022-.069-.035-.469-.043-1.28l-.012-1.18h1.396c1.468-.001 2.038-.024 2.302-.092a1.749 1.749 0 0 0 1.102-.895c.197-.404.197-.412.211-2.326l.012-1.7h.991c.545.001 1.105.013 1.244.028" fill-rule="evenodd"/></svg>