<svg width="15" height="15" xmlns="http://www.w3.org/2000/svg"><path d="M1.342 1.025A.522.522 0 0 0 1 1.504c0 .151.089.314.223.409l.106.075h12.334l.095-.06a.62.62 0 0 0 .162-.161c.056-.084.068-.129.068-.267s-.012-.183-.068-.267a.62.62 0 0 0-.162-.161l-.095-.06-6.125-.004c-3.369-.002-6.157.006-6.196.017m5.969 2.022c-.136.062-2.109 1.381-2.179 1.456a.491.491 0 0 0 .148.774c.116.06.319.063.427.007.044-.023.347-.22.674-.438.326-.218.599-.396.606-.396C6.994 4.45 7 5.823 7 7.5c0 1.678-.006 3.05-.013 3.05-.007 0-.28-.178-.606-.396a20.78 20.78 0 0 0-.674-.438c-.168-.087-.437-.034-.575.113a.558.558 0 0 0-.132.334c0 .107.058.252.132.334.031.033.528.375 1.106.761 1.125.752 1.172.776 1.377.722.115-.031 2.147-1.368 2.253-1.483a.491.491 0 0 0-.148-.774.546.546 0 0 0-.427-.007c-.044.023-.347.22-.674.438-.326.218-.599.396-.606.396C8.006 10.55 8 9.178 8 7.5c0-1.677.006-3.05.013-3.05.007 0 .28.178.606.396.327.218.63.415.674.438a.546.546 0 0 0 .427-.007.491.491 0 0 0 .148-.774c-.07-.075-2.043-1.394-2.179-1.456a.432.432 0 0 0-.378 0m-5.969 9.978a.522.522 0 0 0-.342.479c0 .151.089.314.223.409l.106.075h12.334l.095-.06a.62.62 0 0 0 .162-.161c.056-.084.068-.129.068-.267s-.012-.183-.068-.267a.62.62 0 0 0-.162-.161l-.095-.059-6.125-.005c-3.369-.002-6.157.006-6.196.017" fill-rule="evenodd"/></svg>