<svg width="16" height="16" xmlns="http://www.w3.org/2000/svg"><path d="M3.713 6.787c-.552.12-.966.64-.966 1.213 0 .758.704 1.358 1.444 1.231a1.25 1.25 0 0 0 1.04-1.04c.111-.647-.349-1.297-1.003-1.416a1.11 1.11 0 0 0-.515.012m4 0a1.18 1.18 0 0 0-.592.333c-.726.719-.33 1.941.686 2.112a1.256 1.256 0 0 0 1.405-.926 1.221 1.221 0 0 0-.333-1.186 1.16 1.16 0 0 0-.605-.334 1.134 1.134 0 0 0-.561.001m4 0c-.552.12-.966.64-.966 1.213 0 .758.704 1.358 1.444 1.231a1.25 1.25 0 0 0 1.04-1.04c.111-.647-.349-1.297-1.003-1.416a1.11 1.11 0 0 0-.515.012" fill-rule="evenodd"/></svg>