<svg width="15" height="15" xmlns="http://www.w3.org/2000/svg"><path d="M1.832 1.039a1.1 1.1 0 0 0-.798.799c-.05.185-.05 11.139 0 11.325.107.398.405.696.804.803.185.05 11.139.05 11.325 0 .398-.107.696-.405.803-.803.05-.186.05-11.14 0-11.325a1.108 1.108 0 0 0-.804-.8c-.131-.034-.786-.038-5.674-.036-4.672.001-5.546.007-5.656.037m11.138.991c.022.022.03.279.03 1V4H2v-.97c0-.721.008-.978.03-1 .044-.044 10.896-.044 10.94 0M13 6v1H2V5h11v1m0 3v1H2V8h11v1m0 2.97c0 .721-.008.978-.03 1-.044.044-10.896.044-10.94 0-.022-.022-.03-.279-.03-1V11h11v.97" fill-rule="evenodd"/></svg>