<svg width="15" height="15" xmlns="http://www.w3.org/2000/svg"><path d="M1.832 1.039a1.1 1.1 0 0 0-.798.799c-.05.185-.05 11.139 0 11.325.107.398.405.696.804.803.185.05 11.139.05 11.325 0 .398-.107.696-.405.803-.803.05-.186.05-11.14 0-11.325a1.108 1.108 0 0 0-.804-.8c-.131-.034-.786-.038-5.674-.036-4.672.001-5.546.007-5.656.037M4 7.5V13h-.97c-.721 0-.978-.008-1-.03-.044-.044-.044-10.896 0-10.94.022-.022.279-.03 1-.03H4v5.5m3 0V13H5V2h2v5.5m3 0V13H8V2h2v5.5m2.97-5.47c.044.044.044 10.896 0 10.94-.022.022-.279.03-1 .03H11V2h.97c.721 0 .978.008 1 .03" fill-rule="evenodd"/></svg>