<svg width="15" height="15" xmlns="http://www.w3.org/2000/svg"><path d="M1.832 1.039a1.1 1.1 0 0 0-.798.799c-.05.185-.05 11.139 0 11.325.107.398.405.696.804.803.185.05 11.139.05 11.325 0 .398-.107.696-.405.803-.803.05-.186.05-11.14 0-11.325a1.108 1.108 0 0 0-.804-.8c-.131-.034-.786-.038-5.674-.036-4.672.001-5.546.007-5.656.037M5 7.5V13H3.53c-1.11 0-1.477-.007-1.5-.03-.044-.044-.044-10.896 0-10.94.023-.023.39-.03 1.5-.03H5v5.5m4 0V13H6V2h3v5.5m3.97-5.47c.044.044.044 10.896 0 10.94-.023.023-.39.03-1.5.03H10V2h1.47c1.11 0 1.477.007 1.5.03" fill-rule="evenodd"/></svg>