<svg width="16" height="16" xmlns="http://www.w3.org/2000/svg"><path d="M9.373 1.071c-.949.107-1.974.547-2.781 1.192-.29.233-.365.372-.346.644.02.274.097.38.33.452.332.103.532.055.803-.193A3.861 3.861 0 0 1 9.7 2.128c1.268-.121 2.579.449 3.411 1.485a3.882 3.882 0 0 1 .768 3.399c-.151.626-.475 1.213-.956 1.734-.101.109-.2.238-.22.285-.078.187-.022.439.135.605.071.076.073.077.343.067.19-.008.29-.023.332-.052.082-.058.37-.418.553-.691.083-.125.232-.39.331-.589.636-1.277.737-2.625.293-3.93a5.035 5.035 0 0 0-4.233-3.373 5.854 5.854 0 0 0-1.084.003M5.341 4.947c-2.486.379-4.297 2.474-4.3 4.974A4.966 4.966 0 0 0 2.59 13.56a4.884 4.884 0 0 0 1.851 1.13c.558.19 1.048.27 1.638.269a4.982 4.982 0 0 0 3.547-1.467 5.045 5.045 0 0 0 .452-6.614 5.088 5.088 0 0 0-2.996-1.881c-.276-.059-.406-.07-.909-.078-.414-.007-.658.001-.832.028m1.566 1.115c.512.122.884.283 1.32.572A4.055 4.055 0 0 1 9.964 9.2c.07.323.07 1.145-.001 1.467a4.035 4.035 0 0 1-1.153 2.081 3.95 3.95 0 0 1-1.992 1.07c-.362.078-1.085.085-1.439.014A4.08 4.08 0 0 1 2.17 10.6c-.064-.329-.065-1.002-.001-1.347.276-1.499 1.471-2.782 2.942-3.16.402-.103.544-.117 1.049-.107.38.008.518.022.747.076" fill-rule="evenodd"/></svg>