<svg width="16" height="16" xmlns="http://www.w3.org/2000/svg"><path d="M5.293 1.044a.78.78 0 0 0-.249.249c-.038.07-.045.211-.052 1.116-.006.699.002 1.083.022 1.181a.496.496 0 0 0 .573.398.542.542 0 0 0 .386-.331c.016-.058.027-.53.027-1.171 0-1.135-.005-1.185-.128-1.321-.12-.133-.437-.199-.579-.121m6.014.008c-.022.006-.13.024-.24.042a3.356 3.356 0 0 0-1.371.595c-.249.183-2.776 2.686-2.897 2.868a.713.713 0 0 0-.094.203c-.036.192.113.459.3.537.115.048.28.046.403-.005.067-.028.534-.475 1.472-1.41.755-.752 1.427-1.404 1.493-1.448a2.323 2.323 0 0 1 1.534-.378 2.272 2.272 0 0 1 2.037 2.037 2.318 2.318 0 0 1-.378 1.534c-.044.066-.696.738-1.448 1.493-.935.938-1.382 1.405-1.41 1.472a.491.491 0 0 0 .128.574c.183.161.4.173.611.033.179-.12 2.683-2.649 2.864-2.895a3.304 3.304 0 0 0 .301-3.447 3.331 3.331 0 0 0-2.27-1.753c-.177-.039-.931-.077-1.035-.052M1.28 5.063a.713.713 0 0 0-.173.149c-.072.089-.08.119-.08.279 0 .224.081.366.26.452.113.055.15.057 1.202.057 1.148 0 1.197-.005 1.333-.128.138-.125.192-.393.115-.573a.538.538 0 0 0-.265-.257c-.049-.019-.467-.029-1.187-.029-1.033 0-1.119.004-1.205.05m3.446 1.658a.648.648 0 0 0-.188.089c-.181.125-2.68 2.657-2.849 2.886a3.303 3.303 0 0 0-.283 3.486c.165.321.375.597.663.872a3.285 3.285 0 0 0 4.235.257c.246-.181 2.775-2.685 2.895-2.864.093-.141.119-.268.081-.405a.512.512 0 0 0-.688-.334c-.067.028-.534.475-1.472 1.41-.755.752-1.43 1.406-1.5 1.453a2.757 2.757 0 0 1-.727.326c-.167.045-.288.058-.56.058-.272 0-.392-.013-.56-.058-1.119-.303-1.843-1.344-1.719-2.471.043-.39.168-.735.38-1.053.044-.066.696-.738 1.448-1.493.935-.938 1.382-1.405 1.41-1.472a.494.494 0 0 0-.385-.693.575.575 0 0 0-.181.006m7.578 3.33c-.415.188-.357.796.087.925.116.034.313.039 1.187.032.927-.007 1.058-.013 1.131-.053.11-.061.246-.218.266-.309l.025-.103c.019-.062-.046-.265-.112-.352-.143-.188-.159-.19-1.381-.19-1.011 0-1.102.004-1.203.05m-1.997 2a.52.52 0 0 0-.281.297c-.015.053-.026.544-.025 1.172 0 1.208.003 1.225.19 1.368.087.066.29.131.352.112a2.37 2.37 0 0 1 .103-.025c.091-.02.248-.156.309-.266.04-.073.046-.204.053-1.119.005-.676-.002-1.084-.021-1.172-.071-.331-.388-.503-.68-.367" fill-rule="evenodd"/></svg>