<svg width="169" height="52" xmlns="http://www.w3.org/2000/svg"><path d="M86.39 3.136c-3.84 1.705-7.134 3.05-7.32 2.987-.199-.066.081-.511.676-1.076 1.113-1.055 1.432-1.681 1.116-2.192-.139-.226-1.219.401-3.346 1.942-1.728 1.251-3.227 2.414-3.332 2.584-.106.17-.481 1.843-.834 3.717-.57 3.02-.597 3.48-.236 4.037.848 1.308 1.444 1.151 7.138-1.877 6.743-3.586 11.853-5.995 12.33-5.812.522.2.458 1.02-.235 3.045-1.575 4.601-5.04 10.167-10.603 17.036a465.872 465.872 0 0 0-3.831 4.772c-.529.693-.526.709.525 3.141 1.318 3.052 1.399 3.149 2.646 3.147 1.65-.001 2.589-.833 5.439-4.821 5.173-7.235 11.351-14.647 17.53-21.032 2.997-3.097 3.843-3.618 4.057-2.503.174.899-6.419 11.235-11.595 18.181-2.631 3.529-2.986 4.188-3.19 5.909-.121 1.019-.007 1.687.477 2.812.583 1.356 1.673 2.582 2.296 2.582.565 0 3.307-2.9 6.524-6.901 3.565-4.434 12.034-13.116 15.748-16.145 1.201-.979 2.183-1.708 2.183-1.62 0 .088-.893 1.364-1.985 2.836-7.994 10.776-10.065 18.71-5.665 21.699 1.296.881 2.697.89 5.128.032 4.781-1.688 11.994-7.403 13.815-10.945.512-.995.74-2.758.357-2.758-.099 0-1.175.952-2.392 2.114-2.586 2.471-6.491 5.421-8.563 6.47-1.237.625-1.565.688-2.172.411-2.027-.923-1.714-3.605 1.046-8.948 1.693-3.278 3.511-5.861 7.778-11.052 6.75-8.21 6.755-8.221 5.502-10.781-.835-1.708-2.158-2.636-3.334-2.341-.822.206-6.227 4.797-14.948 12.695-3.363 3.046-6.115 5.465-6.115 5.376 0-.378 1.233-2.525 3.068-5.345 2.629-4.039 4.075-7.63 3.905-9.7-.109-1.317-.266-1.653-1.151-2.464-1.185-1.086-2.693-1.257-4.216-.479-1.446.738-7.06 5.55-11.253 9.644-2.768 2.703-3.873 3.623-3.873 3.225 0-.641 1.061-3.806 1.966-5.865.947-2.156.717-4.008-.834-6.719C95.436.091 95.342.001 94.379.018c-.642.011-3.538 1.141-7.989 3.118M25.632 1.654C18.631 3.956 12.733 8.964 9.51 15.34c-3.261 6.451-4.33 14.587-2.033 15.468 1.46.561 2.049.236 5.167-2.853 1.681-1.665 3.274-3.37 3.54-3.79.833-1.315.251-1.432-1.697-.343-.997.557-1.812.898-1.812.757 0-.619 1.504-4.594 2.42-6.398 2.23-4.389 5.998-8.438 10.197-10.957 2.688-1.612 3.335-1.762 3.212-.746-.587 4.852-3.778 11.925-9.665 21.426-2.642 4.263-3.946 5.55-9.405 9.276C2.671 41.796.358 44.642.067 48.704c-.121 1.693-.066 1.997.461 2.524.885.885 1.591.744 3.661-.733 2.674-1.908 5.788-5.157 10.412-10.864 2.222-2.742 4.567-5.442 5.211-6 .645-.559 2.974-1.895 5.176-2.969 2.202-1.074 4.08-2.076 4.173-2.227.232-.376-.12-1.395-.482-1.395-.163 0-1.437.507-2.834 1.127-2.604 1.156-3.03 1.284-3.03.912 0-.118.895-1.734 1.989-3.591 3.108-5.278 5.962-11.233 7.294-15.22 1.892-5.661 1.68-7.694-.925-8.877-1.587-.721-2.713-.667-5.541.263m132.565.329c-7.552 2.557-14.428 7.49-19.403 13.92-2.297 2.968-2.758 3.814-3.615 6.634-1.44 4.732-.638 10.124 1.93 12.981 2.033 2.261 3.017 2.649 6.682 2.639 2.738-.008 3.387-.111 5.582-.889 3.888-1.376 6.67-3.19 10.072-6.566 3.339-3.314 5.209-5.96 6.773-9.587 2.466-5.722 2.582-9.542.355-11.768-.939-.939-1.003-.958-2.928-.849-1.083.061-1.968.067-1.968.013 0-.054.956-.539 2.125-1.079 2.769-1.28 3.062-1.842 1.928-3.696-.908-1.485-2.721-2.613-4.183-2.604-.471.004-1.978.386-3.35.851M56.2 1.84c-8.335 1.346-13.725 4.207-15.752 8.361-1.067 2.186-1.457 4.45-1.062 6.161.675 2.926 1.733 3.618 6.836 4.475a90.183 90.183 0 0 1 12.031 2.87c4.12 1.282 4.42 2.157 1.422 4.159-3.381 2.258-9.742 3.708-16.58 3.779-3.92.041-4.083.02-4.052-.521.018-.31.127-.785.242-1.056.178-.421.05-.492-.878-.487-2.211.013-4.735 1.794-5.77 4.072-.668 1.471-.659 2.438.031 3.315.989 1.258 2.597 1.701 6.675 1.84 7.422.252 16.151-1.395 21.036-3.969 6.973-3.674 7.974-10.375 2.068-13.836-.66-.386-2.4-1.015-3.868-1.396l-7.738-2.016c-2.789-.727-5.292-1.516-5.563-1.754-1.88-1.65 1.592-4.224 7.826-5.805 3.247-.823 7.669-1.579 9.243-1.581l1.085-.001-1.437 1.572c-1.447 1.583-1.777 2.462-1.033 2.748.222.085 2.121-.74 4.219-1.833 4.247-2.213 5.829-3.603 6.364-5.592.39-1.446.126-3.254-.516-3.537-.951-.419-12.183-.395-14.829.032m105.722 9.456c1.87.652 1.969 2.718.295 6.182-4.024 8.333-10.861 14.712-17.622 16.442-2.511.643-3.651.58-4.479-.248-1.37-1.371-.745-4.72 1.776-9.519.712-1.356 1.642-2.877 2.067-3.38.685-.811.84-.875 1.355-.563.845.511 1.345.435 1.844-.282.877-1.259 3.989-4.24 5.505-5.274 2.013-1.372 4.263-2.511 6.197-3.137 1.875-.607 1.94-.612 3.062-.221" fill-rule="evenodd"/></svg>