<svg width="15" height="15" xmlns="http://www.w3.org/2000/svg"><path d="M1.342 1.024a.528.528 0 0 0-.289.258L1 1.391v12.226l.058.11a.634.634 0 0 0 .165.186c.092.065.128.075.273.075.199 0 .32-.063.424-.221l.068-.101V1.338l-.06-.096a.481.481 0 0 0-.382-.23.69.69 0 0 0-.204.012m12 0a.528.528 0 0 0-.289.258L13 1.391v12.226l.058.11a.634.634 0 0 0 .165.186c.092.065.128.075.273.075.199 0 .32-.063.424-.221l.068-.101V1.338l-.06-.096a.481.481 0 0 0-.382-.23.69.69 0 0 0-.204.012M4.65 5.04a.64.64 0 0 0-.154.101c-.036.035-.385.542-.775 1.127l-.708 1.064v.336l.708 1.064c.39.585.739 1.092.775 1.127.246.235.64.161.782-.146a.53.53 0 0 0 .012-.397 11.477 11.477 0 0 0-.437-.687 19.318 19.318 0 0 1-.403-.616C4.45 8.006 5.823 8 7.5 8c1.678 0 3.05.006 3.05.013 0 .007-.181.284-.403.616-.222.333-.418.641-.437.687a.534.534 0 0 0 .118.552c.186.17.483.17.669 0 .115-.106 1.452-2.138 1.483-2.253.054-.205.03-.252-.722-1.377a27.084 27.084 0 0 0-.761-1.106.491.491 0 0 0-.775.154.534.534 0 0 0-.012.398c.019.046.215.354.437.687.222.332.403.609.403.616 0 .007-1.372.013-3.05.013-1.677 0-3.05-.006-3.05-.013 0-.007.181-.284.403-.616.222-.333.418-.641.437-.687a.534.534 0 0 0-.012-.398.489.489 0 0 0-.628-.246" fill-rule="evenodd"/></svg>