<svg width="12" height="12" xmlns="http://www.w3.org/2000/svg"><path d="M1.74.02a1.76 1.76 0 0 0-.776.221A1.788 1.788 0 0 0 .05 1.44c-.022.104-.036.298-.044.632-.013.552 0 .627.131.763a.523.523 0 0 0 .846-.13c.042-.088.047-.129.059-.585.007-.269.023-.52.035-.557a.88.88 0 0 1 .43-.474.989.989 0 0 1 .294-.068c.11-.012.921-.02 1.934-.021H5.48v4.595c0 2.527-.006 4.777-.013 5L5.454 11H4.66c-.877 0-.926.006-1.068.123a.504.504 0 0 0 0 .753c.159.131.037.125 2.429.119l2.169-.005.083-.044c.165-.089.287-.277.287-.446 0-.169-.122-.357-.287-.446-.081-.043-.1-.044-.928-.05l-.845-.006V9.584c0-.778.006-3.027.013-4.999L6.527 1h1.741c1.011.001 1.821.009 1.931.021a.989.989 0 0 1 .294.068.88.88 0 0 1 .43.474c.012.037.028.288.035.557.012.456.017.497.059.585a.523.523 0 0 0 .846.13c.131-.136.144-.211.131-.763-.008-.334-.022-.528-.044-.632C11.795.734 11.243.203 10.5.046 10.34.013 10.085.01 6.12.008 3.804.006 1.833.012 1.74.02" fill-rule="evenodd"/></svg>