<svg width="16" height="16" xmlns="http://www.w3.org/2000/svg"><path d="M4.203 1.018a2.383 2.383 0 0 0-1.774 1.058c-.246.364-.356.717-.404 1.297-.019.234-.025 1.811-.018 4.854.011 4.925.002 4.639.165 5.128.177.533.657 1.07 1.201 1.345.204.103.478.18.787.221.453.06 1.786.097 3.173.088 1.157-.008 1.302-.014 1.376-.054.11-.061.246-.218.266-.309L9 14.543c.019-.062-.046-.265-.112-.352a.546.546 0 0 0-.178-.14c-.104-.047-.206-.05-1.767-.05-1.675-.001-2.449-.027-2.804-.095a1.325 1.325 0 0 1-.687-.373 1.329 1.329 0 0 1-.378-.642c-.044-.173-.047-.47-.047-4.904 0-4.419.003-4.733.047-4.92.06-.256.173-.452.377-.655.18-.179.349-.283.573-.352.139-.043.416-.047 3.869-.047 4.136 0 3.975-.006 4.327.178.199.104.484.382.586.572.168.313.163.214.179 3.17.014 2.467.019 2.701.06 2.776.061.11.218.246.309.266l.103.025c.062.019.265-.046.352-.112a.545.545 0 0 0 .142-.186c.051-.113.052-.191.041-2.789-.011-2.908-.009-2.86-.165-3.309-.143-.412-.5-.873-.879-1.134-.391-.271-.711-.381-1.243-.428-.349-.031-7.213-.053-7.502-.024m1.09 4.032c-.103.045-.247.209-.268.304A2.37 2.37 0 0 1 5 5.457c-.019.062.046.265.112.352.038.05.118.113.178.14.105.048.228.05 2.71.05 2.482 0 2.605-.002 2.71-.05a.507.507 0 0 0 .23-.683.62.62 0 0 0-.255-.224c-.12-.046-5.287-.037-5.392.008M5.29 8.051a.546.546 0 0 0-.178.14c-.066.087-.131.29-.112.352l.025.103c.02.091.156.248.266.309.075.041.262.046 2.121.052 1.417.006 2.082-.001 2.181-.022a.491.491 0 0 0 .101-.935c-.101-.046-.233-.049-2.201-.049-1.987 0-2.099.003-2.203.05m8.497 2.498c-.059.025-.595.541-1.44 1.385L11 13.278l-.507-.502c-.278-.276-.548-.524-.599-.55a.593.593 0 0 0-.444-.005.505.505 0 0 0-.186.735c.037.054.372.401.743.77.689.686.809.779.993.779.203 0 .272-.06 1.821-1.606.826-.825 1.537-1.552 1.58-1.616.143-.214.131-.418-.035-.607a.496.496 0 0 0-.579-.127" fill-rule="evenodd"/></svg>