<svg width="16" height="16" xmlns="http://www.w3.org/2000/svg"><path d="M1.293 1.044a.814.814 0 0 0-.233.222.505.505 0 0 0 .23.681c.088.037.213.05.619.06.431.012.528.022.627.066a.85.85 0 0 1 .377.378l.06.122v10.854l-.06.123a.828.828 0 0 1-.378.378c-.104.047-.199.057-.655.071-.589.017-.646.032-.77.195-.065.084-.129.288-.11.349l.025.103c.02.091.157.25.262.304a.892.892 0 0 0 .269.055c.255.019.979-.035 1.176-.087.581-.155 1.058-.671 1.205-1.305.048-.204.05-.449.05-5.613 0-5.164-.002-5.409-.05-5.613-.162-.7-.689-1.217-1.36-1.333-.285-.049-1.2-.056-1.284-.01m5.194-.002c-.371.064-.653.218-.954.518a1.44 1.44 0 0 0-.328.442c-.216.438-.2.003-.211 5.705-.01 5.161-.002 5.699.088 6 .106.356.348.707.632.921.208.157.363.235.61.309.189.057.244.06 1.602.07 1.615.012 1.685.005 2.072-.185a1.86 1.86 0 0 0 .795-.795c.223-.456.207.002.207-6.027 0-4.988-.003-5.36-.046-5.546a1.84 1.84 0 0 0-1.289-1.365c-.204-.056-.266-.059-1.625-.065-.777-.004-1.476.004-1.553.018m6.913.014c-.651.117-1.18.644-1.338 1.331-.046.203-.049.471-.049 5.613 0 5.157.003 5.41.05 5.613.146.635.622 1.15 1.205 1.305.197.052.921.106 1.176.087a.892.892 0 0 0 .269-.055c.105-.054.242-.213.262-.304l.025-.103c.019-.061-.045-.265-.11-.349-.124-.163-.181-.178-.77-.195-.456-.014-.551-.024-.655-.071a.828.828 0 0 1-.378-.378l-.06-.123V2.573l.06-.123a.83.83 0 0 1 .375-.377c.101-.044.198-.054.629-.066.573-.015.677-.041.797-.198.201-.264.098-.654-.203-.767-.111-.042-1.027-.032-1.285.014m-4.48.968c.41.016.525.029.6.068a.782.782 0 0 1 .379.382l.088.178V13.4l-.057.123a.89.89 0 0 1-.406.416l-.151.074-1.102.009c-1.342.01-1.653-.011-1.851-.122a.853.853 0 0 1-.371-.457c-.029-.101-.036-1.084-.036-5.47V2.627l.056-.122a.815.815 0 0 1 .62-.479c.201-.025 1.596-.027 2.231-.002" fill-rule="evenodd"/></svg>