<svg width="12" height="12" xmlns="http://www.w3.org/2000/svg"><path d="M.79.024C.43.092.1.424.022.796c-.031.148-.031 3.76 0 3.908.078.375.399.696.774.774.15.031 10.258.031 10.408 0a1.03 1.03 0 0 0 .774-.774c.031-.148.031-3.76 0-3.908a1.022 1.022 0 0 0-.787-.774C11.037-.006.938-.005.79.024M11 2.75V4.5H1V1h10v1.75M.79 6.524c-.36.068-.69.4-.768.772-.031.148-.031 3.76 0 3.908.078.375.399.696.774.774.15.031 10.258.031 10.408 0a1.03 1.03 0 0 0 .774-.774c.031-.148.031-3.76 0-3.908a1.022 1.022 0 0 0-.787-.774C11.037 6.494.938 6.495.79 6.524M11 9.25V11H1V7.5h10v1.75" fill-rule="evenodd"/></svg>