<svg width="16" height="16" xmlns="http://www.w3.org/2000/svg"><path d="M3.627 1.507V2h1.76v-.987h-1.76v.494m3.493 0V2h1.76v-.987H7.12v.494m3.493 0V2h1.76v-.987h-1.76v.494M.993 4.5 1 5.373l.5.008.5.007V3.627H.986l.007.873M14 4.507v.881l.5-.007.5-.008.007-.873.007-.873H14v.88M.999 7.154c-.007.018-.01.411-.006.873l.007.84.5.007.5.007V7.12h-.494c-.373 0-.498.008-.507.034M14 8v.881l.5-.007.5-.007V7.133l-.5-.007-.5-.007V8M.987 11.507v.866H2V10.64H.987v.867m13.013 0v.866h1.013V10.64H14v.867m-10.373 3v.507l.873-.007.873-.007.008-.5.007-.5H3.627v.507m3.499-.007.007.5h1.734l.007-.5.007-.5H7.119l.007.5m3.493 0 .008.5.873.007.873.007V14H10.612l.007.5" fill-rule="evenodd"/></svg>