<svg width="12" height="12" xmlns="http://www.w3.org/2000/svg"><path d="M4.42.522c-.438.029-.753.13-1.064.34a2.137 2.137 0 0 0-.688.839c-.069.17-.125.419-.141.624l-.013.175h-.232c-.295 0-.638.031-.792.07a1.906 1.906 0 0 0-.56.275 1.219 1.219 0 0 0-.325.395c-.098.226-.093.107-.1 2.67C.499 8.379.501 8.47.578 8.69c.099.28.377.542.715.674.241.093.405.119.829.131l.393.01.013.173c.026.353.12.635.303.916.204.313.554.609.87.738.384.156.65.173 2.489.163 1.622-.009 1.673-.012 2.025-.133.491-.17.977-.656 1.147-1.147.059-.172.118-.485.118-.627v-.083l.395-.01c.501-.014.748-.066 1.005-.212.313-.177.503-.414.582-.723.042-.164.042-4.956 0-5.12-.087-.343-.299-.583-.672-.762a1.718 1.718 0 0 0-.28-.107 4.099 4.099 0 0 0-.795-.071H9.48v-.085c0-.145-.059-.457-.118-.63a2.074 2.074 0 0 0-.718-.923C8.319.644 8.026.554 7.535.52 7.202.497 4.757.498 4.42.522m3.31 1.016a.865.865 0 0 1 .47.262c.155.154.23.295.264.5.021.118.026.908.026 3.7 0 3.83.002 3.743-.106 3.959-.07.141-.231.313-.368.396-.224.135-.224.135-2.016.135s-1.792 0-2.016-.135a1.117 1.117 0 0 1-.368-.396C3.508 9.743 3.51 9.83 3.51 6s-.002-3.743.106-3.959c.107-.215.352-.425.561-.48.047-.013.173-.031.28-.04.294-.026 3.127-.01 3.273.017M2.5 6.003v2.502l-.355-.01c-.369-.011-.478-.033-.585-.114l-.05-.039-.005-2.309c-.003-1.407.002-2.328.013-2.359.044-.114.265-.167.727-.171L2.5 3.5v2.503m7.79-2.454a.604.604 0 0 1 .15.07l.05.039v4.684l-.05.039c-.107.081-.216.103-.585.114l-.355.01V3.494l.345.012c.226.008.38.022.445.043" fill-rule="evenodd"/></svg>