<svg width="16" height="16" xmlns="http://www.w3.org/2000/svg"><path d="M1.662 1.063c-.258.089-.49.318-.604.596C1 1.8 1 1.802 1 4c0 2.198 0 2.2.058 2.341.112.274.327.489.601.601L1.8 7h12.4l.141-.058c.274-.112.489-.327.601-.601C15 6.2 15 6.198 15 4c0-2.198 0-2.2-.058-2.341a1.062 1.062 0 0 0-.604-.596c-.131-.045-.457-.048-6.338-.048s-6.207.003-6.338.048M14 4v2H2V2h12v2M1.662 9.063c-.258.089-.49.318-.604.596C1 9.8 1 9.802 1 12c0 2.198 0 2.2.058 2.341.112.274.327.489.601.601L1.8 15h12.4l.141-.058c.274-.112.489-.327.601-.601C15 14.2 15 14.198 15 12c0-2.198 0-2.2-.058-2.341a1.062 1.062 0 0 0-.604-.596c-.131-.045-.457-.048-6.338-.048s-6.207.003-6.338.048M14 12v2H2v-4h12v2" fill-rule="evenodd"/></svg>