<svg width="12" height="12" xmlns="http://www.w3.org/2000/svg"><path d="M3.332.031a.508.508 0 0 0-.267.225L3.01.35l-.006 1.325L2.999 3H1.712C.315 3 .334 2.999.187 3.111a.622.622 0 0 0-.122.145c-.047.08-.055.116-.055.244s.008.164.055.244a.622.622 0 0 0 .122.145C.334 4.001.315 4 1.713 4H3v4H1.713C.315 8 .334 7.999.187 8.111a.622.622 0 0 0-.122.145c-.047.08-.055.116-.055.244s.008.164.055.244a.622.622 0 0 0 .122.145C.334 9.001.315 9 1.713 9H3v1.285c0 .824.008 1.312.021 1.359.03.111.137.237.245.293.2.103.429.069.584-.086.154-.154.15-.112.15-1.565V9h4v1.285c0 .824.008 1.312.021 1.359.03.111.137.237.245.293.2.103.429.069.584-.086.154-.154.15-.112.15-1.565V9h1.286c1.453 0 1.411.004 1.565-.149a.494.494 0 0 0 0-.702C11.697 7.996 11.739 8 10.286 8H9V4h1.286c1.453 0 1.411.004 1.565-.149a.494.494 0 0 0 0-.702C11.697 2.996 11.739 3 10.286 3H9V1.714C9 .261 9.004.303 8.85.149a.493.493 0 0 0-.584-.086.529.529 0 0 0-.245.293C8.008.403 8 .891 8 1.715V3H4V1.714C4 .261 4.004.303 3.851.149a.501.501 0 0 0-.519-.118M8 6v2H4V4h4v2" fill-rule="evenodd"/></svg>