<svg width="12" height="12" xmlns="http://www.w3.org/2000/svg"><path d="M1.716.021a2.158 2.158 0 0 0-.85.335 2.01 2.01 0 0 0-.801 1.139L.01 1.69v8.62l.055.199a2 2 0 0 0 1.548 1.45C1.815 12 1.849 12 6 12s4.185 0 4.387-.041a2.005 2.005 0 0 0 1.549-1.453l.054-.196V1.69l-.053-.192a2.022 2.022 0 0 0-.803-1.142 2.54 2.54 0 0 0-.655-.3L10.31.011 6.07.008C3.738.006 1.779.012 1.716.021m8.475 1.001c.384.07.717.403.787.787.031.167.031 8.215 0 8.382a1.022 1.022 0 0 1-.774.787c-.15.031-8.258.031-8.408 0a1.022 1.022 0 0 1-.774-.787c-.031-.167-.031-8.215 0-8.382.068-.375.401-.716.768-.785.148-.029 8.248-.03 8.401-.002" fill-rule="evenodd"/></svg>