<svg width="15" height="15" xmlns="http://www.w3.org/2000/svg"><path d="M7.342 1.024a.528.528 0 0 0-.289.258L7 1.391v12.226l.058.11a.634.634 0 0 0 .165.186c.093.065.128.074.273.074.199 0 .321-.063.424-.22l.068-.101V1.329l-.075-.106a.597.597 0 0 0-.172-.156.626.626 0 0 0-.399-.043M2.65 5.04a.64.64 0 0 0-.154.101c-.036.035-.385.542-.775 1.127l-.709 1.064v.336l.709 1.064c.39.585.739 1.092.775 1.127.246.235.64.161.782-.146a.53.53 0 0 0 .012-.397 11.477 11.477 0 0 0-.437-.687 19.318 19.318 0 0 1-.403-.616c0-.007.799-.013 1.775-.013H6V7H4.225c-.976 0-1.775-.006-1.775-.013 0-.007.181-.284.403-.616.222-.333.418-.641.437-.687a.534.534 0 0 0-.012-.398.489.489 0 0 0-.628-.246m9.341-.004a.5.5 0 0 0-.281.648c.019.046.215.354.437.687.222.332.403.609.403.616 0 .007-.799.013-1.775.013H9v1h1.775c.976 0 1.775.006 1.775.013 0 .007-.181.284-.403.616-.222.333-.418.641-.437.687a.534.534 0 0 0 .118.552c.186.17.483.17.669 0 .115-.106 1.452-2.138 1.483-2.253.054-.205.03-.252-.722-1.377a27.084 27.084 0 0 0-.761-1.106.494.494 0 0 0-.506-.096" fill-rule="evenodd"/></svg>