<svg width="15" height="15" xmlns="http://www.w3.org/2000/svg"><path d="M3.587 1.026c-.79.078-1.366.547-1.529 1.244-.043.182-.045.458-.045 5.23s.002 5.048.045 5.23c.139.592.599 1.039 1.236 1.202l.219.056h7.975l.218-.056c.617-.157 1.063-.575 1.226-1.149l.055-.195.008-4.925c.005-3.317-.001-5-.019-5.154-.036-.319-.107-.526-.255-.747a1.672 1.672 0 0 0-.658-.563c-.402-.196-.11-.183-4.425-.188-2.118-.003-3.941.004-4.051.015m7.801.996c.284.064.541.328.579.597.027.187.027 9.575 0 9.762-.038.263-.254.5-.537.588-.133.041-.386.044-3.93.044-3.515 0-3.798-.004-3.927-.044a.829.829 0 0 1-.528-.491c-.043-.123-.062-9.395-.02-9.752.03-.269.091-.398.244-.525.192-.158.281-.184.705-.203.668-.029 7.271-.008 7.414.024m-4.107 8.013a.75.75 0 0 0-.452.378c-.056.106-.066.155-.066.337 0 .182.01.231.067.34.226.43.792.54 1.16.225a.92.92 0 0 0 .173-.219c.066-.119.074-.157.074-.346 0-.233-.04-.341-.189-.511-.166-.189-.522-.284-.767-.204" fill-rule="evenodd"/></svg>