<svg width="16" height="16" xmlns="http://www.w3.org/2000/svg"><path d="M10.267 1.066c-.052.028-1.134 1.092-2.405 2.366C5.769 5.528 5.548 5.758 5.52 5.863a.5.5 0 0 0 .617.617c.105-.028.299-.213 1.99-1.902L10 2.707v3.547c-.001 4.262-.021 4.869-.186 5.47-.115.418-.349.808-.712 1.185a3.191 3.191 0 0 1-1.854.983c-.497.084-1.213.108-3.328.109-1.896 0-2.02.003-2.121.049-.22.1-.342.337-.284.554.045.166.1.24.242.324L1.88 15l1.533.008c1.541.008 3.205-.026 3.627-.075 1.168-.136 1.947-.501 2.721-1.278.743-.744 1.046-1.397 1.172-2.522.058-.523.079-1.86.08-5.106V2.734l1.834 1.832C14.742 6.46 14.793 6.505 15 6.505c.197 0 .447-.201.482-.386a.555.555 0 0 0-.079-.408c-.038-.054-1.086-1.114-2.329-2.357-1.584-1.582-2.29-2.271-2.36-2.3a.59.59 0 0 0-.447.012" fill-rule="evenodd"/></svg>