<svg width="15" height="15" xmlns="http://www.w3.org/2000/svg"><path d="M1.342 1.025A.522.522 0 0 0 1 1.504c0 .151.089.314.223.409l.106.075h12.334l.095-.06a.62.62 0 0 0 .162-.161c.056-.084.068-.129.068-.267s-.012-.183-.068-.267a.62.62 0 0 0-.162-.161l-.095-.06-6.125-.004c-3.369-.002-6.157.006-6.196.017m4 2A.52.52 0 0 0 5 3.504c0 .151.089.314.223.409l.106.075.836.007.835.008v6.994l-.835.008-.836.008-.106.075a.496.496 0 0 0 0 .825l.106.075h4.337l.101-.068c.157-.103.221-.225.221-.42 0-.195-.064-.317-.22-.42l-.102-.067-.833-.008L8 10.997V4.003l.833-.008.833-.007.102-.068c.156-.103.22-.225.22-.42 0-.195-.064-.317-.22-.42l-.102-.067-2.127-.005c-1.169-.002-2.158.005-2.197.017m-4 10a.522.522 0 0 0-.342.479c0 .151.089.314.223.409l.106.075h12.334l.095-.06a.62.62 0 0 0 .162-.161c.056-.084.068-.129.068-.267s-.012-.183-.068-.267a.62.62 0 0 0-.162-.161l-.095-.059-6.125-.005c-3.369-.002-6.157.006-6.196.017" fill-rule="evenodd"/></svg>