<svg width="15" height="15" xmlns="http://www.w3.org/2000/svg"><path d="M1.342 1.024a.528.528 0 0 0-.289.258L1 1.391v12.226l.058.11a.634.634 0 0 0 .165.186c.092.065.128.075.273.075.199 0 .32-.063.424-.221l.068-.101V1.338l-.06-.096a.481.481 0 0 0-.382-.23.69.69 0 0 0-.204.012m12 0a.528.528 0 0 0-.289.258L13 1.391v12.226l.058.11a.634.634 0 0 0 .165.186c.092.065.128.075.273.075.199 0 .32-.063.424-.221l.068-.101V1.338l-.06-.096a.481.481 0 0 0-.382-.23.69.69 0 0 0-.204.012m-10 4a.528.528 0 0 0-.289.258C3 5.39 3 5.408 3 7.504v2.113l.058.11a.634.634 0 0 0 .165.186c.093.065.128.075.275.075.141 0 .185-.011.269-.068a.62.62 0 0 0 .161-.162c.059-.095.06-.102.067-.927L4.003 8H11v.809c0 .798.001.81.058.918a.634.634 0 0 0 .165.186c.093.065.128.075.275.075.141 0 .185-.011.269-.068a.62.62 0 0 0 .161-.162l.06-.095V5.334l-.068-.101c-.104-.158-.225-.22-.424-.22-.145 0-.181.009-.273.075a.618.618 0 0 0-.165.185c-.057.108-.058.12-.058.918V7H4.003l-.008-.831c-.007-.825-.008-.832-.067-.927a.481.481 0 0 0-.382-.23.69.69 0 0 0-.204.012" fill-rule="evenodd"/></svg>