<svg width="16" height="16" xmlns="http://www.w3.org/2000/svg"><path d="M3.331 3.075a.613.613 0 0 0-.303.712c.042.143.093.197 2.074 2.18L7.133 8l-2.031 2.033C3.1 12.037 3.07 12.069 3.028 12.217c-.1.348.111.688.475.769.105.023.16.021.28-.014.148-.042.18-.072 2.184-2.074L8 8.867l2.033 2.031c2.004 2.002 2.036 2.032 2.184 2.074.348.1.688-.111.769-.475a.468.468 0 0 0-.014-.28c-.042-.148-.072-.18-2.074-2.184L8.867 8l2.031-2.033c1.981-1.983 2.032-2.037 2.074-2.18a.613.613 0 0 0-.303-.712.713.713 0 0 0-.53-.021c-.069.029-.703.645-2.119 2.06L8 7.133 5.98 5.114c-1.416-1.415-2.05-2.031-2.119-2.06a.713.713 0 0 0-.53.021" fill-rule="evenodd"/></svg>