<svg width="16" height="16" xmlns="http://www.w3.org/2000/svg"><path d="M4.44 1.506a1.735 1.735 0 0 1-.107.027c-.06.013-.48.417-1.674 1.609C1.205 4.594 1.062 4.744 1.027 4.86a.383.383 0 0 0-.002.261.487.487 0 0 0 .676.331c.067-.028.451-.393 1.199-1.139L4 3.214l.001 5.44c0 5.219.002 5.444.049 5.547.1.22.337.342.554.284.166-.045.24-.1.324-.242L5 14.12l.013-5.447.014-5.447L6.12 4.323c.613.614 1.131 1.112 1.179 1.133a.509.509 0 0 0 .694-.399c.028-.249.062-.209-1.589-1.866-.846-.848-1.585-1.569-1.644-1.603-.102-.059-.263-.1-.32-.082m6.956.013a.525.525 0 0 0-.33.246L11 1.88l-.013 5.447-.014 5.447-1.08-1.082c-.594-.595-1.124-1.105-1.179-1.134-.401-.209-.862.239-.665.647.04.081.521.578 1.624 1.677 1.644 1.64 1.629 1.626 1.85 1.624.167-.001.288-.112 1.856-1.683 1.455-1.459 1.58-1.591 1.596-1.69a.494.494 0 0 0-.676-.585c-.067.028-.451.393-1.199 1.139L12 12.786V7.352c0-5.91.009-5.533-.141-5.694a.5.5 0 0 0-.463-.139" fill-rule="evenodd"/></svg>