<svg width="16" height="16" xmlns="http://www.w3.org/2000/svg"><path d="M3.73 1.09a.487.487 0 0 0 .069.86c.103.047.287.049 4.201.049 3.914 0 4.098-.002 4.201-.049a.487.487 0 0 0 .069-.86l-.12-.077h-8.3l-.12.077M1.396 3.519a.525.525 0 0 0-.33.246L1 3.88v8.24l.072.123a.454.454 0 0 0 .324.242c.217.058.454-.064.554-.284.047-.103.049-.287.049-4.195.001-4.441.009-4.188-.14-4.348a.5.5 0 0 0-.463-.139m13.044-.013a1.605 1.605 0 0 1-.098.025c-.103.023-.236.144-.292.268-.047.103-.049.287-.049 4.201 0 3.914.002 4.098.049 4.201.1.22.337.342.554.284.166-.045.24-.1.324-.242L15 12.12V3.88l-.071-.12a.515.515 0 0 0-.173-.177c-.1-.055-.262-.094-.316-.077m-8.528.523c-.264.026-.49.08-.675.159-.444.19-.914.677-1.078 1.114-.146.391-.146.379-.146 2.698s0 2.307.146 2.698c.175.468.665.955 1.144 1.138.389.149.42.151 2.697.151 1.649 0 2.136-.008 2.293-.037a2.051 2.051 0 0 0 1.657-1.657c.053-.291.053-4.295 0-4.586a2.012 2.012 0 0 0-.625-1.139 2.001 2.001 0 0 0-1.021-.517c-.194-.038-4.039-.057-4.392-.022m4.421 1.062c.221.089.487.355.576.576l.064.16v4.346l-.064.16c-.09.226-.356.49-.575.571-.236.088-.652.107-2.334.107s-2.098-.019-2.334-.107c-.219-.081-.485-.345-.575-.571l-.064-.16V5.827l.062-.155c.124-.307.453-.577.768-.631.071-.012 1.072-.021 2.223-.018l2.093.004.16.064M3.799 14.05c-.22.1-.342.337-.284.554.045.166.1.24.242.324L3.88 15h8.24l.123-.072a.454.454 0 0 0 .242-.324c.058-.217-.064-.454-.284-.554-.103-.047-.287-.049-4.201-.049-3.914 0-4.098.002-4.201.049" fill-rule="evenodd"/></svg>