<svg width="16" height="16" xmlns="http://www.w3.org/2000/svg"><path d="M6.515 1.043c-.477.079-.955.411-1.217.844-.2.329-.252.613-.277 1.52L5.005 4l-1.802.001c-1.703 0-1.809.003-1.913.05a.546.546 0 0 0-.178.14c-.066.087-.131.29-.112.352l.025.103c.02.091.156.248.266.309.071.039.191.046.887.053l.805.009.011 3.791c.012 4.012.012 3.998.141 4.459.208.738.85 1.383 1.588 1.596.453.131.599.137 3.277.137s2.824-.006 3.277-.137a2.405 2.405 0 0 0 1.588-1.596c.129-.46.129-.448.141-4.459l.011-3.791.805-.009c.696-.007.816-.014.887-.053.11-.061.246-.218.266-.309L15 4.543c.019-.062-.046-.265-.112-.352a.546.546 0 0 0-.178-.14c-.104-.047-.209-.05-1.903-.05L11.013 4v-.621c0-.688-.027-.988-.112-1.214a1.897 1.897 0 0 0-.884-.966c-.363-.178-.447-.186-1.999-.183-.751.002-1.427.014-1.503.027m3.018 1.032a.916.916 0 0 1 .396.365c.054.101.058.147.066.833l.008.727H6.007l.009-.113c.005-.063.015-.36.022-.66.007-.301.026-.589.041-.641.079-.273.351-.519.619-.56.078-.011.718-.019 1.422-.017 1.275.004 1.281.005 1.413.066M12 8.58c0 2.137-.011 3.707-.027 3.918-.042.551-.13.765-.442 1.08a1.258 1.258 0 0 1-.678.36c-.211.045-.409.049-2.853.049-2.444 0-2.642-.004-2.853-.049a1.258 1.258 0 0 1-.678-.36c-.309-.311-.398-.526-.442-1.063C4.01 12.308 4 10.806 4 8.596V5.013h8V8.58M6.28 7.058a.433.433 0 0 0-.23.235c-.046.101-.049.226-.049 2.187-.001 1.32.009 2.115.026 2.177a.542.542 0 0 0 .386.331.496.496 0 0 0 .572-.395c.021-.099.028-.764.022-2.181-.006-1.841-.011-2.046-.051-2.119a.624.624 0 0 0-.271-.251.621.621 0 0 0-.405.016m3.027-.015a.64.64 0 0 0-.263.25c-.04.073-.045.278-.051 2.119-.006 1.417.001 2.082.022 2.181a.496.496 0 0 0 .572.395.542.542 0 0 0 .386-.331c.017-.061.027-.857.027-2.171 0-2.214.002-2.178-.128-2.321-.119-.132-.392-.191-.565-.122" fill-rule="evenodd"/></svg>