<svg width="16" height="16" xmlns="http://www.w3.org/2000/svg"><path d="M3.32 1.032a3.377 3.377 0 0 0-.774.165c-.542.21-1.108.755-1.314 1.266-.08.197-.152.546-.194.937-.022.206-.035 1.408-.044 4.024-.015 4.714.007 5.398.189 5.971.152.481.563.971 1.056 1.261.384.225.691.294 1.481.333.827.039 8.799.017 9.093-.026.632-.092 1.055-.3 1.476-.726.432-.437.596-.844.676-1.677.051-.525.051-8.572 0-9.098-.043-.442-.11-.783-.197-1-.206-.51-.772-1.055-1.313-1.265-.455-.177-.152-.167-5.335-.171-2.581-.003-4.741 0-4.8.006m9.195.995c.523.043.75.134 1.038.416.266.262.339.439.399.967.051.452.051 8.728 0 9.18-.056.499-.127.685-.35.92a1.297 1.297 0 0 1-.751.428c-.212.046-.483.049-4.851.049-4.381 0-4.639-.003-4.853-.049a1.265 1.265 0 0 1-.683-.365c-.336-.335-.39-.506-.438-1.4-.041-.742-.02-8.495.024-8.813.067-.494.148-.679.407-.928.273-.262.523-.366.972-.403.4-.033 8.683-.034 9.086-.002M5.799 4.05c-.22.1-.342.337-.284.554.045.166.1.24.242.324L5.88 5h4.24l.123-.072a.454.454 0 0 0 .242-.324c.058-.217-.064-.454-.284-.554-.102-.046-.227-.049-2.201-.049s-2.099.003-2.201.049M4.44 5.506a1.605 1.605 0 0 1-.098.025c-.103.023-.236.144-.292.268-.046.102-.049.227-.049 2.201s.003 2.099.049 2.201c.1.22.337.342.554.284.166-.045.24-.1.324-.242L5 10.12V5.88l-.071-.12a.515.515 0 0 0-.173-.177c-.1-.055-.262-.094-.316-.077m6.956.013a.525.525 0 0 0-.33.246L11 5.88v4.24l.072.123a.454.454 0 0 0 .324.242c.217.058.454-.064.554-.284.046-.101.049-.228.049-2.195.001-2.258.005-2.193-.14-2.348a.5.5 0 0 0-.463-.139M5.73 11.09a.487.487 0 0 0 .069.86c.102.046.227.049 2.201.049s2.099-.003 2.201-.049a.487.487 0 0 0 .069-.86l-.12-.077h-4.3l-.12.077" fill-rule="evenodd"/></svg>