<svg width="16" height="16" xmlns="http://www.w3.org/2000/svg"><path d="M1.293 1.044a.814.814 0 0 0-.233.222c-.13.241-.02.57.23.683.106.048.321.05 6.71.05s6.604-.002 6.71-.05a.507.507 0 0 0 .23-.683.62.62 0 0 0-.255-.224c-.108-.041-13.317-.039-13.392.002m2.009 2.984c-.471.042-.804.149-1.142.367-.404.26-.7.592-.895 1.005-.241.511-.263.735-.263 2.6 0 1.865.022 2.089.263 2.6.324.686.948 1.171 1.722 1.338.214.046.477.049 5.013.049s4.799-.003 5.013-.049c.891-.192 1.603-.832 1.861-1.671C14.989 9.888 15 9.7 15 8s-.011-1.888-.126-2.267a2.475 2.475 0 0 0-1.865-1.671c-.204-.041-.615-.046-4.849-.05-2.545-.003-4.731.004-4.858.016m9.48 1.014c.549.083 1.044.55 1.169 1.105.052.232.052 3.474 0 3.706a1.504 1.504 0 0 1-1.178 1.113c-.291.049-9.255.049-9.546 0a1.513 1.513 0 0 1-1.036-.745c-.17-.326-.176-.396-.176-2.221 0-1.825.006-1.895.176-2.221.111-.212.387-.486.605-.602a1.42 1.42 0 0 1 .36-.124c.253-.046 9.325-.056 9.626-.011M1.29 14.051a.507.507 0 0 0-.229.686.707.707 0 0 0 .293.243c.095.026 13.197.026 13.292 0a.707.707 0 0 0 .293-.243.507.507 0 0 0-.229-.686c-.106-.048-.321-.05-6.71-.05s-6.604.002-6.71.05" fill-rule="evenodd"/></svg>