<svg width="12" height="12" xmlns="http://www.w3.org/2000/svg"><path d="M4.483.022c-.4.036-.698.163-.961.41-.365.343-.492.657-.516 1.273L2.994 2H1.709C.316 2 .334 1.999.187 2.111a.622.622 0 0 0-.122.145c-.047.08-.055.116-.055.244s.008.164.055.244a.622.622 0 0 0 .122.145C.321 2.991.382 3 .962 3h.537l.007 3.515c.008 3.88.001 3.672.135 4.07.103.308.272.568.526.81.342.324.667.481 1.158.559.207.033.42.036 2.675.036s2.468-.003 2.675-.036c.483-.076.814-.235 1.147-.548.255-.241.435-.517.537-.821.134-.398.127-.19.135-4.07L10.501 3h.536c.617 0 .675-.011.814-.149a.494.494 0 0 0 0-.702C11.697 1.996 11.738 2 10.289 2H9.006l-.012-.295c-.012-.321-.051-.55-.125-.73A1.63 1.63 0 0 0 8.133.19C7.911.081 7.78.047 7.48.021c-.273-.024-2.725-.023-2.997.001M7.59 1.039a.625.625 0 0 1 .309.24c.065.101.101.307.101.575V2H4v-.146c0-.273.036-.474.104-.58a.606.606 0 0 1 .276-.225c.119-.038.388-.044 1.72-.04 1.091.003 1.428.01 1.49.03m1.904 5.436c-.006 3.097-.011 3.492-.039 3.632a.995.995 0 0 1-.213.459 1.076 1.076 0 0 1-.632.389c-.147.032-.359.035-2.61.035-2.257 0-2.463-.003-2.61-.035a1.08 1.08 0 0 1-.632-.389.995.995 0 0 1-.213-.459c-.028-.14-.033-.535-.039-3.632L2.498 3h7.004l-.008 3.475M4.332 5.031a.508.508 0 0 0-.267.225l-.055.094-.005 1.599c-.006 1.736-.009 1.69.104 1.837a.57.57 0 0 0 .156.125.496.496 0 0 0 .706-.273c.024-.07.029-.326.029-1.647 0-1.762.006-1.686-.149-1.842a.501.501 0 0 0-.519-.118m3 0a.508.508 0 0 0-.267.225l-.055.094-.005 1.599c-.006 1.736-.009 1.69.104 1.837a.57.57 0 0 0 .156.125.496.496 0 0 0 .706-.273c.024-.07.029-.326.029-1.647 0-1.762.006-1.686-.149-1.842a.501.501 0 0 0-.519-.118" fill-rule="evenodd"/></svg>