<svg width="16" height="16" xmlns="http://www.w3.org/2000/svg"><path d="M7.717 5.064a1.05 1.05 0 0 0-.229.166c-.295.29-4.308 4.522-4.362 4.6a.978.978 0 0 0-.102.25c-.069.271.016.534.236.738.203.187.469.23.732.116.123-.052.356-.288 2.065-2.083A164.392 164.392 0 0 1 8 6.827c.009 0 .883.91 1.943 2.024 2.121 2.228 2.029 2.144 2.35 2.144a.619.619 0 0 0 .453-.184.728.728 0 0 0 .23-.731.978.978 0 0 0-.102-.25c-.054-.078-4.067-4.31-4.362-4.6A.652.652 0 0 0 8 5.015a.715.715 0 0 0-.283.049" fill-rule="evenodd"/></svg>