<svg width="15" height="15" xmlns="http://www.w3.org/2000/svg"><path d="M7.286 1.062c-.096.048-.801.74-3.178 3.119C1.295 6.996 1.051 7.246 1.024 7.35a.501.501 0 0 0 .626.626c.103-.027.324-.241 2.731-2.646L7 2.713v10.904l.058.11a.634.634 0 0 0 .165.186c.092.065.128.075.273.075.199 0 .32-.063.424-.221l.068-.101.006-5.476L8 2.714l2.619 2.616c2.407 2.405 2.628 2.619 2.731 2.646.396.104.73-.23.626-.626-.027-.104-.271-.354-3.084-3.169C8.515 1.802 7.81 1.11 7.714 1.062a.42.42 0 0 0-.428 0" fill-rule="evenodd"/></svg>