<svg width="16" height="16" xmlns="http://www.w3.org/2000/svg"><path d="M12.387 1.057c-.133.069-2.066 2.008-2.122 2.13a.497.497 0 0 0 .605.68c.079-.026.239-.168.67-.596l.567-.563v1.344c0 1.316.001 1.347.056 1.461.202.416.823.331.928-.127.017-.073.028-.612.028-1.385l.001-1.265.542.538c.335.332.579.554.639.579.19.079.435.025.576-.128.063-.069.143-.31.124-.373a1.758 1.758 0 0 1-.027-.112c-.013-.059-.288-.351-1.049-1.116-.58-.583-1.069-1.053-1.117-1.073a.603.603 0 0 0-.421.006m-8.99.598c-.534.03-.784.09-1.136.271-.528.271-.985.824-1.138 1.376C1.002 3.737 1 3.827 1 7.813c0 3.981.003 4.077.122 4.508.181.653.744 1.261 1.392 1.505.445.167.27.161 4.726.161 3.856 0 4.064-.003 4.265-.05.927-.217 1.65-.967 1.817-1.884.026-.142.036-.456.037-1.082.001-.793-.004-.903-.052-1.088a1.836 1.836 0 0 0-.371-.717c-.17-.189-2.54-2.079-2.714-2.165-.437-.214-.89-.13-1.318.245-.097.085-1.459 1.321-3.027 2.747-1.785 1.624-2.889 2.647-2.955 2.738l-.104.145-.102-.051c-.182-.093-.44-.361-.539-.559-.169-.337-.164-.187-.164-4.453 0-4.224-.004-4.102.152-4.426.1-.208.373-.489.568-.585.297-.146.254-.143 2.667-.16 2.016-.014 2.248-.02 2.32-.059a.548.548 0 0 0 .279-.455.53.53 0 0 0-.366-.473c-.115-.032-3.676-.032-4.236 0m1.29 2.211a1.73 1.73 0 0 0-.955.505c-.219.22-.336.403-.423.662a1.742 1.742 0 0 0 .417 1.807c.194.198.409.335.679.434.177.065.23.071.568.071.339 0 .392-.006.568-.071A1.8 1.8 0 0 0 6.657 6.12c.056-.173.07-.266.071-.493.001-.512-.151-.889-.501-1.243a1.672 1.672 0 0 0-.747-.463 2.15 2.15 0 0 0-.793-.055m.614 1.056a.765.765 0 0 1-.019 1.381.866.866 0 0 1-.618 0A.765.765 0 0 1 4.518 5a.78.78 0 0 1 .783-.078m5.656 3.902a57.9 57.9 0 0 1 1.222.994.935.935 0 0 1 .12.196c.059.129.061.154.059.906-.001.477-.014.845-.034.96a1.367 1.367 0 0 1-1.057 1.083c-.205.039-7.198.067-7.183.028.007-.018 4.749-4.34 5.484-4.998.062-.055.138-.1.169-.1.034 0 .514.367 1.22.931" fill-rule="evenodd"/></svg>