<svg width="16" height="16" xmlns="http://www.w3.org/2000/svg"><path d="M7.594 1.055c-.292.07-.616.271-.834.515a1.69 1.69 0 0 0-.404 1.03c-.023.404-.094.531-.345.625-.273.102-.422.065-.686-.172a1.692 1.692 0 0 0-1.212-.43 1.637 1.637 0 0 0-1.5 1.259c-.133.52.008 1.072.384 1.499.227.258.268.398.187.636-.096.283-.238.377-.619.411-.477.042-.778.178-1.085.49a1.573 1.573 0 0 0-.473 1.122c-.003.3.036.472.172.76.088.185.148.266.324.44.328.322.636.454 1.132.485.238.014.29.026.391.091a.528.528 0 0 1 .222.569c-.018.087-.069.168-.198.313-.33.372-.463.71-.463 1.173 0 .74.479 1.365 1.214 1.585.215.065.636.065.852 0 .242-.072.5-.218.686-.388.215-.196.304-.241.48-.241a.562.562 0 0 1 .58.575c.001.199.092.523.207.737.183.341.543.649.896.766.62.206 1.237.062 1.701-.397.298-.296.449-.63.489-1.081.028-.311.041-.358.127-.456a.55.55 0 0 1 .408-.198c.155 0 .24.045.491.259.554.472 1.23.56 1.869.242.224-.112.567-.45.687-.679a1.71 1.71 0 0 0 .14-1.192 1.606 1.606 0 0 0-.38-.702c-.269-.307-.313-.467-.196-.719.097-.208.219-.278.53-.304.32-.027.47-.064.699-.173.896-.426 1.205-1.567.649-2.399a1.926 1.926 0 0 0-.27-.318 1.783 1.783 0 0 0-1.097-.415c-.392-.001-.61-.216-.61-.6 0-.166.024-.213.237-.457.303-.347.436-.698.437-1.143 0-.371-.114-.706-.34-.996-.594-.766-1.68-.857-2.408-.201a1.622 1.622 0 0 1-.284.214.554.554 0 0 1-.6-.146c-.09-.107-.12-.208-.137-.472a1.848 1.848 0 0 0-.253-.801c-.22-.339-.623-.629-.998-.718a2.19 2.19 0 0 0-.799.002m.701.931c.297.151.394.306.427.684a2.8 2.8 0 0 0 .066.42 1.47 1.47 0 0 0 1.119 1.03c.233.049.326.049.553.001.255-.054.488-.174.696-.357.228-.201.334-.252.555-.266.42-.025.752.29.752.715 0 .222-.061.361-.26.587-.352.402-.462.854-.334 1.383.072.299.158.456.371.673.276.281.524.388.996.427.368.03.514.088.666.266a.698.698 0 0 1 .096.792c-.142.285-.32.39-.718.42-.316.023-.531.088-.738.222a1.385 1.385 0 0 0-.6.762c-.175.504-.058 1.039.32 1.462.193.217.243.333.244.566.001.416-.299.732-.695.733-.224.001-.369-.062-.585-.252-.321-.282-.604-.394-.999-.394a1.41 1.41 0 0 0-.973.371c-.301.27-.441.589-.478 1.09-.026.347-.073.459-.259.623-.231.203-.512.236-.802.094-.262-.127-.365-.314-.404-.731a1.997 1.997 0 0 0-.086-.44 1.467 1.467 0 0 0-.726-.8c-.581-.286-1.166-.208-1.666.223-.23.197-.324.246-.514.263a.7.7 0 0 1-.54-.181.659.659 0 0 1-.241-.545c.001-.225.046-.337.206-.517.289-.326.414-.603.435-.963a1.425 1.425 0 0 0-.421-1.111c-.284-.281-.56-.397-1.027-.433a2.151 2.151 0 0 1-.358-.05.801.801 0 0 1-.36-.328c-.07-.128-.08-.171-.079-.358 0-.257.054-.379.242-.544a.789.789 0 0 1 .543-.19c.354 0 .732-.172.998-.454.379-.402.517-.984.35-1.481a1.4 1.4 0 0 0-.342-.571c-.185-.203-.258-.37-.258-.587 0-.414.305-.719.72-.719.221 0 .358.061.565.253.413.383.9.503 1.448.358.282-.074.443-.165.639-.361.281-.281.398-.565.438-1.073.021-.262.035-.319.101-.427a.898.898 0 0 1 .418-.324.938.938 0 0 1 .499.039m-.802 3.666a2.423 2.423 0 0 0-1.678 1.339 2.111 2.111 0 0 0-.225 1.036c.002.383.043.595.179.934.272.671.899 1.216 1.631 1.416.306.083.894.083 1.2 0 .469-.128.957-.436 1.246-.787.255-.311.394-.584.506-.997.081-.299.081-.812 0-1.136a2.417 2.417 0 0 0-2.365-1.855 2.929 2.929 0 0 0-.494.05m.92.923a1.5 1.5 0 0 1 1.08 1.434c0 .407-.133.755-.398 1.038A1.437 1.437 0 0 1 8 9.523c-.434 0-.798-.158-1.095-.476a1.515 1.515 0 0 1-.082-1.955 1.498 1.498 0 0 1 1.59-.517" fill-rule="evenodd"/></svg>