<svg width="16" height="16" xmlns="http://www.w3.org/2000/svg"><path d="M3.387 1.044c-.532.056-.941.21-1.326.5a2.494 2.494 0 0 0-.937 1.376C1.001 3.408 1 3.443 1 8s.001 4.592.124 5.08c.215.852.945 1.582 1.796 1.796.489.123.524.124 5.08.124 4.552 0 4.588-.001 5.08-.123.832-.207 1.59-.965 1.797-1.797.122-.492.123-.528.123-5.08 0-4.557-.001-4.592-.124-5.08a2.494 2.494 0 0 0-.937-1.376c-.399-.3-.792-.444-1.375-.503-.342-.034-8.845-.032-9.177.003m8.933.983c.614.046.864.145 1.186.467.325.325.422.575.467 1.199.036.5.036 8.114 0 8.614a4.237 4.237 0 0 1-.067.53c-.098.384-.423.78-.787.959-.409.201-.118.191-5.119.191-5.001 0-4.71.01-5.119-.191a1.638 1.638 0 0 1-.68-.682c-.197-.399-.187-.122-.187-5.114 0-4.097.004-4.485.045-4.693.066-.328.199-.577.431-.809.315-.315.584-.427 1.126-.468.431-.033 8.269-.036 8.704-.003M3.282 3.06a.672.672 0 0 0-.173.149l-.082.103-.008 1.347c-.007 1.332-.006 1.349.05 1.466.085.175.23.262.438.262.207 0 .353-.087.436-.26.055-.113.057-.153.057-1.122V4h1.005c.969 0 1.009-.002 1.122-.057a.5.5 0 0 0 .159-.761c-.151-.172-.12-.169-1.585-.169-1.211 0-1.336.005-1.419.047m8.989 6.596a.552.552 0 0 0-.187.166l-.071.107-.007 1.036L11.998 12h-1.004c-.968 0-1.008.002-1.121.057-.173.083-.26.229-.26.436 0 .208.087.353.262.438.117.056.134.057 1.466.05l1.347-.008.103-.081a.704.704 0 0 0 .156-.187c.051-.101.053-.158.053-1.412s-.002-1.311-.053-1.411a.5.5 0 0 0-.676-.226" fill-rule="evenodd"/></svg>