<svg width="16" height="16" xmlns="http://www.w3.org/2000/svg"><path d="M10.347 1.051c-.7.125-1.333.404-1.858.82-.322.256-1.386 1.324-1.435 1.441-.173.418.206.83.62.674.103-.039.25-.17.793-.705.394-.389.737-.704.84-.771a3.067 3.067 0 0 1 2.466-.403c.252.066.687.268.921.426.217.148.529.446.695.665.175.23.435.76.503 1.027.204.791.095 1.625-.298 2.295-.17.29-.228.357-.916 1.054-.563.57-.65.669-.678.773-.089.331.136.64.466.64a.639.639 0 0 0 .208-.037c.048-.021.395-.35.781-.74.535-.541.734-.761.862-.954a4.017 4.017 0 0 0 .479-3.496c-.433-1.342-1.584-2.367-3.009-2.68-.273-.06-1.165-.078-1.44-.029m-.094 4.039c-.071.034-.937.884-2.63 2.581-2.056 2.06-2.53 2.548-2.557 2.632-.125.398.261.769.648.621.091-.035.597-.529 2.65-2.584 2.729-2.733 2.618-2.609 2.589-2.863a.5.5 0 0 0-.7-.387M3.307 7.055c-.126.053-1.27 1.21-1.497 1.513a3.945 3.945 0 0 0-.804 2.419 3.98 3.98 0 0 0 1.543 3.161 4.014 4.014 0 0 0 4.707.169c.193-.128.413-.327.954-.862.39-.386.719-.733.74-.781a.503.503 0 0 0-.385-.69c-.229-.036-.301.015-1.045.749-.726.716-.9.85-1.329 1.029-.402.167-.665.219-1.138.222-.499.003-.733-.037-1.146-.199a3.183 3.183 0 0 1-1.296-.983 3.917 3.917 0 0 1-.504-1.029 3.065 3.065 0 0 1 .403-2.466c.068-.104.374-.438.76-.828.669-.676.755-.788.756-.984a.504.504 0 0 0-.491-.481.725.725 0 0 0-.228.041" fill-rule="evenodd"/></svg>