<svg width="15" height="15" xmlns="http://www.w3.org/2000/svg"><path d="M2.842 1.024a.528.528 0 0 0-.289.258c-.049.101-.053.151-.053.662v.553l-.585.008-.586.008-.106.075a.496.496 0 0 0 0 .825l.106.075.586.007.585.008v.557c0 .535.002.562.058.667a.634.634 0 0 0 .165.186c.092.065.128.075.273.075.199 0 .32-.063.424-.22l.068-.102.007-.581.008-.582.582-.008.581-.007.102-.068c.156-.103.22-.225.22-.42 0-.195-.064-.317-.22-.42l-.102-.067-.581-.008-.582-.008-.008-.58c-.007-.56-.01-.583-.067-.675a.481.481 0 0 0-.382-.23.69.69 0 0 0-.204.012m5.084.609c-.209.066-.214.077-.872 1.793a63.852 63.852 0 0 1-.697 1.766c-.116.24-.334.459-.569.57-.097.046-.884.356-1.75.689-.867.333-1.606.627-1.642.653-.124.087-.184.216-.184.396 0 .18.06.309.184.397.036.026.775.32 1.642.653a63.19 63.19 0 0 1 1.754.693c.239.116.449.326.565.565.048.099.36.888.693 1.755.333.866.627 1.605.653 1.641.088.124.217.184.397.184.18 0 .309-.06.397-.184.026-.036.32-.775.653-1.641a62.47 62.47 0 0 1 .693-1.755c.116-.239.326-.449.565-.565.099-.048.888-.36 1.755-.693.866-.333 1.605-.627 1.641-.653.124-.088.184-.217.184-.397 0-.18-.06-.309-.184-.396-.036-.026-.775-.32-1.641-.653a70.83 70.83 0 0 1-1.751-.689 1.266 1.266 0 0 1-.569-.57 63.19 63.19 0 0 1-.693-1.754c-.333-.867-.629-1.608-.657-1.647-.063-.089-.276-.191-.393-.188a.706.706 0 0 0-.174.03m.548 2.836c.199.519.415 1.051.48 1.182.211.426.569.784.995.995.131.065.663.281 1.182.48.519.198.944.367.944.374 0 .007-.408.169-.906.359-1.36.52-1.588.646-1.951 1.079-.204.242-.329.51-.744 1.593a21.07 21.07 0 0 1-.374.944c-.007 0-.176-.425-.374-.944-.415-1.083-.54-1.351-.744-1.593-.363-.433-.591-.559-1.951-1.079-.498-.19-.906-.352-.906-.359 0-.007.425-.176.944-.374a23.41 23.41 0 0 0 1.182-.48c.426-.211.784-.569.995-.995.065-.131.281-.663.48-1.182.198-.519.367-.944.374-.944.007 0 .176.425.374.944m-5.632 5.555a.528.528 0 0 0-.289.258c-.049.101-.053.151-.053.662v.553l-.585.008-.586.008-.106.075a.496.496 0 0 0 0 .825l.106.075.586.007.585.008v.557c0 .535.002.562.058.667a.634.634 0 0 0 .165.186c.092.065.128.075.273.075.199 0 .32-.063.424-.22l.068-.102.007-.581.008-.582.582-.008.581-.007.102-.068c.156-.103.22-.225.22-.42 0-.195-.064-.317-.22-.42l-.102-.067-.581-.008-.582-.008-.008-.58c-.007-.56-.01-.583-.067-.675a.481.481 0 0 0-.382-.23.69.69 0 0 0-.204.012" fill-rule="evenodd"/></svg>