<svg width="16" height="16" xmlns="http://www.w3.org/2000/svg"><path d="M2.933 1.032c-.687.081-1.317.519-1.661 1.157-.209.387-.223.51-.262 2.311-.032 1.538-.025 1.694.094 1.937.086.176.282.372.456.458a1.003 1.003 0 0 0 1.427-.75c.014-.087.027-.638.028-1.225.001-.587.011-1.239.021-1.449.016-.334.025-.388.07-.42.042-.032.366-.038 1.966-.038h1.915V13.012l-1.128.007-1.127.008-.178.087a1.01 1.01 0 0 0-.47.486c-.058.125-.068.184-.068.4 0 .216.01.275.068.4.142.305.425.524.754.584.221.041 6.103.041 6.324 0 .329-.06.612-.279.754-.584.058-.125.068-.184.068-.4 0-.216-.01-.275-.068-.4a1.01 1.01 0 0 0-.47-.486l-.178-.087-1.127-.008-1.128-.007V3.013h1.915c1.6 0 1.924.006 1.966.038.045.032.054.086.07.42.01.21.02.862.021 1.449.001.587.014 1.138.028 1.225.11.669.824 1.045 1.427.75a1.13 1.13 0 0 0 .456-.458c.118-.242.126-.397.093-1.936-.038-1.802-.052-1.925-.261-2.312a2.276 2.276 0 0 0-1.402-1.115c-.154-.042-.544-.046-5.233-.049-2.786-.002-5.108.001-5.16.007" fill-rule="evenodd"/></svg>