<svg width="15" height="15" xmlns="http://www.w3.org/2000/svg"><path d="M7.342 2.024a.528.528 0 0 0-.289.258C7 2.39 7 2.404 7 4.695v2.304l-2.335.007-2.336.007-.106.075a.496.496 0 0 0 0 .825l.106.075 2.336.006L7 8.001v4.616l.058.11a.634.634 0 0 0 .165.186c.093.065.128.075.275.075.141 0 .185-.011.269-.068a.62.62 0 0 0 .161-.162l.06-.095.006-2.331.007-2.331 2.333-.007 2.332-.006.102-.068c.156-.103.22-.225.22-.422 0-.136-.012-.181-.068-.265a.62.62 0 0 0-.162-.161l-.095-.059-2.331-.007-2.331-.007-.007-2.331-.006-2.331-.06-.095a.481.481 0 0 0-.382-.23.69.69 0 0 0-.204.012" fill-rule="evenodd"/></svg>