<svg width="16" height="16" xmlns="http://www.w3.org/2000/svg"><path d="M3.32 1.032c-.492.045-.852.162-1.192.389-.635.423-.986.993-1.087 1.766-.047.355-.071 2.861-.029 3.061a.495.495 0 0 0 .575.407c.157-.024.345-.186.386-.331.016-.059.027-.572.027-1.3 0-1.945.041-2.182.447-2.581C2.86 2.038 3.078 2 5.024 2c.728 0 1.241-.011 1.3-.027.145-.041.307-.229.331-.386a.481.481 0 0 0-.256-.521c-.1-.051-.158-.052-1.538-.048a71.82 71.82 0 0 0-1.541.014m6.942.035a.487.487 0 0 0-.25.52.542.542 0 0 0 .331.386c.06.016.645.027 1.523.027h1.426l-1.123 1.127c-1.075 1.078-1.125 1.132-1.15 1.254a.527.527 0 0 0 .042.356c.046.086.212.22.293.238.04.009.086.02.102.025a.608.608 0 0 0 .16-.019c.126-.026.17-.066 1.257-1.15L14 2.708v1.426c0 .878.011 1.463.027 1.523a.542.542 0 0 0 .386.331.496.496 0 0 0 .572-.395c.021-.099.028-.764.022-2.181-.006-1.841-.011-2.046-.051-2.119a.624.624 0 0 0-.271-.251c-.051-.02-.761-.028-2.2-.027-2.048.001-2.129.003-2.223.052m4.045 8.317a.522.522 0 0 0-.281.298c-.015.053-.026.582-.026 1.278 0 1.889-.036 2.13-.373 2.522-.1.117-.32.292-.442.353-.269.135-.428.148-2.012.163-1.324.014-1.488.02-1.562.061a.494.494 0 0 0 .141.929c.199.042 2.704.018 3.061-.029.606-.079 1.045-.29 1.451-.695.405-.406.616-.845.695-1.451.046-.349.071-2.863.03-3.052-.073-.341-.386-.514-.682-.377m-13.017.667a.505.505 0 0 0-.277.364c-.019.088-.025.805-.02 2.172.008 2.244-.002 2.109.171 2.27.163.15.049.142 2.248.15 1.417.006 2.082-.001 2.181-.022.367-.076.531-.518.292-.79-.175-.199-.126-.194-1.738-.194L2.708 14l1.123-1.127c1.084-1.087 1.124-1.131 1.15-1.257a.608.608 0 0 0 .019-.16 1.95 1.95 0 0 1-.025-.102c-.019-.089-.156-.25-.258-.302a.618.618 0 0 0-.432.004c-.047.023-.58.536-1.185 1.14L2 13.293v-1.426c0-.854-.011-1.465-.027-1.522-.048-.175-.289-.346-.485-.344a.6.6 0 0 0-.198.05" fill-rule="evenodd"/></svg>