<svg width="16" height="16" xmlns="http://www.w3.org/2000/svg"><path d="M11.013 2.13c-.394.088-.7.235-1.034.496-.362.283-.702.8-.827 1.254l-.051.187-3.397.013-3.397.013-.098.061a.492.492 0 0 0-.181.558c.039.102.154.22.258.265.071.03.654.036 3.457.036h3.372l.019.114a2.518 2.518 0 0 0 1.791 1.811c.277.076.889.083 1.164.014a2.448 2.448 0 0 0 1.117-.603 2.45 2.45 0 0 0 .704-1.138c.065-.213.073-.28.074-.651.001-.49-.049-.725-.233-1.093a2.476 2.476 0 0 0-1.569-1.309c-.286-.082-.861-.096-1.169-.028m1.014.973c.454.158.794.501.944.954a1.47 1.47 0 0 1-.365 1.556 1.43 1.43 0 0 1-1.073.45c-.432 0-.766-.142-1.08-.46a1.352 1.352 0 0 1-.401-.715 1.272 1.272 0 0 1-.014-.648 1.527 1.527 0 0 1 1.989-1.137m-7.86 5.911c-1.014.139-1.804.83-2.092 1.829-.053.181-.061.269-.059.637.001.384.009.45.073.661.27.887.972 1.544 1.862 1.742.262.059.798.058 1.048-.002.416-.1.815-.305 1.119-.577.318-.283.624-.777.725-1.167l.049-.19 3.321-.001c1.897 0 3.365-.011 3.425-.025.477-.11.477-.798 0-.909-.06-.014-1.528-.024-3.425-.025H6.892l-.048-.184c-.216-.839-.989-1.57-1.848-1.747a3.003 3.003 0 0 0-.829-.042m.667.975c.571.148 1.006.6 1.126 1.171.073.346.03.66-.137.999-.305.619-1.051.959-1.726.786a1.54 1.54 0 0 1-1.124-1.172 1.297 1.297 0 0 1 0-.613c.118-.56.531-.999 1.094-1.163a1.74 1.74 0 0 1 .767-.008" fill-rule="evenodd"/></svg>