<svg width="16" height="16" xmlns="http://www.w3.org/2000/svg"><path d="M4.516 2.027C2.503 2.239.881 3.794.252 6.115c-.604 2.225-.08 4.714 1.327 6.311a4.651 4.651 0 0 0 2.586 1.499l.302.062h7.066l.302-.062c1.733-.351 3.089-1.627 3.755-3.533a7.216 7.216 0 0 0 0-4.784c-.719-2.058-2.247-3.383-4.13-3.581-.289-.031-6.654-.03-6.944 0m7.088 2.045c.848.24 1.446.783 1.903 1.728.646 1.339.647 3.059 0 4.4-.487 1.01-1.189 1.605-2.08 1.762-.316.056-6.538.056-6.854 0-.891-.157-1.593-.752-2.08-1.762-.809-1.677-.589-3.869.525-5.233.426-.521 1.03-.866 1.644-.94.098-.011 1.654-.019 3.458-.017 3.275.004 3.28.005 3.484.062m-6.086.967c-.974.177-1.778.774-2.203 1.634A2.863 2.863 0 0 0 3.008 8a2.988 2.988 0 0 0 3.248 2.984 2.997 2.997 0 0 0 2.728-3.24 2.956 2.956 0 0 0-.895-1.885 2.572 2.572 0 0 0-.769-.541c-.452-.221-.707-.281-1.24-.292-.242-.005-.495 0-.562.013m.917 2.066c.181.092.383.297.473.482.057.115.065.17.065.413 0 .256-.006.293-.077.432-.153.302-.436.51-.75.553a.998.998 0 0 1-1.042-.553c-.071-.139-.077-.176-.077-.432 0-.244.008-.297.065-.413.116-.235.343-.443.585-.536.064-.024.183-.035.351-.03.22.006.275.018.407.084" fill-rule="evenodd"/></svg>