<svg width="14" height="14" xmlns="http://www.w3.org/2000/svg"><path d="M4.13 2.512a3.814 3.814 0 0 0-1.369.391C1.681 3.467.885 4.594.609 5.951a4.73 4.73 0 0 0-.101 1.061c.001.587.074 1.052.252 1.594.443 1.352 1.353 2.327 2.53 2.711.563.184.371.175 3.71.175s3.147.009 3.71-.175a3.52 3.52 0 0 0 1.384-.839c.749-.723 1.212-1.694 1.371-2.871A5.99 5.99 0 0 0 13.492 7a5.99 5.99 0 0 0-.027-.607c-.158-1.169-.623-2.148-1.358-2.858a3.575 3.575 0 0 0-1.428-.863c-.542-.169-.337-.16-3.551-.164-1.591-.002-2.94-.001-2.998.004m5.74 1.012c.95.1 1.736.694 2.218 1.678.522 1.065.538 2.427.04 3.513-.449.981-1.206 1.6-2.141 1.749-.19.031-.626.036-2.987.036-3.007 0-2.986.001-3.395-.131-1.324-.428-2.202-1.972-2.086-3.666.066-.946.441-1.824 1.031-2.412.47-.467.994-.713 1.65-.776.214-.02 5.47-.012 5.67.009M4.565 4.541a2.507 2.507 0 0 0-1.937 1.685 2.4 2.4 0 0 0 0 1.548c.415 1.316 1.877 2.04 3.198 1.583a2.53 2.53 0 0 0 1.443-1.315 2.501 2.501 0 0 0-2.704-3.501m.775.999c.406.087.811.409 1.004.799.103.206.143.391.143.661 0 .142-.015.296-.037.381-.11.425-.425.796-.832.983a1.306 1.306 0 0 1-.622.129c-.422 0-.754-.139-1.055-.443A1.485 1.485 0 0 1 3.501 7c0-.684.498-1.314 1.154-1.459a1.97 1.97 0 0 1 .685-.001" fill-rule="evenodd"/></svg>