<svg width="16" height="16" xmlns="http://www.w3.org/2000/svg"><path d="M3.387 1.044c-.532.056-.941.21-1.326.5a2.494 2.494 0 0 0-.937 1.376C1.001 3.408 1 3.443 1 8s.001 4.592.124 5.08c.215.852.945 1.582 1.796 1.796.489.123.524.124 5.08.124 4.552 0 4.588-.001 5.08-.123.832-.207 1.59-.965 1.797-1.797.122-.492.123-.528.123-5.08 0-4.557-.001-4.592-.124-5.08a2.494 2.494 0 0 0-.937-1.376c-.399-.3-.792-.444-1.375-.503-.342-.034-8.845-.032-9.177.003m8.933.983c.614.046.864.145 1.186.467.325.325.422.575.467 1.199.036.5.036 8.114 0 8.614a4.237 4.237 0 0 1-.067.53c-.098.384-.423.78-.787.959-.409.201-.118.191-5.119.191-5.001 0-4.71.01-5.119-.191a1.638 1.638 0 0 1-.68-.682c-.197-.399-.187-.122-.187-5.114 0-4.097.004-4.485.045-4.693.066-.328.199-.577.431-.809.315-.315.584-.427 1.126-.468.431-.033 8.269-.036 8.704-.003" fill-rule="evenodd"/></svg>