<svg width="16" height="16" xmlns="http://www.w3.org/2000/svg"><path d="M7.8.544a.576.576 0 0 0-.265.288c-.034.082-.042.232-.042.854.001.436.012.796.028.853a.5.5 0 0 0 .614.341.543.543 0 0 0 .342-.334c.018-.066.029-.392.029-.866C8.505.842 8.497.791 8.33.635A.503.503 0 0 0 7.8.544M2.804 2.591a.496.496 0 0 0-.234.618c.034.088.179.248.624.689.539.536.588.577.707.602a.521.521 0 0 0 .356-.041.648.648 0 0 0 .238-.293c.009-.04.02-.086.025-.102a.608.608 0 0 0-.019-.16c-.026-.122-.063-.166-.591-.701-.358-.362-.602-.587-.67-.619a.492.492 0 0 0-.436.007m9.956-.007c-.068.032-.312.257-.67.619-.523.53-.565.579-.59.698a.521.521 0 0 0 .041.356c.046.086.212.22.293.238.04.009.086.02.102.025a.608.608 0 0 0 .16-.019c.123-.026.166-.062.71-.603.632-.626.68-.694.654-.925a.493.493 0 0 0-.7-.389M7.467 4.038a3.85 3.85 0 0 0-1.254.389c-1.108.557-1.862 1.541-2.139 2.793-.084.377-.084 1.183 0 1.56.36 1.626 1.521 2.787 3.144 3.145.38.084 1.184.084 1.564 0 1.622-.358 2.785-1.521 3.143-3.143.084-.38.084-1.184 0-1.564-.364-1.651-1.609-2.865-3.231-3.154a5.011 5.011 0 0 0-1.227-.026m1.07 1.014a3.023 3.023 0 0 1 2.411 2.411c.08.459.037 1.072-.103 1.484a3 3 0 0 1-5.69 0c-.191-.56-.19-1.335.002-1.898.143-.419.417-.862.724-1.168a3.11 3.11 0 0 1 1.568-.828 4.17 4.17 0 0 1 1.088-.001M.947 7.506c-.015.005-.06.017-.1.025a.504.504 0 0 0-.17.102c-.28.246-.211.662.136.823.096.044.184.05.867.05.474 0 .8-.011.866-.029a.543.543 0 0 0 .333-.341.486.486 0 0 0-.216-.555l-.112-.074-.789-.006a16.273 16.273 0 0 0-.815.005m12.527.012a.511.511 0 0 0-.367.405.518.518 0 0 0 .347.554c.066.018.392.029.866.029.683 0 .771-.006.867-.05A.488.488 0 0 0 15.493 8a.445.445 0 0 0-.128-.329c-.154-.163-.159-.164-1.018-.169-.433-.003-.826.005-.873.016m-9.687 4.028c-.052.027-.341.3-.644.605-.591.597-.628.652-.603.879a.496.496 0 0 0 .708.385c.054-.028.353-.307.664-.62.579-.582.591-.598.6-.802a.523.523 0 0 0-.291-.464.59.59 0 0 0-.434.017m8-.023c-.207.082-.337.34-.288.573.025.123.061.166.591.699.31.313.608.592.662.62a.496.496 0 0 0 .708-.385c.025-.227-.012-.282-.603-.879-.303-.305-.595-.578-.649-.606a.61.61 0 0 0-.421-.022m-3.913 1.596a.591.591 0 0 0-.321.249c-.041.075-.047.184-.055.872-.006.525.002.82.021.887a.61.61 0 0 0 .286.33.49.49 0 0 0 .561-.133c.137-.156.145-.221.136-1.084-.008-.736-.012-.793-.063-.88a.54.54 0 0 0-.565-.241" fill-rule="evenodd"/></svg>