<svg width="15" height="15" xmlns="http://www.w3.org/2000/svg"><path d="M3.342 2.025A.522.522 0 0 0 3 2.504c0 .151.089.314.223.409l.106.075h8.334l.095-.06a.62.62 0 0 0 .162-.161c.056-.084.068-.129.068-.267s-.012-.183-.068-.267a.62.62 0 0 0-.162-.161l-.095-.059-4.125-.005c-2.269-.002-4.157.006-4.196.017m0 5A.522.522 0 0 0 3 7.504c0 .151.089.314.223.409l.106.075h8.334l.095-.06a.62.62 0 0 0 .162-.161c.056-.084.068-.129.068-.267s-.012-.183-.068-.267a.62.62 0 0 0-.162-.161l-.095-.059-4.125-.005c-2.269-.002-4.157.006-4.196.017m0 5a.522.522 0 0 0-.342.479c0 .151.089.314.223.409l.106.075h8.334l.095-.06a.62.62 0 0 0 .162-.161c.056-.084.068-.129.068-.267s-.012-.183-.068-.267a.62.62 0 0 0-.162-.161l-.095-.059-4.125-.005c-2.269-.002-4.157.006-4.196.017" fill-rule="evenodd"/></svg>