<svg width="16" height="16" xmlns="http://www.w3.org/2000/svg"><path d="M3.407 1.043c-.886.087-1.558.509-2.031 1.276-.242.392-.324.757-.364 1.628-.04.858-.018 8.346.025 8.666.092.686.334 1.185.784 1.618.467.451.916.653 1.634.733.457.052 8.689.053 9.105.002.7-.087 1.161-.294 1.609-.724.463-.444.685-.893.784-1.585.043-.297.047-.675.047-4.63 0-4.525-.002-4.622-.119-5.074a2.07 2.07 0 0 0-.318-.729c-.407-.617-.974-1-1.704-1.151-.183-.038-.701-.043-4.712-.048-2.479-.003-4.612.005-4.74.018m8.966 1.064c.169.015.385.05.481.079.342.102.713.418.879.746.175.348.17.242.18 3.215l.009 2.693-1.154-1.15c-1.106-1.101-1.164-1.154-1.367-1.253-.209-.102-.216-.104-.521-.104-.306 0-.312.001-.521.105-.209.103-.269.16-3.476 3.347-3.186 3.166-3.659 3.646-3.805 3.867l-.071.108-.137-.074c-.217-.116-.471-.388-.596-.637-.188-.377-.181-.162-.18-5.089 0-4.031.004-4.419.045-4.625.063-.312.182-.535.408-.764.303-.306.56-.419 1.05-.463.352-.031 8.415-.032 8.776-.001M5.047 3.559a2.01 2.01 0 0 0-1.438 1.308c-.069.197-.075.243-.074.613 0 .363.007.42.072.613.239.711.828 1.21 1.578 1.337.319.054.602.028.947-.086.895-.296 1.474-1.271 1.3-2.188a1.986 1.986 0 0 0-1.348-1.549c-.257-.084-.775-.108-1.037-.048m.838 1.137a.868.868 0 0 1 .437.473.775.775 0 0 1 .046.366.705.705 0 0 1-.105.387.882.882 0 0 1-1.423.181c-.18-.191-.236-.336-.237-.61-.001-.274.053-.413.238-.611a.867.867 0 0 1 1.044-.186m6.564 4.203 1.475 1.488-.013 1.04c-.015 1.162-.035 1.345-.183 1.638-.119.238-.431.55-.662.664-.378.185-.098.174-4.666.184l-4.12.008 3.254-3.254C10.6 7.6 10.793 7.413 10.88 7.413c.088-.001.178.084 1.569 1.486" fill-rule="evenodd"/></svg>