<svg width="15" height="15" xmlns="http://www.w3.org/2000/svg"><path d="M3.414 1.027c-.764.052-1.204.239-1.676.711-.467.467-.645.874-.711 1.625-.036.406-.036 7.862-.001 8.275.058.668.224 1.082.616 1.53.269.307.737.604 1.113.706.423.114.406.114 4.758.114 3.26 0 4.169-.007 4.337-.033.611-.094 1.035-.305 1.438-.718.355-.364.557-.761.654-1.287.04-.219.044-.556.052-4.225.009-4.025.002-4.427-.081-4.822-.096-.456-.29-.804-.651-1.165-.484-.485-.898-.656-1.726-.712-.445-.03-7.672-.029-8.122.001m8.416 1.029a1.41 1.41 0 0 1 1 .753c.158.313.153.232.163 2.979l.009 2.499L11.92 7.21c-1.203-1.198-1.221-1.212-1.582-1.257-.399-.049-.675.052-1.043.383-.452.406-6.261 6.249-6.345 6.382l-.083.131-.125-.068a1.512 1.512 0 0 1-.623-.72c-.105-.267-.107-.334-.106-4.598 0-3.724.004-4.094.042-4.286a1.27 1.27 0 0 1 .393-.728c.295-.292.513-.384 1.01-.423.14-.011 2.038-.018 4.217-.015 3.508.005 3.985.01 4.155.045M4.923 3.348a1.852 1.852 0 0 0-1.527 1.341 2.047 2.047 0 0 0-.014.911c.137.517.5.97.958 1.197a1.82 1.82 0 0 0 1.438.091c.278-.097.444-.205.685-.448.183-.184.246-.268.33-.44.153-.313.193-.484.193-.837 0-.354-.04-.524-.193-.838-.084-.172-.146-.256-.329-.44-.192-.192-.263-.245-.464-.343a2.679 2.679 0 0 0-.376-.152 2.41 2.41 0 0 0-.701-.042M5.53 4.42a.888.888 0 0 1 .391.401c.055.118.065.176.065.354 0 .182-.01.231-.069.345a.87.87 0 0 1-.388.398c-.123.06-.171.07-.366.07-.189 0-.246-.011-.35-.062-.402-.197-.587-.687-.409-1.077a.843.843 0 0 1 .493-.466c.144-.053.49-.033.633.037m6.09 3.911 1.384 1.382-.013.962c-.014 1.072-.034 1.248-.169 1.522a1.65 1.65 0 0 1-.622.624c-.356.173-.099.163-4.337.172l-3.825.008 3.025-3.026c2.649-2.647 3.035-3.025 3.1-3.025.064 0 .256.182 1.457 1.381" fill-rule="evenodd"/></svg>