<svg width="24" height="24" xmlns="http://www.w3.org/2000/svg"><path d="M9.051.06c-.137.03-.38.122-.54.204-.268.138-.491.349-2.844 2.693-1.404 1.399-2.709 2.72-2.9 2.936a10.88 10.88 0 0 0-2.402 4.469A10.854 10.854 0 0 0 3.6 21.214c1.584 1.434 3.549 2.348 5.788 2.694.625.097 2.263.096 2.892-.001 1.393-.215 2.723-.659 3.815-1.273a13.477 13.477 0 0 0 1.685-1.155c.541-.442 5.66-5.59 5.864-5.896a2.281 2.281 0 0 0 .299-1.68 2.136 2.136 0 0 0-.606-1.088 2.115 2.115 0 0 0-1.577-.655c-.378 0-.646.062-1 .23-.291.137-.393.234-3.24 3.075a280.983 280.983 0 0 1-3.04 3.009 6.82 6.82 0 0 1-2.68 1.212c-.362.079-.533.091-1.24.09-.691-.002-.882-.016-1.216-.089a6.89 6.89 0 0 1-2.402-1.02c-.474-.321-1.287-1.135-1.608-1.607a6.87 6.87 0 0 1-1.021-2.38c-.123-.567-.134-1.945-.02-2.48.22-1.031.599-1.881 1.185-2.66.136-.18 1.478-1.569 3.072-3.18 2.087-2.109 2.859-2.914 2.941-3.067a2.85 2.85 0 0 0 .19-.516C12.09 1.175 10.67-.291 9.051.06m9.389 2.763a3.393 3.393 0 0 0-.48.182c-.24.115-.592.457-4.666 4.542-3.944 3.954-4.421 4.446-4.546 4.685-.202.387-.27.653-.271 1.069a2.17 2.17 0 0 0 1.211 1.978c.396.198.679.256 1.132.231a2.091 2.091 0 0 0 1.155-.406c.135-.096 2.181-2.126 4.548-4.51C20.446 6.642 20.837 6.237 20.952 6c.444-.913.289-1.891-.408-2.581-.32-.317-.648-.508-1.028-.597a2.566 2.566 0 0 0-1.076.001" fill-rule="evenodd"/></svg>