<svg width="16" height="16" xmlns="http://www.w3.org/2000/svg"><path d="M7.44 2.029c-.67.075-1.3.335-1.901.787-.277.208-.767.713-.933.964a3.62 3.62 0 0 0-.598 1.796c-.02.323.015.462.156.623.304.344.887.277 1.093-.127.038-.073.063-.196.079-.387.031-.347.08-.564.187-.822.336-.807 1.123-1.412 2.024-1.555.275-.044.73-.033 1 .022a2.73 2.73 0 0 1 1.602.998c.147.193.362.629.424.859.069.255.083.784.029 1.053A2.595 2.595 0 0 1 9 8.11c-.602.23-.893.396-1.154.657-.322.323-.484.705-.506 1.199-.018.387.015.512.179.675.28.281.717.263.983-.04.103-.117.132-.212.16-.525.039-.428.109-.5.743-.758.488-.199.753-.345 1.088-.598a3.758 3.758 0 0 0 1.483-2.583 2.106 2.106 0 0 0 0-.572c-.1-.908-.456-1.719-1.021-2.326-.802-.86-2.233-1.353-3.515-1.21m.051 10.138c-.156.106-.159.121-.151.919l.007.726.087.088.087.087h.958l.087-.087.087-.088.007-.726c.008-.798.005-.813-.151-.919-.084-.056-.117-.06-.509-.06s-.425.004-.509.06" fill-rule="evenodd"/></svg>