<svg width="16" height="16" xmlns="http://www.w3.org/2000/svg"><path d="M3.32 1.032c-.498.047-.852.162-1.192.389-.495.33-.842.786-.991 1.302C.999 3.199 1 3.172 1 8s-.001 4.801.137 5.277a2.41 2.41 0 0 0 1.586 1.586c.476.138.449.137 5.277.137s4.801.001 5.277-.137a2.41 2.41 0 0 0 1.586-1.586c.138-.476.137-.449.137-5.277s.001-4.801-.137-5.277c-.234-.812-.965-1.471-1.827-1.648-.205-.042-.601-.046-4.916-.049-2.581-.003-4.741 0-4.8.006m9.195.995c.523.043.75.134 1.038.416.281.277.379.523.42 1.059.036.472.036 8.523 0 8.996-.045.597-.168.859-.546 1.172-.182.151-.312.211-.576.268-.212.046-.483.049-4.851.049-4.381 0-4.639-.003-4.853-.049a1.258 1.258 0 0 1-.678-.36c-.309-.311-.398-.526-.442-1.063-.037-.456-.037-8.574 0-9.03.042-.516.132-.744.405-1.028.261-.271.538-.39 1.002-.428.396-.033 8.68-.034 9.081-.002M3.293 11.05c-.103.045-.247.209-.268.304a2.37 2.37 0 0 1-.025.103c-.019.062.046.265.112.352.038.05.118.113.178.14.106.048.274.05 4.71.05s4.604-.002 4.71-.05a.507.507 0 0 0 .23-.683.62.62 0 0 0-.255-.224c-.121-.046-9.287-.037-9.392.008" fill-rule="evenodd"/></svg>