<svg width="16" height="16" xmlns="http://www.w3.org/2000/svg"><path d="M3.449 5.052a.94.94 0 0 0-.358.339.717.717 0 0 0-.067.529.978.978 0 0 0 .102.25c.034.048 1.042 1.119 2.241 2.379C7.77 11.074 7.686 10.996 8 10.996c.314 0 .23.078 2.633-2.447a178.661 178.661 0 0 0 2.241-2.379.978.978 0 0 0 .102-.25.728.728 0 0 0-.23-.731.587.587 0 0 0-.46-.176c-.32 0-.24-.073-2.353 2.147A166.449 166.449 0 0 1 8 9.173c-.009 0-.879-.906-1.933-2.013-2.119-2.227-2.032-2.148-2.359-2.146a.871.871 0 0 0-.259.038" fill-rule="evenodd"/></svg>