<svg width="16" height="16" xmlns="http://www.w3.org/2000/svg"><path d="M7.757 1.038c-.16.051-6.523 3.268-6.593 3.332a.492.492 0 0 0-.016.711c.046.045.608.343 1.287.682l1.204.604-1.186.593c-.653.326-1.22.617-1.26.645A.529.529 0 0 0 1.007 8c0 .148.082.321.186.395.04.028.607.318 1.258.644l1.184.592-1.211.613c-.666.338-1.244.645-1.285.684a.535.535 0 0 0-.112.199.46.46 0 0 0 .154.516c.049.042 1.559.814 3.354 1.715L7.8 14.996h.4l3.265-1.638c1.795-.901 3.305-1.673 3.354-1.715a.46.46 0 0 0 .154-.516.535.535 0 0 0-.112-.199c-.041-.039-.619-.346-1.285-.684l-1.211-.613 1.184-.592a44.008 44.008 0 0 0 1.258-.644.529.529 0 0 0 .186-.395.529.529 0 0 0-.186-.395c-.04-.028-.607-.319-1.26-.645l-1.186-.593 1.204-.604c.679-.339 1.241-.637 1.287-.682a.492.492 0 0 0-.016-.711c-.042-.038-1.54-.805-3.329-1.705L8.253 1.03l-.213-.008a1.2 1.2 0 0 0-.283.016m2.939 2.341c1.478.744 2.685 1.354 2.683 1.356l-2.692 1.356L8 7.444 5.308 6.089 2.617 4.733l.151-.077c.636-.323 5.221-2.628 5.23-2.629.006 0 1.22.608 2.698 1.352M6.258 7.686l1.498.754h.489l1.5-.755 1.5-.756 1.058.529c.581.291 1.057.535 1.057.543 0 .007-1.206.619-2.68 1.36L8 10.707 5.32 9.361a200.436 200.436 0 0 1-2.68-1.36c0-.013 2.073-1.062 2.107-1.066.007-.001.687.337 1.511.751m.023 3.281 1.508.753h.422l1.521-.76 1.522-.759 1.059.529c.946.473 1.053.533 1.01.565-.089.065-5.282 2.665-5.323 2.665-.041 0-5.235-2.601-5.323-2.666-.043-.031.067-.093.991-.556a27.967 27.967 0 0 1 1.071-.523c.019-.001.712.337 1.542.752" fill-rule="evenodd"/></svg>