<svg width="15" height="15" xmlns="http://www.w3.org/2000/svg"><path d="M7.342 1.024a.528.528 0 0 0-.289.258L7 1.391v10.896L4.406 9.695C1.689 6.978 1.714 7.002 1.499 7.001a.604.604 0 0 0-.419.231.545.545 0 0 0-.012.518c.03.048 1.43 1.462 3.112 3.142 2.816 2.813 3.066 3.057 3.17 3.084a.562.562 0 0 0 .409-.05c.043-.027 1.453-1.424 3.133-3.106 2.812-2.815 3.056-3.066 3.084-3.17a.55.55 0 0 0-.062-.427.615.615 0 0 0-.413-.222c-.215.001-.19-.023-2.907 2.693L8 12.287l-.006-5.475-.006-5.474-.06-.096a.481.481 0 0 0-.382-.23.69.69 0 0 0-.204.012" fill-rule="evenodd"/></svg>