<svg width="16" height="16" xmlns="http://www.w3.org/2000/svg"><path d="M4.844 2.028a1.287 1.287 0 0 0-.28.095c-.314.153-.323.167-1.953 2.904-.83 1.393-1.53 2.587-1.556 2.653-.066.167-.064.478.005.657.049.128 2.802 4.779 3.021 5.103.119.177.302.35.449.425.271.138.185.135 3.47.135 3.334 0 3.209.005 3.499-.152.275-.15.306-.197 1.885-2.85.828-1.39 1.528-2.588 1.557-2.663.067-.176.07-.488.005-.655-.026-.066-.726-1.264-1.556-2.661-1.16-1.953-1.541-2.572-1.643-2.675a1.187 1.187 0 0 0-.614-.318c-.194-.031-6.099-.03-6.289.002m6.142.94c.047.023.426.635 1.275 2.059C13.882 7.747 14 7.95 14 8.008c0 .061-2.884 4.911-2.976 5.005l-.065.067H8.015c-2.904 0-2.945-.001-3.013-.053-.071-.056-2.966-4.886-2.993-4.996a.206.206 0 0 1 .012-.12c.056-.115 2.821-4.738 2.905-4.856l.086-.122 2.954.001c2.323 0 2.968.007 3.02.034" fill-rule="evenodd"/></svg>