<svg width="16" height="16" xmlns="http://www.w3.org/2000/svg"><path d="m7.373 1.029-.4.054c-1.428.189-2.861.912-3.932 1.985-1.099 1.099-1.776 2.483-1.988 4.066a9.039 9.039 0 0 0-.015 1.613 7.018 7.018 0 0 0 5.525 6.103c.889.19 1.985.19 2.874 0a7.034 7.034 0 0 0 4.543-3.213c1.016-1.655 1.284-3.701.735-5.61-.673-2.344-2.634-4.227-5.008-4.811-.611-.15-.871-.18-1.6-.19a14.25 14.25 0 0 0-.734.003M8.88 2.067a5.76 5.76 0 0 1 1.749.548c1.789.874 3.003 2.536 3.308 4.532a7.487 7.487 0 0 1 0 1.706 6.028 6.028 0 0 1-2.684 4.187 6.471 6.471 0 0 1-1.981.825 6.007 6.007 0 0 1-6.659-3.238c-.426-.88-.597-1.631-.597-2.627 0-.996.171-1.747.597-2.627a5.972 5.972 0 0 1 2.76-2.761c.687-.336 1.311-.505 2.187-.596.215-.022 1.048.01 1.32.051M7.731 4.035c-.658.187-.938.954-.544 1.492.397.54 1.229.54 1.626 0 .351-.48.175-1.152-.372-1.422a1.118 1.118 0 0 0-.71-.07m-.044 3.042a1.023 1.023 0 0 0-.589.512c-.106.21-.114.376-.106 2.038L7 11.213l.064.16c.088.218.3.438.516.534.44.198.967.052 1.238-.343.173-.253.171-.228.163-2.101l-.008-1.691-.086-.176c-.17-.345-.468-.534-.86-.548a1.121 1.121 0 0 0-.34.029" fill-rule="evenodd"/></svg>