<svg width="16" height="16" xmlns="http://www.w3.org/2000/svg"><path d="M1.741 1.296a.982.982 0 0 0-.246.16c-.523.471-.138 1.341.569 1.284.75-.06.941-1.066.269-1.413-.14-.073-.437-.088-.592-.031m3.024-.006c-.368.138-.574.49-.499.853a.756.756 0 0 0 1.225.426A.693.693 0 0 0 5.745 2a.692.692 0 0 0-.412-.668c-.15-.075-.424-.095-.568-.042m2.976.006a.982.982 0 0 0-.246.16c-.523.471-.138 1.341.569 1.284.75-.06.941-1.066.269-1.413-.14-.073-.437-.088-.592-.031m3.024-.006c-.368.138-.574.49-.499.853a.756.756 0 0 0 1.225.426.693.693 0 0 0 .254-.569.692.692 0 0 0-.412-.668c-.15-.075-.424-.095-.568-.042m2.976.006a.982.982 0 0 0-.246.16c-.523.471-.138 1.341.569 1.284.75-.06.941-1.066.269-1.413-.14-.073-.437-.088-.592-.031M1.711 4.308c-.374.162-.561.622-.399.976.093.201.187.302.361.387a.758.758 0 0 0 .988-.307c.064-.11.072-.151.072-.364s-.008-.254-.072-.364a.784.784 0 0 0-.354-.32c-.133-.06-.466-.065-.596-.008m6 0c-.374.162-.561.622-.399.976.093.201.187.302.361.387a.758.758 0 0 0 .988-.307c.064-.11.072-.151.072-.364s-.008-.254-.072-.364a.784.784 0 0 0-.354-.32c-.133-.06-.466-.065-.596-.008m6 0c-.374.162-.561.622-.399.976.093.201.187.302.361.387a.758.758 0 0 0 .988-.307c.064-.11.072-.151.072-.364s-.008-.254-.072-.364a.784.784 0 0 0-.354-.32c-.133-.06-.466-.065-.596-.008M1.741 7.296a.982.982 0 0 0-.246.16c-.523.471-.138 1.341.569 1.284.75-.06.941-1.066.269-1.413-.14-.073-.437-.088-.592-.031m3.024-.006c-.368.138-.574.49-.499.853a.756.756 0 0 0 1.225.426A.693.693 0 0 0 5.745 8a.692.692 0 0 0-.412-.668c-.15-.075-.424-.095-.568-.042m2.976.006a.982.982 0 0 0-.246.16c-.523.471-.138 1.341.569 1.284.75-.06.941-1.066.269-1.413-.14-.073-.437-.088-.592-.031m3.024-.006c-.368.138-.574.49-.499.853a.756.756 0 0 0 1.225.426.693.693 0 0 0 .254-.569.692.692 0 0 0-.412-.668c-.15-.075-.424-.095-.568-.042m2.976.006a.982.982 0 0 0-.246.16c-.523.471-.138 1.341.569 1.284.75-.06.941-1.066.269-1.413-.14-.073-.437-.088-.592-.031m-12.03 3.012c-.374.162-.561.622-.399.976.093.201.187.302.361.387a.758.758 0 0 0 .988-.307c.064-.11.072-.151.072-.364s-.008-.254-.072-.364a.784.784 0 0 0-.354-.32c-.133-.06-.466-.065-.596-.008m6 0c-.374.162-.561.622-.399.976.093.201.187.302.361.387a.758.758 0 0 0 .988-.307c.064-.11.072-.151.072-.364s-.008-.254-.072-.364a.784.784 0 0 0-.354-.32c-.133-.06-.466-.065-.596-.008m6 0c-.374.162-.561.622-.399.976.093.201.187.302.361.387a.758.758 0 0 0 .988-.307c.064-.11.072-.151.072-.364s-.008-.254-.072-.364a.784.784 0 0 0-.354-.32c-.133-.06-.466-.065-.596-.008m-11.97 2.988a.982.982 0 0 0-.246.16c-.523.471-.138 1.341.569 1.284.75-.06.941-1.066.269-1.413-.14-.073-.437-.088-.592-.031m3.024-.006c-.368.138-.574.49-.499.853a.756.756 0 0 0 1.225.426.693.693 0 0 0 .254-.569.692.692 0 0 0-.412-.668c-.15-.075-.424-.095-.568-.042m2.976.006a.982.982 0 0 0-.246.16c-.523.471-.138 1.341.569 1.284.75-.06.941-1.066.269-1.413-.14-.073-.437-.088-.592-.031m3.024-.006c-.368.138-.574.49-.499.853a.756.756 0 0 0 1.225.426.693.693 0 0 0 .254-.569.692.692 0 0 0-.412-.668c-.15-.075-.424-.095-.568-.042m2.976.006a.982.982 0 0 0-.246.16c-.523.471-.138 1.341.569 1.284.75-.06.941-1.066.269-1.413-.14-.073-.437-.088-.592-.031" fill-rule="evenodd"/></svg>