<svg width="16" height="16" xmlns="http://www.w3.org/2000/svg"><path d="M7.32 1.07a7.403 7.403 0 0 0-1.914.465c-1.617.66-2.893 1.843-3.647 3.385a6.027 6.027 0 0 0-.505 1.358c-.167.657-.2.943-.2 1.722s.033 1.065.2 1.722c.132.521.248.834.506 1.362a6.844 6.844 0 0 0 3.16 3.157c.523.257.837.373 1.358.505.62.157.953.198 1.602.199.498 0 .583-.007.773-.06a2.45 2.45 0 0 0 1.672-1.552c.107-.308.132-.507.147-1.16.012-.535.023-.665.066-.797a1.32 1.32 0 0 1 .838-.838c.132-.043.262-.054.797-.066.804-.018 1.042-.065 1.497-.293.571-.288 1.039-.877 1.212-1.526.073-.27.096-.84.054-1.282a6.96 6.96 0 0 0-4.342-5.836C9.626 1.139 8.409.967 7.32 1.07m1.202 1.065a5.893 5.893 0 0 1 3.625 1.718 5.838 5.838 0 0 1 1.724 3.748c.04.514.015.696-.135.999-.158.32-.441.579-.776.712-.132.052-.215.059-.84.075-.657.017-.704.021-.901.089-.857.293-1.504.914-1.753 1.684-.055.168-.063.26-.078.907-.016.648-.024.736-.076.879a1.49 1.49 0 0 1-.874.87c-.223.079-.602.094-1.068.04a5.963 5.963 0 0 1-4.68-3.343 5.818 5.818 0 0 1-.555-3.035A5.962 5.962 0 0 1 5.487 2.69a5.82 5.82 0 0 1 3.035-.555M6.507 3.629c-.294.049-.642.29-.804.558-.221.364-.209.892.029 1.237.265.386.732.6 1.147.527a1.23 1.23 0 0 0 .986-.914c.184-.796-.537-1.543-1.358-1.408m3.685.687a1.214 1.214 0 0 0-.785.938c-.112.604.356 1.229 1.004 1.34.737.126 1.466-.615 1.324-1.345a1.231 1.231 0 0 0-.66-.877c-.166-.083-.205-.091-.462-.098-.221-.007-.309.002-.421.042M4.448 6.878c-.219.07-.369.166-.523.334-.426.467-.423 1.118.009 1.584.414.447 1.106.503 1.568.126.667-.543.594-1.511-.145-1.944a1.204 1.204 0 0 0-.909-.1" fill-rule="evenodd"/></svg>