<svg width="16" height="16" xmlns="http://www.w3.org/2000/svg"><path d="M3.476 1.044c-.908.086-1.651.554-2.102 1.325-.236.402-.323.786-.361 1.591-.032.689-.033 7.53 0 8.16.028.54.076.834.186 1.134a2.704 2.704 0 0 0 1.552 1.549c.532.194.9.209 5.249.209 3.515 0 4.383-.016 4.806-.091a2.63 2.63 0 0 0 2.114-2.098c.077-.407.092-1.152.092-4.743 0-3.592-.016-4.461-.091-4.886-.145-.823-.669-1.508-1.455-1.903-.243-.122-.604-.213-.989-.249-.371-.035-8.634-.033-9.001.002m9.084 1.007c.28.047.451.112.663.253.406.27.643.64.726 1.136.045.266.068 8.117.026 8.76-.039.6-.108.817-.365 1.143a1.622 1.622 0 0 1-.983.595c-.227.046-.487.049-4.627.049s-4.4-.003-4.627-.049a1.658 1.658 0 0 1-1.188-.919c-.174-.353-.166-.158-.178-4.686-.01-4.028 0-4.695.075-5.056.114-.548.656-1.085 1.207-1.197.327-.066.842-.073 4.898-.068 3.224.004 4.218.013 4.373.039m-1.267.999a.637.637 0 0 0-.273.304c-.026.095-.026 9.197 0 9.292a.707.707 0 0 0 .243.293.507.507 0 0 0 .686-.229c.048-.106.05-.275.05-4.704.001-4.941.008-4.693-.127-4.841-.124-.138-.4-.192-.579-.115" fill-rule="evenodd"/></svg>