<svg width="16" height="16" xmlns="http://www.w3.org/2000/svg"><path d="M5.427 3.076c-.161.075-.34.263-.388.406a.744.744 0 0 0 .027.51c.052.123.288.356 2.083 2.065A164.392 164.392 0 0 1 9.173 8c0 .009-.91.883-2.024 1.943-1.784 1.698-2.031 1.943-2.084 2.065a.654.654 0 0 0 .117.732c.204.22.467.305.738.236a.978.978 0 0 0 .25-.102c.048-.034 1.119-1.042 2.379-2.241C11.074 8.23 10.996 8.314 10.996 8c0-.314.077-.231-2.445-2.633-2.541-2.421-2.461-2.354-2.8-2.353a.673.673 0 0 0-.324.062" fill-rule="evenodd"/></svg>