<svg width="16" height="16" xmlns="http://www.w3.org/2000/svg"><path d="M9.898 3.1c-.126.068-.664.566-2.449 2.267C4.927 7.769 5.004 7.686 5.004 8c0 .314-.078.23 2.447 2.633a178.661 178.661 0 0 0 2.379 2.241.978.978 0 0 0 .25.102c.271.069.534-.016.738-.236a.654.654 0 0 0 .116-.732c-.052-.123-.288-.356-2.083-2.065A164.392 164.392 0 0 1 6.827 8c0-.009.91-.883 2.024-1.943 1.795-1.709 2.031-1.942 2.083-2.065a.655.655 0 0 0-.118-.734.71.71 0 0 0-.567-.244.557.557 0 0 0-.351.086" fill-rule="evenodd"/></svg>