<svg width="16" height="16" xmlns="http://www.w3.org/2000/svg"><path d="M1.266 1.063a.637.637 0 0 0-.246.292c-.026.094-.026 13.197 0 13.291a.707.707 0 0 0 .243.293.507.507 0 0 0 .686-.229c.048-.106.05-.321.05-6.704.001-7.105.009-6.691-.127-6.841-.133-.148-.445-.2-.606-.102m4.961-.02c-.629.065-1.151.32-1.556.76-.331.359-.514.732-.61 1.238-.045.236-.048.554-.048 4.959 0 4.405.003 4.723.048 4.959.064.341.152.582.303.832.252.417.61.743 1.036.944.511.241.735.263 2.6.263 1.865 0 2.089-.022 2.6-.263a2.417 2.417 0 0 0 1.036-.944c.151-.25.239-.491.303-.832.045-.236.048-.554.048-4.959 0-4.405-.003-4.723-.048-4.959a3.635 3.635 0 0 0-.112-.437c-.143-.412-.5-.873-.879-1.134-.377-.261-.707-.378-1.215-.43-.304-.031-3.203-.029-3.506.003m8.053.015a.433.433 0 0 0-.23.235c-.047.103-.049.359-.049 6.707 0 6.389.002 6.604.05 6.71.114.251.441.36.686.229a.707.707 0 0 0 .243-.293c.026-.095.026-13.197 0-13.292a.625.625 0 0 0-.279-.305.602.602 0 0 0-.421.009M9.861 2.063c.26.055.492.182.688.376.204.202.317.398.377.654.044.188.047.501.047 4.907s-.003 4.719-.047 4.907a1.284 1.284 0 0 1-.39.666c-.204.2-.389.302-.67.367-.178.042-.377.047-1.866.047s-1.688-.005-1.866-.047a1.281 1.281 0 0 1-.67-.367 1.284 1.284 0 0 1-.39-.666c-.044-.188-.047-.501-.047-4.907s.003-4.719.047-4.907c.026-.11.085-.266.131-.346.175-.307.548-.595.863-.668.264-.061.667-.074 2.119-.066 1.216.007 1.514.016 1.674.05" fill-rule="evenodd"/></svg>